<?xml version="1.0" encoding="us-ascii" standalone="no"?><svg xmlns="http://www.w3.org/2000/svg" xmlns:xlink="http://www.w3.org/1999/xlink" contentStyleType="text/css" height="498px" preserveAspectRatio="none" style="width:977px;height:498px;background:#FFFFFF;" version="1.1" viewBox="0 0 977 498" width="977px" zoomAndPan="magnify"><defs/><g><!--cluster iniciarSesion--><g id="cluster_iniciarSesion"><path d="M168.5,6.602 L266.5,6.602 A3.75,3.75 0 0 1 269,9.102 L276,31.6699 L799.5,31.6699 A2.5,2.5 0 0 1 802,34.1699 L802,489.102 A2.5,2.5 0 0 1 799.5,491.602 L168.5,491.602 A2.5,2.5 0 0 1 166,489.102 L166,9.102 A2.5,2.5 0 0 1 168.5,6.602 " fill="none" style="stroke:#000000;stroke-width:1.5;"/><line style="stroke:#000000;stroke-width:1.5;" x1="166" x2="276" y1="31.6699" y2="31.6699"/><text fill="#000000" font-family="sans-serif" font-size="14" font-weight="bold" lengthAdjust="spacing" textLength="97" x="170" y="23.5679">iniciarSesion()</text></g><!--entity LoginView--><g id="elem_LoginView"><rect fill="#629EF9" height="39.0679" rx="2.5" ry="2.5" style="stroke:#181818;stroke-width:0.5;" width="88" x="439" y="44.602"/><text fill="#000000" font-family="sans-serif" font-size="14" lengthAdjust="spacing" textLength="68" x="449" y="69.5679">LoginView</text></g><!--entity IniciarSesionController--><g id="elem_IniciarSesionController"><rect fill="#B5BD68" height="39.0679" rx="2.5" ry="2.5" style="stroke:#181818;stroke-width:0.5;" width="174" x="396" y="200.602"/><text fill="#000000" font-family="sans-serif" font-size="14" lengthAdjust="spacing" textLength="154" x="406" y="225.5679">IniciarSesionController</text></g><!--entity UsuarioRepository--><g id="elem_UsuarioRepository"><rect fill="#F2AC4E" height="39.0679" rx="2.5" ry="2.5" style="stroke:#181818;stroke-width:0.5;" width="143" x="182.5" y="336.602"/><text fill="#000000" font-family="sans-serif" font-size="14" lengthAdjust="spacing" textLength="123" x="192.5" y="361.5679">UsuarioRepository</text></g><!--entity Usuario--><g id="elem_Usuario"><rect fill="#F2AC4E" height="39.0679" rx="2.5" ry="2.5" style="stroke:#181818;stroke-width:0.5;" width="72" x="218" y="436.602"/><text fill="#000000" font-family="sans-serif" font-size="14" lengthAdjust="spacing" textLength="52" x="228" y="461.5679">Usuario</text></g><!--entity Sesion--><g id="elem_Sesion"><rect fill="#F2AC4E" height="39.0679" rx="2.5" ry="2.5" style="stroke:#181818;stroke-width:0.5;" width="64" x="553" y="336.602"/><text fill="#000000" font-family="sans-serif" font-size="14" lengthAdjust="spacing" textLength="44" x="563" y="361.5679">Sesion</text></g><!--entity UsuarioNoRegistrado--><g id="elem_UsuarioNoRegistrado"><ellipse cx="78" cy="33.102" fill="#F1F1F1" rx="8" ry="8" style="stroke:#181818;stroke-width:0.5;"/><path d="M78,41.102 L78,68.102 M65,49.102 L91,49.102 M78,68.102 L65,83.102 M78,68.102 L91,83.102 " fill="none" style="stroke:#181818;stroke-width:0.5;"/><text fill="#000000" font-family="sans-serif" font-size="14" lengthAdjust="spacing" textLength="144" x="6" y="99.5679">UsuarioNoRegistrado</text></g><!--entity SistemaDisponible--><g id="elem_SistemaDisponible"><rect fill="#CDEBA5" height="39.0679" rx="2.5" ry="2.5" style="stroke:#181818;stroke-width:0.5;" width="153" x="818.5" y="44.602"/><text fill="#000000" font-family="sans-serif" font-size="14" lengthAdjust="spacing" textLength="133" x="828.5" y="69.5679">:Sistema Disponible</text></g><!--link UsuarioNoRegistrado to LoginView--><g id="link_UsuarioNoRegistrado_LoginView"><path d="M150.41,64.102 C234.13,64.102 363.32,64.102 432.74,64.102 " fill="none" id="UsuarioNoRegistrado-to-LoginView" style="stroke:#181818;stroke-width:1.0;"/><polygon fill="#181818" points="438.74,64.102,429.74,60.102,433.74,64.102,429.74,68.102,438.74,64.102" style="stroke:#181818;stroke-width:1.0;"/><path d="M184,29.102 L184,56.102 L405,56.102 L405,39.102 L395,29.102 L184,29.102 " fill="#FEFFDD" style="stroke:#181818;stroke-width:0.5;"/><path d="M395,29.102 L395,39.102 L405,39.102 L395,29.102 " fill="#FEFFDD" style="stroke:#181818;stroke-width:0.5;"/><text fill="#000000" font-family="sans-serif" font-size="13" lengthAdjust="spacing" textLength="200" x="190" y="47.999">iniciarSesion(usuario, contrase&#241;a)</text></g><!--link LoginView to IniciarSesionController--><g id="link_LoginView_IniciarSesionController"><path d="M483,83.682 C483,113.282 483,164.822 483,194.462 " fill="none" id="LoginView-to-IniciarSesionController" style="stroke:#181818;stroke-width:1.0;"/><polygon fill="#181818" points="483,200.462,487,191.462,483,195.462,479,191.462,483,200.462" style="stroke:#181818;stroke-width:1.0;"/><path d="M488,138.602 L488,165.602 L744,165.602 L744,148.602 L734,138.602 L488,138.602 " fill="#FEFFDD" style="stroke:#181818;stroke-width:0.5;"/><path d="M734,138.602 L734,148.602 L744,148.602 L734,138.602 " fill="#FEFFDD" style="stroke:#181818;stroke-width:0.5;"/><text fill="#000000" font-family="sans-serif" font-size="13" lengthAdjust="spacing" textLength="235" x="494" y="157.499">autenticar(usuario, contrase&#241;a) : Sesion</text></g><!--link IniciarSesionController to UsuarioRepository--><g id="link_IniciarSesionController_UsuarioRepository"><path d="M395.87,236.582 C315.98,250.772 210,269.602 210,269.602 C210,269.602 210,306.602 210,306.602 C210,306.602 220.6804,318.3665 233.0804,332.0465 " fill="none" id="IniciarSesionController-to-UsuarioRepository" style="stroke:#181818;stroke-width:1.0;"/><polygon fill="#181818" points="237.11,336.492,234.0293,327.1373,233.752,332.7874,228.102,332.5101,237.11,336.492" style="stroke:#181818;stroke-width:1.0;"/><path d="M215,274.602 L215,301.602 L533,301.602 L533,284.602 L523,274.602 L215,274.602 " fill="#FEFFDD" style="stroke:#181818;stroke-width:0.5;"/><path d="M523,274.602 L523,284.602 L533,284.602 L523,274.602 " fill="#FEFFDD" style="stroke:#181818;stroke-width:0.5;"/><text fill="#000000" font-family="sans-serif" font-size="13" lengthAdjust="spacing" textLength="297" x="221" y="293.499">validarCredenciales(usuario, contrase&#241;a) : Usuario</text></g><!--link UsuarioRepository to Usuario--><g id="link_UsuarioRepository_Usuario"><path d="M254,376.002 C254,393.462 254,419.262 254,436.592 " fill="none" id="UsuarioRepository-Usuario" style="stroke:#181818;stroke-width:1.0;"/></g><!--link IniciarSesionController to Sesion--><g id="link_IniciarSesionController_Sesion"><path d="M507.18,239.712 C524.94,253.392 546,269.602 546,269.602 C546,269.602 562.5803,305.9429 574.0503,331.0929 " fill="none" id="IniciarSesionController-to-Sesion" style="stroke:#181818;stroke-width:1.0;"/><polygon fill="#181818" points="576.54,336.552,576.4449,326.7036,574.4653,332.0028,569.1661,330.0232,576.54,336.552" style="stroke:#181818;stroke-width:1.0;"/><path d="M567,274.602 L567,301.602 L758,301.602 L758,284.602 L748,274.602 L567,274.602 " fill="#FEFFDD" style="stroke:#181818;stroke-width:0.5;"/><path d="M748,274.602 L748,284.602 L758,284.602 L748,274.602 " fill="#FEFFDD" style="stroke:#181818;stroke-width:0.5;"/><text fill="#000000" font-family="sans-serif" font-size="13" lengthAdjust="spacing" textLength="170" x="573" y="293.499">crearSesion(usuario) : Sesion</text></g><!--link LoginView to SistemaDisponible--><g id="link_LoginView_SistemaDisponible"><path d="M527.09,64.102 C596.63,64.102 726.68,64.102 812.43,64.102 " fill="none" id="LoginView-to-SistemaDisponible" style="stroke:#181818;stroke-width:1.0;"/><polygon fill="#181818" points="818.43,64.102,809.43,60.102,813.43,64.102,809.43,68.102,818.43,64.102" style="stroke:#181818;stroke-width:1.0;"/><path d="M561.25,29.102 L561.25,56.102 L784.25,56.102 L784.25,39.102 L774.25,29.102 L561.25,29.102 " fill="#FEFFDD" style="stroke:#181818;stroke-width:0.5;"/><path d="M774.25,29.102 L774.25,39.102 L784.25,39.102 L774.25,29.102 " fill="#FEFFDD" style="stroke:#181818;stroke-width:0.5;"/><text fill="#000000" font-family="sans-serif" font-size="13" lengthAdjust="spacing" textLength="202" x="567.25" y="47.999">sistemaDisponible(administrador)</text></g><!--SRC=[VLBDQi904BxlKmpfHQ6vI9NgGR1HeL1wKDhxc1t2uBeRTjSMANseFaDVh9lw5xF6t38p-NxZrgnBjBW1nPhyhYGeZTfLBq9Wxes5DxT5o-RLBAXWvorA8qhCrrWGiEQSqIx9iT603fABIQURm9U0y5ZAFUf24TmDUiFPV0Wlfc3zplJPtA_wApbuXESwK6QqjqOfiithUM-IFSoE8XTK6iT1zUxsNSjsJoQ-HMsLJMTFapuaesKmJnk4ARlIQ5ufIYh7X_5vAiILn22rwRZcMHjF428BGQ__nLpcjjqZt4DU6KT7lp_O5QGbL1yASGA2L0RSjgmY5jnwqfvpjDSfO7JCuCpL0Wvf88vZZoW_KB54crcIf0EG8jVAVMpdJ1uH1DhJsKrf1n-HdjnIC-QhjciHLzN5DKV8hddIGRa9lUx_05llJ_m1]--></g></svg>