<?xml version="1.0" encoding="us-ascii" standalone="no"?><svg xmlns="http://www.w3.org/2000/svg" xmlns:xlink="http://www.w3.org/1999/xlink" contentStyleType="text/css" height="498px" preserveAspectRatio="none" style="width:1034px;height:498px;background:#FFFFFF;" version="1.1" viewBox="0 0 1034 498" width="1034px" zoomAndPan="magnify"><defs/><g><!--cluster iniciarSesion--><g id="cluster_iniciarSesion"><path d="M168.5,6.602 L266.5,6.602 A3.75,3.75 0 0 1 269,9.102 L276,31.6699 L799.5,31.6699 A2.5,2.5 0 0 1 802,34.1699 L802,489.102 A2.5,2.5 0 0 1 799.5,491.602 L168.5,491.602 A2.5,2.5 0 0 1 166,489.102 L166,9.102 A2.5,2.5 0 0 1 168.5,6.602 " fill="none" style="stroke:#000000;stroke-width:1.5;"/><line style="stroke:#000000;stroke-width:1.5;" x1="166" x2="276" y1="31.6699" y2="31.6699"/><text fill="#000000" font-family="sans-serif" font-size="14" font-weight="bold" lengthAdjust="spacing" textLength="97" x="170" y="23.5679">iniciarSesion()</text></g><!--entity LoginView--><g id="elem_LoginView"><rect fill="#629EF9" height="39.0679" rx="2.5" ry="2.5" style="stroke:#181818;stroke-width:0.5;" width="88" x="446" y="44.602"/><text fill="#000000" font-family="sans-serif" font-size="14" lengthAdjust="spacing" textLength="68" x="456" y="69.5679">LoginView</text></g><!--entity IniciarSesionController--><g id="elem_IniciarSesionController"><rect fill="#B5BD68" height="39.0679" rx="2.5" ry="2.5" style="stroke:#181818;stroke-width:0.5;" width="174" x="403" y="200.602"/><text fill="#000000" font-family="sans-serif" font-size="14" lengthAdjust="spacing" textLength="154" x="413" y="225.5679">IniciarSesionController</text></g><!--entity UsuarioRepository--><g id="elem_UsuarioRepository"><rect fill="#F2AC4E" height="39.0679" rx="2.5" ry="2.5" style="stroke:#181818;stroke-width:0.5;" width="143" x="182.5" y="336.602"/><text fill="#000000" font-family="sans-serif" font-size="14" lengthAdjust="spacing" textLength="123" x="192.5" y="361.5679">UsuarioRepository</text></g><!--entity Usuario--><g id="elem_Usuario"><rect fill="#F2AC4E" height="39.0679" rx="2.5" ry="2.5" style="stroke:#181818;stroke-width:0.5;" width="72" x="218" y="436.602"/><text fill="#000000" font-family="sans-serif" font-size="14" lengthAdjust="spacing" textLength="52" x="228" y="461.5679">Usuario</text></g><!--entity Sesion--><g id="elem_Sesion"><rect fill="#F2AC4E" height="39.0679" rx="2.5" ry="2.5" style="stroke:#181818;stroke-width:0.5;" width="64" x="553" y="336.602"/><text fill="#000000" font-family="sans-serif" font-size="14" lengthAdjust="spacing" textLength="44" x="563" y="361.5679">Sesion</text></g><!--entity UsuarioNoRegistrado--><g id="elem_UsuarioNoRegistrado"><ellipse cx="78" cy="33.102" fill="#F1F1F1" rx="8" ry="8" style="stroke:#181818;stroke-width:0.5;"/><path d="M78,41.102 L78,68.102 M65,49.102 L91,49.102 M78,68.102 L65,83.102 M78,68.102 L91,83.102 " fill="none" style="stroke:#181818;stroke-width:0.5;"/><text fill="#000000" font-family="sans-serif" font-size="14" lengthAdjust="spacing" textLength="144" x="6" y="99.5679">UsuarioNoRegistrado</text></g><!--entity MostrarMenu--><g id="elem_MostrarMenu"><rect fill="#CDEBA5" height="39.0679" rx="2.5" ry="2.5" style="stroke:#181818;stroke-width:0.5;" width="210" x="818" y="44.602"/><text fill="#000000" font-family="sans-serif" font-size="14" lengthAdjust="spacing" textLength="190" x="828" y="69.5679">:Collaboration MostrarMenu</text></g><!--link UsuarioNoRegistrado to LoginView--><g id="link_UsuarioNoRegistrado_LoginView"><path d="M150.24,64.102 C235.63,64.102 369.04,64.102 439.8,64.102 " fill="none" id="UsuarioNoRegistrado-to-LoginView" style="stroke:#181818;stroke-width:1.0;"/><polygon fill="#181818" points="445.8,64.102,436.8,60.102,440.8,64.102,436.8,68.102,445.8,64.102" style="stroke:#181818;stroke-width:1.0;"/><path d="M187.5,29.102 L187.5,56.102 L408.5,56.102 L408.5,39.102 L398.5,29.102 L187.5,29.102 " fill="#FEFFDD" style="stroke:#181818;stroke-width:0.5;"/><path d="M398.5,29.102 L398.5,39.102 L408.5,39.102 L398.5,29.102 " fill="#FEFFDD" style="stroke:#181818;stroke-width:0.5;"/><text fill="#000000" font-family="sans-serif" font-size="13" lengthAdjust="spacing" textLength="200" x="193.5" y="47.999">iniciarSesion(usuario, contrase&#241;a)</text></g><!--link LoginView to IniciarSesionController--><g id="link_LoginView_IniciarSesionController"><path d="M490,83.682 C490,113.282 490,164.822 490,194.462 " fill="none" id="LoginView-to-IniciarSesionController" style="stroke:#181818;stroke-width:1.0;"/><polygon fill="#181818" points="490,200.462,494,191.462,490,195.462,486,191.462,490,200.462" style="stroke:#181818;stroke-width:1.0;"/><path d="M495,138.602 L495,165.602 L751,165.602 L751,148.602 L741,138.602 L495,138.602 " fill="#FEFFDD" style="stroke:#181818;stroke-width:0.5;"/><path d="M741,138.602 L741,148.602 L751,148.602 L741,138.602 " fill="#FEFFDD" style="stroke:#181818;stroke-width:0.5;"/><text fill="#000000" font-family="sans-serif" font-size="13" lengthAdjust="spacing" textLength="235" x="501" y="157.499">autenticar(usuario, contrase&#241;a) : Sesion</text></g><!--link IniciarSesionController to UsuarioRepository--><g id="link_IniciarSesionController_UsuarioRepository"><path d="M402.65,224.292 C329.88,229.002 234.34,240.682 210,269.602 C192.91,289.912 209.7658,313.7409 228.2158,332.0909 " fill="none" id="IniciarSesionController-to-UsuarioRepository" style="stroke:#181818;stroke-width:1.0;"/><polygon fill="#181818" points="232.47,336.322,228.9095,327.1392,228.9249,332.7961,223.268,332.8114,232.47,336.322" style="stroke:#181818;stroke-width:1.0;"/><path d="M215,274.602 L215,301.602 L533,301.602 L533,284.602 L523,274.602 L215,274.602 " fill="#FEFFDD" style="stroke:#181818;stroke-width:0.5;"/><path d="M523,274.602 L523,284.602 L533,284.602 L523,274.602 " fill="#FEFFDD" style="stroke:#181818;stroke-width:0.5;"/><text fill="#000000" font-family="sans-serif" font-size="13" lengthAdjust="spacing" textLength="297" x="221" y="293.499">validarCredenciales(usuario, contrase&#241;a) : Usuario</text></g><!--link UsuarioRepository to Usuario--><g id="link_UsuarioRepository_Usuario"><path d="M254,376.002 C254,393.462 254,419.262 254,436.592 " fill="none" id="UsuarioRepository-Usuario" style="stroke:#181818;stroke-width:1.0;"/></g><!--link IniciarSesionController to Sesion--><g id="link_IniciarSesionController_Sesion"><path d="M515.88,239.612 C526.2,247.922 537.6,258.382 546,269.602 C561.54,290.372 570.8518,312.654 577.1718,330.854 " fill="none" id="IniciarSesionController-to-Sesion" style="stroke:#181818;stroke-width:1.0;"/><polygon fill="#181818" points="579.14,336.522,579.9663,326.7078,577.4998,331.7987,572.409,329.3321,579.14,336.522" style="stroke:#181818;stroke-width:1.0;"/><path d="M571,274.602 L571,301.602 L762,301.602 L762,284.602 L752,274.602 L571,274.602 " fill="#FEFFDD" style="stroke:#181818;stroke-width:0.5;"/><path d="M752,274.602 L752,284.602 L762,284.602 L752,274.602 " fill="#FEFFDD" style="stroke:#181818;stroke-width:0.5;"/><text fill="#000000" font-family="sans-serif" font-size="13" lengthAdjust="spacing" textLength="170" x="577" y="293.499">crearSesion(usuario) : Sesion</text></g><!--link LoginView to MostrarMenu--><g id="link_LoginView_MostrarMenu"><path d="M534.3,64.102 C600.47,64.102 721.04,64.102 811.78,64.102 " fill="none" id="LoginView-to-MostrarMenu" style="stroke:#181818;stroke-width:1.0;"/><polygon fill="#181818" points="817.78,64.102,808.78,60.102,812.78,64.102,808.78,68.102,817.78,64.102" style="stroke:#181818;stroke-width:1.0;"/><path d="M620.5,29.102 L620.5,56.102 L731.5,56.102 L731.5,39.102 L721.5,29.102 L620.5,29.102 " fill="#FEFFDD" style="stroke:#181818;stroke-width:0.5;"/><path d="M721.5,29.102 L721.5,39.102 L731.5,39.102 L721.5,29.102 " fill="#FEFFDD" style="stroke:#181818;stroke-width:0.5;"/><text fill="#000000" font-family="sans-serif" font-size="13" lengthAdjust="spacing" textLength="90" x="626.5" y="47.999">invocar(sesion)</text></g><!--SRC=[VP71Ji9048Rl-nIJUf74NeWGuM22jIGcuW6Zz-bsqcneTidi5cEC3-Kp-6BkWi12MtfhP_f___yFIcSOtco3hCoBMLAbh6CiZLYZN655eBII2lcLh38Qq49oykLwaC2N0FymIOUwgWckniD9Ff_0iwcKVbVqSJulHaKvleEdM2Wpsh6fQ-BpxVbmbjtcUvDBMXkhlElFotizqnrCV8jeb3tc3xCH9DFCyx4mZ2vaNPXG1Iz8Dqa87hqBqL4Pf9pUHw6rSGHUfrPwjNLpMbopKxW16PAZfTyV70ZI9OGVXJW8GLfwtRwoMXHi76cd978t0gRx4ewi7d58FRZTUmkvmLgLo1bJITeBrMHxsVlp7E4jWCSUrYvQ-y_HyYEPpclkZ1rL74uN7xZZU1iJEhLRaVXGuWy0]--></g></svg>