<?xml version="1.0" encoding="us-ascii" standalone="no"?><svg xmlns="http://www.w3.org/2000/svg" xmlns:xlink="http://www.w3.org/1999/xlink" contentStyleType="text/css" height="464px" preserveAspectRatio="none" style="width:1162px;height:464px;background:#FFFFFF;" version="1.1" viewBox="0 0 1162 464" width="1162px" zoomAndPan="magnify"><defs/><g><!--entity UsuarioNoRegistrado--><g id="elem_UsuarioNoRegistrado"><ellipse cx="78" cy="151.5" fill="#F1F1F1" rx="8" ry="8" style="stroke:#181818;stroke-width:0.5;"/><path d="M78,159.5 L78,186.5 M65,167.5 L91,167.5 M78,186.5 L65,201.5 M78,186.5 L91,201.5 " fill="none" style="stroke:#181818;stroke-width:0.5;"/><text fill="#000000" font-family="sans-serif" font-size="14" lengthAdjust="spacing" textLength="144" x="6" y="217.9659">UsuarioNoRegistrado</text></g><!--entity LoginView--><g id="elem_LoginView"><rect fill="#629EF9" height="39.0679" rx="2.5" ry="2.5" style="stroke:#181818;stroke-width:0.5;" width="88" x="416" y="163"/><text fill="#000000" font-family="sans-serif" font-size="14" lengthAdjust="spacing" textLength="68" x="426" y="187.9659">LoginView</text></g><!--entity IniciarSesionController--><g id="elem_IniciarSesionController"><rect fill="#B5BD68" height="39.0679" rx="2.5" ry="2.5" style="stroke:#181818;stroke-width:0.5;" width="174" x="757" y="163"/><text fill="#000000" font-family="sans-serif" font-size="14" lengthAdjust="spacing" textLength="154" x="767" y="187.9659">IniciarSesionController</text></g><!--entity UsuarioRepository--><g id="elem_UsuarioRepository"><rect fill="#F2AC4E" height="39.0679" rx="2.5" ry="2.5" style="stroke:#181818;stroke-width:0.5;" width="143" x="828.5" y="319"/><text fill="#000000" font-family="sans-serif" font-size="14" lengthAdjust="spacing" textLength="123" x="838.5" y="343.9659">UsuarioRepository</text></g><!--entity Usuario--><g id="elem_Usuario"><rect fill="#F2AC4E" height="39.0679" rx="2.5" ry="2.5" style="stroke:#181818;stroke-width:0.5;" width="72" x="948" y="419"/><text fill="#000000" font-family="sans-serif" font-size="14" lengthAdjust="spacing" textLength="52" x="958" y="443.9659">Usuario</text></g><!--entity Sesion--><g id="elem_Sesion"><rect fill="#F2AC4E" height="39.0679" rx="2.5" ry="2.5" style="stroke:#181818;stroke-width:0.5;" width="64" x="536" y="319"/><text fill="#000000" font-family="sans-serif" font-size="14" lengthAdjust="spacing" textLength="44" x="546" y="343.9659">Sesion</text></g><!--entity MostrarMenu--><g id="elem_MostrarMenu"><rect fill="#CDEBA5" height="39.0679" rx="2.5" ry="2.5" style="stroke:#181818;stroke-width:0.5;" width="210" x="355" y="7"/><text fill="#000000" font-family="sans-serif" font-size="14" lengthAdjust="spacing" textLength="190" x="365" y="31.9659">:Collaboration MostrarMenu</text></g><!--link UsuarioNoRegistrado to LoginView--><g id="link_UsuarioNoRegistrado_LoginView"><path d="M150.3,182.5 C228.6,182.5 345,182.5 409.99,182.5 " fill="none" id="UsuarioNoRegistrado-to-LoginView" style="stroke:#181818;stroke-width:1.0;"/><polygon fill="#181818" points="415.99,182.5,406.99,178.5,410.99,182.5,406.99,186.5,415.99,182.5" style="stroke:#181818;stroke-width:1.0;"/><path d="M172.5,147.5 L172.5,174.5 L393.5,174.5 L393.5,157.5 L383.5,147.5 L172.5,147.5 " fill="#FEFFDD" style="stroke:#181818;stroke-width:0.5;"/><path d="M383.5,147.5 L383.5,157.5 L393.5,157.5 L383.5,147.5 " fill="#FEFFDD" style="stroke:#181818;stroke-width:0.5;"/><text fill="#000000" font-family="sans-serif" font-size="13" lengthAdjust="spacing" textLength="200" x="178.5" y="166.397">iniciarSesion(usuario, contrase&#241;a)</text></g><!--link LoginView to IniciarSesionController--><g id="link_LoginView_IniciarSesionController"><path d="M504.05,182.5 C565.42,182.5 671.94,182.5 750.67,182.5 " fill="none" id="LoginView-to-IniciarSesionController" style="stroke:#181818;stroke-width:1.0;"/><polygon fill="#181818" points="756.67,182.5,747.67,178.5,751.67,182.5,747.67,186.5,756.67,182.5" style="stroke:#181818;stroke-width:1.0;"/><path d="M526.5,147.5 L526.5,174.5 L734.5,174.5 L734.5,157.5 L724.5,147.5 L526.5,147.5 " fill="#FEFFDD" style="stroke:#181818;stroke-width:0.5;"/><path d="M724.5,147.5 L724.5,157.5 L734.5,157.5 L724.5,147.5 " fill="#FEFFDD" style="stroke:#181818;stroke-width:0.5;"/><text fill="#000000" font-family="sans-serif" font-size="13" lengthAdjust="spacing" textLength="187" x="532.5" y="166.397">autenticar(usuario, contrase&#241;a)</text></g><!--link IniciarSesionController to UsuarioRepository--><g id="link_IniciarSesionController_UsuarioRepository"><path d="M836.46,202.16 C828.81,224.17 819.96,261.26 834,289 C840.23,301.31 846.2396,307.8892 857.4796,315.4892 " fill="none" id="IniciarSesionController-to-UsuarioRepository" style="stroke:#181818;stroke-width:1.0;"/><polygon fill="#181818" points="862.45,318.85,857.2349,310.4952,858.308,316.0493,852.7538,317.1224,862.45,318.85" style="stroke:#181818;stroke-width:1.0;"/><path d="M839,257 L839,284 L1101,284 L1101,267 L1091,257 L839,257 " fill="#FEFFDD" style="stroke:#181818;stroke-width:0.5;"/><path d="M1091,257 L1091,267 L1101,267 L1091,257 " fill="#FEFFDD" style="stroke:#181818;stroke-width:0.5;"/><text fill="#000000" font-family="sans-serif" font-size="13" lengthAdjust="spacing" textLength="241" x="845" y="275.897">validarCredenciales(usuario, contrase&#241;a)</text></g><!--link IniciarSesionController to Usuario--><g id="link_IniciarSesionController_Usuario"><path d="M931.09,194.36 C999.95,204.95 1088.02,223.64 1110,252 C1155.44,310.62 1068.4388,381.3421 1018.4088,415.4221 " fill="none" id="IniciarSesionController-to-Usuario" style="stroke:#181818;stroke-width:1.0;"/><polygon fill="#181818" points="1013.45,418.8,1023.1401,417.039,1017.5823,415.9851,1018.6363,410.4273,1013.45,418.8" style="stroke:#181818;stroke-width:1.0;"/></g><!--link UsuarioRepository to Usuario--><g id="link_UsuarioRepository_Usuario"><path d="M916.2,358.4 C931.17,375.86 953.28,401.66 968.14,418.99 " fill="none" id="UsuarioRepository-Usuario" style="stroke:#181818;stroke-width:1.0;"/></g><!--link IniciarSesionController to Sesion--><g id="link_IniciarSesionController_Sesion"><path d="M780.14,202.03 C745.07,213.67 701.59,230.55 666,252 C634.86,270.76 608.3259,295.4512 589.8059,314.3812 " fill="none" id="IniciarSesionController-to-Sesion" style="stroke:#181818;stroke-width:1.0;"/><polygon fill="#181818" points="585.61,318.67,594.7631,315.034,589.1066,315.096,589.0447,309.4395,585.61,318.67" style="stroke:#181818;stroke-width:1.0;"/><path d="M671,257 L671,284 L814,284 L814,267 L804,257 L671,257 " fill="#FEFFDD" style="stroke:#181818;stroke-width:0.5;"/><path d="M804,257 L804,267 L814,267 L804,257 " fill="#FEFFDD" style="stroke:#181818;stroke-width:0.5;"/><text fill="#000000" font-family="sans-serif" font-size="13" lengthAdjust="spacing" textLength="122" x="677" y="275.897">crearSesion(usuario)</text></g><!--reverse link MostrarMenu to LoginView--><g id="link_MostrarMenu_LoginView"><path d="M460,52.08 C460,81.68 460,133.22 460,162.86 " fill="none" id="MostrarMenu-backto-LoginView" style="stroke:#181818;stroke-width:1.0;"/><polygon fill="#181818" points="460,46.08,456,55.08,460,51.08,464,55.08,460,46.08" style="stroke:#181818;stroke-width:1.0;"/><path d="M465,81 L465,108 L576,108 L576,91 L566,81 L465,81 " fill="#FEFFDD" style="stroke:#181818;stroke-width:0.5;"/><path d="M566,81 L566,91 L576,91 L566,81 " fill="#FEFFDD" style="stroke:#181818;stroke-width:0.5;"/><text fill="#000000" font-family="sans-serif" font-size="13" lengthAdjust="spacing" textLength="90" x="471" y="99.897">invocar(sesion)</text></g><!--link LoginView to Sesion--><g id="link_LoginView_Sesion"><path d="M462.69,202.37 C466.69,224.93 476,262.88 496,289 C506.44,302.64 516.6808,310.7208 530.5808,318.8508 " fill="none" id="LoginView-to-Sesion" style="stroke:#181818;stroke-width:1.0;"/><polygon fill="#181818" points="535.76,321.88,530.0108,313.8834,531.444,319.3556,525.9718,320.7889,535.76,321.88" style="stroke:#181818;stroke-width:1.0;"/><path d="M501,257 L501,284 L589,284 L589,267 L579,257 L501,257 " fill="#FEFFDD" style="stroke:#181818;stroke-width:0.5;"/><path d="M579,257 L579,267 L589,267 L579,257 " fill="#FEFFDD" style="stroke:#181818;stroke-width:0.5;"/><text fill="#000000" font-family="sans-serif" font-size="13" lengthAdjust="spacing" textLength="67" x="507" y="275.897">getSesion()</text></g><!--SRC=[dP71IiD048Rl-nH3lIZOIx75UX1gJ46m7YfwdoH370mxPNRJucFv3BwO6rlRnIGjkBVbd_c_-MSmzwBmucfKbYTPKidEAnPYb7AFjgm8pYQZQJgVmgEKR5-PDh6MZRDYSWqFbdD6VIR7OXEnNgMgIEFA-MYMNAM_h2Mjn760V_JNT2XRG2maz-dTR0o3coGGCHD57ofW8KqENP2j1u0k_XlJaHU6okMR7zv6CQruWk1LiNqt41x7AS_hhSibv4rUTFJrYHU6R05Dep5xeuDttvfQ9AmzMSyvwabCZoSC2zdOm6mll4LROyK5Qg9Ka0rc5Rd_Omz8qq87TI-U77ntwzQqkTBV6_IilLu5c_Zo7HTTIxDazsFNOtDabfByRfAezni0]--></g></svg>