<?xml version="1.0" encoding="us-ascii" standalone="no"?><svg xmlns="http://www.w3.org/2000/svg" xmlns:xlink="http://www.w3.org/1999/xlink" contentStyleType="text/css" height="713px" preserveAspectRatio="none" style="width:626px;height:713px;background:#FFFFFF;" version="1.1" viewBox="0 0 626 713" width="626px" zoomAndPan="magnify"><defs/><g><path d="M19.5,7 L376.5,7 A12.5,12.5 0 0 1 389,19.5 L389,36.0679 L7,36.0679 L7,19.5 A12.5,12.5 0 0 1 19.5,7 " fill="#F1F1F1" style="stroke:#F1F1F1;stroke-width:1.0;"/><rect fill="none" height="553.0679" rx="12.5" ry="12.5" style="stroke:#181818;stroke-width:0.5;" width="382" x="7" y="7"/><line style="stroke:#181818;stroke-width:0.5;" x1="7" x2="389" y1="36.0679" y2="36.0679"/><text fill="#000000" font-family="sans-serif" font-size="14" lengthAdjust="spacing" textLength="113" x="141.5" y="26.9659">eliminarEdificio()</text><g id="eliminarEdificio.ConfirmandoEliminacion"><rect fill="#F1F1F1" height="50" rx="12.5" ry="12.5" style="stroke:#181818;stroke-width:0.5;" width="50" x="19" y="140.0679"/><line style="stroke:#181818;stroke-width:0.5;" x1="19" x2="69" y1="169.1358" y2="169.1358"/><text fill="#000000" font-family="sans-serif" font-size="14" lengthAdjust="spacing" textLength="4" x="42" y="160.0339">&#160;</text></g><g id="eliminarEdificio.EliminandoEdificio"><rect fill="#F1F1F1" height="50" rx="12.5" ry="12.5" style="stroke:#181818;stroke-width:0.5;" width="50" x="19" y="369.0679"/><line style="stroke:#181818;stroke-width:0.5;" x1="19" x2="69" y1="398.1358" y2="398.1358"/><text fill="#000000" font-family="sans-serif" font-size="14" lengthAdjust="spacing" textLength="4" x="42" y="389.0339">&#160;</text></g><ellipse cx="44" cy="57.0679" fill="#222222" rx="10" ry="10" style="stroke:#222222;stroke-width:1.0;"/><ellipse cx="44" cy="539.0679" fill="none" rx="11" ry="11" style="stroke:#222222;stroke-width:1.0;"/><ellipse cx="44" cy="539.0679" fill="#222222" rx="6" ry="6" style="stroke:#222222;stroke-width:1.0;"/><!--link *start*eliminarEdificio to ConfirmandoEliminacion--><g id="link_*start*eliminarEdificio_ConfirmandoEliminacion"><path d="M44,67.1079 C44,83.0279 44,110.5779 44,133.7079 " fill="none" id="*start*eliminarEdificio-to-ConfirmandoEliminacion" style="stroke:#008000;stroke-width:1.0;"/><polygon fill="#008000" points="44,139.7079,48,130.7079,44,134.7079,40,130.7079,44,139.7079" style="stroke:#008000;stroke-width:1.0;"/><path d="M49,90.0679 L49,117.0679 L305,117.0679 L305,100.0679 L295,90.0679 L49,90.0679 " fill="#FEFFDD" style="stroke:#181818;stroke-width:0.5;"/><path d="M295,90.0679 L295,100.0679 L305,100.0679 L295,90.0679 " fill="#FEFFDD" style="stroke:#181818;stroke-width:0.5;"/><text fill="#000000" font-family="sans-serif" font-size="13" font-weight="bold" lengthAdjust="spacing" textLength="95" x="55" y="108.9649">Administrador</text><text fill="#000000" font-family="sans-serif" font-size="13" lengthAdjust="spacing" textLength="137" x="153" y="108.9649">solicita eliminar edificio</text></g><!--link ConfirmandoEliminacion to EliminandoEdificio--><g id="link_ConfirmandoEliminacion_EliminandoEdificio"><path d="M44,190.3579 C44,234.0479 44,319.3879 44,362.9479 " fill="none" id="ConfirmandoEliminacion-to-EliminandoEdificio" style="stroke:#008000;stroke-width:1.0;"/><polygon fill="#008000" points="44,368.9479,48,359.9479,44,363.9479,40,359.9479,44,368.9479" style="stroke:#008000;stroke-width:1.0;"/><path d="M49,213.0679 L49,346.0679 L380,346.0679 L380,223.0679 L370,213.0679 L49,213.0679 " fill="#FEFFDD" style="stroke:#181818;stroke-width:0.5;"/><path d="M370,213.0679 L370,223.0679 L380,223.0679 L370,213.0679 " fill="#FEFFDD" style="stroke:#181818;stroke-width:0.5;"/><text fill="#000000" font-family="sans-serif" font-size="13" font-weight="bold" lengthAdjust="spacing" textLength="52" x="55" y="231.9649">Sistema</text><text fill="#000000" font-family="sans-serif" font-size="13" lengthAdjust="spacing" textLength="255" x="110" y="231.9649">presenta informaci&#243;n del edificio a eliminar</text><text fill="#000000" font-family="sans-serif" font-size="13" lengthAdjust="spacing" textLength="171" x="55" y="249.6709">&#8226; C&#243;digo, nombre del edificio</text><text fill="#000000" font-family="sans-serif" font-size="13" lengthAdjust="spacing" textLength="141" x="55" y="267.377">&#8226; Ubicaci&#243;n, descripci&#243;n</text><text fill="#000000" font-family="sans-serif" font-size="13" lengthAdjust="spacing" textLength="194" x="55" y="285.083">&#8226; Observaciones, aulas asociadas</text><text fill="#000000" font-family="sans-serif" font-size="13" lengthAdjust="spacing" textLength="223" x="55" y="302.789">&#8226; Presenta advertencia de eliminaci&#243;n</text><text fill="#000000" font-family="sans-serif" font-size="13" lengthAdjust="spacing" textLength="236" x="55" y="320.495">&#8226; Permite solicitar confirmar eliminaci&#243;n</text><text fill="#000000" font-family="sans-serif" font-size="13" lengthAdjust="spacing" textLength="227" x="55" y="338.201">&#8226; Permite solicitar cancelar eliminaci&#243;n</text></g><!--link EliminandoEdificio to *end*eliminarEdificio--><g id="link_EliminandoEdificio_*end*eliminarEdificio"><path d="M44,419.3279 C44,451.0379 44,499.1979 44,521.7479 " fill="none" id="EliminandoEdificio-to-*end*eliminarEdificio" style="stroke:#008000;stroke-width:1.0;"/><polygon fill="#008000" points="44,527.7479,48,518.7479,44,522.7479,40,518.7479,44,527.7479" style="stroke:#008000;stroke-width:1.0;"/><path d="M49,442.0679 L49,505.0679 L379,505.0679 L379,452.0679 L369,442.0679 L49,442.0679 " fill="#FEFFDD" style="stroke:#181818;stroke-width:0.5;"/><path d="M369,442.0679 L369,452.0679 L379,452.0679 L369,442.0679 " fill="#FEFFDD" style="stroke:#181818;stroke-width:0.5;"/><text fill="#000000" font-family="sans-serif" font-size="13" font-weight="bold" lengthAdjust="spacing" textLength="95" x="55" y="460.9649">Administrador</text><text fill="#000000" font-family="sans-serif" font-size="13" lengthAdjust="spacing" textLength="211" x="153" y="460.9649">solicita confirmaci&#243;n de eliminaci&#243;n</text><text fill="#000000" font-family="sans-serif" font-size="13" font-weight="bold" lengthAdjust="spacing" textLength="52" x="55" y="478.6709">Sistema</text><text fill="#000000" font-family="sans-serif" font-size="13" lengthAdjust="spacing" textLength="228" x="110" y="478.6709">permite solicitar confirmar eliminaci&#243;n</text><text fill="#000000" font-family="sans-serif" font-size="13" font-weight="bold" lengthAdjust="spacing" textLength="95" x="55" y="496.377">Administrador</text><text fill="#000000" font-family="sans-serif" font-size="13" lengthAdjust="spacing" textLength="173" x="153" y="496.377">solicita confirmar eliminaci&#243;n</text></g><g id="EDIFICIOS_ABIERTO"><rect fill="#F1F1F1" height="50" rx="12.5" ry="12.5" style="stroke:#181818;stroke-width:0.5;" width="153" x="121.5" y="657"/><line style="stroke:#181818;stroke-width:0.5;" x1="121.5" x2="274.5" y1="686.0679" y2="686.0679"/><text fill="#000000" font-family="sans-serif" font-size="14" lengthAdjust="spacing" textLength="133" x="131.5" y="676.9659">EDIFICIOS_ABIERTO</text></g><!--link eliminarEdificio to EDIFICIOS_ABIERTO--><g id="link_eliminarEdificio_EDIFICIOS_ABIERTO"><path d="M51.83,560.15 C42.06,578.58 36,590 36,590 C36,590 36,627 36,627 C36,627 76.7076,640.5734 119.8376,654.9434 " fill="none" id="eliminarEdificio-to-EDIFICIOS_ABIERTO" style="stroke:#008000;stroke-width:1.0;"/><polygon fill="#008000" points="125.53,656.84,118.2558,650.2002,120.7864,655.2595,115.7271,657.79,125.53,656.84" style="stroke:#008000;stroke-width:1.0;"/><path d="M41,595 L41,622 L310,622 L310,605 L300,595 L41,595 " fill="#FEFFDD" style="stroke:#181818;stroke-width:0.5;"/><path d="M300,595 L300,605 L310,605 L300,595 " fill="#FEFFDD" style="stroke:#181818;stroke-width:0.5;"/><text fill="#000000" font-family="sans-serif" font-size="13" lengthAdjust="spacing" textLength="248" x="47" y="613.897">&#171;include&#187; abrirEdificios() - lista actualizada</text></g><!--link eliminarEdificio to EDIFICIOS_ABIERTO--><g id="link_eliminarEdificio_EDIFICIOS_ABIERTO"><path d="M307.18,560.15 C314.48,578.58 319,590 319,590 C319,590 319,627 319,627 C319,627 289.8297,640.0261 257.6097,654.3961 " fill="none" id="eliminarEdificio-to-EDIFICIOS_ABIERTO-1" style="stroke:#0000FF;stroke-width:1.0;"/><polygon fill="#0000FF" points="252.13,656.84,261.9788,656.8272,256.6964,654.8034,258.7203,649.521,252.13,656.84" style="stroke:#0000FF;stroke-width:1.0;"/><path d="M324,595 L324,622 L619,622 L619,605 L609,595 L324,595 " fill="#FEFFDD" style="stroke:#181818;stroke-width:0.5;"/><path d="M609,595 L609,605 L619,605 L609,595 " fill="#FEFFDD" style="stroke:#181818;stroke-width:0.5;"/><text fill="#000000" font-family="sans-serif" font-size="13" lengthAdjust="spacing" textLength="274" x="330" y="613.897">&#171;include&#187; abrirEdificios() - cancelar eliminaci&#243;n</text></g><!--SRC=[fLDjIiD04Fs_fnZg7vKMBr02MYlqLyMFNo8osPtAu6OtxAQ2Yk1Pl897y2QUn6dIhCQsuaS2WTrzyzwRUPjumwx4W0LOTbJTbGIbjtUBXLAnmeg0B1ViC8mDprYp1upG-xgvlTE31wL0dgQg9wy0HzxDE1JeZ1yt9G9sgxZbuGAsP6p8BdOlON2nTHs8tEKWsy07DTPvuPE5cB-fDuPvjcy4mx4AQ7mOxkKPH6-5liBK5r2hkAWXPneYULJwR93zx6nD1vjCdOeXAh2sKmQAvCGEkvaN1SslBmuCsMGBFgpM16zFpp1wVJ5yxVj2N-I1ElW4EizPDtnz0KGTkAnN2J3D8uNRkXMAVS2vbIGmUireC2ROSMiHpIs5YfoS2s7hgijvJA5WQRaTSm2zd5tuSG4wJNOTlWtd8vZLgNT2aUlpbwlHMcx3M7NoDSNVTFqpxU_QVrHgvQ_itCN3oT5aD9cUNkqVJCOdPrFL6S1mo4xRkQ4i0ym39vAulGC3mSH5sBgQe-LxkGeg2Q-LpUsS_g-wFlMa_0u0]--></g></svg>