<?xml version="1.0" encoding="us-ascii" standalone="no"?><svg xmlns="http://www.w3.org/2000/svg" xmlns:xlink="http://www.w3.org/1999/xlink" contentStyleType="text/css" height="695px" preserveAspectRatio="none" style="width:611px;height:695px;background:#FFFFFF;" version="1.1" viewBox="0 0 611 695" width="611px" zoomAndPan="magnify"><defs/><g><path d="M19.5,7 L585.5,7 A12.5,12.5 0 0 1 598,19.5 L598,36.0679 L7,36.0679 L7,19.5 A12.5,12.5 0 0 1 19.5,7 " fill="#F1F1F1" style="stroke:#F1F1F1;stroke-width:1.0;"/><rect fill="none" height="535.0679" rx="12.5" ry="12.5" style="stroke:#181818;stroke-width:0.5;" width="591" x="7" y="7"/><line style="stroke:#181818;stroke-width:0.5;" x1="7" x2="598" y1="36.0679" y2="36.0679"/><text fill="#000000" font-family="sans-serif" font-size="14" lengthAdjust="spacing" textLength="219" x="193" y="26.9659">configurarPreferenciasProfesor()</text><g id="configurarPreferenciasProfesor.ConfigurandoPreferencias"><rect fill="#F1F1F1" height="50" rx="12.5" ry="12.5" style="stroke:#181818;stroke-width:0.5;" width="50" x="143" y="140.0679"/><line style="stroke:#181818;stroke-width:0.5;" x1="143" x2="193" y1="169.1358" y2="169.1358"/><text fill="#000000" font-family="sans-serif" font-size="14" lengthAdjust="spacing" textLength="4" x="166" y="160.0339">&#160;</text></g><g id="configurarPreferenciasProfesor.GuardandoConfiguracion"><rect fill="#F1F1F1" height="50" rx="12.5" ry="12.5" style="stroke:#181818;stroke-width:0.5;" width="50" x="143" y="387.0679"/><line style="stroke:#181818;stroke-width:0.5;" x1="143" x2="193" y1="416.1358" y2="416.1358"/><text fill="#000000" font-family="sans-serif" font-size="14" lengthAdjust="spacing" textLength="4" x="166" y="407.0339">&#160;</text></g><ellipse cx="168" cy="57.0679" fill="#222222" rx="10" ry="10" style="stroke:#222222;stroke-width:1.0;"/><ellipse cx="168" cy="521.0679" fill="none" rx="11" ry="11" style="stroke:#222222;stroke-width:1.0;"/><ellipse cx="168" cy="521.0679" fill="#222222" rx="6" ry="6" style="stroke:#222222;stroke-width:1.0;"/><!--link *start*configurarPreferenciasProfesor to ConfigurandoPreferencias--><g id="link_*start*configurarPreferenciasProfesor_ConfigurandoPreferencias"><path d="M168,67.1079 C168,83.0279 168,110.5779 168,133.7079 " fill="none" id="*start*configurarPreferenciasProfesor-to-ConfigurandoPreferencias" style="stroke:#008000;stroke-width:1.0;"/><polygon fill="#008000" points="168,139.7079,172,130.7079,168,134.7079,164,130.7079,168,139.7079" style="stroke:#008000;stroke-width:1.0;"/><path d="M173,90.0679 L173,117.0679 L549,117.0679 L549,100.0679 L539,90.0679 L173,90.0679 " fill="#FEFFDD" style="stroke:#181818;stroke-width:0.5;"/><path d="M539,90.0679 L539,100.0679 L549,100.0679 L539,90.0679 " fill="#FEFFDD" style="stroke:#181818;stroke-width:0.5;"/><text fill="#000000" font-family="sans-serif" font-size="13" font-weight="bold" lengthAdjust="spacing" textLength="95" x="179" y="108.9649">Administrador</text><text fill="#000000" font-family="sans-serif" font-size="13" lengthAdjust="spacing" textLength="257" x="277" y="108.9649">solicita configurar preferencias del profesor</text></g><!--link ConfigurandoPreferencias to GuardandoConfiguracion--><g id="link_ConfigurandoPreferencias_GuardandoConfiguracion"><path d="M142.89,173.0979 C100.19,185.0579 18,208.0679 18,208.0679 C18,208.0679 18,369.0679 18,369.0679 C18,369.0679 94.4124,390.4596 137.1124,402.4196 " fill="none" id="ConfigurandoPreferencias-to-GuardandoConfiguracion" style="stroke:#008000;stroke-width:1.0;"/><polygon fill="#008000" points="142.89,404.0379,135.3024,397.7587,138.0753,402.6893,133.1447,405.4623,142.89,404.0379" style="stroke:#008000;stroke-width:1.0;"/><path d="M23,213.0679 L23,364.0679 L292,364.0679 L292,223.0679 L282,213.0679 L23,213.0679 " fill="#FEFFDD" style="stroke:#181818;stroke-width:0.5;"/><path d="M282,213.0679 L282,223.0679 L292,223.0679 L282,213.0679 " fill="#FEFFDD" style="stroke:#181818;stroke-width:0.5;"/><text fill="#000000" font-family="sans-serif" font-size="13" font-weight="bold" lengthAdjust="spacing" textLength="52" x="29" y="231.9649">Sistema</text><text fill="#000000" font-family="sans-serif" font-size="13" lengthAdjust="spacing" textLength="193" x="84" y="231.9649">presenta datos de configuraci&#243;n</text><text fill="#000000" font-family="sans-serif" font-size="13" lengthAdjust="spacing" textLength="179" x="29" y="249.6709">&#8226; Lista de recursos disponibles</text><text fill="#000000" font-family="sans-serif" font-size="13" lengthAdjust="spacing" textLength="236" x="29" y="267.377">&#8226; Orden de prioridad actual del profesor</text><text fill="#000000" font-family="sans-serif" font-size="13" lengthAdjust="spacing" textLength="3" x="29" y="285.083">&#160;</text><text fill="#000000" font-family="sans-serif" font-size="13" font-weight="bold" lengthAdjust="spacing" textLength="52" x="29" y="302.789">Sistema</text><text fill="#000000" font-family="sans-serif" font-size="13" lengthAdjust="spacing" textLength="99" x="84" y="302.789">permite solicitar:</text><text fill="#000000" font-family="sans-serif" font-size="13" lengthAdjust="spacing" textLength="103" x="29" y="320.495">&#8226; modificar orden</text><text fill="#000000" font-family="sans-serif" font-size="13" lengthAdjust="spacing" textLength="141" x="29" y="338.201">&#8226; guardar configuraci&#243;n</text><text fill="#000000" font-family="sans-serif" font-size="13" lengthAdjust="spacing" textLength="142" x="29" y="355.907">&#8226; cancelar configuraci&#243;n</text></g><!--link GuardandoConfiguracion to ConfigurandoPreferencias--><g id="link_GuardandoConfiguracion_ConfigurandoPreferencias"><path d="M193.18,402.8679 C230.72,390.6479 297,369.0679 297,369.0679 C297,369.0679 297,208.0679 297,208.0679 C297,208.0679 236.4253,188.3451 198.8853,176.1251 " fill="none" id="GuardandoConfiguracion-to-ConfigurandoPreferencias" style="stroke:#008000;stroke-width:1.0;"/><polygon fill="#008000" points="193.18,174.2679,200.4999,180.8573,197.9344,175.8156,202.9761,173.2502,193.18,174.2679" style="stroke:#008000;stroke-width:1.0;"/><path d="M302,275.0679 L302,302.0679 L560,302.0679 L560,285.0679 L550,275.0679 L302,275.0679 " fill="#FEFFDD" style="stroke:#181818;stroke-width:0.5;"/><path d="M550,275.0679 L550,285.0679 L560,285.0679 L550,275.0679 " fill="#FEFFDD" style="stroke:#181818;stroke-width:0.5;"/><text fill="#000000" font-family="sans-serif" font-size="13" font-weight="bold" lengthAdjust="spacing" textLength="95" x="308" y="293.9649">Administrador</text><text fill="#000000" font-family="sans-serif" font-size="13" lengthAdjust="spacing" textLength="139" x="406" y="293.9649">solicita modificar orden</text></g><!--link GuardandoConfiguracion to *end*configurarPreferenciasProfesor--><g id="link_GuardandoConfiguracion_*end*configurarPreferenciasProfesor"><path d="M142.83,420.6779 C102.77,432.7779 29,455.0679 29,455.0679 C29,455.0679 29,492.0679 29,492.0679 C29,492.0679 118.4381,510.0833 151.2081,516.6833 " fill="none" id="GuardandoConfiguracion-to-*end*configurarPreferenciasProfesor" style="stroke:#008000;stroke-width:1.0;"/><polygon fill="#008000" points="157.09,517.8679,149.0569,512.1697,152.1884,516.8807,147.4774,520.0122,157.09,517.8679" style="stroke:#008000;stroke-width:1.0;"/><path d="M34,460.0679 L34,487.0679 L282,487.0679 L282,470.0679 L272,460.0679 L34,460.0679 " fill="#FEFFDD" style="stroke:#181818;stroke-width:0.5;"/><path d="M272,460.0679 L272,470.0679 L282,470.0679 L272,460.0679 " fill="#FEFFDD" style="stroke:#181818;stroke-width:0.5;"/><text fill="#000000" font-family="sans-serif" font-size="13" font-weight="bold" lengthAdjust="spacing" textLength="95" x="40" y="478.9649">Administrador</text><text fill="#000000" font-family="sans-serif" font-size="13" lengthAdjust="spacing" textLength="129" x="138" y="478.9649">solicita guardar y salir</text></g><!--link GuardandoConfiguracion to *end*configurarPreferenciasProfesor--><g id="link_GuardandoConfiguracion_*end*configurarPreferenciasProfesor"><path d="M193.24,421.9779 C228.17,434.3079 287,455.0679 287,455.0679 C287,455.0679 287,492.0679 287,492.0679 C287,492.0679 213.5201,509.3521 184.4001,516.2121 " fill="none" id="GuardandoConfiguracion-to-*end*configurarPreferenciasProfesor-1" style="stroke:#FF0000;stroke-width:1.0;"/><polygon fill="#FF0000" points="178.56,517.5879,188.2374,519.4176,183.4268,516.4414,186.403,511.6308,178.56,517.5879" style="stroke:#FF0000;stroke-width:1.0;"/><path d="M292,460.0679 L292,487.0679 L589,487.0679 L589,470.0679 L579,460.0679 L292,460.0679 " fill="#FEFFDD" style="stroke:#181818;stroke-width:0.5;"/><path d="M579,460.0679 L579,470.0679 L589,470.0679 L579,460.0679 " fill="#FEFFDD" style="stroke:#181818;stroke-width:0.5;"/><text fill="#000000" font-family="sans-serif" font-size="13" font-weight="bold" lengthAdjust="spacing" textLength="95" x="298" y="478.9649">Administrador</text><text fill="#000000" font-family="sans-serif" font-size="13" lengthAdjust="spacing" textLength="178" x="396" y="478.9649">solicita cancelar configuraci&#243;n</text></g><g id="PROFESOR_ABIERTO"><rect fill="#F1F1F1" height="50" rx="12.5" ry="12.5" style="stroke:#181818;stroke-width:0.5;" width="156" x="224.5" y="639"/><line style="stroke:#181818;stroke-width:0.5;" x1="224.5" x2="380.5" y1="668.0679" y2="668.0679"/><text fill="#000000" font-family="sans-serif" font-size="14" lengthAdjust="spacing" textLength="136" x="234.5" y="658.9659">PROFESOR_ABIERTO</text></g><!--link configurarPreferenciasProfesor to PROFESOR_ABIERTO--><g id="link_configurarPreferenciasProfesor_PROFESOR_ABIERTO"><path d="M209.85,542.21 C203.47,560.58 199.5,572 199.5,572 C199.5,572 199.5,609 199.5,609 C199.5,609 223.6856,621.6849 251.1056,636.0549 " fill="none" id="configurarPreferenciasProfesor-to-PROFESOR_ABIERTO" style="stroke:#008000;stroke-width:1.0;"/><polygon fill="#008000" points="256.42,638.84,250.3051,631.1194,251.9913,636.5191,246.5916,638.2053,256.42,638.84" style="stroke:#008000;stroke-width:1.0;"/><path d="M204.5,577 L204.5,604 L355.5,604 L355.5,587 L345.5,577 L204.5,577 " fill="#FEFFDD" style="stroke:#181818;stroke-width:0.5;"/><path d="M345.5,577 L345.5,587 L355.5,587 L345.5,577 " fill="#FEFFDD" style="stroke:#181818;stroke-width:0.5;"/><text fill="#000000" font-family="sans-serif" font-size="13" lengthAdjust="spacing" textLength="130" x="210.5" y="595.897">abrirEdicionProfesor()</text></g><!--link configurarPreferenciasProfesor to PROFESOR_ABIERTO--><g id="link_configurarPreferenciasProfesor_PROFESOR_ABIERTO"><path d="M358.27,542.21 C362.11,560.58 364.5,572 364.5,572 C364.5,572 364.5,609 364.5,609 C364.5,609 351.2646,620.5295 334.7646,634.8995 " fill="none" id="configurarPreferenciasProfesor-to-PROFESOR_ABIERTO-1" style="stroke:#FF0000;stroke-width:1.0;"/><polygon fill="#FF0000" points="330.24,638.84,339.654,635.9456,334.0105,635.5562,334.3999,629.9128,330.24,638.84" style="stroke:#FF0000;stroke-width:1.0;"/><path d="M369.5,577 L369.5,604 L524.5,604 L524.5,587 L514.5,577 L369.5,577 " fill="#FEFFDD" style="stroke:#181818;stroke-width:0.5;"/><path d="M514.5,577 L514.5,587 L524.5,587 L514.5,577 " fill="#FEFFDD" style="stroke:#181818;stroke-width:0.5;"/><text fill="#000000" font-family="sans-serif" font-size="13" lengthAdjust="spacing" textLength="134" x="375.5" y="595.897">cancelar configuraci&#243;n</text></g><!--SRC=[fPHHIiD048RVznHBVL6X-2wbKAMA8AIqlfKYqzrf6RhP3RFfGn71itW5Z-1DF8cRnAGfJTfIDn38xim_tpyPrg_89i0GIqCMqqs2Cd5catq8uLD8KIfd5xHSC_28SO6CLX7u4Ri5UiSIlEmS3hcywiWt8MHOXM8dF27jlioosjNpzYCVry0w2wjI53ah2ytfzKnsfnTBHhIpRhzLLkRHrWNPa1iShlADthm_q35PyYc3TjoxcVUbTuOKfL0pBvEwbaOJDWf_kGnQNMY79QfNAqiTkDbTA-qaa68CEMTWycW3fuRKPLHRO4NVNuN8pyUdV0v9a9qpgZNxB9PyuYpD3VegAcADDejAc1oJ1Yr1fMim-tuRQP1Z2i1bz_YsKewTfWMfq4QNrQZsbxbtRiDMO1MQvlEourkSbZ4vPJZEcOqcJsT1XGa-ftxPkutqO6Xt3CMHsepw7vLF-YtYNOWZTqUz2QDnz32SHEFNmTtJSFmIYHqcc3FnK5F6lxrNnBROyKf_bW_NQNDM5Ve5]--></g></svg>