<?xml version="1.0" encoding="us-ascii" standalone="no"?><svg xmlns="http://www.w3.org/2000/svg" xmlns:xlink="http://www.w3.org/1999/xlink" contentStyleType="text/css" height="605px" preserveAspectRatio="none" style="width:1062px;height:605px;background:#FFFFFF;" version="1.1" viewBox="0 0 1062 605" width="1062px" zoomAndPan="magnify"><defs/><g><!--cluster editarPrograma--><g id="cluster_editarPrograma"><path d="M19.5,7 L760.5,7 A12.5,12.5 0 0 1 773,19.5 L773,31.0679 L7,31.0679 L7,19.5 A12.5,12.5 0 0 1 19.5,7 " fill="#F1F1F1" style="stroke:#F1F1F1;stroke-width:1.0;"/><rect fill="none" height="592" rx="12.5" ry="12.5" style="stroke:#181818;stroke-width:0.5;" width="766" x="7" y="7"/><line style="stroke:#181818;stroke-width:0.5;" x1="7" x2="773" y1="31.0679" y2="31.0679"/><text fill="#000000" font-family="sans-serif" font-size="14" lengthAdjust="spacing" textLength="114" x="333" y="25.9659">editarPrograma()</text></g><g id="editarPrograma.EditandoDatos"><rect fill="#F1F1F1" height="50" rx="12.5" ry="12.5" style="stroke:#181818;stroke-width:0.5;" width="50" x="255" y="188"/><line style="stroke:#181818;stroke-width:0.5;" x1="255" x2="305" y1="217.0679" y2="217.0679"/><text fill="#000000" font-family="sans-serif" font-size="14" lengthAdjust="spacing" textLength="4" x="278" y="207.9659">&#160;</text></g><g id="editarPrograma.GuardandoDatos"><rect fill="#F1F1F1" height="50" rx="12.5" ry="12.5" style="stroke:#181818;stroke-width:0.5;" width="50" x="208" y="406"/><line style="stroke:#181818;stroke-width:0.5;" x1="208" x2="258" y1="435.0679" y2="435.0679"/><text fill="#000000" font-family="sans-serif" font-size="14" lengthAdjust="spacing" textLength="4" x="231" y="425.9659">&#160;</text></g><ellipse cx="161" cy="63" fill="#222222" rx="10" ry="10" style="stroke:#222222;stroke-width:1.0;"/><ellipse cx="233" cy="564" fill="none" rx="11" ry="11" style="stroke:#222222;stroke-width:1.0;"/><ellipse cx="233" cy="564" fill="#222222" rx="6" ry="6" style="stroke:#222222;stroke-width:1.0;"/><g id="PROGRAMAS_ABIERTO"><rect fill="#F1F1F1" height="50" rx="12.5" ry="12.5" style="stroke:#181818;stroke-width:0.5;" width="171" x="842.5" y="188"/><line style="stroke:#181818;stroke-width:0.5;" x1="842.5" x2="1013.5" y1="217.0679" y2="217.0679"/><text fill="#000000" font-family="sans-serif" font-size="14" lengthAdjust="spacing" textLength="151" x="852.5" y="207.9659">PROGRAMAS_ABIERTO</text></g><!--link *start*editarPrograma to EditandoDatos--><g id="link_*start*editarPrograma_EditandoDatos"><path d="M161,73.01 C161,96.54 161,158 161,158 C161,158 214.3662,182.2207 249.2962,198.0707 " fill="none" id="*start*editarPrograma-to-EditandoDatos" style="stroke:#008000;stroke-width:1.0;"/><polygon fill="#008000" points="254.76,200.55,248.2171,193.1885,250.2068,198.4839,244.9114,200.4736,254.76,200.55" style="stroke:#008000;stroke-width:1.0;"/><path d="M166,117 L166,144 L427,144 L427,127 L417,117 L166,117 " fill="#FEFFDD" style="stroke:#181818;stroke-width:0.5;"/><path d="M417,117 L417,127 L427,127 L417,117 " fill="#FEFFDD" style="stroke:#181818;stroke-width:0.5;"/><text fill="#000000" font-family="sans-serif" font-size="13" font-weight="bold" lengthAdjust="spacing" textLength="95" x="172" y="135.897">Administrador</text><text fill="#000000" font-family="sans-serif" font-size="13" lengthAdjust="spacing" textLength="142" x="270" y="135.897">solicita editar programa</text></g><!--link EditandoDatos to GuardandoDatos--><g id="link_EditandoDatos_GuardandoDatos"><path d="M254.68,220.3 C197.44,234.54 63,268 63,268 C63,268 63,376 63,376 C63,376 154.9115,405.1937 202.2015,420.2137 " fill="none" id="EditandoDatos-to-GuardandoDatos" style="stroke:#008000;stroke-width:1.0;"/><polygon fill="#008000" points="207.92,422.03,200.5531,415.4933,203.1546,420.5164,198.1314,423.1179,207.92,422.03" style="stroke:#008000;stroke-width:1.0;"/><path d="M68,273 L68,371 L352,371 L352,283 L342,273 L68,273 " fill="#FEFFDD" style="stroke:#181818;stroke-width:0.5;"/><path d="M342,273 L342,283 L352,283 L342,273 " fill="#FEFFDD" style="stroke:#181818;stroke-width:0.5;"/><text fill="#000000" font-family="sans-serif" font-size="13" font-weight="bold" lengthAdjust="spacing" textLength="52" x="74" y="291.897">Sistema</text><text fill="#000000" font-family="sans-serif" font-size="13" lengthAdjust="spacing" textLength="183" x="129" y="291.897">presenta formulario de edici&#243;n</text><text fill="#000000" font-family="sans-serif" font-size="13" lengthAdjust="spacing" textLength="263" x="74" y="309.603">&#8226; C&#243;digo, nombre, descripci&#243;n del programa</text><text fill="#000000" font-family="sans-serif" font-size="13" lengthAdjust="spacing" textLength="213" x="74" y="327.309">&#8226; Permite solicitar modificar campos</text><text fill="#000000" font-family="sans-serif" font-size="13" lengthAdjust="spacing" textLength="218" x="74" y="345.0151">&#8226; Permite solicitar guardar programa</text><text fill="#000000" font-family="sans-serif" font-size="13" lengthAdjust="spacing" textLength="202" x="74" y="362.7211">&#8226; Permite solicitar cancelar edici&#243;n</text></g><!--link GuardandoDatos to EditandoDatos--><g id="link_GuardandoDatos_EditandoDatos"><path d="M258.29,419.33 C295.59,403.59 361,376 361,376 C361,376 361,268 361,268 C361,268 333.9526,249.9677 310.1726,234.1177 " fill="none" id="GuardandoDatos-to-EditandoDatos" style="stroke:#008000;stroke-width:1.0;"/><polygon fill="#008000" points="305.18,230.79,310.4505,239.11,309.3405,233.5631,314.8874,232.4532,305.18,230.79" style="stroke:#008000;stroke-width:1.0;"/><path d="M366,299.5 L366,344.5 L697,344.5 L697,309.5 L687,299.5 L366,299.5 " fill="#FEFFDD" style="stroke:#181818;stroke-width:0.5;"/><path d="M687,299.5 L687,309.5 L697,309.5 L687,299.5 " fill="#FEFFDD" style="stroke:#181818;stroke-width:0.5;"/><text fill="#000000" font-family="sans-serif" font-size="13" font-weight="bold" lengthAdjust="spacing" textLength="95" x="372" y="318.397">Administrador</text><text fill="#000000" font-family="sans-serif" font-size="13" lengthAdjust="spacing" textLength="212" x="470" y="318.397">solicita modificar campos (opcional)</text><text fill="#000000" font-family="sans-serif" font-size="13" font-weight="bold" lengthAdjust="spacing" textLength="52" x="372" y="336.103">Sistema</text><text fill="#000000" font-family="sans-serif" font-size="13" lengthAdjust="spacing" textLength="181" x="427" y="336.103">permite modificar informaci&#243;n</text></g><!--link GuardandoDatos to *end*editarPrograma--><g id="link_GuardandoDatos_*end*editarPrograma"><path d="M233,456.03 C233,484.98 233,526.31 233,546.9 " fill="none" id="GuardandoDatos-to-*end*editarPrograma" style="stroke:#008000;stroke-width:1.0;"/><polygon fill="#008000" points="233,552.9,237,543.9,233,547.9,229,543.9,233,552.9" style="stroke:#008000;stroke-width:1.0;"/><path d="M238,491 L238,518 L486,518 L486,501 L476,491 L238,491 " fill="#FEFFDD" style="stroke:#181818;stroke-width:0.5;"/><path d="M476,491 L476,501 L486,501 L476,491 " fill="#FEFFDD" style="stroke:#181818;stroke-width:0.5;"/><text fill="#000000" font-family="sans-serif" font-size="13" font-weight="bold" lengthAdjust="spacing" textLength="95" x="244" y="509.897">Administrador</text><text fill="#000000" font-family="sans-serif" font-size="13" lengthAdjust="spacing" textLength="129" x="342" y="509.897">solicita guardar y salir</text></g><!--link editarPrograma to EditandoDatos--><g id="link_editarPrograma_EditandoDatos"><path d="M764.91,64.1 C764.03,65.09 757,73 757,73 C757,73 484,103 484,103 C484,103 433,158 433,158 C433,158 354.3783,185.7541 310.9183,201.0841 " fill="none" id="editarPrograma-to-EditandoDatos" style="stroke:#008000;stroke-width:1.0;"/><polygon fill="#008000" points="305.26,203.08,315.0781,203.8584,309.9753,201.4168,312.4169,196.3139,305.26,203.08" style="stroke:#008000;stroke-width:1.0;"/><path d="M489,108 L489,153 L767,153 L767,118 L757,108 L489,108 " fill="#FEFFDD" style="stroke:#181818;stroke-width:0.5;"/><path d="M757,108 L757,118 L767,118 L757,108 " fill="#FEFFDD" style="stroke:#181818;stroke-width:0.5;"/><text fill="#000000" font-family="sans-serif" font-size="13" font-weight="bold" lengthAdjust="spacing" textLength="95" x="495" y="126.897">Administrador</text><text fill="#000000" font-family="sans-serif" font-size="13" lengthAdjust="spacing" textLength="159" x="593" y="126.897">solicita continuar editando</text><text fill="#000000" font-family="sans-serif" font-size="13" font-weight="bold" lengthAdjust="spacing" textLength="52" x="495" y="144.603">Sistema</text><text fill="#000000" font-family="sans-serif" font-size="13" lengthAdjust="spacing" textLength="162" x="550" y="144.603">mantiene formulario activo</text></g><!--link editarPrograma to PROGRAMAS_ABIERTO--><g id="link_editarPrograma_PROGRAMAS_ABIERTO"><path d="M773.0291,87.5898 C773.0832,87.7489 773.1376,87.9085 773.1921,88.0686 C773.3011,88.3887 773.4107,88.7107 773.5209,89.0345 C773.7414,89.6821 773.9643,90.3368 774.1895,90.9981 C774.6397,92.3206 775.0989,93.6691 775.5649,95.0381 C777.4293,100.5141 779.4053,106.3181 781.3738,112.1 C789.2475,135.2275 797,158 797,158 C797,158 828.9724,171.1845 863.8524,185.5545 " fill="none" id="editarPrograma-to-PROGRAMAS_ABIERTO" style="stroke:#008000;stroke-width:1.0;"/><polygon fill="#008000" points="869.4,187.84,862.6022,180.7133,864.777,185.9354,859.5548,188.1101,869.4,187.84" style="stroke:#008000;stroke-width:1.0;"/><path d="M802,117 L802,144 L925,144 L925,127 L915,117 L802,117 " fill="#FEFFDD" style="stroke:#181818;stroke-width:0.5;"/><path d="M915,117 L915,127 L925,127 L915,117 " fill="#FEFFDD" style="stroke:#181818;stroke-width:0.5;"/><text fill="#000000" font-family="sans-serif" font-size="13" lengthAdjust="spacing" textLength="102" x="808" y="135.897">abrirProgramas()</text></g><!--link editarPrograma to PROGRAMAS_ABIERTO--><g id="link_editarPrograma_PROGRAMAS_ABIERTO"><path d="M773.3863,65.9371 C773.5379,65.9721 773.6913,66.0075 773.8466,66.0433 C778.8144,67.1895 785.6313,68.7625 793.6675,70.6169 C809.74,74.3256 830.69,79.16 851.48,83.9575 C893.06,93.5525 934,103 934,103 C934,103 934,158 934,158 C934,158 932.944,167.5068 931.344,181.8768 " fill="none" id="editarPrograma-to-PROGRAMAS_ABIERTO-1" style="stroke:#0000FF;stroke-width:1.0;"/><polygon fill="#0000FF" points="930.68,187.84,935.6514,179.3379,931.2333,182.8707,927.7005,178.4526,930.68,187.84" style="stroke:#0000FF;stroke-width:1.0;"/><path d="M939,117 L939,144 L1055,144 L1055,127 L1045,117 L939,117 " fill="#FEFFDD" style="stroke:#181818;stroke-width:0.5;"/><path d="M1045,117 L1045,127 L1055,127 L1045,117 " fill="#FEFFDD" style="stroke:#181818;stroke-width:0.5;"/><text fill="#000000" font-family="sans-serif" font-size="13" lengthAdjust="spacing" textLength="95" x="945" y="135.897">cancelar edici&#243;n</text></g><!--SRC=[dPDVQW8n4CRVSufWNxGelO08zW_IXrBHlfLIPfDK1ZV9CjajI2dqBBr2Zz2Rz2ITZReQMqNSXMMJ_UQRNxvamnnT0GHMvkXCkIYCB7o-g0T2X19A8ut64cXCViOoa11aAvrgTrhoJGZ9rxAYnJVBRcgLq_uQIX_-VXvLG7hpFGeUpvzax_5iHiQufzuWjP1HuZnRU5VppkD4FniCjKM7eIJGdleNsK06dwFYsXMzB5QiiS8ulRJXIpIFjDSsnGxfFeef4nWBiNz19XZ7_LyysIe7GYzrp5BXzvUB9JyVd_Bg-qlZp7VPq6PakYmAYh28AXxaANbTCZPaaRklbqZIUeqlgFXDWIrMXFzBPt4fT8oh0gSCawVGw-mskQNfxD- -KtPlTsMoxJaQxo3l_9lwQX6RCdJr1i29_7mSJw5UXxoG0NAajE-x43j_rFx4ahw7UohlIdJLShkYXTW9nm8hZ3FRHn9KYQzUD727qCQJ-z5aU3USFWylRsyc3_Sf7cI4JM5eTmwQPdbbZl3yUmGRqry0]--></g></svg>