<?xml version="1.0" encoding="us-ascii" standalone="no"?><svg xmlns="http://www.w3.org/2000/svg" xmlns:xlink="http://www.w3.org/1999/xlink" contentStyleType="text/css" height="713px" preserveAspectRatio="none" style="width:614px;height:713px;background:#FFFFFF;" version="1.1" viewBox="0 0 614 713" width="614px" zoomAndPan="magnify"><defs/><g><path d="M19.5,7 L375.5,7 A12.5,12.5 0 0 1 388,19.5 L388,36.0679 L7,36.0679 L7,19.5 A12.5,12.5 0 0 1 19.5,7 " fill="#F1F1F1" style="stroke:#F1F1F1;stroke-width:1.0;"/><rect fill="none" height="553.0679" rx="12.5" ry="12.5" style="stroke:#181818;stroke-width:0.5;" width="381" x="7" y="7"/><line style="stroke:#181818;stroke-width:0.5;" x1="7" x2="388" y1="36.0679" y2="36.0679"/><text fill="#000000" font-family="sans-serif" font-size="14" lengthAdjust="spacing" textLength="103" x="146" y="26.9659">eliminarCurso()</text><g id="eliminarCurso.ConfirmandoEliminacion"><rect fill="#F1F1F1" height="50" rx="12.5" ry="12.5" style="stroke:#181818;stroke-width:0.5;" width="50" x="19" y="140.0679"/><line style="stroke:#181818;stroke-width:0.5;" x1="19" x2="69" y1="169.1358" y2="169.1358"/><text fill="#000000" font-family="sans-serif" font-size="14" lengthAdjust="spacing" textLength="4" x="42" y="160.0339">&#160;</text></g><g id="eliminarCurso.EliminandoCurso"><rect fill="#F1F1F1" height="50" rx="12.5" ry="12.5" style="stroke:#181818;stroke-width:0.5;" width="50" x="19" y="369.0679"/><line style="stroke:#181818;stroke-width:0.5;" x1="19" x2="69" y1="398.1358" y2="398.1358"/><text fill="#000000" font-family="sans-serif" font-size="14" lengthAdjust="spacing" textLength="4" x="42" y="389.0339">&#160;</text></g><ellipse cx="44" cy="57.0679" fill="#222222" rx="10" ry="10" style="stroke:#222222;stroke-width:1.0;"/><ellipse cx="44" cy="539.0679" fill="none" rx="11" ry="11" style="stroke:#222222;stroke-width:1.0;"/><ellipse cx="44" cy="539.0679" fill="#222222" rx="6" ry="6" style="stroke:#222222;stroke-width:1.0;"/><!--link *start*eliminarCurso to ConfirmandoEliminacion--><g id="link_*start*eliminarCurso_ConfirmandoEliminacion"><path d="M44,67.1079 C44,83.0279 44,110.5779 44,133.7079 " fill="none" id="*start*eliminarCurso-to-ConfirmandoEliminacion" style="stroke:#008000;stroke-width:1.0;"/><polygon fill="#008000" points="44,139.7079,48,130.7079,44,134.7079,40,130.7079,44,139.7079" style="stroke:#008000;stroke-width:1.0;"/><path d="M49,90.0679 L49,117.0679 L296,117.0679 L296,100.0679 L286,90.0679 L49,90.0679 " fill="#FEFFDD" style="stroke:#181818;stroke-width:0.5;"/><path d="M286,90.0679 L286,100.0679 L296,100.0679 L286,90.0679 " fill="#FEFFDD" style="stroke:#181818;stroke-width:0.5;"/><text fill="#000000" font-family="sans-serif" font-size="13" font-weight="bold" lengthAdjust="spacing" textLength="95" x="55" y="108.9649">Administrador</text><text fill="#000000" font-family="sans-serif" font-size="13" lengthAdjust="spacing" textLength="128" x="153" y="108.9649">solicita eliminar curso</text></g><!--link ConfirmandoEliminacion to EliminandoCurso--><g id="link_ConfirmandoEliminacion_EliminandoCurso"><path d="M44,190.3579 C44,234.0479 44,319.3879 44,362.9479 " fill="none" id="ConfirmandoEliminacion-to-EliminandoCurso" style="stroke:#008000;stroke-width:1.0;"/><polygon fill="#008000" points="44,368.9479,48,359.9479,44,363.9479,40,359.9479,44,368.9479" style="stroke:#008000;stroke-width:1.0;"/><path d="M49,213.0679 L49,346.0679 L371,346.0679 L371,223.0679 L361,213.0679 L49,213.0679 " fill="#FEFFDD" style="stroke:#181818;stroke-width:0.5;"/><path d="M361,213.0679 L361,223.0679 L371,223.0679 L361,213.0679 " fill="#FEFFDD" style="stroke:#181818;stroke-width:0.5;"/><text fill="#000000" font-family="sans-serif" font-size="13" font-weight="bold" lengthAdjust="spacing" textLength="52" x="55" y="231.9649">Sistema</text><text fill="#000000" font-family="sans-serif" font-size="13" lengthAdjust="spacing" textLength="246" x="110" y="231.9649">presenta informaci&#243;n del curso a eliminar</text><text fill="#000000" font-family="sans-serif" font-size="13" lengthAdjust="spacing" textLength="236" x="55" y="249.6709">&#8226; C&#243;digo, nombre, descripci&#243;n del curso</text><text fill="#000000" font-family="sans-serif" font-size="13" lengthAdjust="spacing" textLength="244" x="55" y="267.377">&#8226; Cr&#233;ditos, horas te&#243;ricas, horas pr&#225;cticas</text><text fill="#000000" font-family="sans-serif" font-size="13" lengthAdjust="spacing" textLength="191" x="55" y="285.083">&#8226; Programa acad&#233;mico asociado</text><text fill="#000000" font-family="sans-serif" font-size="13" lengthAdjust="spacing" textLength="223" x="55" y="302.789">&#8226; Presenta advertencia de eliminaci&#243;n</text><text fill="#000000" font-family="sans-serif" font-size="13" lengthAdjust="spacing" textLength="236" x="55" y="320.495">&#8226; Permite solicitar confirmar eliminaci&#243;n</text><text fill="#000000" font-family="sans-serif" font-size="13" lengthAdjust="spacing" textLength="227" x="55" y="338.201">&#8226; Permite solicitar cancelar eliminaci&#243;n</text></g><!--link EliminandoCurso to *end*eliminarCurso--><g id="link_EliminandoCurso_*end*eliminarCurso"><path d="M44,419.3279 C44,451.0379 44,499.1979 44,521.7479 " fill="none" id="EliminandoCurso-to-*end*eliminarCurso" style="stroke:#008000;stroke-width:1.0;"/><polygon fill="#008000" points="44,527.7479,48,518.7479,44,522.7479,40,518.7479,44,527.7479" style="stroke:#008000;stroke-width:1.0;"/><path d="M49,442.0679 L49,505.0679 L379,505.0679 L379,452.0679 L369,442.0679 L49,442.0679 " fill="#FEFFDD" style="stroke:#181818;stroke-width:0.5;"/><path d="M369,442.0679 L369,452.0679 L379,452.0679 L369,442.0679 " fill="#FEFFDD" style="stroke:#181818;stroke-width:0.5;"/><text fill="#000000" font-family="sans-serif" font-size="13" font-weight="bold" lengthAdjust="spacing" textLength="95" x="55" y="460.9649">Administrador</text><text fill="#000000" font-family="sans-serif" font-size="13" lengthAdjust="spacing" textLength="211" x="153" y="460.9649">solicita confirmaci&#243;n de eliminaci&#243;n</text><text fill="#000000" font-family="sans-serif" font-size="13" font-weight="bold" lengthAdjust="spacing" textLength="52" x="55" y="478.6709">Sistema</text><text fill="#000000" font-family="sans-serif" font-size="13" lengthAdjust="spacing" textLength="228" x="110" y="478.6709">permite solicitar confirmar eliminaci&#243;n</text><text fill="#000000" font-family="sans-serif" font-size="13" font-weight="bold" lengthAdjust="spacing" textLength="95" x="55" y="496.377">Administrador</text><text fill="#000000" font-family="sans-serif" font-size="13" lengthAdjust="spacing" textLength="173" x="153" y="496.377">solicita confirmar eliminaci&#243;n</text></g><g id="CURSOS_ABIERTO"><rect fill="#F1F1F1" height="50" rx="12.5" ry="12.5" style="stroke:#181818;stroke-width:0.5;" width="140" x="127.5" y="657"/><line style="stroke:#181818;stroke-width:0.5;" x1="127.5" x2="267.5" y1="686.0679" y2="686.0679"/><text fill="#000000" font-family="sans-serif" font-size="14" lengthAdjust="spacing" textLength="120" x="137.5" y="676.9659">CURSOS_ABIERTO</text></g><!--link eliminarCurso to CURSOS_ABIERTO--><g id="link_eliminarCurso_CURSOS_ABIERTO"><path d="M54.04,560.15 C44.44,578.58 38.5,590 38.5,590 C38.5,590 38.5,627 38.5,627 C38.5,627 79.0188,640.7603 121.6188,655.2303 " fill="none" id="eliminarCurso-to-CURSOS_ABIERTO" style="stroke:#008000;stroke-width:1.0;"/><polygon fill="#008000" points="127.3,657.16,120.0647,650.4779,122.5657,655.5519,117.4917,658.0529,127.3,657.16" style="stroke:#008000;stroke-width:1.0;"/><path d="M43.5,595 L43.5,622 L305.5,622 L305.5,605 L295.5,595 L43.5,595 " fill="#FEFFDD" style="stroke:#181818;stroke-width:0.5;"/><path d="M295.5,595 L295.5,605 L305.5,605 L295.5,595 " fill="#FEFFDD" style="stroke:#181818;stroke-width:0.5;"/><text fill="#000000" font-family="sans-serif" font-size="13" lengthAdjust="spacing" textLength="241" x="49.5" y="613.897">&#171;include&#187; abrirCursos() - lista actualizada</text></g><!--link eliminarCurso to CURSOS_ABIERTO--><g id="link_eliminarCurso_CURSOS_ABIERTO"><path d="M303.07,560.15 C310.13,578.58 314.5,590 314.5,590 C314.5,590 314.5,627 314.5,627 C314.5,627 286.4382,639.9566 255.2882,654.3266 " fill="none" id="eliminarCurso-to-CURSOS_ABIERTO-1" style="stroke:#0000FF;stroke-width:1.0;"/><polygon fill="#0000FF" points="249.84,656.84,259.6879,656.7021,254.3802,654.7455,256.3368,649.4378,249.84,656.84" style="stroke:#0000FF;stroke-width:1.0;"/><path d="M319.5,595 L319.5,622 L607.5,622 L607.5,605 L597.5,595 L319.5,595 " fill="#FEFFDD" style="stroke:#181818;stroke-width:0.5;"/><path d="M597.5,595 L597.5,605 L607.5,605 L597.5,595 " fill="#FEFFDD" style="stroke:#181818;stroke-width:0.5;"/><text fill="#000000" font-family="sans-serif" font-size="13" lengthAdjust="spacing" textLength="267" x="325.5" y="613.897">&#171;include&#187; abrirCursos() - cancelar eliminaci&#243;n</text></g><!--SRC=[fLF1Rjim3BtxAuZiqWu9zWE1WIxeOQSEpNOgYe6Ms9IeB1cKCg0R1knNjblF-GJ_oRvaj1qxTT8CRIS31aGzFZxoIV6EVOM29JZsbEuhWYgu-sQJPJ5X8Y379NkKnLfY08mm6KLEJYVmFSj0LuUVwAUeHV0tB2Lw6yuxlE7W3t7RGuMrT1tJrTjhc5szMGcHlvxbHyYWnVgWPBfHpNTjO5xaPrOn79EW3J9_L-GGWsF32OTsmBJbcWJojcFHbGs_8pKVozhNVapEKgLGYQsGIYYILo7iRuBI6wut7YovJX3i5BRPVtx-XaMziRmAK-Kk2w6fegCHhlPITtYf7ood4ATm6qHddAZU21iS0fNKlqng8aFIHmahlGS8QD3M3oMRnknWM4Vu2BGLZ_OhIIAlnogWbzmAse59IjPXzAFNaMz7AizEG6_8FONlFTlvjMV6o2YzJw-vAxtUVj27ClRDVKdBpwlzhzv_PDduTOxUpEVBvSNoozdx3-UNdowoKUlpENlZrfRo7B0GxjBZoIdC510RWqrQe-DlQ34RwXrMAzoQ_gVOqmOF1Vy2]--></g></svg>