<?xml version="1.0" encoding="us-ascii" standalone="no"?><svg xmlns="http://www.w3.org/2000/svg" xmlns:xlink="http://www.w3.org/1999/xlink" contentStyleType="text/css" height="900px" preserveAspectRatio="none" style="width:1712px;height:900px;background:#FFFFFF;" version="1.1" viewBox="0 0 1712 900" width="1712px" zoomAndPan="magnify"><defs/><g><!--class M_AULAS--><g id="elem_M_AULAS"><rect codeLine="1" fill="#F1F1F1" height="181.4754" id="M_AULAS" rx="2.5" ry="2.5" style="stroke:#181818;stroke-width:0.5;" width="298" x="1090.5" y="267.5"/><ellipse cx="1204.25" cy="283.5" fill="#ADD1B2" rx="11" ry="11" style="stroke:#181818;stroke-width:1.0;"/><path d="M1208.3594,289.5 L1200.6406,289.5 L1200.6406,277.1094 L1208.3594,277.1094 L1208.3594,279.2656 L1203.0938,279.2656 L1203.0938,281.9375 L1207.8594,281.9375 L1207.8594,284.0938 L1203.0938,284.0938 L1203.0938,287.3438 L1208.3594,287.3438 L1208.3594,289.5 Z " fill="#000000"/><text fill="#000000" font-family="sans-serif" font-size="14" lengthAdjust="spacing" textLength="62" x="1224.75" y="288.932">M_AULAS</text><line style="stroke:#181818;stroke-width:0.5;" x1="1091.5" x2="1387.5" y1="299.5" y2="299.5"/><text fill="#000000" font-family="sans-serif" font-size="14" lengthAdjust="spacing" textLength="58" x="1096.5" y="318.4659">int ID PK</text><text fill="#000000" font-family="sans-serif" font-size="14" lengthAdjust="spacing" textLength="99" x="1096.5" y="337.5339">string Nombre</text><text fill="#000000" font-family="sans-serif" font-size="14" lengthAdjust="spacing" textLength="93" x="1096.5" y="356.6018">int Capacidad</text><text fill="#000000" font-family="sans-serif" font-size="14" lengthAdjust="spacing" textLength="286" x="1096.5" y="375.6697">int Propiedades "5 bits: Ecram,Acrilica,etc"</text><text fill="#000000" font-family="sans-serif" font-size="14" lengthAdjust="spacing" textLength="113" x="1096.5" y="394.7376">boolean Especial</text><text fill="#000000" font-family="sans-serif" font-size="14" lengthAdjust="spacing" textLength="130" x="1096.5" y="413.8055">boolean Bloqueada</text><text fill="#000000" font-family="sans-serif" font-size="14" lengthAdjust="spacing" textLength="106" x="1096.5" y="432.8734">int IDEdificio FK</text><line style="stroke:#181818;stroke-width:0.5;" x1="1091.5" x2="1387.5" y1="440.9754" y2="440.9754"/></g><!--class M_CURSOS--><g id="elem_M_CURSOS"><rect codeLine="10" fill="#F1F1F1" height="334.0188" id="M_CURSOS" rx="2.5" ry="2.5" style="stroke:#181818;stroke-width:0.5;" width="184" x="611.5" y="191"/><ellipse cx="662.25" cy="207" fill="#ADD1B2" rx="11" ry="11" style="stroke:#181818;stroke-width:1.0;"/><path d="M666.3594,213 L658.6406,213 L658.6406,200.6094 L666.3594,200.6094 L666.3594,202.7656 L661.0938,202.7656 L661.0938,205.4375 L665.8594,205.4375 L665.8594,207.5938 L661.0938,207.5938 L661.0938,210.8438 L666.3594,210.8438 L666.3594,213 Z " fill="#000000"/><text fill="#000000" font-family="sans-serif" font-size="14" lengthAdjust="spacing" textLength="74" x="682.75" y="212.432">M_CURSOS</text><line style="stroke:#181818;stroke-width:0.5;" x1="612.5" x2="794.5" y1="223" y2="223"/><text fill="#000000" font-family="sans-serif" font-size="14" lengthAdjust="spacing" textLength="58" x="617.5" y="241.9659">int ID PK</text><text fill="#000000" font-family="sans-serif" font-size="14" lengthAdjust="spacing" textLength="99" x="617.5" y="261.0339">string Nombre</text><text fill="#000000" font-family="sans-serif" font-size="14" lengthAdjust="spacing" textLength="77" x="617.5" y="280.1018">string Sigla</text><text fill="#000000" font-family="sans-serif" font-size="14" lengthAdjust="spacing" textLength="110" x="617.5" y="299.1697">string Programa</text><text fill="#000000" font-family="sans-serif" font-size="14" lengthAdjust="spacing" textLength="78" x="617.5" y="318.2376">int Creditos</text><text fill="#000000" font-family="sans-serif" font-size="14" lengthAdjust="spacing" textLength="115" x="617.5" y="337.3055">string H "1-8,E,V"</text><text fill="#000000" font-family="sans-serif" font-size="14" lengthAdjust="spacing" textLength="82" x="617.5" y="356.3734">int Vacantes</text><text fill="#000000" font-family="sans-serif" font-size="14" lengthAdjust="spacing" textLength="54" x="617.5" y="375.4414">int Ciclo</text><text fill="#000000" font-family="sans-serif" font-size="14" lengthAdjust="spacing" textLength="153" x="617.5" y="394.5093">boolean PI "Industrial"</text><text fill="#000000" font-family="sans-serif" font-size="14" lengthAdjust="spacing" textLength="150" x="617.5" y="413.5772">boolean PS "Sistemas"</text><text fill="#000000" font-family="sans-serif" font-size="14" lengthAdjust="spacing" textLength="119" x="617.5" y="432.6451">boolean PC "Civil"</text><text fill="#000000" font-family="sans-serif" font-size="14" lengthAdjust="spacing" textLength="147" x="617.5" y="451.713">boolean PE "Electrica"</text><text fill="#000000" font-family="sans-serif" font-size="14" lengthAdjust="spacing" textLength="135" x="617.5" y="470.7809">boolean Laboratorio</text><text fill="#000000" font-family="sans-serif" font-size="14" lengthAdjust="spacing" textLength="172" x="617.5" y="489.8489">boolean ProfesorVisitante</text><text fill="#000000" font-family="sans-serif" font-size="14" lengthAdjust="spacing" textLength="98" x="617.5" y="508.9168">boolean Activo</text><line style="stroke:#181818;stroke-width:0.5;" x1="612.5" x2="794.5" y1="517.0188" y2="517.0188"/></g><!--class M_PROFESORES--><g id="elem_M_PROFESORES"><rect codeLine="27" fill="#F1F1F1" height="200.5433" id="M_PROFESORES" rx="2.5" ry="2.5" style="stroke:#181818;stroke-width:0.5;" width="196" x="217.5" y="257.5"/><ellipse cx="258.6" cy="273.5" fill="#ADD1B2" rx="11" ry="11" style="stroke:#181818;stroke-width:1.0;"/><path d="M262.7094,279.5 L254.9906,279.5 L254.9906,267.1094 L262.7094,267.1094 L262.7094,269.2656 L257.4438,269.2656 L257.4438,271.9375 L262.2094,271.9375 L262.2094,274.0938 L257.4438,274.0938 L257.4438,277.3438 L262.7094,277.3438 L262.7094,279.5 Z " fill="#000000"/><text fill="#000000" font-family="sans-serif" font-size="14" lengthAdjust="spacing" textLength="106" x="278.4" y="278.932">M_PROFESORES</text><line style="stroke:#181818;stroke-width:0.5;" x1="218.5" x2="412.5" y1="289.5" y2="289.5"/><text fill="#000000" font-family="sans-serif" font-size="14" lengthAdjust="spacing" textLength="58" x="223.5" y="308.4659">int ID PK</text><text fill="#000000" font-family="sans-serif" font-size="14" lengthAdjust="spacing" textLength="99" x="223.5" y="327.5339">string Nombre</text><text fill="#000000" font-family="sans-serif" font-size="14" lengthAdjust="spacing" textLength="92" x="223.5" y="346.6018">string Oficina</text><text fill="#000000" font-family="sans-serif" font-size="14" lengthAdjust="spacing" textLength="184" x="223.5" y="365.6697">int R1 "Prioridad recurso 1"</text><text fill="#000000" font-family="sans-serif" font-size="14" lengthAdjust="spacing" textLength="184" x="223.5" y="384.7376">int R2 "Prioridad recurso 2"</text><text fill="#000000" font-family="sans-serif" font-size="14" lengthAdjust="spacing" textLength="184" x="223.5" y="403.8055">int R3 "Prioridad recurso 3"</text><text fill="#000000" font-family="sans-serif" font-size="14" lengthAdjust="spacing" textLength="184" x="223.5" y="422.8734">int R4 "Prioridad recurso 4"</text><text fill="#000000" font-family="sans-serif" font-size="14" lengthAdjust="spacing" textLength="184" x="223.5" y="441.9414">int R5 "Prioridad recurso 5"</text><line style="stroke:#181818;stroke-width:0.5;" x1="218.5" x2="412.5" y1="450.0433" y2="450.0433"/></g><!--class M_HORARIO--><g id="elem_M_HORARIO"><rect codeLine="37" fill="#F1F1F1" height="124.2717" id="M_HORARIO" rx="2.5" ry="2.5" style="stroke:#181818;stroke-width:0.5;" width="162" x="941.5" y="604"/><ellipse cx="977.65" cy="620" fill="#ADD1B2" rx="11" ry="11" style="stroke:#181818;stroke-width:1.0;"/><path d="M981.7594,626 L974.0406,626 L974.0406,613.6094 L981.7594,613.6094 L981.7594,615.7656 L976.4938,615.7656 L976.4938,618.4375 L981.2594,618.4375 L981.2594,620.5938 L976.4938,620.5938 L976.4938,623.8438 L981.7594,623.8438 L981.7594,626 Z " fill="#000000"/><text fill="#000000" font-family="sans-serif" font-size="14" lengthAdjust="spacing" textLength="83" x="996.35" y="625.432">M_HORARIO</text><line style="stroke:#181818;stroke-width:0.5;" x1="942.5" x2="1102.5" y1="636" y2="636"/><text fill="#000000" font-family="sans-serif" font-size="14" lengthAdjust="spacing" textLength="150" x="947.5" y="654.9659">string Dia "L,M,X,J,V,S"</text><text fill="#000000" font-family="sans-serif" font-size="14" lengthAdjust="spacing" textLength="99" x="947.5" y="674.0339">int Hora "7-12"</text><text fill="#000000" font-family="sans-serif" font-size="14" lengthAdjust="spacing" textLength="87" x="947.5" y="693.1018">int IDAula FK</text><text fill="#000000" font-family="sans-serif" font-size="14" lengthAdjust="spacing" textLength="96" x="947.5" y="712.1697">int IDCurso FK</text><line style="stroke:#181818;stroke-width:0.5;" x1="942.5" x2="1102.5" y1="720.2717" y2="720.2717"/></g><!--class S_EDIFICIOS--><g id="elem_S_EDIFICIOS"><rect codeLine="43" fill="#F1F1F1" height="86.1358" id="S_EDIFICIOS" rx="2.5" ry="2.5" style="stroke:#181818;stroke-width:0.5;" width="114" x="1182.5" y="16.5"/><ellipse cx="1197.5" cy="32.5" fill="#ADD1B2" rx="11" ry="11" style="stroke:#181818;stroke-width:1.0;"/><path d="M1201.6094,38.5 L1193.8906,38.5 L1193.8906,26.1094 L1201.6094,26.1094 L1201.6094,28.2656 L1196.3438,28.2656 L1196.3438,30.9375 L1201.1094,30.9375 L1201.1094,33.0938 L1196.3438,33.0938 L1196.3438,36.3438 L1201.6094,36.3438 L1201.6094,38.5 Z " fill="#000000"/><text fill="#000000" font-family="sans-serif" font-size="14" lengthAdjust="spacing" textLength="82" x="1211.5" y="37.932">S_EDIFICIOS</text><line style="stroke:#181818;stroke-width:0.5;" x1="1183.5" x2="1295.5" y1="48.5" y2="48.5"/><text fill="#000000" font-family="sans-serif" font-size="14" lengthAdjust="spacing" textLength="58" x="1188.5" y="67.4659">int ID PK</text><text fill="#000000" font-family="sans-serif" font-size="14" lengthAdjust="spacing" textLength="99" x="1188.5" y="86.5339">string Nombre</text><line style="stroke:#181818;stroke-width:0.5;" x1="1183.5" x2="1295.5" y1="94.6358" y2="94.6358"/></g><!--class S_HORAS--><g id="elem_S_HORAS"><rect codeLine="47" fill="#F1F1F1" height="86.1358" id="S_HORAS" rx="2.5" ry="2.5" style="stroke:#181818;stroke-width:0.5;" width="135" x="27" y="16.5"/><ellipse cx="60.9" cy="32.5" fill="#ADD1B2" rx="11" ry="11" style="stroke:#181818;stroke-width:1.0;"/><path d="M65.0094,38.5 L57.2906,38.5 L57.2906,26.1094 L65.0094,26.1094 L65.0094,28.2656 L59.7438,28.2656 L59.7438,30.9375 L64.5094,30.9375 L64.5094,33.0938 L59.7438,33.0938 L59.7438,36.3438 L65.0094,36.3438 L65.0094,38.5 Z " fill="#000000"/><text fill="#000000" font-family="sans-serif" font-size="14" lengthAdjust="spacing" textLength="61" x="79.1" y="37.932">S_HORAS</text><line style="stroke:#181818;stroke-width:0.5;" x1="28" x2="161" y1="48.5" y2="48.5"/><text fill="#000000" font-family="sans-serif" font-size="14" lengthAdjust="spacing" textLength="58" x="33" y="67.4659">int ID PK</text><text fill="#000000" font-family="sans-serif" font-size="14" lengthAdjust="spacing" textLength="123" x="33" y="86.5339">string Descripcion</text><line style="stroke:#181818;stroke-width:0.5;" x1="28" x2="161" y1="94.6358" y2="94.6358"/></g><!--class S_OFICINAS--><g id="elem_S_OFICINAS"><rect codeLine="51" fill="#F1F1F1" height="86.1358" id="S_OFICINAS" rx="2.5" ry="2.5" style="stroke:#181818;stroke-width:0.5;" width="111" x="189" y="623"/><ellipse cx="204" cy="639" fill="#ADD1B2" rx="11" ry="11" style="stroke:#181818;stroke-width:1.0;"/><path d="M208.1094,645 L200.3906,645 L200.3906,632.6094 L208.1094,632.6094 L208.1094,634.7656 L202.8438,634.7656 L202.8438,637.4375 L207.6094,637.4375 L207.6094,639.5938 L202.8438,639.5938 L202.8438,642.8438 L208.1094,642.8438 L208.1094,645 Z " fill="#000000"/><text fill="#000000" font-family="sans-serif" font-size="14" lengthAdjust="spacing" textLength="79" x="218" y="644.432">S_OFICINAS</text><line style="stroke:#181818;stroke-width:0.5;" x1="190" x2="299" y1="655" y2="655"/><text fill="#000000" font-family="sans-serif" font-size="14" lengthAdjust="spacing" textLength="58" x="195" y="673.9659">int ID PK</text><text fill="#000000" font-family="sans-serif" font-size="14" lengthAdjust="spacing" textLength="99" x="195" y="693.0339">string Nombre</text><line style="stroke:#181818;stroke-width:0.5;" x1="190" x2="299" y1="701.1358" y2="701.1358"/></g><!--class S_RECURSOS--><g id="elem_S_RECURSOS"><rect codeLine="55" fill="#F1F1F1" height="105.2038" id="S_RECURSOS" rx="2.5" ry="2.5" style="stroke:#181818;stroke-width:0.5;" width="135" x="197" y="7"/><ellipse cx="219.65" cy="23" fill="#ADD1B2" rx="11" ry="11" style="stroke:#181818;stroke-width:1.0;"/><path d="M223.7594,29 L216.0406,29 L216.0406,16.6094 L223.7594,16.6094 L223.7594,18.7656 L218.4938,18.7656 L218.4938,21.4375 L223.2594,21.4375 L223.2594,23.5938 L218.4938,23.5938 L218.4938,26.8438 L223.7594,26.8438 L223.7594,29 Z " fill="#000000"/><text fill="#000000" font-family="sans-serif" font-size="14" lengthAdjust="spacing" textLength="86" x="235.35" y="28.432">S_RECURSOS</text><line style="stroke:#181818;stroke-width:0.5;" x1="198" x2="331" y1="39" y2="39"/><text fill="#000000" font-family="sans-serif" font-size="14" lengthAdjust="spacing" textLength="58" x="203" y="57.9659">int ID PK</text><text fill="#000000" font-family="sans-serif" font-size="14" lengthAdjust="spacing" textLength="99" x="203" y="77.0339">string Nombre</text><text fill="#000000" font-family="sans-serif" font-size="14" lengthAdjust="spacing" textLength="123" x="203" y="96.1018">string Descripcion</text><line style="stroke:#181818;stroke-width:0.5;" x1="198" x2="331" y1="104.2038" y2="104.2038"/></g><!--class T_DIAS--><g id="elem_T_DIAS"><rect codeLine="60" fill="#F1F1F1" height="86.1358" id="T_DIAS" rx="2.5" ry="2.5" style="stroke:#181818;stroke-width:0.5;" width="135" x="880" y="807"/><ellipse cx="920.65" cy="823" fill="#ADD1B2" rx="11" ry="11" style="stroke:#181818;stroke-width:1.0;"/><path d="M924.7594,829 L917.0406,829 L917.0406,816.6094 L924.7594,816.6094 L924.7594,818.7656 L919.4938,818.7656 L919.4938,821.4375 L924.2594,821.4375 L924.2594,823.5938 L919.4938,823.5938 L919.4938,826.8438 L924.7594,826.8438 L924.7594,829 Z " fill="#000000"/><text fill="#000000" font-family="sans-serif" font-size="14" lengthAdjust="spacing" textLength="46" x="940.35" y="828.432">T_DIAS</text><line style="stroke:#181818;stroke-width:0.5;" x1="881" x2="1014" y1="839" y2="839"/><text fill="#000000" font-family="sans-serif" font-size="14" lengthAdjust="spacing" textLength="123" x="886" y="857.9659">string DiaCorto PK</text><text fill="#000000" font-family="sans-serif" font-size="14" lengthAdjust="spacing" textLength="104" x="886" y="877.0339">string DiaLargo</text><line style="stroke:#181818;stroke-width:0.5;" x1="881" x2="1014" y1="885.1358" y2="885.1358"/></g><!--class T_HORAS--><g id="elem_T_HORAS"><rect codeLine="64" fill="#F1F1F1" height="86.1358" id="T_HORAS" rx="2.5" ry="2.5" style="stroke:#181818;stroke-width:0.5;" width="93" x="1050" y="807"/><ellipse cx="1065" cy="823" fill="#ADD1B2" rx="11" ry="11" style="stroke:#181818;stroke-width:1.0;"/><path d="M1069.1094,829 L1061.3906,829 L1061.3906,816.6094 L1069.1094,816.6094 L1069.1094,818.7656 L1063.8438,818.7656 L1063.8438,821.4375 L1068.6094,821.4375 L1068.6094,823.5938 L1063.8438,823.5938 L1063.8438,826.8438 L1069.1094,826.8438 L1069.1094,829 Z " fill="#000000"/><text fill="#000000" font-family="sans-serif" font-size="14" lengthAdjust="spacing" textLength="61" x="1079" y="828.432">T_HORAS</text><line style="stroke:#181818;stroke-width:0.5;" x1="1051" x2="1142" y1="839" y2="839"/><text fill="#000000" font-family="sans-serif" font-size="14" lengthAdjust="spacing" textLength="58" x="1056" y="857.9659">int ID PK</text><text fill="#000000" font-family="sans-serif" font-size="14" lengthAdjust="spacing" textLength="54" x="1056" y="877.0339">int Hora</text><line style="stroke:#181818;stroke-width:0.5;" x1="1051" x2="1142" y1="885.1358" y2="885.1358"/></g><!--class R_PROFESORCURSO--><g id="elem_R_PROFESORCURSO"><rect codeLine="68" fill="#F1F1F1" height="86.1358" id="R_PROFESORCURSO" rx="2.5" ry="2.5" style="stroke:#181818;stroke-width:0.5;" width="165" x="335" y="623"/><ellipse cx="350" cy="639" fill="#ADD1B2" rx="11" ry="11" style="stroke:#181818;stroke-width:1.0;"/><path d="M354.1094,645 L346.3906,645 L346.3906,632.6094 L354.1094,632.6094 L354.1094,634.7656 L348.8438,634.7656 L348.8438,637.4375 L353.6094,637.4375 L353.6094,639.5938 L348.8438,639.5938 L348.8438,642.8438 L354.1094,642.8438 L354.1094,645 Z " fill="#000000"/><text fill="#000000" font-family="sans-serif" font-size="14" lengthAdjust="spacing" textLength="133" x="364" y="644.432">R_PROFESORCURSO</text><line style="stroke:#181818;stroke-width:0.5;" x1="336" x2="499" y1="655" y2="655"/><text fill="#000000" font-family="sans-serif" font-size="14" lengthAdjust="spacing" textLength="113" x="341" y="673.9659">int IDProfesor FK</text><text fill="#000000" font-family="sans-serif" font-size="14" lengthAdjust="spacing" textLength="96" x="341" y="693.0339">int IDCurso FK</text><line style="stroke:#181818;stroke-width:0.5;" x1="336" x2="499" y1="701.1358" y2="701.1358"/></g><!--class M_DATOSGENERALES--><g id="elem_M_DATOSGENERALES"><rect codeLine="72" fill="#F1F1F1" height="124.2717" id="M_DATOSGENERALES" rx="2.5" ry="2.5" style="stroke:#181818;stroke-width:0.5;" width="175" x="7" y="296"/><ellipse cx="22" cy="312" fill="#ADD1B2" rx="11" ry="11" style="stroke:#181818;stroke-width:1.0;"/><path d="M26.1094,318 L18.3906,318 L18.3906,305.6094 L26.1094,305.6094 L26.1094,307.7656 L20.8438,307.7656 L20.8438,310.4375 L25.6094,310.4375 L25.6094,312.5938 L20.8438,312.5938 L20.8438,315.8438 L26.1094,315.8438 L26.1094,318 Z " fill="#000000"/><text fill="#000000" font-family="sans-serif" font-size="14" lengthAdjust="spacing" textLength="143" x="36" y="317.432">M_DATOSGENERALES</text><line style="stroke:#181818;stroke-width:0.5;" x1="8" x2="181" y1="328" y2="328"/><text fill="#000000" font-family="sans-serif" font-size="14" lengthAdjust="spacing" textLength="73" x="13" y="346.9659">int IDClase</text><text fill="#000000" font-family="sans-serif" font-size="14" lengthAdjust="spacing" textLength="110" x="13" y="366.0339">int IDCorrelativo</text><text fill="#000000" font-family="sans-serif" font-size="14" lengthAdjust="spacing" textLength="123" x="13" y="385.1018">string Descripcion</text><text fill="#000000" font-family="sans-serif" font-size="14" lengthAdjust="spacing" textLength="107" x="13" y="404.1697">string Elemento</text><line style="stroke:#181818;stroke-width:0.5;" x1="8" x2="181" y1="412.2717" y2="412.2717"/></g><!--class S_CURSOSHMODIFICADO--><g id="elem_S_CURSOSHMODIFICADO"><rect codeLine="78" fill="#F1F1F1" height="86.1358" id="S_CURSOSHMODIFICADO" rx="2.5" ry="2.5" style="stroke:#181818;stroke-width:0.5;" width="201" x="535" y="623"/><ellipse cx="550" cy="639" fill="#ADD1B2" rx="11" ry="11" style="stroke:#181818;stroke-width:1.0;"/><path d="M554.1094,645 L546.3906,645 L546.3906,632.6094 L554.1094,632.6094 L554.1094,634.7656 L548.8438,634.7656 L548.8438,637.4375 L553.6094,637.4375 L553.6094,639.5938 L548.8438,639.5938 L548.8438,642.8438 L554.1094,642.8438 L554.1094,645 Z " fill="#000000"/><text fill="#000000" font-family="sans-serif" font-size="14" lengthAdjust="spacing" textLength="169" x="564" y="644.432">S_CURSOSHMODIFICADO</text><line style="stroke:#181818;stroke-width:0.5;" x1="536" x2="735" y1="655" y2="655"/><text fill="#000000" font-family="sans-serif" font-size="14" lengthAdjust="spacing" textLength="96" x="541" y="673.9659">int IDCurso FK</text><text fill="#000000" font-family="sans-serif" font-size="14" lengthAdjust="spacing" textLength="97" x="541" y="693.0339">string NuevoH</text><line style="stroke:#181818;stroke-width:0.5;" x1="536" x2="735" y1="701.1358" y2="701.1358"/></g><!--class T_PREHORARIO--><g id="elem_T_PREHORARIO"><rect codeLine="82" fill="#F1F1F1" height="105.2038" id="T_PREHORARIO" rx="2.5" ry="2.5" style="stroke:#181818;stroke-width:0.5;" width="135" x="771" y="613.5"/><ellipse cx="786" cy="629.5" fill="#ADD1B2" rx="11" ry="11" style="stroke:#181818;stroke-width:1.0;"/><path d="M790.1094,635.5 L782.3906,635.5 L782.3906,623.1094 L790.1094,623.1094 L790.1094,625.2656 L784.8438,625.2656 L784.8438,627.9375 L789.6094,627.9375 L789.6094,630.0938 L784.8438,630.0938 L784.8438,633.3438 L790.1094,633.3438 L790.1094,635.5 Z " fill="#000000"/><text fill="#000000" font-family="sans-serif" font-size="14" lengthAdjust="spacing" textLength="103" x="800" y="634.932">T_PREHORARIO</text><line style="stroke:#181818;stroke-width:0.5;" x1="772" x2="905" y1="645.5" y2="645.5"/><text fill="#000000" font-family="sans-serif" font-size="14" lengthAdjust="spacing" textLength="87" x="777" y="664.4659">int IDAula FK</text><text fill="#000000" font-family="sans-serif" font-size="14" lengthAdjust="spacing" textLength="96" x="777" y="683.5339">int IDCurso FK</text><text fill="#000000" font-family="sans-serif" font-size="14" lengthAdjust="spacing" textLength="32" x="777" y="702.6018">int H</text><line style="stroke:#181818;stroke-width:0.5;" x1="772" x2="905" y1="710.7038" y2="710.7038"/></g><!--class T_AULALIBRE--><g id="elem_T_AULALIBRE"><rect codeLine="87" fill="#F1F1F1" height="105.2038" id="T_AULALIBRE" rx="2.5" ry="2.5" style="stroke:#181818;stroke-width:0.5;" width="202" x="1138.5" y="613.5"/><ellipse cx="1191.75" cy="629.5" fill="#ADD1B2" rx="11" ry="11" style="stroke:#181818;stroke-width:1.0;"/><path d="M1195.8594,635.5 L1188.1406,635.5 L1188.1406,623.1094 L1195.8594,623.1094 L1195.8594,625.2656 L1190.5938,625.2656 L1190.5938,627.9375 L1195.3594,627.9375 L1195.3594,630.0938 L1190.5938,630.0938 L1190.5938,633.3438 L1195.8594,633.3438 L1195.8594,635.5 Z " fill="#000000"/><text fill="#000000" font-family="sans-serif" font-size="14" lengthAdjust="spacing" textLength="87" x="1212.25" y="634.932">T_AULALIBRE</text><line style="stroke:#181818;stroke-width:0.5;" x1="1139.5" x2="1339.5" y1="645.5" y2="645.5"/><text fill="#000000" font-family="sans-serif" font-size="14" lengthAdjust="spacing" textLength="57" x="1144.5" y="664.4659">int ID FK</text><text fill="#000000" font-family="sans-serif" font-size="14" lengthAdjust="spacing" textLength="190" x="1144.5" y="683.5339">int Z "Capacidad - Vacantes"</text><text fill="#000000" font-family="sans-serif" font-size="14" lengthAdjust="spacing" textLength="181" x="1144.5" y="702.6018">int Entero "Score recursos"</text><line style="stroke:#181818;stroke-width:0.5;" x1="1139.5" x2="1339.5" y1="710.7038" y2="710.7038"/></g><!--class T_AULAOCUPADA--><g id="elem_T_AULAOCUPADA"><rect codeLine="92" fill="#F1F1F1" height="67.0679" id="T_AULAOCUPADA" rx="2.5" ry="2.5" style="stroke:#181818;stroke-width:0.5;" width="147" x="1376" y="632.5"/><ellipse cx="1391" cy="648.5" fill="#ADD1B2" rx="11" ry="11" style="stroke:#181818;stroke-width:1.0;"/><path d="M1395.1094,654.5 L1387.3906,654.5 L1387.3906,642.1094 L1395.1094,642.1094 L1395.1094,644.2656 L1389.8438,644.2656 L1389.8438,646.9375 L1394.6094,646.9375 L1394.6094,649.0938 L1389.8438,649.0938 L1389.8438,652.3438 L1395.1094,652.3438 L1395.1094,654.5 Z " fill="#000000"/><text fill="#000000" font-family="sans-serif" font-size="14" lengthAdjust="spacing" textLength="115" x="1405" y="653.932">T_AULAOCUPADA</text><line style="stroke:#181818;stroke-width:0.5;" x1="1377" x2="1522" y1="664.5" y2="664.5"/><text fill="#000000" font-family="sans-serif" font-size="14" lengthAdjust="spacing" textLength="118" x="1382" y="683.4659">int ID FK "IDAula"</text><line style="stroke:#181818;stroke-width:0.5;" x1="1377" x2="1522" y1="691.5679" y2="691.5679"/></g><!--class S_AULAOCUPADA--><g id="elem_S_AULAOCUPADA"><rect codeLine="95" fill="#F1F1F1" height="86.1358" id="S_AULAOCUPADA" rx="2.5" ry="2.5" style="stroke:#181818;stroke-width:0.5;" width="147" x="1558" y="623"/><ellipse cx="1573" cy="639" fill="#ADD1B2" rx="11" ry="11" style="stroke:#181818;stroke-width:1.0;"/><path d="M1577.1094,645 L1569.3906,645 L1569.3906,632.6094 L1577.1094,632.6094 L1577.1094,634.7656 L1571.8438,634.7656 L1571.8438,637.4375 L1576.6094,637.4375 L1576.6094,639.5938 L1571.8438,639.5938 L1571.8438,642.8438 L1577.1094,642.8438 L1577.1094,645 Z " fill="#000000"/><text fill="#000000" font-family="sans-serif" font-size="14" lengthAdjust="spacing" textLength="115" x="1587" y="644.432">S_AULAOCUPADA</text><line style="stroke:#181818;stroke-width:0.5;" x1="1559" x2="1704" y1="655" y2="655"/><text fill="#000000" font-family="sans-serif" font-size="14" lengthAdjust="spacing" textLength="118" x="1564" y="673.9659">int ID FK "IDAula"</text><text fill="#000000" font-family="sans-serif" font-size="14" lengthAdjust="spacing" textLength="112" x="1564" y="693.0339">boolean HOcupa</text><line style="stroke:#181818;stroke-width:0.5;" x1="1559" x2="1704" y1="701.1358" y2="701.1358"/></g><!--link M_CURSOS to M_HORARIO--><g id="link_M_CURSOS_M_HORARIO"><path codeLine="100" d="M801.1756,467.1525 C835.5456,503.7625 870.08,538.82 908.5,574 C919.43,584 917.4207,582.7407 929.2607,592.5007 " fill="none" id="M_CURSOS-M_HORARIO" style="stroke:#181818;stroke-width:1.0;"/><line style="stroke:#181818;stroke-width:1.0;" x1="795.5216" x2="801.354" y1="466.974" y2="461.4984"/><line style="stroke:#181818;stroke-width:1.0;" x1="797.5749" x2="803.4074" y1="469.1612" y2="463.6856"/><line style="stroke:#181818;stroke-width:1.0;" x1="801.1756" x2="795.7" y1="467.1525" y2="461.32"/><line style="stroke:#181818;stroke-width:1.0;" x1="936.977" x2="946.9664" y1="598.8614" y2="599.3202"/><line style="stroke:#181818;stroke-width:1.0;" x1="936.977" x2="939.3336" y1="598.8614" y2="608.5798"/><line style="stroke:#181818;stroke-width:1.0;" x1="936.977" x2="943.15" y1="598.8614" y2="603.95"/><ellipse cx="932.3472" cy="595.045" fill="none" rx="4" ry="4" style="stroke:#181818;stroke-width:1.0;"/><text fill="#000000" font-family="sans-serif" font-size="13" lengthAdjust="spacing" textLength="30" x="909.5" y="569.897">tiene</text></g><!--link M_AULAS to M_HORARIO--><g id="link_M_AULAS_M_HORARIO"><path codeLine="101" d="M1171.2326,455.2659 C1135.8426,505.1759 1107.7638,544.7783 1076.2638,589.1883 " fill="none" id="M_AULAS-M_HORARIO" style="stroke:#181818;stroke-width:1.0;"/><line style="stroke:#181818;stroke-width:1.0;" x1="1170.2834" x2="1176.8093" y1="449.6893" y2="454.3166"/><line style="stroke:#181818;stroke-width:1.0;" x1="1168.5481" x2="1175.074" y1="452.1365" y2="456.7639"/><line style="stroke:#181818;stroke-width:1.0;" x1="1171.2326" x2="1175.86" y1="455.2659" y2="448.74"/><line style="stroke:#181818;stroke-width:1.0;" x1="1070.4783" x2="1070.7439" y1="597.3448" y2="607.3413"/><line style="stroke:#181818;stroke-width:1.0;" x1="1070.4783" x2="1060.9561" y1="597.3448" y2="600.3987"/><line style="stroke:#181818;stroke-width:1.0;" x1="1070.4783" x2="1065.85" y1="597.3448" y2="603.87"/><ellipse cx="1073.9496" cy="592.4509" fill="none" rx="4" ry="4" style="stroke:#181818;stroke-width:1.0;"/><text fill="#000000" font-family="sans-serif" font-size="13" lengthAdjust="spacing" textLength="67" x="1100.5" y="569.897">asignada_a</text></g><!--link M_PROFESORES to R_PROFESORCURSO--><g id="link_M_PROFESORES_R_PROFESORCURSO"><path codeLine="102" d="M351.289,466.3597 C369.829,521.9997 383.7255,563.6945 397.7755,605.8245 " fill="none" id="M_PROFESORES-R_PROFESORCURSO" style="stroke:#181818;stroke-width:1.0;"/><line style="stroke:#181818;stroke-width:1.0;" x1="346.2296" x2="353.8194" y1="463.8294" y2="461.3004"/><line style="stroke:#181818;stroke-width:1.0;" x1="347.178" x2="354.7677" y1="466.6755" y2="464.1465"/><line style="stroke:#181818;stroke-width:1.0;" x1="351.289" x2="348.76" y1="466.3597" y2="458.77"/><line style="stroke:#181818;stroke-width:1.0;" x1="400.9391" x2="409.1618" y1="615.3109" y2="621.0018"/><line style="stroke:#181818;stroke-width:1.0;" x1="400.9391" x2="397.7782" y1="615.3109" y2="624.7982"/><line style="stroke:#181818;stroke-width:1.0;" x1="400.9391" x2="403.47" y1="615.3109" y2="622.9"/><ellipse cx="399.0409" cy="609.6191" fill="none" rx="4" ry="4" style="stroke:#181818;stroke-width:1.0;"/><text fill="#000000" font-family="sans-serif" font-size="13" lengthAdjust="spacing" textLength="29" x="386.5" y="569.897">dicta</text></g><!--link M_CURSOS to R_PROFESORCURSO--><g id="link_M_CURSOS_R_PROFESORCURSO"><path codeLine="103" d="M605.9677,463.3449 C553.7177,519.2549 508.7816,567.3402 469.1116,609.7802 " fill="none" id="M_CURSOS-R_PROFESORCURSO" style="stroke:#181818;stroke-width:1.0;"/><line style="stroke:#181818;stroke-width:1.0;" x1="605.7764" x2="611.6213" y1="457.6913" y2="463.1536"/><line style="stroke:#181818;stroke-width:1.0;" x1="603.728" x2="609.5729" y1="459.8832" y2="465.3455"/><line style="stroke:#181818;stroke-width:1.0;" x1="605.9677" x2="611.43" y1="463.3449" y2="457.5"/><line style="stroke:#181818;stroke-width:1.0;" x1="462.2829" x2="461.2033" y1="617.0856" y2="627.0272"/><line style="stroke:#181818;stroke-width:1.0;" x1="462.2829" x2="452.4367" y1="617.0856" y2="618.8328"/><line style="stroke:#181818;stroke-width:1.0;" x1="462.2829" x2="456.82" y1="617.0856" y2="622.93"/><ellipse cx="466.3801" cy="612.7024" fill="none" rx="4" ry="4" style="stroke:#181818;stroke-width:1.0;"/><text fill="#000000" font-family="sans-serif" font-size="13" lengthAdjust="spacing" textLength="64" x="519.5" y="569.897">es_dictado</text></g><!--link M_CURSOS to S_CURSOSHMODIFICADO--><g id="link_M_CURSOS_S_CURSOSHMODIFICADO"><path codeLine="104" d="M637.9388,532.7934 C635.4388,542.8434 635.21,545.12 633.5,555 C632.06,563.32 633.41,565.56 633.5,574 C633.68,589.96 633.5988,589.4949 633.9588,604.8749 " fill="none" id="M_CURSOS-S_CURSOSHMODIFICADO" style="stroke:#181818;stroke-width:1.0;"/><line style="stroke:#181818;stroke-width:1.0;" x1="635.0227" x2="642.7861" y1="527.9461" y2="529.8773"/><line style="stroke:#181818;stroke-width:1.0;" x1="634.2985" x2="642.0619" y1="530.8574" y2="532.7886"/><line style="stroke:#181818;stroke-width:1.0;" x1="637.9388" x2="639.87" y1="532.7934" y2="525.03"/><line style="stroke:#181818;stroke-width:1.0;" x1="634.1928" x2="640.3784" y1="614.8722" y2="622.7296"/><line style="stroke:#181818;stroke-width:1.0;" x1="634.1928" x2="628.3816" y1="614.8722" y2="623.0104"/><line style="stroke:#181818;stroke-width:1.0;" x1="634.1928" x2="634.38" y1="614.8722" y2="622.87"/><ellipse cx="634.0524" cy="608.8738" fill="none" rx="4" ry="4" style="stroke:#181818;stroke-width:1.0;"/><text fill="#000000" font-family="sans-serif" font-size="13" lengthAdjust="spacing" textLength="92" x="634.5" y="569.897">puede_cambiar</text></g><!--link S_EDIFICIOS to M_AULAS--><g id="link_S_EDIFICIOS_M_AULAS"><path codeLine="105" d="M1239.5,110.67 C1239.5,153.35 1239.5,194.68 1239.5,249.35 " fill="none" id="S_EDIFICIOS-M_AULAS" style="stroke:#181818;stroke-width:1.0;"/><line style="stroke:#181818;stroke-width:1.0;" x1="1235.5" x2="1243.5" y1="106.67" y2="106.67"/><line style="stroke:#181818;stroke-width:1.0;" x1="1235.5" x2="1243.5" y1="109.67" y2="109.67"/><line style="stroke:#181818;stroke-width:1.0;" x1="1239.5" x2="1239.5" y1="110.67" y2="102.67"/><line style="stroke:#181818;stroke-width:1.0;" x1="1239.5" x2="1245.5" y1="259.35" y2="267.35"/><line style="stroke:#181818;stroke-width:1.0;" x1="1239.5" x2="1233.5" y1="259.35" y2="267.35"/><line style="stroke:#181818;stroke-width:1.0;" x1="1239.5" x2="1239.5" y1="259.35" y2="267.35"/><ellipse cx="1239.5" cy="253.35" fill="none" rx="4" ry="4" style="stroke:#181818;stroke-width:1.0;"/><text fill="#000000" font-family="sans-serif" font-size="13" lengthAdjust="spacing" textLength="52" x="1240.5" y="156.897">contiene</text></g><!--link M_CURSOS to T_PREHORARIO--><g id="link_M_CURSOS_T_PREHORARIO"><path codeLine="106" d="M752.8773,532.7208 C759.3673,549.4908 763.65,558.56 771.5,574 C778.35,587.47 776.6355,586.443 785.5755,598.883 " fill="none" id="M_CURSOS-T_PREHORARIO" style="stroke:#181818;stroke-width:1.0;"/><line style="stroke:#181818;stroke-width:1.0;" x1="747.7033" x2="755.1641" y1="530.4341" y2="527.5467"/><line style="stroke:#181818;stroke-width:1.0;" x1="748.786" x2="756.2468" y1="533.2319" y2="530.3445"/><line style="stroke:#181818;stroke-width:1.0;" x1="752.8773" x2="749.99" y1="532.7208" y2="525.26"/><line style="stroke:#181818;stroke-width:1.0;" x1="791.4113" x2="800.9523" y1="607.0036" y2="609.9985"/><line style="stroke:#181818;stroke-width:1.0;" x1="791.4113" x2="791.2077" y1="607.0036" y2="617.0015"/><line style="stroke:#181818;stroke-width:1.0;" x1="791.4113" x2="796.08" y1="607.0036" y2="613.5"/><ellipse cx="787.9098" cy="602.1312" fill="none" rx="4" ry="4" style="stroke:#181818;stroke-width:1.0;"/><text fill="#000000" font-family="sans-serif" font-size="13" lengthAdjust="spacing" textLength="93" x="772.5" y="569.897">asignado_temp</text></g><!--link M_AULAS to T_PREHORARIO--><g id="link_M_AULAS_T_PREHORARIO"><path codeLine="107" d="M1115.8101,453.393 C1045.5401,507.013 979.3789,557.4896 920.4289,602.4796 " fill="none" id="M_AULAS-T_PREHORARIO" style="stroke:#181818;stroke-width:1.0;"/><line style="stroke:#181818;stroke-width:1.0;" x1="1116.5635" x2="1121.4165" y1="447.7865" y2="454.1465"/><line style="stroke:#181818;stroke-width:1.0;" x1="1114.1786" x2="1119.0316" y1="449.6064" y2="455.9663"/><line style="stroke:#181818;stroke-width:1.0;" x1="1115.8101" x2="1122.17" y1="453.393" y2="448.54"/><line style="stroke:#181818;stroke-width:1.0;" x1="912.4795" x2="909.7601" y1="608.5465" y2="618.1696"/><line style="stroke:#181818;stroke-width:1.0;" x1="912.4795" x2="902.4799" y1="608.5465" y2="608.6304"/><line style="stroke:#181818;stroke-width:1.0;" x1="912.4795" x2="906.12" y1="608.5465" y2="613.4"/><ellipse cx="917.2491" cy="604.9064" fill="none" rx="4" ry="4" style="stroke:#181818;stroke-width:1.0;"/><text fill="#000000" font-family="sans-serif" font-size="13" lengthAdjust="spacing" textLength="97" x="981.5" y="569.897">reservada_temp</text></g><!--link M_AULAS to T_AULALIBRE--><g id="link_M_AULAS_T_AULALIBRE"><path codeLine="108" d="M1239.5,456.74 C1239.5,510.35 1239.5,550.54 1239.5,595.47 " fill="none" id="M_AULAS-T_AULALIBRE" style="stroke:#181818;stroke-width:1.0;"/><line style="stroke:#181818;stroke-width:1.0;" x1="1235.5" x2="1243.5" y1="452.74" y2="452.74"/><line style="stroke:#181818;stroke-width:1.0;" x1="1235.5" x2="1243.5" y1="455.74" y2="455.74"/><line style="stroke:#181818;stroke-width:1.0;" x1="1239.5" x2="1239.5" y1="456.74" y2="448.74"/><line style="stroke:#181818;stroke-width:1.0;" x1="1239.5" x2="1245.5" y1="605.47" y2="613.47"/><line style="stroke:#181818;stroke-width:1.0;" x1="1239.5" x2="1233.5" y1="605.47" y2="613.47"/><line style="stroke:#181818;stroke-width:1.0;" x1="1239.5" x2="1239.5" y1="605.47" y2="613.47"/><ellipse cx="1239.5" cy="599.47" fill="none" rx="4" ry="4" style="stroke:#181818;stroke-width:1.0;"/><text fill="#000000" font-family="sans-serif" font-size="13" lengthAdjust="spacing" textLength="62" x="1240.5" y="569.897">disponible</text></g><!--link M_AULAS to T_AULAOCUPADA--><g id="link_M_AULAS_T_AULAOCUPADA"><path codeLine="109" d="M1305.6165,455.3363 C1347.9765,517.0663 1387.066,574.018 1416.866,617.448 " fill="none" id="M_AULAS-T_AULAOCUPADA" style="stroke:#181818;stroke-width:1.0;"/><line style="stroke:#181818;stroke-width:1.0;" x1="1300.0551" x2="1306.6514" y1="454.3014" y2="449.7749"/><line style="stroke:#181818;stroke-width:1.0;" x1="1301.7525" x2="1308.3488" y1="456.775" y2="452.2485"/><line style="stroke:#181818;stroke-width:1.0;" x1="1305.6165" x2="1301.09" y1="455.3363" y2="448.74"/><line style="stroke:#181818;stroke-width:1.0;" x1="1422.5238" x2="1431.9973" y1="625.6935" y2="628.8953"/><line style="stroke:#181818;stroke-width:1.0;" x1="1422.5238" x2="1422.1027" y1="625.6935" y2="635.6847"/><line style="stroke:#181818;stroke-width:1.0;" x1="1422.5238" x2="1427.05" y1="625.6935" y2="632.29"/><ellipse cx="1419.1291" cy="620.7462" fill="none" rx="4" ry="4" style="stroke:#181818;stroke-width:1.0;"/><text fill="#000000" font-family="sans-serif" font-size="13" lengthAdjust="spacing" textLength="90" x="1382.5" y="569.897">ocupada_temp</text></g><!--link M_AULAS to S_AULAOCUPADA--><g id="link_M_AULAS_S_AULAOCUPADA"><path codeLine="110" d="M1360.5061,453.4627 C1434.1661,510.9627 1505.9518,566.9932 1563.2718,611.7432 " fill="none" id="M_AULAS-S_AULAOCUPADA" style="stroke:#181818;stroke-width:1.0;"/><line style="stroke:#181818;stroke-width:1.0;" x1="1354.8917" x2="1359.8144" y1="454.1544" y2="447.8483"/><line style="stroke:#181818;stroke-width:1.0;" x1="1357.2565" x2="1362.1792" y1="456.0004" y2="449.6943"/><line style="stroke:#181818;stroke-width:1.0;" x1="1360.5061" x2="1354.2" y1="453.4627" y2="448.54"/><line style="stroke:#181818;stroke-width:1.0;" x1="1571.1541" x2="1581.1523" y1="617.897" y2="618.0906"/><line style="stroke:#181818;stroke-width:1.0;" x1="1571.1541" x2="1573.7677" y1="617.897" y2="627.5494"/><line style="stroke:#181818;stroke-width:1.0;" x1="1571.1541" x2="1577.46" y1="617.897" y2="622.82"/><ellipse cx="1566.4247" cy="614.2047" fill="none" rx="4" ry="4" style="stroke:#181818;stroke-width:1.0;"/><text fill="#000000" font-family="sans-serif" font-size="13" lengthAdjust="spacing" textLength="90" x="1505.5" y="569.897">ocupada_perm</text></g><!--link M_HORARIO to T_HORAS--><g id="link_M_HORARIO_T_HORAS"><path codeLine="111" d="M1054.1303,744.7842 C1064.6703,770.7042 1066.8852,776.1798 1076.4052,799.5798 " fill="none" id="M_HORARIO-T_HORAS" style="stroke:#181818;stroke-width:1.0;"/><line style="stroke:#181818;stroke-width:1.0;" x1="1050.3635" x2="1041.7919" y1="735.5207" y2="730.3701"/><line style="stroke:#181818;stroke-width:1.0;" x1="1050.3635" x2="1052.9081" y1="735.5207" y2="725.8499"/><line style="stroke:#181818;stroke-width:1.0;" x1="1050.3635" x2="1047.35" y1="735.5207" y2="728.11"/><ellipse cx="1052.6236" cy="741.0788" fill="none" rx="4" ry="4" style="stroke:#181818;stroke-width:1.0;"/><line style="stroke:#181818;stroke-width:1.0;" x1="1081.6177" x2="1074.2075" y1="801.7775" y2="804.7923"/><line style="stroke:#181818;stroke-width:1.0;" x1="1080.4872" x2="1073.077" y1="798.9987" y2="802.0134"/><line style="stroke:#181818;stroke-width:1.0;" x1="1076.4052" x2="1079.42" y1="799.5798" y2="806.99"/><text fill="#000000" font-family="sans-serif" font-size="13" lengthAdjust="spacing" textLength="21" x="1067.5" y="772.897">usa</text></g><!--link M_HORARIO to T_DIAS--><g id="link_M_HORARIO_T_DIAS"><path codeLine="112" d="M990.4626,744.7526 C979.7826,770.6726 977.4973,776.1931 967.8573,799.5931 " fill="none" id="M_HORARIO-T_DIAS" style="stroke:#181818;stroke-width:1.0;"/><line style="stroke:#181818;stroke-width:1.0;" x1="994.2723" x2="991.7725" y1="735.5067" y2="725.8242"/><line style="stroke:#181818;stroke-width:1.0;" x1="994.2723" x2="1002.8675" y1="735.5067" y2="730.3958"/><line style="stroke:#181818;stroke-width:1.0;" x1="994.2723" x2="997.32" y1="735.5067" y2="728.11"/><ellipse cx="991.9865" cy="741.0543" fill="none" rx="4" ry="4" style="stroke:#181818;stroke-width:1.0;"/><line style="stroke:#181818;stroke-width:1.0;" x1="970.0321" x2="962.6352" y1="804.8152" y2="801.7679"/><line style="stroke:#181818;stroke-width:1.0;" x1="971.1748" x2="963.7779" y1="802.0413" y2="798.9941"/><line style="stroke:#181818;stroke-width:1.0;" x1="967.8573" x2="964.81" y1="799.5931" y2="806.99"/><text fill="#000000" font-family="sans-serif" font-size="13" lengthAdjust="spacing" textLength="21" x="986.5" y="772.897">usa</text></g><!--link M_PROFESORES to S_OFICINAS--><g id="link_M_PROFESORES_S_OFICINAS"><path codeLine="113" d="M288.2816,476.3042 C275.3716,531.9442 265.8473,572.9768 256.0773,615.1068 " fill="none" id="M_PROFESORES-S_OFICINAS" style="stroke:#181818;stroke-width:1.0;"/><line style="stroke:#181818;stroke-width:1.0;" x1="290.5418" x2="286.5053" y1="466.563" y2="457.4139"/><line style="stroke:#181818;stroke-width:1.0;" x1="290.5418" x2="298.1947" y1="466.563" y2="460.1261"/><line style="stroke:#181818;stroke-width:1.0;" x1="290.5418" x2="292.35" y1="466.563" y2="458.77"/><ellipse cx="289.1857" cy="472.4077" fill="none" rx="4" ry="4" style="stroke:#181818;stroke-width:1.0;"/><line style="stroke:#181818;stroke-width:1.0;" x1="259.0702" x2="251.277" y1="619.907" y2="618.0998"/><line style="stroke:#181818;stroke-width:1.0;" x1="259.7479" x2="251.9547" y1="616.9846" y2="615.1773"/><line style="stroke:#181818;stroke-width:1.0;" x1="256.0773" x2="254.27" y1="615.1068" y2="622.9"/><text fill="#000000" font-family="sans-serif" font-size="13" lengthAdjust="spacing" textLength="69" x="270.5" y="569.897">ubicado_en</text></g><!--SRC=[dLN1RgCm4BtdAooVoI7RLhlgZOAxOPiK16sqsWjop3IoH31hcqYhfl- -XWOmb6pRvORznlFc-SqO2itr7xHEtSULcw3d6J8VBpGAV1JTDNzAIrxiqBtORoLq-nujAUCPpRgLI8gIWra1XV0LsdAjhX5XakuTbqcUSqOTq0mt0LiXSg058ge4nca-MBp9nUyAQ4OjDYJZJvnnWMxlPYypQ6bxZt4IVfJtQINXkvpQ2uRvpj3iqtaICgw5ia5BX1VpRmvnDhZ3RIYZXGRL1tAMYq4jKO1mK6HLVGhDXyL72S89LnhsL8rsF8GzVk3Z088moO6PinWTRgteLaYgXUIZ_58yWH9omnNNDTd1hiiqFmXRq2WERqaInkIJeeRrxHIzXF42uSYGaRL7a0HMIINGejSk_Z85-681BgO05nRWSWfmQG6kfW1NsAvt6SPk78IdOa_5-9mYl7BMpa_dXxDnalx8fH4PuQ_pXKKqyDqgfxKn-nMlIMLxDKc97zm6Nl0XkrfXDSD_XlYWJ7-LfZaAEowiazsxdymMa_zfgKaA3waVTEbxPJqXjHYNmEcAofsmWy_NtLv4ZuuxtpRi1r5j1xntGUlKTn_2v3kv9x6x6ldVowa2-rz82JbjkkUC3jQowTczoI9ieLzbNgx3nXMkFoJTqRDbh-0WbhP4KKo6_dtNZfryzZ7rx5y5Dp4Pgct1Vvbnr0vyDE_cNjy3nFnAOSOP4nBQLbDud2Nq7YFNTyTvp8XiI6DRe0_XxM6s35bLrgQOTU_2yJYVYsUhpQyHrXmAmBFsoPk2KCLtXNb_KbhZh95u0e_jPa8opdI37cQUG89A6t0ctiAdR652oWeoI1dTRpcLU6QFaex-QpK6p4JHbJWyVM2OlaoHcXUeVAF862r1WJpKgfo1zpPgz52bAFWsXpF8zceDLjJtTkxSv1ow1BclqIt55p6V7u_Tu338Ij59G3EM-dthVayGQtZMiArvROrAKE2_]--></g></svg>