<?xml version="1.0" encoding="us-ascii" standalone="no"?><svg xmlns="http://www.w3.org/2000/svg" xmlns:xlink="http://www.w3.org/1999/xlink" contentStyleType="text/css" height="547px" preserveAspectRatio="none" style="width:850px;height:547px;background:#FFFFFF;" version="1.1" viewBox="0 0 850 547" width="850px" zoomAndPan="magnify"><defs/><g><!--cluster eliminarRecurso--><g id="cluster_eliminarRecurso"><path d="M8.5,111 L131.5,111 A3.75,3.75 0 0 1 134,113.5 L141,136.0679 L613.5,136.0679 A2.5,2.5 0 0 1 616,138.5679 L616,537.5 A2.5,2.5 0 0 1 613.5,540 L8.5,540 A2.5,2.5 0 0 1 6,537.5 L6,113.5 A2.5,2.5 0 0 1 8.5,111 " fill="none" style="stroke:#000000;stroke-width:1.5;"/><line style="stroke:#000000;stroke-width:1.5;" x1="6" x2="141" y1="136.0679" y2="136.0679"/><text fill="#000000" font-family="sans-serif" font-size="14" font-weight="bold" lengthAdjust="spacing" textLength="122" x="10" y="127.9659">eliminarRecurso()</text></g><!--entity EliminarRecursoView--><g id="elem_EliminarRecursoView"><rect fill="#629EF9" height="39.0679" rx="2.5" ry="2.5" style="stroke:#181818;stroke-width:0.5;" width="161" x="321.5" y="149"/><text fill="#000000" font-family="sans-serif" font-size="14" lengthAdjust="spacing" textLength="141" x="331.5" y="173.9659">EliminarRecursoView</text></g><!--entity RecursoController--><g id="elem_RecursoController"><rect fill="#B5BD68" height="39.0679" rx="2.5" ry="2.5" style="stroke:#181818;stroke-width:0.5;" width="141" x="126.5" y="267"/><text fill="#000000" font-family="sans-serif" font-size="14" lengthAdjust="spacing" textLength="121" x="136.5" y="291.9659">RecursoController</text></g><!--entity RecursoRepository--><g id="elem_RecursoRepository"><rect fill="#F2AC4E" height="39.0679" rx="2.5" ry="2.5" style="stroke:#181818;stroke-width:0.5;" width="145" x="135.5" y="385"/><text fill="#000000" font-family="sans-serif" font-size="14" lengthAdjust="spacing" textLength="125" x="145.5" y="409.9659">RecursoRepository</text></g><!--entity Recurso--><g id="elem_Recurso"><rect fill="#F2AC4E" height="39.0679" rx="2.5" ry="2.5" style="stroke:#181818;stroke-width:0.5;" width="74" x="171" y="485"/><text fill="#000000" font-family="sans-serif" font-size="14" lengthAdjust="spacing" textLength="54" x="181" y="509.9659">Recurso</text></g><!--entity RecursosAbierto--><g id="elem_RecursosAbierto"><rect fill="#CDEBA5" height="39.0679" rx="2.5" ry="2.5" style="stroke:#181818;stroke-width:0.5;" width="138" x="232" y="7"/><text fill="#000000" font-family="sans-serif" font-size="14" lengthAdjust="spacing" textLength="118" x="242" y="31.9659">:Recursos Abierto</text></g><!--entity RecursoAbierto--><g id="elem_RecursoAbierto"><rect fill="#CDEBA5" height="39.0679" rx="2.5" ry="2.5" style="stroke:#181818;stroke-width:0.5;" width="131" x="438.5" y="7"/><text fill="#000000" font-family="sans-serif" font-size="14" lengthAdjust="spacing" textLength="111" x="448.5" y="31.9659">:Recurso Abierto</text></g><!--entity AbrirRecursos--><g id="elem_AbrirRecursos"><rect fill="#CDEBA5" height="39.0679" rx="2.5" ry="2.5" style="stroke:#181818;stroke-width:0.5;" width="213" x="631.5" y="267"/><text fill="#000000" font-family="sans-serif" font-size="14" lengthAdjust="spacing" textLength="193" x="641.5" y="291.9659">:Collaboration AbrirRecursos</text></g><!--link RecursosAbierto to EliminarRecursoView--><g id="link_RecursosAbierto_EliminarRecursoView"><path d="M299.85,46.11 C299,59.79 298,76 298,76 C298,76 298,95 298,95 C298,95 339.4776,123.9193 370.2976,145.3993 " fill="none" id="RecursosAbierto-to-EliminarRecursoView" style="stroke:#181818;stroke-width:1.0;"/><polygon fill="#181818" points="375.22,148.83,370.1235,140.4023,371.118,145.9711,365.5492,146.9656,375.22,148.83" style="stroke:#181818;stroke-width:1.0;"/><text fill="#000000" font-family="sans-serif" font-size="13" lengthAdjust="spacing" textLength="161" x="299" y="90.897">eliminarRecurso(recursoId)</text></g><!--link RecursoAbierto to EliminarRecursoView--><g id="link_RecursoAbierto_EliminarRecursoView"><path d="M493.14,46.3 C481.6,66.28 465,95 465,95 C465,95 440.8261,122.8215 422.1561,144.3015 " fill="none" id="RecursoAbierto-to-EliminarRecursoView" style="stroke:#181818;stroke-width:1.0;"/><polygon fill="#181818" points="418.22,148.83,427.1431,144.6613,421.5001,145.0563,421.1051,139.4132,418.22,148.83" style="stroke:#181818;stroke-width:1.0;"/><text fill="#000000" font-family="sans-serif" font-size="13" lengthAdjust="spacing" textLength="161" x="476" y="90.897">eliminarRecurso(recursoId)</text></g><!--link EliminarRecursoView to RecursoController--><g id="link_EliminarRecursoView_RecursoController"><path d="M321.29,180.75 C218.48,195.08 54,218 54,218 C54,218 54,237 54,237 C54,237 96.108,251.2827 136.438,264.9627 " fill="none" id="EliminarRecursoView-to-RecursoController" style="stroke:#181818;stroke-width:1.0;"/><polygon fill="#181818" points="142.12,266.89,134.8819,260.211,137.385,265.2839,132.3121,267.787,142.12,266.89" style="stroke:#181818;stroke-width:1.0;"/><text fill="#000000" font-family="sans-serif" font-size="13" lengthAdjust="spacing" textLength="303" x="55" y="232.897">cargarRecursoParaEliminaci&#243;n(recursoId) : Recurso</text></g><!--link EliminarRecursoView to RecursoController--><g id="link_EliminarRecursoView_RecursoController"><path d="M391.14,188.3 C379.6,208.28 363,237 363,237 C363,237 313.2791,251.5269 266.4691,265.2069 " fill="none" id="EliminarRecursoView-to-RecursoController-1" style="stroke:#181818;stroke-width:1.0;"/><polygon fill="#181818" points="260.71,266.89,270.4707,268.2048,265.5093,265.4874,268.2266,260.526,260.71,266.89" style="stroke:#181818;stroke-width:1.0;"/><text fill="#000000" font-family="sans-serif" font-size="13" lengthAdjust="spacing" textLength="196" x="374" y="232.897">eliminarRecurso(recursoId) : void</text></g><!--link RecursoController to RecursoRepository--><g id="link_RecursoController_RecursoRepository"><path d="M149.41,306.11 C114.44,319.79 73,336 73,336 C73,336 73,355 73,355 C73,355 112.4735,369.181 150.5435,382.861 " fill="none" id="RecursoController-to-RecursoRepository" style="stroke:#181818;stroke-width:1.0;"/><polygon fill="#181818" points="156.19,384.89,149.0729,378.0821,151.4846,383.1992,146.3676,385.6108,156.19,384.89" style="stroke:#181818;stroke-width:1.0;"/><text fill="#000000" font-family="sans-serif" font-size="13" lengthAdjust="spacing" textLength="203" x="74" y="350.897">obtenerPorId(recursoId) : Recurso</text></g><!--link RecursoController to RecursoRepository--><g id="link_RecursoController_RecursoRepository"><path d="M229.62,306.11 C253.59,319.79 282,336 282,336 C282,336 282,355 282,355 C282,355 262.288,367.9207 241.418,381.6007 " fill="none" id="RecursoController-to-RecursoRepository-1" style="stroke:#181818;stroke-width:1.0;"/><polygon fill="#181818" points="236.4,384.89,246.1199,383.3015,240.5817,382.149,241.7342,376.6107,236.4,384.89" style="stroke:#181818;stroke-width:1.0;"/><text fill="#000000" font-family="sans-serif" font-size="13" lengthAdjust="spacing" textLength="148" x="283" y="350.897">eliminar(recursoId) : void</text></g><!--link RecursoRepository to Recurso--><g id="link_RecursoRepository_Recurso"><path d="M208,424.4 C208,441.86 208,467.66 208,484.99 " fill="none" id="RecursoRepository-Recurso" style="stroke:#181818;stroke-width:1.0;"/></g><!--link EliminarRecursoView to AbrirRecursos--><g id="link_EliminarRecursoView_AbrirRecursos"><path d="M469.67,188.04 C519.64,201.74 579,218 579,218 C579,218 641.5471,244.5552 688.6071,264.5352 " fill="none" id="EliminarRecursoView-to-AbrirRecursos" style="stroke:#181818;stroke-width:1.0;stroke-dasharray:7.0,7.0;"/><polygon fill="#181818" points="694.13,266.88,687.4089,259.6809,689.5276,264.926,684.2825,267.0447,694.13,266.88" style="stroke:#181818;stroke-width:1.0;"/><text fill="#000000" font-family="sans-serif" font-size="13" lengthAdjust="spacing" textLength="150" x="622" y="232.897">&#171;include&#187; abrirRecursos()</text></g><!--SRC=[dL91Ri8m4Bpx5Qlq0eTmG0KL2qMYQP2u8GwzEyagiZ1sj36jKDLNzGdzM0qbG18JgVN5ykxCxCpArLRgKf3OWP8QxQ54A8qw71-C4MPMw48XFCGloVDY0W7VOBQdobImI2MIDG682khYkTP7zF7wQB5HIgI6X9L6Ep99ggUT91eLnagHRKM1W4hkf1PrvuWCMhN1C80F1kxSp9sEPybo1aaJ-YhnlOrC9sa-VQeZn4PRSbQHshZbU14_9ZLkWwMff3LqwCUnJyPQMuKmZ7p6U3liW7xlLJvapGt_Iu9v213cJgcJdKCcgBWWr-vZdScP_FxIDwh0BqbPH-PaixCm3YQrg97MXbPvlzQLvRIkNMyIVv3x2t7ZtepC_-2xrlA9-2oDHb7pNtEOpwNEr3x7A09nsneCsGy0]--></g></svg>