<?xml version="1.0" encoding="us-ascii" standalone="no"?><svg xmlns="http://www.w3.org/2000/svg" xmlns:xlink="http://www.w3.org/1999/xlink" contentStyleType="text/css" height="642px" preserveAspectRatio="none" style="width:474px;height:642px;background:#FFFFFF;" version="1.1" viewBox="0 0 474 642" width="474px" zoomAndPan="magnify"><defs/><g><path d="M64,7 L387,7 A12.5,12.5 0 0 1 399.5,19.5 L399.5,36.0679 L51.5,36.0679 L51.5,19.5 A12.5,12.5 0 0 1 64,7 " fill="#F1F1F1" style="stroke:#F1F1F1;stroke-width:1.0;"/><rect fill="none" height="482.0679" rx="12.5" ry="12.5" style="stroke:#181818;stroke-width:0.5;" width="348" x="51.5" y="7"/><line style="stroke:#181818;stroke-width:0.5;" x1="51.5" x2="399.5" y1="36.0679" y2="36.0679"/><text fill="#000000" font-family="sans-serif" font-size="14" lengthAdjust="spacing" textLength="109" x="171" y="26.9659">crearPrograma()</text><g id="crearPrograma.SolicitandoDatos"><rect fill="#F1F1F1" height="50" rx="12.5" ry="12.5" style="stroke:#181818;stroke-width:0.5;" width="50" x="63.5" y="140.0679"/><line style="stroke:#181818;stroke-width:0.5;" x1="63.5" x2="113.5" y1="169.1358" y2="169.1358"/><text fill="#000000" font-family="sans-serif" font-size="14" lengthAdjust="spacing" textLength="4" x="86.5" y="160.0339">&#160;</text></g><g id="crearPrograma.CreandoPrograma"><rect fill="#F1F1F1" height="50" rx="12.5" ry="12.5" style="stroke:#181818;stroke-width:0.5;" width="50" x="63.5" y="316.0679"/><line style="stroke:#181818;stroke-width:0.5;" x1="63.5" x2="113.5" y1="345.1358" y2="345.1358"/><text fill="#000000" font-family="sans-serif" font-size="14" lengthAdjust="spacing" textLength="4" x="86.5" y="336.0339">&#160;</text></g><ellipse cx="88.5" cy="57.0679" fill="#222222" rx="10" ry="10" style="stroke:#222222;stroke-width:1.0;"/><ellipse cx="88.5" cy="468.0679" fill="none" rx="11" ry="11" style="stroke:#222222;stroke-width:1.0;"/><ellipse cx="88.5" cy="468.0679" fill="#222222" rx="6" ry="6" style="stroke:#222222;stroke-width:1.0;"/><!--link *start*crearPrograma to SolicitandoDatos--><g id="link_*start*crearPrograma_SolicitandoDatos"><path d="M88.5,67.1079 C88.5,83.0279 88.5,110.5779 88.5,133.7079 " fill="none" id="*start*crearPrograma-to-SolicitandoDatos" style="stroke:#008000;stroke-width:1.0;"/><polygon fill="#008000" points="88.5,139.7079,92.5,130.7079,88.5,134.7079,84.5,130.7079,88.5,139.7079" style="stroke:#008000;stroke-width:1.0;"/><path d="M93.5,90.0679 L93.5,117.0679 L390.5,117.0679 L390.5,100.0679 L380.5,90.0679 L93.5,90.0679 " fill="#FEFFDD" style="stroke:#181818;stroke-width:0.5;"/><path d="M380.5,90.0679 L380.5,100.0679 L390.5,100.0679 L380.5,90.0679 " fill="#FEFFDD" style="stroke:#181818;stroke-width:0.5;"/><text fill="#000000" font-family="sans-serif" font-size="13" font-weight="bold" lengthAdjust="spacing" textLength="95" x="99.5" y="108.9649">Administrador</text><text fill="#000000" font-family="sans-serif" font-size="13" lengthAdjust="spacing" textLength="178" x="197.5" y="108.9649">solicita crear programa nuevo</text></g><!--link SolicitandoDatos to CreandoPrograma--><g id="link_SolicitandoDatos_CreandoPrograma"><path d="M88.5,190.2579 C88.5,223.4079 88.5,276.6079 88.5,309.7979 " fill="none" id="SolicitandoDatos-to-CreandoPrograma" style="stroke:#008000;stroke-width:1.0;"/><polygon fill="#008000" points="88.5,315.7979,92.5,306.7979,88.5,310.7979,84.5,306.7979,88.5,315.7979" style="stroke:#008000;stroke-width:1.0;"/><path d="M93.5,213.0679 L93.5,293.0679 L386.5,293.0679 L386.5,223.0679 L376.5,213.0679 L93.5,213.0679 " fill="#FEFFDD" style="stroke:#181818;stroke-width:0.5;"/><path d="M376.5,213.0679 L376.5,223.0679 L386.5,223.0679 L376.5,213.0679 " fill="#FEFFDD" style="stroke:#181818;stroke-width:0.5;"/><text fill="#000000" font-family="sans-serif" font-size="13" font-weight="bold" lengthAdjust="spacing" textLength="52" x="99.5" y="231.9649">Sistema</text><text fill="#000000" font-family="sans-serif" font-size="13" lengthAdjust="spacing" textLength="217" x="154.5" y="231.9649">solicita datos m&#237;nimos del programa</text><text fill="#000000" font-family="sans-serif" font-size="13" lengthAdjust="spacing" textLength="219" x="99.5" y="249.6709">&#8226; Nombre del programa (obligatorio)</text><text fill="#000000" font-family="sans-serif" font-size="13" lengthAdjust="spacing" textLength="200" x="99.5" y="267.377">&#8226; Permite solicitar crear programa</text><text fill="#000000" font-family="sans-serif" font-size="13" lengthAdjust="spacing" textLength="209" x="99.5" y="285.083">&#8226; Permite solicitar cancelar creaci&#243;n</text></g><!--link CreandoPrograma to *end*crearPrograma--><g id="link_CreandoPrograma_*end*crearPrograma"><path d="M88.5,366.1679 C88.5,393.6979 88.5,431.4479 88.5,451.0279 " fill="none" id="CreandoPrograma-to-*end*crearPrograma" style="stroke:#008000;stroke-width:1.0;"/><polygon fill="#008000" points="88.5,457.0279,92.5,448.0279,88.5,452.0279,84.5,448.0279,88.5,457.0279" style="stroke:#008000;stroke-width:1.0;"/><path d="M93.5,389.0679 L93.5,434.0679 L383.5,434.0679 L383.5,399.0679 L373.5,389.0679 L93.5,389.0679 " fill="#FEFFDD" style="stroke:#181818;stroke-width:0.5;"/><path d="M373.5,389.0679 L373.5,399.0679 L383.5,399.0679 L373.5,389.0679 " fill="#FEFFDD" style="stroke:#181818;stroke-width:0.5;"/><text fill="#000000" font-family="sans-serif" font-size="13" font-weight="bold" lengthAdjust="spacing" textLength="95" x="99.5" y="407.9649">Administrador</text><text fill="#000000" font-family="sans-serif" font-size="13" lengthAdjust="spacing" textLength="166" x="197.5" y="407.9649">proporciona datos m&#237;nimos</text><text fill="#000000" font-family="sans-serif" font-size="13" font-weight="bold" lengthAdjust="spacing" textLength="52" x="99.5" y="425.6709">Sistema</text><text fill="#000000" font-family="sans-serif" font-size="13" lengthAdjust="spacing" textLength="214" x="154.5" y="425.6709">crea programa y transfiere a edici&#243;n</text></g><g id="PROGRAMA_ABIERTO"><rect fill="#F1F1F1" height="50" rx="12.5" ry="12.5" style="stroke:#181818;stroke-width:0.5;" width="163" x="7" y="586"/><line style="stroke:#181818;stroke-width:0.5;" x1="7" x2="170" y1="615.0679" y2="615.0679"/><text fill="#000000" font-family="sans-serif" font-size="14" lengthAdjust="spacing" textLength="143" x="17" y="605.9659">PROGRAMA_ABIERTO</text></g><g id="PROGRAMAS_ABIERTO"><rect fill="#F1F1F1" height="50" rx="12.5" ry="12.5" style="stroke:#181818;stroke-width:0.5;" width="171" x="277" y="586"/><line style="stroke:#181818;stroke-width:0.5;" x1="277" x2="448" y1="615.0679" y2="615.0679"/><text fill="#000000" font-family="sans-serif" font-size="14" lengthAdjust="spacing" textLength="151" x="287" y="605.9659">PROGRAMAS_ABIERTO</text></g><!--link crearPrograma to PROGRAMA_ABIERTO--><g id="link_crearPrograma_PROGRAMA_ABIERTO"><path d="M101.02,489.07 C91.5,507.43 85.5,519 85.5,519 C85.5,519 85.5,556 85.5,556 C85.5,556 86.0265,565.4793 86.8265,579.8493 " fill="none" id="crearPrograma-to-PROGRAMA_ABIERTO" style="stroke:#008000;stroke-width:1.0;"/><polygon fill="#008000" points="87.16,585.84,90.6535,576.6316,86.8821,580.8477,82.6659,577.0763,87.16,585.84" style="stroke:#008000;stroke-width:1.0;"/><path d="M90.5,524 L90.5,551 L314.5,551 L314.5,534 L304.5,524 L90.5,524 " fill="#FEFFDD" style="stroke:#181818;stroke-width:0.5;"/><path d="M304.5,524 L304.5,534 L314.5,534 L304.5,524 " fill="#FEFFDD" style="stroke:#181818;stroke-width:0.5;"/><text fill="#000000" font-family="sans-serif" font-size="13" lengthAdjust="spacing" textLength="203" x="96.5" y="542.897">editarPrograma(programaNuevo)</text></g><!--link crearPrograma to PROGRAMAS_ABIERTO--><g id="link_crearPrograma_PROGRAMAS_ABIERTO"><path d="M316.6,489.04 C331.59,528.56 342.8313,558.1803 351.2213,580.2903 " fill="none" id="crearPrograma-to-PROGRAMAS_ABIERTO" style="stroke:#0000FF;stroke-width:1.0;"/><polygon fill="#0000FF" points="353.35,585.9,353.8968,576.0663,351.5761,581.2253,346.4172,578.9046,353.35,585.9" style="stroke:#0000FF;stroke-width:1.0;"/><path d="M344.5,524 L344.5,551 L467.5,551 L467.5,534 L457.5,524 L344.5,524 " fill="#FEFFDD" style="stroke:#181818;stroke-width:0.5;"/><path d="M457.5,524 L457.5,534 L467.5,534 L457.5,524 " fill="#FEFFDD" style="stroke:#181818;stroke-width:0.5;"/><text fill="#000000" font-family="sans-serif" font-size="13" lengthAdjust="spacing" textLength="102" x="350.5" y="542.897">cancelar creaci&#243;n</text></g><!--SRC=[bP9BQiCm48RtEiMGRf92w0L2m7rGkcWIakv2AB8r3I9w6CafX5BeMRhlgaV8JNgIZktQiMotK1cCBSryyy-lyJjfKkwu1YKDPeSK8RNgaFymvZEU8IGEkLiukwKe3jp38DWPZWRmmXZGAkC7z53KoYgPo8mROQzvPdqtueemT5g1IiRwV0FZzTdM8PhDUDh1G15bB66ioKNlYer9F8s4baRwp75XtUGYdeB_oIrRWBJgmUpnsHPfQ4J9eiNgLwTcKr1RzMzoLYG5DG-5Y0AdZnz6QleGg6fLHTxNsplCh8uT1cSmjB6IMqfsqexgo0KwBQboXNUjHlyAv2P1zPEHoEEd2VmuUT5gDx22xkeVjq6gKkiIQKtRXpxBSbsd_Wz08EEV998p75387islZ8MpsjIwMCvlbz5zz1XTtjqi7-Oi44t0h37ILTrPFYWZLbVeycErnoP-rS_liRk6VWC0]--></g></svg>