<?xml version="1.0" encoding="us-ascii" standalone="no"?><svg xmlns="http://www.w3.org/2000/svg" xmlns:xlink="http://www.w3.org/1999/xlink" contentStyleType="text/css" height="679px" preserveAspectRatio="none" style="width:897px;height:679px;background:#FFFFFF;" version="1.1" viewBox="0 0 897 679" width="897px" zoomAndPan="magnify"><defs/><g><g id="PresentarSolicitud"><rect fill="#ADD8E6" height="134.4088" rx="12.5" ry="12.5" style="stroke:#0000FF;stroke-width:1.0;" width="340" x="391.91" y="438"/><line style="stroke:#0000FF;stroke-width:1.0;" x1="391.91" x2="731.91" y1="464.3441" y2="464.3441"/><text fill="#000000" font-family="Arial" font-size="12" lengthAdjust="spacing" textLength="320" x="401.91" y="455.8281">Sistema presenta solicitud de datos m&#237;nimos del profesor</text><text fill="#000000" font-family="Arial" font-size="12" lengthAdjust="spacing" textLength="202" x="396.91" y="482.1722">&#8226; Nombres del profesor (obligatorio)</text><text fill="#000000" font-family="Arial" font-size="12" lengthAdjust="spacing" textLength="201" x="396.91" y="498.5163">&#8226; Apellidos del profesor (obligatorio)</text><text fill="#000000" font-family="Arial" font-size="12" lengthAdjust="spacing" textLength="8" x="396.91" y="514.8604">--</text><text fill="#000000" font-family="Arial" font-size="12" lengthAdjust="spacing" textLength="142" x="396.91" y="531.2045">Sistema permite solicitar:</text><text fill="#000000" font-family="Arial" font-size="12" lengthAdjust="spacing" textLength="106" x="396.91" y="547.5487">&#8226; Guardar profesor</text><text fill="#000000" font-family="Arial" font-size="12" lengthAdjust="spacing" textLength="109" x="396.91" y="563.8928">&#8226; Cancelar creaci&#243;n</text></g><g id="ValidarAlmacenar"><rect fill="#ADD8E6" height="134.4088" rx="12.5" ry="12.5" style="stroke:#0000FF;stroke-width:1.0;" width="243" x="130.41" y="12"/><line style="stroke:#0000FF;stroke-width:1.0;" x1="130.41" x2="373.41" y1="38.3441" y2="38.3441"/><text fill="#000000" font-family="Arial" font-size="12" lengthAdjust="spacing" textLength="199" x="152.41" y="29.8281">Sistema valida y almacena profesor</text><text fill="#000000" font-family="Arial" font-size="12" lengthAdjust="spacing" textLength="127" x="135.41" y="56.1722">&#8226; Valida datos m&#237;nimos</text><text fill="#000000" font-family="Arial" font-size="12" lengthAdjust="spacing" textLength="223" x="135.41" y="72.5163">&#8226; Almacena profesor con datos m&#237;nimos</text><text fill="#000000" font-family="Arial" font-size="12" lengthAdjust="spacing" textLength="156" x="135.41" y="88.8604">&#8226; Genera identificador &#250;nico</text><text fill="#000000" font-family="Arial" font-size="12" lengthAdjust="spacing" textLength="8" x="135.41" y="105.2045">--</text><text fill="#000000" font-family="Arial" font-size="12" lengthAdjust="spacing" textLength="95" x="135.41" y="121.5487">Sistema permite:</text><text fill="#000000" font-family="Arial" font-size="12" lengthAdjust="spacing" textLength="157" x="135.41" y="137.8928">&#8226; Redirigir a editarProfesor()</text></g><g id="MostrarError"><rect fill="#ADD8E6" height="134.4088" rx="12.5" ry="12.5" style="stroke:#0000FF;stroke-width:1.0;" width="218" x="142.91" y="225"/><line style="stroke:#0000FF;stroke-width:1.0;" x1="142.91" x2="360.91" y1="251.3441" y2="251.3441"/><text fill="#000000" font-family="Arial" font-size="12" lengthAdjust="spacing" textLength="198" x="152.91" y="242.8281">Sistema presenta mensaje de error</text><text fill="#000000" font-family="Arial" font-size="12" lengthAdjust="spacing" textLength="164" x="147.91" y="269.1722">&#8226; Mensaje de error espec&#237;fico</text><text fill="#000000" font-family="Arial" font-size="12" lengthAdjust="spacing" textLength="167" x="147.91" y="285.5163">&#8226; Mantiene datos introducidos</text><text fill="#000000" font-family="Arial" font-size="12" lengthAdjust="spacing" textLength="8" x="147.91" y="301.8604">--</text><text fill="#000000" font-family="Arial" font-size="12" lengthAdjust="spacing" textLength="95" x="147.91" y="318.2045">Sistema permite:</text><text fill="#000000" font-family="Arial" font-size="12" lengthAdjust="spacing" textLength="89" x="147.91" y="334.5487">&#8226; Corregir datos</text><text fill="#000000" font-family="Arial" font-size="12" lengthAdjust="spacing" textLength="109" x="147.91" y="350.8928">&#8226; Cancelar creaci&#243;n</text></g><ellipse cx="436.91" cy="292" fill="#FFFFFF" rx="10" ry="10" style="stroke:#000000;stroke-width:1.0;"/><ellipse cx="222.91" cy="662" fill="none" rx="11" ry="11" style="stroke:#000000;stroke-width:1.0;"/><ellipse cx="222.91" cy="662" fill="#FFFFFF" rx="6" ry="6" style="stroke:#000000;stroke-width:1.0;"/><g id="elem_GMN14"><path d="M514.41,260 L514.41,324.4799 L669.41,324.4799 L669.41,270 L659.41,260 L514.41,260 " fill="#FFFFE0" style="stroke:#FFA500;stroke-width:1.0;"/><path d="M659.41,260 L659.41,270 L669.41,270 L659.41,260 " fill="#FFFFE0" style="stroke:#FFA500;stroke-width:1.0;"/><text fill="#000000" font-family="Verdana" font-size="10" font-weight="bold" lengthAdjust="spacing" textLength="105" x="520.41" y="275.69">Filosof&#237;a "El delgado"</text><text fill="#000000" font-family="Verdana" font-size="10" lengthAdjust="spacing" textLength="119" x="520.41" y="289.31">Solo datos m&#237;nimos para</text><text fill="#000000" font-family="Verdana" font-size="10" lengthAdjust="spacing" textLength="120" x="520.41" y="302.93">creaci&#243;n r&#225;pida antes de</text><text fill="#000000" font-family="Verdana" font-size="10" lengthAdjust="spacing" textLength="134" x="520.41" y="316.55">redirigir a edici&#243;n completa</text></g><g id="elem_GMN17"><path d="M408.91,40 L408.91,75 L373.6,79 L408.91,83 L408.91,118.0999 A0,0 0 0 0 408.91,118.0999 L622.91,118.0999 A0,0 0 0 0 622.91,118.0999 L622.91,50 L612.91,40 L408.91,40 A0,0 0 0 0 408.91,40 " fill="#FFFFE0" style="stroke:#FFA500;stroke-width:1.0;"/><path d="M612.91,40 L612.91,50 L622.91,50 L612.91,40 " fill="#FFFFE0" style="stroke:#FFA500;stroke-width:1.0;"/><text fill="#000000" font-family="Verdana" font-size="10" font-weight="bold" lengthAdjust="spacing" textLength="115" x="414.91" y="55.69">Validaciones aplicadas:</text><text fill="#000000" font-family="Verdana" font-size="10" lengthAdjust="spacing" textLength="167" x="414.91" y="69.31">&#8226; Nombres y apellidos obligatorios</text><text fill="#000000" font-family="Verdana" font-size="10" lengthAdjust="spacing" textLength="154" x="414.91" y="82.93">&#8226; Longitud m&#237;nima: 2 caracteres</text><text fill="#000000" font-family="Verdana" font-size="10" lengthAdjust="spacing" textLength="190" x="414.91" y="96.55">&#8226; Solo caracteres alfab&#233;ticos y espacios</text><text fill="#000000" font-family="Verdana" font-size="10" lengthAdjust="spacing" textLength="193" x="414.91" y="110.1699">&#8226; Combinaci&#243;n nombres+apellidos &#250;nica</text></g><!--link *start* to PresentarSolicitud--><g id="link_*start*_PresentarSolicitud"><path d="M433.56,301.68 C426.39,321.71 411.67,372.17 429.91,408 C435.44,418.86 438.723,424.4154 447.203,433.4054 " fill="none" id="*start*-to-PresentarSolicitud" style="stroke:#000000;stroke-width:1.0;"/><polygon fill="#000000" points="451.32,437.77,448.0542,428.4784,447.8891,434.1328,442.2347,433.9677,451.32,437.77" style="stroke:#000000;stroke-width:1.0;"/><text fill="#000000" font-family="Verdana" font-size="13" lengthAdjust="spacing" textLength="163" x="430.91" y="403.897">Actor solicita crear profesor</text></g><!--link PresentarSolicitud to ValidarAlmacenar--><g id="link_PresentarSolicitud_ValidarAlmacenar"><path d="M636.32,437.74 C656.71,415.03 676.15,387.97 686.91,359 C707.65,303.17 723.19,272.23 686.91,225 C603.97,117.02 518.72,192.95 390.91,146 C385.15,143.88 384.8503,143.8645 378.9803,141.4845 " fill="none" id="PresentarSolicitud-to-ValidarAlmacenar" style="stroke:#000000;stroke-width:1.0;"/><polygon fill="#000000" points="373.42,139.23,380.2576,146.3186,378.0536,141.1087,383.2635,138.9048,373.42,139.23" style="stroke:#000000;stroke-width:1.0;"/><text fill="#000000" font-family="Verdana" font-size="13" lengthAdjust="spacing" textLength="181" x="708.91" y="297.397">Actor solicita guardar profesor</text></g><!--link PresentarSolicitud to *end*--><g id="link_PresentarSolicitud_*end*"><path d="M417.16,572.18 C341.94,606.58 265.5265,641.5146 237.9965,654.1046 " fill="none" id="PresentarSolicitud-to-*end*" style="stroke:#000000;stroke-width:1.0;"/><polygon fill="#000000" points="232.54,656.6,242.3883,656.4946,237.0871,654.5205,239.0612,649.2193,232.54,656.6" style="stroke:#000000;stroke-width:1.0;"/><text fill="#000000" font-family="Verdana" font-size="13" lengthAdjust="spacing" textLength="181" x="343.91" y="616.897">Actor solicita cancelar creaci&#243;n</text></g><!--link ValidarAlmacenar to *end*--><g id="link_ValidarAlmacenar_*end*"><path d="M185.36,146.05 C132.5,204.17 63.8,294.12 40.91,389 C11,513 168.5063,625.4042 208.9563,651.9942 " fill="none" id="ValidarAlmacenar-to-*end*" style="stroke:#000000;stroke-width:1.0;"/><polygon fill="#000000" points="213.97,655.29,208.6466,647.0038,209.7919,652.5435,204.2522,653.6888,213.97,655.29" style="stroke:#000000;stroke-width:1.0;"/><text fill="#000000" font-family="Verdana" font-size="13" lengthAdjust="spacing" textLength="192" x="41.91" y="403.897">&#201;xito: Redirige a editarProfesor()</text></g><!--link ValidarAlmacenar to MostrarError--><g id="link_ValidarAlmacenar_MostrarError"><path d="M251.91,146.18 C251.91,171.2 251.91,193.66 251.91,218.69 " fill="none" id="ValidarAlmacenar-to-MostrarError" style="stroke:#000000;stroke-width:1.0;"/><polygon fill="#000000" points="251.91,224.69,255.91,215.69,251.91,219.69,247.91,215.69,251.91,224.69" style="stroke:#000000;stroke-width:1.0;"/><text fill="#000000" font-family="Verdana" font-size="13" lengthAdjust="spacing" textLength="146" x="252.91" y="190.897">Datos m&#237;nimos inv&#225;lidos</text></g><!--link MostrarError to PresentarSolicitud--><g id="link_MostrarError_PresentarSolicitud"><path d="M268.9,359.27 C276.07,376.94 286.08,394.76 299.91,408 C308.25,415.97 341.0019,429.2753 385.9419,445.3853 " fill="none" id="MostrarError-to-PresentarSolicitud" style="stroke:#000000;stroke-width:1.0;"/><polygon fill="#000000" points="391.59,447.41,384.4677,440.6076,386.8833,445.7227,381.7681,448.1383,391.59,447.41" style="stroke:#000000;stroke-width:1.0;"/><text fill="#000000" font-family="Verdana" font-size="13" lengthAdjust="spacing" textLength="114" x="300.91" y="403.897">Actor corrige datos</text></g><!--link MostrarError to *end*--><g id="link_MostrarError_*end*"><path d="M246.36,359.04 C244.3,383.8 241.96,412.19 239.91,438 C233.39,520.06 226.4527,613.1564 224.1127,644.7864 " fill="none" id="MostrarError-to-*end*" style="stroke:#000000;stroke-width:1.0;"/><polygon fill="#000000" points="223.67,650.77,228.3231,642.0896,224.0389,645.7836,220.3449,641.4994,223.67,650.77" style="stroke:#000000;stroke-width:1.0;"/><text fill="#000000" font-family="Verdana" font-size="13" lengthAdjust="spacing" textLength="132" x="240.91" y="510.397">Actor cancela creaci&#243;n</text></g><!--link GMN14 to PresentarSolicitud--><g id="link_GMN14_PresentarSolicitud"><path d="M599.81,324.01 C604.56,347.31 608.66,379.9 602.91,408 C600.88,417.94 597.77,428.13 594.16,437.98 " fill="none" id="GMN14-PresentarSolicitud" style="stroke:#000000;stroke-width:1.0;stroke-dasharray:7.0,7.0;"/></g><!--SRC=[dLKzRzH04EtzAuQh4b04fBIYI9SZIPE4Y4X8257ChUUS9UjTQxmNleH4oyz8EefKTBJ-9_mIPctdugyx49qrEs_UcxUpuqV-aZA2tA2sKN6bROwC6HGUFS6N2E00rLNARccJcJEEuKIdb_x0B2cSEKw8wtWJEdBMdw5KdB96qmGkz6U2vxlHrnQ3TPi8tf0nxaEFuYMZJQbJyvdKZ6gnamjTUCeGSgQ2h4SedD5A-sK22K62tXMGbNTMP_AHa954jw32yGImWFC6nHShL50t3CVm-zijdBbiBaUTEh3bvaQdGiJQRMy0JtDfJoVkF-0xEsiELjqJPrhiQ9f7ZZS8ELuY9yWh2HjIPsWL6SbLJAXq-TEEM7-DqXR29q2JeIABNOzVLySyRGwvShWVhEdgQE_MrcPF-tIWdFrNy35POWITIDjweHKcWYz_MQtSAAQwWc6uTm7nMhvNb6ZMgMP0a4-n-hnHlRMzQPmpiWM-fp3CnDnOUkeApyY78L3PsGxKVASz752Haohl5dM38m0K8yIKna1jFRjagSB03l8hCxgX4IE673F7JC63YcCyPNJYtZv-9wJxO-yrXgcInxCQ_GhO6kuHIAWqcCf1dRJ_JDPK2jg68ePj31WVmENtZzgx-7v8Q6n6Hk6TGOZXHNVTQNjTtbGh9-ea_iL99RSKHDIND42s-stQR7KPLIlUknpSOeH4xdnlld-aZIlSehn3c1oQi0zJUN-JlQVpVKcGPDVVtE7t8KSh7k3o9W-xGgQsMiXooDqdLkSfb-M6F4Paa-htqoZayCC96lk-rWhhgDBEIdNCJLWGMCIDmlQ_GDRUQh6tLddHf9qucrRkrgrW3BlY6gFo9EWcgUhu8IgBT87pyeUNjne8vEa6AVVPCs7Mjl71rZAUF8YebbYhtpy0]--></g></svg>