<?xml version="1.0" encoding="us-ascii" standalone="no"?><svg xmlns="http://www.w3.org/2000/svg" xmlns:xlink="http://www.w3.org/1999/xlink" contentStyleType="text/css" height="731px" preserveAspectRatio="none" style="width:563px;height:731px;background:#FFFFFF;" version="1.1" viewBox="0 0 563 731" width="563px" zoomAndPan="magnify"><defs/><g><path d="M19.5,7 L537.5,7 A12.5,12.5 0 0 1 550,19.5 L550,36.0679 L7,36.0679 L7,19.5 A12.5,12.5 0 0 1 19.5,7 " fill="#F1F1F1" style="stroke:#F1F1F1;stroke-width:1.0;"/><rect fill="none" height="571.0679" rx="12.5" ry="12.5" style="stroke:#181818;stroke-width:0.5;" width="543" x="7" y="7"/><line style="stroke:#181818;stroke-width:0.5;" x1="7" x2="550" y1="36.0679" y2="36.0679"/><text fill="#000000" font-family="sans-serif" font-size="14" lengthAdjust="spacing" textLength="78" x="239.5" y="26.9659">editarAula()</text><g id="editarAula.EditandoDatos"><rect fill="#F1F1F1" height="50" rx="12.5" ry="12.5" style="stroke:#181818;stroke-width:0.5;" width="50" x="132" y="140.0679"/><line style="stroke:#181818;stroke-width:0.5;" x1="132" x2="182" y1="169.1358" y2="169.1358"/><text fill="#000000" font-family="sans-serif" font-size="14" lengthAdjust="spacing" textLength="4" x="155" y="160.0339">&#160;</text></g><g id="editarAula.GuardandoDatos"><rect fill="#F1F1F1" height="50" rx="12.5" ry="12.5" style="stroke:#181818;stroke-width:0.5;" width="50" x="132" y="423.0679"/><line style="stroke:#181818;stroke-width:0.5;" x1="132" x2="182" y1="452.1358" y2="452.1358"/><text fill="#000000" font-family="sans-serif" font-size="14" lengthAdjust="spacing" textLength="4" x="155" y="443.0339">&#160;</text></g><ellipse cx="157" cy="57.0679" fill="#222222" rx="10" ry="10" style="stroke:#222222;stroke-width:1.0;"/><ellipse cx="157" cy="557.0679" fill="none" rx="11" ry="11" style="stroke:#222222;stroke-width:1.0;"/><ellipse cx="157" cy="557.0679" fill="#222222" rx="6" ry="6" style="stroke:#222222;stroke-width:1.0;"/><!--link *start*editarAula to EditandoDatos--><g id="link_*start*editarAula_EditandoDatos"><path d="M157,67.1079 C157,83.0279 157,110.5779 157,133.7079 " fill="none" id="*start*editarAula-to-EditandoDatos" style="stroke:#008000;stroke-width:1.0;"/><polygon fill="#008000" points="157,139.7079,161,130.7079,157,134.7079,153,130.7079,157,139.7079" style="stroke:#008000;stroke-width:1.0;"/><path d="M162,90.0679 L162,117.0679 L388,117.0679 L388,100.0679 L378,90.0679 L162,90.0679 " fill="#FEFFDD" style="stroke:#181818;stroke-width:0.5;"/><path d="M378,90.0679 L378,100.0679 L388,100.0679 L378,90.0679 " fill="#FEFFDD" style="stroke:#181818;stroke-width:0.5;"/><text fill="#000000" font-family="sans-serif" font-size="13" font-weight="bold" lengthAdjust="spacing" textLength="95" x="168" y="108.9649">Administrador</text><text fill="#000000" font-family="sans-serif" font-size="13" lengthAdjust="spacing" textLength="107" x="266" y="108.9649">solicita editar aula</text></g><!--link EditandoDatos to GuardandoDatos--><g id="link_EditandoDatos_GuardandoDatos"><path d="M131.93,174.1679 C94.16,186.3679 27,208.0679 27,208.0679 C27,208.0679 27,405.0679 27,405.0679 C27,405.0679 88.4505,424.9237 126.2205,437.1237 " fill="none" id="EditandoDatos-to-GuardandoDatos" style="stroke:#008000;stroke-width:1.0;"/><polygon fill="#008000" points="131.93,438.9679,124.5952,432.3952,127.1721,437.4311,122.1362,440.0079,131.93,438.9679" style="stroke:#008000;stroke-width:1.0;"/><path d="M32,213.0679 L32,400.0679 L262,400.0679 L262,223.0679 L252,213.0679 L32,213.0679 " fill="#FEFFDD" style="stroke:#181818;stroke-width:0.5;"/><path d="M252,213.0679 L252,223.0679 L262,223.0679 L252,213.0679 " fill="#FEFFDD" style="stroke:#181818;stroke-width:0.5;"/><text fill="#000000" font-family="sans-serif" font-size="13" font-weight="bold" lengthAdjust="spacing" textLength="52" x="38" y="231.9649">Sistema</text><text fill="#000000" font-family="sans-serif" font-size="13" lengthAdjust="spacing" textLength="154" x="93" y="231.9649">presenta datos de edici&#243;n</text><text fill="#000000" font-family="sans-serif" font-size="13" lengthAdjust="spacing" textLength="154" x="38" y="249.6709">&#8226; C&#243;digo, nombre del aula</text><text fill="#000000" font-family="sans-serif" font-size="13" lengthAdjust="spacing" textLength="172" x="38" y="267.377">&#8226; Edificio asociado, capacidad</text><text fill="#000000" font-family="sans-serif" font-size="13" lengthAdjust="spacing" textLength="137" x="38" y="285.083">&#8226; Tipo de aula, recursos</text><text fill="#000000" font-family="sans-serif" font-size="13" lengthAdjust="spacing" textLength="145" x="38" y="302.789">&#8226; Observaciones del aula</text><text fill="#000000" font-family="sans-serif" font-size="13" lengthAdjust="spacing" textLength="3" x="38" y="320.495">&#160;</text><text fill="#000000" font-family="sans-serif" font-size="13" font-weight="bold" lengthAdjust="spacing" textLength="52" x="38" y="338.201">Sistema</text><text fill="#000000" font-family="sans-serif" font-size="13" lengthAdjust="spacing" textLength="99" x="93" y="338.201">permite solicitar:</text><text fill="#000000" font-family="sans-serif" font-size="13" lengthAdjust="spacing" textLength="114" x="38" y="355.907">&#8226; modificar campos</text><text fill="#000000" font-family="sans-serif" font-size="13" lengthAdjust="spacing" textLength="84" x="38" y="373.6131">&#8226; guardar aula</text><text fill="#000000" font-family="sans-serif" font-size="13" lengthAdjust="spacing" textLength="103" x="38" y="391.3191">&#8226; cancelar edici&#243;n</text></g><!--link GuardandoDatos to EditandoDatos--><g id="link_GuardandoDatos_EditandoDatos"><path d="M182.24,437.4279 C214.71,425.0279 267,405.0679 267,405.0679 C267,405.0679 267,208.0679 267,208.0679 C267,208.0679 220.3152,190.2485 187.8452,177.8485 " fill="none" id="GuardandoDatos-to-EditandoDatos" style="stroke:#008000;stroke-width:1.0;"/><polygon fill="#008000" points="182.24,175.7079,189.2207,182.6555,186.911,177.4917,192.0748,175.182,182.24,175.7079" style="stroke:#008000;stroke-width:1.0;"/><path d="M272,293.0679 L272,320.0679 L541,320.0679 L541,303.0679 L531,293.0679 L272,293.0679 " fill="#FEFFDD" style="stroke:#181818;stroke-width:0.5;"/><path d="M531,293.0679 L531,303.0679 L541,303.0679 L531,293.0679 " fill="#FEFFDD" style="stroke:#181818;stroke-width:0.5;"/><text fill="#000000" font-family="sans-serif" font-size="13" font-weight="bold" lengthAdjust="spacing" textLength="95" x="278" y="311.9649">Administrador</text><text fill="#000000" font-family="sans-serif" font-size="13" lengthAdjust="spacing" textLength="150" x="376" y="311.9649">solicita modificar campos</text></g><!--link GuardandoDatos to *end*editarAula--><g id="link_GuardandoDatos_*end*editarAula"><path d="M131.83,456.6779 C91.77,468.7779 18,491.0679 18,491.0679 C18,491.0679 18,528.0679 18,528.0679 C18,528.0679 107.4381,546.0833 140.2081,552.6833 " fill="none" id="GuardandoDatos-to-*end*editarAula" style="stroke:#008000;stroke-width:1.0;"/><polygon fill="#008000" points="146.09,553.8679,138.0569,548.1697,141.1884,552.8807,136.4774,556.0122,146.09,553.8679" style="stroke:#008000;stroke-width:1.0;"/><path d="M23,496.0679 L23,523.0679 L271,523.0679 L271,506.0679 L261,496.0679 L23,496.0679 " fill="#FEFFDD" style="stroke:#181818;stroke-width:0.5;"/><path d="M261,496.0679 L261,506.0679 L271,506.0679 L261,496.0679 " fill="#FEFFDD" style="stroke:#181818;stroke-width:0.5;"/><text fill="#000000" font-family="sans-serif" font-size="13" font-weight="bold" lengthAdjust="spacing" textLength="95" x="29" y="514.9649">Administrador</text><text fill="#000000" font-family="sans-serif" font-size="13" lengthAdjust="spacing" textLength="129" x="127" y="514.9649">solicita guardar y salir</text></g><!--link GuardandoDatos to *end*editarAula--><g id="link_GuardandoDatos_*end*editarAula"><path d="M182.24,457.9779 C217.17,470.3079 276,491.0679 276,491.0679 C276,491.0679 276,528.0679 276,528.0679 C276,528.0679 202.5201,545.3521 173.4001,552.2121 " fill="none" id="GuardandoDatos-to-*end*editarAula-1" style="stroke:#FF0000;stroke-width:1.0;"/><polygon fill="#FF0000" points="167.56,553.5879,177.2374,555.4176,172.4268,552.4414,175.403,547.6308,167.56,553.5879" style="stroke:#FF0000;stroke-width:1.0;"/><path d="M281,496.0679 L281,523.0679 L539,523.0679 L539,506.0679 L529,496.0679 L281,496.0679 " fill="#FEFFDD" style="stroke:#181818;stroke-width:0.5;"/><path d="M529,496.0679 L529,506.0679 L539,506.0679 L529,496.0679 " fill="#FEFFDD" style="stroke:#181818;stroke-width:0.5;"/><text fill="#000000" font-family="sans-serif" font-size="13" font-weight="bold" lengthAdjust="spacing" textLength="95" x="287" y="514.9649">Administrador</text><text fill="#000000" font-family="sans-serif" font-size="13" lengthAdjust="spacing" textLength="139" x="385" y="514.9649">solicita cancelar edici&#243;n</text></g><g id="AULAS_ABIERTO"><rect fill="#F1F1F1" height="50" rx="12.5" ry="12.5" style="stroke:#181818;stroke-width:0.5;" width="128" x="214.5" y="675"/><line style="stroke:#181818;stroke-width:0.5;" x1="214.5" x2="342.5" y1="704.0679" y2="704.0679"/><text fill="#000000" font-family="sans-serif" font-size="14" lengthAdjust="spacing" textLength="108" x="224.5" y="694.9659">AULAS_ABIERTO</text></g><!--link editarAula to AULAS_ABIERTO--><g id="link_editarAula_AULAS_ABIERTO"><path d="M213.34,578.13 C209.11,596.6 206.5,608 206.5,608 C206.5,608 206.5,645 206.5,645 C206.5,645 222.3191,656.8712 241.4891,671.2412 " fill="none" id="editarAula-to-AULAS_ABIERTO" style="stroke:#008000;stroke-width:1.0;"/><polygon fill="#008000" points="246.29,674.84,241.4878,666.2412,242.2892,671.841,236.6894,672.6424,246.29,674.84" style="stroke:#008000;stroke-width:1.0;"/><path d="M211.5,613 L211.5,640 L300.5,640 L300.5,623 L290.5,613 L211.5,613 " fill="#FEFFDD" style="stroke:#181818;stroke-width:0.5;"/><path d="M290.5,613 L290.5,623 L300.5,623 L290.5,613 " fill="#FEFFDD" style="stroke:#181818;stroke-width:0.5;"/><text fill="#000000" font-family="sans-serif" font-size="13" lengthAdjust="spacing" textLength="68" x="217.5" y="631.897">abrirAulas()</text></g><!--link editarAula to AULAS_ABIERTO--><g id="link_editarAula_AULAS_ABIERTO"><path d="M306.56,578.13 C308.38,596.6 309.5,608 309.5,608 C309.5,608 309.5,645 309.5,645 C309.5,645 303.6074,655.2666 295.3574,669.6366 " fill="none" id="editarAula-to-AULAS_ABIERTO-1" style="stroke:#FF0000;stroke-width:1.0;"/><polygon fill="#FF0000" points="292.37,674.84,300.32,669.0264,294.8595,670.5038,293.3821,665.0433,292.37,674.84" style="stroke:#FF0000;stroke-width:1.0;"/><path d="M314.5,613 L314.5,640 L430.5,640 L430.5,623 L420.5,613 L314.5,613 " fill="#FEFFDD" style="stroke:#181818;stroke-width:0.5;"/><path d="M420.5,613 L420.5,623 L430.5,623 L420.5,613 " fill="#FEFFDD" style="stroke:#181818;stroke-width:0.5;"/><text fill="#000000" font-family="sans-serif" font-size="13" lengthAdjust="spacing" textLength="95" x="320.5" y="631.897">cancelar edici&#243;n</text></g><!--SRC=[fPDHIWCn48RVSufGNrffyLrAOTKYWb2mzQaKcKt64jnDbibMA29u5g_G8_GcdiJPjDqsjbNKNLX8yi__Vvba_PEn1H3aCZCMotc1id3Pl1e8uKieKQ8s9L0ooq22butjiDbgo1SX93yhPODVblGhXTNk2ahdzvUlPq2wNfShW_7fH7R69rD2j9DEB_QGGM8TUpXRWJw5YMxQItHkhF4bWNRKFKjxqhlCAAvTOqjWqA16grSM_8Zw4-Vi4iIOHmc6d8uvXEo2qAFbR1tSTEYTCik53UgFjtTvkLneCtLjzifJGjPaMyHAm42FNEEuKquPtbPRAYX06Gsw5erCuIhxgh8j2TMC_9gnMXwa7kcPQvn57qSSn4RA3Uziqpewhvro5t2uZmhoOYTY6hf3CRi2gp3ZsMZRcyPlyx_SWAFd_fTZFqZyAmI-Ydy9tdHaBZraXkBS8vc4-X-9FxHRl0gny-_kRZ6vlqs63yd5JVzkD11HBAHaGe5ljiJMApPQStzZiyzMUtq2]--></g></svg>