<?xml version="1.0" encoding="us-ascii" standalone="no"?><svg xmlns="http://www.w3.org/2000/svg" xmlns:xlink="http://www.w3.org/1999/xlink" contentStyleType="text/css" height="462px" preserveAspectRatio="none" style="width:682px;height:462px;background:#FFFFFF;" version="1.1" viewBox="0 0 682 462" width="682px" zoomAndPan="magnify"><defs/><g><!--cluster Gesti?n de Campus--><g id="cluster_Gesti&#243;n de Campus"><path d="M8.5,6.602 L143.5,6.602 A3.75,3.75 0 0 1 146,9.102 L153,31.6699 L672.5,31.6699 A2.5,2.5 0 0 1 675,34.1699 L675,453.102 A2.5,2.5 0 0 1 672.5,455.602 L8.5,455.602 A2.5,2.5 0 0 1 6,453.102 L6,9.102 A2.5,2.5 0 0 1 8.5,6.602 " fill="none" style="stroke:#000000;stroke-width:1.5;"/><line style="stroke:#000000;stroke-width:1.5;" x1="6" x2="153" y1="31.6699" y2="31.6699"/><text fill="#000000" font-family="sans-serif" font-size="14" font-weight="bold" lengthAdjust="spacing" textLength="134" x="10" y="23.5679">Gesti&#243;n de Campus</text></g><!--entity admin--><g id="elem_admin"><ellipse cx="342.5" cy="242.602" fill="#F1F1F1" rx="8" ry="8" style="stroke:#181818;stroke-width:0.5;"/><path d="M342.5,250.602 L342.5,277.602 M329.5,258.602 L355.5,258.602 M342.5,277.602 L329.5,292.602 M342.5,277.602 L355.5,292.602 " fill="none" style="stroke:#181818;stroke-width:0.5;"/><text fill="#000000" font-family="sans-serif" font-size="14" lengthAdjust="spacing" textLength="179" x="253" y="309.0679">Administrador de Horarios</text></g><g id="elem_crearEdificio"><ellipse cx="575.5473" cy="417.7114" fill="#F1F1F1" rx="76.0473" ry="17.6095" style="stroke:#181818;stroke-width:0.5;"/><text fill="#000000" font-family="sans-serif" font-size="14" lengthAdjust="spacing" textLength="92" x="526.5473" y="422.4444">crearEdificio()</text></g><g id="elem_listarEdificios"><ellipse cx="575.5926" cy="346.6205" fill="#F1F1F1" rx="78.0926" ry="18.0185" style="stroke:#181818;stroke-width:0.5;"/><text fill="#000000" font-family="sans-serif" font-size="14" lengthAdjust="spacing" textLength="98" x="523.5926" y="351.3535">listarEdificios()</text></g><g id="elem_editarEdificio"><ellipse cx="575.7473" cy="275.5514" fill="#F1F1F1" rx="77.7473" ry="17.9495" style="stroke:#181818;stroke-width:0.5;"/><text fill="#000000" font-family="sans-serif" font-size="14" lengthAdjust="spacing" textLength="97" x="524.2473" y="280.2844">editarEdificio()</text></g><g id="elem_eliminarEdificio"><ellipse cx="575.4683" cy="203.6956" fill="#F1F1F1" rx="83.4683" ry="19.0937" style="stroke:#181818;stroke-width:0.5;"/><text fill="#000000" font-family="sans-serif" font-size="14" lengthAdjust="spacing" textLength="113" x="515.9683" y="208.4286">eliminarEdificio()</text></g><g id="elem_crearAula"><ellipse cx="575.3946" cy="132.5989" fill="#F1F1F1" rx="65.3946" ry="16.9969" style="stroke:#181818;stroke-width:0.5;"/><text fill="#000000" font-family="sans-serif" font-size="14" lengthAdjust="spacing" textLength="73" x="535.8946" y="137.3318">crearAula()</text></g><g id="elem_listarAulas"><ellipse cx="575.4332" cy="63.627" fill="#F1F1F1" rx="69.9332" ry="17.025" style="stroke:#181818;stroke-width:0.5;"/><text fill="#000000" font-family="sans-serif" font-size="14" lengthAdjust="spacing" textLength="79" x="532.9332" y="68.36">listarAulas()</text></g><g id="elem_editarAula"><ellipse cx="107.6768" cy="61.6226" fill="#F1F1F1" rx="69.1768" ry="17.0206" style="stroke:#181818;stroke-width:0.5;"/><text fill="#000000" font-family="sans-serif" font-size="14" lengthAdjust="spacing" textLength="78" x="65.6768" y="66.3555">editarAula()</text></g><g id="elem_eliminarAula"><ellipse cx="107.7218" cy="131.8463" fill="#F1F1F1" rx="76.7218" ry="17.7444" style="stroke:#181818;stroke-width:0.5;"/><text fill="#000000" font-family="sans-serif" font-size="14" lengthAdjust="spacing" textLength="94" x="57.7218" y="136.5793">eliminarAula()</text></g><g id="elem_crearRecurso"><ellipse cx="107.7473" cy="202.5514" fill="#F1F1F1" rx="77.7473" ry="17.9495" style="stroke:#181818;stroke-width:0.5;"/><text fill="#000000" font-family="sans-serif" font-size="14" lengthAdjust="spacing" textLength="97" x="56.2473" y="207.2844">crearRecurso()</text></g><g id="elem_listarRecursos"><ellipse cx="107.345" cy="274.471" fill="#F1F1F1" rx="79.845" ry="18.369" style="stroke:#181818;stroke-width:0.5;"/><text fill="#000000" font-family="sans-serif" font-size="14" lengthAdjust="spacing" textLength="103" x="52.845" y="279.2039">listarRecursos()</text></g><g id="elem_editarRecurso"><ellipse cx="107.4912" cy="346.4002" fill="#F1F1F1" rx="79.4912" ry="18.2982" style="stroke:#181818;stroke-width:0.5;"/><text fill="#000000" font-family="sans-serif" font-size="14" lengthAdjust="spacing" textLength="102" x="53.4912" y="351.1332">editarRecurso()</text></g><g id="elem_eliminarRecurso"><ellipse cx="107.3341" cy="419.5688" fill="#F1F1F1" rx="85.3341" ry="19.4668" style="stroke:#181818;stroke-width:0.5;"/><text fill="#000000" font-family="sans-serif" font-size="14" lengthAdjust="spacing" textLength="118" x="45.3341" y="424.3018">eliminarRecurso()</text></g><!--link admin to crearEdificio--><g id="link_admin_crearEdificio"><path d="M392.19,313.162 C420.34,334.952 457.01,361.562 492,381.602 C505.7,389.442 515.9026,394.368 529.9226,400.288 " fill="none" id="admin-to-crearEdificio" style="stroke:#181818;stroke-width:1.0;"/><polygon fill="#181818" points="535.45,402.622,528.7148,395.4361,530.8438,400.677,525.6029,402.806,535.45,402.622" style="stroke:#181818;stroke-width:1.0;"/></g><!--link admin to listarEdificios--><g id="link_admin_listarEdificios"><path d="M432.15,301.612 C465.1,312.032 495.4185,321.6151 522.9985,330.3251 " fill="none" id="admin-to-listarEdificios" style="stroke:#181818;stroke-width:1.0;"/><polygon fill="#181818" points="528.72,332.132,521.3424,325.6073,523.9521,330.6262,518.9332,333.236,528.72,332.132" style="stroke:#181818;stroke-width:1.0;"/></g><!--link admin to editarEdificio--><g id="link_admin_editarEdificio"><path d="M432.15,274.372 C453.78,274.552 470.7402,274.6978 491.7602,274.8878 " fill="none" id="admin-to-editarEdificio" style="stroke:#181818;stroke-width:1.0;"/><polygon fill="#181818" points="497.76,274.942,488.7965,270.8608,492.7602,274.8968,488.7242,278.8605,497.76,274.942" style="stroke:#181818;stroke-width:1.0;"/></g><!--link admin to eliminarEdificio--><g id="link_admin_eliminarEdificio"><path d="M432.15,246.742 C463.45,237.252 491.7877,228.6615 518.7577,220.4915 " fill="none" id="admin-to-eliminarEdificio" style="stroke:#181818;stroke-width:1.0;"/><polygon fill="#181818" points="524.5,218.752,514.7269,217.533,519.7147,220.2016,517.0462,225.1895,524.5,218.752" style="stroke:#181818;stroke-width:1.0;"/></g><!--link admin to crearAula--><g id="link_admin_crearAula"><path d="M392.42,233.902 C420.49,212.292 457.01,186.062 492,166.602 C505.81,158.922 516.1302,154.1679 530.2702,148.5779 " fill="none" id="admin-to-crearAula" style="stroke:#181818;stroke-width:1.0;"/><polygon fill="#181818" points="535.85,146.372,526.0097,145.9609,531.2002,148.2102,528.9509,153.4007,535.85,146.372" style="stroke:#181818;stroke-width:1.0;"/></g><!--link admin to listarAulas--><g id="link_admin_listarAulas"><path d="M368.69,233.822 C395.24,194.632 440.33,135.312 492,97.602 C503.76,89.022 512.4279,84.3521 525.7479,79.1021 " fill="none" id="admin-to-listarAulas" style="stroke:#181818;stroke-width:1.0;"/><polygon fill="#181818" points="531.33,76.902,521.4902,76.4808,526.6783,78.7354,524.4237,83.9236,531.33,76.902" style="stroke:#181818;stroke-width:1.0;"/></g><!--reverse link editarAula to admin--><g id="link_editarAula_admin"><path d="M157.0096,76.9728 C171.0296,82.4428 180.58,87.492 193,96.602 C244.92,134.672 290.11,194.582 316.6,233.982 " fill="none" id="editarAula-backto-admin" style="stroke:#181818;stroke-width:1.0;"/><polygon fill="#181818" points="151.42,74.792,158.3506,81.7897,156.078,76.6093,161.2583,74.3368,151.42,74.792" style="stroke:#181818;stroke-width:1.0;"/></g><!--reverse link eliminarAula to admin--><g id="link_eliminarAula_admin"><path d="M154.9395,148.5437 C169.0895,154.2137 179.27,158.952 193,166.602 C227.97,186.092 264.49,212.322 292.57,233.932 " fill="none" id="eliminarAula-backto-admin" style="stroke:#181818;stroke-width:1.0;"/><polygon fill="#181818" points="149.37,146.312,156.2364,153.3726,154.0113,148.1718,159.2121,145.9466,149.37,146.312" style="stroke:#181818;stroke-width:1.0;"/></g><!--reverse link crearRecurso to admin--><g id="link_crearRecurso_admin"><path d="M161.1091,218.6319 C189.0191,227.1419 219.6,236.462 252.75,246.562 " fill="none" id="crearRecurso-backto-admin" style="stroke:#181818;stroke-width:1.0;"/><polygon fill="#181818" points="155.37,216.882,162.8121,223.333,160.1526,218.3402,165.1453,215.6808,155.37,216.882" style="stroke:#181818;stroke-width:1.0;"/></g><!--reverse link listarRecursos to admin--><g id="link_listarRecursos_admin"><path d="M193.7099,274.2362 C214.6799,274.1462 231.46,274.072 252.9,273.982 " fill="none" id="listarRecursos-backto-admin" style="stroke:#181818;stroke-width:1.0;"/><polygon fill="#181818" points="187.71,274.262,196.7271,278.2233,192.71,274.2405,196.6927,270.2234,187.71,274.262" style="stroke:#181818;stroke-width:1.0;"/></g><!--reverse link editarRecurso to admin--><g id="link_editarRecurso_admin"><path d="M161.3756,330.0382 C189.3056,321.2882 219.86,311.712 252.95,301.342 " fill="none" id="editarRecurso-backto-admin" style="stroke:#181818;stroke-width:1.0;"/><polygon fill="#181818" points="155.65,331.832,165.4342,332.9584,160.4213,330.3372,163.0426,325.3243,155.65,331.832" style="stroke:#181818;stroke-width:1.0;"/></g><!--reverse link eliminarRecurso to admin--><g id="link_eliminarRecurso_admin"><path d="M157.4623,400.3825 C170.9323,394.5925 180.1,390.042 193,382.602 C228.19,362.312 265.01,335.332 293.18,313.292 " fill="none" id="eliminarRecurso-backto-admin" style="stroke:#181818;stroke-width:1.0;"/><polygon fill="#181818" points="151.95,402.752,161.7981,402.8727,156.5436,400.7774,158.6389,395.5229,151.95,402.752" style="stroke:#181818;stroke-width:1.0;"/></g><!--SRC=[TL91RWCX3Bpp2elJSjWVL9MYgchF_O459BMwMI9WJrLVrIVaOm6qBPWGRfxns8FjnHuZH0UUJfyH37ch8xbL2751_OKd2_BDXaZNtnMCXHSyNxOWuLkWZiw3F9WphHIYHvF2bF7kF7foAGS3O6O5fBS5gp5OqDwYVpLq94qkfqY6J4goz2MLhcmeWWxh9TPGx5fmw4wmK7BPIpgm5nNNXst1-eSSZVrdflLUuh7l_v8rVEItfZR0qEU7rPiFpRXtOEns9rl3Vz3OSrkU8O-SCm77ikH7Y78uCC_FCB7xK2tJ7GBZ-CevrQrMtNNBWnnqAcjJOgghKV0qp_kLJ-qQ6D6Ed15ykBnOEyTXcm5t0m00]--></g></svg>