<?xml version="1.0" encoding="us-ascii" standalone="no"?><svg xmlns="http://www.w3.org/2000/svg" xmlns:xlink="http://www.w3.org/1999/xlink" contentStyleType="text/css" height="414px" preserveAspectRatio="none" style="width:1040px;height:414px;background:#FFFFFF;" version="1.1" viewBox="0 0 1040 414" width="1040px" zoomAndPan="magnify"><defs/><g><!--cluster Gesti?n de Profesores--><g id="cluster_Gesti&#243;n de Profesores"><path d="M8.5,6.602 L161.5,6.602 A3.75,3.75 0 0 1 164,9.102 L171,31.6699 L291.5,31.6699 A2.5,2.5 0 0 1 294,34.1699 L294,405.102 A2.5,2.5 0 0 1 291.5,407.602 L8.5,407.602 A2.5,2.5 0 0 1 6,405.102 L6,9.102 A2.5,2.5 0 0 1 8.5,6.602 " fill="none" style="stroke:#000000;stroke-width:1.5;"/><line style="stroke:#000000;stroke-width:1.5;" x1="6" x2="171" y1="31.6699" y2="31.6699"/><text fill="#000000" font-family="sans-serif" font-size="14" font-weight="bold" lengthAdjust="spacing" textLength="152" x="10" y="23.5679">Gesti&#243;n de Profesores</text></g><!--cluster Consulta de Horarios--><g id="cluster_Consulta de Horarios"><path d="M830.5,37.602 L977.5,37.602 A3.75,3.75 0 0 1 980,40.102 L987,62.6699 L1030.5,62.6699 A2.5,2.5 0 0 1 1033,65.1699 L1033,129.102 A2.5,2.5 0 0 1 1030.5,131.602 L830.5,131.602 A2.5,2.5 0 0 1 828,129.102 L828,40.102 A2.5,2.5 0 0 1 830.5,37.602 " fill="none" style="stroke:#000000;stroke-width:1.5;"/><line style="stroke:#000000;stroke-width:1.5;" x1="828" x2="987" y1="62.6699" y2="62.6699"/><text fill="#000000" font-family="sans-serif" font-size="14" font-weight="bold" lengthAdjust="spacing" textLength="146" x="832" y="54.5679">Consulta de Horarios</text></g><!--cluster Generaci?n de Horarios--><g id="cluster_Generaci&#243;n de Horarios"><path d="M584,150.602 L748,150.602 A3.75,3.75 0 0 1 750.5,153.102 L757.5,175.6699 L777,175.6699 A2.5,2.5 0 0 1 779.5,178.1699 L779.5,240.102 A2.5,2.5 0 0 1 777,242.602 L584,242.602 A2.5,2.5 0 0 1 581.5,240.102 L581.5,153.102 A2.5,2.5 0 0 1 584,150.602 " fill="none" style="stroke:#000000;stroke-width:1.5;"/><line style="stroke:#000000;stroke-width:1.5;" x1="581.5" x2="757.5" y1="175.6699" y2="175.6699"/><text fill="#000000" font-family="sans-serif" font-size="14" font-weight="bold" lengthAdjust="spacing" textLength="163" x="585.5" y="167.5679">Generaci&#243;n de Horarios</text></g><!--cluster Asignaciones--><g id="cluster_Asignaciones"><path d="M563.5,266.602 L655.5,266.602 A3.75,3.75 0 0 1 658,269.102 L665,291.6699 L797.5,291.6699 A2.5,2.5 0 0 1 800,294.1699 L800,364.102 A2.5,2.5 0 0 1 797.5,366.602 L563.5,366.602 A2.5,2.5 0 0 1 561,364.102 L561,269.102 A2.5,2.5 0 0 1 563.5,266.602 " fill="none" style="stroke:#000000;stroke-width:1.5;"/><line style="stroke:#000000;stroke-width:1.5;" x1="561" x2="665" y1="291.6699" y2="291.6699"/><text fill="#000000" font-family="sans-serif" font-size="14" font-weight="bold" lengthAdjust="spacing" textLength="91" x="565" y="283.5679">Asignaciones</text></g><g id="elem_crearProfesor"><ellipse cx="149.9397" cy="62.6899" fill="#F1F1F1" rx="78.4397" ry="18.0879" style="stroke:#181818;stroke-width:0.5;"/><text fill="#000000" font-family="sans-serif" font-size="14" lengthAdjust="spacing" textLength="99" x="97.4397" y="67.4229">crearProfesor()</text></g><g id="elem_listarProfesores"><ellipse cx="149.9683" cy="134.6956" fill="#F1F1F1" rx="83.4683" ry="19.0937" style="stroke:#181818;stroke-width:0.5;"/><text fill="#000000" font-family="sans-serif" font-size="14" lengthAdjust="spacing" textLength="113" x="90.4683" y="139.4286">listarProfesores()</text></g><g id="elem_editarProfesor"><ellipse cx="150.2004" cy="207.5421" fill="#F1F1F1" rx="80.2004" ry="18.4401" style="stroke:#181818;stroke-width:0.5;"/><text fill="#000000" font-family="sans-serif" font-size="14" lengthAdjust="spacing" textLength="104" x="95.2004" y="212.275">editarProfesor()</text></g><g id="elem_eliminarProfesor"><ellipse cx="150.0897" cy="280.7199" fill="#F1F1F1" rx="86.0897" ry="19.6179" style="stroke:#181818;stroke-width:0.5;"/><text fill="#000000" font-family="sans-serif" font-size="14" lengthAdjust="spacing" textLength="120" x="87.0897" y="285.4529">eliminarProfesor()</text></g><g id="elem_configurarPreferenciasProfesor"><ellipse cx="149.968" cy="363.5956" fill="#F1F1F1" rx="127.968" ry="27.9936" style="stroke:#181818;stroke-width:0.5;"/><text fill="#000000" font-family="sans-serif" font-size="14" lengthAdjust="spacing" textLength="219" x="39.6735" y="367.4125">configurarPreferenciasProfesor()</text></g><g id="elem_consultarHorario"><ellipse cx="930.4695" cy="95.7959" fill="#F1F1F1" rx="86.4695" ry="19.6939" style="stroke:#181818;stroke-width:0.5;"/><text fill="#000000" font-family="sans-serif" font-size="14" lengthAdjust="spacing" textLength="121" x="866.9695" y="100.5288">consultarHorario()</text></g><g id="elem_generarHorario"><ellipse cx="680.5993" cy="207.6218" fill="#F1F1F1" rx="83.0993" ry="19.0199" style="stroke:#181818;stroke-width:0.5;"/><text fill="#000000" font-family="sans-serif" font-size="14" lengthAdjust="spacing" textLength="112" x="621.5993" y="212.3548">generarHorario()</text></g><g id="elem_asignarProfesorACurso"><ellipse cx="680.3751" cy="327.677" fill="#F1F1F1" rx="103.3751" ry="23.075" style="stroke:#181818;stroke-width:0.5;"/><text fill="#000000" font-family="sans-serif" font-size="14" lengthAdjust="spacing" textLength="163" x="595.8751" y="332.41">asignarProfesorACurso()</text></g><!--entity admin--><g id="elem_admin"><ellipse cx="427.5" cy="176.602" fill="#F1F1F1" rx="8" ry="8" style="stroke:#181818;stroke-width:0.5;"/><path d="M427.5,184.602 L427.5,211.602 M414.5,192.602 L440.5,192.602 M427.5,211.602 L414.5,226.602 M427.5,211.602 L440.5,226.602 " fill="none" style="stroke:#181818;stroke-width:0.5;"/><text fill="#000000" font-family="sans-serif" font-size="14" lengthAdjust="spacing" textLength="179" x="338" y="243.0679">Administrador de Horarios</text></g><!--entity consultor--><g id="elem_consultor"><ellipse cx="680.5" cy="64.602" fill="#F1F1F1" rx="8" ry="8" style="stroke:#181818;stroke-width:0.5;"/><path d="M680.5,72.602 L680.5,99.602 M667.5,80.602 L693.5,80.602 M680.5,99.602 L667.5,114.602 M680.5,99.602 L693.5,114.602 " fill="none" style="stroke:#181818;stroke-width:0.5;"/><text fill="#000000" font-family="sans-serif" font-size="14" lengthAdjust="spacing" textLength="147" x="607" y="131.0679">Consultor de Horarios</text></g><!--link admin to consultor--><g id="link_admin_consultor"><path d="M517.35,167.962 C546.68,154.872 562.5021,147.8065 590.4721,135.3265 " fill="none" id="admin-to-consultor" style="stroke:#181818;stroke-width:1.0;"/><polygon fill="none" points="606.91,127.992,588.0272,129.8472,592.9169,140.8058,606.91,127.992" style="stroke:#181818;stroke-width:1.0;"/></g><!--reverse link crearProfesor to admin--><g id="link_crearProfesor_admin"><path d="M225.5505,72.2531 C252.2905,77.4331 276.64,84.542 302,97.602 C336.1,115.172 368.37,144.172 391.51,167.992 " fill="none" id="crearProfesor-backto-admin" style="stroke:#181818;stroke-width:1.0;"/><polygon fill="#181818" points="219.66,71.112,227.735,76.7506,224.5687,72.0629,229.2565,68.8966,219.66,71.112" style="stroke:#181818;stroke-width:1.0;"/></g><!--reverse link listarProfesores to admin--><g id="link_listarProfesores_admin"><path d="M214.6944,149.5921 C242.8644,156.3521 271.36,163.422 302,171.602 C313.63,174.702 325.84,178.082 337.87,181.492 " fill="none" id="listarProfesores-backto-admin" style="stroke:#181818;stroke-width:1.0;"/><polygon fill="#181818" points="208.86,148.192,216.6782,154.1817,213.722,149.3587,218.5449,146.4025,208.86,148.192" style="stroke:#181818;stroke-width:1.0;"/></g><!--reverse link editarProfesor to admin--><g id="link_editarProfesor_admin"><path d="M236.32,207.602 C269.86,207.602 303.07,207.602 337.59,207.602 " fill="none" id="editarProfesor-backto-admin" style="stroke:#181818;stroke-width:1.0;"/><polygon fill="#181818" points="230.32,207.602,239.32,211.602,235.32,207.602,239.32,203.602,230.32,207.602" style="stroke:#181818;stroke-width:1.0;"/></g><!--reverse link eliminarProfesor to admin--><g id="link_eliminarProfesor_admin"><path d="M216.144,265.2605 C244.034,258.5605 271.88,251.642 302,243.602 C313.63,240.502 325.84,237.122 337.87,233.712 " fill="none" id="eliminarProfesor-backto-admin" style="stroke:#181818;stroke-width:1.0;"/><polygon fill="#181818" points="210.31,266.662,219.9954,268.4491,215.1717,265.4941,218.1267,260.6704,210.31,266.662" style="stroke:#181818;stroke-width:1.0;"/></g><!--reverse link configurarPreferenciasProfesor to admin--><g id="link_configurarPreferenciasProfesor_admin"><path d="M245.1754,341.7677 C266.3954,335.1177 282.74,328.362 302,317.602 C335.11,299.102 367.05,270.582 390.29,247.212 " fill="none" id="configurarPreferenciasProfesor-backto-admin" style="stroke:#181818;stroke-width:1.0;"/><polygon fill="#181818" points="239.45,343.562,249.2343,344.6876,244.2212,342.0668,246.842,337.0536,239.45,343.562" style="stroke:#181818;stroke-width:1.0;"/></g><!--link consultor to consultarHorario--><g id="link_consultor_consultarHorario"><path d="M754.23,95.602 C782.25,95.602 808.5,95.602 837.63,95.602 " fill="none" id="consultor-to-consultarHorario" style="stroke:#181818;stroke-width:1.0;"/><polygon fill="#181818" points="843.63,95.602,834.63,91.602,838.63,95.602,834.63,99.602,843.63,95.602" style="stroke:#181818;stroke-width:1.0;"/></g><!--link admin to asignarProfesorACurso--><g id="link_admin_asignarProfesorACurso"><path d="M511.38,247.232 C552.94,267.092 596.1468,287.754 630.3868,304.124 " fill="none" id="admin-to-asignarProfesorACurso" style="stroke:#181818;stroke-width:1.0;"/><polygon fill="#181818" points="635.8,306.712,629.4056,299.2212,631.289,304.5553,625.9549,306.4387,635.8,306.712" style="stroke:#181818;stroke-width:1.0;"/></g><!--link admin to generarHorario--><g id="link_admin_generarHorario"><path d="M517.35,207.602 C543.44,207.602 565.84,207.602 591.48,207.602 " fill="none" id="admin-to-generarHorario" style="stroke:#181818;stroke-width:1.0;"/><polygon fill="#181818" points="597.48,207.602,588.48,203.602,592.48,207.602,588.48,211.602,597.48,207.602" style="stroke:#181818;stroke-width:1.0;"/></g><!--SRC=[VLD1SeCm3Bpx5HfESE07cSumEQJ7Va5Z1FMKsXdPd9A-ga_ense8f4YXuMHsLwkHrXweIv02iElV4xIEoIONl35eKs0eclRJUHSJOvj_MuBNmCWkn08m0axiAZq67ySXxSZioXXpFyBXMe_d-cO1nfWpsW_i2OeJnUH-llrayyQXenYOij75GFx6I1OZWML2NkcfII6GiYg4VCWp_B4KvmeDwY9gNL9D9FHGCBWyZIvHe2xAA-bSF_Aae8wOl7KOvMXF9PFXrsQ1In0eSxZefhE65y7QHe3Q-4IU6EqQpd_U_ImJpXBIlarqlS- -mJ_cZ3DtNrvp73dUF7UPnTgKuZPKSAYNgsPAdReWPRwIKZaAydb2M-dc2TJr2vHwwLL-U_ERcDdT8QkjGgusL_y2]--></g></svg>