<?xml version="1.0" encoding="us-ascii" standalone="no"?><svg xmlns="http://www.w3.org/2000/svg" xmlns:xlink="http://www.w3.org/1999/xlink" contentStyleType="text/css" height="346px" preserveAspectRatio="none" style="width:690px;height:346px;background:#FFFFFF;" version="1.1" viewBox="0 0 690 346" width="690px" zoomAndPan="magnify"><defs/><g><!--cluster Gesti?n de Programas--><g id="cluster_Gesti&#243;n de Programas"><path d="M473.5,6.602 L628.5,6.602 A3.75,3.75 0 0 1 631,9.102 L638,31.6699 L680.5,31.6699 A2.5,2.5 0 0 1 683,34.1699 L683,337.102 A2.5,2.5 0 0 1 680.5,339.602 L473.5,339.602 A2.5,2.5 0 0 1 471,337.102 L471,9.102 A2.5,2.5 0 0 1 473.5,6.602 " fill="none" style="stroke:#000000;stroke-width:1.5;"/><line style="stroke:#000000;stroke-width:1.5;" x1="471" x2="638" y1="31.6699" y2="31.6699"/><text fill="#000000" font-family="sans-serif" font-size="14" font-weight="bold" lengthAdjust="spacing" textLength="154" x="475" y="23.5679">Gesti&#243;n de Programas</text></g><!--cluster Gesti?n de Cursos--><g id="cluster_Gesti&#243;n de Cursos"><path d="M8.5,14.602 L134.5,14.602 A3.75,3.75 0 0 1 137,17.102 L144,39.6699 L195.5,39.6699 A2.5,2.5 0 0 1 198,42.1699 L198,333.102 A2.5,2.5 0 0 1 195.5,335.602 L8.5,335.602 A2.5,2.5 0 0 1 6,333.102 L6,17.102 A2.5,2.5 0 0 1 8.5,14.602 " fill="none" style="stroke:#000000;stroke-width:1.5;"/><line style="stroke:#000000;stroke-width:1.5;" x1="6" x2="144" y1="39.6699" y2="39.6699"/><text fill="#000000" font-family="sans-serif" font-size="14" font-weight="bold" lengthAdjust="spacing" textLength="125" x="10" y="31.5679">Gesti&#243;n de Cursos</text></g><g id="elem_crearPrograma"><ellipse cx="577.001" cy="231.4022" fill="#F1F1F1" rx="82.001" ry="18.8002" style="stroke:#181818;stroke-width:0.5;"/><text fill="#000000" font-family="sans-serif" font-size="14" lengthAdjust="spacing" textLength="109" x="519.501" y="236.1351">crearPrograma()</text></g><g id="elem_abrirProgramas"><ellipse cx="576.8387" cy="158.7697" fill="#F1F1F1" rx="83.8387" ry="19.1677" style="stroke:#181818;stroke-width:0.5;"/><text fill="#000000" font-family="sans-serif" font-size="14" lengthAdjust="spacing" textLength="114" x="516.8387" y="163.5027">abrirProgramas()</text></g><g id="elem_editarPrograma"><ellipse cx="576.8387" cy="304.7697" fill="#F1F1F1" rx="83.8387" ry="19.1677" style="stroke:#181818;stroke-width:0.5;"/><text fill="#000000" font-family="sans-serif" font-size="14" lengthAdjust="spacing" textLength="114" x="516.8387" y="309.5027">editarPrograma()</text></g><g id="elem_eliminarPrograma"><ellipse cx="576.942" cy="65.4904" fill="#F1F1F1" rx="89.942" ry="20.3884" style="stroke:#181818;stroke-width:0.5;"/><text fill="#000000" font-family="sans-serif" font-size="14" lengthAdjust="spacing" textLength="130" x="508.942" y="70.2233">eliminarPrograma()</text></g><g id="elem_crearCurso"><ellipse cx="102.2027" cy="231.6398" fill="#F1F1F1" rx="72.2027" ry="17.0378" style="stroke:#181818;stroke-width:0.5;"/><text fill="#000000" font-family="sans-serif" font-size="14" lengthAdjust="spacing" textLength="82" x="58.2027" y="236.3727">crearCurso()</text></g><g id="elem_abrirCursos"><ellipse cx="101.8944" cy="70.3809" fill="#F1F1F1" rx="74.3944" ry="17.2789" style="stroke:#181818;stroke-width:0.5;"/><text fill="#000000" font-family="sans-serif" font-size="14" lengthAdjust="spacing" textLength="87" x="55.3944" y="75.1138">abrirCursos()</text></g><g id="elem_editarCurso"><ellipse cx="101.8944" cy="301.3809" fill="#F1F1F1" rx="74.3944" ry="17.2789" style="stroke:#181818;stroke-width:0.5;"/><text fill="#000000" font-family="sans-serif" font-size="14" lengthAdjust="spacing" textLength="87" x="55.3944" y="306.1138">editarCurso()</text></g><g id="elem_eliminarCurso"><ellipse cx="101.845" cy="160.471" fill="#F1F1F1" rx="79.845" ry="18.369" style="stroke:#181818;stroke-width:0.5;"/><text fill="#000000" font-family="sans-serif" font-size="14" lengthAdjust="spacing" textLength="103" x="47.345" y="165.2039">eliminarCurso()</text></g><!--entity admin--><g id="elem_admin"><ellipse cx="334.5" cy="192.602" fill="#F1F1F1" rx="8" ry="8" style="stroke:#181818;stroke-width:0.5;"/><path d="M334.5,200.602 L334.5,227.602 M321.5,208.602 L347.5,208.602 M334.5,227.602 L321.5,242.602 M334.5,227.602 L347.5,242.602 " fill="none" style="stroke:#181818;stroke-width:0.5;"/><text fill="#000000" font-family="sans-serif" font-size="14" lengthAdjust="spacing" textLength="179" x="245" y="259.0679">Administrador de Horarios</text></g><!--link admin to crearPrograma--><g id="link_admin_crearPrograma"><path d="M424.03,226.542 C447.47,227.322 466.6434,227.9611 489.6234,228.7311 " fill="none" id="admin-to-crearPrograma" style="stroke:#181818;stroke-width:1.0;"/><polygon fill="#181818" points="495.62,228.932,486.759,224.6328,490.6228,228.7645,486.4911,232.6283,495.62,228.932" style="stroke:#181818;stroke-width:1.0;"/></g><!--link admin to abrirProgramas--><g id="link_admin_abrirProgramas"><path d="M424.03,199.672 C456.98,190.772 487.5579,182.5078 516.4479,174.6978 " fill="none" id="admin-to-abrirProgramas" style="stroke:#181818;stroke-width:1.0;"/><polygon fill="#181818" points="522.24,173.132,512.508,171.6193,517.4133,174.4368,514.5957,179.3421,522.24,173.132" style="stroke:#181818;stroke-width:1.0;"/></g><!--link admin to editarPrograma--><g id="link_admin_editarPrograma"><path d="M424.26,254.432 C437.24,258.882 450.46,263.382 463,267.602 C484.33,274.772 502.2753,280.6829 522.4053,287.2429 " fill="none" id="admin-to-editarPrograma" style="stroke:#181818;stroke-width:1.0;"/><polygon fill="#181818" points="528.11,289.102,520.7923,282.5102,523.3561,287.5528,518.3135,290.1165,528.11,289.102" style="stroke:#181818;stroke-width:1.0;"/></g><!--link admin to eliminarPrograma--><g id="link_admin_eliminarPrograma"><path d="M380.05,184.052 C403.76,164.032 433.96,140.112 463,121.602 C485.53,107.242 506.804,96.3701 528.604,86.2901 " fill="none" id="admin-to-eliminarPrograma" style="stroke:#181818;stroke-width:1.0;"/><polygon fill="#181818" points="534.05,83.772,524.2022,83.9185,529.5117,85.8704,527.5598,91.1799,534.05,83.772" style="stroke:#181818;stroke-width:1.0;"/></g><!--reverse link crearCurso to admin--><g id="link_crearCurso_admin"><path d="M179.4064,228.9542 C201.9164,228.1742 221.13,227.502 244.76,226.682 " fill="none" id="crearCurso-backto-admin" style="stroke:#181818;stroke-width:1.0;"/><polygon fill="#181818" points="173.41,229.162,182.5431,232.8479,178.407,228.9888,182.2661,224.8527,173.41,229.162" style="stroke:#181818;stroke-width:1.0;"/></g><!--reverse link abrirCursos to admin--><g id="link_abrirCursos_admin"><path d="M141.6978,88.8323 C162.2878,98.9223 183.58,110.182 206,124.602 C233.81,142.492 263.08,164.922 286.54,183.912 " fill="none" id="abrirCursos-backto-admin" style="stroke:#181818;stroke-width:1.0;"/><polygon fill="#181818" points="136.31,86.192,142.6316,93.7443,140.7999,88.3922,146.152,86.5605,136.31,86.192" style="stroke:#181818;stroke-width:1.0;"/></g><!--reverse link editarCurso to admin--><g id="link_editarCurso_admin"><path d="M150.9635,285.3689 C178.7735,275.9589 210.54,265.212 244.7,253.652 " fill="none" id="editarCurso-backto-admin" style="stroke:#181818;stroke-width:1.0;"/><polygon fill="#181818" points="145.28,287.292,155.0873,288.1963,150.0162,285.6894,152.5231,280.6184,145.28,287.292" style="stroke:#181818;stroke-width:1.0;"/></g><!--reverse link eliminarCurso to admin--><g id="link_eliminarCurso_admin"><path d="M160.2279,176.2431 C186.7679,183.4931 214.11,190.972 244.62,199.312 " fill="none" id="eliminarCurso-backto-admin" style="stroke:#181818;stroke-width:1.0;"/><polygon fill="#181818" points="154.44,174.662,162.0678,180.8923,159.2633,175.9796,164.176,173.175,154.44,174.662" style="stroke:#181818;stroke-width:1.0;"/></g><!--link eliminarCurso to abrirCursos--><g id="link_eliminarCurso_abrirCursos"><path d="M102,141.952 C102,126.202 102,109.792 102,94.312 " fill="none" id="eliminarCurso-to-abrirCursos" style="stroke:#181818;stroke-width:1.0;stroke-dasharray:7.0,7.0;"/><polygon fill="#181818" points="102,88.312,98,97.312,102,93.312,106,97.312,102,88.312" style="stroke:#181818;stroke-width:1.0;"/><text fill="#000000" font-family="sans-serif" font-size="13" lengthAdjust="spacing" textLength="57" x="61" y="120.499">&#171;include&#187;</text></g><!--link eliminarPrograma to abrirProgramas--><g id="link_eliminarPrograma_abrirProgramas"><path d="M577,86.142 C577,102.002 577,117.792 577,133.332 " fill="none" id="eliminarPrograma-to-abrirProgramas" style="stroke:#181818;stroke-width:1.0;stroke-dasharray:7.0,7.0;"/><polygon fill="#181818" points="577,139.332,581,130.332,577,134.332,573,130.332,577,139.332" style="stroke:#181818;stroke-width:1.0;"/><text fill="#000000" font-family="sans-serif" font-size="13" lengthAdjust="spacing" textLength="57" x="536" y="118.249">&#171;include&#187;</text></g><!--SRC=[TP91ReGm34NtEON52XRq01L2ghfebxs2cxZKAaCg9wogdcgEC1ShC3DDd67O-VzlesTdf8y8qOFmy1d1iP2Dx2TZq4OlK3sv0qySeg1RIaVmwWM5VQW00-3g6lEDzWi7Wkg5GkJJSLg3R-87mGCkoHy3opS7iXW8h13ArLsdL4gfcqh5yLtutmnRNajb0pcEnG-qTDCmye9HjXJYslHx1_Lvbk3tEJShGMxbBk5vHi8xr_jiQMXMtwFAmhbouTak26tRGwskqEIEthUoz6QrLMomCQPEIsYWQzlB0wepOgLdU5hFINB7QEg7NYtt4RgE9plEZlhUt9pzcawFJJVy0G00]--></g></svg>