<?xml version="1.0" encoding="us-ascii" standalone="no"?><svg xmlns="http://www.w3.org/2000/svg" xmlns:xlink="http://www.w3.org/1999/xlink" contentStyleType="text/css" height="1126px" preserveAspectRatio="none" style="width:1746px;height:1126px;background:#FFFFFF;" version="1.1" viewBox="0 0 1746 1126" width="1746px" zoomAndPan="magnify"><defs/><g><g id="NoAuth"><rect fill="#F1F1F1" height="50" rx="12.5" ry="12.5" style="stroke:#181818;stroke-width:0.5;" width="140" x="87" y="645"/><line style="stroke:#181818;stroke-width:0.5;" x1="87" x2="227" y1="674.0679" y2="674.0679"/><text fill="#000000" font-family="sans-serif" font-size="14" lengthAdjust="spacing" textLength="120" x="97" y="664.9659">SESION_CERRADA</text></g><g id="Menu"><rect fill="#F1F1F1" height="50" rx="12.5" ry="12.5" style="stroke:#181818;stroke-width:0.5;" width="167" x="371" y="645"/><line style="stroke:#181818;stroke-width:0.5;" x1="371" x2="538" y1="674.0679" y2="674.0679"/><text fill="#000000" font-family="sans-serif" font-size="14" lengthAdjust="spacing" textLength="147" x="381" y="664.9659">SISTEMA_DISPONIBLE</text></g><g id="ListProgramas"><rect fill="#F1F1F1" height="50" rx="12.5" ry="12.5" style="stroke:#181818;stroke-width:0.5;" width="171" x="722.5" y="129"/><line style="stroke:#181818;stroke-width:0.5;" x1="722.5" x2="893.5" y1="158.0679" y2="158.0679"/><text fill="#000000" font-family="sans-serif" font-size="14" lengthAdjust="spacing" textLength="151" x="732.5" y="148.9659">PROGRAMAS_ABIERTO</text></g><g id="EditPrograma"><rect fill="#F1F1F1" height="50" rx="12.5" ry="12.5" style="stroke:#181818;stroke-width:0.5;" width="163" x="1059" y="70"/><line style="stroke:#181818;stroke-width:0.5;" x1="1059" x2="1222" y1="99.0679" y2="99.0679"/><text fill="#000000" font-family="sans-serif" font-size="14" lengthAdjust="spacing" textLength="143" x="1069" y="89.9659">PROGRAMA_ABIERTO</text></g><g id="ListCursos"><rect fill="#F1F1F1" height="50" rx="12.5" ry="12.5" style="stroke:#181818;stroke-width:0.5;" width="140" x="738" y="306"/><line style="stroke:#181818;stroke-width:0.5;" x1="738" x2="878" y1="335.0679" y2="335.0679"/><text fill="#000000" font-family="sans-serif" font-size="14" lengthAdjust="spacing" textLength="120" x="748" y="325.9659">CURSOS_ABIERTO</text></g><g id="EditCurso"><rect fill="#F1F1F1" height="50" rx="12.5" ry="12.5" style="stroke:#181818;stroke-width:0.5;" width="132" x="1074.5" y="247"/><line style="stroke:#181818;stroke-width:0.5;" x1="1074.5" x2="1206.5" y1="276.0679" y2="276.0679"/><text fill="#000000" font-family="sans-serif" font-size="14" lengthAdjust="spacing" textLength="112" x="1084.5" y="266.9659">CURSO_ABIERTO</text></g><g id="ListProfesores"><rect fill="#F1F1F1" height="50" rx="12.5" ry="12.5" style="stroke:#181818;stroke-width:0.5;" width="172" x="722" y="438"/><line style="stroke:#181818;stroke-width:0.5;" x1="722" x2="894" y1="467.0679" y2="467.0679"/><text fill="#000000" font-family="sans-serif" font-size="14" lengthAdjust="spacing" textLength="152" x="732" y="457.9659">PROFESORES_ABIERTO</text></g><g id="EditProfesor"><rect fill="#F1F1F1" height="50" rx="12.5" ry="12.5" style="stroke:#181818;stroke-width:0.5;" width="156" x="1062.5" y="424"/><line style="stroke:#181818;stroke-width:0.5;" x1="1062.5" x2="1218.5" y1="453.0679" y2="453.0679"/><text fill="#000000" font-family="sans-serif" font-size="14" lengthAdjust="spacing" textLength="136" x="1072.5" y="443.9659">PROFESOR_ABIERTO</text></g><g id="EditProfesorPreferencias"><rect fill="#F1F1F1" height="50" rx="12.5" ry="12.5" style="stroke:#181818;stroke-width:0.5;" width="261" x="1478" y="374"/><line style="stroke:#181818;stroke-width:0.5;" x1="1478" x2="1739" y1="403.0679" y2="403.0679"/><text fill="#000000" font-family="sans-serif" font-size="14" lengthAdjust="spacing" textLength="241" x="1488" y="393.9659">PROFESOR_PREFERENCIAS_ABIERTO</text></g><g id="ListEdificios"><rect fill="#F1F1F1" height="50" rx="12.5" ry="12.5" style="stroke:#181818;stroke-width:0.5;" width="153" x="731.5" y="601"/><line style="stroke:#181818;stroke-width:0.5;" x1="731.5" x2="884.5" y1="630.0679" y2="630.0679"/><text fill="#000000" font-family="sans-serif" font-size="14" lengthAdjust="spacing" textLength="133" x="741.5" y="620.9659">EDIFICIOS_ABIERTO</text></g><g id="EditEdificio"><rect fill="#F1F1F1" height="50" rx="12.5" ry="12.5" style="stroke:#181818;stroke-width:0.5;" width="145" x="1068" y="601"/><line style="stroke:#181818;stroke-width:0.5;" x1="1068" x2="1213" y1="630.0679" y2="630.0679"/><text fill="#000000" font-family="sans-serif" font-size="14" lengthAdjust="spacing" textLength="125" x="1078" y="620.9659">EDIFICIO_ABIERTO</text></g><g id="ListAulas"><rect fill="#F1F1F1" height="50" rx="12.5" ry="12.5" style="stroke:#181818;stroke-width:0.5;" width="128" x="744" y="733"/><line style="stroke:#181818;stroke-width:0.5;" x1="744" x2="872" y1="762.0679" y2="762.0679"/><text fill="#000000" font-family="sans-serif" font-size="14" lengthAdjust="spacing" textLength="108" x="754" y="752.9659">AULAS_ABIERTO</text></g><g id="EditAula"><rect fill="#F1F1F1" height="50" rx="12.5" ry="12.5" style="stroke:#181818;stroke-width:0.5;" width="118" x="1081.5" y="778"/><line style="stroke:#181818;stroke-width:0.5;" x1="1081.5" x2="1199.5" y1="807.0679" y2="807.0679"/><text fill="#000000" font-family="sans-serif" font-size="14" lengthAdjust="spacing" textLength="98" x="1091.5" y="797.9659">AULA_ABIERTA</text></g><g id="ListRecursos"><rect fill="#F1F1F1" height="50" rx="12.5" ry="12.5" style="stroke:#181818;stroke-width:0.5;" width="157" x="729.5" y="884"/><line style="stroke:#181818;stroke-width:0.5;" x1="729.5" x2="886.5" y1="913.0679" y2="913.0679"/><text fill="#000000" font-family="sans-serif" font-size="14" lengthAdjust="spacing" textLength="137" x="739.5" y="903.9659">RECURSOS_ABIERTO</text></g><g id="EditRecurso"><rect fill="#F1F1F1" height="50" rx="12.5" ry="12.5" style="stroke:#181818;stroke-width:0.5;" width="149" x="1066" y="955"/><line style="stroke:#181818;stroke-width:0.5;" x1="1066" x2="1215" y1="984.0679" y2="984.0679"/><text fill="#000000" font-family="sans-serif" font-size="14" lengthAdjust="spacing" textLength="129" x="1076" y="974.9659">RECURSO_ABIERTO</text></g><g id="Asignaciones"><rect fill="#F1F1F1" height="50" rx="12.5" ry="12.5" style="stroke:#181818;stroke-width:0.5;" width="258" x="1479.5" y="475"/><line style="stroke:#181818;stroke-width:0.5;" x1="1479.5" x2="1737.5" y1="504.0679" y2="504.0679"/><text fill="#000000" font-family="sans-serif" font-size="14" lengthAdjust="spacing" textLength="238" x="1489.5" y="494.9659">PROFESOR_ASIGNATURAS_ABIERTO</text></g><g id="Generacion"><rect fill="#F1F1F1" height="50" rx="12.5" ry="12.5" style="stroke:#181818;stroke-width:0.5;" width="166" x="725" y="969"/><line style="stroke:#181818;stroke-width:0.5;" x1="725" x2="891" y1="998.0679" y2="998.0679"/><text fill="#000000" font-family="sans-serif" font-size="14" lengthAdjust="spacing" textLength="146" x="735" y="988.9659">HORARIO_GENERADO</text></g><g id="Consulta"><rect fill="#F1F1F1" height="50" rx="12.5" ry="12.5" style="stroke:#181818;stroke-width:0.5;" width="149" x="733.5" y="1070"/><line style="stroke:#181818;stroke-width:0.5;" x1="733.5" x2="882.5" y1="1099.0679" y2="1099.0679"/><text fill="#000000" font-family="sans-serif" font-size="14" lengthAdjust="spacing" textLength="129" x="743.5" y="1089.9659">HORARIO_ABIERTO</text></g><ellipse cx="16" cy="670" fill="#222222" rx="10" ry="10" style="stroke:#222222;stroke-width:1.0;"/><!--link *start* to NoAuth--><g id="link_*start*_NoAuth"><path d="M26.12,670 C38.8,670 56.93,670 80.98,670 " fill="none" id="*start*-to-NoAuth" style="stroke:#181818;stroke-width:1.0;"/><polygon fill="#181818" points="86.98,670,77.98,666,81.98,670,77.98,674,86.98,670" style="stroke:#181818;stroke-width:1.0;"/></g><!--link NoAuth to Menu--><g id="link_NoAuth_Menu"><path d="M227.28,670 C270.27,670 319.74,670 365,670 " fill="none" id="NoAuth-to-Menu" style="stroke:#181818;stroke-width:1.0;"/><polygon fill="#181818" points="371,670,362,666,366,670,362,674,371,670" style="stroke:#181818;stroke-width:1.0;"/><text fill="#000000" font-family="sans-serif" font-size="13" lengthAdjust="spacing" textLength="82" x="258" y="665.897">iniciarSesion()</text></g><!--link Menu to NoAuth--><g id="link_Menu_NoAuth"><path d="M370.85,689.84 C353.84,693.92 341,697 341,697 C341,697 257,697 257,697 C257,697 249.5787,694.9784 232.8187,690.4084 " fill="none" id="Menu-to-NoAuth" style="stroke:#181818;stroke-width:1.0;"/><polygon fill="#181818" points="227.03,688.83,234.6607,695.0567,231.8539,690.1453,236.7653,687.3385,227.03,688.83" style="stroke:#181818;stroke-width:1.0;"/><text fill="#000000" font-family="sans-serif" font-size="13" lengthAdjust="spacing" textLength="82" x="258" y="692.897">cerrarSesion()</text></g><!--link Menu to ListProgramas--><g id="link_Menu_ListProgramas"><path d="M461.79,644.73 C485.48,549.54 568,218 568,218 C568,218 647.8542,196.612 716.6042,178.202 " fill="none" id="Menu-to-ListProgramas" style="stroke:#181818;stroke-width:1.0;"/><polygon fill="#181818" points="722.4,176.65,712.6716,175.1141,717.5702,177.9433,714.741,182.8419,722.4,176.65" style="stroke:#181818;stroke-width:1.0;"/><text fill="#000000" font-family="sans-serif" font-size="13" lengthAdjust="spacing" textLength="102" x="579" y="181.897">abrirProgramas()</text></g><!--link ListProgramas to Menu--><g id="link_ListProgramas_Menu"><path d="M775.27,179.11 C741.23,206.04 692,245 692,245 C692,245 568,326 568,326 C568,326 491.4351,560.1173 465.5451,639.2773 " fill="none" id="ListProgramas-to-Menu" style="stroke:#181818;stroke-width:1.0;"/><polygon fill="#181818" points="463.68,644.98,470.2795,637.6693,465.2343,640.2277,462.6759,635.1825,463.68,644.98" style="stroke:#181818;stroke-width:1.0;"/><text fill="#000000" font-family="sans-serif" font-size="13" lengthAdjust="spacing" textLength="115" x="572.5" y="240.897">completarGestion()</text></g><!--link Menu to ListCursos--><g id="link_Menu_ListCursos"><path d="M465.09,644.76 C492.3,573.18 568,374 568,374 C568,374 661.3848,357.2026 731.9648,344.5026 " fill="none" id="Menu-to-ListCursos" style="stroke:#181818;stroke-width:1.0;"/><polygon fill="#181818" points="737.87,343.44,728.3039,341.0971,732.949,344.3255,729.7206,348.9706,737.87,343.44" style="stroke:#181818;stroke-width:1.0;"/><text fill="#000000" font-family="sans-serif" font-size="13" lengthAdjust="spacing" textLength="77" x="591.5" y="348.897">abrirCursos()</text></g><!--link ListCursos to Menu--><g id="link_ListCursos_Menu"><path d="M756.08,356.16 C737.98,365.1 722,373 722,373 C722,373 692,401 692,401 C692,401 568,456 568,456 C568,456 501.4418,582.6091 471.6418,639.2991 " fill="none" id="ListCursos-to-Menu" style="stroke:#181818;stroke-width:1.0;"/><polygon fill="#181818" points="468.85,644.61,476.5783,638.5048,471.1765,640.1842,469.497,634.7824,468.85,644.61" style="stroke:#181818;stroke-width:1.0;"/><text fill="#000000" font-family="sans-serif" font-size="13" lengthAdjust="spacing" textLength="115" x="572.5" y="396.897">completarGestion()</text></g><!--link Menu to ListProfesores--><g id="link_Menu_ListProfesores"><path d="M472.34,644.85 C503.73,597.98 568,502 568,502 C568,502 647.1683,489.0762 715.8083,477.8762 " fill="none" id="Menu-to-ListProfesores" style="stroke:#181818;stroke-width:1.0;"/><polygon fill="#181818" points="721.73,476.91,712.2033,474.4116,716.7953,477.7152,713.4916,482.3072,721.73,476.91" style="stroke:#181818;stroke-width:1.0;"/><text fill="#000000" font-family="sans-serif" font-size="13" lengthAdjust="spacing" textLength="100" x="580" y="478.897">abrirProfesores()</text></g><!--link ListProfesores to Menu--><g id="link_ListProfesores_Menu"><path d="M763.2,488.14 C730.7,506.79 692,529 692,529 C692,529 568,593 568,593 C568,593 530.1011,618.9408 497.2911,641.4008 " fill="none" id="ListProfesores-to-Menu" style="stroke:#181818;stroke-width:1.0;"/><polygon fill="#181818" points="492.34,644.79,502.0261,643.0069,496.4659,641.9656,497.5071,636.4054,492.34,644.79" style="stroke:#181818;stroke-width:1.0;"/><text fill="#000000" font-family="sans-serif" font-size="13" lengthAdjust="spacing" textLength="115" x="572.5" y="524.897">completarGestion()</text></g><!--link Menu to ListEdificios--><g id="link_Menu_ListEdificios"><path d="M512.08,644.85 C540.09,632.4 568,620 568,620 C568,620 692,620 692,620 C692,620 703.7282,620.6055 725.2582,621.7355 " fill="none" id="Menu-to-ListEdificios" style="stroke:#181818;stroke-width:1.0;"/><polygon fill="#181818" points="731.25,622.05,722.472,617.5838,726.2569,621.7879,722.0527,625.5728,731.25,622.05" style="stroke:#181818;stroke-width:1.0;"/><text fill="#000000" font-family="sans-serif" font-size="13" lengthAdjust="spacing" textLength="84" x="588" y="615.897">abrirEdificios()</text></g><!--link ListEdificios to Menu--><g id="link_ListEdificios_Menu"><path d="M731.25,639.83 C709.72,643.76 692,647 692,647 C692,647 612.3918,654.7386 544.1918,661.3786 " fill="none" id="ListEdificios-to-Menu" style="stroke:#181818;stroke-width:1.0;"/><polygon fill="#181818" points="538.22,661.96,547.5653,665.0691,543.1965,661.4755,546.79,657.1067,538.22,661.96" style="stroke:#181818;stroke-width:1.0;"/><text fill="#000000" font-family="sans-serif" font-size="13" lengthAdjust="spacing" textLength="115" x="572.5" y="642.897">completarGestion()</text></g><!--link Menu to ListAulas--><g id="link_Menu_ListAulas"><path d="M538.36,690.74 C601.28,706.5 680.6696,726.3729 738.1096,740.7529 " fill="none" id="Menu-to-ListAulas" style="stroke:#181818;stroke-width:1.0;"/><polygon fill="#181818" points="743.93,742.21,736.1708,736.1441,739.0797,740.9957,734.228,743.9046,743.93,742.21" style="stroke:#181818;stroke-width:1.0;"/><text fill="#000000" font-family="sans-serif" font-size="13" lengthAdjust="spacing" textLength="68" x="596" y="693.897">abrirAulas()</text></g><!--link ListAulas to Menu--><g id="link_ListAulas_Menu"><path d="M743.89,756.94 C673.08,755.76 568,754 568,754 C568,754 527.1973,723.5402 494.0573,698.7902 " fill="none" id="ListAulas-to-Menu" style="stroke:#181818;stroke-width:1.0;"/><polygon fill="#181818" points="489.25,695.2,494.0675,703.7902,493.2561,698.1919,498.8544,697.3805,489.25,695.2" style="stroke:#181818;stroke-width:1.0;"/><text fill="#000000" font-family="sans-serif" font-size="13" lengthAdjust="spacing" textLength="115" x="572.5" y="749.897">completarGestion()</text></g><!--link Menu to ListRecursos--><g id="link_Menu_ListRecursos"><path d="M480.47,695.08 C513.61,728.37 568,783 568,783 C568,783 684.4926,844.4116 754.1926,881.1616 " fill="none" id="Menu-to-ListRecursos" style="stroke:#181818;stroke-width:1.0;"/><polygon fill="#181818" points="759.5,883.96,753.4044,876.2241,755.0771,881.628,749.6732,883.3007,759.5,883.96" style="stroke:#181818;stroke-width:1.0;"/><text fill="#000000" font-family="sans-serif" font-size="13" lengthAdjust="spacing" textLength="90" x="585" y="778.897">abrirRecursos()</text></g><!--link ListRecursos to Menu--><g id="link_ListRecursos_Menu"><path d="M729.4,897.31 C659.62,886.8 568,873 568,873 C568,873 502.5885,754.9679 472.4285,700.5479 " fill="none" id="ListRecursos-to-Menu" style="stroke:#181818;stroke-width:1.0;"/><polygon fill="#181818" points="469.52,695.3,470.384,705.1109,471.9437,699.6733,477.3813,701.2329,469.52,695.3" style="stroke:#181818;stroke-width:1.0;"/><text fill="#000000" font-family="sans-serif" font-size="13" lengthAdjust="spacing" textLength="115" x="572.5" y="868.897">completarGestion()</text></g><!--link Menu to Generacion--><g id="link_Menu_Generacion"><path d="M466.91,695.14 C495.51,758.19 568,918 568,918 C568,918 652.7419,944.9524 722.3619,967.0824 " fill="none" id="Menu-to-Generacion" style="stroke:#181818;stroke-width:1.0;"/><polygon fill="#181818" points="728.08,968.9,720.7146,962.3616,723.3149,967.3853,718.2912,969.9857,728.08,968.9" style="stroke:#181818;stroke-width:1.0;"/><text fill="#000000" font-family="sans-serif" font-size="13" lengthAdjust="spacing" textLength="101" x="579.5" y="913.897">generarHorario()</text></g><!--link Generacion to Menu--><g id="link_Generacion_Menu"><path d="M724.75,990.21 C655.62,987.03 568,983 568,983 C568,983 493.2391,775.0065 466.5491,700.7365 " fill="none" id="Generacion-to-Menu" style="stroke:#181818;stroke-width:1.0;"/><polygon fill="#181818" points="464.52,695.09,463.7994,704.9125,466.2109,699.7954,471.328,702.2069,464.52,695.09" style="stroke:#181818;stroke-width:1.0;"/><text fill="#000000" font-family="sans-serif" font-size="13" lengthAdjust="spacing" textLength="117" x="571.5" y="978.897">completarProceso()</text></g><!--link Menu to Consulta--><g id="link_Menu_Consulta"><path d="M463.68,695.09 C489.57,774.48 568,1015 568,1015 C568,1015 657.4302,1044.9358 727.6502,1068.4358 " fill="none" id="Menu-to-Consulta" style="stroke:#181818;stroke-width:1.0;"/><polygon fill="#181818" points="733.34,1070.34,726.0747,1063.6905,728.5985,1068.7532,723.5358,1071.277,733.34,1070.34" style="stroke:#181818;stroke-width:1.0;"/><text fill="#000000" font-family="sans-serif" font-size="13" lengthAdjust="spacing" textLength="110" x="575" y="1010.897">consultarHorario()</text></g><!--link Consulta to Menu--><g id="link_Consulta_Menu"><path d="M733.34,1090.99 C663.12,1087.17 568,1082 568,1082 C568,1082 488.3702,790.3882 463.9502,700.9382 " fill="none" id="Consulta-to-Menu" style="stroke:#181818;stroke-width:1.0;"/><polygon fill="#181818" points="462.37,695.15,460.8815,704.8857,463.6868,699.9735,468.5991,702.7788,462.37,695.15" style="stroke:#181818;stroke-width:1.0;"/><text fill="#000000" font-family="sans-serif" font-size="13" lengthAdjust="spacing" textLength="122" x="569" y="1077.897">completarConsulta()</text></g><!--link EditProfesor to Asignaciones--><g id="link_EditProfesor_Asignaciones"><path d="M1218.55,462.25 C1237.26,465.47 1252,468 1252,468 C1252,468 1371.5542,478.7621 1473.4342,487.9321 " fill="none" id="EditProfesor-to-Asignaciones" style="stroke:#181818;stroke-width:1.0;"/><polygon fill="#181818" points="1479.41,488.47,1470.8048,483.6793,1474.4301,488.0218,1470.0877,491.6471,1479.41,488.47" style="stroke:#181818;stroke-width:1.0;"/><text fill="#000000" font-family="sans-serif" font-size="13" lengthAdjust="spacing" textLength="146" x="1277" y="463.897">asignarProfesorACurso()</text></g><!--link Asignaciones to EditProfesor--><g id="link_Asignaciones_EditProfesor"><path d="M1479.13,509.66 C1460.79,511.04 1448,512 1448,512 C1448,512 1252,512 1252,512 C1252,512 1221.5121,494.6223 1190.7021,477.0523 " fill="none" id="Asignaciones-to-EditProfesor" style="stroke:#181818;stroke-width:1.0;"/><polygon fill="#181818" points="1185.49,474.08,1191.3266,482.0131,1189.8334,476.5569,1195.2896,475.0637,1185.49,474.08" style="stroke:#181818;stroke-width:1.0;"/><text fill="#000000" font-family="sans-serif" font-size="13" lengthAdjust="spacing" textLength="94" x="1303" y="507.897">editarProfesor()</text></g><!--link ListProgramas to EditPrograma--><g id="link_ListProgramas_EditPrograma"><path d="M845.7,128.79 C879.36,105.67 924,75 924,75 C924,75 1029,75 1029,75 C1029,75 1036.0056,76.2731 1052.9956,79.3431 " fill="none" id="ListProgramas-to-EditPrograma" style="stroke:#181818;stroke-width:1.0;"/><polygon fill="#181818" points="1058.9,80.41,1050.7547,74.8734,1053.9797,79.5209,1049.3322,82.7459,1058.9,80.41" style="stroke:#181818;stroke-width:1.0;"/><text fill="#000000" font-family="sans-serif" font-size="13" lengthAdjust="spacing" textLength="98" x="927.5" y="70.897">crearPrograma()</text></g><!--link ListProgramas to EditPrograma--><g id="link_ListProgramas_EditPrograma"><path d="M893.68,138.88 C944.46,129.82 1002.7732,119.4037 1052.8332,110.4737 " fill="none" id="ListProgramas-to-EditPrograma-1" style="stroke:#181818;stroke-width:1.0;"/><polygon fill="#181818" points="1058.74,109.42,1049.1774,107.0627,1053.8177,110.2981,1050.5823,114.9384,1058.74,109.42" style="stroke:#181818;stroke-width:1.0;"/><text fill="#000000" font-family="sans-serif" font-size="13" lengthAdjust="spacing" textLength="103" x="925" y="111.897">editarPrograma()</text></g><!--link EditPrograma to ListProgramas--><g id="link_EditPrograma_ListProgramas"><path d="M1097.41,120.14 C1066.18,138.79 1029,161 1029,161 C1029,161 924,161 924,161 C924,161 917.0089,160.575 899.7789,159.525 " fill="none" id="EditPrograma-to-ListProgramas" style="stroke:#181818;stroke-width:1.0;"/><polygon fill="#181818" points="893.79,159.16,902.53,163.7,898.7807,159.4641,903.0166,155.7149,893.79,159.16" style="stroke:#181818;stroke-width:1.0;"/><text fill="#000000" font-family="sans-serif" font-size="13" lengthAdjust="spacing" textLength="102" x="925.5" y="156.897">abrirProgramas()</text></g><!--link ListProgramas to ListProgramas--><g id="link_ListProgramas_ListProgramas"><path d="M779.58,128.72 C770.96,111.23 780.44,94 808,94 C835.56,94 847.6925,105.8481 839.0725,123.3381 " fill="none" id="ListProgramas-to-ListProgramas" style="stroke:#181818;stroke-width:1.0;"/><polygon fill="#181818" points="836.42,128.72,843.9866,122.4155,838.6304,124.2351,836.8108,118.8789,836.42,128.72" style="stroke:#181818;stroke-width:1.0;"/><text fill="#000000" font-family="sans-serif" font-size="13" lengthAdjust="spacing" textLength="116" x="750" y="84.897">eliminarPrograma()</text></g><!--link EditPrograma to EditPrograma--><g id="link_EditPrograma_EditPrograma"><path d="M1112.75,69.72 C1104.34,52.23 1113.59,35 1140.5,35 C1167.41,35 1179.2601,46.8226 1170.8501,64.3126 " fill="none" id="EditPrograma-to-EditPrograma" style="stroke:#181818;stroke-width:1.0;"/><polygon fill="#181818" points="1168.25,69.72,1175.7551,63.3424,1170.4168,65.2139,1168.5453,59.8756,1168.25,69.72" style="stroke:#181818;stroke-width:1.0;"/><text fill="#000000" font-family="sans-serif" font-size="13" lengthAdjust="spacing" textLength="103" x="1089" y="25.897">editarPrograma()</text></g><!--link ListCursos to EditCurso--><g id="link_ListCursos_EditCurso"><path d="M845.7,305.79 C879.36,282.67 924,252 924,252 C924,252 1029,252 1029,252 C1029,252 1044.436,254.7912 1068.356,259.1212 " fill="none" id="ListCursos-to-EditCurso" style="stroke:#181818;stroke-width:1.0;"/><polygon fill="#181818" points="1074.26,260.19,1066.1164,254.6508,1069.34,259.2994,1064.6914,262.5229,1074.26,260.19" style="stroke:#181818;stroke-width:1.0;"/><text fill="#000000" font-family="sans-serif" font-size="13" lengthAdjust="spacing" textLength="73" x="940" y="247.897">crearCurso()</text></g><!--link ListCursos to EditCurso--><g id="link_ListCursos_EditCurso"><path d="M878.28,318.63 C936.02,308.33 1011.7534,294.8044 1068.3334,284.7044 " fill="none" id="ListCursos-to-EditCurso-1" style="stroke:#181818;stroke-width:1.0;"/><polygon fill="#181818" points="1074.24,283.65,1064.6771,281.2938,1069.3178,284.5287,1066.083,289.1693,1074.24,283.65" style="stroke:#181818;stroke-width:1.0;"/><text fill="#000000" font-family="sans-serif" font-size="13" lengthAdjust="spacing" textLength="78" x="937.5" y="288.897">editarCurso()</text></g><!--link EditCurso to ListCursos--><g id="link_EditCurso_ListCursos"><path d="M1097.41,297.14 C1066.18,315.79 1029,338 1029,338 C1029,338 924,338 924,338 C924,338 908.5588,337.0665 884.2088,335.5765 " fill="none" id="EditCurso-to-ListCursos" style="stroke:#181818;stroke-width:1.0;"/><polygon fill="#181818" points="878.22,335.21,886.9589,339.7522,883.2107,335.5154,887.4475,331.7672,878.22,335.21" style="stroke:#181818;stroke-width:1.0;"/><text fill="#000000" font-family="sans-serif" font-size="13" lengthAdjust="spacing" textLength="77" x="938" y="333.897">abrirCursos()</text></g><!--link ListCursos to ListCursos--><g id="link_ListCursos_ListCursos"><path d="M779.58,305.72 C770.96,288.23 780.44,271 808,271 C835.56,271 847.6925,282.8481 839.0725,300.3381 " fill="none" id="ListCursos-to-ListCursos" style="stroke:#181818;stroke-width:1.0;"/><polygon fill="#181818" points="836.42,305.72,843.9866,299.4155,838.6304,301.2351,836.8108,295.8789,836.42,305.72" style="stroke:#181818;stroke-width:1.0;"/><text fill="#000000" font-family="sans-serif" font-size="13" lengthAdjust="spacing" textLength="91" x="762.5" y="261.897">eliminarCurso()</text></g><!--link EditCurso to EditCurso--><g id="link_EditCurso_EditCurso"><path d="M1112.75,246.72 C1104.34,229.23 1113.59,212 1140.5,212 C1167.41,212 1179.2601,223.8226 1170.8501,241.3126 " fill="none" id="EditCurso-to-EditCurso" style="stroke:#181818;stroke-width:1.0;"/><polygon fill="#181818" points="1168.25,246.72,1175.7551,240.3424,1170.4168,242.2139,1168.5453,236.8756,1168.25,246.72" style="stroke:#181818;stroke-width:1.0;"/><text fill="#000000" font-family="sans-serif" font-size="13" lengthAdjust="spacing" textLength="78" x="1101.5" y="202.897">editarCurso()</text></g><!--link ListProfesores to EditProfesor--><g id="link_ListProfesores_EditProfesor"><path d="M893.79,437.93 C911.02,432.84 924,429 924,429 C924,429 1029,429 1029,429 C1029,429 1037.8356,430.6034 1056.5456,433.9834 " fill="none" id="ListProfesores-to-EditProfesor" style="stroke:#181818;stroke-width:1.0;"/><polygon fill="#181818" points="1062.45,435.05,1054.3045,429.5137,1057.5296,434.1611,1052.8823,437.3863,1062.45,435.05" style="stroke:#181818;stroke-width:1.0;"/><text fill="#000000" font-family="sans-serif" font-size="13" lengthAdjust="spacing" textLength="89" x="932" y="424.897">crearProfesor()</text></g><!--link ListProfesores to EditProfesor--><g id="link_ListProfesores_EditProfesor"><path d="M894.06,460.29 C955.97,458.32 1029,456 1029,456 C1029,456 1037.7521,455.4508 1056.4621,454.2608 " fill="none" id="ListProfesores-to-EditProfesor-1" style="stroke:#181818;stroke-width:1.0;"/><polygon fill="#181818" points="1062.45,453.88,1053.2143,450.4593,1057.4601,454.1974,1053.722,458.4432,1062.45,453.88" style="stroke:#181818;stroke-width:1.0;"/><text fill="#000000" font-family="sans-serif" font-size="13" lengthAdjust="spacing" textLength="94" x="929.5" y="451.897">editarProfesor()</text></g><!--link EditProfesor to ListProfesores--><g id="link_EditProfesor_ListProfesores"><path d="M1066.72,474.03 C1046.03,481.14 1029,487 1029,487 C1029,487 924,487 924,487 C924,487 917.0438,485.5443 899.9638,481.9843 " fill="none" id="EditProfesor-to-ListProfesores" style="stroke:#181818;stroke-width:1.0;"/><polygon fill="#181818" points="894.09,480.76,902.0845,486.5123,898.9848,481.7802,903.7168,478.6806,894.09,480.76" style="stroke:#181818;stroke-width:1.0;"/><text fill="#000000" font-family="sans-serif" font-size="13" lengthAdjust="spacing" textLength="100" x="926.5" y="482.897">abrirProfesores()</text></g><!--link ListProfesores to ListProfesores--><g id="link_ListProfesores_ListProfesores"><path d="M779.58,437.72 C770.96,420.23 780.44,403 808,403 C835.56,403 847.6925,414.8481 839.0725,432.3381 " fill="none" id="ListProfesores-to-ListProfesores" style="stroke:#181818;stroke-width:1.0;"/><polygon fill="#181818" points="836.42,437.72,843.9866,431.4155,838.6304,433.2351,836.8108,427.8789,836.42,437.72" style="stroke:#181818;stroke-width:1.0;"/><text fill="#000000" font-family="sans-serif" font-size="13" lengthAdjust="spacing" textLength="107" x="754.5" y="393.897">eliminarProfesor()</text></g><!--link EditProfesor to EditProfesor--><g id="link_EditProfesor_EditProfesor"><path d="M1112.75,423.72 C1104.34,406.23 1113.59,389 1140.5,389 C1167.41,389 1179.2601,400.8226 1170.8501,418.3126 " fill="none" id="EditProfesor-to-EditProfesor" style="stroke:#181818;stroke-width:1.0;"/><polygon fill="#181818" points="1168.25,423.72,1175.7551,417.3424,1170.4168,419.2139,1168.5453,413.8756,1168.25,423.72" style="stroke:#181818;stroke-width:1.0;"/><text fill="#000000" font-family="sans-serif" font-size="13" lengthAdjust="spacing" textLength="94" x="1093.5" y="379.897">editarProfesor()</text></g><!--link EditProfesor to EditProfesorPreferencias--><g id="link_EditProfesor_EditProfesorPreferencias"><path d="M1198.04,423.93 C1225.23,411.87 1252,400 1252,400 C1252,400 1370.3,399.6671 1471.9,399.3771 " fill="none" id="EditProfesor-to-EditProfesorPreferencias" style="stroke:#181818;stroke-width:1.0;"/><polygon fill="#181818" points="1477.9,399.36,1468.8886,395.3857,1472.9,399.3743,1468.9115,403.3857,1477.9,399.36" style="stroke:#181818;stroke-width:1.0;"/><text fill="#000000" font-family="sans-serif" font-size="13" lengthAdjust="spacing" textLength="194" x="1253" y="395.897">configurarPreferenciasProfesor()</text></g><!--link EditProfesorPreferencias to EditProfesor--><g id="link_EditProfesorPreferencias_EditProfesor"><path d="M1477.63,421.8 C1460.1,424.88 1448,427 1448,427 C1448,427 1315.6246,436.5003 1224.8246,443.0203 " fill="none" id="EditProfesorPreferencias-to-EditProfesor" style="stroke:#181818;stroke-width:1.0;"/><polygon fill="#181818" points="1218.84,443.45,1228.1034,446.7951,1223.8272,443.0919,1227.5304,438.8157,1218.84,443.45" style="stroke:#181818;stroke-width:1.0;"/><text fill="#000000" font-family="sans-serif" font-size="13" lengthAdjust="spacing" textLength="130" x="1285" y="422.897">abrirEdicionProfesor()</text></g><!--link ListEdificios to EditEdificio--><g id="link_ListEdificios_EditEdificio"><path d="M884.75,612.83 C906.28,609.08 924,606 924,606 C924,606 1029,606 1029,606 C1029,606 1040.8056,608.143 1062.0556,611.983 " fill="none" id="ListEdificios-to-EditEdificio" style="stroke:#181818;stroke-width:1.0;"/><polygon fill="#181818" points="1067.96,613.05,1059.8147,607.5133,1063.0397,612.1609,1058.3921,615.3858,1067.96,613.05" style="stroke:#181818;stroke-width:1.0;"/><text fill="#000000" font-family="sans-serif" font-size="13" lengthAdjust="spacing" textLength="80" x="936.5" y="601.897">crearEdificio()</text></g><!--link ListEdificios to EditEdificio--><g id="link_ListEdificios_EditEdificio"><path d="M884.75,630.61 C906.28,631.92 924,633 924,633 C924,633 1029,633 1029,633 C1029,633 1040.7221,632.2604 1061.9721,630.9104 " fill="none" id="ListEdificios-to-EditEdificio-1" style="stroke:#181818;stroke-width:1.0;"/><polygon fill="#181818" points="1067.96,630.53,1058.7245,627.1087,1062.9701,630.847,1059.2317,635.0926,1067.96,630.53" style="stroke:#181818;stroke-width:1.0;"/><text fill="#000000" font-family="sans-serif" font-size="13" lengthAdjust="spacing" textLength="85" x="934" y="628.897">editarEdificio()</text></g><!--link EditEdificio to ListEdificios--><g id="link_EditEdificio_ListEdificios"><path d="M1067.96,648.01 C1046.71,654.55 1029,660 1029,660 C1029,660 924,660 924,660 C924,660 912.0335,656.4623 890.5035,650.0923 " fill="none" id="EditEdificio-to-ListEdificios" style="stroke:#181818;stroke-width:1.0;"/><polygon fill="#181818" points="884.75,648.39,892.2454,654.779,889.5446,649.8085,894.515,647.1077,884.75,648.39" style="stroke:#181818;stroke-width:1.0;"/><text fill="#000000" font-family="sans-serif" font-size="13" lengthAdjust="spacing" textLength="84" x="934.5" y="655.897">abrirEdificios()</text></g><!--link ListEdificios to ListEdificios--><g id="link_ListEdificios_ListEdificios"><path d="M779.58,600.72 C770.96,583.23 780.44,566 808,566 C835.56,566 847.6925,577.8481 839.0725,595.3381 " fill="none" id="ListEdificios-to-ListEdificios" style="stroke:#181818;stroke-width:1.0;"/><polygon fill="#181818" points="836.42,600.72,843.9866,594.4155,838.6304,596.2351,836.8108,590.8789,836.42,600.72" style="stroke:#181818;stroke-width:1.0;"/><text fill="#000000" font-family="sans-serif" font-size="13" lengthAdjust="spacing" textLength="98" x="759" y="556.897">eliminarEdificio()</text></g><!--link EditEdificio to EditEdificio--><g id="link_EditEdificio_EditEdificio"><path d="M1112.75,600.72 C1104.34,583.23 1113.59,566 1140.5,566 C1167.41,566 1179.2601,577.8226 1170.8501,595.3126 " fill="none" id="EditEdificio-to-EditEdificio" style="stroke:#181818;stroke-width:1.0;"/><polygon fill="#181818" points="1168.25,600.72,1175.7551,594.3424,1170.4168,596.2139,1168.5453,590.8756,1168.25,600.72" style="stroke:#181818;stroke-width:1.0;"/><text fill="#000000" font-family="sans-serif" font-size="13" lengthAdjust="spacing" textLength="85" x="1098" y="556.897">editarEdificio()</text></g><!--link ListAulas to EditAula--><g id="link_ListAulas_EditAula"><path d="M872.04,765.16 C937.05,772.55 1029,783 1029,783 C1029,783 1048.816,786.581 1075.436,791.401 " fill="none" id="ListAulas-to-EditAula" style="stroke:#181818;stroke-width:1.0;"/><polygon fill="#181818" points="1081.34,792.47,1073.1967,786.9305,1076.42,791.5792,1071.7713,794.8025,1081.34,792.47" style="stroke:#181818;stroke-width:1.0;"/><text fill="#000000" font-family="sans-serif" font-size="13" lengthAdjust="spacing" textLength="64" x="944.5" y="766.897">crearAula()</text></g><!--link ListAulas to EditAula--><g id="link_ListAulas_EditAula"><path d="M864.48,783.09 C893.89,796.38 924,810 924,810 C924,810 1029,810 1029,810 C1029,810 1048.7321,808.7502 1075.3521,807.0602 " fill="none" id="ListAulas-to-EditAula-1" style="stroke:#181818;stroke-width:1.0;"/><polygon fill="#181818" points="1081.34,806.68,1072.1046,803.2583,1076.35,806.9968,1072.6115,811.2422,1081.34,806.68" style="stroke:#181818;stroke-width:1.0;"/><text fill="#000000" font-family="sans-serif" font-size="13" lengthAdjust="spacing" textLength="69" x="942" y="805.897">editarAula()</text></g><!--link EditAula to ListAulas--><g id="link_EditAula_ListAulas"><path d="M1081.34,820.9 C1054.72,829.09 1029,837 1029,837 C1029,837 924,837 924,837 C924,837 884.3057,809.7271 850.6457,786.6071 " fill="none" id="EditAula-to-ListAulas" style="stroke:#181818;stroke-width:1.0;"/><polygon fill="#181818" points="845.7,783.21,850.8539,791.6027,849.8214,786.0409,855.3833,785.0084,845.7,783.21" style="stroke:#181818;stroke-width:1.0;"/><text fill="#000000" font-family="sans-serif" font-size="13" lengthAdjust="spacing" textLength="68" x="942.5" y="832.897">abrirAulas()</text></g><!--link ListAulas to ListAulas--><g id="link_ListAulas_ListAulas"><path d="M779.58,732.72 C770.96,715.23 780.44,698 808,698 C835.56,698 847.6925,709.8481 839.0725,727.3381 " fill="none" id="ListAulas-to-ListAulas" style="stroke:#181818;stroke-width:1.0;"/><polygon fill="#181818" points="836.42,732.72,843.9866,726.4155,838.6304,728.2351,836.8108,722.8789,836.42,732.72" style="stroke:#181818;stroke-width:1.0;"/><text fill="#000000" font-family="sans-serif" font-size="13" lengthAdjust="spacing" textLength="82" x="767" y="688.897">eliminarAula()</text></g><!--link EditAula to EditAula--><g id="link_EditAula_EditAula"><path d="M1112.75,777.72 C1104.34,760.23 1113.59,743 1140.5,743 C1167.41,743 1179.2601,754.8226 1170.8501,772.3126 " fill="none" id="EditAula-to-EditAula" style="stroke:#181818;stroke-width:1.0;"/><polygon fill="#181818" points="1168.25,777.72,1175.7551,771.3424,1170.4168,773.2139,1168.5453,767.8756,1168.25,777.72" style="stroke:#181818;stroke-width:1.0;"/><text fill="#000000" font-family="sans-serif" font-size="13" lengthAdjust="spacing" textLength="69" x="1106" y="733.897">editarAula()</text></g><!--link ListRecursos to EditRecurso--><g id="link_ListRecursos_EditRecurso"><path d="M886.91,925.74 C941.01,937.36 1006.7738,951.4898 1059.9338,962.9098 " fill="none" id="ListRecursos-to-EditRecurso" style="stroke:#181818;stroke-width:1.0;"/><polygon fill="#181818" points="1065.8,964.17,1057.8409,958.3689,1060.9115,963.1198,1056.1606,966.1905,1065.8,964.17" style="stroke:#181818;stroke-width:1.0;"/><text fill="#000000" font-family="sans-serif" font-size="13" lengthAdjust="spacing" textLength="86" x="933.5" y="928.897">crearRecurso()</text></g><!--link ListRecursos to EditRecurso--><g id="link_ListRecursos_EditRecurso"><path d="M858.44,934.01 C877.14,943.47 894,952 894,952 C894,952 924,982 924,982 C924,982 1029,982 1029,982 C1029,982 1039.531,981.8096 1059.791,981.4396 " fill="none" id="ListRecursos-to-EditRecurso-1" style="stroke:#181818;stroke-width:1.0;"/><polygon fill="#181818" points="1065.79,981.33,1056.7185,977.495,1060.7908,981.4213,1056.8645,985.4937,1065.79,981.33" style="stroke:#181818;stroke-width:1.0;"/><text fill="#000000" font-family="sans-serif" font-size="13" lengthAdjust="spacing" textLength="91" x="931" y="977.897">editarRecurso()</text></g><!--link EditRecurso to ListRecursos--><g id="link_EditRecurso_ListRecursos"><path d="M1065.79,999.34 C1045.53,1004.66 1029,1009 1029,1009 C1029,1009 924,1009 924,1009 C924,1009 894,952 894,952 C894,952 882.4939,946.1784 863.7939,936.7184 " fill="none" id="EditRecurso-to-ListRecursos" style="stroke:#181818;stroke-width:1.0;"/><polygon fill="#181818" points="858.44,934.01,864.6652,941.6419,862.9016,936.267,868.2765,934.5034,858.44,934.01" style="stroke:#181818;stroke-width:1.0;"/><text fill="#000000" font-family="sans-serif" font-size="13" lengthAdjust="spacing" textLength="90" x="931.5" y="1004.897">abrirRecursos()</text></g><!--link ListRecursos to ListRecursos--><g id="link_ListRecursos_ListRecursos"><path d="M779.58,883.72 C770.96,866.23 780.44,849 808,849 C835.56,849 847.6925,860.8481 839.0725,878.3381 " fill="none" id="ListRecursos-to-ListRecursos" style="stroke:#181818;stroke-width:1.0;"/><polygon fill="#181818" points="836.42,883.72,843.9866,877.4155,838.6304,879.2351,836.8108,873.8789,836.42,883.72" style="stroke:#181818;stroke-width:1.0;"/><text fill="#000000" font-family="sans-serif" font-size="13" lengthAdjust="spacing" textLength="104" x="756" y="839.897">eliminarRecurso()</text></g><!--link EditRecurso to EditRecurso--><g id="link_EditRecurso_EditRecurso"><path d="M1112.75,954.72 C1104.34,937.23 1113.59,920 1140.5,920 C1167.41,920 1179.2601,931.8226 1170.8501,949.3126 " fill="none" id="EditRecurso-to-EditRecurso" style="stroke:#181818;stroke-width:1.0;"/><polygon fill="#181818" points="1168.25,954.72,1175.7551,948.3424,1170.4168,950.2139,1168.5453,944.8756,1168.25,954.72" style="stroke:#181818;stroke-width:1.0;"/><text fill="#000000" font-family="sans-serif" font-size="13" lengthAdjust="spacing" textLength="91" x="1095" y="910.897">editarRecurso()</text></g><!--SRC=[ZPNDRkCW4CVlF0NgQNUbla0EAr67ffQIECB9QRMAt9IaQ1qx0llGjr-C0GF6TY-DX_xc3_F1KD9h0viQSdRxRE07u_JIiBe2uX-h7WKlxh1a5Ms-7XG-wlAhCm0GJT5G-9JZFCtsvmGJWjRe2HO2xclKDfyMIFCZtg7pEiqFsJvzsM85xMZLMf43oJO4xL1-HYyf9iTC8LiccWElR_80XGXHZyGVp986J4uapyQ2ISj5BJne9AKOPyDNd6S4HmztfQBcL8Hmx7GA7O47WbynmVia3Q9tlGwSNYcdrOKDYS3hz3LDqaY8qlFABgmUeIDzGneGdRQH6g2s7BRj44qWgzCH1Y1u8lE4NhpSQt1qACs1SKxpTBD7nnC9peW4krM53ACQ2l6M4KHan1kynx8nUt13AyeL66AkN59NeYsR0e0_l_x2v-VVfg51_wkMklQ5AyWgcRw2vrH8qHy_0L3hWuz4BfHpXx20rzqhMBnpngqTWdtNQget8bgw6GSnlH2Yja4qQUqGL9NNaFeE0LDJpHZJnOQah-1DVVEtMlvXjKkPfCjywI-70kvTKBXRShcticp0I2MeytCnvUSAhI2Lrk3MEG2lAgwBMf6duxImPP8UIxpTOjeXQ0HQiZkhF1_WQdvdan6_r6nWQ3AhhqmTiSdeDDQVOO9pMzZ4PujaHUObVMpwKW3_CaJARcfeghxeCEgJY4Tu1PqoskuQjV72DhEy-oQeMtDbjvONtlgSrlBC05FRHSvkvaXtrqONoiuNwsXMT36CgLCxn_T9cdK8HfofXEFZIdvdZx73qXW5TdnQ_SxIyNQV-kWnfjy_2ZbJsSIbEM3yvyGyPch20tUoMpMze2FGbZxVDDplFaFxhuY9QN00ZjooV0ZFlr6HOTmzIDrjkZzAAfKtL3JzknrCj5ak60sphD-wi-ZG1REObzv9SdYMOvoCu49LHit37AFC_oJs7m00]--></g></svg>