<?xml version="1.0" encoding="us-ascii" standalone="no"?><svg xmlns="http://www.w3.org/2000/svg" xmlns:xlink="http://www.w3.org/1999/xlink" contentStyleType="text/css" height="1126px" preserveAspectRatio="none" style="width:1734px;height:1126px;background:#FFFFFF;" version="1.1" viewBox="0 0 1734 1126" width="1734px" zoomAndPan="magnify"><defs/><g><g id="NoAuth"><rect fill="#F1F1F1" height="50" rx="12.5" ry="12.5" style="stroke:#181818;stroke-width:0.5;" width="140" x="87" y="645"/><line style="stroke:#181818;stroke-width:0.5;" x1="87" x2="227" y1="674.0679" y2="674.0679"/><text fill="#000000" font-family="sans-serif" font-size="14" lengthAdjust="spacing" textLength="120" x="97" y="664.9659">SESION_CERRADA</text></g><g id="Menu"><rect fill="#F1F1F1" height="50" rx="12.5" ry="12.5" style="stroke:#181818;stroke-width:0.5;" width="167" x="371" y="645"/><line style="stroke:#181818;stroke-width:0.5;" x1="371" x2="538" y1="674.0679" y2="674.0679"/><text fill="#000000" font-family="sans-serif" font-size="14" lengthAdjust="spacing" textLength="147" x="381" y="664.9659">SISTEMA_DISPONIBLE</text></g><g id="ListProgramas"><rect fill="#F1F1F1" height="50" rx="12.5" ry="12.5" style="stroke:#181818;stroke-width:0.5;" width="171" x="710.5" y="129"/><line style="stroke:#181818;stroke-width:0.5;" x1="710.5" x2="881.5" y1="158.0679" y2="158.0679"/><text fill="#000000" font-family="sans-serif" font-size="14" lengthAdjust="spacing" textLength="151" x="720.5" y="148.9659">PROGRAMAS_ABIERTO</text></g><g id="EditPrograma"><rect fill="#F1F1F1" height="50" rx="12.5" ry="12.5" style="stroke:#181818;stroke-width:0.5;" width="163" x="1047" y="70"/><line style="stroke:#181818;stroke-width:0.5;" x1="1047" x2="1210" y1="99.0679" y2="99.0679"/><text fill="#000000" font-family="sans-serif" font-size="14" lengthAdjust="spacing" textLength="143" x="1057" y="89.9659">PROGRAMA_ABIERTO</text></g><g id="ListCursos"><rect fill="#F1F1F1" height="50" rx="12.5" ry="12.5" style="stroke:#181818;stroke-width:0.5;" width="140" x="726" y="306"/><line style="stroke:#181818;stroke-width:0.5;" x1="726" x2="866" y1="335.0679" y2="335.0679"/><text fill="#000000" font-family="sans-serif" font-size="14" lengthAdjust="spacing" textLength="120" x="736" y="325.9659">CURSOS_ABIERTO</text></g><g id="EditCurso"><rect fill="#F1F1F1" height="50" rx="12.5" ry="12.5" style="stroke:#181818;stroke-width:0.5;" width="132" x="1062.5" y="247"/><line style="stroke:#181818;stroke-width:0.5;" x1="1062.5" x2="1194.5" y1="276.0679" y2="276.0679"/><text fill="#000000" font-family="sans-serif" font-size="14" lengthAdjust="spacing" textLength="112" x="1072.5" y="266.9659">CURSO_ABIERTO</text></g><g id="ListProfesores"><rect fill="#F1F1F1" height="50" rx="12.5" ry="12.5" style="stroke:#181818;stroke-width:0.5;" width="172" x="710" y="438"/><line style="stroke:#181818;stroke-width:0.5;" x1="710" x2="882" y1="467.0679" y2="467.0679"/><text fill="#000000" font-family="sans-serif" font-size="14" lengthAdjust="spacing" textLength="152" x="720" y="457.9659">PROFESORES_ABIERTO</text></g><g id="EditProfesor"><rect fill="#F1F1F1" height="50" rx="12.5" ry="12.5" style="stroke:#181818;stroke-width:0.5;" width="156" x="1050.5" y="424"/><line style="stroke:#181818;stroke-width:0.5;" x1="1050.5" x2="1206.5" y1="453.0679" y2="453.0679"/><text fill="#000000" font-family="sans-serif" font-size="14" lengthAdjust="spacing" textLength="136" x="1060.5" y="443.9659">PROFESOR_ABIERTO</text></g><g id="EditProfesorPreferencias"><rect fill="#F1F1F1" height="50" rx="12.5" ry="12.5" style="stroke:#181818;stroke-width:0.5;" width="261" x="1466" y="374"/><line style="stroke:#181818;stroke-width:0.5;" x1="1466" x2="1727" y1="403.0679" y2="403.0679"/><text fill="#000000" font-family="sans-serif" font-size="14" lengthAdjust="spacing" textLength="241" x="1476" y="393.9659">PROFESOR_PREFERENCIAS_ABIERTO</text></g><g id="ListEdificios"><rect fill="#F1F1F1" height="50" rx="12.5" ry="12.5" style="stroke:#181818;stroke-width:0.5;" width="153" x="719.5" y="601"/><line style="stroke:#181818;stroke-width:0.5;" x1="719.5" x2="872.5" y1="630.0679" y2="630.0679"/><text fill="#000000" font-family="sans-serif" font-size="14" lengthAdjust="spacing" textLength="133" x="729.5" y="620.9659">EDIFICIOS_ABIERTO</text></g><g id="EditEdificio"><rect fill="#F1F1F1" height="50" rx="12.5" ry="12.5" style="stroke:#181818;stroke-width:0.5;" width="145" x="1056" y="601"/><line style="stroke:#181818;stroke-width:0.5;" x1="1056" x2="1201" y1="630.0679" y2="630.0679"/><text fill="#000000" font-family="sans-serif" font-size="14" lengthAdjust="spacing" textLength="125" x="1066" y="620.9659">EDIFICIO_ABIERTO</text></g><g id="ListAulas"><rect fill="#F1F1F1" height="50" rx="12.5" ry="12.5" style="stroke:#181818;stroke-width:0.5;" width="128" x="732" y="733"/><line style="stroke:#181818;stroke-width:0.5;" x1="732" x2="860" y1="762.0679" y2="762.0679"/><text fill="#000000" font-family="sans-serif" font-size="14" lengthAdjust="spacing" textLength="108" x="742" y="752.9659">AULAS_ABIERTO</text></g><g id="EditAula"><rect fill="#F1F1F1" height="50" rx="12.5" ry="12.5" style="stroke:#181818;stroke-width:0.5;" width="118" x="1069.5" y="778"/><line style="stroke:#181818;stroke-width:0.5;" x1="1069.5" x2="1187.5" y1="807.0679" y2="807.0679"/><text fill="#000000" font-family="sans-serif" font-size="14" lengthAdjust="spacing" textLength="98" x="1079.5" y="797.9659">AULA_ABIERTA</text></g><g id="ListRecursos"><rect fill="#F1F1F1" height="50" rx="12.5" ry="12.5" style="stroke:#181818;stroke-width:0.5;" width="157" x="717.5" y="884"/><line style="stroke:#181818;stroke-width:0.5;" x1="717.5" x2="874.5" y1="913.0679" y2="913.0679"/><text fill="#000000" font-family="sans-serif" font-size="14" lengthAdjust="spacing" textLength="137" x="727.5" y="903.9659">RECURSOS_ABIERTO</text></g><g id="EditRecurso"><rect fill="#F1F1F1" height="50" rx="12.5" ry="12.5" style="stroke:#181818;stroke-width:0.5;" width="149" x="1054" y="955"/><line style="stroke:#181818;stroke-width:0.5;" x1="1054" x2="1203" y1="984.0679" y2="984.0679"/><text fill="#000000" font-family="sans-serif" font-size="14" lengthAdjust="spacing" textLength="129" x="1064" y="974.9659">RECURSO_ABIERTO</text></g><g id="Asignaciones"><rect fill="#F1F1F1" height="50" rx="12.5" ry="12.5" style="stroke:#181818;stroke-width:0.5;" width="258" x="1467.5" y="475"/><line style="stroke:#181818;stroke-width:0.5;" x1="1467.5" x2="1725.5" y1="504.0679" y2="504.0679"/><text fill="#000000" font-family="sans-serif" font-size="14" lengthAdjust="spacing" textLength="238" x="1477.5" y="494.9659">PROFESOR_ASIGNATURAS_ABIERTO</text></g><g id="Generacion"><rect fill="#F1F1F1" height="50" rx="12.5" ry="12.5" style="stroke:#181818;stroke-width:0.5;" width="166" x="713" y="969"/><line style="stroke:#181818;stroke-width:0.5;" x1="713" x2="879" y1="998.0679" y2="998.0679"/><text fill="#000000" font-family="sans-serif" font-size="14" lengthAdjust="spacing" textLength="146" x="723" y="988.9659">HORARIO_GENERADO</text></g><g id="Consulta"><rect fill="#F1F1F1" height="50" rx="12.5" ry="12.5" style="stroke:#181818;stroke-width:0.5;" width="149" x="721.5" y="1070"/><line style="stroke:#181818;stroke-width:0.5;" x1="721.5" x2="870.5" y1="1099.0679" y2="1099.0679"/><text fill="#000000" font-family="sans-serif" font-size="14" lengthAdjust="spacing" textLength="129" x="731.5" y="1089.9659">HORARIO_ABIERTO</text></g><ellipse cx="16" cy="670" fill="#222222" rx="10" ry="10" style="stroke:#222222;stroke-width:1.0;"/><!--link *start* to NoAuth--><g id="link_*start*_NoAuth"><path d="M26.12,670 C38.8,670 56.93,670 80.98,670 " fill="none" id="*start*-to-NoAuth" style="stroke:#181818;stroke-width:1.0;"/><polygon fill="#181818" points="86.98,670,77.98,666,81.98,670,77.98,674,86.98,670" style="stroke:#181818;stroke-width:1.0;"/></g><!--link NoAuth to Menu--><g id="link_NoAuth_Menu"><path d="M227.28,670 C270.27,670 319.74,670 365,670 " fill="none" id="NoAuth-to-Menu" style="stroke:#181818;stroke-width:1.0;"/><polygon fill="#181818" points="371,670,362,666,366,670,362,674,371,670" style="stroke:#181818;stroke-width:1.0;"/><text fill="#000000" font-family="sans-serif" font-size="13" lengthAdjust="spacing" textLength="82" x="258" y="665.897">iniciarSesion()</text></g><!--link Menu to NoAuth--><g id="link_Menu_NoAuth"><path d="M370.85,689.84 C353.84,693.92 341,697 341,697 C341,697 257,697 257,697 C257,697 249.5787,694.9784 232.8187,690.4084 " fill="none" id="Menu-to-NoAuth" style="stroke:#181818;stroke-width:1.0;"/><polygon fill="#181818" points="227.03,688.83,234.6607,695.0567,231.8539,690.1453,236.7653,687.3385,227.03,688.83" style="stroke:#181818;stroke-width:1.0;"/><text fill="#000000" font-family="sans-serif" font-size="13" lengthAdjust="spacing" textLength="82" x="258" y="692.897">cerrarSesion()</text></g><!--link Menu to ListProgramas--><g id="link_Menu_ListProgramas"><path d="M461.79,644.73 C485.48,549.54 568,218 568,218 C568,218 640.1552,197.6585 704.6952,179.4585 " fill="none" id="Menu-to-ListProgramas" style="stroke:#181818;stroke-width:1.0;"/><polygon fill="#181818" points="710.47,177.83,700.7222,176.4228,705.6577,179.1871,702.8935,184.1225,710.47,177.83" style="stroke:#181818;stroke-width:1.0;"/><text fill="#000000" font-family="sans-serif" font-size="13" lengthAdjust="spacing" textLength="102" x="573" y="183.897">abrirProgramas()</text></g><!--link ListProgramas to Menu--><g id="link_ListProgramas_Menu"><path d="M763.27,179.11 C729.23,206.04 680,245 680,245 C680,245 568,327 568,327 C568,327 491.6199,559.8688 465.6399,639.0788 " fill="none" id="ListProgramas-to-Menu" style="stroke:#181818;stroke-width:1.0;"/><polygon fill="#181818" points="463.77,644.78,470.3757,637.4749,465.3283,640.029,462.7741,634.9816,463.77,644.78" style="stroke:#181818;stroke-width:1.0;"/><text fill="#000000" font-family="sans-serif" font-size="13" lengthAdjust="spacing" textLength="91" x="578.5" y="240.897">mostrarMenu()</text></g><!--link Menu to ListCursos--><g id="link_Menu_ListCursos"><path d="M465.09,644.76 C492.3,573.18 568,374 568,374 C568,374 653.2848,357.8465 720.0748,345.1965 " fill="none" id="Menu-to-ListCursos" style="stroke:#181818;stroke-width:1.0;"/><polygon fill="#181818" points="725.97,344.08,716.3828,341.8247,721.0573,345.0105,717.8716,349.685,725.97,344.08" style="stroke:#181818;stroke-width:1.0;"/><text fill="#000000" font-family="sans-serif" font-size="13" lengthAdjust="spacing" textLength="77" x="585.5" y="349.897">abrirCursos()</text></g><!--link ListCursos to Menu--><g id="link_ListCursos_Menu"><path d="M744.08,356.16 C725.98,365.1 710,373 710,373 C710,373 680,401 680,401 C680,401 568,457 568,457 C568,457 501.4522,583.0046 471.6522,639.4246 " fill="none" id="ListCursos-to-Menu" style="stroke:#181818;stroke-width:1.0;"/><polygon fill="#181818" points="468.85,644.73,476.5903,638.64,471.1852,640.3088,469.5164,634.9037,468.85,644.73" style="stroke:#181818;stroke-width:1.0;"/><text fill="#000000" font-family="sans-serif" font-size="13" lengthAdjust="spacing" textLength="91" x="578.5" y="396.897">mostrarMenu()</text></g><!--link Menu to ListProfesores--><g id="link_Menu_ListProfesores"><path d="M472.34,644.85 C503.73,597.98 568,502 568,502 C568,502 639.5067,489.7163 703.9167,478.6463 " fill="none" id="Menu-to-ListProfesores" style="stroke:#181818;stroke-width:1.0;"/><polygon fill="#181818" points="709.83,477.63,700.2825,475.2123,704.9022,478.4769,701.6376,483.0967,709.83,477.63" style="stroke:#181818;stroke-width:1.0;"/><text fill="#000000" font-family="sans-serif" font-size="13" lengthAdjust="spacing" textLength="100" x="574" y="479.897">abrirProfesores()</text></g><!--link ListProfesores to Menu--><g id="link_ListProfesores_Menu"><path d="M751.2,488.14 C718.7,506.79 680,529 680,529 C680,529 568,593 568,593 C568,593 530.1011,618.9408 497.2911,641.4008 " fill="none" id="ListProfesores-to-Menu" style="stroke:#181818;stroke-width:1.0;"/><polygon fill="#181818" points="492.34,644.79,502.0261,643.0069,496.4659,641.9656,497.5071,636.4054,492.34,644.79" style="stroke:#181818;stroke-width:1.0;"/><text fill="#000000" font-family="sans-serif" font-size="13" lengthAdjust="spacing" textLength="91" x="578.5" y="524.897">mostrarMenu()</text></g><!--link Menu to ListEdificios--><g id="link_Menu_ListEdificios"><path d="M512.08,644.85 C540.09,632.4 568,620 568,620 C568,620 680,620 680,620 C680,620 691.7282,620.6055 713.2582,621.7355 " fill="none" id="Menu-to-ListEdificios" style="stroke:#181818;stroke-width:1.0;"/><polygon fill="#181818" points="719.25,622.05,710.472,617.5838,714.2569,621.7879,710.0527,625.5728,719.25,622.05" style="stroke:#181818;stroke-width:1.0;"/><text fill="#000000" font-family="sans-serif" font-size="13" lengthAdjust="spacing" textLength="84" x="582" y="615.897">abrirEdificios()</text></g><!--link ListEdificios to Menu--><g id="link_ListEdificios_Menu"><path d="M719.25,639.83 C697.72,643.76 680,647 680,647 C680,647 608.1188,654.3692 544.1088,660.9192 " fill="none" id="ListEdificios-to-Menu" style="stroke:#181818;stroke-width:1.0;"/><polygon fill="#181818" points="538.14,661.53,547.5004,664.5931,543.114,661.021,546.6861,656.6346,538.14,661.53" style="stroke:#181818;stroke-width:1.0;"/><text fill="#000000" font-family="sans-serif" font-size="13" lengthAdjust="spacing" textLength="91" x="578.5" y="642.897">mostrarMenu()</text></g><!--link Menu to ListAulas--><g id="link_Menu_ListAulas"><path d="M538.12,691.41 C597.78,706.88 671.3521,725.9438 725.9921,740.1138 " fill="none" id="Menu-to-ListAulas" style="stroke:#181818;stroke-width:1.0;"/><polygon fill="#181818" points="731.8,741.62,724.0923,735.4888,726.9601,740.3649,722.0841,743.2326,731.8,741.62" style="stroke:#181818;stroke-width:1.0;"/><text fill="#000000" font-family="sans-serif" font-size="13" lengthAdjust="spacing" textLength="68" x="590" y="695.897">abrirAulas()</text></g><!--link ListAulas to Menu--><g id="link_ListAulas_Menu"><path d="M731.77,756.89 C664.6,755.7 568,754 568,754 C568,754 527.1973,723.5402 494.0573,698.7902 " fill="none" id="ListAulas-to-Menu" style="stroke:#181818;stroke-width:1.0;"/><polygon fill="#181818" points="489.25,695.2,494.0675,703.7902,493.2561,698.1919,498.8544,697.3805,489.25,695.2" style="stroke:#181818;stroke-width:1.0;"/><text fill="#000000" font-family="sans-serif" font-size="13" lengthAdjust="spacing" textLength="91" x="578.5" y="749.897">mostrarMenu()</text></g><!--link Menu to ListRecursos--><g id="link_Menu_ListRecursos"><path d="M480.75,695.13 C513.92,728.16 568,782 568,782 C568,782 678.7638,843.9704 744.9138,880.9804 " fill="none" id="Menu-to-ListRecursos" style="stroke:#181818;stroke-width:1.0;"/><polygon fill="#181818" points="750.15,883.91,744.2488,876.0249,745.7865,881.4687,740.3427,883.0064,750.15,883.91" style="stroke:#181818;stroke-width:1.0;"/><text fill="#000000" font-family="sans-serif" font-size="13" lengthAdjust="spacing" textLength="90" x="579" y="777.897">abrirRecursos()</text></g><!--link ListRecursos to Menu--><g id="link_ListRecursos_Menu"><path d="M717.2,894.95 C651.49,883.08 568,868 568,868 C568,868 502.9839,753.5769 472.7139,700.2969 " fill="none" id="ListRecursos-to-Menu" style="stroke:#181818;stroke-width:1.0;"/><polygon fill="#181818" points="469.75,695.08,470.7179,704.8812,472.2199,699.4274,477.6737,700.9294,469.75,695.08" style="stroke:#181818;stroke-width:1.0;"/><text fill="#000000" font-family="sans-serif" font-size="13" lengthAdjust="spacing" textLength="91" x="578.5" y="863.897">mostrarMenu()</text></g><!--link Menu to Generacion--><g id="link_Menu_Generacion"><path d="M467.12,695.19 C495.86,757.53 568,914 568,914 C568,914 651.5711,943.4557 718.1411,966.9157 " fill="none" id="Menu-to-Generacion" style="stroke:#181818;stroke-width:1.0;"/><polygon fill="#181818" points="723.8,968.91,716.6412,962.146,719.0843,967.2481,713.9822,969.6912,723.8,968.91" style="stroke:#181818;stroke-width:1.0;"/><text fill="#000000" font-family="sans-serif" font-size="13" lengthAdjust="spacing" textLength="101" x="573.5" y="909.897">generarHorario()</text></g><!--link Generacion to Menu--><g id="link_Generacion_Menu"><path d="M712.73,988.2 C647.76,983.62 568,978 568,978 C568,978 493.628,774.396 466.768,700.836 " fill="none" id="Generacion-to-Menu" style="stroke:#181818;stroke-width:1.0;"/><polygon fill="#181818" points="464.71,695.2,464.0396,705.026,466.425,699.8967,471.5543,702.2821,464.71,695.2" style="stroke:#181818;stroke-width:1.0;"/><text fill="#000000" font-family="sans-serif" font-size="13" lengthAdjust="spacing" textLength="91" x="578.5" y="973.897">mostrarMenu()</text></g><!--link Menu to Consulta--><g id="link_Menu_Consulta"><path d="M463.77,695.15 C489.75,774.13 568,1012 568,1012 C568,1012 654.1147,1043.49 720.9447,1067.92 " fill="none" id="Menu-to-Consulta" style="stroke:#181818;stroke-width:1.0;"/><polygon fill="#181818" points="726.58,1069.98,719.5004,1063.1331,721.8839,1068.2633,716.7537,1070.6469,726.58,1069.98" style="stroke:#181818;stroke-width:1.0;"/><text fill="#000000" font-family="sans-serif" font-size="13" lengthAdjust="spacing" textLength="110" x="569" y="1007.897">consultarHorario()</text></g><!--link Consulta to Menu--><g id="link_Consulta_Menu"><path d="M721.3,1089.48 C655.02,1084.52 568,1078 568,1078 C568,1078 488.5749,789.9541 464.0449,700.9941 " fill="none" id="Consulta-to-Menu" style="stroke:#181818;stroke-width:1.0;"/><polygon fill="#181818" points="462.45,695.21,460.9863,704.9495,463.7791,700.0301,468.6985,702.8229,462.45,695.21" style="stroke:#181818;stroke-width:1.0;"/><text fill="#000000" font-family="sans-serif" font-size="13" lengthAdjust="spacing" textLength="91" x="578.5" y="1073.897">mostrarMenu()</text></g><!--link EditProfesor to Asignaciones--><g id="link_EditProfesor_Asignaciones"><path d="M1206.55,462.25 C1225.26,465.47 1240,468 1240,468 C1240,468 1359.5542,478.7621 1461.4342,487.9321 " fill="none" id="EditProfesor-to-Asignaciones" style="stroke:#181818;stroke-width:1.0;"/><polygon fill="#181818" points="1467.41,488.47,1458.8048,483.6793,1462.4301,488.0218,1458.0877,491.6471,1467.41,488.47" style="stroke:#181818;stroke-width:1.0;"/><text fill="#000000" font-family="sans-serif" font-size="13" lengthAdjust="spacing" textLength="146" x="1265" y="463.897">asignarProfesorACurso()</text></g><!--link Asignaciones to EditProfesor--><g id="link_Asignaciones_EditProfesor"><path d="M1467.13,509.66 C1448.79,511.04 1436,512 1436,512 C1436,512 1240,512 1240,512 C1240,512 1209.5121,494.6223 1178.7021,477.0523 " fill="none" id="Asignaciones-to-EditProfesor" style="stroke:#181818;stroke-width:1.0;"/><polygon fill="#181818" points="1173.49,474.08,1179.3266,482.0131,1177.8334,476.5569,1183.2896,475.0637,1173.49,474.08" style="stroke:#181818;stroke-width:1.0;"/><text fill="#000000" font-family="sans-serif" font-size="13" lengthAdjust="spacing" textLength="94" x="1291" y="507.897">editarProfesor()</text></g><!--link ListProgramas to EditPrograma--><g id="link_ListProgramas_EditPrograma"><path d="M833.7,128.79 C867.36,105.67 912,75 912,75 C912,75 1017,75 1017,75 C1017,75 1024.0056,76.2731 1040.9956,79.3431 " fill="none" id="ListProgramas-to-EditPrograma" style="stroke:#181818;stroke-width:1.0;"/><polygon fill="#181818" points="1046.9,80.41,1038.7547,74.8734,1041.9797,79.5209,1037.3322,82.7459,1046.9,80.41" style="stroke:#181818;stroke-width:1.0;"/><text fill="#000000" font-family="sans-serif" font-size="13" lengthAdjust="spacing" textLength="98" x="915.5" y="70.897">crearPrograma()</text></g><!--link ListProgramas to EditPrograma--><g id="link_ListProgramas_EditPrograma"><path d="M881.68,138.88 C932.46,129.82 990.7732,119.4037 1040.8332,110.4737 " fill="none" id="ListProgramas-to-EditPrograma-1" style="stroke:#181818;stroke-width:1.0;"/><polygon fill="#181818" points="1046.74,109.42,1037.1774,107.0627,1041.8177,110.2981,1038.5823,114.9384,1046.74,109.42" style="stroke:#181818;stroke-width:1.0;"/><text fill="#000000" font-family="sans-serif" font-size="13" lengthAdjust="spacing" textLength="103" x="913" y="111.897">editarPrograma()</text></g><!--link EditPrograma to ListProgramas--><g id="link_EditPrograma_ListProgramas"><path d="M1085.41,120.14 C1054.18,138.79 1017,161 1017,161 C1017,161 912,161 912,161 C912,161 905.0089,160.575 887.7789,159.525 " fill="none" id="EditPrograma-to-ListProgramas" style="stroke:#181818;stroke-width:1.0;"/><polygon fill="#181818" points="881.79,159.16,890.53,163.7,886.7807,159.4641,891.0166,155.7149,881.79,159.16" style="stroke:#181818;stroke-width:1.0;"/><text fill="#000000" font-family="sans-serif" font-size="13" lengthAdjust="spacing" textLength="102" x="913.5" y="156.897">abrirProgramas()</text></g><!--link ListProgramas to ListProgramas--><g id="link_ListProgramas_ListProgramas"><path d="M767.58,128.72 C758.96,111.23 768.44,94 796,94 C823.56,94 835.6925,105.8481 827.0725,123.3381 " fill="none" id="ListProgramas-to-ListProgramas" style="stroke:#181818;stroke-width:1.0;"/><polygon fill="#181818" points="824.42,128.72,831.9866,122.4155,826.6304,124.2351,824.8108,118.8789,824.42,128.72" style="stroke:#181818;stroke-width:1.0;"/><text fill="#000000" font-family="sans-serif" font-size="13" lengthAdjust="spacing" textLength="116" x="738" y="84.897">eliminarPrograma()</text></g><!--link EditPrograma to EditPrograma--><g id="link_EditPrograma_EditPrograma"><path d="M1100.75,69.72 C1092.34,52.23 1101.59,35 1128.5,35 C1155.41,35 1167.2601,46.8226 1158.8501,64.3126 " fill="none" id="EditPrograma-to-EditPrograma" style="stroke:#181818;stroke-width:1.0;"/><polygon fill="#181818" points="1156.25,69.72,1163.7551,63.3424,1158.4168,65.2139,1156.5453,59.8756,1156.25,69.72" style="stroke:#181818;stroke-width:1.0;"/><text fill="#000000" font-family="sans-serif" font-size="13" lengthAdjust="spacing" textLength="103" x="1077" y="25.897">editarPrograma()</text></g><!--link ListCursos to EditCurso--><g id="link_ListCursos_EditCurso"><path d="M833.7,305.79 C867.36,282.67 912,252 912,252 C912,252 1017,252 1017,252 C1017,252 1032.436,254.7912 1056.356,259.1212 " fill="none" id="ListCursos-to-EditCurso" style="stroke:#181818;stroke-width:1.0;"/><polygon fill="#181818" points="1062.26,260.19,1054.1164,254.6508,1057.34,259.2994,1052.6914,262.5229,1062.26,260.19" style="stroke:#181818;stroke-width:1.0;"/><text fill="#000000" font-family="sans-serif" font-size="13" lengthAdjust="spacing" textLength="73" x="928" y="247.897">crearCurso()</text></g><!--link ListCursos to EditCurso--><g id="link_ListCursos_EditCurso"><path d="M866.28,318.63 C924.02,308.33 999.7534,294.8044 1056.3334,284.7044 " fill="none" id="ListCursos-to-EditCurso-1" style="stroke:#181818;stroke-width:1.0;"/><polygon fill="#181818" points="1062.24,283.65,1052.6771,281.2938,1057.3178,284.5287,1054.083,289.1693,1062.24,283.65" style="stroke:#181818;stroke-width:1.0;"/><text fill="#000000" font-family="sans-serif" font-size="13" lengthAdjust="spacing" textLength="78" x="925.5" y="288.897">editarCurso()</text></g><!--link EditCurso to ListCursos--><g id="link_EditCurso_ListCursos"><path d="M1085.41,297.14 C1054.18,315.79 1017,338 1017,338 C1017,338 912,338 912,338 C912,338 896.5588,337.0665 872.2088,335.5765 " fill="none" id="EditCurso-to-ListCursos" style="stroke:#181818;stroke-width:1.0;"/><polygon fill="#181818" points="866.22,335.21,874.9589,339.7522,871.2107,335.5154,875.4475,331.7672,866.22,335.21" style="stroke:#181818;stroke-width:1.0;"/><text fill="#000000" font-family="sans-serif" font-size="13" lengthAdjust="spacing" textLength="77" x="926" y="333.897">abrirCursos()</text></g><!--link ListCursos to ListCursos--><g id="link_ListCursos_ListCursos"><path d="M767.58,305.72 C758.96,288.23 768.44,271 796,271 C823.56,271 835.6925,282.8481 827.0725,300.3381 " fill="none" id="ListCursos-to-ListCursos" style="stroke:#181818;stroke-width:1.0;"/><polygon fill="#181818" points="824.42,305.72,831.9866,299.4155,826.6304,301.2351,824.8108,295.8789,824.42,305.72" style="stroke:#181818;stroke-width:1.0;"/><text fill="#000000" font-family="sans-serif" font-size="13" lengthAdjust="spacing" textLength="91" x="750.5" y="261.897">eliminarCurso()</text></g><!--link EditCurso to EditCurso--><g id="link_EditCurso_EditCurso"><path d="M1100.75,246.72 C1092.34,229.23 1101.59,212 1128.5,212 C1155.41,212 1167.2601,223.8226 1158.8501,241.3126 " fill="none" id="EditCurso-to-EditCurso" style="stroke:#181818;stroke-width:1.0;"/><polygon fill="#181818" points="1156.25,246.72,1163.7551,240.3424,1158.4168,242.2139,1156.5453,236.8756,1156.25,246.72" style="stroke:#181818;stroke-width:1.0;"/><text fill="#000000" font-family="sans-serif" font-size="13" lengthAdjust="spacing" textLength="78" x="1089.5" y="202.897">editarCurso()</text></g><!--link ListProfesores to EditProfesor--><g id="link_ListProfesores_EditProfesor"><path d="M881.79,437.93 C899.02,432.84 912,429 912,429 C912,429 1017,429 1017,429 C1017,429 1025.8356,430.6034 1044.5456,433.9834 " fill="none" id="ListProfesores-to-EditProfesor" style="stroke:#181818;stroke-width:1.0;"/><polygon fill="#181818" points="1050.45,435.05,1042.3045,429.5137,1045.5296,434.1611,1040.8823,437.3863,1050.45,435.05" style="stroke:#181818;stroke-width:1.0;"/><text fill="#000000" font-family="sans-serif" font-size="13" lengthAdjust="spacing" textLength="89" x="920" y="424.897">crearProfesor()</text></g><!--link ListProfesores to EditProfesor--><g id="link_ListProfesores_EditProfesor"><path d="M882.06,460.29 C943.97,458.32 1017,456 1017,456 C1017,456 1025.7521,455.4508 1044.4621,454.2608 " fill="none" id="ListProfesores-to-EditProfesor-1" style="stroke:#181818;stroke-width:1.0;"/><polygon fill="#181818" points="1050.45,453.88,1041.2143,450.4593,1045.4601,454.1974,1041.722,458.4432,1050.45,453.88" style="stroke:#181818;stroke-width:1.0;"/><text fill="#000000" font-family="sans-serif" font-size="13" lengthAdjust="spacing" textLength="94" x="917.5" y="451.897">editarProfesor()</text></g><!--link EditProfesor to ListProfesores--><g id="link_EditProfesor_ListProfesores"><path d="M1054.72,474.03 C1034.03,481.14 1017,487 1017,487 C1017,487 912,487 912,487 C912,487 905.0438,485.5443 887.9638,481.9843 " fill="none" id="EditProfesor-to-ListProfesores" style="stroke:#181818;stroke-width:1.0;"/><polygon fill="#181818" points="882.09,480.76,890.0845,486.5123,886.9848,481.7802,891.7168,478.6806,882.09,480.76" style="stroke:#181818;stroke-width:1.0;"/><text fill="#000000" font-family="sans-serif" font-size="13" lengthAdjust="spacing" textLength="100" x="914.5" y="482.897">abrirProfesores()</text></g><!--link ListProfesores to ListProfesores--><g id="link_ListProfesores_ListProfesores"><path d="M767.58,437.72 C758.96,420.23 768.44,403 796,403 C823.56,403 835.6925,414.8481 827.0725,432.3381 " fill="none" id="ListProfesores-to-ListProfesores" style="stroke:#181818;stroke-width:1.0;"/><polygon fill="#181818" points="824.42,437.72,831.9866,431.4155,826.6304,433.2351,824.8108,427.8789,824.42,437.72" style="stroke:#181818;stroke-width:1.0;"/><text fill="#000000" font-family="sans-serif" font-size="13" lengthAdjust="spacing" textLength="107" x="742.5" y="393.897">eliminarProfesor()</text></g><!--link EditProfesor to EditProfesor--><g id="link_EditProfesor_EditProfesor"><path d="M1100.75,423.72 C1092.34,406.23 1101.59,389 1128.5,389 C1155.41,389 1167.2601,400.8226 1158.8501,418.3126 " fill="none" id="EditProfesor-to-EditProfesor" style="stroke:#181818;stroke-width:1.0;"/><polygon fill="#181818" points="1156.25,423.72,1163.7551,417.3424,1158.4168,419.2139,1156.5453,413.8756,1156.25,423.72" style="stroke:#181818;stroke-width:1.0;"/><text fill="#000000" font-family="sans-serif" font-size="13" lengthAdjust="spacing" textLength="94" x="1081.5" y="379.897">editarProfesor()</text></g><!--link EditProfesor to EditProfesorPreferencias--><g id="link_EditProfesor_EditProfesorPreferencias"><path d="M1186.04,423.93 C1213.23,411.87 1240,400 1240,400 C1240,400 1358.3,399.6671 1459.9,399.3771 " fill="none" id="EditProfesor-to-EditProfesorPreferencias" style="stroke:#181818;stroke-width:1.0;"/><polygon fill="#181818" points="1465.9,399.36,1456.8886,395.3857,1460.9,399.3743,1456.9115,403.3857,1465.9,399.36" style="stroke:#181818;stroke-width:1.0;"/><text fill="#000000" font-family="sans-serif" font-size="13" lengthAdjust="spacing" textLength="194" x="1241" y="395.897">configurarPreferenciasProfesor()</text></g><!--link EditProfesorPreferencias to EditProfesor--><g id="link_EditProfesorPreferencias_EditProfesor"><path d="M1465.63,421.8 C1448.1,424.88 1436,427 1436,427 C1436,427 1303.6246,436.5003 1212.8246,443.0203 " fill="none" id="EditProfesorPreferencias-to-EditProfesor" style="stroke:#181818;stroke-width:1.0;"/><polygon fill="#181818" points="1206.84,443.45,1216.1034,446.7951,1211.8272,443.0919,1215.5304,438.8157,1206.84,443.45" style="stroke:#181818;stroke-width:1.0;"/><text fill="#000000" font-family="sans-serif" font-size="13" lengthAdjust="spacing" textLength="130" x="1273" y="422.897">abrirEdicionProfesor()</text></g><!--link ListEdificios to EditEdificio--><g id="link_ListEdificios_EditEdificio"><path d="M872.75,612.83 C894.28,609.08 912,606 912,606 C912,606 1017,606 1017,606 C1017,606 1028.8056,608.143 1050.0556,611.983 " fill="none" id="ListEdificios-to-EditEdificio" style="stroke:#181818;stroke-width:1.0;"/><polygon fill="#181818" points="1055.96,613.05,1047.8147,607.5133,1051.0397,612.1609,1046.3921,615.3858,1055.96,613.05" style="stroke:#181818;stroke-width:1.0;"/><text fill="#000000" font-family="sans-serif" font-size="13" lengthAdjust="spacing" textLength="80" x="924.5" y="601.897">crearEdificio()</text></g><!--link ListEdificios to EditEdificio--><g id="link_ListEdificios_EditEdificio"><path d="M872.75,630.61 C894.28,631.92 912,633 912,633 C912,633 1017,633 1017,633 C1017,633 1028.7221,632.2604 1049.9721,630.9104 " fill="none" id="ListEdificios-to-EditEdificio-1" style="stroke:#181818;stroke-width:1.0;"/><polygon fill="#181818" points="1055.96,630.53,1046.7245,627.1087,1050.9701,630.847,1047.2317,635.0926,1055.96,630.53" style="stroke:#181818;stroke-width:1.0;"/><text fill="#000000" font-family="sans-serif" font-size="13" lengthAdjust="spacing" textLength="85" x="922" y="628.897">editarEdificio()</text></g><!--link EditEdificio to ListEdificios--><g id="link_EditEdificio_ListEdificios"><path d="M1055.96,648.01 C1034.71,654.55 1017,660 1017,660 C1017,660 912,660 912,660 C912,660 900.0335,656.4623 878.5035,650.0923 " fill="none" id="EditEdificio-to-ListEdificios" style="stroke:#181818;stroke-width:1.0;"/><polygon fill="#181818" points="872.75,648.39,880.2454,654.779,877.5446,649.8085,882.515,647.1077,872.75,648.39" style="stroke:#181818;stroke-width:1.0;"/><text fill="#000000" font-family="sans-serif" font-size="13" lengthAdjust="spacing" textLength="84" x="922.5" y="655.897">abrirEdificios()</text></g><!--link ListEdificios to ListEdificios--><g id="link_ListEdificios_ListEdificios"><path d="M767.58,600.72 C758.96,583.23 768.44,566 796,566 C823.56,566 835.6925,577.8481 827.0725,595.3381 " fill="none" id="ListEdificios-to-ListEdificios" style="stroke:#181818;stroke-width:1.0;"/><polygon fill="#181818" points="824.42,600.72,831.9866,594.4155,826.6304,596.2351,824.8108,590.8789,824.42,600.72" style="stroke:#181818;stroke-width:1.0;"/><text fill="#000000" font-family="sans-serif" font-size="13" lengthAdjust="spacing" textLength="98" x="747" y="556.897">eliminarEdificio()</text></g><!--link EditEdificio to EditEdificio--><g id="link_EditEdificio_EditEdificio"><path d="M1100.75,600.72 C1092.34,583.23 1101.59,566 1128.5,566 C1155.41,566 1167.2601,577.8226 1158.8501,595.3126 " fill="none" id="EditEdificio-to-EditEdificio" style="stroke:#181818;stroke-width:1.0;"/><polygon fill="#181818" points="1156.25,600.72,1163.7551,594.3424,1158.4168,596.2139,1156.5453,590.8756,1156.25,600.72" style="stroke:#181818;stroke-width:1.0;"/><text fill="#000000" font-family="sans-serif" font-size="13" lengthAdjust="spacing" textLength="85" x="1086" y="556.897">editarEdificio()</text></g><!--link ListAulas to EditAula--><g id="link_ListAulas_EditAula"><path d="M860.04,765.16 C925.05,772.55 1017,783 1017,783 C1017,783 1036.816,786.581 1063.436,791.401 " fill="none" id="ListAulas-to-EditAula" style="stroke:#181818;stroke-width:1.0;"/><polygon fill="#181818" points="1069.34,792.47,1061.1967,786.9305,1064.42,791.5792,1059.7713,794.8025,1069.34,792.47" style="stroke:#181818;stroke-width:1.0;"/><text fill="#000000" font-family="sans-serif" font-size="13" lengthAdjust="spacing" textLength="64" x="932.5" y="766.897">crearAula()</text></g><!--link ListAulas to EditAula--><g id="link_ListAulas_EditAula"><path d="M852.48,783.09 C881.89,796.38 912,810 912,810 C912,810 1017,810 1017,810 C1017,810 1036.7321,808.7502 1063.3521,807.0602 " fill="none" id="ListAulas-to-EditAula-1" style="stroke:#181818;stroke-width:1.0;"/><polygon fill="#181818" points="1069.34,806.68,1060.1046,803.2583,1064.35,806.9968,1060.6115,811.2422,1069.34,806.68" style="stroke:#181818;stroke-width:1.0;"/><text fill="#000000" font-family="sans-serif" font-size="13" lengthAdjust="spacing" textLength="69" x="930" y="805.897">editarAula()</text></g><!--link EditAula to ListAulas--><g id="link_EditAula_ListAulas"><path d="M1069.34,820.9 C1042.72,829.09 1017,837 1017,837 C1017,837 912,837 912,837 C912,837 872.3057,809.7271 838.6457,786.6071 " fill="none" id="EditAula-to-ListAulas" style="stroke:#181818;stroke-width:1.0;"/><polygon fill="#181818" points="833.7,783.21,838.8539,791.6027,837.8214,786.0409,843.3833,785.0084,833.7,783.21" style="stroke:#181818;stroke-width:1.0;"/><text fill="#000000" font-family="sans-serif" font-size="13" lengthAdjust="spacing" textLength="68" x="930.5" y="832.897">abrirAulas()</text></g><!--link ListAulas to ListAulas--><g id="link_ListAulas_ListAulas"><path d="M767.58,732.72 C758.96,715.23 768.44,698 796,698 C823.56,698 835.6925,709.8481 827.0725,727.3381 " fill="none" id="ListAulas-to-ListAulas" style="stroke:#181818;stroke-width:1.0;"/><polygon fill="#181818" points="824.42,732.72,831.9866,726.4155,826.6304,728.2351,824.8108,722.8789,824.42,732.72" style="stroke:#181818;stroke-width:1.0;"/><text fill="#000000" font-family="sans-serif" font-size="13" lengthAdjust="spacing" textLength="82" x="755" y="688.897">eliminarAula()</text></g><!--link EditAula to EditAula--><g id="link_EditAula_EditAula"><path d="M1100.75,777.72 C1092.34,760.23 1101.59,743 1128.5,743 C1155.41,743 1167.2601,754.8226 1158.8501,772.3126 " fill="none" id="EditAula-to-EditAula" style="stroke:#181818;stroke-width:1.0;"/><polygon fill="#181818" points="1156.25,777.72,1163.7551,771.3424,1158.4168,773.2139,1156.5453,767.8756,1156.25,777.72" style="stroke:#181818;stroke-width:1.0;"/><text fill="#000000" font-family="sans-serif" font-size="13" lengthAdjust="spacing" textLength="69" x="1094" y="733.897">editarAula()</text></g><!--link ListRecursos to EditRecurso--><g id="link_ListRecursos_EditRecurso"><path d="M874.91,925.74 C929.01,937.36 994.7738,951.4898 1047.9338,962.9098 " fill="none" id="ListRecursos-to-EditRecurso" style="stroke:#181818;stroke-width:1.0;"/><polygon fill="#181818" points="1053.8,964.17,1045.8409,958.3689,1048.9115,963.1198,1044.1606,966.1905,1053.8,964.17" style="stroke:#181818;stroke-width:1.0;"/><text fill="#000000" font-family="sans-serif" font-size="13" lengthAdjust="spacing" textLength="86" x="921.5" y="928.897">crearRecurso()</text></g><!--link ListRecursos to EditRecurso--><g id="link_ListRecursos_EditRecurso"><path d="M846.44,934.01 C865.14,943.47 882,952 882,952 C882,952 912,982 912,982 C912,982 1017,982 1017,982 C1017,982 1027.531,981.8096 1047.791,981.4396 " fill="none" id="ListRecursos-to-EditRecurso-1" style="stroke:#181818;stroke-width:1.0;"/><polygon fill="#181818" points="1053.79,981.33,1044.7185,977.495,1048.7908,981.4213,1044.8645,985.4937,1053.79,981.33" style="stroke:#181818;stroke-width:1.0;"/><text fill="#000000" font-family="sans-serif" font-size="13" lengthAdjust="spacing" textLength="91" x="919" y="977.897">editarRecurso()</text></g><!--link EditRecurso to ListRecursos--><g id="link_EditRecurso_ListRecursos"><path d="M1053.79,999.34 C1033.53,1004.66 1017,1009 1017,1009 C1017,1009 912,1009 912,1009 C912,1009 882,952 882,952 C882,952 870.4939,946.1784 851.7939,936.7184 " fill="none" id="EditRecurso-to-ListRecursos" style="stroke:#181818;stroke-width:1.0;"/><polygon fill="#181818" points="846.44,934.01,852.6652,941.6419,850.9016,936.267,856.2765,934.5034,846.44,934.01" style="stroke:#181818;stroke-width:1.0;"/><text fill="#000000" font-family="sans-serif" font-size="13" lengthAdjust="spacing" textLength="90" x="919.5" y="1004.897">abrirRecursos()</text></g><!--link ListRecursos to ListRecursos--><g id="link_ListRecursos_ListRecursos"><path d="M767.58,883.72 C758.96,866.23 768.44,849 796,849 C823.56,849 835.6925,860.8481 827.0725,878.3381 " fill="none" id="ListRecursos-to-ListRecursos" style="stroke:#181818;stroke-width:1.0;"/><polygon fill="#181818" points="824.42,883.72,831.9866,877.4155,826.6304,879.2351,824.8108,873.8789,824.42,883.72" style="stroke:#181818;stroke-width:1.0;"/><text fill="#000000" font-family="sans-serif" font-size="13" lengthAdjust="spacing" textLength="104" x="744" y="839.897">eliminarRecurso()</text></g><!--link EditRecurso to EditRecurso--><g id="link_EditRecurso_EditRecurso"><path d="M1100.75,954.72 C1092.34,937.23 1101.59,920 1128.5,920 C1155.41,920 1167.2601,931.8226 1158.8501,949.3126 " fill="none" id="EditRecurso-to-EditRecurso" style="stroke:#181818;stroke-width:1.0;"/><polygon fill="#181818" points="1156.25,954.72,1163.7551,948.3424,1158.4168,950.2139,1156.5453,944.8756,1156.25,954.72" style="stroke:#181818;stroke-width:1.0;"/><text fill="#000000" font-family="sans-serif" font-size="13" lengthAdjust="spacing" textLength="91" x="1083" y="910.897">editarRecurso()</text></g><!--SRC=[ZPNBRkCW58RtF0NgQcQala0M8z64ffQIECB9QZIAt9IaQ1mx0cVHjn-C0NCnTZU93_hE3-V2eQAN5hODvEpwsS8FnkcvPKqDn3zMtqjUtc35Qjf-tIcyDzLNPm0WshAbyAd0HPRlJajC25gX9rWAk6lGe_sqG5OSy1QTLbcnptVPomOhQ4lhXnNPatnDq1OL9_IIONB85R9XejtpvYeFK8eGzKZymInfmEMH57aik7nmqGWFYgGKuspuYekSuD73NQXeE1KXF7OwXKRWdk1NJF1kcGNHkrvxJY-Kq_hCXaJWLVQQBREH4ANdXPrP4w6HlY4DY8wRaHgWHpLiso6QG5Qd8mn0S2BpX9wzt6imEfJcG9pJ8bllqE58WZCYmQvrASEeXqAyvGGH6V4Qxx1ip1vSqvfo1OQOAxTiQl6esXA0Fx_-mkVdtwQXGV-lbhhsXGl8Qfc-aXTKID4VFm5GwuEFHCwKSuUmWDVT2rY-SyQj7O9zrsggDqQqT3CEOdeXH6s3QDBQ8QWgho7r7GAcffenfeiDIL_0g_hcRutyOOrBcQJBVEalXmBkNL2uMtAvjx9im4WbgFDpCUNd2YqWbTRWrZa0hogkYrgHf-Eqj6MI7dEytIBj43G2hTYDrPuFS3M_iqd4ppKR69hCwYjJHsmociRwCoGujuLDVBP8LcHQqiVIbmBubs6axAQ6fkgp3b6VZ7Y4Lz0fe-skg8rdjfdatJT1tPeBkpvuwQrFQStF393QRkJiPevqToswK7Q-M4UpeejXJ9tQARvFqgH3CE9C9HmVL_8xUyGESsCKsF5fzJjBnzjzwgEFCVt-ev0pbKrScWF6VqhCOr8J7hYJtQhf1Hs1jlJvqd2_-mJjlo8cfi41E7BpyY4y_KQD3EFkGLh0MoDQUPKw8nvcAIGO22dCxzKKDLGyHNXP78E6XpU9c5St2Vm7]--></g></svg>