<?xml version="1.0" encoding="us-ascii" standalone="no"?><svg xmlns="http://www.w3.org/2000/svg" xmlns:xlink="http://www.w3.org/1999/xlink" contentStyleType="text/css" height="547px" preserveAspectRatio="none" style="width:997px;height:547px;background:#FFFFFF;" version="1.1" viewBox="0 0 997 547" width="997px" zoomAndPan="magnify"><defs/><g><!--cluster editarPrograma--><g id="cluster_editarPrograma"><path d="M8.5,111 L129.5,111 A3.75,3.75 0 0 1 132,113.5 L139,136.0679 L822.5,136.0679 A2.5,2.5 0 0 1 825,138.5679 L825,537.5 A2.5,2.5 0 0 1 822.5,540 L8.5,540 A2.5,2.5 0 0 1 6,537.5 L6,113.5 A2.5,2.5 0 0 1 8.5,111 " fill="none" style="stroke:#000000;stroke-width:1.5;"/><line style="stroke:#000000;stroke-width:1.5;" x1="6" x2="139" y1="136.0679" y2="136.0679"/><text fill="#000000" font-family="sans-serif" font-size="14" font-weight="bold" lengthAdjust="spacing" textLength="120" x="10" y="127.9659">editarPrograma()</text></g><!--entity EditarProgramaView--><g id="elem_EditarProgramaView"><rect fill="#629EF9" height="39.0679" rx="2.5" ry="2.5" style="stroke:#181818;stroke-width:0.5;" width="157" x="392.5" y="149"/><text fill="#000000" font-family="sans-serif" font-size="14" lengthAdjust="spacing" textLength="137" x="402.5" y="173.9659">EditarProgramaView</text></g><!--entity ProgramaController--><g id="elem_ProgramaController"><rect fill="#B5BD68" height="39.0679" rx="2.5" ry="2.5" style="stroke:#181818;stroke-width:0.5;" width="153" x="269.5" y="267"/><text fill="#000000" font-family="sans-serif" font-size="14" lengthAdjust="spacing" textLength="133" x="279.5" y="291.9659">ProgramaController</text></g><!--entity ProgramaRepository--><g id="elem_ProgramaRepository"><rect fill="#F2AC4E" height="39.0679" rx="2.5" ry="2.5" style="stroke:#181818;stroke-width:0.5;" width="157" x="151.5" y="385"/><text fill="#000000" font-family="sans-serif" font-size="14" lengthAdjust="spacing" textLength="137" x="161.5" y="409.9659">ProgramaRepository</text></g><!--entity Programa--><g id="elem_Programa"><rect fill="#F2AC4E" height="39.0679" rx="2.5" ry="2.5" style="stroke:#181818;stroke-width:0.5;" width="86" x="187" y="485"/><text fill="#000000" font-family="sans-serif" font-size="14" lengthAdjust="spacing" textLength="66" x="197" y="509.9659">Programa</text></g><!--entity ProgramasAbierto--><g id="elem_ProgramasAbierto"><rect fill="#CDEBA5" height="39.0679" rx="2.5" ry="2.5" style="stroke:#181818;stroke-width:0.5;" width="150" x="286" y="7"/><text fill="#000000" font-family="sans-serif" font-size="14" lengthAdjust="spacing" textLength="130" x="296" y="31.9659">:Programas Abierto</text></g><!--entity CrearPrograma--><g id="elem_CrearPrograma"><rect fill="#CDEBA5" height="39.0679" rx="2.5" ry="2.5" style="stroke:#181818;stroke-width:0.5;" width="221" x="470.5" y="7"/><text fill="#000000" font-family="sans-serif" font-size="14" lengthAdjust="spacing" textLength="201" x="480.5" y="31.9659">:Collaboration CrearPrograma</text></g><!--entity ProgramasAbiertoSalida--><g id="elem_ProgramasAbiertoSalida"><rect fill="#CDEBA5" height="39.0679" rx="2.5" ry="2.5" style="stroke:#181818;stroke-width:0.5;" width="150" x="841" y="267"/><text fill="#000000" font-family="sans-serif" font-size="14" lengthAdjust="spacing" textLength="130" x="851" y="291.9659">:Programas Abierto</text></g><!--link ProgramasAbierto to EditarProgramaView--><g id="link_ProgramasAbierto_EditarProgramaView"><path d="M361,46.3 C361,66.28 361,95 361,95 C361,95 405.0703,124.0481 437.6603,145.5281 " fill="none" id="ProgramasAbierto-to-EditarProgramaView" style="stroke:#181818;stroke-width:1.0;"/><polygon fill="#181818" points="442.67,148.83,437.3567,140.5373,438.4952,146.0784,432.9541,147.217,442.67,148.83" style="stroke:#181818;stroke-width:1.0;"/><text fill="#000000" font-family="sans-serif" font-size="13" lengthAdjust="spacing" textLength="175" x="362" y="90.897">editarPrograma(programaId)</text></g><!--link CrearPrograma to EditarProgramaView--><g id="link_CrearPrograma_EditarProgramaView"><path d="M570.14,46.3 C558.6,66.28 542,95 542,95 C542,95 514.5185,123.0637 493.4785,144.5437 " fill="none" id="CrearPrograma-to-EditarProgramaView" style="stroke:#181818;stroke-width:1.0;"/><polygon fill="#181818" points="489.28,148.83,498.4353,145.1995,492.7788,145.2581,492.7202,139.6015,489.28,148.83" style="stroke:#181818;stroke-width:1.0;"/><text fill="#000000" font-family="sans-serif" font-size="13" lengthAdjust="spacing" textLength="203" x="553" y="90.897">editarPrograma(programaNuevo)</text></g><!--link EditarProgramaView to ProgramaController--><g id="link_EditarProgramaView_ProgramaController"><path d="M392.08,178.68 C271.18,192.74 54,218 54,218 C54,218 54,237 54,237 C54,237 176.8511,257.4068 263.3611,271.7768 " fill="none" id="EditarProgramaView-to-ProgramaController" style="stroke:#181818;stroke-width:1.0;"/><polygon fill="#181818" points="269.28,272.76,261.0571,267.3393,264.3476,271.9407,259.7462,275.2312,269.28,272.76" style="stroke:#181818;stroke-width:1.0;"/><text fill="#000000" font-family="sans-serif" font-size="13" lengthAdjust="spacing" textLength="247" x="55" y="232.897">cargarPrograma(programaId) : Programa</text></g><!--link EditarProgramaView to ProgramaController--><g id="link_EditarProgramaView_ProgramaController"><path d="M421.88,188.11 C385.78,201.79 343,218 343,218 C343,218 343,237 343,237 C343,237 343.6279,247.2215 344.4779,260.9015 " fill="none" id="EditarProgramaView-to-ProgramaController-1" style="stroke:#181818;stroke-width:1.0;"/><polygon fill="#181818" points="344.85,266.89,348.2842,257.6593,344.5399,261.8996,340.2996,258.1554,344.85,266.89" style="stroke:#181818;stroke-width:1.0;"/><text fill="#000000" font-family="sans-serif" font-size="13" lengthAdjust="spacing" textLength="208" x="344" y="232.897">modificarCampos(programa) : void</text></g><!--link EditarProgramaView to ProgramaController--><g id="link_EditarProgramaView_ProgramaController"><path d="M504,188.11 C528.26,201.79 557,218 557,218 C557,218 557,237 557,237 C557,237 488.9477,252.6466 428.6177,266.5066 " fill="none" id="EditarProgramaView-to-ProgramaController-2" style="stroke:#181818;stroke-width:1.0;"/><polygon fill="#181818" points="422.77,267.85,432.4371,269.7333,427.6431,266.7305,430.6459,261.9364,422.77,267.85" style="stroke:#181818;stroke-width:1.0;"/><text fill="#000000" font-family="sans-serif" font-size="13" lengthAdjust="spacing" textLength="211" x="558" y="232.897">guardarPrograma(programa) : void</text></g><!--link ProgramaController to ProgramaRepository--><g id="link_ProgramaController_ProgramaRepository"><path d="M269.16,301.72 C191.85,316.03 84,336 84,336 C84,336 84,355 84,355 C84,355 127.1061,369.318 168.2761,382.998 " fill="none" id="ProgramaController-to-ProgramaRepository" style="stroke:#181818;stroke-width:1.0;"/><polygon fill="#181818" points="173.97,384.89,166.6905,378.2561,169.2251,383.3134,164.1678,385.848,173.97,384.89" style="stroke:#181818;stroke-width:1.0;"/><text fill="#000000" font-family="sans-serif" font-size="13" lengthAdjust="spacing" textLength="230" x="85" y="350.897">obtenerPorId(programaId) : Programa</text></g><!--link ProgramaController to ProgramaRepository--><g id="link_ProgramaController_ProgramaRepository"><path d="M338.76,306.3 C331.06,326.28 320,355 320,355 C320,355 295.2016,368.3632 269.8216,382.0432 " fill="none" id="ProgramaController-to-ProgramaRepository-1" style="stroke:#181818;stroke-width:1.0;"/><polygon fill="#181818" points="264.54,384.89,274.3603,384.1408,268.9414,382.5176,270.5645,377.0987,264.54,384.89" style="stroke:#181818;stroke-width:1.0;"/><text fill="#000000" font-family="sans-serif" font-size="13" lengthAdjust="spacing" textLength="160" x="327" y="350.897">actualizar(programa) : void</text></g><!--link ProgramaRepository to Programa--><g id="link_ProgramaRepository_Programa"><path d="M230,424.4 C230,441.86 230,467.66 230,484.99 " fill="none" id="ProgramaRepository-Programa" style="stroke:#181818;stroke-width:1.0;"/></g><!--link EditarProgramaView to ProgramasAbiertoSalida--><g id="link_EditarProgramaView_ProgramasAbiertoSalida"><path d="M549.66,181.93 C640.62,196.3 778,218 778,218 C778,218 831.6902,244.2638 872.5402,264.2438 " fill="none" id="EditarProgramaView-to-ProgramasAbiertoSalida" style="stroke:#181818;stroke-width:1.0;stroke-dasharray:7.0,7.0;"/><polygon fill="#181818" points="877.93,266.88,871.6027,259.3325,873.4385,264.6832,868.0878,266.5189,877.93,266.88" style="stroke:#181818;stroke-width:1.0;"/><text fill="#000000" font-family="sans-serif" font-size="13" lengthAdjust="spacing" textLength="102" x="816" y="232.897">abrirProgramas()</text></g><!--SRC=[fPDFQy904CNlyoc6z68EUf0gDGV1fX6y56cXzucx3Oin4oQhnPP-zwvY4_D7h3IdpUnxlvat9CNQP3a9RJ0rcRRxN6FEwVxm0Y1wPIbBKertuLFqE1kX5oo54oUd0cUnqMBPGtSkgwTYfpNaDAMOXQpX34FH9B- -8wHM-KVpLqgD8e2SLcjAD6fbR0K-EBnwgUTx-0NedhEcu-4acaymgYdVZFve2kDHhCOFvHGXPrPSKYrDuNmu2- -ZKlYYSowCPTbV4S8t03H3Ohy_xHWkQAJjvQV3GlbGM_2jWEUjth4FqBPWNpbKEt-0AvAaUnOCgdZGjXw7QoygG8wjphGiMHRgAgyoEjxPVLU42mashCoxSJb2sZXOsVBGSCT6tGHBjYIgOnyLx8PDqCfktOV-IVAteGQ3wOK_nR5YCQMwwFdm0m00]--></g></svg>