<?xml version="1.0" encoding="us-ascii" standalone="no"?><svg xmlns="http://www.w3.org/2000/svg" xmlns:xlink="http://www.w3.org/1999/xlink" contentStyleType="text/css" height="442px" preserveAspectRatio="none" style="width:1712px;height:442px;background:#FFFFFF;" version="1.1" viewBox="0 0 1712 442" width="1712px" zoomAndPan="magnify"><defs/><g><!--cluster abrirProgramas--><g id="cluster_abrirProgramas"><path d="M179,6.602 L299,6.602 A3.75,3.75 0 0 1 301.5,9.102 L308.5,31.6699 L744,31.6699 A2.5,2.5 0 0 1 746.5,34.1699 L746.5,433.102 A2.5,2.5 0 0 1 744,435.602 L179,435.602 A2.5,2.5 0 0 1 176.5,433.102 L176.5,9.102 A2.5,2.5 0 0 1 179,6.602 " fill="none" style="stroke:#000000;stroke-width:1.5;"/><line style="stroke:#000000;stroke-width:1.5;" x1="176.5" x2="308.5" y1="31.6699" y2="31.6699"/><text fill="#000000" font-family="sans-serif" font-size="14" font-weight="bold" lengthAdjust="spacing" textLength="119" x="180.5" y="23.5679">abrirProgramas()</text></g><!--entity AbrirProgramasView--><g id="elem_AbrirProgramasView"><rect fill="#629EF9" height="39.0679" rx="2.5" ry="2.5" style="stroke:#181818;stroke-width:0.5;" width="158" x="572.5" y="44.602"/><text fill="#000000" font-family="sans-serif" font-size="14" lengthAdjust="spacing" textLength="138" x="582.5" y="69.5679">AbrirProgramasView</text></g><!--entity ProgramasController--><g id="elem_ProgramasController"><rect fill="#B5BD68" height="39.0679" rx="2.5" ry="2.5" style="stroke:#181818;stroke-width:0.5;" width="160" x="289.5" y="162.602"/><text fill="#000000" font-family="sans-serif" font-size="14" lengthAdjust="spacing" textLength="140" x="299.5" y="187.5679">ProgramasController</text></g><!--entity ProgramaRepository--><g id="elem_ProgramaRepository"><rect fill="#F2AC4E" height="39.0679" rx="2.5" ry="2.5" style="stroke:#181818;stroke-width:0.5;" width="157" x="291" y="280.602"/><text fill="#000000" font-family="sans-serif" font-size="14" lengthAdjust="spacing" textLength="137" x="301" y="305.5679">ProgramaRepository</text></g><!--entity Programa--><g id="elem_Programa"><rect fill="#F2AC4E" height="39.0679" rx="2.5" ry="2.5" style="stroke:#181818;stroke-width:0.5;" width="86" x="326.5" y="380.602"/><text fill="#000000" font-family="sans-serif" font-size="14" lengthAdjust="spacing" textLength="66" x="336.5" y="405.5679">Programa</text></g><!--entity SistemaDisponible--><g id="elem_SistemaDisponible"><rect fill="#CDEBA5" height="39.0679" rx="2.5" ry="2.5" style="stroke:#181818;stroke-width:0.5;" width="153" x="7" y="44.602"/><text fill="#000000" font-family="sans-serif" font-size="14" lengthAdjust="spacing" textLength="133" x="17" y="69.5679">:Sistema Disponible</text></g><!--entity SistemaDisponibleSalida--><g id="elem_SistemaDisponibleSalida"><rect fill="#CDEBA5" height="39.0679" rx="2.5" ry="2.5" style="stroke:#181818;stroke-width:0.5;" width="153" x="763" y="162.602"/><text fill="#000000" font-family="sans-serif" font-size="14" lengthAdjust="spacing" textLength="133" x="773" y="187.5679">:Sistema Disponible</text></g><!--entity CrearPrograma--><g id="elem_CrearPrograma"><rect fill="#CDEBA5" height="39.0679" rx="2.5" ry="2.5" style="stroke:#181818;stroke-width:0.5;" width="221" x="951" y="162.602"/><text fill="#000000" font-family="sans-serif" font-size="14" lengthAdjust="spacing" textLength="201" x="961" y="187.5679">:Collaboration CrearPrograma</text></g><!--entity EditarPrograma--><g id="elem_EditarPrograma"><rect fill="#CDEBA5" height="39.0679" rx="2.5" ry="2.5" style="stroke:#181818;stroke-width:0.5;" width="224" x="1207.5" y="162.602"/><text fill="#000000" font-family="sans-serif" font-size="14" lengthAdjust="spacing" textLength="204" x="1217.5" y="187.5679">:Collaboration EditarPrograma</text></g><!--entity EliminarPrograma--><g id="elem_EliminarPrograma"><rect fill="#CDEBA5" height="39.0679" rx="2.5" ry="2.5" style="stroke:#181818;stroke-width:0.5;" width="240" x="1466.5" y="162.602"/><text fill="#000000" font-family="sans-serif" font-size="14" lengthAdjust="spacing" textLength="220" x="1476.5" y="187.5679">:Collaboration EliminarPrograma</text></g><!--link SistemaDisponible to AbrirProgramasView--><g id="link_SistemaDisponible_AbrirProgramasView"><path d="M160.1,64.102 C267.9,64.102 457.36,64.102 566.47,64.102 " fill="none" id="SistemaDisponible-to-AbrirProgramasView" style="stroke:#181818;stroke-width:1.0;"/><polygon fill="#181818" points="572.47,64.102,563.47,60.102,567.47,64.102,563.47,68.102,572.47,64.102" style="stroke:#181818;stroke-width:1.0;"/><text fill="#000000" font-family="sans-serif" font-size="13" lengthAdjust="spacing" textLength="102" x="315.25" y="56.999">abrirProgramas()</text></g><!--link AbrirProgramasView to ProgramasController--><g id="link_AbrirProgramasView_ProgramasController"><path d="M572.19,74.112 C448.7,88.132 224.5,113.602 224.5,113.602 C224.5,113.602 224.5,132.602 224.5,132.602 C224.5,132.602 267.27,146.9084 308.16,160.5884 " fill="none" id="AbrirProgramasView-to-ProgramasController" style="stroke:#181818;stroke-width:1.0;"/><polygon fill="#181818" points="313.85,162.492,306.5841,155.8432,309.1083,160.9056,304.0459,163.4299,313.85,162.492" style="stroke:#181818;stroke-width:1.0;"/><text fill="#000000" font-family="sans-serif" font-size="13" lengthAdjust="spacing" textLength="207" x="225.5" y="128.499">listarProgramas() : List&lt;Programa&gt;</text></g><!--link AbrirProgramasView to ProgramasController--><g id="link_AbrirProgramasView_ProgramasController"><path d="M584.34,83.712 C534.99,97.392 476.5,113.602 476.5,113.602 C476.5,113.602 435.7645,139.3006 404.0945,159.2806 " fill="none" id="AbrirProgramasView-to-ProgramasController-1" style="stroke:#181818;stroke-width:1.0;"/><polygon fill="#181818" points="399.02,162.482,408.7661,161.0629,403.2488,159.8141,404.4975,154.2968,399.02,162.482" style="stroke:#181818;stroke-width:1.0;"/><text fill="#000000" font-family="sans-serif" font-size="13" lengthAdjust="spacing" textLength="252" x="477.5" y="128.499">filtrarProgramas(criterio) : List&lt;Programa&gt;</text></g><!--link ProgramasController to ProgramaRepository--><g id="link_ProgramasController_ProgramaRepository"><path d="M314.24,201.712 C273.63,215.392 225.5,231.602 225.5,231.602 C225.5,231.602 225.5,250.602 225.5,250.602 C225.5,250.602 267.9439,264.8966 308.5539,278.5766 " fill="none" id="ProgramasController-to-ProgramaRepository" style="stroke:#181818;stroke-width:1.0;"/><polygon fill="#181818" points="314.24,280.492,306.9879,273.8282,309.5016,278.8958,304.434,281.4096,314.24,280.492" style="stroke:#181818;stroke-width:1.0;"/><text fill="#000000" font-family="sans-serif" font-size="13" lengthAdjust="spacing" textLength="197" x="226.5" y="246.499">obtenerTodos() : List&lt;Programa&gt;</text></g><!--link ProgramasController to ProgramaRepository--><g id="link_ProgramasController_ProgramaRepository"><path d="M392.14,201.712 C408.78,215.392 428.5,231.602 428.5,231.602 C428.5,231.602 428.5,250.602 428.5,250.602 C428.5,250.602 413.4148,263.0016 396.7748,276.6816 " fill="none" id="ProgramasController-to-ProgramaRepository-1" style="stroke:#181818;stroke-width:1.0;"/><polygon fill="#181818" points="392.14,280.492,401.6324,277.8663,396.0023,277.3167,396.552,271.6866,392.14,280.492" style="stroke:#181818;stroke-width:1.0;"/><text fill="#000000" font-family="sans-serif" font-size="13" lengthAdjust="spacing" textLength="259" x="429.5" y="246.499">buscarPorCriterio(criterio) : List&lt;Programa&gt;</text></g><!--link ProgramaRepository to Programa--><g id="link_ProgramaRepository_Programa"><path d="M369.5,320.002 C369.5,337.462 369.5,363.262 369.5,380.592 " fill="none" id="ProgramaRepository-Programa" style="stroke:#181818;stroke-width:1.0;"/></g><!--link AbrirProgramasView to SistemaDisponibleSalida--><g id="link_AbrirProgramasView_SistemaDisponibleSalida"><path d="M684.89,83.712 C709.42,97.392 738.5,113.602 738.5,113.602 C738.5,113.602 776.7518,139.1676 806.6418,159.1476 " fill="none" id="AbrirProgramasView-to-SistemaDisponibleSalida" style="stroke:#181818;stroke-width:1.0;stroke-dasharray:7.0,7.0;"/><polygon fill="#181818" points="811.63,162.482,806.3706,154.155,807.4732,159.7033,801.9248,160.8059,811.63,162.482" style="stroke:#181818;stroke-width:1.0;"/><text fill="#000000" font-family="sans-serif" font-size="13" lengthAdjust="spacing" textLength="115" x="766.5" y="128.499">completarGestion()</text></g><!--link AbrirProgramasView to CrearPrograma--><g id="link_AbrirProgramasView_CrearPrograma"><path d="M730.75,81.182 C800.32,95.302 890.5,113.602 890.5,113.602 C890.5,113.602 958.1292,140.2988 1008.7392,160.2788 " fill="none" id="AbrirProgramasView-to-CrearPrograma" style="stroke:#181818;stroke-width:1.0;stroke-dasharray:7.0,7.0;"/><polygon fill="#181818" points="1014.32,162.482,1007.4176,155.4566,1009.6693,160.646,1004.4799,162.8977,1014.32,162.482" style="stroke:#181818;stroke-width:1.0;"/><text fill="#000000" font-family="sans-serif" font-size="13" lengthAdjust="spacing" textLength="98" x="936.5" y="128.499">crearPrograma()</text></g><!--link AbrirProgramasView to EditarPrograma--><g id="link_AbrirProgramasView_EditarPrograma"><path d="M730.83,74.912 C845.37,89.092 1043.5,113.602 1043.5,113.602 C1043.5,113.602 1156.1819,141.1562 1237.8919,161.1462 " fill="none" id="AbrirProgramasView-to-EditarPrograma" style="stroke:#181818;stroke-width:1.0;stroke-dasharray:7.0,7.0;"/><polygon fill="#181818" points="1243.72,162.572,1235.9284,156.5478,1238.8632,161.3838,1234.0273,164.3187,1243.72,162.572" style="stroke:#181818;stroke-width:1.0;"/><text fill="#000000" font-family="sans-serif" font-size="13" lengthAdjust="spacing" textLength="103" x="1118.5" y="128.499">editarPrograma()</text></g><!--link AbrirProgramasView to EliminarPrograma--><g id="link_AbrirProgramasView_EliminarPrograma"><path d="M730.79,71.742 C889.37,85.022 1230.5,113.602 1230.5,113.602 C1230.5,113.602 1377.4651,141.4639 1482.8551,161.4539 " fill="none" id="AbrirProgramasView-to-EliminarPrograma" style="stroke:#181818;stroke-width:1.0;stroke-dasharray:7.0,7.0;"/><polygon fill="#181818" points="1488.75,162.572,1480.6531,156.9649,1483.8376,161.6402,1479.1622,164.8247,1488.75,162.572" style="stroke:#181818;stroke-width:1.0;"/><text fill="#000000" font-family="sans-serif" font-size="13" lengthAdjust="spacing" textLength="116" x="1326.5" y="128.499">eliminarPrograma()</text></g><!--SRC=[fP91Jy9048Nl-oiczQ87E10XqXWIBCMB1oF6-xOToOJjRhExnX3ZVtSmIDkbHHAQNlRblMzdTiPjI5VIoX8KQVJR2g4oQhix264nzrAl5S9LiaWVvcE8uXKvZwM41RdAQCeKHY0TxELQ5PNCDtAD83DBzjcQDL_2HlwZjdHz4y6N0FuQzqr6qtGvXNdB-KRu6HgpSLPCxk3WIOpsrYY5DdGkH_FaDZquNx0oZhonst-CulkobrX9HONiH2HSgCoCbPwCXiIYF3JxosefPn3IWdo0Q4ldC1ILf4DA80fnr2OCx63MCR0Omd4BSUo2GS7fZYd6l9YkqG7d8OOdrkx_f9aG7K4OD83ri6CmcKUDzjKKvZIi3Z6hNeVEwlkAVoVbRRFwt997I-RIBh8FbpFNs6GFF4dkA7audFNjQWovAIk5_EoFw7PRmKFhGRHMb8FDOt-glPKnOEjy8XVi8IS3XRC_]--></g></svg>