<?xml version="1.0" encoding="us-ascii" standalone="no"?><svg xmlns="http://www.w3.org/2000/svg" xmlns:xlink="http://www.w3.org/1999/xlink" contentStyleType="text/css" height="442px" preserveAspectRatio="none" style="width:1661px;height:442px;background:#FFFFFF;" version="1.1" viewBox="0 0 1661 442" width="1661px" zoomAndPan="magnify"><defs/><g><!--cluster abrirProfesores--><g id="cluster_abrirProfesores"><path d="M179,6.602 L297,6.602 A3.75,3.75 0 0 1 299.5,9.102 L306.5,31.6699 L723,31.6699 A2.5,2.5 0 0 1 725.5,34.1699 L725.5,433.102 A2.5,2.5 0 0 1 723,435.602 L179,435.602 A2.5,2.5 0 0 1 176.5,433.102 L176.5,9.102 A2.5,2.5 0 0 1 179,6.602 " fill="none" style="stroke:#000000;stroke-width:1.5;"/><line style="stroke:#000000;stroke-width:1.5;" x1="176.5" x2="306.5" y1="31.6699" y2="31.6699"/><text fill="#000000" font-family="sans-serif" font-size="14" font-weight="bold" lengthAdjust="spacing" textLength="117" x="180.5" y="23.5679">abrirProfesores()</text></g><!--entity AbrirProfesoresView--><g id="elem_AbrirProfesoresView"><rect fill="#629EF9" height="39.0679" rx="2.5" ry="2.5" style="stroke:#181818;stroke-width:0.5;" width="156" x="553.5" y="44.602"/><text fill="#000000" font-family="sans-serif" font-size="14" lengthAdjust="spacing" textLength="136" x="563.5" y="69.5679">AbrirProfesoresView</text></g><!--entity ProfesoresController--><g id="elem_ProfesoresController"><rect fill="#B5BD68" height="39.0679" rx="2.5" ry="2.5" style="stroke:#181818;stroke-width:0.5;" width="158" x="285.5" y="162.602"/><text fill="#000000" font-family="sans-serif" font-size="14" lengthAdjust="spacing" textLength="138" x="295.5" y="187.5679">ProfesoresController</text></g><!--entity ProfesorRepository--><g id="elem_ProfesorRepository"><rect fill="#F2AC4E" height="39.0679" rx="2.5" ry="2.5" style="stroke:#181818;stroke-width:0.5;" width="147" x="288" y="280.602"/><text fill="#000000" font-family="sans-serif" font-size="14" lengthAdjust="spacing" textLength="127" x="298" y="305.5679">ProfesorRepository</text></g><!--entity Profesor--><g id="elem_Profesor"><rect fill="#F2AC4E" height="39.0679" rx="2.5" ry="2.5" style="stroke:#181818;stroke-width:0.5;" width="76" x="323.5" y="380.602"/><text fill="#000000" font-family="sans-serif" font-size="14" lengthAdjust="spacing" textLength="56" x="333.5" y="405.5679">Profesor</text></g><!--entity SistemaDisponible--><g id="elem_SistemaDisponible"><rect fill="#CDEBA5" height="39.0679" rx="2.5" ry="2.5" style="stroke:#181818;stroke-width:0.5;" width="153" x="7" y="44.602"/><text fill="#000000" font-family="sans-serif" font-size="14" lengthAdjust="spacing" textLength="133" x="17" y="69.5679">:Sistema Disponible</text></g><!--entity SistemaDisponibleSalida--><g id="elem_SistemaDisponibleSalida"><rect fill="#CDEBA5" height="39.0679" rx="2.5" ry="2.5" style="stroke:#181818;stroke-width:0.5;" width="153" x="742" y="162.602"/><text fill="#000000" font-family="sans-serif" font-size="14" lengthAdjust="spacing" textLength="133" x="752" y="187.5679">:Sistema Disponible</text></g><!--entity CrearProfesor--><g id="elem_CrearProfesor"><rect fill="#CDEBA5" height="39.0679" rx="2.5" ry="2.5" style="stroke:#181818;stroke-width:0.5;" width="211" x="930" y="162.602"/><text fill="#000000" font-family="sans-serif" font-size="14" lengthAdjust="spacing" textLength="191" x="940" y="187.5679">:Collaboration CrearProfesor</text></g><!--entity EditarProfesor--><g id="elem_EditarProfesor"><rect fill="#CDEBA5" height="39.0679" rx="2.5" ry="2.5" style="stroke:#181818;stroke-width:0.5;" width="214" x="1176.5" y="162.602"/><text fill="#000000" font-family="sans-serif" font-size="14" lengthAdjust="spacing" textLength="194" x="1186.5" y="187.5679">:Collaboration EditarProfesor</text></g><!--entity EliminarProfesor--><g id="elem_EliminarProfesor"><rect fill="#CDEBA5" height="39.0679" rx="2.5" ry="2.5" style="stroke:#181818;stroke-width:0.5;" width="230" x="1425.5" y="162.602"/><text fill="#000000" font-family="sans-serif" font-size="14" lengthAdjust="spacing" textLength="210" x="1435.5" y="187.5679">:Collaboration EliminarProfesor</text></g><!--link SistemaDisponible to AbrirProfesoresView--><g id="link_SistemaDisponible_AbrirProfesoresView"><path d="M160.27,64.102 C264.26,64.102 442.85,64.102 547.47,64.102 " fill="none" id="SistemaDisponible-to-AbrirProfesoresView" style="stroke:#181818;stroke-width:1.0;"/><polygon fill="#181818" points="553.47,64.102,544.47,60.102,548.47,64.102,544.47,68.102,553.47,64.102" style="stroke:#181818;stroke-width:1.0;"/><text fill="#000000" font-family="sans-serif" font-size="13" lengthAdjust="spacing" textLength="100" x="306.75" y="56.999">abrirProfesores()</text></g><!--link AbrirProfesoresView to ProfesoresController--><g id="link_AbrirProfesoresView_ProfesoresController"><path d="M553.22,74.452 C435.24,88.542 225.5,113.602 225.5,113.602 C225.5,113.602 225.5,132.602 225.5,132.602 C225.5,132.602 266.295,146.835 305.495,160.515 " fill="none" id="AbrirProfesoresView-to-ProfesoresController" style="stroke:#181818;stroke-width:1.0;"/><polygon fill="#181818" points="311.16,162.492,303.9805,155.7499,306.4392,160.8445,301.3446,163.3032,311.16,162.492" style="stroke:#181818;stroke-width:1.0;"/><text fill="#000000" font-family="sans-serif" font-size="13" lengthAdjust="spacing" textLength="196" x="226.5" y="128.499">listarProfesores() : List&lt;Profesor&gt;</text></g><!--link AbrirProfesoresView to ProfesoresController--><g id="link_AbrirProfesoresView_ProfesoresController"><path d="M568.18,83.712 C521.65,97.392 466.5,113.602 466.5,113.602 C466.5,113.602 427.8335,139.1906 397.6435,159.1706 " fill="none" id="AbrirProfesoresView-to-ProfesoresController-1" style="stroke:#181818;stroke-width:1.0;"/><polygon fill="#181818" points="392.64,162.482,402.3528,160.8506,396.8096,159.7225,397.9377,154.1793,392.64,162.482" style="stroke:#181818;stroke-width:1.0;"/><text fill="#000000" font-family="sans-serif" font-size="13" lengthAdjust="spacing" textLength="241" x="467.5" y="128.499">filtrarProfesores(criterio) : List&lt;Profesor&gt;</text></g><!--link ProfesoresController to ProfesorRepository--><g id="link_ProfesoresController_ProfesorRepository"><path d="M310.77,201.712 C271.29,215.392 224.5,231.602 224.5,231.602 C224.5,231.602 224.5,250.602 224.5,250.602 C224.5,250.602 264.6342,264.8091 303.2642,278.4891 " fill="none" id="ProfesoresController-to-ProfesorRepository" style="stroke:#181818;stroke-width:1.0;"/><polygon fill="#181818" points="308.92,280.492,301.7715,273.7171,304.2068,278.8229,299.101,281.2582,308.92,280.492" style="stroke:#181818;stroke-width:1.0;"/><text fill="#000000" font-family="sans-serif" font-size="13" lengthAdjust="spacing" textLength="188" x="225.5" y="246.499">obtenerTodos() : List&lt;Profesor&gt;</text></g><!--link ProfesoresController to ProfesorRepository--><g id="link_ProfesoresController_ProfesorRepository"><path d="M385.22,201.712 C400.45,215.392 418.5,231.602 418.5,231.602 C418.5,231.602 418.5,250.602 418.5,250.602 C418.5,250.602 404.02,262.9241 387.94,276.6041 " fill="none" id="ProfesoresController-to-ProfesorRepository-1" style="stroke:#181818;stroke-width:1.0;"/><polygon fill="#181818" points="383.37,280.492,392.8168,277.7068,387.1783,277.2521,387.633,271.6135,383.37,280.492" style="stroke:#181818;stroke-width:1.0;"/><text fill="#000000" font-family="sans-serif" font-size="13" lengthAdjust="spacing" textLength="250" x="419.5" y="246.499">buscarPorCriterio(criterio) : List&lt;Profesor&gt;</text></g><!--link ProfesorRepository to Profesor--><g id="link_ProfesorRepository_Profesor"><path d="M361.5,320.002 C361.5,337.462 361.5,363.262 361.5,380.592 " fill="none" id="ProfesorRepository-Profesor" style="stroke:#181818;stroke-width:1.0;"/></g><!--link AbrirProfesoresView to SistemaDisponibleSalida--><g id="link_AbrirProfesoresView_SistemaDisponibleSalida"><path d="M664.5,83.712 C688.76,97.392 717.5,113.602 717.5,113.602 C717.5,113.602 755.7518,139.1676 785.6418,159.1476 " fill="none" id="AbrirProfesoresView-to-SistemaDisponibleSalida" style="stroke:#181818;stroke-width:1.0;stroke-dasharray:7.0,7.0;"/><polygon fill="#181818" points="790.63,162.482,785.3706,154.155,786.4732,159.7033,780.9248,160.8059,790.63,162.482" style="stroke:#181818;stroke-width:1.0;"/><text fill="#000000" font-family="sans-serif" font-size="13" lengthAdjust="spacing" textLength="115" x="745.5" y="128.499">completarGestion()</text></g><!--link AbrirProfesoresView to CrearProfesor--><g id="link_AbrirProfesoresView_CrearProfesor"><path d="M709.76,81.052 C779.13,95.182 869.5,113.602 869.5,113.602 C869.5,113.602 935.012,140.2417 984.142,160.2217 " fill="none" id="AbrirProfesoresView-to-CrearProfesor" style="stroke:#181818;stroke-width:1.0;stroke-dasharray:7.0,7.0;"/><polygon fill="#181818" points="989.7,162.482,982.8699,155.3862,985.0684,160.5984,979.8562,162.7969,989.7,162.482" style="stroke:#181818;stroke-width:1.0;"/><text fill="#000000" font-family="sans-serif" font-size="13" lengthAdjust="spacing" textLength="89" x="914.5" y="128.499">crearProfesor()</text></g><!--link AbrirProfesoresView to EditarProfesor--><g id="link_AbrirProfesoresView_EditarProfesor"><path d="M709.52,75.032 C820.99,89.222 1012.5,113.602 1012.5,113.602 C1012.5,113.602 1123.038,141.1314 1203.268,161.1214 " fill="none" id="AbrirProfesoresView-to-EditarProfesor" style="stroke:#181818;stroke-width:1.0;stroke-dasharray:7.0,7.0;"/><polygon fill="#181818" points="1209.09,162.572,1201.3241,156.5147,1204.2383,161.3631,1199.3899,164.2774,1209.09,162.572" style="stroke:#181818;stroke-width:1.0;"/><text fill="#000000" font-family="sans-serif" font-size="13" lengthAdjust="spacing" textLength="94" x="1085.5" y="128.499">editarProfesor()</text></g><!--link AbrirProfesoresView to EliminarProfesor--><g id="link_AbrirProfesoresView_EliminarProfesor"><path d="M709.53,71.892 C862.83,85.242 1188.5,113.602 1188.5,113.602 C1188.5,113.602 1333.7474,141.4516 1437.9574,161.4416 " fill="none" id="AbrirProfesoresView-to-EliminarProfesor" style="stroke:#181818;stroke-width:1.0;stroke-dasharray:7.0,7.0;"/><polygon fill="#181818" points="1443.85,162.572,1435.7647,156.9481,1438.9395,161.63,1434.2576,164.8049,1443.85,162.572" style="stroke:#181818;stroke-width:1.0;"/><text fill="#000000" font-family="sans-serif" font-size="13" lengthAdjust="spacing" textLength="107" x="1283.5" y="128.499">eliminarProfesor()</text></g><!--SRC=[fP9FIyD04CNl-oc6UD53UYYss225cgPUF8WLxvjaMfPkTiBiYXJnkxkHQluqZONcje_tVjctCtQdJ2bP5g2LGRSl4KhI- -eW16FcfDbgXAjucJmi9X14QsKT5XAMofPaLAen06dX8DUgA6Msari4cRBYPwODMcAqbJdeQDSt0NmAy5_ZZzFnB5dDOD6slYdyw3hJIPfFxw0snMGSazR8NUjgl8Xlap_h2vPabIFU_sCKNvUznbfgbSjUHEmlAbDYwHGPY1dbNzqVLaivWv3aodKGRUaSXbQ5CbrAHnJYg2Q47CxxHXR1qSY5wF51c7j0toGZlw2sqQ92G0HFNhp_rUP2z4KXR33haKT0gKE3_4ev3TFga6VLIz7Vu6I1ZTAEMmqoLWvPqSLDqdURUJ9nV20EelkkFHhDJwrj11aLfKR_-ezegmNnqpl5QAshJpQF0x7sYaQ0hVDGiBELFjfHVFWR]--></g></svg>