<?xml version="1.0" encoding="us-ascii" standalone="no"?><svg xmlns="http://www.w3.org/2000/svg" xmlns:xlink="http://www.w3.org/1999/xlink" contentStyleType="text/css" height="660px" preserveAspectRatio="none" style="width:445px;height:660px;background:#FFFFFF;" version="1.1" viewBox="0 0 445 660" width="445px" zoomAndPan="magnify"><defs/><g><path d="M19.5,7 L403.5,7 A12.5,12.5 0 0 1 416,19.5 L416,36.0679 L7,36.0679 L7,19.5 A12.5,12.5 0 0 1 19.5,7 " fill="#F1F1F1" style="stroke:#F1F1F1;stroke-width:1.0;"/><rect fill="none" height="500.0679" rx="12.5" ry="12.5" style="stroke:#181818;stroke-width:0.5;" width="409" x="7" y="7"/><line style="stroke:#181818;stroke-width:0.5;" x1="7" x2="416" y1="36.0679" y2="36.0679"/><text fill="#000000" font-family="sans-serif" font-size="14" lengthAdjust="spacing" textLength="92" x="165.5" y="26.9659">crearEdificio()</text><g id="crearEdificio.SolicitandoDatos"><rect fill="#F1F1F1" height="50" rx="12.5" ry="12.5" style="stroke:#181818;stroke-width:0.5;" width="50" x="19" y="140.0679"/><line style="stroke:#181818;stroke-width:0.5;" x1="19" x2="69" y1="169.1358" y2="169.1358"/><text fill="#000000" font-family="sans-serif" font-size="14" lengthAdjust="spacing" textLength="4" x="42" y="160.0339">&#160;</text></g><g id="crearEdificio.CreandoEdificio"><rect fill="#F1F1F1" height="50" rx="12.5" ry="12.5" style="stroke:#181818;stroke-width:0.5;" width="50" x="19" y="334.0679"/><line style="stroke:#181818;stroke-width:0.5;" x1="19" x2="69" y1="363.1358" y2="363.1358"/><text fill="#000000" font-family="sans-serif" font-size="14" lengthAdjust="spacing" textLength="4" x="42" y="354.0339">&#160;</text></g><ellipse cx="44" cy="57.0679" fill="#222222" rx="10" ry="10" style="stroke:#222222;stroke-width:1.0;"/><ellipse cx="44" cy="486.0679" fill="none" rx="11" ry="11" style="stroke:#222222;stroke-width:1.0;"/><ellipse cx="44" cy="486.0679" fill="#222222" rx="6" ry="6" style="stroke:#222222;stroke-width:1.0;"/><!--link *start*crearEdificio to SolicitandoDatos--><g id="link_*start*crearEdificio_SolicitandoDatos"><path d="M44,67.1079 C44,83.0279 44,110.5779 44,133.7079 " fill="none" id="*start*crearEdificio-to-SolicitandoDatos" style="stroke:#008000;stroke-width:1.0;"/><polygon fill="#008000" points="44,139.7079,48,130.7079,44,134.7079,40,130.7079,44,139.7079" style="stroke:#008000;stroke-width:1.0;"/><path d="M49,90.0679 L49,117.0679 L328,117.0679 L328,100.0679 L318,90.0679 L49,90.0679 " fill="#FEFFDD" style="stroke:#181818;stroke-width:0.5;"/><path d="M318,90.0679 L318,100.0679 L328,100.0679 L318,90.0679 " fill="#FEFFDD" style="stroke:#181818;stroke-width:0.5;"/><text fill="#000000" font-family="sans-serif" font-size="13" font-weight="bold" lengthAdjust="spacing" textLength="95" x="55" y="108.9649">Administrador</text><text fill="#000000" font-family="sans-serif" font-size="13" lengthAdjust="spacing" textLength="160" x="153" y="108.9649">solicita crear edificio nuevo</text></g><!--link SolicitandoDatos to CreandoEdificio--><g id="link_SolicitandoDatos_CreandoEdificio"><path d="M44,190.3879 C44,227.3179 44,291.1379 44,327.9479 " fill="none" id="SolicitandoDatos-to-CreandoEdificio" style="stroke:#008000;stroke-width:1.0;"/><polygon fill="#008000" points="44,333.9479,48,324.9479,44,328.9479,40,324.9479,44,333.9479" style="stroke:#008000;stroke-width:1.0;"/><path d="M49,213.0679 L49,311.0679 L407,311.0679 L407,223.0679 L397,213.0679 L49,213.0679 " fill="#FEFFDD" style="stroke:#181818;stroke-width:0.5;"/><path d="M397,213.0679 L397,223.0679 L407,223.0679 L397,213.0679 " fill="#FEFFDD" style="stroke:#181818;stroke-width:0.5;"/><text fill="#000000" font-family="sans-serif" font-size="13" font-weight="bold" lengthAdjust="spacing" textLength="52" x="55" y="231.9649">Sistema</text><text fill="#000000" font-family="sans-serif" font-size="13" lengthAdjust="spacing" textLength="282" x="110" y="231.9649">presenta solicitud de datos m&#237;nimos del edificio</text><text fill="#000000" font-family="sans-serif" font-size="13" lengthAdjust="spacing" textLength="194" x="55" y="249.6709">&#8226; C&#243;digo del edificio (obligatorio)</text><text fill="#000000" font-family="sans-serif" font-size="13" lengthAdjust="spacing" textLength="201" x="55" y="267.377">&#8226; Nombre del edificio (obligatorio)</text><text fill="#000000" font-family="sans-serif" font-size="13" lengthAdjust="spacing" textLength="182" x="55" y="285.083">&#8226; Permite solicitar crear edificio</text><text fill="#000000" font-family="sans-serif" font-size="13" lengthAdjust="spacing" textLength="209" x="55" y="302.789">&#8226; Permite solicitar cancelar creaci&#243;n</text></g><!--link CreandoEdificio to *end*crearEdificio--><g id="link_CreandoEdificio_*end*crearEdificio"><path d="M44,384.1679 C44,411.6979 44,449.4479 44,469.0279 " fill="none" id="CreandoEdificio-to-*end*crearEdificio" style="stroke:#008000;stroke-width:1.0;"/><polygon fill="#008000" points="44,475.0279,48,466.0279,44,470.0279,40,466.0279,44,475.0279" style="stroke:#008000;stroke-width:1.0;"/><path d="M49,407.0679 L49,452.0679 L334,452.0679 L334,417.0679 L324,407.0679 L49,407.0679 " fill="#FEFFDD" style="stroke:#181818;stroke-width:0.5;"/><path d="M324,407.0679 L324,417.0679 L334,417.0679 L324,407.0679 " fill="#FEFFDD" style="stroke:#181818;stroke-width:0.5;"/><text fill="#000000" font-family="sans-serif" font-size="13" font-weight="bold" lengthAdjust="spacing" textLength="95" x="55" y="425.9649">Administrador</text><text fill="#000000" font-family="sans-serif" font-size="13" lengthAdjust="spacing" textLength="166" x="153" y="425.9649">proporciona datos m&#237;nimos</text><text fill="#000000" font-family="sans-serif" font-size="13" font-weight="bold" lengthAdjust="spacing" textLength="52" x="55" y="443.6709">Sistema</text><text fill="#000000" font-family="sans-serif" font-size="13" lengthAdjust="spacing" textLength="196" x="110" y="443.6709">crea edificio y transfiere a edici&#243;n</text></g><g id="EDIFICIO_ABIERTO"><rect fill="#F1F1F1" height="50" rx="12.5" ry="12.5" style="stroke:#181818;stroke-width:0.5;" width="145" x="20" y="604"/><line style="stroke:#181818;stroke-width:0.5;" x1="20" x2="165" y1="633.0679" y2="633.0679"/><text fill="#000000" font-family="sans-serif" font-size="14" lengthAdjust="spacing" textLength="125" x="30" y="623.9659">EDIFICIO_ABIERTO</text></g><g id="EDIFICIOS_ABIERTO"><rect fill="#F1F1F1" height="50" rx="12.5" ry="12.5" style="stroke:#181818;stroke-width:0.5;" width="153" x="254" y="604"/><line style="stroke:#181818;stroke-width:0.5;" x1="254" x2="407" y1="633.0679" y2="633.0679"/><text fill="#000000" font-family="sans-serif" font-size="14" lengthAdjust="spacing" textLength="133" x="264" y="623.9659">EDIFICIOS_ABIERTO</text></g><!--link crearEdificio to EDIFICIO_ABIERTO--><g id="link_crearEdificio_EDIFICIO_ABIERTO"><path d="M102.56,507.14 C94.53,525.49 89.5,537 89.5,537 C89.5,537 89.5,574 89.5,574 C89.5,574 90.0265,583.4793 90.8265,597.8493 " fill="none" id="crearEdificio-to-EDIFICIO_ABIERTO" style="stroke:#008000;stroke-width:1.0;"/><polygon fill="#008000" points="91.16,603.84,94.6535,594.6316,90.8821,598.8477,86.6659,595.0763,91.16,603.84" style="stroke:#008000;stroke-width:1.0;"/><path d="M94.5,542 L94.5,569 L282.5,569 L282.5,552 L272.5,542 L94.5,542 " fill="#FEFFDD" style="stroke:#181818;stroke-width:0.5;"/><path d="M272.5,542 L272.5,552 L282.5,552 L272.5,542 " fill="#FEFFDD" style="stroke:#181818;stroke-width:0.5;"/><text fill="#000000" font-family="sans-serif" font-size="13" lengthAdjust="spacing" textLength="167" x="100.5" y="560.897">editarEdificio(edificioNuevo)</text></g><!--link crearEdificio to EDIFICIOS_ABIERTO--><g id="link_crearEdificio_EDIFICIOS_ABIERTO"><path d="M291.62,507.1 C304.38,546.77 313.8526,576.2483 320.9426,598.2883 " fill="none" id="crearEdificio-to-EDIFICIOS_ABIERTO" style="stroke:#0000FF;stroke-width:1.0;"/><polygon fill="#0000FF" points="322.78,604,323.8317,594.2075,321.2488,599.2402,316.2161,596.6573,322.78,604" style="stroke:#0000FF;stroke-width:1.0;"/><path d="M315.5,542 L315.5,569 L438.5,569 L438.5,552 L428.5,542 L315.5,542 " fill="#FEFFDD" style="stroke:#181818;stroke-width:0.5;"/><path d="M428.5,542 L428.5,552 L438.5,552 L428.5,542 " fill="#FEFFDD" style="stroke:#181818;stroke-width:0.5;"/><text fill="#000000" font-family="sans-serif" font-size="13" lengthAdjust="spacing" textLength="102" x="321.5" y="560.897">cancelar creaci&#243;n</text></g><!--SRC=[bPFVQi8m5CRlynG7TwC3sGk8u9o3tkYOknCPQNEKO9jJaZgGCTYpx7vNFe9liYVPQMjh_sriAPGs-SulNxuaRgTDBAsC8DG6aqEC45DuI7-4S8bC40ABqiwKtkX04qW7lLfFVz23Lo60MwxlySEg9OKyd4YZw4ucvDgAAMDuj03bZDNr6eQhgwr5DElXk8M1J6M8CMHIqxkiO-IF9ohIHhl4IaLsTEEFmPrhyoK05cimUtoXh0oDobdSHFbgpLarr7JzavqbMy58PaPYYmuD6paxsYjG22fZHwTFeoF-K1YM5ZF8r_i7J4z7fRTK6uG- -Q7UShNLD2YbSufyYtzHFg2DD3ikyh6DW7uJIXDWUAu8zEbeQZbUCcp4L8kGz_WVknXRYiaomyX6P5rHfxukwpy0WupRQEHailuEpsz2rCzurUliphltfjxYUNBhpHwV5g9cce59vIeKyyxJ0pOGvGnjlX_kiOfVTlCxuYwXtm00]--></g></svg>