<?xml version="1.0" encoding="us-ascii" standalone="no"?><svg xmlns="http://www.w3.org/2000/svg" xmlns:xlink="http://www.w3.org/1999/xlink" contentStyleType="text/css" height="547px" preserveAspectRatio="none" style="width:941px;height:547px;background:#FFFFFF;" version="1.1" viewBox="0 0 941 547" width="941px" zoomAndPan="magnify"><defs/><g><!--cluster editarProfesor--><g id="cluster_editarProfesor"><path d="M8.5,111 L119.5,111 A3.75,3.75 0 0 1 122,113.5 L129,136.0679 L694.5,136.0679 A2.5,2.5 0 0 1 697,138.5679 L697,537.5 A2.5,2.5 0 0 1 694.5,540 L8.5,540 A2.5,2.5 0 0 1 6,537.5 L6,113.5 A2.5,2.5 0 0 1 8.5,111 " fill="none" style="stroke:#000000;stroke-width:1.5;"/><line style="stroke:#000000;stroke-width:1.5;" x1="6" x2="129" y1="136.0679" y2="136.0679"/><text fill="#000000" font-family="sans-serif" font-size="14" font-weight="bold" lengthAdjust="spacing" textLength="110" x="10" y="127.9659">editarProfesor()</text></g><!--entity EditarProfesorView--><g id="elem_EditarProfesorView"><rect fill="#629EF9" height="39.0679" rx="2.5" ry="2.5" style="stroke:#181818;stroke-width:0.5;" width="147" x="315.5" y="149"/><text fill="#000000" font-family="sans-serif" font-size="14" lengthAdjust="spacing" textLength="127" x="325.5" y="173.9659">EditarProfesorView</text></g><!--entity ProfesorController--><g id="elem_ProfesorController"><rect fill="#B5BD68" height="39.0679" rx="2.5" ry="2.5" style="stroke:#181818;stroke-width:0.5;" width="143" x="130.5" y="267"/><text fill="#000000" font-family="sans-serif" font-size="14" lengthAdjust="spacing" textLength="123" x="140.5" y="291.9659">ProfesorController</text></g><!--entity ProfesorRepository--><g id="elem_ProfesorRepository"><rect fill="#F2AC4E" height="39.0679" rx="2.5" ry="2.5" style="stroke:#181818;stroke-width:0.5;" width="147" x="139.5" y="385"/><text fill="#000000" font-family="sans-serif" font-size="14" lengthAdjust="spacing" textLength="127" x="149.5" y="409.9659">ProfesorRepository</text></g><!--entity Profesor--><g id="elem_Profesor"><rect fill="#F2AC4E" height="39.0679" rx="2.5" ry="2.5" style="stroke:#181818;stroke-width:0.5;" width="76" x="175" y="485"/><text fill="#000000" font-family="sans-serif" font-size="14" lengthAdjust="spacing" textLength="56" x="185" y="509.9659">Profesor</text></g><!--entity ProfesoresAbierto--><g id="elem_ProfesoresAbierto"><rect fill="#CDEBA5" height="39.0679" rx="2.5" ry="2.5" style="stroke:#181818;stroke-width:0.5;" width="148" x="116" y="7"/><text fill="#000000" font-family="sans-serif" font-size="14" lengthAdjust="spacing" textLength="128" x="126" y="31.9659">:Profesores Abierto</text></g><!--entity ProfesorAbierto--><g id="elem_ProfesorAbierto"><rect fill="#CDEBA5" height="39.0679" rx="2.5" ry="2.5" style="stroke:#181818;stroke-width:0.5;" width="133" x="322.5" y="7"/><text fill="#000000" font-family="sans-serif" font-size="14" lengthAdjust="spacing" textLength="113" x="332.5" y="31.9659">:Profesor Abierto</text></g><!--entity CrearProfesor--><g id="elem_CrearProfesor"><rect fill="#CDEBA5" height="39.0679" rx="2.5" ry="2.5" style="stroke:#181818;stroke-width:0.5;" width="211" x="490.5" y="7"/><text fill="#000000" font-family="sans-serif" font-size="14" lengthAdjust="spacing" textLength="191" x="500.5" y="31.9659">:Collaboration CrearProfesor</text></g><!--entity AbrirProfesores--><g id="elem_AbrirProfesores"><rect fill="#CDEBA5" height="39.0679" rx="2.5" ry="2.5" style="stroke:#181818;stroke-width:0.5;" width="223" x="712.5" y="267"/><text fill="#000000" font-family="sans-serif" font-size="14" lengthAdjust="spacing" textLength="203" x="722.5" y="291.9659">:Collaboration AbrirProfesores</text></g><!--link ProfesoresAbierto to EditarProfesorView--><g id="link_ProfesoresAbierto_EditarProfesorView"><path d="M198.91,46.3 C208.38,66.28 222,95 222,95 C222,95 291.0062,124.9607 340.4862,146.4407 " fill="none" id="ProfesoresAbierto-to-EditarProfesorView" style="stroke:#181818;stroke-width:1.0;"/><polygon fill="#181818" points="345.99,148.83,339.3272,141.5769,341.4035,146.8389,336.1415,148.9153,345.99,148.83" style="stroke:#181818;stroke-width:1.0;"/><text fill="#000000" font-family="sans-serif" font-size="13" lengthAdjust="spacing" textLength="157" x="223" y="90.897">editarProfesor(profesorId)</text></g><!--link ProfesorAbierto to EditarProfesorView--><g id="link_ProfesorAbierto_EditarProfesorView"><path d="M389,46.09 C389,72.87 389,116.01 389,142.83 " fill="none" id="ProfesorAbierto-to-EditarProfesorView" style="stroke:#181818;stroke-width:1.0;"/><polygon fill="#181818" points="389,148.83,393,139.83,389,143.83,385,139.83,389,148.83" style="stroke:#181818;stroke-width:1.0;"/><text fill="#000000" font-family="sans-serif" font-size="13" lengthAdjust="spacing" textLength="157" x="390" y="90.897">editarProfesor(profesorId)</text></g><!--link CrearProfesor to EditarProfesorView--><g id="link_CrearProfesor_EditarProfesorView"><path d="M584.86,46.3 C573.02,66.28 556,95 556,95 C556,95 486.9938,124.9607 437.5138,146.4407 " fill="none" id="CrearProfesor-to-EditarProfesorView" style="stroke:#181818;stroke-width:1.0;"/><polygon fill="#181818" points="432.01,148.83,441.8585,148.9153,436.5965,146.8389,438.6728,141.5769,432.01,148.83" style="stroke:#181818;stroke-width:1.0;"/><text fill="#000000" font-family="sans-serif" font-size="13" lengthAdjust="spacing" textLength="185" x="567" y="90.897">editarProfesor(profesorNuevo)</text></g><!--link EditarProfesorView to ProfesorController--><g id="link_EditarProfesorView_ProfesorController"><path d="M315.48,180.14 C216.87,194.42 54,218 54,218 C54,218 54,237 54,237 C54,237 97.7685,251.3409 139.4985,265.0209 " fill="none" id="EditarProfesorView-to-ProfesorController" style="stroke:#181818;stroke-width:1.0;"/><polygon fill="#181818" points="145.2,266.89,137.8939,260.2854,140.4488,265.3324,135.4018,267.8874,145.2,266.89" style="stroke:#181818;stroke-width:1.0;"/><text fill="#000000" font-family="sans-serif" font-size="13" lengthAdjust="spacing" textLength="290" x="55" y="232.897">cargarProfesorParaEdici&#243;n(profesorId) : Profesor</text></g><!--link EditarProfesorView to ProfesorController--><g id="link_EditarProfesorView_ProfesorController"><path d="M378.14,188.3 C366.6,208.28 350,237 350,237 C350,237 306.2315,251.3409 264.5015,265.0209 " fill="none" id="EditarProfesorView-to-ProfesorController-1" style="stroke:#181818;stroke-width:1.0;"/><polygon fill="#181818" points="258.8,266.89,268.5982,267.8874,263.5512,265.3324,266.1061,260.2854,258.8,266.89" style="stroke:#181818;stroke-width:1.0;"/><text fill="#000000" font-family="sans-serif" font-size="13" lengthAdjust="spacing" textLength="290" x="362" y="232.897">modificarCampos(profesorId, cambios) : boolean</text></g><!--link ProfesorController to ProfesorRepository--><g id="link_ProfesorController_ProfesorRepository"><path d="M152.49,306.11 C116.12,319.79 73,336 73,336 C73,336 73,355 73,355 C73,355 114.1207,369.2456 153.6007,382.9256 " fill="none" id="ProfesorController-to-ProfesorRepository" style="stroke:#181818;stroke-width:1.0;"/><polygon fill="#181818" points="159.27,384.89,152.0757,378.1638,154.5456,383.253,149.4564,385.7229,159.27,384.89" style="stroke:#181818;stroke-width:1.0;"/><text fill="#000000" font-family="sans-serif" font-size="13" lengthAdjust="spacing" textLength="212" x="74" y="350.897">obtenerPorId(profesorId) : Profesor</text></g><!--link ProfesorController to ProfesorRepository--><g id="link_ProfesorController_ProfesorRepository"><path d="M236.16,306.11 C261.25,319.79 291,336 291,336 C291,336 291,355 291,355 C291,355 270.0253,368.0417 248.0253,381.7217 " fill="none" id="ProfesorController-to-ProfesorRepository-1" style="stroke:#181818;stroke-width:1.0;"/><polygon fill="#181818" points="242.93,384.89,252.6851,383.5344,247.1761,382.2497,248.4607,376.7407,242.93,384.89" style="stroke:#181818;stroke-width:1.0;"/><text fill="#000000" font-family="sans-serif" font-size="13" lengthAdjust="spacing" textLength="174" x="292" y="350.897">actualizar(profesor) : boolean</text></g><!--link ProfesorRepository to Profesor--><g id="link_ProfesorRepository_Profesor"><path d="M213,424.4 C213,441.86 213,467.66 213,484.99 " fill="none" id="ProfesorRepository-Profesor" style="stroke:#181818;stroke-width:1.0;"/></g><!--link EditarProfesorView to AbrirProfesores--><g id="link_EditarProfesorView_AbrirProfesores"><path d="M462.61,182.62 C543.16,196.99 661,218 661,218 C661,218 725.2365,244.6045 773.4865,264.5845 " fill="none" id="EditarProfesorView-to-AbrirProfesores" style="stroke:#181818;stroke-width:1.0;stroke-dasharray:7.0,7.0;"/><polygon fill="#181818" points="779.03,266.88,772.2451,259.741,774.4104,264.9671,769.1844,267.1324,779.03,266.88" style="stroke:#181818;stroke-width:1.0;"/><text fill="#000000" font-family="sans-serif" font-size="13" lengthAdjust="spacing" textLength="160" x="705" y="232.897">&#171;include&#187; abrirProfesores()</text></g><!--SRC=[dPFFJi904CRl-nGJlD14E10Xqf0cjPR4Yo4UlE-s0zcmtMcsYmQDJ-KZ-69k2LBw1nHxQgVVzzjlPjfYBNNE3Sz0IOrscoFafBRb0sC64ylrIY5SHVVnNJY6dhymjCI231OG2ed6KWzu0LLvNprhxhIUCqQa51Tak9Ma8JB8pOzjnwXL_a08XP6cohnZD6gCvJnPynK2fj9Mz5BQgvVwNW_U6RZhwEJ9Q1hFfn3NbCyINvj2CHRfvFOmXeYqDIuicgPmFWgZc_WWVCAS2cd9R7yHiW_6Mlk1mI3e2EStkktd-vk7r6EDJVq7KLlKfO373RwGnrZR0eFKeTeZz27XPbLf5-vJT-v4VdtgurpWLzDYRSmkQ7lkFf2mgD4iIiX9NbVS4sapIkLIkimHpzmfHyXhrqac91KbMn0fvFgYg3on6wxa6w_csOcgF0vrlelXC6Z-DJxCPb8dQfDY402ll-nxx1i0]--></g></svg>