<?xml version="1.0" encoding="us-ascii" standalone="no"?><svg xmlns="http://www.w3.org/2000/svg" xmlns:xlink="http://www.w3.org/1999/xlink" contentStyleType="text/css" height="846px" preserveAspectRatio="none" style="width:1221px;height:846px;background:#FFFFFF;" version="1.1" viewBox="0 0 1221 846" width="1221px" zoomAndPan="magnify"><defs/><g><rect fill="#FFFFFF" height="158.5301" style="stroke:#000000;stroke-width:1.0;" width="10" x="277.5" y="118.7739"/><rect fill="#FFFFFF" height="253.6481" style="stroke:#000000;stroke-width:1.0;" width="10" x="277.5" y="309.01"/><rect fill="#FFFFFF" height="95.118" style="stroke:#000000;stroke-width:1.0;" width="10" x="593.5" y="150.4799"/><rect fill="#FFFFFF" height="158.5301" style="stroke:#000000;stroke-width:1.0;" width="10" x="593.5" y="340.716"/><rect fill="#FFFFFF" height="31.706" style="stroke:#000000;stroke-width:1.0;" width="10" x="829.5" y="372.4221"/><rect fill="#FFFFFF" height="31.706" style="stroke:#000000;stroke-width:1.0;" width="10" x="1069.5" y="182.186"/><rect fill="#FFFFFF" height="31.706" style="stroke:#000000;stroke-width:1.0;" width="10" x="1069.5" y="435.8341"/><line style="stroke:#000000;stroke-width:1.0;" x1="61" x2="61" y1="85.0679" y2="762.3063"/><line style="stroke:#000000;stroke-width:1.0;" x1="282" x2="282" y1="85.0679" y2="762.3063"/><line style="stroke:#000000;stroke-width:1.0;" x1="598" x2="598" y1="85.0679" y2="762.3063"/><line style="stroke:#000000;stroke-width:1.0;" x1="834" x2="834" y1="85.0679" y2="762.3063"/><line style="stroke:#000000;stroke-width:1.0;" x1="1074" x2="1074" y1="85.0679" y2="762.3063"/><text fill="#000000" font-family="Verdana" font-size="14" lengthAdjust="spacing" textLength="97" x="10" y="80.9659">Administrador</text><ellipse cx="61.5" cy="14" fill="#FFFFFF" rx="8" ry="8" style="stroke:#000000;stroke-width:1.0;"/><path d="M61.5,22 L61.5,49 M48.5,30 L74.5,30 M61.5,49 L48.5,64 M61.5,49 L74.5,64 " fill="none" style="stroke:#000000;stroke-width:1.0;"/><text fill="#000000" font-family="Verdana" font-size="14" lengthAdjust="spacing" textLength="97" x="10" y="776.2722">Administrador</text><ellipse cx="61.5" cy="789.3742" fill="#FFFFFF" rx="8" ry="8" style="stroke:#000000;stroke-width:1.0;"/><path d="M61.5,797.3742 L61.5,824.3742 M48.5,805.3742 L74.5,805.3742 M61.5,824.3742 L48.5,839.3742 M61.5,824.3742 L74.5,839.3742 " fill="none" style="stroke:#000000;stroke-width:1.0;"/><rect fill="#FFFFFF" height="33.0679" rx="2.5" ry="2.5" style="stroke:#000000;stroke-width:1.0;" width="299" x="133" y="51"/><text fill="#000000" font-family="Verdana" font-size="14" lengthAdjust="spacing" textLength="285" x="140" y="72.9659">profesorEdicionView : ProfesorEdicionView</text><rect fill="#FFFFFF" height="33.0679" rx="2.5" ry="2.5" style="stroke:#000000;stroke-width:1.0;" width="299" x="133" y="761.3063"/><text fill="#000000" font-family="Verdana" font-size="14" lengthAdjust="spacing" textLength="285" x="140" y="783.2722">profesorEdicionView : ProfesorEdicionView</text><rect fill="#FFFFFF" height="33.0679" rx="2.5" ry="2.5" style="stroke:#000000;stroke-width:1.0;" width="273" x="462" y="51"/><text fill="#000000" font-family="Verdana" font-size="14" lengthAdjust="spacing" textLength="259" x="469" y="72.9659">profesorController : ProfesorController</text><rect fill="#FFFFFF" height="33.0679" rx="2.5" ry="2.5" style="stroke:#000000;stroke-width:1.0;" width="273" x="462" y="761.3063"/><text fill="#000000" font-family="Verdana" font-size="14" lengthAdjust="spacing" textLength="259" x="469" y="783.2722">profesorController : ProfesorController</text><rect fill="#FFFFFF" height="33.0679" rx="2.5" ry="2.5" style="stroke:#000000;stroke-width:1.0;" width="139" x="765" y="51"/><text fill="#000000" font-family="Verdana" font-size="14" lengthAdjust="spacing" textLength="125" x="772" y="72.9659">profesor : Profesor</text><rect fill="#FFFFFF" height="33.0679" rx="2.5" ry="2.5" style="stroke:#000000;stroke-width:1.0;" width="139" x="765" y="761.3063"/><text fill="#000000" font-family="Verdana" font-size="14" lengthAdjust="spacing" textLength="125" x="772" y="783.2722">profesor : Profesor</text><rect fill="#FFFFFF" height="33.0679" rx="2.5" ry="2.5" style="stroke:#000000;stroke-width:1.0;" width="281" x="934" y="51"/><text fill="#000000" font-family="Verdana" font-size="14" lengthAdjust="spacing" textLength="267" x="941" y="72.9659">profesorRepository : ProfesorRepository</text><rect fill="#FFFFFF" height="33.0679" rx="2.5" ry="2.5" style="stroke:#000000;stroke-width:1.0;" width="281" x="934" y="761.3063"/><text fill="#000000" font-family="Verdana" font-size="14" lengthAdjust="spacing" textLength="267" x="941" y="783.2722">profesorRepository : ProfesorRepository</text><rect fill="#FFFFFF" height="158.5301" style="stroke:#000000;stroke-width:1.0;" width="10" x="277.5" y="118.7739"/><rect fill="#FFFFFF" height="253.6481" style="stroke:#000000;stroke-width:1.0;" width="10" x="277.5" y="309.01"/><rect fill="#FFFFFF" height="95.118" style="stroke:#000000;stroke-width:1.0;" width="10" x="593.5" y="150.4799"/><rect fill="#FFFFFF" height="158.5301" style="stroke:#000000;stroke-width:1.0;" width="10" x="593.5" y="340.716"/><rect fill="#FFFFFF" height="31.706" style="stroke:#000000;stroke-width:1.0;" width="10" x="829.5" y="372.4221"/><rect fill="#FFFFFF" height="31.706" style="stroke:#000000;stroke-width:1.0;" width="10" x="1069.5" y="182.186"/><rect fill="#FFFFFF" height="31.706" style="stroke:#000000;stroke-width:1.0;" width="10" x="1069.5" y="435.8341"/><polygon fill="#000000" points="265.5,114.7739,275.5,118.7739,265.5,122.7739,269.5,118.7739" style="stroke:#000000;stroke-width:1.0;"/><line style="stroke:#000000;stroke-width:1.0;" x1="61.5" x2="271.5" y1="118.7739" y2="118.7739"/><text fill="#000000" font-family="Verdana" font-size="13" lengthAdjust="spacing" textLength="151" x="68.5" y="112.9649">solicitarEditarProfesor(id)</text><polygon fill="#000000" points="581.5,146.4799,591.5,150.4799,581.5,154.4799,585.5,150.4799" style="stroke:#000000;stroke-width:1.0;"/><line style="stroke:#000000;stroke-width:1.0;" x1="287.5" x2="587.5" y1="150.4799" y2="150.4799"/><text fill="#000000" font-family="Verdana" font-size="13" lengthAdjust="spacing" textLength="108" x="294.5" y="144.6709">cargarProfesor(id)</text><polygon fill="#000000" points="1057.5,178.186,1067.5,182.186,1057.5,186.186,1061.5,182.186" style="stroke:#000000;stroke-width:1.0;"/><line style="stroke:#000000;stroke-width:1.0;" x1="603.5" x2="1063.5" y1="182.186" y2="182.186"/><text fill="#000000" font-family="Verdana" font-size="13" lengthAdjust="spacing" textLength="118" x="610.5" y="176.377">obtenerProfesor(id)</text><polygon fill="#000000" points="614.5,209.892,604.5,213.892,614.5,217.892,610.5,213.892" style="stroke:#000000;stroke-width:1.0;"/><line style="stroke:#000000;stroke-width:1.0;" x1="608.5" x2="1073.5" y1="213.892" y2="213.892"/><text fill="#000000" font-family="Verdana" font-size="13" lengthAdjust="spacing" textLength="144" x="620.5" y="208.083">profesorCargado(datos)</text><polygon fill="#000000" points="298.5,241.598,288.5,245.598,298.5,249.598,294.5,245.598" style="stroke:#000000;stroke-width:1.0;"/><line style="stroke:#000000;stroke-width:1.0;" x1="292.5" x2="597.5" y1="245.598" y2="245.598"/><text fill="#000000" font-family="Verdana" font-size="13" lengthAdjust="spacing" textLength="178" x="304.5" y="239.789">presentarDatosEdicion(datos)</text><polygon fill="#000000" points="72.5,273.304,62.5,277.304,72.5,281.304,68.5,277.304" style="stroke:#000000;stroke-width:1.0;"/><line style="stroke:#000000;stroke-width:1.0;" x1="66.5" x2="281.5" y1="277.304" y2="277.304"/><text fill="#000000" font-family="Verdana" font-size="13" lengthAdjust="spacing" textLength="156" x="78.5" y="271.495">mostrarDatosCompletos()</text><polygon fill="#000000" points="265.5,305.01,275.5,309.01,265.5,313.01,269.5,309.01" style="stroke:#000000;stroke-width:1.0;"/><line style="stroke:#000000;stroke-width:1.0;" x1="61.5" x2="271.5" y1="309.01" y2="309.01"/><text fill="#000000" font-family="Verdana" font-size="13" lengthAdjust="spacing" textLength="149" x="68.5" y="303.201">modificarDatos(cambios)</text><polygon fill="#000000" points="581.5,336.716,591.5,340.716,581.5,344.716,585.5,340.716" style="stroke:#000000;stroke-width:1.0;"/><line style="stroke:#000000;stroke-width:1.0;" x1="287.5" x2="587.5" y1="340.716" y2="340.716"/><text fill="#000000" font-family="Verdana" font-size="13" lengthAdjust="spacing" textLength="199" x="294.5" y="334.907">procesarModificaciones(cambios)</text><polygon fill="#000000" points="817.5,368.4221,827.5,372.4221,817.5,376.4221,821.5,372.4221" style="stroke:#000000;stroke-width:1.0;"/><line style="stroke:#000000;stroke-width:1.0;" x1="603.5" x2="823.5" y1="372.4221" y2="372.4221"/><text fill="#000000" font-family="Verdana" font-size="13" lengthAdjust="spacing" textLength="150" x="610.5" y="366.6131">validarCambios(cambios)</text><polygon fill="#000000" points="614.5,400.1281,604.5,404.1281,614.5,408.1281,610.5,404.1281" style="stroke:#000000;stroke-width:1.0;"/><line style="stroke:#000000;stroke-width:1.0;" x1="608.5" x2="833.5" y1="404.1281" y2="404.1281"/><text fill="#000000" font-family="Verdana" font-size="13" lengthAdjust="spacing" textLength="101" x="620.5" y="398.3191">cambiosValidos()</text><polygon fill="#000000" points="1057.5,431.8341,1067.5,435.8341,1057.5,439.8341,1061.5,435.8341" style="stroke:#000000;stroke-width:1.0;"/><line style="stroke:#000000;stroke-width:1.0;" x1="603.5" x2="1063.5" y1="435.8341" y2="435.8341"/><text fill="#000000" font-family="Verdana" font-size="13" lengthAdjust="spacing" textLength="167" x="610.5" y="430.0251">actualizarProfesor(profesor)</text><polygon fill="#000000" points="614.5,463.5401,604.5,467.5401,614.5,471.5401,610.5,467.5401" style="stroke:#000000;stroke-width:1.0;"/><line style="stroke:#000000;stroke-width:1.0;" x1="608.5" x2="1073.5" y1="467.5401" y2="467.5401"/><text fill="#000000" font-family="Verdana" font-size="13" lengthAdjust="spacing" textLength="128" x="620.5" y="461.7311">profesorActualizado()</text><polygon fill="#000000" points="298.5,495.2461,288.5,499.2461,298.5,503.2461,294.5,499.2461" style="stroke:#000000;stroke-width:1.0;"/><line style="stroke:#000000;stroke-width:1.0;" x1="292.5" x2="597.5" y1="499.2461" y2="499.2461"/><text fill="#000000" font-family="Verdana" font-size="13" lengthAdjust="spacing" textLength="126" x="304.5" y="493.4371">confirmarGuardado()</text><polygon fill="#000000" points="72.5,526.9521,62.5,530.9521,72.5,534.9521,68.5,530.9521" style="stroke:#000000;stroke-width:1.0;"/><line style="stroke:#000000;stroke-width:1.0;" x1="66.5" x2="276.5" y1="530.9521" y2="530.9521"/><text fill="#000000" font-family="Verdana" font-size="13" lengthAdjust="spacing" textLength="136" x="78.5" y="525.1431">mostrarConfirmacion()</text><polygon fill="#000000" points="72.5,558.6582,62.5,562.6582,72.5,566.6582,68.5,562.6582" style="stroke:#000000;stroke-width:1.0;"/><line style="stroke:#000000;stroke-width:1.0;" x1="66.5" x2="281.5" y1="562.6582" y2="562.6582"/><text fill="#000000" font-family="Verdana" font-size="13" lengthAdjust="spacing" textLength="165" x="78.5" y="556.8492">mantenerEdicionContinua()</text><path d="M66,575.6582 L66,655.6582 L252,655.6582 L252,585.6582 L242,575.6582 L66,575.6582 " fill="#FFFFFF" style="stroke:#000000;stroke-width:1.0;"/><path d="M242,575.6582 L242,585.6582 L252,585.6582 L242,575.6582 " fill="#FFFFFF" style="stroke:#000000;stroke-width:1.0;"/><text fill="#000000" font-family="Verdana" font-size="13" font-weight="bold" lengthAdjust="spacing" textLength="125" x="72" y="594.5552">Filosof&#237;a "El gordo":</text><text fill="#000000" font-family="Verdana" font-size="13" lengthAdjust="spacing" textLength="165" x="72" y="612.2612">Edici&#243;n completa con todos</text><text fill="#000000" font-family="Verdana" font-size="13" lengthAdjust="spacing" textLength="148" x="72" y="629.9672">los campos disponibles y</text><text fill="#000000" font-family="Verdana" font-size="13" lengthAdjust="spacing" textLength="99" x="72" y="647.6732">edici&#243;n continua</text><path d="M603,666.4822 L603,746.4822 L778,746.4822 L778,676.4822 L768,666.4822 L603,666.4822 " fill="#FFFFFF" style="stroke:#000000;stroke-width:1.0;"/><path d="M768,666.4822 L768,676.4822 L778,676.4822 L768,666.4822 " fill="#FFFFFF" style="stroke:#000000;stroke-width:1.0;"/><text fill="#000000" font-family="Verdana" font-size="13" font-weight="bold" lengthAdjust="spacing" textLength="114" x="609" y="685.3792">Edici&#243;n continua:</text><text fill="#000000" font-family="Verdana" font-size="13" lengthAdjust="spacing" textLength="154" x="609" y="703.0853">Mantiene estado despu&#233;s</text><text fill="#000000" font-family="Verdana" font-size="13" lengthAdjust="spacing" textLength="147" x="609" y="720.7913">de guardar para permitir</text><text fill="#000000" font-family="Verdana" font-size="13" lengthAdjust="spacing" textLength="147" x="609" y="738.4973">m&#250;ltiples modificaciones</text><!--SRC=[dLInRjim4Dtr5LTDzb1qDm83WUjs2b1ao7uMpyu14eyWQGVf7tNerAshVwn7Mh8PMIxIBePqv7j-x_697-8pTGIkHRPLXKqK3_MzwTXoY1wD-1em0AP9vT17RjYXZL0xBriAujT6HsAVc5vW0T-kfvdWe0_J-9NOwALjoHVmop2Zc_FhD4U1pFk7-VJkHt8IM9s-5hZBC3Fuywkcaip3nsKseP0WhN96J2RrTs2OiPcd1Fc0aKw6gunGP5EQRD3lRi4AfrK1KWfVgfPD94itE0hj1MYiufn_KcDaPZ1Ac5U6fdX6MleWdAT0LYFudB3zaKyGbQQ6H4wXBg2JrBCJmqewrv8-pDx0Jr6EJw4JmrjkUkYimMx3wN_VSmBglQ60_g7dIBffYkFsSHJLEs3B1ZN8Z9vWkTHn05rN8cEU4jFO_XdzjqBexhs2lnUz6d3_tOpxWLFRyM_5qE6MVOV-wnwzkSA_em-hdY4tQdwzIp_ez07qdKlN1TizJlN6IbBCk-S8ikqlCe2xpV8Bjn9aU_o9KAzRs8atKY_kFcsMkfw9Zx-iQisTn2GQekZfwAe2qv5f2c0uEB6yQId0goxH1NZIL94ra4ICfHGfP3thCNBGyg1cMTq2XQXPWg7WziSVIOWXsEM8FUXLX-38TnmvCNR7tsrabtHrRsf-4VG7]--></g></svg>