<?xml version="1.0" encoding="us-ascii" standalone="no"?><svg xmlns="http://www.w3.org/2000/svg" xmlns:xlink="http://www.w3.org/1999/xlink" contentStyleType="text/css" height="547px" preserveAspectRatio="none" style="width:806px;height:547px;background:#FFFFFF;" version="1.1" viewBox="0 0 806 547" width="806px" zoomAndPan="magnify"><defs/><g><!--cluster editarAula--><g id="cluster_editarAula"><path d="M8.5,111 L91.5,111 A3.75,3.75 0 0 1 94,113.5 L101,136.0679 L592.5,136.0679 A2.5,2.5 0 0 1 595,138.5679 L595,537.5 A2.5,2.5 0 0 1 592.5,540 L8.5,540 A2.5,2.5 0 0 1 6,537.5 L6,113.5 A2.5,2.5 0 0 1 8.5,111 " fill="none" style="stroke:#000000;stroke-width:1.5;"/><line style="stroke:#000000;stroke-width:1.5;" x1="6" x2="101" y1="136.0679" y2="136.0679"/><text fill="#000000" font-family="sans-serif" font-size="14" font-weight="bold" lengthAdjust="spacing" textLength="82" x="10" y="127.9659">editarAula()</text></g><!--entity EditarAulaView--><g id="elem_EditarAulaView"><rect fill="#629EF9" height="39.0679" rx="2.5" ry="2.5" style="stroke:#181818;stroke-width:0.5;" width="121" x="252.5" y="149"/><text fill="#000000" font-family="sans-serif" font-size="14" lengthAdjust="spacing" textLength="101" x="262.5" y="173.9659">EditarAulaView</text></g><!--entity AulaController--><g id="elem_AulaController"><rect fill="#B5BD68" height="39.0679" rx="2.5" ry="2.5" style="stroke:#181818;stroke-width:0.5;" width="117" x="111.5" y="267"/><text fill="#000000" font-family="sans-serif" font-size="14" lengthAdjust="spacing" textLength="97" x="121.5" y="291.9659">AulaController</text></g><!--entity AulaRepository--><g id="elem_AulaRepository"><rect fill="#F2AC4E" height="39.0679" rx="2.5" ry="2.5" style="stroke:#181818;stroke-width:0.5;" width="121" x="117.5" y="385"/><text fill="#000000" font-family="sans-serif" font-size="14" lengthAdjust="spacing" textLength="101" x="127.5" y="409.9659">AulaRepository</text></g><!--entity Aula--><g id="elem_Aula"><rect fill="#F2AC4E" height="39.0679" rx="2.5" ry="2.5" style="stroke:#181818;stroke-width:0.5;" width="50" x="153" y="485"/><text fill="#000000" font-family="sans-serif" font-size="14" lengthAdjust="spacing" textLength="30" x="163" y="509.9659">Aula</text></g><!--entity AulasAbierto--><g id="elem_AulasAbierto"><rect fill="#CDEBA5" height="39.0679" rx="2.5" ry="2.5" style="stroke:#181818;stroke-width:0.5;" width="114" x="108" y="7"/><text fill="#000000" font-family="sans-serif" font-size="14" lengthAdjust="spacing" textLength="94" x="118" y="31.9659">:Aulas Abierto</text></g><!--entity AulaAbierta--><g id="elem_AulaAbierta"><rect fill="#CDEBA5" height="39.0679" rx="2.5" ry="2.5" style="stroke:#181818;stroke-width:0.5;" width="107" x="259.5" y="7"/><text fill="#000000" font-family="sans-serif" font-size="14" lengthAdjust="spacing" textLength="87" x="269.5" y="31.9659">:Aula Abierta</text></g><!--entity CrearAula--><g id="elem_CrearAula"><rect fill="#CDEBA5" height="39.0679" rx="2.5" ry="2.5" style="stroke:#181818;stroke-width:0.5;" width="185" x="401.5" y="7"/><text fill="#000000" font-family="sans-serif" font-size="14" lengthAdjust="spacing" textLength="165" x="411.5" y="31.9659">:Collaboration CrearAula</text></g><!--entity AbrirAulas--><g id="elem_AbrirAulas"><rect fill="#CDEBA5" height="39.0679" rx="2.5" ry="2.5" style="stroke:#181818;stroke-width:0.5;" width="189" x="611.5" y="267"/><text fill="#000000" font-family="sans-serif" font-size="14" lengthAdjust="spacing" textLength="169" x="621.5" y="291.9659">:Collaboration AbrirAulas</text></g><!--link AulasAbierto to EditarAulaView--><g id="link_AulasAbierto_EditarAulaView"><path d="M173.91,46.3 C183.38,66.28 197,95 197,95 C197,95 243.6719,124.1701 278.0419,145.6501 " fill="none" id="AulasAbierto-to-EditarAulaView" style="stroke:#181818;stroke-width:1.0;"/><polygon fill="#181818" points="283.13,148.83,277.6178,140.6682,278.8899,146.1801,273.378,147.4523,283.13,148.83" style="stroke:#181818;stroke-width:1.0;"/><text fill="#000000" font-family="sans-serif" font-size="13" lengthAdjust="spacing" textLength="106" x="198" y="90.897">editarAula(aulaId)</text></g><!--link AulaAbierta to EditarAulaView--><g id="link_AulaAbierta_EditarAulaView"><path d="M313,46.09 C313,72.87 313,116.01 313,142.83 " fill="none" id="AulaAbierta-to-EditarAulaView" style="stroke:#181818;stroke-width:1.0;"/><polygon fill="#181818" points="313,148.83,317,139.83,313,143.83,309,139.83,313,148.83" style="stroke:#181818;stroke-width:1.0;"/><text fill="#000000" font-family="sans-serif" font-size="13" lengthAdjust="spacing" textLength="106" x="314" y="90.897">editarAula(aulaId)</text></g><!--link CrearAula to EditarAulaView--><g id="link_CrearAula_EditarAulaView"><path d="M475.89,46.3 C456.66,66.28 429,95 429,95 C429,95 382.3281,124.1701 347.9581,145.6501 " fill="none" id="CrearAula-to-EditarAulaView" style="stroke:#181818;stroke-width:1.0;"/><polygon fill="#181818" points="342.87,148.83,352.622,147.4523,347.1101,146.1801,348.3822,140.6682,342.87,148.83" style="stroke:#181818;stroke-width:1.0;"/><text fill="#000000" font-family="sans-serif" font-size="13" lengthAdjust="spacing" textLength="133" x="447" y="90.897">editarAula(aulaNueva)</text></g><!--link EditarAulaView to AulaController--><g id="link_EditarAulaView_AulaController"><path d="M252.28,180.87 C175.72,195.21 54,218 54,218 C54,218 54,237 54,237 C54,237 87.2346,250.895 119.9446,264.575 " fill="none" id="EditarAulaView-to-AulaController" style="stroke:#181818;stroke-width:1.0;"/><polygon fill="#181818" points="125.48,266.89,118.7202,259.7272,120.8672,264.9608,115.6335,267.1077,125.48,266.89" style="stroke:#181818;stroke-width:1.0;"/><text fill="#000000" font-family="sans-serif" font-size="13" lengthAdjust="spacing" textLength="214" x="55" y="232.897">cargarAulaParaEdici&#243;n(aulaId) : Aula</text></g><!--link EditarAulaView to AulaController--><g id="link_EditarAulaView_AulaController"><path d="M302.14,188.3 C290.6,208.28 274,237 274,237 C274,237 244.6776,250.6738 215.3476,264.3538 " fill="none" id="EditarAulaView-to-AulaController-1" style="stroke:#181818;stroke-width:1.0;"/><polygon fill="#181818" points="209.91,266.89,219.7572,266.7108,214.4413,264.7765,216.3756,259.4606,209.91,266.89" style="stroke:#181818;stroke-width:1.0;"/><text fill="#000000" font-family="sans-serif" font-size="13" lengthAdjust="spacing" textLength="264" x="286" y="232.897">modificarCampos(aulaId, cambios) : boolean</text></g><!--link AulaController to AulaRepository--><g id="link_AulaController_AulaRepository"><path d="M130.47,306.11 C101.43,319.79 67,336 67,336 C67,336 67,355 67,355 C67,355 98.6022,368.8071 129.9022,382.4871 " fill="none" id="AulaController-to-AulaRepository" style="stroke:#181818;stroke-width:1.0;"/><polygon fill="#181818" points="135.4,384.89,128.7552,377.6205,130.8185,382.8876,125.5513,384.9509,135.4,384.89" style="stroke:#181818;stroke-width:1.0;"/><text fill="#000000" font-family="sans-serif" font-size="13" lengthAdjust="spacing" textLength="161" x="68" y="350.897">obtenerPorId(aulaId) : Aula</text></g><!--link AulaController to AulaRepository--><g id="link_AulaController_AulaRepository"><path d="M194.56,306.11 C212.61,319.79 234,336 234,336 C234,336 234,355 234,355 C234,355 219.8148,367.2812 204.0248,380.9612 " fill="none" id="AulaController-to-AulaRepository-1" style="stroke:#181818;stroke-width:1.0;"/><polygon fill="#181818" points="199.49,384.89,208.9114,382.02,203.269,381.616,203.673,375.9736,199.49,384.89" style="stroke:#181818;stroke-width:1.0;"/><text fill="#000000" font-family="sans-serif" font-size="13" lengthAdjust="spacing" textLength="148" x="235" y="350.897">actualizar(aula) : boolean</text></g><!--link AulaRepository to Aula--><g id="link_AulaRepository_Aula"><path d="M178,424.4 C178,441.86 178,467.66 178,484.99 " fill="none" id="AulaRepository-Aula" style="stroke:#181818;stroke-width:1.0;"/></g><!--link EditarAulaView to AbrirAulas--><g id="link_EditarAulaView_AbrirAulas"><path d="M373.81,181.49 C446.66,195.85 559,218 559,218 C559,218 616.4774,244.3961 659.9874,264.3761 " fill="none" id="EditarAulaView-to-AbrirAulas" style="stroke:#181818;stroke-width:1.0;stroke-dasharray:7.0,7.0;"/><polygon fill="#181818" points="665.44,266.88,658.9304,259.4892,660.8962,264.7935,655.5919,266.7593,665.44,266.88" style="stroke:#181818;stroke-width:1.0;"/><text fill="#000000" font-family="sans-serif" font-size="13" lengthAdjust="spacing" textLength="128" x="599" y="232.897">&#171;include&#187; abrirAulas()</text></g><!--SRC=[ZPBFIiD04CRl-nH3lJHWUoYsQ2Y165FeHOe7xvDaB4itks6pKQhuL3w2B-RcZscILiaUbftX-yryCsn-u393ZIa8BiaSCu9CYMCPCAOfDYZtWk0gU0Zl_ILCNByGc8CVST96JQ1ybvacyIVI4DWIJNmH29GG62cDXYi9WIRK9LAnRJI2z2FDAsrUjsr3nZAC3xWde8IRkbwfc9p2gJE13mRsTFgi5dVXvWx2LlNCwMqeYfPHihgjXWoKDDfQ8ZqKRHP-S1DMeYVALCwDqiT_HEoJiUwYOJRp1ZxSpZ1JjDSsSLXdrMEHTiDZWCU2Nj5Xh2-3MMBH_WPSY57lQytE_ZXBnFpxI_xs1RSUbFMnoaH_JIweo90alLDwcvpnGoiNdAGguI_S-WamjLMR4jVMOHfnbPUr8gK4eHnb1sDJeE3lgAjAP_X9Q_7BBkTph_C_NLYlkOn5aP3d0RRvgSD-0000]--></g></svg>