<?xml version="1.0" encoding="us-ascii" standalone="no"?><svg xmlns="http://www.w3.org/2000/svg" xmlns:xlink="http://www.w3.org/1999/xlink" contentStyleType="text/css" height="678px" preserveAspectRatio="none" style="width:460px;height:678px;background:#FFFFFF;" version="1.1" viewBox="0 0 460 678" width="460px" zoomAndPan="magnify"><defs/><g><path d="M19.5,7 L412.5,7 A12.5,12.5 0 0 1 425,19.5 L425,36.0679 L7,36.0679 L7,19.5 A12.5,12.5 0 0 1 19.5,7 " fill="#F1F1F1" style="stroke:#F1F1F1;stroke-width:1.0;"/><rect fill="none" height="518.0679" rx="12.5" ry="12.5" style="stroke:#181818;stroke-width:0.5;" width="418" x="7" y="7"/><line style="stroke:#181818;stroke-width:0.5;" x1="7" x2="425" y1="36.0679" y2="36.0679"/><text fill="#000000" font-family="sans-serif" font-size="14" lengthAdjust="spacing" textLength="99" x="166.5" y="26.9659">crearProfesor()</text><g id="crearProfesor.SolicitandoDatos"><rect fill="#F1F1F1" height="50" rx="12.5" ry="12.5" style="stroke:#181818;stroke-width:0.5;" width="50" x="19" y="140.0679"/><line style="stroke:#181818;stroke-width:0.5;" x1="19" x2="69" y1="169.1358" y2="169.1358"/><text fill="#000000" font-family="sans-serif" font-size="14" lengthAdjust="spacing" textLength="4" x="42" y="160.0339">&#160;</text></g><g id="crearProfesor.CreandoProfesor"><rect fill="#F1F1F1" height="50" rx="12.5" ry="12.5" style="stroke:#181818;stroke-width:0.5;" width="50" x="19" y="352.0679"/><line style="stroke:#181818;stroke-width:0.5;" x1="19" x2="69" y1="381.1358" y2="381.1358"/><text fill="#000000" font-family="sans-serif" font-size="14" lengthAdjust="spacing" textLength="4" x="42" y="372.0339">&#160;</text></g><ellipse cx="44" cy="57.0679" fill="#222222" rx="10" ry="10" style="stroke:#222222;stroke-width:1.0;"/><ellipse cx="44" cy="504.0679" fill="none" rx="11" ry="11" style="stroke:#222222;stroke-width:1.0;"/><ellipse cx="44" cy="504.0679" fill="#222222" rx="6" ry="6" style="stroke:#222222;stroke-width:1.0;"/><!--link *start*crearProfesor to SolicitandoDatos--><g id="link_*start*crearProfesor_SolicitandoDatos"><path d="M44,67.1079 C44,83.0279 44,110.5779 44,133.7079 " fill="none" id="*start*crearProfesor-to-SolicitandoDatos" style="stroke:#008000;stroke-width:1.0;"/><polygon fill="#008000" points="44,139.7079,48,130.7079,44,134.7079,40,130.7079,44,139.7079" style="stroke:#008000;stroke-width:1.0;"/><path d="M49,90.0679 L49,117.0679 L337,117.0679 L337,100.0679 L327,90.0679 L49,90.0679 " fill="#FEFFDD" style="stroke:#181818;stroke-width:0.5;"/><path d="M327,90.0679 L327,100.0679 L337,100.0679 L327,90.0679 " fill="#FEFFDD" style="stroke:#181818;stroke-width:0.5;"/><text fill="#000000" font-family="sans-serif" font-size="13" font-weight="bold" lengthAdjust="spacing" textLength="95" x="55" y="108.9649">Administrador</text><text fill="#000000" font-family="sans-serif" font-size="13" lengthAdjust="spacing" textLength="169" x="153" y="108.9649">solicita crear profesor nuevo</text></g><!--link SolicitandoDatos to CreandoProfesor--><g id="link_SolicitandoDatos_CreandoProfesor"><path d="M44,190.1579 C44,230.5579 44,305.5079 44,345.9379 " fill="none" id="SolicitandoDatos-to-CreandoProfesor" style="stroke:#008000;stroke-width:1.0;"/><polygon fill="#008000" points="44,351.9379,48,342.9379,44,346.9379,40,342.9379,44,351.9379" style="stroke:#008000;stroke-width:1.0;"/><path d="M49,213.0679 L49,329.0679 L416,329.0679 L416,223.0679 L406,213.0679 L49,213.0679 " fill="#FEFFDD" style="stroke:#181818;stroke-width:0.5;"/><path d="M406,213.0679 L406,223.0679 L416,223.0679 L406,213.0679 " fill="#FEFFDD" style="stroke:#181818;stroke-width:0.5;"/><text fill="#000000" font-family="sans-serif" font-size="13" font-weight="bold" lengthAdjust="spacing" textLength="52" x="55" y="231.9649">Sistema</text><text fill="#000000" font-family="sans-serif" font-size="13" lengthAdjust="spacing" textLength="291" x="110" y="231.9649">presenta solicitud de datos m&#237;nimos del profesor</text><text fill="#000000" font-family="sans-serif" font-size="13" lengthAdjust="spacing" textLength="203" x="55" y="249.6709">&#8226; C&#243;digo del profesor (obligatorio)</text><text fill="#000000" font-family="sans-serif" font-size="13" lengthAdjust="spacing" textLength="216" x="55" y="267.377">&#8226; Nombres del profesor (obligatorio)</text><text fill="#000000" font-family="sans-serif" font-size="13" lengthAdjust="spacing" textLength="214" x="55" y="285.083">&#8226; Apellidos del profesor (obligatorio)</text><text fill="#000000" font-family="sans-serif" font-size="13" lengthAdjust="spacing" textLength="191" x="55" y="302.789">&#8226; Permite solicitar crear profesor</text><text fill="#000000" font-family="sans-serif" font-size="13" lengthAdjust="spacing" textLength="209" x="55" y="320.495">&#8226; Permite solicitar cancelar creaci&#243;n</text></g><!--link CreandoProfesor to *end*crearProfesor--><g id="link_CreandoProfesor_*end*crearProfesor"><path d="M44,402.1679 C44,429.6979 44,467.4479 44,487.0279 " fill="none" id="CreandoProfesor-to-*end*crearProfesor" style="stroke:#008000;stroke-width:1.0;"/><polygon fill="#008000" points="44,493.0279,48,484.0279,44,488.0279,40,484.0279,44,493.0279" style="stroke:#008000;stroke-width:1.0;"/><path d="M49,425.0679 L49,470.0679 L334,470.0679 L334,435.0679 L324,425.0679 L49,425.0679 " fill="#FEFFDD" style="stroke:#181818;stroke-width:0.5;"/><path d="M324,425.0679 L324,435.0679 L334,435.0679 L324,425.0679 " fill="#FEFFDD" style="stroke:#181818;stroke-width:0.5;"/><text fill="#000000" font-family="sans-serif" font-size="13" font-weight="bold" lengthAdjust="spacing" textLength="95" x="55" y="443.9649">Administrador</text><text fill="#000000" font-family="sans-serif" font-size="13" lengthAdjust="spacing" textLength="166" x="153" y="443.9649">proporciona datos m&#237;nimos</text><text fill="#000000" font-family="sans-serif" font-size="13" font-weight="bold" lengthAdjust="spacing" textLength="52" x="55" y="461.6709">Sistema</text><text fill="#000000" font-family="sans-serif" font-size="13" lengthAdjust="spacing" textLength="205" x="110" y="461.6709">crea profesor y transfiere a edici&#243;n</text></g><g id="PROFESOR_ABIERTO"><rect fill="#F1F1F1" height="50" rx="12.5" ry="12.5" style="stroke:#181818;stroke-width:0.5;" width="156" x="10" y="622"/><line style="stroke:#181818;stroke-width:0.5;" x1="10" x2="166" y1="651.0679" y2="651.0679"/><text fill="#000000" font-family="sans-serif" font-size="14" lengthAdjust="spacing" textLength="136" x="20" y="641.9659">PROFESOR_ABIERTO</text></g><g id="PROFESORES_ABIERTO"><rect fill="#F1F1F1" height="50" rx="12.5" ry="12.5" style="stroke:#181818;stroke-width:0.5;" width="172" x="258" y="622"/><line style="stroke:#181818;stroke-width:0.5;" x1="258" x2="430" y1="651.0679" y2="651.0679"/><text fill="#000000" font-family="sans-serif" font-size="14" lengthAdjust="spacing" textLength="152" x="268" y="641.9659">PROFESORES_ABIERTO</text></g><!--link crearProfesor to PROFESOR_ABIERTO--><g id="link_crearProfesor_PROFESOR_ABIERTO"><path d="M98.53,525.26 C90.2,543.57 85,555 85,555 C85,555 85,592 85,592 C85,592 85.5265,601.4793 86.3265,615.8493 " fill="none" id="crearProfesor-to-PROFESOR_ABIERTO" style="stroke:#008000;stroke-width:1.0;"/><polygon fill="#008000" points="86.66,621.84,90.1535,612.6316,86.3821,616.8477,82.1659,613.0763,86.66,621.84" style="stroke:#008000;stroke-width:1.0;"/><path d="M90,560 L90,587 L296,587 L296,570 L286,560 L90,560 " fill="#FEFFDD" style="stroke:#181818;stroke-width:0.5;"/><path d="M286,560 L286,570 L296,570 L286,560 " fill="#FEFFDD" style="stroke:#181818;stroke-width:0.5;"/><text fill="#000000" font-family="sans-serif" font-size="13" lengthAdjust="spacing" textLength="185" x="96" y="578.897">editarProfesor(profesorNuevo)</text></g><!--link crearProfesor to PROFESORES_ABIERTO--><g id="link_crearProfesor_PROFESORES_ABIERTO"><path d="M303.15,525.04 C316.52,564.62 326.4102,593.9054 333.8502,615.9354 " fill="none" id="crearProfesor-to-PROFESORES_ABIERTO" style="stroke:#0000FF;stroke-width:1.0;"/><polygon fill="#0000FF" points="335.77,621.62,336.68,611.8133,334.1702,616.8829,329.1006,614.373,335.77,621.62" style="stroke:#0000FF;stroke-width:1.0;"/><path d="M330,560 L330,587 L453,587 L453,570 L443,560 L330,560 " fill="#FEFFDD" style="stroke:#181818;stroke-width:0.5;"/><path d="M443,560 L443,570 L453,570 L443,560 " fill="#FEFFDD" style="stroke:#181818;stroke-width:0.5;"/><text fill="#000000" font-family="sans-serif" font-size="13" lengthAdjust="spacing" textLength="102" x="336" y="578.897">cancelar creaci&#243;n</text></g><!--SRC=[bPF1Qi9048Rl-nI3lMX1-W8YM6kX5nNJcqZPP4TPtEo4tLYGKkYpzDwJZ-2Rz4awYHgJc1QxWP3i_lFFDxExVgrj8fsCmMYBwJP1ICXiinyXV2fJXCYXT5D7I_JaG7feLMRQdHQy2G4y3leMFwmAoEX8fz8gUf0f-Kl5a6ruzMHqy9ZVBg0xlravHBlezYzi85TPOXko6VGwd-Y5_O6AjTK-TLAHwzs5VV37s4C9a9ngi1jyfJmChJfuyH35wo9d6QXE_HjEm2WOonmaSUZHCiYHQAD08QZSEzv_MHtpXq9J8EOctn-VCDplb5vHPH7Q51gzucYdgLD8nnI7dESQwI11OxIYgyHJTB7c-axTTBLs_YMKDa9pZ8ZqVcShNJztlDRKIiFvHFnZpvag8HTfihBMuAQDoRZEzM-1ZQnVQdG84b3f1kPt8QeteimwdKqUHy5azZAuVnhDdYUY0is6QUdYdFAEi-FO4KM6I__GRB1iFmgQ4pJqkt3z0G00]--></g></svg>