<?xml version="1.0" encoding="us-ascii" standalone="no"?><svg xmlns="http://www.w3.org/2000/svg" xmlns:xlink="http://www.w3.org/1999/xlink" contentStyleType="text/css" height="442px" preserveAspectRatio="none" style="width:1533px;height:442px;background:#FFFFFF;" version="1.1" viewBox="0 0 1533 442" width="1533px" zoomAndPan="magnify"><defs/><g><!--cluster abrirAulas--><g id="cluster_abrirAulas"><path d="M179,6.602 L261,6.602 A3.75,3.75 0 0 1 263.5,9.102 L270.5,31.6699 L673,31.6699 A2.5,2.5 0 0 1 675.5,34.1699 L675.5,433.102 A2.5,2.5 0 0 1 673,435.602 L179,435.602 A2.5,2.5 0 0 1 176.5,433.102 L176.5,9.102 A2.5,2.5 0 0 1 179,6.602 " fill="none" style="stroke:#000000;stroke-width:1.5;"/><line style="stroke:#000000;stroke-width:1.5;" x1="176.5" x2="270.5" y1="31.6699" y2="31.6699"/><text fill="#000000" font-family="sans-serif" font-size="14" font-weight="bold" lengthAdjust="spacing" textLength="81" x="180.5" y="23.5679">abrirAulas()</text></g><!--entity ListarAulasView--><g id="elem_ListarAulasView"><rect fill="#629EF9" height="39.0679" rx="2.5" ry="2.5" style="stroke:#181818;stroke-width:0.5;" width="125" x="534" y="44.602"/><text fill="#000000" font-family="sans-serif" font-size="14" lengthAdjust="spacing" textLength="105" x="544" y="69.5679">ListarAulasView</text></g><!--entity AulasController--><g id="elem_AulasController"><rect fill="#B5BD68" height="39.0679" rx="2.5" ry="2.5" style="stroke:#181818;stroke-width:0.5;" width="124" x="300.5" y="162.602"/><text fill="#000000" font-family="sans-serif" font-size="14" lengthAdjust="spacing" textLength="104" x="310.5" y="187.5679">AulasController</text></g><!--entity AulaRepository--><g id="elem_AulaRepository"><rect fill="#F2AC4E" height="39.0679" rx="2.5" ry="2.5" style="stroke:#181818;stroke-width:0.5;" width="121" x="282" y="280.602"/><text fill="#000000" font-family="sans-serif" font-size="14" lengthAdjust="spacing" textLength="101" x="292" y="305.5679">AulaRepository</text></g><!--entity Aula--><g id="elem_Aula"><rect fill="#F2AC4E" height="39.0679" rx="2.5" ry="2.5" style="stroke:#181818;stroke-width:0.5;" width="50" x="317.5" y="380.602"/><text fill="#000000" font-family="sans-serif" font-size="14" lengthAdjust="spacing" textLength="30" x="327.5" y="405.5679">Aula</text></g><!--entity SistemaDisponible--><g id="elem_SistemaDisponible"><rect fill="#CDEBA5" height="39.0679" rx="2.5" ry="2.5" style="stroke:#181818;stroke-width:0.5;" width="153" x="7" y="44.602"/><text fill="#000000" font-family="sans-serif" font-size="14" lengthAdjust="spacing" textLength="133" x="17" y="69.5679">:Sistema Disponible</text></g><!--entity SistemaDisponibleSalida--><g id="elem_SistemaDisponibleSalida"><rect fill="#CDEBA5" height="39.0679" rx="2.5" ry="2.5" style="stroke:#181818;stroke-width:0.5;" width="153" x="692" y="162.602"/><text fill="#000000" font-family="sans-serif" font-size="14" lengthAdjust="spacing" textLength="133" x="702" y="187.5679">:Sistema Disponible</text></g><!--entity CrearAula--><g id="elem_CrearAula"><rect fill="#CDEBA5" height="39.0679" rx="2.5" ry="2.5" style="stroke:#181818;stroke-width:0.5;" width="185" x="880" y="162.602"/><text fill="#000000" font-family="sans-serif" font-size="14" lengthAdjust="spacing" textLength="165" x="890" y="187.5679">:Collaboration CrearAula</text></g><!--entity EditarAula--><g id="elem_EditarAula"><rect fill="#CDEBA5" height="39.0679" rx="2.5" ry="2.5" style="stroke:#181818;stroke-width:0.5;" width="188" x="1100.5" y="162.602"/><text fill="#000000" font-family="sans-serif" font-size="14" lengthAdjust="spacing" textLength="168" x="1110.5" y="187.5679">:Collaboration EditarAula</text></g><!--entity EliminarAula--><g id="elem_EliminarAula"><rect fill="#CDEBA5" height="39.0679" rx="2.5" ry="2.5" style="stroke:#181818;stroke-width:0.5;" width="204" x="1323.5" y="162.602"/><text fill="#000000" font-family="sans-serif" font-size="14" lengthAdjust="spacing" textLength="184" x="1333.5" y="187.5679">:Collaboration EliminarAula</text></g><!--link SistemaDisponible to ListarAulasView--><g id="link_SistemaDisponible_ListarAulasView"><path d="M160.02,64.102 C261.69,64.102 433.41,64.102 527.66,64.102 " fill="none" id="SistemaDisponible-to-ListarAulasView" style="stroke:#181818;stroke-width:1.0;"/><polygon fill="#181818" points="533.66,64.102,524.66,60.102,528.66,64.102,524.66,68.102,533.66,64.102" style="stroke:#181818;stroke-width:1.0;"/><text fill="#000000" font-family="sans-serif" font-size="13" lengthAdjust="spacing" textLength="68" x="313" y="56.999">abrirAulas()</text></g><!--link ListarAulasView to AulasController--><g id="link_ListarAulasView_AulasController"><path d="M533.63,75.032 C443.82,89.222 289.5,113.602 289.5,113.602 C289.5,113.602 289.5,132.602 289.5,132.602 C289.5,132.602 308.9025,145.4916 329.4925,159.1716 " fill="none" id="ListarAulasView-to-AulasController" style="stroke:#181818;stroke-width:1.0;"/><polygon fill="#181818" points="334.49,162.492,329.2073,154.1798,330.3254,159.725,324.7801,160.8431,334.49,162.492" style="stroke:#181818;stroke-width:1.0;"/><text fill="#000000" font-family="sans-serif" font-size="13" lengthAdjust="spacing" textLength="139" x="290.5" y="128.499">listarAulas() : List&lt;Aula&gt;</text></g><!--link ListarAulasView to AulasController--><g id="link_ListarAulasView_AulasController"><path d="M550.83,83.712 C517.27,97.392 477.5,113.602 477.5,113.602 C477.5,113.602 433.4445,139.4648 399.4045,159.4448 " fill="none" id="ListarAulasView-to-AulasController-1" style="stroke:#181818;stroke-width:1.0;"/><polygon fill="#181818" points="394.23,162.482,404.0165,161.3758,398.5421,159.951,399.9669,154.4765,394.23,162.482" style="stroke:#181818;stroke-width:1.0;"/><text fill="#000000" font-family="sans-serif" font-size="13" lengthAdjust="spacing" textLength="184" x="478.5" y="128.499">filtrarAulas(criterio) : List&lt;Aula&gt;</text></g><!--link AulasController to AulaRepository--><g id="link_AulasController_AulaRepository"><path d="M309.54,201.712 C270.62,215.392 224.5,231.602 224.5,231.602 C224.5,231.602 224.5,250.602 224.5,250.602 C224.5,250.602 258.3906,264.5308 291.6706,278.2108 " fill="none" id="AulasController-to-AulaRepository" style="stroke:#181818;stroke-width:1.0;"/><polygon fill="#181818" points="297.22,280.492,290.4166,273.3706,292.5955,278.591,287.3751,280.7699,297.22,280.492" style="stroke:#181818;stroke-width:1.0;"/><text fill="#000000" font-family="sans-serif" font-size="13" lengthAdjust="spacing" textLength="163" x="225.5" y="246.499">obtenerTodos() : List&lt;Aula&gt;</text></g><!--link AulasController to AulaRepository--><g id="link_AulasController_AulaRepository"><path d="M374.4,201.712 C383.14,215.392 393.5,231.602 393.5,231.602 C393.5,231.602 393.5,250.602 393.5,250.602 C393.5,250.602 380.7971,262.6765 366.4171,276.3565 " fill="none" id="AulasController-to-AulaRepository-1" style="stroke:#181818;stroke-width:1.0;"/><polygon fill="#181818" points="362.07,280.492,371.3477,277.1868,365.6926,277.0457,365.8337,271.3906,362.07,280.492" style="stroke:#181818;stroke-width:1.0;"/><text fill="#000000" font-family="sans-serif" font-size="13" lengthAdjust="spacing" textLength="225" x="394.5" y="246.499">buscarPorCriterio(criterio) : List&lt;Aula&gt;</text></g><!--link AulaRepository to Aula--><g id="link_AulaRepository_Aula"><path d="M342.5,320.002 C342.5,337.462 342.5,363.262 342.5,380.592 " fill="none" id="AulaRepository-Aula" style="stroke:#181818;stroke-width:1.0;"/></g><!--link ListarAulasView to SistemaDisponibleSalida--><g id="link_ListarAulasView_SistemaDisponibleSalida"><path d="M624.13,83.742 C656.23,105.382 703.8962,137.5263 735.9562,159.1563 " fill="none" id="ListarAulasView-to-SistemaDisponibleSalida" style="stroke:#181818;stroke-width:1.0;stroke-dasharray:7.0,7.0;"/><polygon fill="#181818" points="740.93,162.512,735.7064,154.1625,736.7851,159.7156,731.2321,160.7943,740.93,162.512" style="stroke:#181818;stroke-width:1.0;"/><text fill="#000000" font-family="sans-serif" font-size="13" lengthAdjust="spacing" textLength="115" x="693.5" y="128.499">completarGestion()</text></g><!--link ListarAulasView to CrearAula--><g id="link_ListarAulasView_CrearAula"><path d="M659.24,78.872 C724.58,93.212 817.5,113.602 817.5,113.602 C817.5,113.602 878.359,140.1064 924.239,160.0864 " fill="none" id="ListarAulasView-to-CrearAula" style="stroke:#181818;stroke-width:1.0;stroke-dasharray:7.0,7.0;"/><polygon fill="#181818" points="929.74,162.482,923.0856,155.2212,925.1558,160.4856,919.8914,162.5559,929.74,162.482" style="stroke:#181818;stroke-width:1.0;"/><text fill="#000000" font-family="sans-serif" font-size="13" lengthAdjust="spacing" textLength="64" x="859.5" y="128.499">crearAula()</text></g><!--link ListarAulasView to EditarAula--><g id="link_ListarAulasView_EditarAula"><path d="M659.3,74.172 C756.56,88.202 932.5,113.602 932.5,113.602 C932.5,113.602 1039.1899,141.0845 1116.7499,161.0745 " fill="none" id="ListarAulasView-to-EditarAula" style="stroke:#181818;stroke-width:1.0;stroke-dasharray:7.0,7.0;"/><polygon fill="#181818" points="1122.56,162.572,1114.8431,156.4523,1117.7182,161.3241,1112.8465,164.1992,1122.56,162.572" style="stroke:#181818;stroke-width:1.0;"/><text fill="#000000" font-family="sans-serif" font-size="13" lengthAdjust="spacing" textLength="69" x="1003.5" y="128.499">editarAula()</text></g><!--link ListarAulasView to EliminarAula--><g id="link_ListarAulasView_EliminarAula"><path d="M659.41,71.392 C790.64,84.512 1081.5,113.602 1081.5,113.602 C1081.5,113.602 1223.3224,141.4263 1325.1624,161.4163 " fill="none" id="ListarAulasView-to-EliminarAula" style="stroke:#181818;stroke-width:1.0;stroke-dasharray:7.0,7.0;"/><polygon fill="#181818" points="1331.05,162.572,1322.989,156.9134,1326.1436,161.6089,1321.4481,164.7636,1331.05,162.572" style="stroke:#181818;stroke-width:1.0;"/><text fill="#000000" font-family="sans-serif" font-size="13" lengthAdjust="spacing" textLength="82" x="1174.5" y="128.499">eliminarAula()</text></g><!--SRC=[fPB1Re9048Rl-nGJUj437amrbJGc5h6N7fhQzBx0r4nSTicmfZ5DtxqhAX04Orh2OMVs-tzcc2csf7F9CWD56kq-HyYDsXy28HWJA_L68To5o-XfCG4lM5DXCPEmf28tccA57iW2JkawAtAPREK6GSPClDWf1xdNgyF1q8Dl0UvfV6SwdaMh6RmuEtd4FWY_sbGyYTFf0vJteT6MZLB8RMerNeJtKKczOMuAieRtLo3nyx-Mrr9HAZijGbUWZ0rBIqP3o7XihlIfeXkKKKgs8Qt3MxIACj9DTICXn4KxuBC_RqyYWEO0XMXTWvywJMikWTkjYXeC8IXD7m_XN8WM3Fx9e1vP02Qsg97VJMgw3MhOwO_3l2ojgx9FKfRFfILC5fdCNqgCTqKY-TLmU3BfTMlNDHhD-tOfWCHakKB7FsDncABxvrtwQeUSudpiGUkT2G2hSn_SM167Do8d-0K0]--></g></svg>