<?xml version="1.0" encoding="us-ascii" standalone="no"?><svg xmlns="http://www.w3.org/2000/svg" xmlns:xlink="http://www.w3.org/1999/xlink" contentStyleType="text/css" height="665px" preserveAspectRatio="none" style="width:639px;height:665px;background:#FFFFFF;" version="1.1" viewBox="0 0 639 665" width="639px" zoomAndPan="magnify"><defs/><g><path d="M103.5,7 L409.5,7 A12.5,12.5 0 0 1 422,19.5 L422,36.0679 L91,36.0679 L91,19.5 A12.5,12.5 0 0 1 103.5,7 " fill="#F1F1F1" style="stroke:#F1F1F1;stroke-width:1.0;"/><rect fill="none" height="505.0679" rx="12.5" ry="12.5" style="stroke:#181818;stroke-width:0.5;" width="331" x="91" y="7"/><line style="stroke:#181818;stroke-width:0.5;" x1="91" x2="422" y1="36.0679" y2="36.0679"/><text fill="#000000" font-family="sans-serif" font-size="14" lengthAdjust="spacing" textLength="102" x="205.5" y="26.9659">abrirRecursos()</text><g id="abrirRecursos.MostrandoLista"><rect fill="#F1F1F1" height="50" rx="12.5" ry="12.5" style="stroke:#181818;stroke-width:0.5;" width="50" x="103" y="140.0679"/><line style="stroke:#181818;stroke-width:0.5;" x1="103" x2="153" y1="169.1358" y2="169.1358"/><text fill="#000000" font-family="sans-serif" font-size="14" lengthAdjust="spacing" textLength="4" x="126" y="160.0339">&#160;</text></g><g id="abrirRecursos.FiltrandoLista"><rect fill="#F1F1F1" height="50" rx="12.5" ry="12.5" style="stroke:#181818;stroke-width:0.5;" width="50" x="103" y="354.5679"/><line style="stroke:#181818;stroke-width:0.5;" x1="103" x2="153" y1="383.6358" y2="383.6358"/><text fill="#000000" font-family="sans-serif" font-size="14" lengthAdjust="spacing" textLength="4" x="126" y="374.5339">&#160;</text></g><ellipse cx="128" cy="57.0679" fill="#222222" rx="10" ry="10" style="stroke:#222222;stroke-width:1.0;"/><ellipse cx="128" cy="491.0679" fill="none" rx="11" ry="11" style="stroke:#222222;stroke-width:1.0;"/><ellipse cx="128" cy="491.0679" fill="#222222" rx="6" ry="6" style="stroke:#222222;stroke-width:1.0;"/><!--link *start*abrirRecursos to MostrandoLista--><g id="link_*start*abrirRecursos_MostrandoLista"><path d="M128,67.1079 C128,83.0279 128,110.5779 128,133.7079 " fill="none" id="*start*abrirRecursos-to-MostrandoLista" style="stroke:#008000;stroke-width:1.0;"/><polygon fill="#008000" points="128,139.7079,132,130.7079,128,134.7079,124,130.7079,128,139.7079" style="stroke:#008000;stroke-width:1.0;"/><path d="M133,90.0679 L133,117.0679 L378,117.0679 L378,100.0679 L368,90.0679 L133,90.0679 " fill="#FEFFDD" style="stroke:#181818;stroke-width:0.5;"/><path d="M368,90.0679 L368,100.0679 L378,100.0679 L368,90.0679 " fill="#FEFFDD" style="stroke:#181818;stroke-width:0.5;"/><text fill="#000000" font-family="sans-serif" font-size="13" font-weight="bold" lengthAdjust="spacing" textLength="95" x="139" y="108.9649">Administrador</text><text fill="#000000" font-family="sans-serif" font-size="13" lengthAdjust="spacing" textLength="126" x="237" y="108.9649">solicita abrir recursos</text></g><!--link MostrandoLista to FiltrandoLista--><g id="link_MostrandoLista_FiltrandoLista"><path d="M128,190.4479 C128,231.4379 128,307.6779 128,348.4779 " fill="none" id="MostrandoLista-to-FiltrandoLista" style="stroke:#008000;stroke-width:1.0;"/><polygon fill="#008000" points="128,354.4779,132,345.4779,128,349.4779,124,345.4779,128,354.4779" style="stroke:#008000;stroke-width:1.0;"/><path d="M133,213.0679 L133,329.0679 L400,329.0679 L400,223.0679 L390,213.0679 L133,213.0679 " fill="#FEFFDD" style="stroke:#181818;stroke-width:0.5;"/><path d="M390,213.0679 L390,223.0679 L400,223.0679 L390,213.0679 " fill="#FEFFDD" style="stroke:#181818;stroke-width:0.5;"/><text fill="#000000" font-family="sans-serif" font-size="13" font-weight="bold" lengthAdjust="spacing" textLength="52" x="139" y="231.9649">Sistema</text><text fill="#000000" font-family="sans-serif" font-size="13" lengthAdjust="spacing" textLength="152" x="194" y="231.9649">presenta lista de recursos</text><text fill="#000000" font-family="sans-serif" font-size="13" lengthAdjust="spacing" textLength="246" x="139" y="249.6709">&#8226; ID, nombre, descripci&#243;n de cada recurso</text><text fill="#000000" font-family="sans-serif" font-size="13" lengthAdjust="spacing" textLength="166" x="139" y="267.377">&#8226; Permite solicitar filtrar lista</text><text fill="#000000" font-family="sans-serif" font-size="13" lengthAdjust="spacing" textLength="226" x="139" y="285.083">&#8226; Permite solicitar crear recurso nuevo</text><text fill="#000000" font-family="sans-serif" font-size="13" lengthAdjust="spacing" textLength="203" x="139" y="302.789">&#8226; Permite solicitar eliminar recurso</text><text fill="#000000" font-family="sans-serif" font-size="13" lengthAdjust="spacing" textLength="190" x="139" y="320.495">&#8226; Permite solicitar editar recurso</text></g><!--link FiltrandoLista to FiltrandoLista--><g id="link_FiltrandoLista_FiltrandoLista"><path d="M153.18,367.6179 C162.91,367.0879 171,371.0679 171,379.5679 C171,388.0679 168.9011,392.3743 159.1711,391.8443 " fill="none" id="FiltrandoLista-to-FiltrandoLista" style="stroke:#008000;stroke-width:1.0;"/><polygon fill="#008000" points="153.18,391.5179,161.9491,396.0015,158.1726,391.7899,162.3842,388.0133,153.18,391.5179" style="stroke:#008000;stroke-width:1.0;"/><path d="M176,357.0679 L176,402.0679 L398,402.0679 L398,367.0679 L388,357.0679 L176,357.0679 " fill="#FEFFDD" style="stroke:#181818;stroke-width:0.5;"/><path d="M388,357.0679 L388,367.0679 L398,367.0679 L388,357.0679 " fill="#FEFFDD" style="stroke:#181818;stroke-width:0.5;"/><text fill="#000000" font-family="sans-serif" font-size="13" font-weight="bold" lengthAdjust="spacing" textLength="95" x="182" y="375.9649">Administrador</text><text fill="#000000" font-family="sans-serif" font-size="13" lengthAdjust="spacing" textLength="103" x="280" y="375.9649">solicita filtrar lista</text><text fill="#000000" font-family="sans-serif" font-size="13" font-weight="bold" lengthAdjust="spacing" textLength="52" x="182" y="393.6709">Sistema</text><text fill="#000000" font-family="sans-serif" font-size="13" lengthAdjust="spacing" textLength="125" x="237" y="393.6709">presenta lista filtrada</text></g><!--link FiltrandoLista to *end*abrirRecursos--><g id="link_FiltrandoLista_*end*abrirRecursos"><path d="M128,404.5979 C128,428.1479 128,456.8979 128,473.9179 " fill="none" id="FiltrandoLista-to-*end*abrirRecursos" style="stroke:#008000;stroke-width:1.0;"/><polygon fill="#008000" points="128,479.9179,132,470.9179,128,474.9179,124,470.9179,128,479.9179" style="stroke:#008000;stroke-width:1.0;"/><path d="M133,430.0679 L133,457.0679 L413,457.0679 L413,440.0679 L403,430.0679 L133,430.0679 " fill="#FEFFDD" style="stroke:#181818;stroke-width:0.5;"/><path d="M403,430.0679 L403,440.0679 L413,440.0679 L403,430.0679 " fill="#FEFFDD" style="stroke:#181818;stroke-width:0.5;"/><text fill="#000000" font-family="sans-serif" font-size="13" font-weight="bold" lengthAdjust="spacing" textLength="95" x="139" y="448.9649">Administrador</text><text fill="#000000" font-family="sans-serif" font-size="13" lengthAdjust="spacing" textLength="161" x="237" y="448.9649">solicita una de las opciones</text></g><g id="RECURSO_ABIERTO"><rect fill="#F1F1F1" height="50" rx="12.5" ry="12.5" style="stroke:#181818;stroke-width:0.5;" width="149" x="7" y="609"/><line style="stroke:#181818;stroke-width:0.5;" x1="7" x2="156" y1="638.0679" y2="638.0679"/><text fill="#000000" font-family="sans-serif" font-size="14" lengthAdjust="spacing" textLength="129" x="17" y="628.9659">RECURSO_ABIERTO</text></g><g id="RECURSOS_ABIERTO"><rect fill="#F1F1F1" height="50" rx="12.5" ry="12.5" style="stroke:#181818;stroke-width:0.5;" width="157" x="257" y="609"/><line style="stroke:#181818;stroke-width:0.5;" x1="257" x2="414" y1="638.0679" y2="638.0679"/><text fill="#000000" font-family="sans-serif" font-size="14" lengthAdjust="spacing" textLength="137" x="267" y="628.9659">RECURSOS_ABIERTO</text></g><g id="SISTEMA_DISPONIBLE"><rect fill="#F1F1F1" height="50" rx="12.5" ry="12.5" style="stroke:#181818;stroke-width:0.5;" width="167" x="449" y="609"/><line style="stroke:#181818;stroke-width:0.5;" x1="449" x2="616" y1="638.0679" y2="638.0679"/><text fill="#000000" font-family="sans-serif" font-size="14" lengthAdjust="spacing" textLength="147" x="459" y="628.9659">SISTEMA_DISPONIBLE</text></g><!--link abrirRecursos to RECURSO_ABIERTO--><g id="link_abrirRecursos_RECURSO_ABIERTO"><path d="M90.72,452.54 C47.85,502.21 13.5,542 13.5,542 C13.5,542 13.5,579 13.5,579 C13.5,579 28.2699,590.7405 46.3799,605.1105 " fill="none" id="abrirRecursos-to-RECURSO_ABIERTO" style="stroke:#008000;stroke-width:1.0;"/><polygon fill="#008000" points="51.08,608.84,46.5161,600.1124,47.1632,605.7321,41.5435,606.3792,51.08,608.84" style="stroke:#008000;stroke-width:1.0;"/><path d="M18.5,547 L18.5,574 L130.5,574 L130.5,557 L120.5,547 L18.5,547 " fill="#FEFFDD" style="stroke:#181818;stroke-width:0.5;"/><path d="M120.5,547 L120.5,557 L130.5,557 L120.5,547 " fill="#FEFFDD" style="stroke:#181818;stroke-width:0.5;"/><text fill="#000000" font-family="sans-serif" font-size="13" lengthAdjust="spacing" textLength="91" x="24.5" y="565.897">editarRecurso()</text></g><!--link abrirRecursos to RECURSO_ABIERTO--><g id="link_abrirRecursos_RECURSO_ABIERTO"><path d="M164.03,512.23 C149.68,551.3 139.5,579 139.5,579 C139.5,579 127.2821,590.3823 111.8421,604.7523 " fill="none" id="abrirRecursos-to-RECURSO_ABIERTO-1" style="stroke:#008000;stroke-width:1.0;"/><polygon fill="#008000" points="107.45,608.84,116.7633,605.6365,111.1101,605.4336,111.313,599.7804,107.45,608.84" style="stroke:#008000;stroke-width:1.0;"/><path d="M156.5,547 L156.5,574 L263.5,574 L263.5,557 L253.5,547 L156.5,547 " fill="#FEFFDD" style="stroke:#181818;stroke-width:0.5;"/><path d="M253.5,547 L253.5,557 L263.5,557 L253.5,547 " fill="#FEFFDD" style="stroke:#181818;stroke-width:0.5;"/><text fill="#000000" font-family="sans-serif" font-size="13" lengthAdjust="spacing" textLength="86" x="162.5" y="565.897">crearRecurso()</text></g><!--link abrirRecursos to RECURSOS_ABIERTO--><g id="link_abrirRecursos_RECURSOS_ABIERTO"><path d="M309.85,512.06 C318.22,551.52 324.3948,580.6406 329.0748,602.7006 " fill="none" id="abrirRecursos-to-RECURSOS_ABIERTO" style="stroke:#008000;stroke-width:1.0;"/><polygon fill="#008000" points="330.32,608.57,332.3651,598.9358,329.2824,603.6789,324.5393,600.5961,330.32,608.57" style="stroke:#008000;stroke-width:1.0;"/><path d="M328.5,547 L328.5,574 L453.5,574 L453.5,557 L443.5,547 L328.5,547 " fill="#FEFFDD" style="stroke:#181818;stroke-width:0.5;"/><path d="M443.5,547 L443.5,557 L453.5,557 L443.5,547 " fill="#FEFFDD" style="stroke:#181818;stroke-width:0.5;"/><text fill="#000000" font-family="sans-serif" font-size="13" lengthAdjust="spacing" textLength="104" x="334.5" y="565.897">eliminarRecurso()</text></g><!--link abrirRecursos to SISTEMA_DISPONIBLE--><g id="link_abrirRecursos_SISTEMA_DISPONIBLE"><path d="M422.22,482.65 C448.11,517.35 466.5,542 466.5,542 C466.5,542 491.7369,576.8033 511.2869,603.7533 " fill="none" id="abrirRecursos-to-SISTEMA_DISPONIBLE" style="stroke:#008000;stroke-width:1.0;"/><polygon fill="#008000" points="514.81,608.61,512.7631,598.9762,511.8741,604.5628,506.2875,603.6737,514.81,608.61" style="stroke:#008000;stroke-width:1.0;"/><path d="M496.5,547 L496.5,574 L632.5,574 L632.5,557 L622.5,547 L496.5,547 " fill="#FEFFDD" style="stroke:#181818;stroke-width:0.5;"/><path d="M622.5,547 L622.5,557 L632.5,557 L622.5,547 " fill="#FEFFDD" style="stroke:#181818;stroke-width:0.5;"/><text fill="#000000" font-family="sans-serif" font-size="13" lengthAdjust="spacing" textLength="115" x="502.5" y="565.897">completarGestion()</text></g><!--SRC=[dLDHQi904FtVKopsHulI2uYWDIq1hPBOBocoIQPbSRCRTcD1Ig5dwHLwXDwa9-baep69630RICZEcpTltyoQBPS9qoocWaj8zmdGH8bzzaE8ILaAb0MQQm_2dJRAK6PefxBJxNNe1o4KLuxlu8EekJAfPZ9ICuxxv_47Bifn2rZVlj31-kPD0yYNmQZ6GIr6AkHGCjExjHl3O3IEOYvvXesK7ju58sgKu2777AkLweDOcm0oobbmaU9LgrMMKPDwIOMFKOYPhPzeC22HHrYs2AeI_hw-gJlj8qqSQEXZt8IQ9o7__P4PE6GHEsOK2KlGCSUonxDf-cg5wRn80oxKm0eJgDp1UnCh28vsdXAQe97zb857Tq_ELkrhusn3VyyjQEv4Ze_OzLfnEDi8t4dRVe4Zhx31Ia9r2iad8TKhLYxgEVVFdh_OZ2UkuwqMf58yT_-Gr-sHWh8jePsJLdp-1OM7KRgEqtVzbJCVRwQklrmykPEPKvEfuaG07lqHJ8gEbcd_0G00]--></g></svg>