<?xml version="1.0" encoding="us-ascii" standalone="no"?><svg xmlns="http://www.w3.org/2000/svg" xmlns:xlink="http://www.w3.org/1999/xlink" contentStyleType="text/css" height="245px" preserveAspectRatio="none" style="width:352px;height:245px;background:#FFFFFF;" version="1.1" viewBox="0 0 352 245" width="352px" zoomAndPan="magnify"><defs/><g><text fill="#000000" font-family="sans-serif" font-size="12" font-weight="bold" lengthAdjust="spacing" textLength="141" x="6" y="18.8281">GESTI&#211;N DE RECURSOS</text><line style="stroke:#AAAAAA;stroke-width:1.0;" x1="6" x2="345" y1="26.8441" y2="26.8441"/><line style="stroke:#AAAAAA;stroke-width:1.0;" x1="6" x2="345" y1="28.8441" y2="28.8441"/><text fill="#000000" font-family="sans-serif" font-size="12" lengthAdjust="spacing" textLength="13" x="7" y="46.1722">ID</text><text fill="#000000" font-family="sans-serif" font-size="12" lengthAdjust="spacing" textLength="51" x="30" y="46.1722">NOMBRE</text><text fill="#000000" font-family="sans-serif" font-size="12" lengthAdjust="spacing" textLength="79" x="111" y="46.1722">DESCRIPCI&#211;N</text><text fill="#000000" font-family="sans-serif" font-size="12" lengthAdjust="spacing" textLength="46" x="286" y="46.1722">ACCI&#211;N</text><line style="stroke:#AAAAAA;stroke-width:1.0;" x1="7" x2="29" y1="55.1882" y2="55.1882"/><line style="stroke:#AAAAAA;stroke-width:1.0;" x1="30" x2="110" y1="55.1882" y2="55.1882"/><line style="stroke:#AAAAAA;stroke-width:1.0;" x1="111" x2="285" y1="55.1882" y2="55.1882"/><line style="stroke:#AAAAAA;stroke-width:1.0;" x1="286" x2="344" y1="55.1882" y2="55.1882"/><text fill="#000000" font-family="sans-serif" font-size="12" lengthAdjust="spacing" textLength="21" x="7" y="72.5163">001</text><text fill="#000000" font-family="sans-serif" font-size="12" lengthAdjust="spacing" textLength="54" x="30" y="72.5163">Proyector</text><text fill="#000000" font-family="sans-serif" font-size="12" lengthAdjust="spacing" textLength="173" x="111" y="72.5163">Proyector multimedia est&#225;ndar</text><rect fill="#EEEEEE" height="20.3441" rx="5" ry="5" style="stroke:#000000;stroke-width:2.5;" width="52" x="288.5" y="62.1882"/><text fill="#000000" font-family="sans-serif" font-size="12" lengthAdjust="spacing" textLength="33" x="298" y="77.0163">Editar</text><text fill="#000000" font-family="sans-serif" font-size="12" lengthAdjust="spacing" textLength="21" x="7" y="99.8604">002</text><text fill="#000000" font-family="sans-serif" font-size="12" lengthAdjust="spacing" textLength="77" x="30" y="99.8604">Computadora</text><text fill="#000000" font-family="sans-serif" font-size="12" lengthAdjust="spacing" textLength="150" x="111" y="99.8604">PC de escritorio para aulas</text><rect fill="#EEEEEE" height="20.3441" rx="5" ry="5" style="stroke:#000000;stroke-width:2.5;" width="52" x="288.5" y="89.5323"/><text fill="#000000" font-family="sans-serif" font-size="12" lengthAdjust="spacing" textLength="33" x="298" y="104.3604">Editar</text><text fill="#000000" font-family="sans-serif" font-size="12" lengthAdjust="spacing" textLength="21" x="7" y="127.2045">003</text><text fill="#000000" font-family="sans-serif" font-size="12" lengthAdjust="spacing" textLength="79" x="30" y="127.2045">Pizarra Digital</text><text fill="#000000" font-family="sans-serif" font-size="12" lengthAdjust="spacing" textLength="102" x="111" y="127.2045">Pizarra interactiva</text><rect fill="#EEEEEE" height="20.3441" rx="5" ry="5" style="stroke:#000000;stroke-width:2.5;" width="52" x="288.5" y="116.8765"/><text fill="#000000" font-family="sans-serif" font-size="12" lengthAdjust="spacing" textLength="33" x="298" y="131.7045">Editar</text><text fill="#000000" font-family="sans-serif" font-size="12" lengthAdjust="spacing" textLength="21" x="7" y="154.5487">004</text><text fill="#000000" font-family="sans-serif" font-size="12" lengthAdjust="spacing" textLength="65" x="30" y="154.5487">Laboratorio</text><text fill="#000000" font-family="sans-serif" font-size="12" lengthAdjust="spacing" textLength="156" x="111" y="154.5487">Equipamiento especializado</text><rect fill="#EEEEEE" height="20.3441" rx="5" ry="5" style="stroke:#000000;stroke-width:2.5;" width="52" x="288.5" y="144.2206"/><text fill="#000000" font-family="sans-serif" font-size="12" lengthAdjust="spacing" textLength="33" x="298" y="159.0487">Editar</text><line style="stroke:#000000;stroke-width:1.0;" x1="6" x2="29" y1="32.3441" y2="32.3441"/><line style="stroke:#000000;stroke-width:1.0;" x1="29" x2="110" y1="32.3441" y2="32.3441"/><line style="stroke:#000000;stroke-width:1.0;" x1="110" x2="285" y1="32.3441" y2="32.3441"/><line style="stroke:#000000;stroke-width:1.0;" x1="285" x2="344" y1="32.3441" y2="32.3441"/><line style="stroke:#000000;stroke-width:1.0;" x1="6" x2="29" y1="168.0647" y2="168.0647"/><line style="stroke:#000000;stroke-width:1.0;" x1="29" x2="110" y1="168.0647" y2="168.0647"/><line style="stroke:#000000;stroke-width:1.0;" x1="110" x2="285" y1="168.0647" y2="168.0647"/><line style="stroke:#000000;stroke-width:1.0;" x1="285" x2="344" y1="168.0647" y2="168.0647"/><line style="stroke:#000000;stroke-width:1.0;" x1="6" x2="6" y1="32.3441" y2="50.6882"/><line style="stroke:#000000;stroke-width:1.0;" x1="344" x2="344" y1="113.3765" y2="140.7206"/><line style="stroke:#000000;stroke-width:1.0;" x1="344" x2="344" y1="86.0323" y2="113.3765"/><line style="stroke:#000000;stroke-width:1.0;" x1="344" x2="344" y1="58.6882" y2="86.0323"/><line style="stroke:#000000;stroke-width:1.0;" x1="344" x2="344" y1="50.6882" y2="58.6882"/><line style="stroke:#000000;stroke-width:1.0;" x1="344" x2="344" y1="32.3441" y2="50.6882"/><line style="stroke:#000000;stroke-width:1.0;" x1="6" x2="6" y1="140.7206" y2="168.0647"/><line style="stroke:#000000;stroke-width:1.0;" x1="6" x2="6" y1="113.3765" y2="140.7206"/><line style="stroke:#000000;stroke-width:1.0;" x1="6" x2="6" y1="86.0323" y2="113.3765"/><line style="stroke:#000000;stroke-width:1.0;" x1="6" x2="6" y1="58.6882" y2="86.0323"/><line style="stroke:#000000;stroke-width:1.0;" x1="6" x2="6" y1="50.6882" y2="58.6882"/><line style="stroke:#000000;stroke-width:1.0;" x1="344" x2="344" y1="140.7206" y2="168.0647"/><line style="stroke:#AAAAAA;stroke-width:1.5;" x1="6" x2="345" y1="173.5647" y2="173.5647"/><text fill="#000000" font-family="sans-serif" font-size="12" font-weight="bold" lengthAdjust="spacing" textLength="51" x="7" y="191.8928">BUSCAR:</text><text fill="#000000" font-family="sans-serif" font-size="12" lengthAdjust="spacing" textLength="125" x="61" y="191.8928">[                                       ]</text><rect fill="#EEEEEE" height="20.3441" rx="5" ry="5" style="stroke:#000000;stroke-width:2.5;" width="60" x="190.5" y="181.5647"/><text fill="#000000" font-family="sans-serif" font-size="12" lengthAdjust="spacing" textLength="33" x="204" y="196.3928">Filtrar</text><line style="stroke:#AAAAAA;stroke-width:1.5;" x1="6" x2="345" y1="210.9088" y2="210.9088"/><rect fill="#EEEEEE" height="20.3441" rx="5" ry="5" style="stroke:#000000;stroke-width:2.5;" width="92" x="9.5" y="218.9088"/><text fill="#000000" font-family="sans-serif" font-size="12" lengthAdjust="spacing" textLength="69" x="21" y="233.7369">Crear nuevo</text><rect fill="#EEEEEE" height="20.3441" rx="5" ry="5" style="stroke:#000000;stroke-width:2.5;" width="156" x="108.5" y="218.9088"/><text fill="#000000" font-family="sans-serif" font-size="12" lengthAdjust="spacing" textLength="113" x="130" y="233.7369">Borrar seleccionado</text><rect fill="#EEEEEE" height="20.3441" rx="5" ry="5" style="stroke:#000000;stroke-width:2.5;" width="44" x="271.5" y="218.9088"/><text fill="#000000" font-family="sans-serif" font-size="12" lengthAdjust="spacing" textLength="25" x="281" y="233.7369">Salir</text><!--SRC=[ZL7RJjj047tVhvX7K1NgX51L5a4Gsq594nBP2IyH3sjxI4UoTzEz1D44Vg9Vq6_XnpfsXIWyrRAjsJFdd9cTkRHE6cTbvK3cXaoAXJTMsyu36RmtiaQn1t6UNrmdsNByyki6uWJI95gbsJmx_vnV08Z1O23sdm36CHpWPZuRfWa7SP95wNWHjQ83N4Lj900wdSFhowSWw79sOVGZ5awRTt7jAqSrbYG1hNlvhKhP4DP9ITprNQlkCH3fUkkTBBMHZJw24bbG668Jqh2LZ4jVIVjHVDhGwQSqJ8Xfmudg7uIKGoCBHplvKTXdO2fpBlYtn06I7vwsiYPKJdFnBHOaApOgzNlj4t_Fp_pRyr27goowIiDsZclul-UkyHjHvGmRlhcj8uCy7ULnfrlAKFCT35Yii2X8A-wanJDkgn4-2N69gcnMByIYaigjPbFOeR5CXkv9B-ZrJqwFbjyzZ327xXdqWh0VXC4PHCaIclInEBfUJ7SziDgR0g4awmpbth73iPX8dblgLRF24EPRL9Fusoi0YTgHqQhcUOd9xUoDyANV6PA330tt0hSp4UCzBy-nej0bgKq8g-MeyrLCfTfukM5lj2BIx6iUGqYoFm00]--></g></svg>