<?xml version="1.0" encoding="us-ascii" standalone="no"?><svg xmlns="http://www.w3.org/2000/svg" xmlns:xlink="http://www.w3.org/1999/xlink" contentStyleType="text/css" height="442px" preserveAspectRatio="none" style="width:1579px;height:442px;background:#FFFFFF;" version="1.1" viewBox="0 0 1579 442" width="1579px" zoomAndPan="magnify"><defs/><g><!--cluster abrirCursos--><g id="cluster_abrirCursos"><path d="M179,6.602 L270,6.602 A3.75,3.75 0 0 1 272.5,9.102 L279.5,31.6699 L691,31.6699 A2.5,2.5 0 0 1 693.5,34.1699 L693.5,433.102 A2.5,2.5 0 0 1 691,435.602 L179,435.602 A2.5,2.5 0 0 1 176.5,433.102 L176.5,9.102 A2.5,2.5 0 0 1 179,6.602 " fill="none" style="stroke:#000000;stroke-width:1.5;"/><line style="stroke:#000000;stroke-width:1.5;" x1="176.5" x2="279.5" y1="31.6699" y2="31.6699"/><text fill="#000000" font-family="sans-serif" font-size="14" font-weight="bold" lengthAdjust="spacing" textLength="90" x="180.5" y="23.5679">abrirCursos()</text></g><!--entity AbrirCursosView--><g id="elem_AbrirCursosView"><rect fill="#629EF9" height="39.0679" rx="2.5" ry="2.5" style="stroke:#181818;stroke-width:0.5;" width="131" x="546" y="44.602"/><text fill="#000000" font-family="sans-serif" font-size="14" lengthAdjust="spacing" textLength="111" x="556" y="69.5679">AbrirCursosView</text></g><!--entity CursosController--><g id="elem_CursosController"><rect fill="#B5BD68" height="39.0679" rx="2.5" ry="2.5" style="stroke:#181818;stroke-width:0.5;" width="133" x="291" y="162.602"/><text fill="#000000" font-family="sans-serif" font-size="14" lengthAdjust="spacing" textLength="113" x="301" y="187.5679">CursosController</text></g><!--entity CursoRepository--><g id="elem_CursoRepository"><rect fill="#F2AC4E" height="39.0679" rx="2.5" ry="2.5" style="stroke:#181818;stroke-width:0.5;" width="130" x="284.5" y="280.602"/><text fill="#000000" font-family="sans-serif" font-size="14" lengthAdjust="spacing" textLength="110" x="294.5" y="305.5679">CursoRepository</text></g><!--entity Curso--><g id="elem_Curso"><rect fill="#F2AC4E" height="39.0679" rx="2.5" ry="2.5" style="stroke:#181818;stroke-width:0.5;" width="59" x="320" y="380.602"/><text fill="#000000" font-family="sans-serif" font-size="14" lengthAdjust="spacing" textLength="39" x="330" y="405.5679">Curso</text></g><!--entity SistemaDisponible--><g id="elem_SistemaDisponible"><rect fill="#CDEBA5" height="39.0679" rx="2.5" ry="2.5" style="stroke:#181818;stroke-width:0.5;" width="153" x="7" y="44.602"/><text fill="#000000" font-family="sans-serif" font-size="14" lengthAdjust="spacing" textLength="133" x="17" y="69.5679">:Sistema Disponible</text></g><!--entity SistemaDisponibleSalida--><g id="elem_SistemaDisponibleSalida"><rect fill="#CDEBA5" height="39.0679" rx="2.5" ry="2.5" style="stroke:#181818;stroke-width:0.5;" width="153" x="710" y="162.602"/><text fill="#000000" font-family="sans-serif" font-size="14" lengthAdjust="spacing" textLength="133" x="720" y="187.5679">:Sistema Disponible</text></g><!--entity CrearCurso--><g id="elem_CrearCurso"><rect fill="#CDEBA5" height="39.0679" rx="2.5" ry="2.5" style="stroke:#181818;stroke-width:0.5;" width="194" x="898.5" y="162.602"/><text fill="#000000" font-family="sans-serif" font-size="14" lengthAdjust="spacing" textLength="174" x="908.5" y="187.5679">:Collaboration CrearCurso</text></g><!--entity EditarCurso--><g id="elem_EditarCurso"><rect fill="#CDEBA5" height="39.0679" rx="2.5" ry="2.5" style="stroke:#181818;stroke-width:0.5;" width="197" x="1128" y="162.602"/><text fill="#000000" font-family="sans-serif" font-size="14" lengthAdjust="spacing" textLength="177" x="1138" y="187.5679">:Collaboration EditarCurso</text></g><!--entity EliminarCurso--><g id="elem_EliminarCurso"><rect fill="#CDEBA5" height="39.0679" rx="2.5" ry="2.5" style="stroke:#181818;stroke-width:0.5;" width="213" x="1360" y="162.602"/><text fill="#000000" font-family="sans-serif" font-size="14" lengthAdjust="spacing" textLength="193" x="1370" y="187.5679">:Collaboration EliminarCurso</text></g><!--link SistemaDisponible to AbrirCursosView--><g id="link_SistemaDisponible_AbrirCursosView"><path d="M160.28,64.102 C264.24,64.102 442.02,64.102 539.88,64.102 " fill="none" id="SistemaDisponible-to-AbrirCursosView" style="stroke:#181818;stroke-width:1.0;"/><polygon fill="#181818" points="545.88,64.102,536.88,60.102,540.88,64.102,536.88,68.102,545.88,64.102" style="stroke:#181818;stroke-width:1.0;"/><text fill="#000000" font-family="sans-serif" font-size="13" lengthAdjust="spacing" textLength="77" x="314.5" y="56.999">abrirCursos()</text></g><!--link AbrirCursosView to CursosController--><g id="link_AbrirCursosView_CursosController"><path d="M545.94,74.452 C447.14,88.542 271.5,113.602 271.5,113.602 C271.5,113.602 271.5,132.602 271.5,132.602 C271.5,132.602 295.0137,145.8649 319.2737,159.5449 " fill="none" id="AbrirCursosView-to-CursosController" style="stroke:#181818;stroke-width:1.0;"/><polygon fill="#181818" points="324.5,162.492,318.6252,154.5871,320.1447,160.0361,314.6958,161.5556,324.5,162.492" style="stroke:#181818;stroke-width:1.0;"/><text fill="#000000" font-family="sans-serif" font-size="13" lengthAdjust="spacing" textLength="157" x="272.5" y="128.499">listarCursos() : List&lt;Curso&gt;</text></g><!--link AbrirCursosView to CursosController--><g id="link_AbrirCursosView_CursosController"><path d="M558.54,83.712 C519.62,97.392 473.5,113.602 473.5,113.602 C473.5,113.602 429.0261,139.4846 394.6861,159.4646 " fill="none" id="AbrirCursosView-to-CursosController-1" style="stroke:#181818;stroke-width:1.0;"/><polygon fill="#181818" points="389.5,162.482,399.2907,161.4133,393.8217,159.9675,395.2675,154.4985,389.5,162.482" style="stroke:#181818;stroke-width:1.0;"/><text fill="#000000" font-family="sans-serif" font-size="13" lengthAdjust="spacing" textLength="202" x="474.5" y="128.499">filtrarCursos(criterio) : List&lt;Curso&gt;</text></g><!--link CursosController to CursoRepository--><g id="link_CursosController_CursoRepository"><path d="M306.46,201.712 C268.95,215.392 224.5,231.602 224.5,231.602 C224.5,231.602 224.5,250.602 224.5,250.602 C224.5,250.602 260.6865,264.6412 295.9365,278.3212 " fill="none" id="CursosController-to-CursoRepository" style="stroke:#181818;stroke-width:1.0;"/><polygon fill="#181818" points="301.53,280.492,294.5869,273.5068,296.8687,278.683,291.6925,280.9649,301.53,280.492" style="stroke:#181818;stroke-width:1.0;"/><text fill="#000000" font-family="sans-serif" font-size="13" lengthAdjust="spacing" textLength="172" x="225.5" y="246.499">obtenerTodos() : List&lt;Curso&gt;</text></g><!--link CursosController to CursoRepository--><g id="link_CursosController_CursoRepository"><path d="M374.77,201.712 C387.46,215.392 402.5,231.602 402.5,231.602 C402.5,231.602 402.5,250.602 402.5,250.602 C402.5,250.602 389.2165,262.7615 374.2665,276.4415 " fill="none" id="CursosController-to-CursoRepository-1" style="stroke:#181818;stroke-width:1.0;"/><polygon fill="#181818" points="369.84,280.492,379.18,277.3673,373.5287,277.1166,373.7794,271.4653,369.84,280.492" style="stroke:#181818;stroke-width:1.0;"/><text fill="#000000" font-family="sans-serif" font-size="13" lengthAdjust="spacing" textLength="234" x="403.5" y="246.499">buscarPorCriterio(criterio) : List&lt;Curso&gt;</text></g><!--link CursoRepository to Curso--><g id="link_CursoRepository_Curso"><path d="M349.5,320.002 C349.5,337.462 349.5,363.262 349.5,380.592 " fill="none" id="CursoRepository-Curso" style="stroke:#181818;stroke-width:1.0;"/></g><!--link AbrirCursosView to SistemaDisponibleSalida--><g id="link_AbrirCursosView_SistemaDisponibleSalida"><path d="M639.9,83.712 C660.77,97.392 685.5,113.602 685.5,113.602 C685.5,113.602 723.7518,139.1676 753.6418,159.1476 " fill="none" id="AbrirCursosView-to-SistemaDisponibleSalida" style="stroke:#181818;stroke-width:1.0;stroke-dasharray:7.0,7.0;"/><polygon fill="#181818" points="758.63,162.482,753.3706,154.155,754.4732,159.7033,748.9248,160.8059,758.63,162.482" style="stroke:#181818;stroke-width:1.0;"/><text fill="#000000" font-family="sans-serif" font-size="13" lengthAdjust="spacing" textLength="115" x="713.5" y="128.499">completarGestion()</text></g><!--link AbrirCursosView to CrearCurso--><g id="link_AbrirCursosView_CrearCurso"><path d="M677.17,79.192 C743.9,93.512 837.5,113.602 837.5,113.602 C837.5,113.602 899.6224,140.1449 946.3924,160.1249 " fill="none" id="AbrirCursosView-to-CrearCurso" style="stroke:#181818;stroke-width:1.0;stroke-dasharray:7.0,7.0;"/><polygon fill="#181818" points="951.91,162.482,945.205,155.2679,947.312,160.5177,942.0622,162.6247,951.91,162.482" style="stroke:#181818;stroke-width:1.0;"/><text fill="#000000" font-family="sans-serif" font-size="13" lengthAdjust="spacing" textLength="73" x="880.5" y="128.499">crearCurso()</text></g><!--link AbrirCursosView to EditarCurso--><g id="link_AbrirCursosView_EditarCurso"><path d="M677.11,74.172 C778.7,88.202 962.5,113.602 962.5,113.602 C962.5,113.602 1070.0472,141.0951 1148.1972,161.0851 " fill="none" id="AbrirCursosView-to-EditarCurso" style="stroke:#181818;stroke-width:1.0;stroke-dasharray:7.0,7.0;"/><polygon fill="#181818" points="1154.01,162.572,1146.282,156.4664,1149.166,161.3329,1144.2995,164.2169,1154.01,162.572" style="stroke:#181818;stroke-width:1.0;"/><text fill="#000000" font-family="sans-serif" font-size="13" lengthAdjust="spacing" textLength="78" x="1033.5" y="128.499">editarCurso()</text></g><!--link AbrirCursosView to EliminarCurso--><g id="link_AbrirCursosView_EliminarCurso"><path d="M677,71.342 C814.47,84.442 1120.5,113.602 1120.5,113.602 C1120.5,113.602 1263.1811,141.4327 1365.6111,161.4227 " fill="none" id="AbrirCursosView-to-EliminarCurso" style="stroke:#181818;stroke-width:1.0;stroke-dasharray:7.0,7.0;"/><polygon fill="#181818" points="1371.5,162.572,1363.4328,156.9221,1366.5926,161.6143,1361.9005,164.774,1371.5,162.572" style="stroke:#181818;stroke-width:1.0;"/><text fill="#000000" font-family="sans-serif" font-size="13" lengthAdjust="spacing" textLength="91" x="1213.5" y="128.499">eliminarCurso()</text></g><!--SRC=[fLBBJiCm4BpxArRX0eVqKD6AHgXIILCk7115t9ragLPrx6Zj2bM8VyTzngGDgY2dp6PcFCwiNPAk9SiA56bqwngXDcgz0K8m5axgXKAuIgVPmsG0KJ8dwx2IC2LR6qsvmWYaXVsucOfQ5akvG90v4wShjiPkY560hsyY-1JWd-2aON-KpKOmQMXlX1zjLZx8o-4Tx0YfqOwDKiXjsgm_IM-p7Uq5QsF96Lx_nX9V_xltN2egvLcBr4UKkM7fo6X86UNkWbkZ1bwWpKfoeJZ0bwWLLQH_wCE942UNWfZZSRkI17vKAKJhEyIb5xKRIloYsKDOBuC4dlpWVel7GhJv41zCcluICBb3ZVngoawFXkujzjsUHZoRy9sKusF4WiaXa_bZr7nb2ydFXjEzJxTXErslD-vQi0GAKzKA_PzyHBkfrJTmJj_ibPSStpl8mHubW0teeeThumKXz99l]--></g></svg>