<?xml version="1.0" encoding="us-ascii" standalone="no"?><svg xmlns="http://www.w3.org/2000/svg" xmlns:xlink="http://www.w3.org/1999/xlink" contentStyleType="text/css" height="217px" preserveAspectRatio="none" style="width:596px;height:217px;background:#FFFFFF;" version="1.1" viewBox="0 0 596 217" width="596px" zoomAndPan="magnify"><defs/><g><text fill="#000000" font-family="sans-serif" font-size="12" font-weight="bold" lengthAdjust="spacing" textLength="238" x="6" y="18.8281">GESTI&#211;N DE PROGRAMAS ACAD&#201;MICOS</text><line style="stroke:#AAAAAA;stroke-width:1.0;" x1="6" x2="589" y1="26.8441" y2="26.8441"/><line style="stroke:#AAAAAA;stroke-width:1.0;" x1="6" x2="589" y1="28.8441" y2="28.8441"/><text fill="#000000" font-family="sans-serif" font-size="12" lengthAdjust="spacing" textLength="48" x="7" y="46.1722">CODIGO</text><text fill="#000000" font-family="sans-serif" font-size="12" lengthAdjust="spacing" textLength="51" x="57" y="46.1722">NOMBRE</text><text fill="#000000" font-family="sans-serif" font-size="12" lengthAdjust="spacing" textLength="79" x="266" y="46.1722">DESCRIPCION</text><text fill="#000000" font-family="sans-serif" font-size="12" lengthAdjust="spacing" textLength="46" x="530" y="46.1722">ACCI&#211;N</text><line style="stroke:#AAAAAA;stroke-width:1.0;" x1="7" x2="56" y1="55.1882" y2="55.1882"/><line style="stroke:#AAAAAA;stroke-width:1.0;" x1="57" x2="265" y1="55.1882" y2="55.1882"/><line style="stroke:#AAAAAA;stroke-width:1.0;" x1="266" x2="529" y1="55.1882" y2="55.1882"/><line style="stroke:#AAAAAA;stroke-width:1.0;" x1="530" x2="588" y1="55.1882" y2="55.1882"/><text fill="#000000" font-family="sans-serif" font-size="12" lengthAdjust="spacing" textLength="17" x="7" y="72.5163">GII</text><text fill="#000000" font-family="sans-serif" font-size="12" lengthAdjust="spacing" textLength="125" x="57" y="72.5163">Ingenier&#237;a Inform&#225;tica</text><text fill="#000000" font-family="sans-serif" font-size="12" lengthAdjust="spacing" textLength="180" x="266" y="72.5163">Grado en Ingenier&#237;a Inform&#225;tica</text><rect fill="#EEEEEE" height="20.3441" rx="5" ry="5" style="stroke:#000000;stroke-width:2.5;" width="52" x="532.5" y="62.1882"/><text fill="#000000" font-family="sans-serif" font-size="12" lengthAdjust="spacing" textLength="33" x="542" y="77.0163">Editar</text><text fill="#000000" font-family="sans-serif" font-size="12" lengthAdjust="spacing" textLength="26" x="7" y="99.8604">GIOI</text><text fill="#000000" font-family="sans-serif" font-size="12" lengthAdjust="spacing" textLength="207" x="57" y="99.8604">Ingenier&#237;a en Organizaci&#243;n Industrial</text><text fill="#000000" font-family="sans-serif" font-size="12" lengthAdjust="spacing" textLength="262" x="266" y="99.8604">Grado en Ingenier&#237;a en Organizaci&#243;n Industrial</text><rect fill="#EEEEEE" height="20.3441" rx="5" ry="5" style="stroke:#000000;stroke-width:2.5;" width="52" x="532.5" y="89.5323"/><text fill="#000000" font-family="sans-serif" font-size="12" lengthAdjust="spacing" textLength="33" x="542" y="104.3604">Editar</text><text fill="#000000" font-family="sans-serif" font-size="12" lengthAdjust="spacing" textLength="30" x="7" y="127.2045">GXYZ</text><text fill="#000000" font-family="sans-serif" font-size="12" lengthAdjust="spacing" textLength="125" x="57" y="127.2045">Nombre del programa</text><text fill="#000000" font-family="sans-serif" font-size="12" lengthAdjust="spacing" textLength="145" x="266" y="127.2045">Descripci&#243;n del programa</text><rect fill="#EEEEEE" height="20.3441" rx="5" ry="5" style="stroke:#000000;stroke-width:2.5;" width="52" x="532.5" y="116.8765"/><text fill="#000000" font-family="sans-serif" font-size="12" lengthAdjust="spacing" textLength="33" x="542" y="131.7045">Editar</text><line style="stroke:#000000;stroke-width:1.0;" x1="6" x2="56" y1="32.3441" y2="32.3441"/><line style="stroke:#000000;stroke-width:1.0;" x1="56" x2="265" y1="32.3441" y2="32.3441"/><line style="stroke:#000000;stroke-width:1.0;" x1="265" x2="529" y1="32.3441" y2="32.3441"/><line style="stroke:#000000;stroke-width:1.0;" x1="529" x2="588" y1="32.3441" y2="32.3441"/><line style="stroke:#000000;stroke-width:1.0;" x1="6" x2="56" y1="140.7206" y2="140.7206"/><line style="stroke:#000000;stroke-width:1.0;" x1="56" x2="265" y1="140.7206" y2="140.7206"/><line style="stroke:#000000;stroke-width:1.0;" x1="265" x2="529" y1="140.7206" y2="140.7206"/><line style="stroke:#000000;stroke-width:1.0;" x1="529" x2="588" y1="140.7206" y2="140.7206"/><line style="stroke:#000000;stroke-width:1.0;" x1="6" x2="6" y1="32.3441" y2="50.6882"/><line style="stroke:#000000;stroke-width:1.0;" x1="588" x2="588" y1="113.3765" y2="140.7206"/><line style="stroke:#000000;stroke-width:1.0;" x1="588" x2="588" y1="86.0323" y2="113.3765"/><line style="stroke:#000000;stroke-width:1.0;" x1="588" x2="588" y1="58.6882" y2="86.0323"/><line style="stroke:#000000;stroke-width:1.0;" x1="588" x2="588" y1="50.6882" y2="58.6882"/><line style="stroke:#000000;stroke-width:1.0;" x1="588" x2="588" y1="32.3441" y2="50.6882"/><line style="stroke:#000000;stroke-width:1.0;" x1="6" x2="6" y1="113.3765" y2="140.7206"/><line style="stroke:#000000;stroke-width:1.0;" x1="6" x2="6" y1="86.0323" y2="113.3765"/><line style="stroke:#000000;stroke-width:1.0;" x1="6" x2="6" y1="58.6882" y2="86.0323"/><line style="stroke:#000000;stroke-width:1.0;" x1="6" x2="6" y1="50.6882" y2="58.6882"/><line style="stroke:#AAAAAA;stroke-width:1.5;" x1="6" x2="589" y1="146.2206" y2="146.2206"/><text fill="#000000" font-family="sans-serif" font-size="12" font-weight="bold" lengthAdjust="spacing" textLength="51" x="7" y="164.5487">BUSCAR:</text><text fill="#000000" font-family="sans-serif" font-size="12" lengthAdjust="spacing" textLength="125" x="61" y="164.5487">[                                       ]</text><rect fill="#EEEEEE" height="20.3441" rx="5" ry="5" style="stroke:#000000;stroke-width:2.5;" width="60" x="190.5" y="154.2206"/><text fill="#000000" font-family="sans-serif" font-size="12" lengthAdjust="spacing" textLength="33" x="204" y="169.0487">Filtrar</text><line style="stroke:#AAAAAA;stroke-width:1.5;" x1="6" x2="589" y1="183.5647" y2="183.5647"/><rect fill="#EEEEEE" height="20.3441" rx="5" ry="5" style="stroke:#000000;stroke-width:2.5;" width="92" x="9.5" y="191.5647"/><text fill="#000000" font-family="sans-serif" font-size="12" lengthAdjust="spacing" textLength="69" x="21" y="206.3928">Crear nuevo</text><rect fill="#EEEEEE" height="20.3441" rx="5" ry="5" style="stroke:#000000;stroke-width:2.5;" width="156" x="108.5" y="191.5647"/><text fill="#000000" font-family="sans-serif" font-size="12" lengthAdjust="spacing" textLength="113" x="130" y="206.3928">Borrar seleccionado</text><rect fill="#EEEEEE" height="20.3441" rx="5" ry="5" style="stroke:#000000;stroke-width:2.5;" width="44" x="271.5" y="191.5647"/><text fill="#000000" font-family="sans-serif" font-size="12" lengthAdjust="spacing" textLength="25" x="281" y="206.3928">Salir</text><!--SRC=[ZPBHRjCm58Rl_HJdSXFgw4g7KBHEIvqqIccQAcadeDg5axZ1KcfN9qudwBPxhda27e0h7g4lnabXsZI9YSYnZdt-yzddbozhAz3Meh8WCbGuGrEYM8kwSwDGhYYKR0ViFBi8_7GUxhzFmVDXbiH1uaPk2YvtlVstAEHnUluwkm1WWy60xLu1yDWBWnXkOHf7myIdmFDJdeGp7iPJMhcSjpW6qEdSFWnQ1M58sL2NKYk9-v-2ufN1zVw7LRcWL82YC23rIvgbNoXgxFh0Yvy3gJR6KcZrLUHg_wib5KrjKOdgN_oNIvuUz-7ZfxPfiyvGGY4hsForj7L0rZcgpH_2izmJnXtzz_SqxSZtuIBbRk8St5t2_ttNBM-aAei4VAGjEKg1e1kvDGV9q20fe9QLp7DbD3L-s4z5fTh2EyOkfIxQvy7Oh1BQBg89R2NM98RJarwtrpzvSpJ_tC18Pd1w1hskq-ywtJFW_XpQz34x2cQJRGzgqs1EZgZMjQonH3XcOx4La3JQghLq8Dv8FVRUFso0hxSAZLvBRTduAdeKlErtXif2Af7k0bSHy-HADFI6VPsRGkdIWSLyr7d79aANZIY9BMl63N7nYmD- -Xi0]--></g></svg>