<?xml version="1.0" encoding="us-ascii" standalone="no"?><svg xmlns="http://www.w3.org/2000/svg" xmlns:xlink="http://www.w3.org/1999/xlink" contentStyleType="text/css" height="678px" preserveAspectRatio="none" style="width:425px;height:678px;background:#FFFFFF;" version="1.1" viewBox="0 0 425 678" width="425px" zoomAndPan="magnify"><defs/><g><path d="M19.5,7 L386.5,7 A12.5,12.5 0 0 1 399,19.5 L399,36.0679 L7,36.0679 L7,19.5 A12.5,12.5 0 0 1 19.5,7 " fill="#F1F1F1" style="stroke:#F1F1F1;stroke-width:1.0;"/><rect fill="none" height="518.0679" rx="12.5" ry="12.5" style="stroke:#181818;stroke-width:0.5;" width="392" x="7" y="7"/><line style="stroke:#181818;stroke-width:0.5;" x1="7" x2="399" y1="36.0679" y2="36.0679"/><text fill="#000000" font-family="sans-serif" font-size="14" lengthAdjust="spacing" textLength="73" x="166.5" y="26.9659">crearAula()</text><g id="crearAula.SolicitandoDatos"><rect fill="#F1F1F1" height="50" rx="12.5" ry="12.5" style="stroke:#181818;stroke-width:0.5;" width="50" x="19" y="140.0679"/><line style="stroke:#181818;stroke-width:0.5;" x1="19" x2="69" y1="169.1358" y2="169.1358"/><text fill="#000000" font-family="sans-serif" font-size="14" lengthAdjust="spacing" textLength="4" x="42" y="160.0339">&#160;</text></g><g id="crearAula.CreandoAula"><rect fill="#F1F1F1" height="50" rx="12.5" ry="12.5" style="stroke:#181818;stroke-width:0.5;" width="50" x="19" y="352.0679"/><line style="stroke:#181818;stroke-width:0.5;" x1="19" x2="69" y1="381.1358" y2="381.1358"/><text fill="#000000" font-family="sans-serif" font-size="14" lengthAdjust="spacing" textLength="4" x="42" y="372.0339">&#160;</text></g><ellipse cx="44" cy="57.0679" fill="#222222" rx="10" ry="10" style="stroke:#222222;stroke-width:1.0;"/><ellipse cx="44" cy="504.0679" fill="none" rx="11" ry="11" style="stroke:#222222;stroke-width:1.0;"/><ellipse cx="44" cy="504.0679" fill="#222222" rx="6" ry="6" style="stroke:#222222;stroke-width:1.0;"/><!--link *start*crearAula to SolicitandoDatos--><g id="link_*start*crearAula_SolicitandoDatos"><path d="M44,67.1079 C44,83.0279 44,110.5779 44,133.7079 " fill="none" id="*start*crearAula-to-SolicitandoDatos" style="stroke:#008000;stroke-width:1.0;"/><polygon fill="#008000" points="44,139.7079,48,130.7079,44,134.7079,40,130.7079,44,139.7079" style="stroke:#008000;stroke-width:1.0;"/><path d="M49,90.0679 L49,117.0679 L310,117.0679 L310,100.0679 L300,90.0679 L49,90.0679 " fill="#FEFFDD" style="stroke:#181818;stroke-width:0.5;"/><path d="M300,90.0679 L300,100.0679 L310,100.0679 L300,90.0679 " fill="#FEFFDD" style="stroke:#181818;stroke-width:0.5;"/><text fill="#000000" font-family="sans-serif" font-size="13" font-weight="bold" lengthAdjust="spacing" textLength="95" x="55" y="108.9649">Administrador</text><text fill="#000000" font-family="sans-serif" font-size="13" lengthAdjust="spacing" textLength="142" x="153" y="108.9649">solicita crear aula nueva</text></g><!--link SolicitandoDatos to CreandoAula--><g id="link_SolicitandoDatos_CreandoAula"><path d="M44,190.1579 C44,230.5579 44,305.5079 44,345.9379 " fill="none" id="SolicitandoDatos-to-CreandoAula" style="stroke:#008000;stroke-width:1.0;"/><polygon fill="#008000" points="44,351.9379,48,342.9379,44,346.9379,40,342.9379,44,351.9379" style="stroke:#008000;stroke-width:1.0;"/><path d="M49,213.0679 L49,329.0679 L390,329.0679 L390,223.0679 L380,213.0679 L49,213.0679 " fill="#FEFFDD" style="stroke:#181818;stroke-width:0.5;"/><path d="M380,213.0679 L380,223.0679 L390,223.0679 L380,213.0679 " fill="#FEFFDD" style="stroke:#181818;stroke-width:0.5;"/><text fill="#000000" font-family="sans-serif" font-size="13" font-weight="bold" lengthAdjust="spacing" textLength="52" x="55" y="231.9649">Sistema</text><text fill="#000000" font-family="sans-serif" font-size="13" lengthAdjust="spacing" textLength="265" x="110" y="231.9649">presenta solicitud de datos m&#237;nimos del aula</text><text fill="#000000" font-family="sans-serif" font-size="13" lengthAdjust="spacing" textLength="177" x="55" y="249.6709">&#8226; C&#243;digo del aula (obligatorio)</text><text fill="#000000" font-family="sans-serif" font-size="13" lengthAdjust="spacing" textLength="184" x="55" y="267.377">&#8226; Nombre del aula (obligatorio)</text><text fill="#000000" font-family="sans-serif" font-size="13" lengthAdjust="spacing" textLength="183" x="55" y="285.083">&#8226; Edificio asociado (obligatorio)</text><text fill="#000000" font-family="sans-serif" font-size="13" lengthAdjust="spacing" textLength="165" x="55" y="302.789">&#8226; Permite solicitar crear aula</text><text fill="#000000" font-family="sans-serif" font-size="13" lengthAdjust="spacing" textLength="209" x="55" y="320.495">&#8226; Permite solicitar cancelar creaci&#243;n</text></g><!--link CreandoAula to *end*crearAula--><g id="link_CreandoAula_*end*crearAula"><path d="M44,402.1679 C44,429.6979 44,467.4479 44,487.0279 " fill="none" id="CreandoAula-to-*end*crearAula" style="stroke:#008000;stroke-width:1.0;"/><polygon fill="#008000" points="44,493.0279,48,484.0279,44,488.0279,40,484.0279,44,493.0279" style="stroke:#008000;stroke-width:1.0;"/><path d="M49,425.0679 L49,470.0679 L334,470.0679 L334,435.0679 L324,425.0679 L49,425.0679 " fill="#FEFFDD" style="stroke:#181818;stroke-width:0.5;"/><path d="M324,425.0679 L324,435.0679 L334,435.0679 L324,425.0679 " fill="#FEFFDD" style="stroke:#181818;stroke-width:0.5;"/><text fill="#000000" font-family="sans-serif" font-size="13" font-weight="bold" lengthAdjust="spacing" textLength="95" x="55" y="443.9649">Administrador</text><text fill="#000000" font-family="sans-serif" font-size="13" lengthAdjust="spacing" textLength="166" x="153" y="443.9649">proporciona datos m&#237;nimos</text><text fill="#000000" font-family="sans-serif" font-size="13" font-weight="bold" lengthAdjust="spacing" textLength="52" x="55" y="461.6709">Sistema</text><text fill="#000000" font-family="sans-serif" font-size="13" lengthAdjust="spacing" textLength="179" x="110" y="461.6709">crea aula y transfiere a edici&#243;n</text></g><g id="AULA_ABIERTA"><rect fill="#F1F1F1" height="50" rx="12.5" ry="12.5" style="stroke:#181818;stroke-width:0.5;" width="118" x="42" y="622"/><line style="stroke:#181818;stroke-width:0.5;" x1="42" x2="160" y1="651.0679" y2="651.0679"/><text fill="#000000" font-family="sans-serif" font-size="14" lengthAdjust="spacing" textLength="98" x="52" y="641.9659">AULA_ABIERTA</text></g><g id="AULAS_ABIERTO"><rect fill="#F1F1F1" height="50" rx="12.5" ry="12.5" style="stroke:#181818;stroke-width:0.5;" width="128" x="241" y="622"/><line style="stroke:#181818;stroke-width:0.5;" x1="241" x2="369" y1="651.0679" y2="651.0679"/><text fill="#000000" font-family="sans-serif" font-size="14" lengthAdjust="spacing" textLength="108" x="251" y="641.9659">AULAS_ABIERTO</text></g><!--link crearAula to AULA_ABIERTA--><g id="link_crearAula_AULA_ABIERTA"><path d="M108.84,525.26 C102.17,543.57 98,555 98,555 C98,555 98,592 98,592 C98,592 98.5265,601.4793 99.3265,615.8493 " fill="none" id="crearAula-to-AULA_ABIERTA" style="stroke:#008000;stroke-width:1.0;"/><polygon fill="#008000" points="99.66,621.84,103.1535,612.6316,99.3821,616.8477,95.1659,613.0763,99.66,621.84" style="stroke:#008000;stroke-width:1.0;"/><path d="M103,560 L103,587 L257,587 L257,570 L247,560 L103,560 " fill="#FEFFDD" style="stroke:#181818;stroke-width:0.5;"/><path d="M247,560 L247,570 L257,570 L247,560 " fill="#FEFFDD" style="stroke:#181818;stroke-width:0.5;"/><text fill="#000000" font-family="sans-serif" font-size="13" lengthAdjust="spacing" textLength="133" x="109" y="578.897">editarAula(aulaNueva)</text></g><!--link crearAula to AULAS_ABIERTO--><g id="link_crearAula_AULAS_ABIERTO"><path d="M272.45,525.04 C283.1,564.62 290.9504,593.7962 296.8804,615.8262 " fill="none" id="crearAula-to-AULAS_ABIERTO" style="stroke:#0000FF;stroke-width:1.0;"/><polygon fill="#0000FF" points="298.44,621.62,299.9632,611.8896,297.1404,616.7919,292.2381,613.969,298.44,621.62" style="stroke:#0000FF;stroke-width:1.0;"/><path d="M295,560 L295,587 L418,587 L418,570 L408,560 L295,560 " fill="#FEFFDD" style="stroke:#181818;stroke-width:0.5;"/><path d="M408,560 L408,570 L418,570 L408,560 " fill="#FEFFDD" style="stroke:#181818;stroke-width:0.5;"/><text fill="#000000" font-family="sans-serif" font-size="13" lengthAdjust="spacing" textLength="102" x="301" y="578.897">cancelar creaci&#243;n</text></g><!--SRC=[bPFVIiCm5CRlynI7URC9mnSOWpft8SWKfrTZIDgSZSFIf2IjC4JmMRptQe-mD_59FFsphjqVnHHAqtpdbozV4hyYaqWdOz1aC5qd28dLwxmZX4zbYX0vb2x8j0JfeLFtkhqEl0a1t4fTXnzMJAscY59fbBsHgVN7YX4ZU3I7bFMpopdqPnTBXsZc_U4H0WgLiOom9ZUwAduCmc6WOZBaKoULTOEhS0Y-gYrjWynzcmnVPL62HfKSRg9-7StNDDDqUyx6b2rWB0i3YKEFXWrKJZ852a4Lt7ZxPIZc3uMwi5O0lZy-ORJTA5hQUW2wDjIqv2f7jbVB9ZOE7Vwb6YjQyDIMmxOHSJHdT0_eOkBLx39pZT1-4qaJeQxK4MqtffNjFjT6TAr8UR__iQE9iubrl1mZ3s8y5N_kgSnc3GmnVa78YKb0HIUylWknFzzDZy7pNV0IND-E7vy2qJBAeBIw0laya_nmzKHDRFD2dU4EDwruzstUYJXhs0y0]--></g></svg>