<?xml version="1.0" encoding="us-ascii" standalone="no"?><svg xmlns="http://www.w3.org/2000/svg" xmlns:xlink="http://www.w3.org/1999/xlink" contentStyleType="text/css" height="442px" preserveAspectRatio="none" style="width:1430px;height:442px;background:#FFFFFF;" version="1.1" viewBox="0 0 1430 442" width="1430px" zoomAndPan="magnify"><defs/><g><!--cluster configurarPreferenciasProfesor--><g id="cluster_configurarPreferenciasProfesor"><path d="M159,6.602 L386,6.602 A3.75,3.75 0 0 1 388.5,9.102 L395.5,31.6699 L1192,31.6699 A2.5,2.5 0 0 1 1194.5,34.1699 L1194.5,433.102 A2.5,2.5 0 0 1 1192,435.602 L159,435.602 A2.5,2.5 0 0 1 156.5,433.102 L156.5,9.102 A2.5,2.5 0 0 1 159,6.602 " fill="none" style="stroke:#000000;stroke-width:1.5;"/><line style="stroke:#000000;stroke-width:1.5;" x1="156.5" x2="395.5" y1="31.6699" y2="31.6699"/><text fill="#000000" font-family="sans-serif" font-size="14" font-weight="bold" lengthAdjust="spacing" textLength="226" x="160.5" y="23.5679">configurarPreferenciasProfesor()</text></g><!--entity ConfigurarPreferenciasProfesorView--><g id="elem_ConfigurarPreferenciasProfesorView"><rect fill="#629EF9" height="39.0679" rx="2.5" ry="2.5" style="stroke:#181818;stroke-width:0.5;" width="264" x="492.5" y="44.602"/><text fill="#000000" font-family="sans-serif" font-size="14" lengthAdjust="spacing" textLength="244" x="502.5" y="69.5679">ConfigurarPreferenciasProfesorView</text></g><!--entity PreferenciasProfesorController--><g id="elem_PreferenciasProfesorController"><rect fill="#B5BD68" height="39.0679" rx="2.5" ry="2.5" style="stroke:#181818;stroke-width:0.5;" width="227" x="412" y="162.602"/><text fill="#000000" font-family="sans-serif" font-size="14" lengthAdjust="spacing" textLength="207" x="422" y="187.5679">PreferenciasProfesorController</text></g><!--entity ProfesorRepository--><g id="elem_ProfesorRepository"><rect fill="#F2AC4E" height="39.0679" rx="2.5" ry="2.5" style="stroke:#181818;stroke-width:0.5;" width="147" x="334" y="280.602"/><text fill="#000000" font-family="sans-serif" font-size="14" lengthAdjust="spacing" textLength="127" x="344" y="305.5679">ProfesorRepository</text></g><!--entity RecursoRepository--><g id="elem_RecursoRepository"><rect fill="#F2AC4E" height="39.0679" rx="2.5" ry="2.5" style="stroke:#181818;stroke-width:0.5;" width="145" x="833" y="280.602"/><text fill="#000000" font-family="sans-serif" font-size="14" lengthAdjust="spacing" textLength="125" x="843" y="305.5679">RecursoRepository</text></g><!--entity Profesor--><g id="elem_Profesor"><rect fill="#F2AC4E" height="39.0679" rx="2.5" ry="2.5" style="stroke:#181818;stroke-width:0.5;" width="76" x="293.5" y="380.602"/><text fill="#000000" font-family="sans-serif" font-size="14" lengthAdjust="spacing" textLength="56" x="303.5" y="405.5679">Profesor</text></g><!--entity PreferenciasRecurso--><g id="elem_PreferenciasRecurso"><rect fill="#F2AC4E" height="39.0679" rx="2.5" ry="2.5" style="stroke:#181818;stroke-width:0.5;" width="158" x="404.5" y="380.602"/><text fill="#000000" font-family="sans-serif" font-size="14" lengthAdjust="spacing" textLength="138" x="414.5" y="405.5679">PreferenciasRecurso</text></g><!--entity Recurso--><g id="elem_Recurso"><rect fill="#F2AC4E" height="39.0679" rx="2.5" ry="2.5" style="stroke:#181818;stroke-width:0.5;" width="74" x="868.5" y="380.602"/><text fill="#000000" font-family="sans-serif" font-size="14" lengthAdjust="spacing" textLength="54" x="878.5" y="405.5679">Recurso</text></g><!--entity ProfesorAbierto--><g id="elem_ProfesorAbierto"><rect fill="#CDEBA5" height="39.0679" rx="2.5" ry="2.5" style="stroke:#181818;stroke-width:0.5;" width="133" x="7" y="44.602"/><text fill="#000000" font-family="sans-serif" font-size="14" lengthAdjust="spacing" textLength="113" x="17" y="69.5679">:Profesor Abierto</text></g><!--entity EditarProfesor--><g id="elem_EditarProfesor"><rect fill="#CDEBA5" height="39.0679" rx="2.5" ry="2.5" style="stroke:#181818;stroke-width:0.5;" width="214" x="1210.5" y="162.602"/><text fill="#000000" font-family="sans-serif" font-size="14" lengthAdjust="spacing" textLength="194" x="1220.5" y="187.5679">:Collaboration EditarProfesor</text></g><!--link ProfesorAbierto to ConfigurarPreferenciasProfesorView--><g id="link_ProfesorAbierto_ConfigurarPreferenciasProfesorView"><path d="M140.24,64.102 C227.2,64.102 375.22,64.102 486.25,64.102 " fill="none" id="ProfesorAbierto-to-ConfigurarPreferenciasProfesorView" style="stroke:#181818;stroke-width:1.0;"/><polygon fill="#181818" points="492.25,64.102,483.25,60.102,487.25,64.102,483.25,68.102,492.25,64.102" style="stroke:#181818;stroke-width:1.0;"/><text fill="#000000" font-family="sans-serif" font-size="13" lengthAdjust="spacing" textLength="257" x="187.75" y="56.999">configurarPreferenciasProfesor(profesorId)</text></g><!--link ConfigurarPreferenciasProfesorView to PreferenciasProfesorController--><g id="link_ConfigurarPreferenciasProfesorView_PreferenciasProfesorController"><path d="M540.77,83.642 C478.94,97.342 405.5,113.602 405.5,113.602 C405.5,113.602 405.5,132.602 405.5,132.602 C405.5,132.602 440.0473,146.5632 473.8873,160.2432 " fill="none" id="ConfigurarPreferenciasProfesorView-to-PreferenciasProfesorController" style="stroke:#181818;stroke-width:1.0;"/><polygon fill="#181818" points="479.45,162.492,472.6052,155.4104,474.8144,160.618,469.6069,162.8273,479.45,162.492" style="stroke:#181818;stroke-width:1.0;"/><text fill="#000000" font-family="sans-serif" font-size="13" lengthAdjust="spacing" textLength="233" x="406.5" y="128.499">cargarPreferenciasProfesor(profesorId)</text></g><!--link ConfigurarPreferenciasProfesorView to PreferenciasProfesorController--><g id="link_ConfigurarPreferenciasProfesorView_PreferenciasProfesorController"><path d="M632.18,83.712 C637.82,97.392 644.5,113.602 644.5,113.602 C644.5,113.602 644.5,132.602 644.5,132.602 C644.5,132.602 610.2861,146.5471 576.7261,160.2271 " fill="none" id="ConfigurarPreferenciasProfesorView-to-PreferenciasProfesorController-1" style="stroke:#181818;stroke-width:1.0;"/><polygon fill="#181818" points="571.17,162.492,581.0141,162.7988,575.8001,160.6046,577.9943,155.3906,571.17,162.492" style="stroke:#181818;stroke-width:1.0;"/><text fill="#000000" font-family="sans-serif" font-size="13" lengthAdjust="spacing" textLength="291" x="645.5" y="128.499">modificarOrdenPrioridad(nuevoOrden) : boolean</text></g><!--link PreferenciasProfesorController to ProfesorRepository--><g id="link_PreferenciasProfesorController_ProfesorRepository"><path d="M411.88,200.272 C319.53,214.222 204.5,231.602 204.5,231.602 C204.5,231.602 204.5,250.602 204.5,250.602 C204.5,250.602 269.9942,266.2478 328.0942,280.1278 " fill="none" id="PreferenciasProfesorController-to-ProfesorRepository" style="stroke:#181818;stroke-width:1.0;"/><polygon fill="#181818" points="333.93,281.522,326.1058,275.5402,329.0669,280.3602,324.2469,283.3213,333.93,281.522" style="stroke:#181818;stroke-width:1.0;"/><text fill="#000000" font-family="sans-serif" font-size="13" lengthAdjust="spacing" textLength="276" x="205.5" y="246.499">obtenerConPreferencias(profesorId) : Profesor</text></g><!--link PreferenciasProfesorController to ProfesorRepository--><g id="link_PreferenciasProfesorController_ProfesorRepository"><path d="M514.64,201.902 C503.1,221.882 486.5,250.602 486.5,250.602 C486.5,250.602 465.2131,263.6725 442.9331,277.3525 " fill="none" id="PreferenciasProfesorController-to-ProfesorRepository-1" style="stroke:#181818;stroke-width:1.0;"/><polygon fill="#181818" points="437.82,280.492,447.5826,279.1915,442.0809,277.8758,443.3967,272.3741,437.82,280.492" style="stroke:#181818;stroke-width:1.0;"/><text fill="#000000" font-family="sans-serif" font-size="13" lengthAdjust="spacing" textLength="338" x="497.5" y="246.499">actualizarPreferencias(profesorId, preferencias) : boolean</text></g><!--link PreferenciasProfesorController to RecursoRepository--><g id="link_PreferenciasProfesorController_RecursoRepository"><path d="M639.32,200.402 C730.93,214.332 844.5,231.602 844.5,231.602 C844.5,231.602 866.4378,255.8698 884.4878,275.8498 " fill="none" id="PreferenciasProfesorController-to-RecursoRepository" style="stroke:#181818;stroke-width:1.0;"/><polygon fill="#181818" points="888.51,280.302,885.4449,270.9422,885.1582,276.5918,879.5086,276.3051,888.51,280.302" style="stroke:#181818;stroke-width:1.0;"/><text fill="#000000" font-family="sans-serif" font-size="13" lengthAdjust="spacing" textLength="271" x="861.5" y="246.499">obtenerRecursosDisponibles() : List&lt;Recurso&gt;</text></g><!--link ProfesorRepository to Profesor--><g id="link_ProfesorRepository_Profesor"><path d="M392.85,320.002 C379.3,337.462 359.3,363.262 345.85,380.592 " fill="none" id="ProfesorRepository-Profesor" style="stroke:#181818;stroke-width:1.0;"/></g><!--link ProfesorRepository to PreferenciasRecurso--><g id="link_ProfesorRepository_PreferenciasRecurso"><path d="M422.15,320.002 C435.7,337.462 455.7,363.262 469.15,380.592 " fill="none" id="ProfesorRepository-PreferenciasRecurso" style="stroke:#181818;stroke-width:1.0;"/></g><!--link RecursoRepository to Recurso--><g id="link_RecursoRepository_Recurso"><path d="M905.5,320.002 C905.5,337.462 905.5,363.262 905.5,380.592 " fill="none" id="RecursoRepository-Recurso" style="stroke:#181818;stroke-width:1.0;"/></g><!--link ConfigurarPreferenciasProfesorView to EditarProfesor--><g id="link_ConfigurarPreferenciasProfesorView_EditarProfesor"><path d="M747.23,83.642 C837.85,97.342 945.5,113.602 945.5,113.602 C945.5,113.602 1099.3265,141.5104 1209.4565,161.5004 " fill="none" id="ConfigurarPreferenciasProfesorView-to-EditarProfesor" style="stroke:#181818;stroke-width:1.0;stroke-dasharray:7.0,7.0;"/><polygon fill="#181818" points="1215.36,162.572,1207.2191,157.0289,1210.4404,161.679,1205.7903,164.9003,1215.36,162.572" style="stroke:#181818;stroke-width:1.0;"/><text fill="#000000" font-family="sans-serif" font-size="13" lengthAdjust="spacing" textLength="217" x="1045.5" y="128.499">&#171;include&#187; editarProfesor(profesorId)</text></g><!--SRC=[dLJ1IiD04BtlLmprKi5w41KD9L1h1K5GF7ZVPATbSDq9inkbYl_kfgGrJMiQp2cPz-QzsJTB_2kvGej-0qiEmx90ADWkgm-b1FEWtS8Y74rlPpUJ2nWaJy9pz2mmoGWby02qXtMnhkrjdBArEcFHWTZ1p53GikvRYMoNb2fq_geN23cxEIrAgJ2Sew3BIVlD7B5pq4qP7W_WIq5y6dDTdbtFxgvXsjdvGlZHRimkCdDv1VleKIn8F2PAk-dkR38zdsroUiQ2FGMMvH_4PynByNoGjqdhB_Xto5gosr1zAzLQ9enabFR8AJcmg65HlzoROwKEwy78HD_kcAEdbaKVlsuT6Asisij9WBE03YjcKw0f3Sdl4dgOx2nsur4Z_fPymOuoYtvOgJ-G3-CQJFi5roEtDpOqfvZUenYCXoCMCjeCNOdllAfLtXcpHUt-7P_EGwajVMuFsuZl18e6qB9iwqMRPjRxuTqBlnDvHLo3VV8yFKrRFwS4ncDokIqDfYdW5hPrxtu0]--></g></svg>