<?xml version="1.0" encoding="us-ascii" standalone="no"?><svg xmlns="http://www.w3.org/2000/svg" xmlns:xlink="http://www.w3.org/1999/xlink" contentStyleType="text/css" height="217px" preserveAspectRatio="none" style="width:386px;height:217px;background:#FFFFFF;" version="1.1" viewBox="0 0 386 217" width="386px" zoomAndPan="magnify"><defs/><g><text fill="#000000" font-family="sans-serif" font-size="12" font-weight="bold" lengthAdjust="spacing" textLength="210" x="6" y="18.8281">GESTI&#211;N DE CURSOS ACAD&#201;MICOS</text><line style="stroke:#AAAAAA;stroke-width:1.0;" x1="6" x2="379" y1="26.8441" y2="26.8441"/><line style="stroke:#AAAAAA;stroke-width:1.0;" x1="6" x2="379" y1="28.8441" y2="28.8441"/><text fill="#000000" font-family="sans-serif" font-size="12" lengthAdjust="spacing" textLength="48" x="7" y="46.1722">CODIGO</text><text fill="#000000" font-family="sans-serif" font-size="12" lengthAdjust="spacing" textLength="51" x="57" y="46.1722">NOMBRE</text><text fill="#000000" font-family="sans-serif" font-size="12" lengthAdjust="spacing" textLength="79" x="159" y="46.1722">DESCRIPCION</text><text fill="#000000" font-family="sans-serif" font-size="12" lengthAdjust="spacing" textLength="46" x="320" y="46.1722">ACCI&#211;N</text><line style="stroke:#AAAAAA;stroke-width:1.0;" x1="7" x2="56" y1="55.1882" y2="55.1882"/><line style="stroke:#AAAAAA;stroke-width:1.0;" x1="57" x2="158" y1="55.1882" y2="55.1882"/><line style="stroke:#AAAAAA;stroke-width:1.0;" x1="159" x2="319" y1="55.1882" y2="55.1882"/><line style="stroke:#AAAAAA;stroke-width:1.0;" x1="320" x2="378" y1="55.1882" y2="55.1882"/><text fill="#000000" font-family="sans-serif" font-size="12" lengthAdjust="spacing" textLength="47" x="7" y="72.5163">MAT101</text><text fill="#000000" font-family="sans-serif" font-size="12" lengthAdjust="spacing" textLength="74" x="57" y="72.5163">Matem&#225;tica I</text><text fill="#000000" font-family="sans-serif" font-size="12" lengthAdjust="spacing" textLength="159" x="159" y="72.5163">C&#225;lculo diferencial e integral</text><rect fill="#EEEEEE" height="20.3441" rx="5" ry="5" style="stroke:#000000;stroke-width:2.5;" width="52" x="322.5" y="62.1882"/><text fill="#000000" font-family="sans-serif" font-size="12" lengthAdjust="spacing" textLength="33" x="332" y="77.0163">Editar</text><text fill="#000000" font-family="sans-serif" font-size="12" lengthAdjust="spacing" textLength="38" x="7" y="99.8604">FIS201</text><text fill="#000000" font-family="sans-serif" font-size="12" lengthAdjust="spacing" textLength="79" x="57" y="99.8604">F&#237;sica General</text><text fill="#000000" font-family="sans-serif" font-size="12" lengthAdjust="spacing" textLength="151" x="159" y="99.8604">Mec&#225;nica y termodin&#225;mica</text><rect fill="#EEEEEE" height="20.3441" rx="5" ry="5" style="stroke:#000000;stroke-width:2.5;" width="52" x="322.5" y="89.5323"/><text fill="#000000" font-family="sans-serif" font-size="12" lengthAdjust="spacing" textLength="33" x="332" y="104.3604">Editar</text><text fill="#000000" font-family="sans-serif" font-size="12" lengthAdjust="spacing" textLength="29" x="7" y="127.2045">CXYZ</text><text fill="#000000" font-family="sans-serif" font-size="12" lengthAdjust="spacing" textLength="100" x="57" y="127.2045">Nombre del curso</text><text fill="#000000" font-family="sans-serif" font-size="12" lengthAdjust="spacing" textLength="120" x="159" y="127.2045">Descripci&#243;n del curso</text><rect fill="#EEEEEE" height="20.3441" rx="5" ry="5" style="stroke:#000000;stroke-width:2.5;" width="52" x="322.5" y="116.8765"/><text fill="#000000" font-family="sans-serif" font-size="12" lengthAdjust="spacing" textLength="33" x="332" y="131.7045">Editar</text><line style="stroke:#000000;stroke-width:1.0;" x1="6" x2="56" y1="32.3441" y2="32.3441"/><line style="stroke:#000000;stroke-width:1.0;" x1="56" x2="158" y1="32.3441" y2="32.3441"/><line style="stroke:#000000;stroke-width:1.0;" x1="158" x2="319" y1="32.3441" y2="32.3441"/><line style="stroke:#000000;stroke-width:1.0;" x1="319" x2="378" y1="32.3441" y2="32.3441"/><line style="stroke:#000000;stroke-width:1.0;" x1="6" x2="56" y1="140.7206" y2="140.7206"/><line style="stroke:#000000;stroke-width:1.0;" x1="56" x2="158" y1="140.7206" y2="140.7206"/><line style="stroke:#000000;stroke-width:1.0;" x1="158" x2="319" y1="140.7206" y2="140.7206"/><line style="stroke:#000000;stroke-width:1.0;" x1="319" x2="378" y1="140.7206" y2="140.7206"/><line style="stroke:#000000;stroke-width:1.0;" x1="6" x2="6" y1="32.3441" y2="50.6882"/><line style="stroke:#000000;stroke-width:1.0;" x1="378" x2="378" y1="113.3765" y2="140.7206"/><line style="stroke:#000000;stroke-width:1.0;" x1="378" x2="378" y1="86.0323" y2="113.3765"/><line style="stroke:#000000;stroke-width:1.0;" x1="378" x2="378" y1="58.6882" y2="86.0323"/><line style="stroke:#000000;stroke-width:1.0;" x1="378" x2="378" y1="50.6882" y2="58.6882"/><line style="stroke:#000000;stroke-width:1.0;" x1="378" x2="378" y1="32.3441" y2="50.6882"/><line style="stroke:#000000;stroke-width:1.0;" x1="6" x2="6" y1="113.3765" y2="140.7206"/><line style="stroke:#000000;stroke-width:1.0;" x1="6" x2="6" y1="86.0323" y2="113.3765"/><line style="stroke:#000000;stroke-width:1.0;" x1="6" x2="6" y1="58.6882" y2="86.0323"/><line style="stroke:#000000;stroke-width:1.0;" x1="6" x2="6" y1="50.6882" y2="58.6882"/><line style="stroke:#AAAAAA;stroke-width:1.5;" x1="6" x2="379" y1="146.2206" y2="146.2206"/><text fill="#000000" font-family="sans-serif" font-size="12" font-weight="bold" lengthAdjust="spacing" textLength="51" x="7" y="164.5487">BUSCAR:</text><text fill="#000000" font-family="sans-serif" font-size="12" lengthAdjust="spacing" textLength="125" x="61" y="164.5487">[                                       ]</text><rect fill="#EEEEEE" height="20.3441" rx="5" ry="5" style="stroke:#000000;stroke-width:2.5;" width="60" x="190.5" y="154.2206"/><text fill="#000000" font-family="sans-serif" font-size="12" lengthAdjust="spacing" textLength="33" x="204" y="169.0487">Filtrar</text><line style="stroke:#AAAAAA;stroke-width:1.5;" x1="6" x2="379" y1="183.5647" y2="183.5647"/><rect fill="#EEEEEE" height="20.3441" rx="5" ry="5" style="stroke:#000000;stroke-width:2.5;" width="92" x="9.5" y="191.5647"/><text fill="#000000" font-family="sans-serif" font-size="12" lengthAdjust="spacing" textLength="69" x="21" y="206.3928">Crear nuevo</text><rect fill="#EEEEEE" height="20.3441" rx="5" ry="5" style="stroke:#000000;stroke-width:2.5;" width="156" x="108.5" y="191.5647"/><text fill="#000000" font-family="sans-serif" font-size="12" lengthAdjust="spacing" textLength="113" x="130" y="206.3928">Borrar seleccionado</text><rect fill="#EEEEEE" height="20.3441" rx="5" ry="5" style="stroke:#000000;stroke-width:2.5;" width="44" x="271.5" y="191.5647"/><text fill="#000000" font-family="sans-serif" font-size="12" lengthAdjust="spacing" textLength="25" x="281" y="206.3928">Salir</text><!--SRC=[ZP9HRzem4CVV_IdkiTL41ncTfgXK3Kv0OOGW0jKsr0V7EPYbnAbiXwc2zdtF-mHyW3tj8-IBpQQgkhxDigsxy_z-EfzzemrJHhFI0CkLKBHHkjQT7qBXHh4AoHx8LNuzZh9btFwQGHW1NIsoD8E01c7xCubfcbszpwy1o60m8Fjt03GDut4A1vYboN0HMIECChg8vpHEPzOBA7Ki0j3f75wczP9WsUlsh21X1glsQ0Hd45kVjiUIDsKDXTYWGia5Am51I8DRPSq3hAD2s8lSMSeephmJPTJ-reumHedFgWHvUvGkzW06LLKNGhR7oWNU8EYNhzzS-NMLAuG2I-2kBUuYgBaIzroqV-IRWt-o7-rwUhBRtZPkkCfeiF1F7Lh3_uqxnnk9qYWBVAMjgKAcG3Qugq-IOQsi0ZIMoBce9IkUunahXKjy9EG6PU4Ubv1voQHP9LFOeT9M3BqBh-lrBpwSBRytCC8SUfVWTVr-r-zU0esMu8xFoTbuFjrveEj6STiBeOqIUMCiuPnCs8x1ef56LEX3Uezo4dv-2K0aTqBLia9foEGsUHLyx7U6ma26ojO2jma9SSCQ-mCZoTsJR7rOBKUTJsJAvBPXMyj6JMXjkUh1XoZx2m00]--></g></svg>