<?xml version="1.0" encoding="us-ascii" standalone="no"?><svg xmlns="http://www.w3.org/2000/svg" xmlns:xlink="http://www.w3.org/1999/xlink" contentStyleType="text/css" height="665px" preserveAspectRatio="none" style="width:583px;height:665px;background:#FFFFFF;" version="1.1" viewBox="0 0 583 665" width="583px" zoomAndPan="magnify"><defs/><g><path d="M90,7 L401,7 A12.5,12.5 0 0 1 413.5,19.5 L413.5,36.0679 L77.5,36.0679 L77.5,19.5 A12.5,12.5 0 0 1 90,7 " fill="#F1F1F1" style="stroke:#F1F1F1;stroke-width:1.0;"/><rect fill="none" height="505.0679" rx="12.5" ry="12.5" style="stroke:#181818;stroke-width:0.5;" width="336" x="77.5" y="7"/><line style="stroke:#181818;stroke-width:0.5;" x1="77.5" x2="413.5" y1="36.0679" y2="36.0679"/><text fill="#000000" font-family="sans-serif" font-size="14" lengthAdjust="spacing" textLength="88" x="201.5" y="26.9659">listarCursos()</text><g id="listarCursos.MostrandoLista"><rect fill="#F1F1F1" height="50" rx="12.5" ry="12.5" style="stroke:#181818;stroke-width:0.5;" width="50" x="89.5" y="140.0679"/><line style="stroke:#181818;stroke-width:0.5;" x1="89.5" x2="139.5" y1="169.1358" y2="169.1358"/><text fill="#000000" font-family="sans-serif" font-size="14" lengthAdjust="spacing" textLength="4" x="112.5" y="160.0339">&#160;</text></g><g id="listarCursos.FiltrandoLista"><rect fill="#F1F1F1" height="50" rx="12.5" ry="12.5" style="stroke:#181818;stroke-width:0.5;" width="50" x="89.5" y="354.5679"/><line style="stroke:#181818;stroke-width:0.5;" x1="89.5" x2="139.5" y1="383.6358" y2="383.6358"/><text fill="#000000" font-family="sans-serif" font-size="14" lengthAdjust="spacing" textLength="4" x="112.5" y="374.5339">&#160;</text></g><ellipse cx="114.5" cy="57.0679" fill="#222222" rx="10" ry="10" style="stroke:#222222;stroke-width:1.0;"/><ellipse cx="114.5" cy="491.0679" fill="none" rx="11" ry="11" style="stroke:#222222;stroke-width:1.0;"/><ellipse cx="114.5" cy="491.0679" fill="#222222" rx="6" ry="6" style="stroke:#222222;stroke-width:1.0;"/><!--link *start*listarCursos to MostrandoLista--><g id="link_*start*listarCursos_MostrandoLista"><path d="M114.5,67.1079 C114.5,83.0279 114.5,110.5779 114.5,133.7079 " fill="none" id="*start*listarCursos-to-MostrandoLista" style="stroke:#008000;stroke-width:1.0;"/><polygon fill="#008000" points="114.5,139.7079,118.5,130.7079,114.5,134.7079,110.5,130.7079,114.5,139.7079" style="stroke:#008000;stroke-width:1.0;"/><path d="M119.5,90.0679 L119.5,117.0679 L353.5,117.0679 L353.5,100.0679 L343.5,90.0679 L119.5,90.0679 " fill="#FEFFDD" style="stroke:#181818;stroke-width:0.5;"/><path d="M343.5,90.0679 L343.5,100.0679 L353.5,100.0679 L343.5,90.0679 " fill="#FEFFDD" style="stroke:#181818;stroke-width:0.5;"/><text fill="#000000" font-family="sans-serif" font-size="13" font-weight="bold" lengthAdjust="spacing" textLength="95" x="125.5" y="108.9649">Administrador</text><text fill="#000000" font-family="sans-serif" font-size="13" lengthAdjust="spacing" textLength="115" x="223.5" y="108.9649">solicita listar cursos</text></g><!--link MostrandoLista to FiltrandoLista--><g id="link_MostrandoLista_FiltrandoLista"><path d="M114.5,190.4479 C114.5,231.4379 114.5,307.6779 114.5,348.4779 " fill="none" id="MostrandoLista-to-FiltrandoLista" style="stroke:#008000;stroke-width:1.0;"/><polygon fill="#008000" points="114.5,354.4779,118.5,345.4779,114.5,349.4779,110.5,345.4779,114.5,354.4779" style="stroke:#008000;stroke-width:1.0;"/><path d="M119.5,213.0679 L119.5,329.0679 L404.5,329.0679 L404.5,223.0679 L394.5,213.0679 L119.5,213.0679 " fill="#FEFFDD" style="stroke:#181818;stroke-width:0.5;"/><path d="M394.5,213.0679 L394.5,223.0679 L404.5,223.0679 L394.5,213.0679 " fill="#FEFFDD" style="stroke:#181818;stroke-width:0.5;"/><text fill="#000000" font-family="sans-serif" font-size="13" font-weight="bold" lengthAdjust="spacing" textLength="52" x="125.5" y="231.9649">Sistema</text><text fill="#000000" font-family="sans-serif" font-size="13" lengthAdjust="spacing" textLength="140" x="180.5" y="231.9649">presenta lista de cursos</text><text fill="#000000" font-family="sans-serif" font-size="13" lengthAdjust="spacing" textLength="264" x="125.5" y="249.6709">&#8226; C&#243;digo, nombre, descripci&#243;n de cada curso</text><text fill="#000000" font-family="sans-serif" font-size="13" lengthAdjust="spacing" textLength="166" x="125.5" y="267.377">&#8226; Permite solicitar filtrar lista</text><text fill="#000000" font-family="sans-serif" font-size="13" lengthAdjust="spacing" textLength="214" x="125.5" y="285.083">&#8226; Permite solicitar crear curso nuevo</text><text fill="#000000" font-family="sans-serif" font-size="13" lengthAdjust="spacing" textLength="191" x="125.5" y="302.789">&#8226; Permite solicitar eliminar curso</text><text fill="#000000" font-family="sans-serif" font-size="13" lengthAdjust="spacing" textLength="178" x="125.5" y="320.495">&#8226; Permite solicitar editar curso</text></g><!--link FiltrandoLista to FiltrandoLista--><g id="link_FiltrandoLista_FiltrandoLista"><path d="M139.68,367.6179 C149.41,367.0879 157.5,371.0679 157.5,379.5679 C157.5,388.0679 155.4011,392.3743 145.6711,391.8443 " fill="none" id="FiltrandoLista-to-FiltrandoLista" style="stroke:#008000;stroke-width:1.0;"/><polygon fill="#008000" points="139.68,391.5179,148.4491,396.0015,144.6726,391.7899,148.8842,388.0133,139.68,391.5179" style="stroke:#008000;stroke-width:1.0;"/><path d="M162.5,357.0679 L162.5,402.0679 L384.5,402.0679 L384.5,367.0679 L374.5,357.0679 L162.5,357.0679 " fill="#FEFFDD" style="stroke:#181818;stroke-width:0.5;"/><path d="M374.5,357.0679 L374.5,367.0679 L384.5,367.0679 L374.5,357.0679 " fill="#FEFFDD" style="stroke:#181818;stroke-width:0.5;"/><text fill="#000000" font-family="sans-serif" font-size="13" font-weight="bold" lengthAdjust="spacing" textLength="95" x="168.5" y="375.9649">Administrador</text><text fill="#000000" font-family="sans-serif" font-size="13" lengthAdjust="spacing" textLength="103" x="266.5" y="375.9649">solicita filtrar lista</text><text fill="#000000" font-family="sans-serif" font-size="13" font-weight="bold" lengthAdjust="spacing" textLength="52" x="168.5" y="393.6709">Sistema</text><text fill="#000000" font-family="sans-serif" font-size="13" lengthAdjust="spacing" textLength="125" x="223.5" y="393.6709">presenta lista filtrada</text></g><!--link FiltrandoLista to *end*listarCursos--><g id="link_FiltrandoLista_*end*listarCursos"><path d="M114.5,404.5979 C114.5,428.1479 114.5,456.8979 114.5,473.9179 " fill="none" id="FiltrandoLista-to-*end*listarCursos" style="stroke:#008000;stroke-width:1.0;"/><polygon fill="#008000" points="114.5,479.9179,118.5,470.9179,114.5,474.9179,110.5,470.9179,114.5,479.9179" style="stroke:#008000;stroke-width:1.0;"/><path d="M119.5,430.0679 L119.5,457.0679 L399.5,457.0679 L399.5,440.0679 L389.5,430.0679 L119.5,430.0679 " fill="#FEFFDD" style="stroke:#181818;stroke-width:0.5;"/><path d="M389.5,430.0679 L389.5,440.0679 L399.5,440.0679 L389.5,430.0679 " fill="#FEFFDD" style="stroke:#181818;stroke-width:0.5;"/><text fill="#000000" font-family="sans-serif" font-size="13" font-weight="bold" lengthAdjust="spacing" textLength="95" x="125.5" y="448.9649">Administrador</text><text fill="#000000" font-family="sans-serif" font-size="13" lengthAdjust="spacing" textLength="161" x="223.5" y="448.9649">solicita una de las opciones</text></g><g id="EDITANDO_CURSO"><rect fill="#F1F1F1" height="50" rx="12.5" ry="12.5" style="stroke:#181818;stroke-width:0.5;" width="145" x="7" y="609"/><line style="stroke:#181818;stroke-width:0.5;" x1="7" x2="152" y1="638.0679" y2="638.0679"/><text fill="#000000" font-family="sans-serif" font-size="14" lengthAdjust="spacing" textLength="125" x="17" y="628.9659">EDITANDO_CURSO</text></g><g id="LISTANDO_CURSOS"><rect fill="#F1F1F1" height="50" rx="12.5" ry="12.5" style="stroke:#181818;stroke-width:0.5;" width="150" x="242.5" y="609"/><line style="stroke:#181818;stroke-width:0.5;" x1="242.5" x2="392.5" y1="638.0679" y2="638.0679"/><text fill="#000000" font-family="sans-serif" font-size="14" lengthAdjust="spacing" textLength="130" x="252.5" y="628.9659">LISTANDO_CURSOS</text></g><g id="MENU_PRINCIPAL"><rect fill="#F1F1F1" height="50" rx="12.5" ry="12.5" style="stroke:#181818;stroke-width:0.5;" width="139" x="428" y="609"/><line style="stroke:#181818;stroke-width:0.5;" x1="428" x2="567" y1="638.0679" y2="638.0679"/><text fill="#000000" font-family="sans-serif" font-size="14" lengthAdjust="spacing" textLength="119" x="438" y="628.9659">MENU_PRINCIPAL</text></g><!--link listarCursos to EDITANDO_CURSO--><g id="link_listarCursos_EDITANDO_CURSO"><path d="M77.45,471.69 C45.33,512.05 21.5,542 21.5,542 C21.5,542 21.5,579 21.5,579 C21.5,579 33.7179,590.3823 49.1579,604.7523 " fill="none" id="listarCursos-to-EDITANDO_CURSO" style="stroke:#008000;stroke-width:1.0;"/><polygon fill="#008000" points="53.55,608.84,49.687,599.7804,49.8899,605.4336,44.2367,605.6365,53.55,608.84" style="stroke:#008000;stroke-width:1.0;"/><path d="M26.5,547 L26.5,574 L125.5,574 L125.5,557 L115.5,547 L26.5,547 " fill="#FEFFDD" style="stroke:#181818;stroke-width:0.5;"/><path d="M115.5,547 L115.5,557 L125.5,557 L115.5,547 " fill="#FEFFDD" style="stroke:#181818;stroke-width:0.5;"/><text fill="#000000" font-family="sans-serif" font-size="13" lengthAdjust="spacing" textLength="78" x="32.5" y="565.897">editarCurso()</text></g><!--link listarCursos to EDITANDO_CURSO--><g id="link_listarCursos_EDITANDO_CURSO"><path d="M157.77,512.23 C144.15,551.3 134.5,579 134.5,579 C134.5,579 123.0334,590.2685 108.3834,604.6385 " fill="none" id="listarCursos-to-EDITANDO_CURSO-1" style="stroke:#008000;stroke-width:1.0;"/><polygon fill="#008000" points="104.1,608.84,113.3261,605.3933,107.6695,605.3387,107.7241,599.6822,104.1,608.84" style="stroke:#008000;stroke-width:1.0;"/><path d="M151.5,547 L151.5,574 L245.5,574 L245.5,557 L235.5,547 L151.5,547 " fill="#FEFFDD" style="stroke:#181818;stroke-width:0.5;"/><path d="M235.5,547 L235.5,557 L245.5,557 L235.5,547 " fill="#FEFFDD" style="stroke:#181818;stroke-width:0.5;"/><text fill="#000000" font-family="sans-serif" font-size="13" lengthAdjust="spacing" textLength="73" x="157.5" y="565.897">crearCurso()</text></g><!--link listarCursos to LISTANDO_CURSOS--><g id="link_listarCursos_LISTANDO_CURSOS"><path d="M294.12,512.06 C301.75,551.52 307.3698,580.6193 311.6398,602.6793 " fill="none" id="listarCursos-to-LISTANDO_CURSOS" style="stroke:#008000;stroke-width:1.0;"/><polygon fill="#008000" points="312.78,608.57,314.9968,598.9739,311.8298,603.6611,307.1426,600.4941,312.78,608.57" style="stroke:#008000;stroke-width:1.0;"/><path d="M312.5,547 L312.5,574 L424.5,574 L424.5,557 L414.5,547 L312.5,547 " fill="#FEFFDD" style="stroke:#181818;stroke-width:0.5;"/><path d="M414.5,547 L414.5,557 L424.5,557 L414.5,547 " fill="#FEFFDD" style="stroke:#181818;stroke-width:0.5;"/><text fill="#000000" font-family="sans-serif" font-size="13" lengthAdjust="spacing" textLength="91" x="318.5" y="565.897">eliminarCurso()</text></g><!--link listarCursos to MENU_PRINCIPAL--><g id="link_listarCursos_MENU_PRINCIPAL"><path d="M413.57,506.92 C428.15,528.29 437.5,542 437.5,542 C437.5,542 460.3471,576.6509 478.1171,603.6009 " fill="none" id="listarCursos-to-MENU_PRINCIPAL" style="stroke:#008000;stroke-width:1.0;"/><polygon fill="#008000" points="481.42,608.61,479.8051,598.8944,478.6676,604.4357,473.1263,603.2982,481.42,608.61" style="stroke:#008000;stroke-width:1.0;"/><path d="M464.5,547 L464.5,574 L576.5,574 L576.5,557 L566.5,547 L464.5,547 " fill="#FEFFDD" style="stroke:#181818;stroke-width:0.5;"/><path d="M566.5,547 L566.5,557 L576.5,557 L566.5,547 " fill="#FEFFDD" style="stroke:#181818;stroke-width:0.5;"/><text fill="#000000" font-family="sans-serif" font-size="13" lengthAdjust="spacing" textLength="91" x="470.5" y="565.897">mostrarMenu()</text></g><!--SRC=[dLFjQi8m5FsVfmZkZmvbBo22L0S5lx3pbuZ4vaw2RLAITY1Zi6VPA_W8licUPBVfwjBA2ff2ItFFFVVat1jp439XciKq4XBIOm8qKT4n_o74f2m53E1NUvasob1cQClTQ7TQz9qGYgj0j_11q5IPL3F9rIG7NyUVHUJ6BM3zkA6zzSDU0yXDRr3Ze1OZ5N8ecQizs8t-RZ3aiP0YntAb-q-x0JKg4g70d48g3QrMYmV92n9SvFAgbN9Lr9J-9oB0ACJCbayq691bUSh15V3z-KMzyucBlUeYKxpJq4M82RL8Gd4-IOjdd1L9bvm5w5XWtV9ichvQPRgeqe0BDPGUK9d1MnCdH0BDBE5DG2xI2gmqzi_KgdFtcDhGsUl3DpUXm7DskrOSoti4Pj9sFi9XLzXO9Q4wWEI3aChLSckEH_xBS3QQRxtLCfYJIkd2UPlKxf0BtNraTZPku9huWSCLr9Jz3iyDVDFnRBLTBFsPvo-6aofTR2-bdeBCNB8V]--></g></svg>