<?xml version="1.0" encoding="us-ascii" standalone="no"?><svg xmlns="http://www.w3.org/2000/svg" xmlns:xlink="http://www.w3.org/1999/xlink" contentStyleType="text/css" height="547px" preserveAspectRatio="none" style="width:913px;height:547px;background:#FFFFFF;" version="1.1" viewBox="0 0 913 547" width="913px" zoomAndPan="magnify"><defs/><g><!--cluster editarRecurso--><g id="cluster_editarRecurso"><path d="M8.5,111 L115.5,111 A3.75,3.75 0 0 1 118,113.5 L125,136.0679 L676.5,136.0679 A2.5,2.5 0 0 1 679,138.5679 L679,537.5 A2.5,2.5 0 0 1 676.5,540 L8.5,540 A2.5,2.5 0 0 1 6,537.5 L6,113.5 A2.5,2.5 0 0 1 8.5,111 " fill="none" style="stroke:#000000;stroke-width:1.5;"/><line style="stroke:#000000;stroke-width:1.5;" x1="6" x2="125" y1="136.0679" y2="136.0679"/><text fill="#000000" font-family="sans-serif" font-size="14" font-weight="bold" lengthAdjust="spacing" textLength="106" x="10" y="127.9659">editarRecurso()</text></g><!--entity EditarRecursoView--><g id="elem_EditarRecursoView"><rect fill="#629EF9" height="39.0679" rx="2.5" ry="2.5" style="stroke:#181818;stroke-width:0.5;" width="145" x="304.5" y="149"/><text fill="#000000" font-family="sans-serif" font-size="14" lengthAdjust="spacing" textLength="125" x="314.5" y="173.9659">EditarRecursoView</text></g><!--entity RecursoController--><g id="elem_RecursoController"><rect fill="#B5BD68" height="39.0679" rx="2.5" ry="2.5" style="stroke:#181818;stroke-width:0.5;" width="141" x="126.5" y="267"/><text fill="#000000" font-family="sans-serif" font-size="14" lengthAdjust="spacing" textLength="121" x="136.5" y="291.9659">RecursoController</text></g><!--entity RecursoRepository--><g id="elem_RecursoRepository"><rect fill="#F2AC4E" height="39.0679" rx="2.5" ry="2.5" style="stroke:#181818;stroke-width:0.5;" width="145" x="135.5" y="385"/><text fill="#000000" font-family="sans-serif" font-size="14" lengthAdjust="spacing" textLength="125" x="145.5" y="409.9659">RecursoRepository</text></g><!--entity Recurso--><g id="elem_Recurso"><rect fill="#F2AC4E" height="39.0679" rx="2.5" ry="2.5" style="stroke:#181818;stroke-width:0.5;" width="74" x="171" y="485"/><text fill="#000000" font-family="sans-serif" font-size="14" lengthAdjust="spacing" textLength="54" x="181" y="509.9659">Recurso</text></g><!--entity RecursosAbierto--><g id="elem_RecursosAbierto"><rect fill="#CDEBA5" height="39.0679" rx="2.5" ry="2.5" style="stroke:#181818;stroke-width:0.5;" width="138" x="118" y="7"/><text fill="#000000" font-family="sans-serif" font-size="14" lengthAdjust="spacing" textLength="118" x="128" y="31.9659">:Recursos Abierto</text></g><!--entity RecursoAbierto--><g id="elem_RecursoAbierto"><rect fill="#CDEBA5" height="39.0679" rx="2.5" ry="2.5" style="stroke:#181818;stroke-width:0.5;" width="131" x="311.5" y="7"/><text fill="#000000" font-family="sans-serif" font-size="14" lengthAdjust="spacing" textLength="111" x="321.5" y="31.9659">:Recurso Abierto</text></g><!--entity CrearRecurso--><g id="elem_CrearRecurso"><rect fill="#CDEBA5" height="39.0679" rx="2.5" ry="2.5" style="stroke:#181818;stroke-width:0.5;" width="209" x="477.5" y="7"/><text fill="#000000" font-family="sans-serif" font-size="14" lengthAdjust="spacing" textLength="189" x="487.5" y="31.9659">:Collaboration CrearRecurso</text></g><!--entity AbrirRecursos--><g id="elem_AbrirRecursos"><rect fill="#CDEBA5" height="39.0679" rx="2.5" ry="2.5" style="stroke:#181818;stroke-width:0.5;" width="213" x="694.5" y="267"/><text fill="#000000" font-family="sans-serif" font-size="14" lengthAdjust="spacing" textLength="193" x="704.5" y="291.9659">:Collaboration AbrirRecursos</text></g><!--link RecursosAbierto to EditarRecursoView--><g id="link_RecursosAbierto_EditarRecursoView"><path d="M195.91,46.3 C205.38,66.28 219,95 219,95 C219,95 284.0467,124.8476 330.8567,146.3276 " fill="none" id="RecursosAbierto-to-EditarRecursoView" style="stroke:#181818;stroke-width:1.0;"/><polygon fill="#181818" points="336.31,148.83,329.7983,141.4409,331.7656,146.7447,326.4618,148.7119,336.31,148.83" style="stroke:#181818;stroke-width:1.0;"/><text fill="#000000" font-family="sans-serif" font-size="13" lengthAdjust="spacing" textLength="148" x="220" y="90.897">editarRecurso(recursoId)</text></g><!--link RecursoAbierto to EditarRecursoView--><g id="link_RecursoAbierto_EditarRecursoView"><path d="M377,46.09 C377,72.87 377,116.01 377,142.83 " fill="none" id="RecursoAbierto-to-EditarRecursoView" style="stroke:#181818;stroke-width:1.0;"/><polygon fill="#181818" points="377,148.83,381,139.83,377,143.83,373,139.83,377,148.83" style="stroke:#181818;stroke-width:1.0;"/><text fill="#000000" font-family="sans-serif" font-size="13" lengthAdjust="spacing" textLength="148" x="378" y="90.897">editarRecurso(recursoId)</text></g><!--link CrearRecurso to EditarRecursoView--><g id="link_CrearRecurso_EditarRecursoView"><path d="M568.91,46.3 C555,66.28 535,95 535,95 C535,95 469.9533,124.8476 423.1433,146.3276 " fill="none" id="CrearRecurso-to-EditarRecursoView" style="stroke:#181818;stroke-width:1.0;"/><polygon fill="#181818" points="417.69,148.83,427.5382,148.7119,422.2344,146.7447,424.2017,141.4409,417.69,148.83" style="stroke:#181818;stroke-width:1.0;"/><text fill="#000000" font-family="sans-serif" font-size="13" lengthAdjust="spacing" textLength="176" x="548" y="90.897">editarRecurso(recursoNuevo)</text></g><!--link EditarRecursoView to RecursoController--><g id="link_EditarRecursoView_RecursoController"><path d="M304.11,180.44 C208.84,194.75 54,218 54,218 C54,218 54,237 54,237 C54,237 96.108,251.2827 136.438,264.9627 " fill="none" id="EditarRecursoView-to-RecursoController" style="stroke:#181818;stroke-width:1.0;"/><polygon fill="#181818" points="142.12,266.89,134.8819,260.211,137.385,265.2839,132.3121,267.787,142.12,266.89" style="stroke:#181818;stroke-width:1.0;"/><text fill="#000000" font-family="sans-serif" font-size="13" lengthAdjust="spacing" textLength="278" x="55" y="232.897">cargarRecursoParaEdici&#243;n(recursoId) : Recurso</text></g><!--link EditarRecursoView to RecursoController--><g id="link_EditarRecursoView_RecursoController"><path d="M366.14,188.3 C354.6,208.28 338,237 338,237 C338,237 296.5436,251.2579 256.7836,264.9379 " fill="none" id="EditarRecursoView-to-RecursoController-1" style="stroke:#181818;stroke-width:1.0;"/><polygon fill="#181818" points="251.11,266.89,260.9217,267.7443,255.838,265.2633,258.319,260.1795,251.11,266.89" style="stroke:#181818;stroke-width:1.0;"/><text fill="#000000" font-family="sans-serif" font-size="13" lengthAdjust="spacing" textLength="284" x="350" y="232.897">modificarCampos(recursoId, cambios) : boolean</text></g><!--link RecursoController to RecursoRepository--><g id="link_RecursoController_RecursoRepository"><path d="M149.41,306.11 C114.44,319.79 73,336 73,336 C73,336 73,355 73,355 C73,355 112.4735,369.181 150.5435,382.861 " fill="none" id="RecursoController-to-RecursoRepository" style="stroke:#181818;stroke-width:1.0;"/><polygon fill="#181818" points="156.19,384.89,149.0729,378.0821,151.4846,383.1992,146.3676,385.6108,156.19,384.89" style="stroke:#181818;stroke-width:1.0;"/><text fill="#000000" font-family="sans-serif" font-size="13" lengthAdjust="spacing" textLength="203" x="74" y="350.897">obtenerPorId(recursoId) : Recurso</text></g><!--link RecursoController to RecursoRepository--><g id="link_RecursoController_RecursoRepository"><path d="M229.62,306.11 C253.59,319.79 282,336 282,336 C282,336 282,355 282,355 C282,355 262.288,367.9207 241.418,381.6007 " fill="none" id="RecursoController-to-RecursoRepository-1" style="stroke:#181818;stroke-width:1.0;"/><polygon fill="#181818" points="236.4,384.89,246.1199,383.3015,240.5817,382.149,241.7342,376.6107,236.4,384.89" style="stroke:#181818;stroke-width:1.0;"/><text fill="#000000" font-family="sans-serif" font-size="13" lengthAdjust="spacing" textLength="168" x="283" y="350.897">actualizar(recurso) : boolean</text></g><!--link RecursoRepository to Recurso--><g id="link_RecursoRepository_Recurso"><path d="M208,424.4 C208,441.86 208,467.66 208,484.99 " fill="none" id="RecursoRepository-Recurso" style="stroke:#181818;stroke-width:1.0;"/></g><!--link EditarRecursoView to AbrirRecursos--><g id="link_EditarRecursoView_AbrirRecursos"><path d="M449.69,182.75 C528.44,197.11 643,218 643,218 C643,218 705.1224,244.5429 751.8924,264.5229 " fill="none" id="EditarRecursoView-to-AbrirRecursos" style="stroke:#181818;stroke-width:1.0;stroke-dasharray:7.0,7.0;"/><polygon fill="#181818" points="757.41,266.88,750.705,259.6659,752.812,264.9157,747.5622,267.0227,757.41,266.88" style="stroke:#181818;stroke-width:1.0;"/><text fill="#000000" font-family="sans-serif" font-size="13" lengthAdjust="spacing" textLength="150" x="686" y="232.897">&#171;include&#187; abrirRecursos()</text></g><!--SRC=[bPF1Re9048Rl-nGJUf6aUZ3LL698ACN4IsCyzBuBKxCHTiYojB5DdwgFq1VhQaL1AAbSDip-_xV_pa2nbIhdccUGIeLcboFabExsBunfZ0rNcnJX9doC7e89EDuQur8NL40W96f33l02gkAnrcViylNPGafJBaXp8qb1g97he-j0g1V-uG-4bfMyE00Q5SPo7c_v1W4JQKxWlSvfL0Qk0nyCx5CxSpgUHOiPH7NXiyItIvsOY6HwNrq-96Mq3OdwKhSO1-5TLEdMc5CX3UbTluvzCdOn3nWE_NOihtd9WVvTbudBcdEvsbuVobNcfn9VoMMifOTXOZ6jZdaGSxqvALVsGxRMM7v_gLeUy4wzOIt48L-hnHwGCAXGhqWlapzO7IcxGsQKo1TfeuOyioUSSRSsVoOa5Nkk84gHgoioyjYKF9NlN5V8BixPOJbzwKSZl_axU32VInMdPOA-3xo-DN3P3m00]--></g></svg>