<?xml version="1.0" encoding="us-ascii" standalone="no"?><svg xmlns="http://www.w3.org/2000/svg" xmlns:xlink="http://www.w3.org/1999/xlink" contentStyleType="text/css" height="713px" preserveAspectRatio="none" style="width:638px;height:713px;background:#FFFFFF;" version="1.1" viewBox="0 0 638 713" width="638px" zoomAndPan="magnify"><defs/><g><path d="M19.5,7 L612.5,7 A12.5,12.5 0 0 1 625,19.5 L625,36.0679 L7,36.0679 L7,19.5 A12.5,12.5 0 0 1 19.5,7 " fill="#F1F1F1" style="stroke:#F1F1F1;stroke-width:1.0;"/><rect fill="none" height="553.0679" rx="12.5" ry="12.5" style="stroke:#181818;stroke-width:0.5;" width="618" x="7" y="7"/><line style="stroke:#181818;stroke-width:0.5;" x1="7" x2="625" y1="36.0679" y2="36.0679"/><text fill="#000000" font-family="sans-serif" font-size="14" lengthAdjust="spacing" textLength="163" x="234.5" y="26.9659">asignarProfesorACurso()</text><g id="asignarProfesorACurso.GestionandoAsignaciones"><rect fill="#F1F1F1" height="50" rx="12.5" ry="12.5" style="stroke:#181818;stroke-width:0.5;" width="50" x="146" y="140.0679"/><line style="stroke:#181818;stroke-width:0.5;" x1="146" x2="196" y1="169.1358" y2="169.1358"/><text fill="#000000" font-family="sans-serif" font-size="14" lengthAdjust="spacing" textLength="4" x="169" y="160.0339">&#160;</text></g><g id="asignarProfesorACurso.GuardandoAsignaciones"><rect fill="#F1F1F1" height="50" rx="12.5" ry="12.5" style="stroke:#181818;stroke-width:0.5;" width="50" x="146" y="405.0679"/><line style="stroke:#181818;stroke-width:0.5;" x1="146" x2="196" y1="434.1358" y2="434.1358"/><text fill="#000000" font-family="sans-serif" font-size="14" lengthAdjust="spacing" textLength="4" x="169" y="425.0339">&#160;</text></g><ellipse cx="171" cy="57.0679" fill="#222222" rx="10" ry="10" style="stroke:#222222;stroke-width:1.0;"/><ellipse cx="171" cy="539.0679" fill="none" rx="11" ry="11" style="stroke:#222222;stroke-width:1.0;"/><ellipse cx="171" cy="539.0679" fill="#222222" rx="6" ry="6" style="stroke:#222222;stroke-width:1.0;"/><!--link *start*asignarProfesorACurso to GestionandoAsignaciones--><g id="link_*start*asignarProfesorACurso_GestionandoAsignaciones"><path d="M171,67.1079 C171,83.0279 171,110.5779 171,133.7079 " fill="none" id="*start*asignarProfesorACurso-to-GestionandoAsignaciones" style="stroke:#008000;stroke-width:1.0;"/><polygon fill="#008000" points="171,139.7079,175,130.7079,171,134.7079,167,130.7079,171,139.7079" style="stroke:#008000;stroke-width:1.0;"/><path d="M176,90.0679 L176,117.0679 L492,117.0679 L492,100.0679 L482,90.0679 L176,90.0679 " fill="#FEFFDD" style="stroke:#181818;stroke-width:0.5;"/><path d="M482,90.0679 L482,100.0679 L492,100.0679 L482,90.0679 " fill="#FEFFDD" style="stroke:#181818;stroke-width:0.5;"/><text fill="#000000" font-family="sans-serif" font-size="13" font-weight="bold" lengthAdjust="spacing" textLength="95" x="182" y="108.9649">Administrador</text><text fill="#000000" font-family="sans-serif" font-size="13" lengthAdjust="spacing" textLength="197" x="280" y="108.9649">solicita asignar cursos al profesor</text></g><!--link GestionandoAsignaciones to GuardandoAsignaciones--><g id="link_GestionandoAsignaciones_GuardandoAsignaciones"><path d="M145.74,173.0079 C102.28,184.9279 18,208.0679 18,208.0679 C18,208.0679 18,387.0679 18,387.0679 C18,387.0679 96.4937,408.6209 139.9537,420.5409 " fill="none" id="GestionandoAsignaciones-to-GuardandoAsignaciones" style="stroke:#008000;stroke-width:1.0;"/><polygon fill="#008000" points="145.74,422.1279,138.1186,415.8898,140.9181,420.8054,136.0025,423.6049,145.74,422.1279" style="stroke:#008000;stroke-width:1.0;"/><path d="M23,213.0679 L23,382.0679 L298,382.0679 L298,223.0679 L288,213.0679 L23,213.0679 " fill="#FEFFDD" style="stroke:#181818;stroke-width:0.5;"/><path d="M288,213.0679 L288,223.0679 L298,223.0679 L288,213.0679 " fill="#FEFFDD" style="stroke:#181818;stroke-width:0.5;"/><text fill="#000000" font-family="sans-serif" font-size="13" font-weight="bold" lengthAdjust="spacing" textLength="52" x="29" y="231.9649">Sistema</text><text fill="#000000" font-family="sans-serif" font-size="13" lengthAdjust="spacing" textLength="199" x="84" y="231.9649">presenta gesti&#243;n de asignaciones</text><text fill="#000000" font-family="sans-serif" font-size="13" lengthAdjust="spacing" textLength="167" x="29" y="249.6709">&#8226; Lista de cursos disponibles</text><text fill="#000000" font-family="sans-serif" font-size="13" lengthAdjust="spacing" textLength="244" x="29" y="267.377">&#8226; Lista de cursos ya asignados al profesor</text><text fill="#000000" font-family="sans-serif" font-size="13" lengthAdjust="spacing" textLength="3" x="29" y="285.083">&#160;</text><text fill="#000000" font-family="sans-serif" font-size="13" font-weight="bold" lengthAdjust="spacing" textLength="52" x="29" y="302.789">Sistema</text><text fill="#000000" font-family="sans-serif" font-size="13" lengthAdjust="spacing" textLength="99" x="84" y="302.789">permite solicitar:</text><text fill="#000000" font-family="sans-serif" font-size="13" lengthAdjust="spacing" textLength="153" x="29" y="320.495">&#8226; asignar curso disponible</text><text fill="#000000" font-family="sans-serif" font-size="13" lengthAdjust="spacing" textLength="167" x="29" y="338.201">&#8226; desasignar curso asignado</text><text fill="#000000" font-family="sans-serif" font-size="13" lengthAdjust="spacing" textLength="136" x="29" y="355.907">&#8226; guardar asignaciones</text><text fill="#000000" font-family="sans-serif" font-size="13" lengthAdjust="spacing" textLength="105" x="29" y="373.6131">&#8226; cancelar gesti&#243;n</text></g><!--link GuardandoAsignaciones to GestionandoAsignaciones--><g id="link_GuardandoAsignaciones_GestionandoAsignaciones"><path d="M196.14,421.0679 C234.44,408.8879 303,387.0679 303,387.0679 C303,387.0679 303,208.0679 303,208.0679 C303,208.0679 240.1578,188.0663 201.8578,175.8863 " fill="none" id="GuardandoAsignaciones-to-GestionandoAsignaciones" style="stroke:#008000;stroke-width:1.0;"/><polygon fill="#008000" points="196.14,174.0679,203.5045,180.6073,200.9049,175.5832,205.929,172.9836,196.14,174.0679" style="stroke:#008000;stroke-width:1.0;"/><path d="M308,284.0679 L308,311.0679 L616,311.0679 L616,294.0679 L606,284.0679 L308,284.0679 " fill="#FEFFDD" style="stroke:#181818;stroke-width:0.5;"/><path d="M606,284.0679 L606,294.0679 L616,294.0679 L606,284.0679 " fill="#FEFFDD" style="stroke:#181818;stroke-width:0.5;"/><text fill="#000000" font-family="sans-serif" font-size="13" font-weight="bold" lengthAdjust="spacing" textLength="95" x="314" y="302.9649">Administrador</text><text fill="#000000" font-family="sans-serif" font-size="13" lengthAdjust="spacing" textLength="189" x="412" y="302.9649">solicita asignar curso disponible</text></g><!--link GuardandoAsignaciones to *end*asignarProfesorACurso--><g id="link_GuardandoAsignaciones_*end*asignarProfesorACurso"><path d="M145.83,438.6779 C105.77,450.7779 32,473.0679 32,473.0679 C32,473.0679 32,510.0679 32,510.0679 C32,510.0679 121.4381,528.0833 154.2081,534.6833 " fill="none" id="GuardandoAsignaciones-to-*end*asignarProfesorACurso" style="stroke:#008000;stroke-width:1.0;"/><polygon fill="#008000" points="160.09,535.8679,152.0569,530.1697,155.1884,534.8807,150.4774,538.0122,160.09,535.8679" style="stroke:#008000;stroke-width:1.0;"/><path d="M37,478.0679 L37,505.0679 L285,505.0679 L285,488.0679 L275,478.0679 L37,478.0679 " fill="#FEFFDD" style="stroke:#181818;stroke-width:0.5;"/><path d="M275,478.0679 L275,488.0679 L285,488.0679 L275,478.0679 " fill="#FEFFDD" style="stroke:#181818;stroke-width:0.5;"/><text fill="#000000" font-family="sans-serif" font-size="13" font-weight="bold" lengthAdjust="spacing" textLength="95" x="43" y="496.9649">Administrador</text><text fill="#000000" font-family="sans-serif" font-size="13" lengthAdjust="spacing" textLength="129" x="141" y="496.9649">solicita guardar y salir</text></g><!--link GuardandoAsignaciones to *end*asignarProfesorACurso--><g id="link_GuardandoAsignaciones_*end*asignarProfesorACurso"><path d="M196.24,439.9779 C231.17,452.3079 290,473.0679 290,473.0679 C290,473.0679 290,510.0679 290,510.0679 C290,510.0679 216.5201,527.3521 187.4001,534.2121 " fill="none" id="GuardandoAsignaciones-to-*end*asignarProfesorACurso-1" style="stroke:#FF0000;stroke-width:1.0;"/><polygon fill="#FF0000" points="181.56,535.5879,191.2374,537.4176,186.4268,534.4414,189.403,529.6308,181.56,535.5879" style="stroke:#FF0000;stroke-width:1.0;"/><path d="M295,478.0679 L295,505.0679 L555,505.0679 L555,488.0679 L545,478.0679 L295,478.0679 " fill="#FEFFDD" style="stroke:#181818;stroke-width:0.5;"/><path d="M545,478.0679 L545,488.0679 L555,488.0679 L545,478.0679 " fill="#FEFFDD" style="stroke:#181818;stroke-width:0.5;"/><text fill="#000000" font-family="sans-serif" font-size="13" font-weight="bold" lengthAdjust="spacing" textLength="95" x="301" y="496.9649">Administrador</text><text fill="#000000" font-family="sans-serif" font-size="13" lengthAdjust="spacing" textLength="141" x="399" y="496.9649">solicita cancelar gesti&#243;n</text></g><g id="PROFESOR_ABIERTO"><rect fill="#F1F1F1" height="50" rx="12.5" ry="12.5" style="stroke:#181818;stroke-width:0.5;" width="156" x="238" y="657"/><line style="stroke:#181818;stroke-width:0.5;" x1="238" x2="394" y1="686.0679" y2="686.0679"/><text fill="#000000" font-family="sans-serif" font-size="14" lengthAdjust="spacing" textLength="136" x="248" y="676.9659">PROFESOR_ABIERTO</text></g><!--link asignarProfesorACurso to PROFESOR_ABIERTO--><g id="link_asignarProfesorACurso_PROFESOR_ABIERTO"><path d="M239.3,560.15 C234.18,578.58 231,590 231,590 C231,590 231,627 231,627 C231,627 250.2743,639.2547 272.9143,653.6247 " fill="none" id="asignarProfesorACurso-to-PROFESOR_ABIERTO" style="stroke:#008000;stroke-width:1.0;"/><polygon fill="#008000" points="277.98,656.84,272.5249,648.6399,273.7585,654.1606,268.2378,655.3942,277.98,656.84" style="stroke:#008000;stroke-width:1.0;"/><path d="M236,595 L236,622 L351,622 L351,605 L341,595 L236,595 " fill="#FEFFDD" style="stroke:#181818;stroke-width:0.5;"/><path d="M341,595 L341,605 L351,605 L341,595 " fill="#FEFFDD" style="stroke:#181818;stroke-width:0.5;"/><text fill="#000000" font-family="sans-serif" font-size="13" lengthAdjust="spacing" textLength="94" x="242" y="613.897">editarProfesor()</text></g><!--link asignarProfesorACurso to PROFESOR_ABIERTO--><g id="link_asignarProfesorACurso_PROFESOR_ABIERTO"><path d="M355.7,560.15 C358.35,578.58 360,590 360,590 C360,590 360,627 360,627 C360,627 351.1922,637.8204 339.4722,652.1904 " fill="none" id="asignarProfesorACurso-to-PROFESOR_ABIERTO-1" style="stroke:#FF0000;stroke-width:1.0;"/><polygon fill="#FF0000" points="335.68,656.84,344.4681,652.3937,338.8402,652.9653,338.2685,647.3374,335.68,656.84" style="stroke:#FF0000;stroke-width:1.0;"/><path d="M365,595 L365,622 L483,622 L483,605 L473,595 L365,595 " fill="#FEFFDD" style="stroke:#181818;stroke-width:0.5;"/><path d="M473,595 L473,605 L483,605 L473,595 " fill="#FEFFDD" style="stroke:#181818;stroke-width:0.5;"/><text fill="#000000" font-family="sans-serif" font-size="13" lengthAdjust="spacing" textLength="97" x="371" y="613.897">cancelar gesti&#243;n</text></g><!--SRC=[fLJHIiCm57tFLrpcooOCtsKCgamHX8tDjp4aQwubBBqfIVTGHF1R_0K_mJ_nIqoxfROpdU9IA2Gvzznpxht4RYHbtF0Kb2JCYmmXqweeDupPdES8tCg4k9aP_OHMc-XwQwnsfz0BtlG7FNXc3DpQnVVSvz2tQ7EfYPFGKHKNkntQ073BZJY4mOvnURw2uV8iCOYq6ewxIA42atQacafdc-fWj1v78fKaRMwuq6PqiHw3rKh6CkVU9yIb2mjSGROtLWKZYHsZMwp-TGbeYGmPwbIuSEemvPMspA15SjgICit7Eu7m_MYmVBw-mRsBukNjNhsGDjCar-e8fl2UHS1kK0wQL3h5lcJcikPk5Q-HlGO8j6sCJrqZagfC9kmlvXIZShU-4gsUDFeH79u_ZCp94tDe-Z_Qt7Z_HuUlN06MAzaULtOyjK5nGk9Vki9U60k_7atJi_dqPhAOpX-Zgxl9_67AMY9Gb8Fcm_i3zitUIRqtTPpuf_QQ-Gi0]--></g></svg>