<?xml version="1.0" encoding="us-ascii" standalone="no"?><svg xmlns="http://www.w3.org/2000/svg" xmlns:xlink="http://www.w3.org/1999/xlink" contentStyleType="text/css" height="457px" preserveAspectRatio="none" style="width:439px;height:457px;background:#FFFFFF;" version="1.1" viewBox="0 0 439 457" width="439px" zoomAndPan="magnify"><defs/><g><text fill="#000000" font-family="sans-serif" font-size="12" font-weight="bold" lengthAdjust="spacing" textLength="193" x="6" y="18.8281">ASIGNAR CURSOS AL PROFESOR</text><line style="stroke:#AAAAAA;stroke-width:1.0;" x1="6" x2="432" y1="26.8441" y2="26.8441"/><line style="stroke:#AAAAAA;stroke-width:1.0;" x1="6" x2="432" y1="28.8441" y2="28.8441"/><text fill="#000000" font-family="sans-serif" font-size="12" font-weight="bold" lengthAdjust="spacing" textLength="116" x="8" y="47.1722">Cursos disponibles:</text><text fill="#000000" font-family="sans-serif" font-size="12" font-weight="bold" lengthAdjust="spacing" textLength="107" x="234" y="47.1722">Cursos asignados:</text><line style="stroke:#AAAAAA;stroke-width:1.0;" x1="8" x2="233" y1="56.1882" y2="56.1882"/><text fill="#000000" font-family="sans-serif" font-size="12" lengthAdjust="spacing" textLength="74" x="13" y="75.5163">Matem&#225;tica I</text><line style="stroke:#000000;stroke-width:1.0;" x1="11" x2="222" y1="79.0323" y2="79.0323"/><line style="stroke:#000000;stroke-width:1.0;" x1="11" x2="11" y1="76.0323" y2="78.0323"/><line style="stroke:#000000;stroke-width:1.0;" x1="222" x2="222" y1="76.0323" y2="78.0323"/><text fill="#000000" font-family="sans-serif" font-size="12" lengthAdjust="spacing" textLength="38" x="13" y="95.8604">F&#237;sica I</text><line style="stroke:#000000;stroke-width:1.0;" x1="11" x2="222" y1="99.3765" y2="99.3765"/><line style="stroke:#000000;stroke-width:1.0;" x1="11" x2="11" y1="96.3765" y2="98.3765"/><line style="stroke:#000000;stroke-width:1.0;" x1="222" x2="222" y1="96.3765" y2="98.3765"/><text fill="#000000" font-family="sans-serif" font-size="12" lengthAdjust="spacing" textLength="94" x="13" y="116.2045">Qu&#237;mica General</text><line style="stroke:#000000;stroke-width:1.0;" x1="11" x2="222" y1="119.7206" y2="119.7206"/><line style="stroke:#000000;stroke-width:1.0;" x1="11" x2="11" y1="116.7206" y2="118.7206"/><line style="stroke:#000000;stroke-width:1.0;" x1="222" x2="222" y1="116.7206" y2="118.7206"/><text fill="#000000" font-family="sans-serif" font-size="12" lengthAdjust="spacing" textLength="86" x="13" y="136.5487">Programaci&#243;n I</text><line style="stroke:#000000;stroke-width:1.0;" x1="11" x2="222" y1="140.0647" y2="140.0647"/><line style="stroke:#000000;stroke-width:1.0;" x1="11" x2="11" y1="137.0647" y2="139.0647"/><line style="stroke:#000000;stroke-width:1.0;" x1="222" x2="222" y1="137.0647" y2="139.0647"/><text fill="#000000" font-family="sans-serif" font-size="12" lengthAdjust="spacing" textLength="105" x="13" y="156.8928">C&#225;lculo Diferencial</text><line style="stroke:#000000;stroke-width:1.0;" x1="11" x2="222" y1="160.4088" y2="160.4088"/><line style="stroke:#000000;stroke-width:1.0;" x1="11" x2="11" y1="157.4088" y2="159.4088"/><line style="stroke:#000000;stroke-width:1.0;" x1="222" x2="222" y1="157.4088" y2="159.4088"/><text fill="#000000" font-family="sans-serif" font-size="12" lengthAdjust="spacing" textLength="100" x="13" y="177.2369">Estad&#237;stica B&#225;sica</text><line style="stroke:#000000;stroke-width:1.0;" x1="11" x2="222" y1="180.7529" y2="180.7529"/><line style="stroke:#000000;stroke-width:1.0;" x1="11" x2="11" y1="177.7529" y2="179.7529"/><line style="stroke:#000000;stroke-width:1.0;" x1="222" x2="222" y1="177.7529" y2="179.7529"/><text fill="#000000" font-family="sans-serif" font-size="12" lengthAdjust="spacing" textLength="100" x="13" y="197.581">Historia Universal</text><line style="stroke:#000000;stroke-width:1.0;" x1="11" x2="222" y1="201.097" y2="201.097"/><line style="stroke:#000000;stroke-width:1.0;" x1="11" x2="11" y1="198.097" y2="200.097"/><line style="stroke:#000000;stroke-width:1.0;" x1="222" x2="222" y1="198.097" y2="200.097"/><text fill="#000000" font-family="sans-serif" font-size="12" lengthAdjust="spacing" textLength="78" x="13" y="219.9251">Matem&#225;tica II</text><line style="stroke:#000000;stroke-width:1.0;" x1="11" x2="222" y1="223.4411" y2="223.4411"/><line style="stroke:#000000;stroke-width:1.0;" x1="11" x2="11" y1="220.4411" y2="222.4411"/><line style="stroke:#000000;stroke-width:1.0;" x1="222" x2="222" y1="220.4411" y2="222.4411"/><text fill="#000000" font-family="sans-serif" font-size="12" lengthAdjust="spacing" textLength="42" x="13" y="240.2692">F&#237;sica II</text><line style="stroke:#000000;stroke-width:1.0;" x1="11" x2="222" y1="243.7853" y2="243.7853"/><line style="stroke:#000000;stroke-width:1.0;" x1="11" x2="11" y1="240.7853" y2="242.7853"/><line style="stroke:#000000;stroke-width:1.0;" x1="222" x2="222" y1="240.7853" y2="242.7853"/><text fill="#000000" font-family="sans-serif" font-size="12" lengthAdjust="spacing" textLength="137" x="13" y="260.6133">Algoritmos y Estructuras</text><line style="stroke:#000000;stroke-width:1.0;" x1="11" x2="222" y1="264.1294" y2="264.1294"/><line style="stroke:#000000;stroke-width:1.0;" x1="11" x2="11" y1="261.1294" y2="263.1294"/><line style="stroke:#000000;stroke-width:1.0;" x1="222" x2="222" y1="261.1294" y2="263.1294"/><text fill="#000000" font-family="sans-serif" font-size="12" lengthAdjust="spacing" textLength="88" x="13" y="280.9575">Base de Datos I</text><line style="stroke:#000000;stroke-width:1.0;" x1="11" x2="222" y1="284.4735" y2="284.4735"/><line style="stroke:#000000;stroke-width:1.0;" x1="11" x2="11" y1="281.4735" y2="283.4735"/><line style="stroke:#000000;stroke-width:1.0;" x1="222" x2="222" y1="281.4735" y2="283.4735"/><line style="stroke:#AAAAAA;stroke-width:1.5;" x1="8" x2="233" y1="293.9735" y2="293.9735"/><rect fill="#EEEEEE" height="20.3441" rx="5" ry="5" style="stroke:#000000;stroke-width:2.5;" width="84" x="11.5" y="301.9735"/><text fill="#000000" font-family="sans-serif" font-size="12" lengthAdjust="spacing" textLength="60" x="23.5" y="316.8016">Asignar &gt;&gt;</text><rect fill="#EEEEEE" height="20.3441" rx="5" ry="5" style="stroke:#000000;stroke-width:2.5;" width="108" x="102.5" y="301.9735"/><text fill="#000000" font-family="sans-serif" font-size="12" lengthAdjust="spacing" textLength="81" x="116" y="316.8016">&lt;&lt; Desasignar</text><line style="stroke:#AAAAAA;stroke-width:1.5;" x1="8" x2="233" y1="331.3176" y2="331.3176"/><text fill="#000000" font-family="sans-serif" font-size="12" font-weight="bold" lengthAdjust="spacing" textLength="158" x="8" y="348.6457">Resumen de asignaciones:</text><text fill="#000000" font-family="sans-serif" font-size="12" lengthAdjust="spacing" textLength="147" x="12" y="367.9898">Total cursos disponibles: 7</text><line style="stroke:#000000;stroke-width:1.0;" x1="10" x2="229" y1="371.5058" y2="371.5058"/><line style="stroke:#000000;stroke-width:1.0;" x1="10" x2="10" y1="368.5058" y2="370.5058"/><line style="stroke:#000000;stroke-width:1.0;" x1="229" x2="229" y1="368.5058" y2="370.5058"/><text fill="#000000" font-family="sans-serif" font-size="12" lengthAdjust="spacing" textLength="141" x="12" y="388.3339">Total cursos asignados: 4</text><line style="stroke:#000000;stroke-width:1.0;" x1="10" x2="213" y1="391.8499" y2="391.8499"/><line style="stroke:#000000;stroke-width:1.0;" x1="10" x2="10" y1="388.8499" y2="390.8499"/><line style="stroke:#000000;stroke-width:1.0;" x1="213" x2="213" y1="388.8499" y2="390.8499"/><text fill="#000000" font-family="sans-serif" font-size="12" lengthAdjust="spacing" textLength="159" x="12" y="408.678">Profesor: Dr. Manuel Mas&#237;as</text><line style="stroke:#000000;stroke-width:1.0;" x1="10" x2="229" y1="412.1941" y2="412.1941"/><line style="stroke:#000000;stroke-width:1.0;" x1="10" x2="10" y1="409.1941" y2="411.1941"/><line style="stroke:#000000;stroke-width:1.0;" x1="229" x2="229" y1="409.1941" y2="411.1941"/><line style="stroke:#AAAAAA;stroke-width:1.5;" x1="6" x2="432" y1="422.6941" y2="422.6941"/><rect fill="#EEEEEE" height="20.3441" rx="5" ry="5" style="stroke:#000000;stroke-width:2.5;" width="164" x="9.5" y="430.6941"/><text fill="#000000" font-family="sans-serif" font-size="12" lengthAdjust="spacing" textLength="123" x="30" y="445.5221">Guardar asignaciones</text><rect fill="#EEEEEE" height="20.3441" rx="5" ry="5" style="stroke:#000000;stroke-width:2.5;" width="172" x="180.5" y="430.6941"/><text fill="#000000" font-family="sans-serif" font-size="12" lengthAdjust="spacing" textLength="127" x="203" y="445.5221">Continuar gestionando</text><rect fill="#EEEEEE" height="20.3441" rx="5" ry="5" style="stroke:#000000;stroke-width:2.5;" width="68" x="359.5" y="430.6941"/><text fill="#000000" font-family="sans-serif" font-size="12" lengthAdjust="spacing" textLength="50" x="368.5" y="445.5221">Cancelar</text><!--SRC=[ZLHBSjf04DtFARfOsGiSJ72IKW5bFe90810-thYy6AH6cIffnZKVKYuRtuK3iCeHTB6CH088CB4sy-dNJzslk-TMQIgreg46gbZ0gHnACKSbPArXf1BvNqpYND88oJC1-vLdrTguq_vU6q5ZEXeFnb3hmN0qQBdZmQZyOLPDKPLA9LqtFjcTPKYf5VXCFGhEPY4g9t65bptZ9XnVR4nRxtp-1ENnATUd6gDufPb7eGEPBmTPQ2jUgnEmr9P5_Z3nEagWRUGeQVWsqgeOMDMen-BVFCjyW6p4gz0peO0ccwD4xh4jxm7IjRNoRQnfJlLubGPz6lgLAIqaep3bR85IxKBD0fUPqykx1UsSKschP-T_UjR2m4Qf8rlk9x3fIUDf8waw0jQfGl0HcbHRRETDnbq-kzrsy_fwVFTyNzkqFLIh3xR_xijbQABwEmiFxsInNJj2PIBaIP0RPuy9ZWVDUo3fH6XR6Ezu6E1pxWnoDnbGEcwxT7WTQCehw5DkCBIBYjTKvSWvbPPaFyCzVTg6Ij_givzLgbH3SCsujKA0jYS5fzmN6mlb7ePR-PPaIMwH-yahGyWmf5nF-pr8-j9wmVLLiL0iNNsycFmqqC8PNDz0iU2K2axX1Xhk11Bp9Rbe3tkB8YXXf8U9MbgocKd-UqcwT45XP6my4JemU4JURNxxTm4kNp0fkAsE9jsx_WxmgPIlCmrZb3OMkEkJ9iwfiK-XoptXCnuuC9sqybz8Z_B0qC1oeo8DONdbamFk-0y0]--></g></svg>