<?xml version="1.0" encoding="us-ascii" standalone="no"?><svg xmlns="http://www.w3.org/2000/svg" xmlns:xlink="http://www.w3.org/1999/xlink" contentStyleType="text/css" height="1529px" preserveAspectRatio="none" style="width:1585px;height:1529px;background:#FFFFFF;" version="1.1" viewBox="0 0 1585 1529" width="1585px" zoomAndPan="magnify"><defs/><g><text fill="#000000" font-family="sans-serif" font-size="14" font-weight="bold" lengthAdjust="spacing" textLength="268" x="654.5" y="29.9659">An&#225;lisis de Colaboraci&#243;n: editarCurso()</text><rect fill="#FFFFFF" height="1301.4224" style="stroke:#181818;stroke-width:1.0;" width="10" x="736" y="134.1358"/><rect fill="#FFFFFF" height="95.118" style="stroke:#181818;stroke-width:1.0;" width="10" x="992" y="457.1598"/><rect fill="#FFFFFF" height="217.6481" style="stroke:#181818;stroke-width:1.0;" width="10" x="992" y="835.75"/><rect fill="#FFFFFF" height="31.706" style="stroke:#181818;stroke-width:1.0;" width="10" x="1206" y="488.8658"/><rect fill="#FFFFFF" height="31.706" style="stroke:#181818;stroke-width:1.0;" width="10" x="1206" y="989.9861"/><rect fill="#FFFFFF" height="61.265" style="stroke:#181818;stroke-width:1.0;" width="10" x="1302" y="897.0151"/><rect fill="none" height="148.7878" style="stroke:#000000;stroke-width:1.5;" width="797" x="12" y="277.6659"/><rect fill="none" height="393.5902" style="stroke:#000000;stroke-width:1.5;" width="905" x="663" y="792.338"/><rect fill="none" height="110.5301" style="stroke:#000000;stroke-width:1.5;" width="558" x="673" y="1068.3982"/><rect fill="none" height="182.924" style="stroke:#000000;stroke-width:1.5;" width="597" x="441" y="1245.6343"/><line style="stroke:#181818;stroke-width:0.5;stroke-dasharray:5.0,5.0;" x1="76" x2="76" y1="124.1358" y2="1445.5583"/><line style="stroke:#181818;stroke-width:0.5;stroke-dasharray:5.0,5.0;" x1="192" x2="192" y1="124.1358" y2="1445.5583"/><line style="stroke:#181818;stroke-width:0.5;stroke-dasharray:5.0,5.0;" x1="347" x2="347" y1="124.1358" y2="1445.5583"/><line style="stroke:#181818;stroke-width:0.5;stroke-dasharray:5.0,5.0;" x1="547" x2="547" y1="124.1358" y2="1445.5583"/><line style="stroke:#181818;stroke-width:0.5;stroke-dasharray:5.0,5.0;" x1="741" x2="741" y1="124.1358" y2="1445.5583"/><line style="stroke:#181818;stroke-width:0.5;stroke-dasharray:5.0,5.0;" x1="997" x2="997" y1="124.1358" y2="1445.5583"/><line style="stroke:#181818;stroke-width:0.5;stroke-dasharray:5.0,5.0;" x1="1211" x2="1211" y1="124.1358" y2="1445.5583"/><line style="stroke:#181818;stroke-width:0.5;stroke-dasharray:5.0,5.0;" x1="1307" x2="1307" y1="124.1358" y2="1445.5583"/><text fill="#000000" font-family="sans-serif" font-size="14" lengthAdjust="spacing" textLength="103" x="22" y="120.0339">:Cursos Abierto</text><ellipse cx="76.5" cy="53.5679" fill="#E2E2F0" rx="8" ry="8" style="stroke:#181818;stroke-width:0.5;"/><path d="M76.5,61.5679 L76.5,88.5679 M63.5,69.5679 L89.5,69.5679 M76.5,88.5679 L63.5,103.5679 M76.5,88.5679 L89.5,103.5679 " fill="none" style="stroke:#181818;stroke-width:0.5;"/><text fill="#000000" font-family="sans-serif" font-size="14" lengthAdjust="spacing" textLength="103" x="22" y="1459.5242">:Cursos Abierto</text><ellipse cx="76.5" cy="1472.1262" fill="#E2E2F0" rx="8" ry="8" style="stroke:#181818;stroke-width:0.5;"/><path d="M76.5,1480.1262 L76.5,1507.1262 M63.5,1488.1262 L89.5,1488.1262 M76.5,1507.1262 L63.5,1522.1262 M76.5,1507.1262 L89.5,1522.1262 " fill="none" style="stroke:#181818;stroke-width:0.5;"/><text fill="#000000" font-family="sans-serif" font-size="14" lengthAdjust="spacing" textLength="96" x="141" y="120.0339">:Curso Abierto</text><ellipse cx="192" cy="53.5679" fill="#E2E2F0" rx="8" ry="8" style="stroke:#181818;stroke-width:0.5;"/><path d="M192,61.5679 L192,88.5679 M179,69.5679 L205,69.5679 M192,88.5679 L179,103.5679 M192,88.5679 L205,103.5679 " fill="none" style="stroke:#181818;stroke-width:0.5;"/><text fill="#000000" font-family="sans-serif" font-size="14" lengthAdjust="spacing" textLength="96" x="141" y="1459.5242">:Curso Abierto</text><ellipse cx="192" cy="1472.1262" fill="#E2E2F0" rx="8" ry="8" style="stroke:#181818;stroke-width:0.5;"/><path d="M192,1480.1262 L192,1507.1262 M179,1488.1262 L205,1488.1262 M192,1507.1262 L179,1522.1262 M192,1507.1262 L205,1522.1262 " fill="none" style="stroke:#181818;stroke-width:0.5;"/><rect fill="#E2E2F0" height="33.0679" rx="2.5" ry="2.5" style="stroke:#181818;stroke-width:0.5;" width="188" x="253" y="90.0679"/><text fill="#000000" font-family="sans-serif" font-size="14" lengthAdjust="spacing" textLength="174" x="260" y="112.0339">:Collaboration CrearCurso</text><rect fill="#E2E2F0" height="33.0679" rx="2.5" ry="2.5" style="stroke:#181818;stroke-width:0.5;" width="188" x="253" y="1444.5583"/><text fill="#000000" font-family="sans-serif" font-size="14" lengthAdjust="spacing" textLength="174" x="260" y="1466.5242">:Collaboration CrearCurso</text><rect fill="#E2E2F0" height="33.0679" rx="2.5" ry="2.5" style="stroke:#181818;stroke-width:0.5;" width="192" x="451" y="90.0679"/><text fill="#000000" font-family="sans-serif" font-size="14" lengthAdjust="spacing" textLength="178" x="458" y="112.0339">:Collaboration AbrirCursos</text><rect fill="#E2E2F0" height="33.0679" rx="2.5" ry="2.5" style="stroke:#181818;stroke-width:0.5;" width="192" x="451" y="1444.5583"/><text fill="#000000" font-family="sans-serif" font-size="14" lengthAdjust="spacing" textLength="178" x="458" y="1466.5242">:Collaboration AbrirCursos</text><text fill="#000000" font-family="sans-serif" font-size="14" font-style="italic" lengthAdjust="spacing" textLength="75" x="700.5" y="100.9659">&#171;boundary&#187;</text><text fill="#000000" font-family="sans-serif" font-size="14" lengthAdjust="spacing" textLength="110" x="683" y="120.0339">EditarCursoView</text><path d="M720.5,58 L720.5,82 M720.5,70 L737.5,70 " fill="none" style="stroke:#181818;stroke-width:0.5;"/><ellipse cx="749.5" cy="70" fill="#E2E2F0" rx="12" ry="12" style="stroke:#181818;stroke-width:0.5;"/><text fill="#000000" font-family="sans-serif" font-size="14" font-style="italic" lengthAdjust="spacing" textLength="75" x="700.5" y="1459.5242">&#171;boundary&#187;</text><text fill="#000000" font-family="sans-serif" font-size="14" lengthAdjust="spacing" textLength="110" x="683" y="1478.5921">EditarCursoView</text><path d="M720.5,1486.6941 L720.5,1510.6941 M720.5,1498.6941 L737.5,1498.6941 " fill="none" style="stroke:#181818;stroke-width:0.5;"/><ellipse cx="749.5" cy="1498.6941" fill="#E2E2F0" rx="12" ry="12" style="stroke:#181818;stroke-width:0.5;"/><text fill="#000000" font-family="sans-serif" font-size="14" font-style="italic" lengthAdjust="spacing" textLength="59" x="964.5" y="100.9659">&#171;control&#187;</text><text fill="#000000" font-family="sans-serif" font-size="14" lengthAdjust="spacing" textLength="106" x="941" y="120.0339">CursoController</text><ellipse cx="997" cy="70" fill="#E2E2F0" rx="12" ry="12" style="stroke:#181818;stroke-width:0.5;"/><polygon fill="#181818" points="993,58,999,53,997,58,999,63,993,58" style="stroke:#181818;stroke-width:1.0;"/><text fill="#000000" font-family="sans-serif" font-size="14" font-style="italic" lengthAdjust="spacing" textLength="59" x="964.5" y="1459.5242">&#171;control&#187;</text><text fill="#000000" font-family="sans-serif" font-size="14" lengthAdjust="spacing" textLength="106" x="941" y="1478.5921">CursoController</text><ellipse cx="997" cy="1498.6941" fill="#E2E2F0" rx="12" ry="12" style="stroke:#181818;stroke-width:0.5;"/><polygon fill="#181818" points="993,1486.6941,999,1481.6941,997,1486.6941,999,1491.6941,993,1486.6941" style="stroke:#181818;stroke-width:1.0;"/><text fill="#000000" font-family="sans-serif" font-size="14" font-style="italic" lengthAdjust="spacing" textLength="50" x="1183" y="100.9659">&#171;entity&#187;</text><text fill="#000000" font-family="sans-serif" font-size="14" lengthAdjust="spacing" textLength="110" x="1153" y="120.0339">CursoRepository</text><ellipse cx="1211" cy="70" fill="#E2E2F0" rx="12" ry="12" style="stroke:#181818;stroke-width:0.5;"/><line style="stroke:#181818;stroke-width:0.5;" x1="1199" x2="1223" y1="84" y2="84"/><text fill="#000000" font-family="sans-serif" font-size="14" font-style="italic" lengthAdjust="spacing" textLength="50" x="1183" y="1459.5242">&#171;entity&#187;</text><text fill="#000000" font-family="sans-serif" font-size="14" lengthAdjust="spacing" textLength="110" x="1153" y="1478.5921">CursoRepository</text><ellipse cx="1211" cy="1498.6941" fill="#E2E2F0" rx="12" ry="12" style="stroke:#181818;stroke-width:0.5;"/><line style="stroke:#181818;stroke-width:0.5;" x1="1199" x2="1223" y1="1512.6941" y2="1512.6941"/><text fill="#000000" font-family="sans-serif" font-size="14" font-style="italic" lengthAdjust="spacing" textLength="50" x="1279" y="100.9659">&#171;entity&#187;</text><text fill="#000000" font-family="sans-serif" font-size="14" lengthAdjust="spacing" textLength="39" x="1284.5" y="120.0339">Curso</text><ellipse cx="1307" cy="70" fill="#E2E2F0" rx="12" ry="12" style="stroke:#181818;stroke-width:0.5;"/><line style="stroke:#181818;stroke-width:0.5;" x1="1295" x2="1319" y1="84" y2="84"/><text fill="#000000" font-family="sans-serif" font-size="14" font-style="italic" lengthAdjust="spacing" textLength="50" x="1279" y="1459.5242">&#171;entity&#187;</text><text fill="#000000" font-family="sans-serif" font-size="14" lengthAdjust="spacing" textLength="39" x="1284.5" y="1478.5921">Curso</text><ellipse cx="1307" cy="1498.6941" fill="#E2E2F0" rx="12" ry="12" style="stroke:#181818;stroke-width:0.5;"/><line style="stroke:#181818;stroke-width:0.5;" x1="1295" x2="1319" y1="1512.6941" y2="1512.6941"/><rect fill="#FFFFFF" height="1301.4224" style="stroke:#181818;stroke-width:1.0;" width="10" x="736" y="134.1358"/><rect fill="#FFFFFF" height="95.118" style="stroke:#181818;stroke-width:1.0;" width="10" x="992" y="457.1598"/><rect fill="#FFFFFF" height="217.6481" style="stroke:#181818;stroke-width:1.0;" width="10" x="992" y="835.75"/><rect fill="#FFFFFF" height="31.706" style="stroke:#181818;stroke-width:1.0;" width="10" x="1206" y="488.8658"/><rect fill="#FFFFFF" height="31.706" style="stroke:#181818;stroke-width:1.0;" width="10" x="1206" y="989.9861"/><rect fill="#FFFFFF" height="61.265" style="stroke:#181818;stroke-width:1.0;" width="10" x="1302" y="897.0151"/><rect fill="#EEEEEE" height="3" style="stroke:#EEEEEE;stroke-width:1.0;" width="1578" x="0" y="155.9888"/><line style="stroke:#000000;stroke-width:1.0;" x1="0" x2="1578" y1="155.9888" y2="155.9888"/><line style="stroke:#000000;stroke-width:1.0;" x1="0" x2="1578" y1="158.9888" y2="158.9888"/><rect fill="#EEEEEE" height="25.706" style="stroke:#000000;stroke-width:2.0;" width="271" x="653.5" y="144.1358"/><text fill="#000000" font-family="sans-serif" font-size="13" font-weight="bold" lengthAdjust="spacing" textLength="254" x="659.5" y="162.0328">Flujo Principal: Editar Curso Acad&#233;mico</text><path d="M5,184.8419 L5,264.8419 L419,264.8419 L419,194.8419 L409,184.8419 L5,184.8419 " fill="#FEFFDD" style="stroke:#181818;stroke-width:0.5;"/><path d="M409,184.8419 L409,194.8419 L419,194.8419 L409,184.8419 " fill="#FEFFDD" style="stroke:#181818;stroke-width:0.5;"/><text fill="#000000" font-family="sans-serif" font-size="13" font-weight="bold" lengthAdjust="spacing" textLength="189" x="75.5" y="203.7389">M&#250;ltiples puntos de entrada:</text><text fill="#000000" font-family="sans-serif" font-size="13" lengthAdjust="spacing" textLength="230" x="75.5" y="221.4449">&#8226; Desde lista de cursos (edici&#243;n directa)</text><text fill="#000000" font-family="sans-serif" font-size="13" lengthAdjust="spacing" textLength="264" x="75.5" y="239.1509">&#8226; Desde creaci&#243;n de curso (C&#8594;U autom&#225;tico)</text><text fill="#000000" font-family="sans-serif" font-size="13" lengthAdjust="spacing" textLength="257" x="75.5" y="256.8569">&#8226; Desde detalle de curso (continuar edici&#243;n)</text><path d="M12,277.6659 L75,277.6659 L75,287.3719 L65,297.3719 L12,297.3719 L12,277.6659 " fill="#EEEEEE" style="stroke:#000000;stroke-width:1.5;"/><rect fill="none" height="148.7878" style="stroke:#000000;stroke-width:1.5;" width="797" x="12" y="277.6659"/><text fill="#000000" font-family="sans-serif" font-size="13" font-weight="bold" lengthAdjust="spacing" textLength="18" x="27" y="292.5629">alt</text><text fill="#000000" font-family="sans-serif" font-size="11" font-weight="bold" lengthAdjust="spacing" textLength="114" x="90" y="291.4248">[Entrada desde lista]</text><polygon fill="#181818" points="724,317.0779,734,321.0779,724,325.0779,728,321.0779" style="stroke:#181818;stroke-width:1.0;"/><line style="stroke:#181818;stroke-width:1.0;" x1="76.5" x2="730" y1="321.0779" y2="321.0779"/><text fill="#000000" font-family="sans-serif" font-size="13" lengthAdjust="spacing" textLength="143" x="83.5" y="315.2689">1a: editarCurso(cursoId)</text><line style="stroke:#000000;stroke-width:1.0;stroke-dasharray:2.0,2.0;" x1="12" x2="809" y1="330.0779" y2="330.0779"/><text fill="#000000" font-family="sans-serif" font-size="11" font-weight="bold" lengthAdjust="spacing" textLength="174" x="17" y="341.8369">[Entrada desde creaci&#243;n (C&#8594;U)]</text><polygon fill="#181818" points="724,365.7659,734,369.7659,724,373.7659,728,369.7659" style="stroke:#181818;stroke-width:1.0;"/><line style="stroke:#181818;stroke-width:1.0;" x1="347" x2="730" y1="369.7659" y2="369.7659"/><text fill="#000000" font-family="sans-serif" font-size="13" lengthAdjust="spacing" textLength="172" x="354" y="363.9569">1b: editarCurso(cursoNuevo)</text><line style="stroke:#000000;stroke-width:1.0;stroke-dasharray:2.0,2.0;" x1="12" x2="809" y1="378.7659" y2="378.7659"/><text fill="#000000" font-family="sans-serif" font-size="11" font-weight="bold" lengthAdjust="spacing" textLength="130" x="17" y="390.5248">[Entrada desde detalle]</text><polygon fill="#181818" points="724,414.4538,734,418.4538,724,422.4538,728,418.4538" style="stroke:#181818;stroke-width:1.0;"/><line style="stroke:#181818;stroke-width:1.0;" x1="192" x2="730" y1="418.4538" y2="418.4538"/><text fill="#000000" font-family="sans-serif" font-size="13" lengthAdjust="spacing" textLength="142" x="199" y="412.6448">1c: editarCurso(cursoId)</text><polygon fill="#181818" points="980,453.1598,990,457.1598,980,461.1598,984,457.1598" style="stroke:#181818;stroke-width:1.0;"/><line style="stroke:#181818;stroke-width:1.0;" x1="746" x2="986" y1="457.1598" y2="457.1598"/><text fill="#000000" font-family="sans-serif" font-size="13" lengthAdjust="spacing" textLength="209" x="753" y="451.3508">2: cargarCursoParaEdici&#243;n(cursoId)</text><polygon fill="#181818" points="1194,484.8658,1204,488.8658,1194,492.8658,1198,488.8658" style="stroke:#181818;stroke-width:1.0;"/><line style="stroke:#181818;stroke-width:1.0;" x1="1002" x2="1200" y1="488.8658" y2="488.8658"/><text fill="#000000" font-family="sans-serif" font-size="13" lengthAdjust="spacing" textLength="147" x="1009" y="483.0568">3: obtenerPorId(cursoId)</text><polygon fill="#181818" points="1013,516.5718,1003,520.5718,1013,524.5718,1009,520.5718" style="stroke:#181818;stroke-width:1.0;"/><line style="stroke:#181818;stroke-width:1.0;stroke-dasharray:2.0,2.0;" x1="1007" x2="1210" y1="520.5718" y2="520.5718"/><text fill="#000000" font-family="sans-serif" font-size="13" lengthAdjust="spacing" textLength="90" x="1019" y="514.7628">4: curso : Curso</text><polygon fill="#181818" points="757,548.2778,747,552.2778,757,556.2778,753,552.2778" style="stroke:#181818;stroke-width:1.0;"/><line style="stroke:#181818;stroke-width:1.0;stroke-dasharray:2.0,2.0;" x1="751" x2="996" y1="552.2778" y2="552.2778"/><text fill="#000000" font-family="sans-serif" font-size="13" lengthAdjust="spacing" textLength="126" x="763" y="546.4688">5: datosCurso : Curso</text><line style="stroke:#181818;stroke-width:1.0;" x1="746" x2="788" y1="651.3079" y2="651.3079"/><line style="stroke:#181818;stroke-width:1.0;" x1="788" x2="788" y1="651.3079" y2="664.3079"/><line style="stroke:#181818;stroke-width:1.0;" x1="747" x2="788" y1="664.3079" y2="664.3079"/><polygon fill="#181818" points="757,660.3079,747,664.3079,757,668.3079,753,664.3079" style="stroke:#181818;stroke-width:1.0;"/><text fill="#000000" font-family="sans-serif" font-size="13" lengthAdjust="spacing" textLength="167" x="753" y="645.4989">6: presenta datos de edici&#243;n</text><path d="M932,565.2778 L932,734.2778 L1197,734.2778 L1197,575.2778 L1187,565.2778 L932,565.2778 " fill="#FEFFDD" style="stroke:#181818;stroke-width:0.5;"/><path d="M1187,565.2778 L1187,575.2778 L1197,575.2778 L1187,565.2778 " fill="#FEFFDD" style="stroke:#181818;stroke-width:0.5;"/><text fill="#000000" font-family="sans-serif" font-size="13" font-weight="bold" lengthAdjust="spacing" textLength="223" x="938" y="584.1748">Sistema presenta datos de edici&#243;n</text><text fill="#000000" font-family="sans-serif" font-size="13" lengthAdjust="spacing" textLength="236" x="938" y="601.8809">&#8226; C&#243;digo, nombre, descripci&#243;n del curso</text><text fill="#000000" font-family="sans-serif" font-size="13" lengthAdjust="spacing" textLength="244" x="938" y="619.5869">&#8226; Cr&#233;ditos, horas te&#243;ricas, horas pr&#225;cticas</text><text fill="#000000" font-family="sans-serif" font-size="13" lengthAdjust="spacing" textLength="191" x="938" y="637.2929">&#8226; Programa acad&#233;mico asociado</text><text fill="#000000" font-family="sans-serif" font-size="13" lengthAdjust="spacing" textLength="3" x="938" y="654.9989">&#160;</text><text fill="#000000" font-family="sans-serif" font-size="13" font-weight="bold" lengthAdjust="spacing" textLength="168" x="938" y="672.7049">Sistema permite solicitar:</text><text fill="#000000" font-family="sans-serif" font-size="13" lengthAdjust="spacing" textLength="114" x="938" y="690.4109">&#8226; modificar campos</text><text fill="#000000" font-family="sans-serif" font-size="13" lengthAdjust="spacing" textLength="92" x="938" y="708.117">&#8226; guardar curso</text><text fill="#000000" font-family="sans-serif" font-size="13" lengthAdjust="spacing" textLength="103" x="938" y="725.823">&#8226; cancelar edici&#243;n</text><rect fill="#EEEEEE" height="3" style="stroke:#EEEEEE;stroke-width:1.0;" width="1578" x="0" y="761.485"/><line style="stroke:#000000;stroke-width:1.0;" x1="0" x2="1578" y1="761.485" y2="761.485"/><line style="stroke:#000000;stroke-width:1.0;" x1="0" x2="1578" y1="764.485" y2="764.485"/><rect fill="#EEEEEE" height="25.706" style="stroke:#000000;stroke-width:2.0;" width="181" x="698.5" y="749.632"/><text fill="#000000" font-family="sans-serif" font-size="13" font-weight="bold" lengthAdjust="spacing" textLength="164" x="704.5" y="767.529">Ciclo de Edici&#243;n Continua</text><path d="M663,792.338 L736,792.338 L736,802.044 L726,812.044 L663,812.044 L663,792.338 " fill="#EEEEEE" style="stroke:#000000;stroke-width:1.5;"/><rect fill="none" height="393.5902" style="stroke:#000000;stroke-width:1.5;" width="905" x="663" y="792.338"/><text fill="#000000" font-family="sans-serif" font-size="13" font-weight="bold" lengthAdjust="spacing" textLength="28" x="678" y="807.235">loop</text><text fill="#000000" font-family="sans-serif" font-size="11" font-weight="bold" lengthAdjust="spacing" textLength="99" x="751" y="806.0969">[Edici&#243;n continua]</text><polygon fill="#181818" points="980,831.75,990,835.75,980,839.75,984,835.75" style="stroke:#181818;stroke-width:1.0;"/><line style="stroke:#181818;stroke-width:1.0;" x1="746" x2="986" y1="835.75" y2="835.75"/><text fill="#000000" font-family="sans-serif" font-size="13" lengthAdjust="spacing" textLength="227" x="753" y="829.941">7: modificarCampos(cursoId, cambios)</text><polygon fill="#181818" points="1290,893.0151,1300,897.0151,1290,901.0151,1294,897.0151" style="stroke:#181818;stroke-width:1.0;"/><line style="stroke:#181818;stroke-width:1.0;" x1="1002" x2="1296" y1="897.0151" y2="897.0151"/><text fill="#000000" font-family="sans-serif" font-size="13" lengthAdjust="spacing" textLength="162" x="1009" y="891.2061">8: aplicarCambios(cambios)</text><path d="M1317,848.75 L1317,928.75 L1563,928.75 L1563,858.75 L1553,848.75 L1317,848.75 " fill="#FEFFDD" style="stroke:#181818;stroke-width:0.5;"/><path d="M1553,848.75 L1553,858.75 L1563,858.75 L1553,848.75 " fill="#FEFFDD" style="stroke:#181818;stroke-width:0.5;"/><text fill="#000000" font-family="sans-serif" font-size="13" font-weight="bold" lengthAdjust="spacing" textLength="182" x="1323" y="867.647">Modificaciones acad&#233;micas:</text><text fill="#000000" font-family="sans-serif" font-size="13" lengthAdjust="spacing" textLength="225" x="1323" y="885.3531">&#8226; Validar coherencia de cr&#233;ditos/horas</text><text fill="#000000" font-family="sans-serif" font-size="13" lengthAdjust="spacing" textLength="206" x="1323" y="903.0591">&#8226; Verificar restricciones curriculares</text><text fill="#000000" font-family="sans-serif" font-size="13" lengthAdjust="spacing" textLength="187" x="1323" y="920.7651">&#8226; Mantener integridad de datos</text><polygon fill="#181818" points="1013,954.2801,1003,958.2801,1013,962.2801,1009,958.2801" style="stroke:#181818;stroke-width:1.0;"/><line style="stroke:#181818;stroke-width:1.0;stroke-dasharray:2.0,2.0;" x1="1007" x2="1306" y1="958.2801" y2="958.2801"/><text fill="#000000" font-family="sans-serif" font-size="13" lengthAdjust="spacing" textLength="157" x="1019" y="952.4711">9: cursoModificado : Curso</text><polygon fill="#181818" points="1194,985.9861,1204,989.9861,1194,993.9861,1198,989.9861" style="stroke:#181818;stroke-width:1.0;"/><line style="stroke:#181818;stroke-width:1.0;" x1="1002" x2="1200" y1="989.9861" y2="989.9861"/><text fill="#000000" font-family="sans-serif" font-size="13" lengthAdjust="spacing" textLength="185" x="1009" y="984.1771">10: actualizar(cursoModificado)</text><polygon fill="#181818" points="1013,1017.6921,1003,1021.6921,1013,1025.6921,1009,1021.6921" style="stroke:#181818;stroke-width:1.0;"/><line style="stroke:#181818;stroke-width:1.0;stroke-dasharray:2.0,2.0;" x1="1007" x2="1210" y1="1021.6921" y2="1021.6921"/><text fill="#000000" font-family="sans-serif" font-size="13" lengthAdjust="spacing" textLength="108" x="1019" y="1015.8831">11: &#233;xito : boolean</text><polygon fill="#181818" points="757,1049.3982,747,1053.3982,757,1057.3982,753,1053.3982" style="stroke:#181818;stroke-width:1.0;"/><line style="stroke:#181818;stroke-width:1.0;stroke-dasharray:2.0,2.0;" x1="751" x2="996" y1="1053.3982" y2="1053.3982"/><text fill="#000000" font-family="sans-serif" font-size="13" lengthAdjust="spacing" textLength="185" x="763" y="1047.5892">12: cambiosAplicados : boolean</text><path d="M673,1068.3982 L736,1068.3982 L736,1078.1042 L726,1088.1042 L673,1088.1042 L673,1068.3982 " fill="#EEEEEE" style="stroke:#000000;stroke-width:1.5;"/><rect fill="none" height="110.5301" style="stroke:#000000;stroke-width:1.5;" width="558" x="673" y="1068.3982"/><text fill="#000000" font-family="sans-serif" font-size="13" font-weight="bold" lengthAdjust="spacing" textLength="18" x="688" y="1083.2952">alt</text><text fill="#000000" font-family="sans-serif" font-size="11" font-weight="bold" lengthAdjust="spacing" textLength="116" x="751" y="1082.1571">[Continuar editando]</text><line style="stroke:#181818;stroke-width:1.0;" x1="746" x2="788" y1="1134.8692" y2="1134.8692"/><line style="stroke:#181818;stroke-width:1.0;" x1="788" x2="788" y1="1134.8692" y2="1147.8692"/><line style="stroke:#181818;stroke-width:1.0;" x1="747" x2="788" y1="1147.8692" y2="1147.8692"/><polygon fill="#181818" points="757,1143.8692,747,1147.8692,757,1151.8692,753,1147.8692" style="stroke:#181818;stroke-width:1.0;"/><text fill="#000000" font-family="sans-serif" font-size="13" lengthAdjust="spacing" textLength="161" x="753" y="1129.0602">13: mantiene edici&#243;n activa</text><path d="M926,1093.1042 L926,1173.1042 L1211,1173.1042 L1211,1103.1042 L1201,1093.1042 L926,1093.1042 " fill="#FEFFDD" style="stroke:#181818;stroke-width:0.5;"/><path d="M1201,1093.1042 L1201,1103.1042 L1211,1103.1042 L1201,1093.1042 " fill="#FEFFDD" style="stroke:#181818;stroke-width:0.5;"/><text fill="#000000" font-family="sans-serif" font-size="13" font-weight="bold" lengthAdjust="spacing" textLength="264" x="932" y="1112.0012">Administrador solicita modificar campos</text><text fill="#000000" font-family="sans-serif" font-size="13" lengthAdjust="spacing" textLength="167" x="932" y="1129.7072">&#8226; Sesi&#243;n de edici&#243;n continua</text><text fill="#000000" font-family="sans-serif" font-size="13" lengthAdjust="spacing" textLength="185" x="932" y="1147.4132">&#8226; Sin perder cambios realizados</text><text fill="#000000" font-family="sans-serif" font-size="13" lengthAdjust="spacing" textLength="216" x="932" y="1165.1192">&#8226; Permite modificaciones adicionales</text><rect fill="#EEEEEE" height="3" style="stroke:#EEEEEE;stroke-width:1.0;" width="1578" x="0" y="1214.7812"/><line style="stroke:#000000;stroke-width:1.0;" x1="0" x2="1578" y1="1214.7812" y2="1214.7812"/><line style="stroke:#000000;stroke-width:1.0;" x1="0" x2="1578" y1="1217.7812" y2="1217.7812"/><rect fill="#EEEEEE" height="25.706" style="stroke:#000000;stroke-width:2.0;" width="164" x="707" y="1202.9282"/><text fill="#000000" font-family="sans-serif" font-size="13" font-weight="bold" lengthAdjust="spacing" textLength="147" x="713" y="1220.8253">Finalizaci&#243;n de Edici&#243;n</text><path d="M441,1245.6343 L504,1245.6343 L504,1255.3403 L494,1265.3403 L441,1265.3403 L441,1245.6343 " fill="#EEEEEE" style="stroke:#000000;stroke-width:1.5;"/><rect fill="none" height="182.924" style="stroke:#000000;stroke-width:1.5;" width="597" x="441" y="1245.6343"/><text fill="#000000" font-family="sans-serif" font-size="13" font-weight="bold" lengthAdjust="spacing" textLength="18" x="456" y="1260.5313">alt</text><text fill="#000000" font-family="sans-serif" font-size="11" font-weight="bold" lengthAdjust="spacing" textLength="89" x="519" y="1259.3932">[Guardar y salir]</text><polygon fill="#181818" points="558,1305.7523,548,1309.7523,558,1313.7523,554,1309.7523" style="stroke:#181818;stroke-width:1.0;"/><line style="stroke:#181818;stroke-width:1.0;" x1="552" x2="735" y1="1309.7523" y2="1309.7523"/><text fill="#000000" font-family="sans-serif" font-size="13" lengthAdjust="spacing" textLength="164" x="564" y="1303.9433">14a: &#171;include&#187; abrirCursos()</text><path d="M751,1270.3403 L751,1333.3403 L1014,1333.3403 L1014,1280.3403 L1004,1270.3403 L751,1270.3403 " fill="#FEFFDD" style="stroke:#181818;stroke-width:0.5;"/><path d="M1004,1270.3403 L1004,1280.3403 L1014,1280.3403 L1004,1270.3403 " fill="#FEFFDD" style="stroke:#181818;stroke-width:0.5;"/><text fill="#000000" font-family="sans-serif" font-size="13" font-weight="bold" lengthAdjust="spacing" textLength="242" x="757" y="1289.2373">Administrador solicita guardar y salir</text><text fill="#000000" font-family="sans-serif" font-size="13" lengthAdjust="spacing" textLength="128" x="757" y="1306.9433">&#8226; Cambios persistidos</text><text fill="#000000" font-family="sans-serif" font-size="13" lengthAdjust="spacing" textLength="163" x="757" y="1324.6493">&#8226; Regresa a lista actualizada</text><line style="stroke:#000000;stroke-width:1.0;stroke-dasharray:2.0,2.0;" x1="441" x2="1038" y1="1339.4583" y2="1339.4583"/><text fill="#000000" font-family="sans-serif" font-size="11" font-weight="bold" lengthAdjust="spacing" textLength="100" x="446" y="1351.2172">[Cancelar edici&#243;n]</text><polygon fill="#181818" points="558,1395.8522,548,1399.8522,558,1403.8522,554,1399.8522" style="stroke:#181818;stroke-width:1.0;"/><line style="stroke:#181818;stroke-width:1.0;" x1="552" x2="735" y1="1399.8522" y2="1399.8522"/><text fill="#000000" font-family="sans-serif" font-size="13" lengthAdjust="spacing" textLength="165" x="564" y="1394.0432">14b: &#171;include&#187; abrirCursos()</text><path d="M751,1360.4402 L751,1423.4402 L1028,1423.4402 L1028,1370.4402 L1018,1360.4402 L751,1360.4402 " fill="#FEFFDD" style="stroke:#181818;stroke-width:0.5;"/><path d="M1018,1360.4402 L1018,1370.4402 L1028,1370.4402 L1018,1360.4402 " fill="#FEFFDD" style="stroke:#181818;stroke-width:0.5;"/><text fill="#000000" font-family="sans-serif" font-size="13" font-weight="bold" lengthAdjust="spacing" textLength="256" x="757" y="1379.3372">Administrador solicita cancelar edici&#243;n</text><text fill="#000000" font-family="sans-serif" font-size="13" lengthAdjust="spacing" textLength="165" x="757" y="1397.0432">&#8226; Cambios pueden perderse</text><text fill="#000000" font-family="sans-serif" font-size="13" lengthAdjust="spacing" textLength="205" x="757" y="1414.7493">&#8226; Regresa a lista sin modificaciones</text><!--SRC=[hLQzSkCs4Exn53jk8dliIPnS_ZYoPnJ6oLnn6S_Tn3r4R6Ga8C01eCivLQeyGDx0wLoxIwitkIV9ueSaA56keaOakFjXVxvl0VURr1stl0KbDVg73g4pwY6yCFO9h1flB3h03nwjDexni00dLRsrpZXOhILQRqw0EqXBUMLgU6ZNcz7UNZQouze7OwCKNnlBlJGQQelSHklaDxo-wBLQMvdCN7GhtaD6jUAE4X88NEyUbNJImGNSIUSvBBupMosuVJXbw_m49pT2-hpldSJV8sOoNovxg-lhuz2rqTuQ1S2Q_7GImVAwGfkoIwzSKDMMospw4kwDzb9m0Olmu2baZFyP_IrsnabgmKD47rwb8VHaIU0Jbx4v2R4qPFIl45R3_XGCbJrMlP6xPrq1ZdLQd39sTGK_gEsl1cwjrA5Lge9KIiYKQBZOFRMoCN1rnPWs7i6yHplbqNdPzhEpDxj_bPUTed9qM-rD38IYj5pmwkoCVVpp7_WU7Isgs29wQ19J5nHVZ1I4jDXuVbeODxH7_fWTO55__Elldu5llMbtZyGsKpe8z9nQLvY7ZaczfVJwZK9718Iy6EFAXuQ5CCbdY8y1_IRvmiLrPbS5btnQrRZJQq6uok4Ut9X12lmqGG-rc-2kPt1_sk9xCmkTSnrZdGkrEHQg5YpC0lcUKt-ZEMF9YznBqbVmUGKDjvkCSKjJwIQNSiGRe0fNnaeSWYtPNi4N5PYrHutsrjZNOWQhi6UbxyL1YA-gtEygbO89d4MPHbGKwiiA12VUriTG9daDXUhTlwgWetbCZES99_8_LobfoChDlIUfl2CNRFaBzbalzUvPo0qfJPjsRV4yjBsniki5eLBAoTRkdgZDnft3FKdVWSVTivKD7nOwktkaN6WbEjnQiw7JXGCVvSwTQIGboCeeqRQIedT6KN34erxDhH7o5uApn8sM2XmNDwGp4PQ6m1gk6rI5-WhnqIYgPQDCoBrdLAnpq6iSFigORlpKIpao_WXNlwx6oEeOMC-hyn3eMXgN93ZRsF0XwMbAt7BwLl1D1RnJUOU0k3Y2F7h53mKDmYjDpHnfG-SZJSwX5To5AWURKC8xhcGighb7YpIpq_ZiE_vfxEzeZJRtXVZbYG8PdAf0Brjg1Ox6R-YW3W84IVyR6y-jC5a28wFHqAonCaKf3dNuRTPXdvaOjHISIptj5MUkxDDvSVbP5MgxfNBymUrYRv-zsfUY3nzU7X-NbnNidZxGTtfP6wEGw_s0zn4F0oxdRfoPaHIhI1L14ZyAFKl1S3JLvU7bkHPfwmd_XorfdhRKJqaD7TIM2p9uxL4mqN0bMga9nSOqUgKVA3nJikVEEtJzoOop2XqCfGvZHA3jIqBKZ4qKcMMzvMqUDksUBWAyqLpXQ3uXPZZCue4MBZTIH-pXsZ2CZp1GGb5_p4Fg0HnPskaqAMwbeQQlwAXVBkcYfBO2hw-1ZvyNf_EYFbBDpNJNGjzvY8GQqGsEBezc5EXRKYKwcjBvtZJmN_2fFkFze3uOjY_cjlw_SZiOydFPRL5WJmI7HpDqn9Pf__SI3Nqkj9EkBly1]--></g></svg>