<?xml version="1.0" encoding="us-ascii" standalone="no"?><svg xmlns="http://www.w3.org/2000/svg" xmlns:xlink="http://www.w3.org/1999/xlink" contentStyleType="text/css" height="547px" preserveAspectRatio="none" style="width:721px;height:547px;background:#FFFFFF;" version="1.1" viewBox="0 0 721 547" width="721px" zoomAndPan="magnify"><defs/><g><!--cluster eliminarAula--><g id="cluster_eliminarAula"><path d="M8.5,111 L107.5,111 A3.75,3.75 0 0 1 110,113.5 L117,136.0679 L507.5,136.0679 A2.5,2.5 0 0 1 510,138.5679 L510,537.5 A2.5,2.5 0 0 1 507.5,540 L8.5,540 A2.5,2.5 0 0 1 6,537.5 L6,113.5 A2.5,2.5 0 0 1 8.5,111 " fill="none" style="stroke:#000000;stroke-width:1.5;"/><line style="stroke:#000000;stroke-width:1.5;" x1="6" x2="117" y1="136.0679" y2="136.0679"/><text fill="#000000" font-family="sans-serif" font-size="14" font-weight="bold" lengthAdjust="spacing" textLength="98" x="10" y="127.9659">eliminarAula()</text></g><!--entity EliminarAulaView--><g id="elem_EliminarAulaView"><rect fill="#629EF9" height="39.0679" rx="2.5" ry="2.5" style="stroke:#181818;stroke-width:0.5;" width="137" x="269.5" y="149"/><text fill="#000000" font-family="sans-serif" font-size="14" lengthAdjust="spacing" textLength="117" x="279.5" y="173.9659">EliminarAulaView</text></g><!--entity AulaController--><g id="elem_AulaController"><rect fill="#B5BD68" height="39.0679" rx="2.5" ry="2.5" style="stroke:#181818;stroke-width:0.5;" width="117" x="111.5" y="267"/><text fill="#000000" font-family="sans-serif" font-size="14" lengthAdjust="spacing" textLength="97" x="121.5" y="291.9659">AulaController</text></g><!--entity AulaRepository--><g id="elem_AulaRepository"><rect fill="#F2AC4E" height="39.0679" rx="2.5" ry="2.5" style="stroke:#181818;stroke-width:0.5;" width="121" x="117.5" y="385"/><text fill="#000000" font-family="sans-serif" font-size="14" lengthAdjust="spacing" textLength="101" x="127.5" y="409.9659">AulaRepository</text></g><!--entity Aula--><g id="elem_Aula"><rect fill="#F2AC4E" height="39.0679" rx="2.5" ry="2.5" style="stroke:#181818;stroke-width:0.5;" width="50" x="153" y="485"/><text fill="#000000" font-family="sans-serif" font-size="14" lengthAdjust="spacing" textLength="30" x="163" y="509.9659">Aula</text></g><!--entity AulasAbierto--><g id="elem_AulasAbierto"><rect fill="#CDEBA5" height="39.0679" rx="2.5" ry="2.5" style="stroke:#181818;stroke-width:0.5;" width="114" x="201" y="7"/><text fill="#000000" font-family="sans-serif" font-size="14" lengthAdjust="spacing" textLength="94" x="211" y="31.9659">:Aulas Abierto</text></g><!--entity AulaAbierta--><g id="elem_AulaAbierta"><rect fill="#CDEBA5" height="39.0679" rx="2.5" ry="2.5" style="stroke:#181818;stroke-width:0.5;" width="107" x="365.5" y="7"/><text fill="#000000" font-family="sans-serif" font-size="14" lengthAdjust="spacing" textLength="87" x="375.5" y="31.9659">:Aula Abierta</text></g><!--entity AbrirAulas--><g id="elem_AbrirAulas"><rect fill="#CDEBA5" height="39.0679" rx="2.5" ry="2.5" style="stroke:#181818;stroke-width:0.5;" width="189" x="526.5" y="267"/><text fill="#000000" font-family="sans-serif" font-size="14" lengthAdjust="spacing" textLength="169" x="536.5" y="291.9659">:Collaboration AbrirAulas</text></g><!--link AulasAbierto to EliminarAulaView--><g id="link_AulasAbierto_EliminarAulaView"><path d="M256.85,46.11 C256,59.79 255,76 255,76 C255,76 255,95 255,95 C255,95 287.5104,123.4037 312.1104,144.8837 " fill="none" id="AulasAbierto-to-EliminarAulaView" style="stroke:#181818;stroke-width:1.0;"/><polygon fill="#181818" points="316.63,148.83,312.4816,139.8974,312.8637,145.5414,307.2198,145.9235,316.63,148.83" style="stroke:#181818;stroke-width:1.0;"/><text fill="#000000" font-family="sans-serif" font-size="13" lengthAdjust="spacing" textLength="119" x="256" y="90.897">eliminarAula(aulaId)</text></g><!--link AulaAbierta to EliminarAulaView--><g id="link_AulaAbierta_EliminarAulaView"><path d="M408.14,46.3 C396.6,66.28 380,95 380,95 C380,95 364.267,122.1579 351.827,143.6379 " fill="none" id="AulaAbierta-to-EliminarAulaView" style="stroke:#181818;stroke-width:1.0;"/><polygon fill="#181818" points="348.82,148.83,356.7919,143.0465,351.3258,144.5032,349.8691,139.0372,348.82,148.83" style="stroke:#181818;stroke-width:1.0;"/><text fill="#000000" font-family="sans-serif" font-size="13" lengthAdjust="spacing" textLength="119" x="391" y="90.897">eliminarAula(aulaId)</text></g><!--link EliminarAulaView to AulaController--><g id="link_EliminarAulaView_AulaController"><path d="M269.25,181.24 C185.2,195.59 54,218 54,218 C54,218 54,237 54,237 C54,237 87.2346,250.895 119.9446,264.575 " fill="none" id="EliminarAulaView-to-AulaController" style="stroke:#181818;stroke-width:1.0;"/><polygon fill="#181818" points="125.48,266.89,118.7202,259.7272,120.8672,264.9608,115.6335,267.1077,125.48,266.89" style="stroke:#181818;stroke-width:1.0;"/><text fill="#000000" font-family="sans-serif" font-size="13" lengthAdjust="spacing" textLength="239" x="55" y="232.897">cargarAulaParaEliminacion(aulaId) : Aula</text></g><!--link EliminarAulaView to AulaController--><g id="link_EliminarAulaView_AulaController"><path d="M327.14,188.3 C315.6,208.28 299,237 299,237 C299,237 261.4959,251.0977 225.1259,264.7777 " fill="none" id="EliminarAulaView-to-AulaController-1" style="stroke:#181818;stroke-width:1.0;"/><polygon fill="#181818" points="219.51,266.89,229.342,267.4654,224.1899,265.1297,226.5256,259.9776,219.51,266.89" style="stroke:#181818;stroke-width:1.0;"/><text fill="#000000" font-family="sans-serif" font-size="13" lengthAdjust="spacing" textLength="154" x="310" y="232.897">eliminarAula(aulaId) : void</text></g><!--link AulaController to AulaRepository--><g id="link_AulaController_AulaRepository"><path d="M130.47,306.11 C101.43,319.79 67,336 67,336 C67,336 67,355 67,355 C67,355 98.6022,368.8071 129.9022,382.4871 " fill="none" id="AulaController-to-AulaRepository" style="stroke:#181818;stroke-width:1.0;"/><polygon fill="#181818" points="135.4,384.89,128.7552,377.6205,130.8185,382.8876,125.5513,384.9509,135.4,384.89" style="stroke:#181818;stroke-width:1.0;"/><text fill="#000000" font-family="sans-serif" font-size="13" lengthAdjust="spacing" textLength="161" x="68" y="350.897">obtenerPorId(aulaId) : Aula</text></g><!--link AulaController to AulaRepository--><g id="link_AulaController_AulaRepository"><path d="M194.56,306.11 C212.61,319.79 234,336 234,336 C234,336 234,355 234,355 C234,355 219.8148,367.2812 204.0248,380.9612 " fill="none" id="AulaController-to-AulaRepository-1" style="stroke:#181818;stroke-width:1.0;"/><polygon fill="#181818" points="199.49,384.89,208.9114,382.02,203.269,381.616,203.673,375.9736,199.49,384.89" style="stroke:#181818;stroke-width:1.0;"/><text fill="#000000" font-family="sans-serif" font-size="13" lengthAdjust="spacing" textLength="128" x="235" y="350.897">eliminar(aulaId) : void</text></g><!--link AulaRepository to Aula--><g id="link_AulaRepository_Aula"><path d="M178,424.4 C178,441.86 178,467.66 178,484.99 " fill="none" id="AulaRepository-Aula" style="stroke:#181818;stroke-width:1.0;"/></g><!--link EliminarAulaView to AbrirAulas--><g id="link_EliminarAulaView_AbrirAulas"><path d="M389.81,188.11 C427.88,201.79 473,218 473,218 C473,218 530.9009,244.4103 574.7109,264.3903 " fill="none" id="EliminarAulaView-to-AbrirAulas" style="stroke:#181818;stroke-width:1.0;stroke-dasharray:7.0,7.0;"/><polygon fill="#181818" points="580.17,266.88,573.6412,259.5061,575.6208,264.8053,570.3216,266.7849,580.17,266.88" style="stroke:#181818;stroke-width:1.0;"/><text fill="#000000" font-family="sans-serif" font-size="13" lengthAdjust="spacing" textLength="128" x="513" y="232.897">&#171;include&#187; abrirAulas()</text></g><!--SRC=[bP8_QyCm4CLtVOh3NUmX6K8J6X4Chkj0jj2X-za-WeWY6LbfCQNVlVAVf7RiXjQ3y3tUJ_TEKdaKga239v12aQqAWaBBgYuOCvHPL0T9y12_9C_H4ZmUdIMM4AM2ZDKUrF-rqWc_8Xs1LwAh9u5OIucfDcY5LeuqmZHDMlXQCbPWTiG30Kbn4WeRkVPuVS4FFFXauBvUhzLYdMpNaFHyRu8-RctfCirNJqtWM2jhN30ojwRj8eeVayRqIeKkXTMckcDYNupr3mrcit2KX0-6yj4jkpnWlQFx3yPkVJ3B7JsSYqE6vj1wzkvDT4pcBk6o4V1s0ZOacoZ3-Jder98YizTcbq_oFsR7T_euvqJCgH7TpkzQv7zATk57xAZxV1xs7Xo7pKQeJ9vp2aF0g-u7x1i0]--></g></svg>