<?xml version="1.0" encoding="us-ascii" standalone="no"?><svg xmlns="http://www.w3.org/2000/svg" xmlns:xlink="http://www.w3.org/1999/xlink" contentStyleType="text/css" height="442px" preserveAspectRatio="none" style="width:1649px;height:442px;background:#FFFFFF;" version="1.1" viewBox="0 0 1649 442" width="1649px" zoomAndPan="magnify"><defs/><g><!--cluster abrirRecursos--><g id="cluster_abrirRecursos"><path d="M179,6.602 L285,6.602 A3.75,3.75 0 0 1 287.5,9.102 L294.5,31.6699 L717,31.6699 A2.5,2.5 0 0 1 719.5,34.1699 L719.5,433.102 A2.5,2.5 0 0 1 717,435.602 L179,435.602 A2.5,2.5 0 0 1 176.5,433.102 L176.5,9.102 A2.5,2.5 0 0 1 179,6.602 " fill="none" style="stroke:#000000;stroke-width:1.5;"/><line style="stroke:#000000;stroke-width:1.5;" x1="176.5" x2="294.5" y1="31.6699" y2="31.6699"/><text fill="#000000" font-family="sans-serif" font-size="14" font-weight="bold" lengthAdjust="spacing" textLength="105" x="180.5" y="23.5679">abrirRecursos()</text></g><!--entity ListarRecursosView--><g id="elem_ListarRecursosView"><rect fill="#629EF9" height="39.0679" rx="2.5" ry="2.5" style="stroke:#181818;stroke-width:0.5;" width="149" x="555" y="44.602"/><text fill="#000000" font-family="sans-serif" font-size="14" lengthAdjust="spacing" textLength="129" x="565" y="69.5679">ListarRecursosView</text></g><!--entity RecursosController--><g id="elem_RecursosController"><rect fill="#B5BD68" height="39.0679" rx="2.5" ry="2.5" style="stroke:#181818;stroke-width:0.5;" width="148" x="286.5" y="162.602"/><text fill="#000000" font-family="sans-serif" font-size="14" lengthAdjust="spacing" textLength="128" x="296.5" y="187.5679">RecursosController</text></g><!--entity RecursoRepository--><g id="elem_RecursoRepository"><rect fill="#F2AC4E" height="39.0679" rx="2.5" ry="2.5" style="stroke:#181818;stroke-width:0.5;" width="145" x="287" y="280.602"/><text fill="#000000" font-family="sans-serif" font-size="14" lengthAdjust="spacing" textLength="125" x="297" y="305.5679">RecursoRepository</text></g><!--entity Recurso--><g id="elem_Recurso"><rect fill="#F2AC4E" height="39.0679" rx="2.5" ry="2.5" style="stroke:#181818;stroke-width:0.5;" width="74" x="322.5" y="380.602"/><text fill="#000000" font-family="sans-serif" font-size="14" lengthAdjust="spacing" textLength="54" x="332.5" y="405.5679">Recurso</text></g><!--entity SistemaDisponible--><g id="elem_SistemaDisponible"><rect fill="#CDEBA5" height="39.0679" rx="2.5" ry="2.5" style="stroke:#181818;stroke-width:0.5;" width="153" x="7" y="44.602"/><text fill="#000000" font-family="sans-serif" font-size="14" lengthAdjust="spacing" textLength="133" x="17" y="69.5679">:Sistema Disponible</text></g><!--entity SistemaDisponibleSalida--><g id="elem_SistemaDisponibleSalida"><rect fill="#CDEBA5" height="39.0679" rx="2.5" ry="2.5" style="stroke:#181818;stroke-width:0.5;" width="153" x="736" y="162.602"/><text fill="#000000" font-family="sans-serif" font-size="14" lengthAdjust="spacing" textLength="133" x="746" y="187.5679">:Sistema Disponible</text></g><!--entity CrearRecurso--><g id="elem_CrearRecurso"><rect fill="#CDEBA5" height="39.0679" rx="2.5" ry="2.5" style="stroke:#181818;stroke-width:0.5;" width="209" x="924" y="162.602"/><text fill="#000000" font-family="sans-serif" font-size="14" lengthAdjust="spacing" textLength="189" x="934" y="187.5679">:Collaboration CrearRecurso</text></g><!--entity EditarRecurso--><g id="elem_EditarRecurso"><rect fill="#CDEBA5" height="39.0679" rx="2.5" ry="2.5" style="stroke:#181818;stroke-width:0.5;" width="212" x="1168.5" y="162.602"/><text fill="#000000" font-family="sans-serif" font-size="14" lengthAdjust="spacing" textLength="192" x="1178.5" y="187.5679">:Collaboration EditarRecurso</text></g><!--entity EliminarRecurso--><g id="elem_EliminarRecurso"><rect fill="#CDEBA5" height="39.0679" rx="2.5" ry="2.5" style="stroke:#181818;stroke-width:0.5;" width="228" x="1415.5" y="162.602"/><text fill="#000000" font-family="sans-serif" font-size="14" lengthAdjust="spacing" textLength="208" x="1425.5" y="187.5679">:Collaboration EliminarRecurso</text></g><!--link SistemaDisponible to ListarRecursosView--><g id="link_SistemaDisponible_ListarRecursosView"><path d="M160.28,64.102 C264.99,64.102 445.37,64.102 548.92,64.102 " fill="none" id="SistemaDisponible-to-ListarRecursosView" style="stroke:#181818;stroke-width:1.0;"/><polygon fill="#181818" points="554.92,64.102,545.92,60.102,549.92,64.102,545.92,68.102,554.92,64.102" style="stroke:#181818;stroke-width:1.0;"/><text fill="#000000" font-family="sans-serif" font-size="13" lengthAdjust="spacing" textLength="90" x="312.5" y="56.999">abrirRecursos()</text></g><!--link ListarRecursosView to RecursosController--><g id="link_ListarRecursosView_RecursosController"><path d="M554.55,74.572 C442.8,88.682 245.5,113.602 245.5,113.602 C245.5,113.602 245.5,132.602 245.5,132.602 C245.5,132.602 278.4117,146.48 310.8417,160.16 " fill="none" id="ListarRecursosView-to-RecursosController" style="stroke:#181818;stroke-width:1.0;"/><polygon fill="#181818" points="316.37,162.492,309.6323,155.3085,311.7631,160.5486,306.5229,162.6795,316.37,162.492" style="stroke:#181818;stroke-width:1.0;"/><text fill="#000000" font-family="sans-serif" font-size="13" lengthAdjust="spacing" textLength="183" x="246.5" y="128.499">listarRecursos() : List&lt;Recurso&gt;</text></g><!--link ListarRecursosView to RecursosController--><g id="link_ListarRecursosView_RecursosController"><path d="M569.63,83.712 C525.64,97.392 473.5,113.602 473.5,113.602 C473.5,113.602 430.2707,139.4245 396.8307,159.4045 " fill="none" id="ListarRecursosView-to-RecursosController-1" style="stroke:#181818;stroke-width:1.0;"/><polygon fill="#181818" points="391.68,162.482,401.4576,161.2996,395.9722,159.9174,397.3543,154.432,391.68,162.482" style="stroke:#181818;stroke-width:1.0;"/><text fill="#000000" font-family="sans-serif" font-size="13" lengthAdjust="spacing" textLength="228" x="474.5" y="128.499">filtrarRecursos(criterio) : List&lt;Recurso&gt;</text></g><!--link RecursosController to RecursoRepository--><g id="link_RecursosController_RecursoRepository"><path d="M308.31,201.712 C269.96,215.392 224.5,231.602 224.5,231.602 C224.5,231.602 224.5,250.602 224.5,250.602 C224.5,250.602 263.9735,264.783 302.0435,278.463 " fill="none" id="RecursosController-to-RecursoRepository" style="stroke:#181818;stroke-width:1.0;"/><polygon fill="#181818" points="307.69,280.492,300.5729,273.6841,302.9846,278.8011,297.8676,281.2128,307.69,280.492" style="stroke:#181818;stroke-width:1.0;"/><text fill="#000000" font-family="sans-serif" font-size="13" lengthAdjust="spacing" textLength="185" x="225.5" y="246.499">obtenerTodos() : List&lt;Recurso&gt;</text></g><!--link RecursosController to RecursoRepository--><g id="link_RecursosController_RecursoRepository"><path d="M381.61,201.712 C397.12,215.392 415.5,231.602 415.5,231.602 C415.5,231.602 415.5,250.602 415.5,250.602 C415.5,250.602 401.3148,262.8832 385.5248,276.5632 " fill="none" id="RecursosController-to-RecursoRepository-1" style="stroke:#181818;stroke-width:1.0;"/><polygon fill="#181818" points="380.99,280.492,390.4114,277.622,384.769,277.218,385.173,271.5756,380.99,280.492" style="stroke:#181818;stroke-width:1.0;"/><text fill="#000000" font-family="sans-serif" font-size="13" lengthAdjust="spacing" textLength="247" x="416.5" y="246.499">buscarPorCriterio(criterio) : List&lt;Recurso&gt;</text></g><!--link RecursoRepository to Recurso--><g id="link_RecursoRepository_Recurso"><path d="M359.5,320.002 C359.5,337.462 359.5,363.262 359.5,380.592 " fill="none" id="RecursoRepository-Recurso" style="stroke:#181818;stroke-width:1.0;"/></g><!--link ListarRecursosView to SistemaDisponibleSalida--><g id="link_ListarRecursosView_SistemaDisponibleSalida"><path d="M660.97,83.712 C684.09,97.392 711.5,113.602 711.5,113.602 C711.5,113.602 749.7518,139.1676 779.6418,159.1476 " fill="none" id="ListarRecursosView-to-SistemaDisponibleSalida" style="stroke:#181818;stroke-width:1.0;stroke-dasharray:7.0,7.0;"/><polygon fill="#181818" points="784.63,162.482,779.3706,154.155,780.4732,159.7033,774.9248,160.8059,784.63,162.482" style="stroke:#181818;stroke-width:1.0;"/><text fill="#000000" font-family="sans-serif" font-size="13" lengthAdjust="spacing" textLength="115" x="739.5" y="128.499">completarGestion()</text></g><!--link ListarRecursosView to CrearRecurso--><g id="link_ListarRecursosView_CrearRecurso"><path d="M704.18,80.582 C772.66,94.772 863.5,113.602 863.5,113.602 C863.5,113.602 928.5867,140.2302 977.4267,160.2102 " fill="none" id="ListarRecursosView-to-CrearRecurso" style="stroke:#181818;stroke-width:1.0;stroke-dasharray:7.0,7.0;"/><polygon fill="#181818" points="982.98,162.482,976.1646,155.3721,978.3523,160.5888,973.1355,162.7765,982.98,162.482" style="stroke:#181818;stroke-width:1.0;"/><text fill="#000000" font-family="sans-serif" font-size="13" lengthAdjust="spacing" textLength="86" x="908.5" y="128.499">crearRecurso()</text></g><!--link ListarRecursosView to EditarRecurso--><g id="link_ListarRecursosView_EditarRecurso"><path d="M704.29,74.802 C813.43,88.952 1003.5,113.602 1003.5,113.602 C1003.5,113.602 1114.038,141.1314 1194.268,161.1214 " fill="none" id="ListarRecursosView-to-EditarRecurso" style="stroke:#181818;stroke-width:1.0;stroke-dasharray:7.0,7.0;"/><polygon fill="#181818" points="1200.09,162.572,1192.3241,156.5147,1195.2383,161.3631,1190.3899,164.2774,1200.09,162.572" style="stroke:#181818;stroke-width:1.0;"/><text fill="#000000" font-family="sans-serif" font-size="13" lengthAdjust="spacing" textLength="91" x="1076.5" y="128.499">editarRecurso()</text></g><!--link ListarRecursosView to EliminarRecurso--><g id="link_ListarRecursosView_EliminarRecurso"><path d="M704.13,71.722 C853.81,84.992 1176.5,113.602 1176.5,113.602 C1176.5,113.602 1322.1769,141.4547 1426.6769,161.4447 " fill="none" id="ListarRecursosView-to-EliminarRecurso" style="stroke:#181818;stroke-width:1.0;stroke-dasharray:7.0,7.0;"/><polygon fill="#181818" points="1432.57,162.572,1424.4818,156.9523,1427.659,161.6326,1422.9787,164.8098,1432.57,162.572" style="stroke:#181818;stroke-width:1.0;"/><text fill="#000000" font-family="sans-serif" font-size="13" lengthAdjust="spacing" textLength="104" x="1271.5" y="128.499">eliminarRecurso()</text></g><!--SRC=[fL9DQy905BplhtYa5pteGQgqeGWsnbvwA5fwtoIlyd2J3MzNYfJ-zwwYvZi8vhR3pEniPioEibooJ45HXlQG8-HQ7Ou78HXZAxEjGdW8bk7hOWgUlo5ZCPMm99FhZ2A57aW3PxX0HIxZdTmYo8Y9rnZlsMXpf7eLP33qu5U0-qgtpIRFuUePtfsfl3A_27_gn6WQ9RCdk502dLdMIY7NYQl98dWCByGrvjgGrNpevuc_-tx2HYfAPAj5u6BAIBEqf3C86AyFFLcLWHlqOKAsQb11Rd5Gb59MywXYGZGU22CUpLjwyg5MiX1D4emI9svsvxijbhc38VYdErxEo5o8fWf6XLdHhmywifWXV-garwcGEADh_wsfEq9_ax9SIXqpMMJITwMFzYQM_A4vEBlrsRQ47O_dNRFq8TPfhj19tj0SH-1gwh0epz7fIgTkJMM1Fc3vsAEgRixfge1J_WC0]--></g></svg>