<?xml version="1.0" encoding="us-ascii" standalone="no"?><svg xmlns="http://www.w3.org/2000/svg" xmlns:xlink="http://www.w3.org/1999/xlink" contentStyleType="text/css" height="565px" preserveAspectRatio="none" style="width:728px;height:565px;background:#FFFFFF;" version="1.1" viewBox="0 0 728 565" width="728px" zoomAndPan="magnify"><defs/><g><!--cluster consultarHorario--><g id="cluster_consultarHorario"><path d="M32,111 L161,111 A3.75,3.75 0 0 1 163.5,113.5 L170.5,136.0679 L432,136.0679 A2.5,2.5 0 0 1 434.5,138.5679 L434.5,555.5 A2.5,2.5 0 0 1 432,558 L32,558 A2.5,2.5 0 0 1 29.5,555.5 L29.5,113.5 A2.5,2.5 0 0 1 32,111 " fill="none" style="stroke:#000000;stroke-width:1.5;"/><line style="stroke:#000000;stroke-width:1.5;" x1="29.5" x2="170.5" y1="136.0679" y2="136.0679"/><text fill="#000000" font-family="sans-serif" font-size="14" font-weight="bold" lengthAdjust="spacing" textLength="128" x="33.5" y="127.9659">consultarHorario()</text></g><!--entity ConsultarHorarioView--><g id="elem_ConsultarHorarioView"><rect fill="#629EF9" height="39.0679" rx="2.5" ry="2.5" style="stroke:#181818;stroke-width:0.5;" width="166" x="175.5" y="149"/><text fill="#000000" font-family="sans-serif" font-size="14" lengthAdjust="spacing" textLength="146" x="185.5" y="173.9659">ConsultarHorarioView</text></g><!--entity HorarioController--><g id="elem_HorarioController"><rect fill="#B5BD68" height="39.0679" rx="2.5" ry="2.5" style="stroke:#181818;stroke-width:0.5;" width="137" x="113" y="267"/><text fill="#000000" font-family="sans-serif" font-size="14" lengthAdjust="spacing" textLength="117" x="123" y="291.9659">HorarioController</text></g><!--entity HorarioRepository--><g id="elem_HorarioRepository"><rect fill="#F2AC4E" height="39.0679" rx="2.5" ry="2.5" style="stroke:#181818;stroke-width:0.5;" width="141" x="122" y="385"/><text fill="#000000" font-family="sans-serif" font-size="14" lengthAdjust="spacing" textLength="121" x="132" y="409.9659">HorarioRepository</text></g><!--entity Horario--><g id="elem_Horario"><rect fill="#F2AC4E" height="39.0679" rx="2.5" ry="2.5" style="stroke:#181818;stroke-width:0.5;" width="70" x="172.5" y="503"/><text fill="#000000" font-family="sans-serif" font-size="14" lengthAdjust="spacing" textLength="50" x="182.5" y="527.9659">Horario</text></g><!--entity SistemaDisponible--><g id="elem_SistemaDisponible"><rect fill="#CDEBA5" height="39.0679" rx="2.5" ry="2.5" style="stroke:#181818;stroke-width:0.5;" width="153" x="7" y="7"/><text fill="#000000" font-family="sans-serif" font-size="14" lengthAdjust="spacing" textLength="133" x="17" y="31.9659">:Sistema Disponible</text></g><!--entity HorarioAbierto--><g id="elem_HorarioAbierto"><rect fill="#CDEBA5" height="39.0679" rx="2.5" ry="2.5" style="stroke:#181818;stroke-width:0.5;" width="127" x="195" y="7"/><text fill="#000000" font-family="sans-serif" font-size="14" lengthAdjust="spacing" textLength="107" x="205" y="31.9659">:Horario Abierto</text></g><!--entity GenerarHorario--><g id="elem_GenerarHorario"><rect fill="#CDEBA5" height="39.0679" rx="2.5" ry="2.5" style="stroke:#181818;stroke-width:0.5;" width="223" x="357" y="7"/><text fill="#000000" font-family="sans-serif" font-size="14" lengthAdjust="spacing" textLength="203" x="367" y="31.9659">:Collaboration GenerarHorario</text></g><!--entity CompletarGestion--><g id="elem_CompletarGestion"><rect fill="#CDEBA5" height="39.0679" rx="2.5" ry="2.5" style="stroke:#181818;stroke-width:0.5;" width="239" x="450" y="267"/><text fill="#000000" font-family="sans-serif" font-size="14" lengthAdjust="spacing" textLength="219" x="460" y="291.9659">:Collaboration CompletarGestion</text></g><!--link SistemaDisponible to ConsultarHorarioView--><g id="link_SistemaDisponible_ConsultarHorarioView"><path d="M98.82,46.3 C115.09,66.28 138.5,95 138.5,95 C138.5,95 186.9042,124.2477 222.4642,145.7277 " fill="none" id="SistemaDisponible-to-ConsultarHorarioView" style="stroke:#181818;stroke-width:1.0;"/><polygon fill="#181818" points="227.6,148.83,221.9645,140.7528,223.3202,146.2448,217.8282,147.6005,227.6,148.83" style="stroke:#181818;stroke-width:1.0;"/><text fill="#000000" font-family="sans-serif" font-size="13" lengthAdjust="spacing" textLength="110" x="139.5" y="90.897">consultarHorario()</text></g><!--link HorarioAbierto to ConsultarHorarioView--><g id="link_HorarioAbierto_ConsultarHorarioView"><path d="M258.5,46.09 C258.5,72.87 258.5,116.01 258.5,142.83 " fill="none" id="HorarioAbierto-to-ConsultarHorarioView" style="stroke:#181818;stroke-width:1.0;"/><polygon fill="#181818" points="258.5,148.83,262.5,139.83,258.5,143.83,254.5,139.83,258.5,148.83" style="stroke:#181818;stroke-width:1.0;"/><text fill="#000000" font-family="sans-serif" font-size="13" lengthAdjust="spacing" textLength="110" x="259.5" y="90.897">consultarHorario()</text></g><!--link GenerarHorario to ConsultarHorarioView--><g id="link_GenerarHorario_ConsultarHorarioView"><path d="M443.43,46.3 C416.8,66.28 378.5,95 378.5,95 C378.5,95 330.0958,124.2477 294.5358,145.7277 " fill="none" id="GenerarHorario-to-ConsultarHorarioView" style="stroke:#181818;stroke-width:1.0;"/><polygon fill="#181818" points="289.4,148.83,299.1718,147.6005,293.6798,146.2448,295.0355,140.7528,289.4,148.83" style="stroke:#181818;stroke-width:1.0;"/><text fill="#000000" font-family="sans-serif" font-size="13" lengthAdjust="spacing" textLength="213" x="404.5" y="90.897">consultarHorario(horarioGenerado)</text></g><!--link ConsultarHorarioView to HorarioController--><g id="link_ConsultarHorarioView_HorarioController"><path d="M246.13,188.14 C231.76,209.78 211.5186,240.2813 197.1586,261.9113 " fill="none" id="ConsultarHorarioView-to-HorarioController" style="stroke:#181818;stroke-width:1.0;"/><polygon fill="#181818" points="193.84,266.91,202.1504,261.6244,196.6055,262.7444,195.4854,257.1996,193.84,266.91" style="stroke:#181818;stroke-width:1.0;"/><text fill="#000000" font-family="sans-serif" font-size="13" lengthAdjust="spacing" textLength="235" x="226.5" y="232.897">procesarConsulta() : ResultadoConsulta</text></g><!--link HorarioController to HorarioRepository--><g id="link_HorarioController_HorarioRepository"><path d="M141.59,306.11 C112.26,319.79 77.5,336 77.5,336 C77.5,336 77.5,355 77.5,355 C77.5,355 110.4117,368.878 142.8417,382.558 " fill="none" id="HorarioController-to-HorarioRepository" style="stroke:#181818;stroke-width:1.0;"/><polygon fill="#181818" points="148.37,384.89,141.6323,377.7065,143.7631,382.9467,138.5229,385.0775,148.37,384.89" style="stroke:#181818;stroke-width:1.0;"/><text fill="#000000" font-family="sans-serif" font-size="13" lengthAdjust="spacing" textLength="147" x="78.5" y="350.897">cargarHorario() : Horario</text></g><!--link HorarioController to HorarioRepository--><g id="link_HorarioController_HorarioRepository"><path d="M200.3,306.11 C214.12,319.79 230.5,336 230.5,336 C230.5,336 230.5,355 230.5,355 C230.5,355 221.5008,366.4873 210.7808,380.1673 " fill="none" id="HorarioController-to-HorarioRepository-1" style="stroke:#181818;stroke-width:1.0;"/><polygon fill="#181818" points="207.08,384.89,215.7797,380.2732,210.164,380.9544,209.4828,375.3387,207.08,384.89" style="stroke:#181818;stroke-width:1.0;"/><text fill="#000000" font-family="sans-serif" font-size="13" lengthAdjust="spacing" textLength="147" x="231.5" y="350.897">existeHorario() : boolean</text></g><!--link HorarioRepository to Horario--><g id="link_HorarioRepository_Horario"><path d="M148.37,424.11 C115.94,437.79 77.5,454 77.5,454 C77.5,454 77.5,473 77.5,473 C77.5,473 128.1988,491.9119 166.6988,506.2819 " fill="none" id="HorarioRepository-to-Horario" style="stroke:#181818;stroke-width:1.0;"/><polygon fill="#181818" points="172.32,508.38,165.2869,501.4854,167.6357,506.6316,162.4895,508.9803,172.32,508.38" style="stroke:#181818;stroke-width:1.0;"/><text fill="#000000" font-family="sans-serif" font-size="13" lengthAdjust="spacing" textLength="246" x="78.5" y="468.897">obtenerDatosCompletos() : DatosHorario</text></g><!--link HorarioRepository to Horario--><g id="link_HorarioRepository_Horario"><path d="M245.08,424.11 C283.71,437.79 329.5,454 329.5,454 C329.5,454 329.5,473 329.5,473 C329.5,473 278.82,493.15 242.79,507.47 " fill="none" id="HorarioRepository-Horario" style="stroke:#181818;stroke-width:1.0;"/></g><!--link ConsultarHorarioView to CompletarGestion--><g id="link_ConsultarHorarioView_CompletarGestion"><path d="M339.56,188.04 C399.4,201.74 470.5,218 470.5,218 C470.5,218 507.9223,243.5205 537.2323,263.5005 " fill="none" id="ConsultarHorarioView-to-CompletarGestion" style="stroke:#181818;stroke-width:1.0;stroke-dasharray:7.0,7.0;"/><polygon fill="#181818" points="542.19,266.88,537.0065,258.5056,538.0586,264.0637,532.5004,265.1158,542.19,266.88" style="stroke:#181818;stroke-width:1.0;"/><text fill="#000000" font-family="sans-serif" font-size="13" lengthAdjust="spacing" textLength="223" x="497.5" y="232.897">&#171;include&#187; completarGestion() [al salir]</text></g><!--SRC=[bLFBRi8m4BpxArRf1GvmG0ML24MYuT4pbNgfUd2I5RKmNiisQb7LVwyJ4Y0FLP1BaidCU3mRsvrGcXk-1oaKkgD6q2IF-GjZ1bF7rLOYFCIBvVDy347uAgp3FOU5i9gKI2G6m2sKy0Nj5B-GuKOGp1E1nb6XBB4IwfJ592LFFCy9Kh16XLvIwWgFEdI3HqnxBT5niqQR0uLB4sHCytJ7jmWfANkGxhn2pWwQOAyVm0y3VrsjFnbDbwkfjwvptmH-DQd9ECacJrKVNk6CpuocoLkDvl7Zik9jK9CLZipnVnxxPQmr91WCeivi8RHtn-gJkazRdz0zsi_J_MIGKP-nBY4CCc_PwYu4RIX5oqqbwlKXX0qMpnbLA6CjQP6nLR8FoCtsQcVUhMhuPWlypWTnRP4GIUJg7EF2llO8WHANzx3WZcpvkv8j70geIj9fSyxPNU1m6BLEG0YpcL2fF6GOHNuqzQz-tNSkmN8fp0Vx0m00]--></g></svg>