<?xml version="1.0" encoding="us-ascii" standalone="no"?><svg xmlns="http://www.w3.org/2000/svg" xmlns:xlink="http://www.w3.org/1999/xlink" contentStyleType="text/css" height="748px" preserveAspectRatio="none" style="width:1966px;height:748px;background:#FFFFFF;" version="1.1" viewBox="0 0 1966 748" width="1966px" zoomAndPan="magnify"><defs/><g><path d="M784.5,7 L1090.5,7 A12.5,12.5 0 0 1 1103,19.5 L1103,36.0679 L772,36.0679 L772,19.5 A12.5,12.5 0 0 1 784.5,7 " fill="#F1F1F1" style="stroke:#F1F1F1;stroke-width:1.0;"/><rect fill="none" height="588.0679" rx="12.5" ry="12.5" style="stroke:#181818;stroke-width:0.5;" width="331" x="772" y="7"/><line style="stroke:#181818;stroke-width:0.5;" x1="772" x2="1103" y1="36.0679" y2="36.0679"/><text fill="#000000" font-family="sans-serif" font-size="14" lengthAdjust="spacing" textLength="100" x="887.5" y="26.9659">mostrarMenu()</text><g id="mostrarMenu.PresentandoMenu"><rect fill="#F1F1F1" height="50" rx="12.5" ry="12.5" style="stroke:#181818;stroke-width:0.5;" width="50" x="784" y="140.0679"/><line style="stroke:#181818;stroke-width:0.5;" x1="784" x2="834" y1="169.1358" y2="169.1358"/><text fill="#000000" font-family="sans-serif" font-size="14" lengthAdjust="spacing" textLength="4" x="807" y="160.0339">&#160;</text></g><g id="mostrarMenu.EsperandoSeleccion"><rect fill="#F1F1F1" height="50" rx="12.5" ry="12.5" style="stroke:#181818;stroke-width:0.5;" width="50" x="784" y="440.0679"/><line style="stroke:#181818;stroke-width:0.5;" x1="784" x2="834" y1="469.1358" y2="469.1358"/><text fill="#000000" font-family="sans-serif" font-size="14" lengthAdjust="spacing" textLength="4" x="807" y="460.0339">&#160;</text></g><ellipse cx="809" cy="57.0679" fill="#222222" rx="10" ry="10" style="stroke:#222222;stroke-width:1.0;"/><ellipse cx="809" cy="574.0679" fill="none" rx="11" ry="11" style="stroke:#222222;stroke-width:1.0;"/><ellipse cx="809" cy="574.0679" fill="#222222" rx="6" ry="6" style="stroke:#222222;stroke-width:1.0;"/><!--link *start*mostrarMenu to PresentandoMenu--><g id="link_*start*mostrarMenu_PresentandoMenu"><path d="M809,67.1079 C809,83.0279 809,110.5779 809,133.7079 " fill="none" id="*start*mostrarMenu-to-PresentandoMenu" style="stroke:#008000;stroke-width:1.0;"/><polygon fill="#008000" points="809,139.7079,813,130.7079,809,134.7079,805,130.7079,809,139.7079" style="stroke:#008000;stroke-width:1.0;"/><path d="M814,90.0679 L814,117.0679 L1063,117.0679 L1063,100.0679 L1053,90.0679 L814,90.0679 " fill="#FEFFDD" style="stroke:#181818;stroke-width:0.5;"/><path d="M1053,90.0679 L1053,100.0679 L1063,100.0679 L1053,90.0679 " fill="#FEFFDD" style="stroke:#181818;stroke-width:0.5;"/><text fill="#000000" font-family="sans-serif" font-size="13" font-weight="bold" lengthAdjust="spacing" textLength="95" x="820" y="108.9649">Administrador</text><text fill="#000000" font-family="sans-serif" font-size="13" lengthAdjust="spacing" textLength="130" x="918" y="108.9649">solicita mostrar men&#250;</text></g><!--link PresentandoMenu to EsperandoSeleccion--><g id="link_PresentandoMenu_EsperandoSeleccion"><path d="M809,190.1979 C809,246.0379 809,377.6479 809,433.7079 " fill="none" id="PresentandoMenu-to-EsperandoSeleccion" style="stroke:#008000;stroke-width:1.0;"/><polygon fill="#008000" points="809,439.7079,813,430.7079,809,434.7079,805,430.7079,809,439.7079" style="stroke:#008000;stroke-width:1.0;"/><path d="M814,213.0679 L814,417.0679 L1035,417.0679 L1035,223.0679 L1025,213.0679 L814,213.0679 " fill="#FEFFDD" style="stroke:#181818;stroke-width:0.5;"/><path d="M1025,213.0679 L1025,223.0679 L1035,223.0679 L1025,213.0679 " fill="#FEFFDD" style="stroke:#181818;stroke-width:0.5;"/><text fill="#000000" font-family="sans-serif" font-size="13" font-weight="bold" lengthAdjust="spacing" textLength="52" x="820" y="231.9649">Sistema</text><text fill="#000000" font-family="sans-serif" font-size="13" lengthAdjust="spacing" textLength="145" x="875" y="231.9649">presenta men&#250; principal</text><text fill="#000000" font-family="sans-serif" font-size="13" lengthAdjust="spacing" textLength="110" x="820" y="249.6709">&#8226; abrirProgramas()</text><text fill="#000000" font-family="sans-serif" font-size="13" lengthAdjust="spacing" textLength="85" x="820" y="267.377">&#8226; abrirCursos()</text><text fill="#000000" font-family="sans-serif" font-size="13" lengthAdjust="spacing" textLength="108" x="820" y="285.083">&#8226; abrirProfesores()</text><text fill="#000000" font-family="sans-serif" font-size="13" lengthAdjust="spacing" textLength="92" x="820" y="302.789">&#8226; abrirEdificios()</text><text fill="#000000" font-family="sans-serif" font-size="13" lengthAdjust="spacing" textLength="76" x="820" y="320.495">&#8226; abrirAulas()</text><text fill="#000000" font-family="sans-serif" font-size="13" lengthAdjust="spacing" textLength="98" x="820" y="338.201">&#8226; abrirRecursos()</text><text fill="#000000" font-family="sans-serif" font-size="13" lengthAdjust="spacing" textLength="154" x="820" y="355.907">&#8226; asignarProfesorACurso()</text><text fill="#000000" font-family="sans-serif" font-size="13" lengthAdjust="spacing" textLength="109" x="820" y="373.6131">&#8226; generarHorario()</text><text fill="#000000" font-family="sans-serif" font-size="13" lengthAdjust="spacing" textLength="118" x="820" y="391.3191">&#8226; consultarHorario()</text><text fill="#000000" font-family="sans-serif" font-size="13" lengthAdjust="spacing" textLength="90" x="820" y="409.0251">&#8226; cerrarSesion()</text></g><!--link EsperandoSeleccion to *end*mostrarMenu--><g id="link_EsperandoSeleccion_*end*mostrarMenu"><path d="M809,490.0779 C809,512.9979 809,540.4279 809,556.9879 " fill="none" id="EsperandoSeleccion-to-*end*mostrarMenu" style="stroke:#008000;stroke-width:1.0;"/><polygon fill="#008000" points="809,562.9879,813,553.9879,809,557.9879,805,553.9879,809,562.9879" style="stroke:#008000;stroke-width:1.0;"/><path d="M814,513.0679 L814,540.0679 L1094,540.0679 L1094,523.0679 L1084,513.0679 L814,513.0679 " fill="#FEFFDD" style="stroke:#181818;stroke-width:0.5;"/><path d="M1084,513.0679 L1084,523.0679 L1094,523.0679 L1084,513.0679 " fill="#FEFFDD" style="stroke:#181818;stroke-width:0.5;"/><text fill="#000000" font-family="sans-serif" font-size="13" font-weight="bold" lengthAdjust="spacing" textLength="95" x="820" y="531.9649">Administrador</text><text fill="#000000" font-family="sans-serif" font-size="13" lengthAdjust="spacing" textLength="161" x="918" y="531.9649">solicita una de las opciones</text></g><g id="PROGRAMAS_ABIERTO"><rect fill="#F1F1F1" height="50" rx="12.5" ry="12.5" style="stroke:#181818;stroke-width:0.5;" width="171" x="7" y="692"/><line style="stroke:#181818;stroke-width:0.5;" x1="7" x2="178" y1="721.0679" y2="721.0679"/><text fill="#000000" font-family="sans-serif" font-size="14" lengthAdjust="spacing" textLength="151" x="17" y="711.9659">PROGRAMAS_ABIERTO</text></g><g id="CURSOS_ABIERTO"><rect fill="#F1F1F1" height="50" rx="12.5" ry="12.5" style="stroke:#181818;stroke-width:0.5;" width="140" x="213.5" y="692"/><line style="stroke:#181818;stroke-width:0.5;" x1="213.5" x2="353.5" y1="721.0679" y2="721.0679"/><text fill="#000000" font-family="sans-serif" font-size="14" lengthAdjust="spacing" textLength="120" x="223.5" y="711.9659">CURSOS_ABIERTO</text></g><g id="PROFESORES_ABIERTO"><rect fill="#F1F1F1" height="50" rx="12.5" ry="12.5" style="stroke:#181818;stroke-width:0.5;" width="172" x="388.5" y="692"/><line style="stroke:#181818;stroke-width:0.5;" x1="388.5" x2="560.5" y1="721.0679" y2="721.0679"/><text fill="#000000" font-family="sans-serif" font-size="14" lengthAdjust="spacing" textLength="152" x="398.5" y="711.9659">PROFESORES_ABIERTO</text></g><g id="EDIFICIOS_ABIERTO"><rect fill="#F1F1F1" height="50" rx="12.5" ry="12.5" style="stroke:#181818;stroke-width:0.5;" width="153" x="596" y="692"/><line style="stroke:#181818;stroke-width:0.5;" x1="596" x2="749" y1="721.0679" y2="721.0679"/><text fill="#000000" font-family="sans-serif" font-size="14" lengthAdjust="spacing" textLength="133" x="606" y="711.9659">EDIFICIOS_ABIERTO</text></g><g id="AULAS_ABIERTO"><rect fill="#F1F1F1" height="50" rx="12.5" ry="12.5" style="stroke:#181818;stroke-width:0.5;" width="128" x="784.5" y="692"/><line style="stroke:#181818;stroke-width:0.5;" x1="784.5" x2="912.5" y1="721.0679" y2="721.0679"/><text fill="#000000" font-family="sans-serif" font-size="14" lengthAdjust="spacing" textLength="108" x="794.5" y="711.9659">AULAS_ABIERTO</text></g><g id="RECURSOS_ABIERTO"><rect fill="#F1F1F1" height="50" rx="12.5" ry="12.5" style="stroke:#181818;stroke-width:0.5;" width="157" x="948" y="692"/><line style="stroke:#181818;stroke-width:0.5;" x1="948" x2="1105" y1="721.0679" y2="721.0679"/><text fill="#000000" font-family="sans-serif" font-size="14" lengthAdjust="spacing" textLength="137" x="958" y="711.9659">RECURSOS_ABIERTO</text></g><g id="PROFESOR_ASIGNATURAS_ABIERTO"><rect fill="#F1F1F1" height="50" rx="12.5" ry="12.5" style="stroke:#181818;stroke-width:0.5;" width="258" x="1140.5" y="692"/><line style="stroke:#181818;stroke-width:0.5;" x1="1140.5" x2="1398.5" y1="721.0679" y2="721.0679"/><text fill="#000000" font-family="sans-serif" font-size="14" lengthAdjust="spacing" textLength="238" x="1150.5" y="711.9659">PROFESOR_ASIGNATURAS_ABIERTO</text></g><g id="HORARIO_GENERADO"><rect fill="#F1F1F1" height="50" rx="12.5" ry="12.5" style="stroke:#181818;stroke-width:0.5;" width="166" x="1433.5" y="692"/><line style="stroke:#181818;stroke-width:0.5;" x1="1433.5" x2="1599.5" y1="721.0679" y2="721.0679"/><text fill="#000000" font-family="sans-serif" font-size="14" lengthAdjust="spacing" textLength="146" x="1443.5" y="711.9659">HORARIO_GENERADO</text></g><g id="HORARIO_ABIERTO"><rect fill="#F1F1F1" height="50" rx="12.5" ry="12.5" style="stroke:#181818;stroke-width:0.5;" width="149" x="1635" y="692"/><line style="stroke:#181818;stroke-width:0.5;" x1="1635" x2="1784" y1="721.0679" y2="721.0679"/><text fill="#000000" font-family="sans-serif" font-size="14" lengthAdjust="spacing" textLength="129" x="1645" y="711.9659">HORARIO_ABIERTO</text></g><g id="SESION_CERRADA"><rect fill="#F1F1F1" height="50" rx="12.5" ry="12.5" style="stroke:#181818;stroke-width:0.5;" width="140" x="1819.5" y="692"/><line style="stroke:#181818;stroke-width:0.5;" x1="1819.5" x2="1959.5" y1="721.0679" y2="721.0679"/><text fill="#000000" font-family="sans-serif" font-size="14" lengthAdjust="spacing" textLength="120" x="1829.5" y="711.9659">SESION_CERRADA</text></g><!--link mostrarMenu to PROGRAMAS_ABIERTO--><g id="link_mostrarMenu_PROGRAMAS_ABIERTO"><path d="M771.93,377.32 C562.13,472.77 227.5,625 227.5,625 C227.5,625 173.2954,661.5366 133.2954,688.4966 " fill="none" id="mostrarMenu-to-PROGRAMAS_ABIERTO" style="stroke:#008000;stroke-width:1.0;"/><polygon fill="#008000" points="128.32,691.85,138.0187,690.1368,132.4662,689.0555,133.5475,683.5029,128.32,691.85" style="stroke:#008000;stroke-width:1.0;"/><path d="M232.5,630 L232.5,657 L355.5,657 L355.5,640 L345.5,630 L232.5,630 " fill="#FEFFDD" style="stroke:#181818;stroke-width:0.5;"/><path d="M345.5,630 L345.5,640 L355.5,640 L345.5,630 " fill="#FEFFDD" style="stroke:#181818;stroke-width:0.5;"/><text fill="#000000" font-family="sans-serif" font-size="13" lengthAdjust="spacing" textLength="102" x="238.5" y="648.897">abrirProgramas()</text></g><!--link mostrarMenu to CURSOS_ABIERTO--><g id="link_mostrarMenu_CURSOS_ABIERTO"><path d="M771.82,405.31 C620.27,499.81 419.5,625 419.5,625 C419.5,625 364.8666,661.5532 324.5766,688.5132 " fill="none" id="mostrarMenu-to-CURSOS_ABIERTO" style="stroke:#008000;stroke-width:1.0;"/><polygon fill="#008000" points="319.59,691.85,329.2944,690.1692,323.7455,689.0694,324.8454,683.5205,319.59,691.85" style="stroke:#008000;stroke-width:1.0;"/><path d="M424.5,630 L424.5,657 L522.5,657 L522.5,640 L512.5,630 L424.5,630 " fill="#FEFFDD" style="stroke:#181818;stroke-width:0.5;"/><path d="M512.5,630 L512.5,640 L522.5,640 L512.5,630 " fill="#FEFFDD" style="stroke:#181818;stroke-width:0.5;"/><text fill="#000000" font-family="sans-serif" font-size="13" lengthAdjust="spacing" textLength="77" x="430.5" y="648.897">abrirCursos()</text></g><!--link mostrarMenu to PROFESORES_ABIERTO--><g id="link_mostrarMenu_PROFESORES_ABIERTO"><path d="M771.82,448.61 C675.32,534.01 572.5,625 572.5,625 C572.5,625 533.9372,660.8078 504.8972,687.7678 " fill="none" id="mostrarMenu-to-PROFESORES_ABIERTO" style="stroke:#008000;stroke-width:1.0;"/><polygon fill="#008000" points="500.5,691.85,509.8173,688.6581,504.1643,688.4481,504.3743,682.7952,500.5,691.85" style="stroke:#008000;stroke-width:1.0;"/><path d="M577.5,630 L577.5,657 L698.5,657 L698.5,640 L688.5,630 L577.5,630 " fill="#FEFFDD" style="stroke:#181818;stroke-width:0.5;"/><path d="M688.5,630 L688.5,640 L698.5,640 L688.5,630 " fill="#FEFFDD" style="stroke:#181818;stroke-width:0.5;"/><text fill="#000000" font-family="sans-serif" font-size="13" lengthAdjust="spacing" textLength="100" x="583.5" y="648.897">abrirProfesores()</text></g><!--link mostrarMenu to EDIFICIOS_ABIERTO--><g id="link_mostrarMenu_EDIFICIOS_ABIERTO"><path d="M771.93,560.66 C737.3,614.77 709.1249,658.7868 691.2449,686.7168 " fill="none" id="mostrarMenu-to-EDIFICIOS_ABIERTO" style="stroke:#008000;stroke-width:1.0;"/><polygon fill="#008000" points="688.01,691.77,696.2312,686.3468,690.7058,687.559,689.4936,682.0335,688.01,691.77" style="stroke:#008000;stroke-width:1.0;"/><path d="M735.5,630 L735.5,657 L840.5,657 L840.5,640 L830.5,630 L735.5,630 " fill="#FEFFDD" style="stroke:#181818;stroke-width:0.5;"/><path d="M830.5,630 L830.5,640 L840.5,640 L830.5,630 " fill="#FEFFDD" style="stroke:#181818;stroke-width:0.5;"/><text fill="#000000" font-family="sans-serif" font-size="13" lengthAdjust="spacing" textLength="84" x="741.5" y="648.897">abrirEdificios()</text></g><!--link mostrarMenu to AULAS_ABIERTO--><g id="link_mostrarMenu_AULAS_ABIERTO"><path d="M874.48,595.14 C865.86,635.23 859.6297,664.2137 854.9397,686.0537 " fill="none" id="mostrarMenu-to-AULAS_ABIERTO" style="stroke:#008000;stroke-width:1.0;"/><polygon fill="#008000" points="853.68,691.92,859.4805,683.9604,854.7298,687.0314,851.6588,682.2808,853.68,691.92" style="stroke:#008000;stroke-width:1.0;"/><path d="M873.5,630 L873.5,657 L962.5,657 L962.5,640 L952.5,630 L873.5,630 " fill="#FEFFDD" style="stroke:#181818;stroke-width:0.5;"/><path d="M952.5,630 L952.5,640 L962.5,640 L952.5,630 " fill="#FEFFDD" style="stroke:#181818;stroke-width:0.5;"/><text fill="#000000" font-family="sans-serif" font-size="13" lengthAdjust="spacing" textLength="68" x="879.5" y="648.897">abrirAulas()</text></g><!--link mostrarMenu to RECURSOS_ABIERTO--><g id="link_mostrarMenu_RECURSOS_ABIERTO"><path d="M1000.52,595.14 C1009.14,635.23 1015.3703,664.2137 1020.0603,686.0537 " fill="none" id="mostrarMenu-to-RECURSOS_ABIERTO" style="stroke:#008000;stroke-width:1.0;"/><polygon fill="#008000" points="1021.32,691.92,1023.3412,682.2808,1020.2702,687.0314,1015.5195,683.9604,1021.32,691.92" style="stroke:#008000;stroke-width:1.0;"/><path d="M1019.5,630 L1019.5,657 L1130.5,657 L1130.5,640 L1120.5,630 L1019.5,630 " fill="#FEFFDD" style="stroke:#181818;stroke-width:0.5;"/><path d="M1120.5,630 L1120.5,640 L1130.5,640 L1120.5,630 " fill="#FEFFDD" style="stroke:#181818;stroke-width:0.5;"/><text fill="#000000" font-family="sans-serif" font-size="13" lengthAdjust="spacing" textLength="90" x="1025.5" y="648.897">abrirRecursos()</text></g><!--link mostrarMenu to PROFESOR_ASIGNATURAS_ABIERTO--><g id="link_mostrarMenu_PROFESOR_ASIGNATURAS_ABIERTO"><path d="M1103.01,508.39 C1161.81,581.71 1216.9361,650.4594 1246.3861,687.1794 " fill="none" id="mostrarMenu-to-PROFESOR_ASIGNATURAS_ABIERTO" style="stroke:#008000;stroke-width:1.0;"/><polygon fill="#008000" points="1250.14,691.86,1247.6295,682.3365,1247.0117,687.9595,1241.3887,687.3417,1250.14,691.86" style="stroke:#008000;stroke-width:1.0;"/><path d="M1226.5,630 L1226.5,657 L1393.5,657 L1393.5,640 L1383.5,630 L1226.5,630 " fill="#FEFFDD" style="stroke:#181818;stroke-width:0.5;"/><path d="M1383.5,630 L1383.5,640 L1393.5,640 L1383.5,630 " fill="#FEFFDD" style="stroke:#181818;stroke-width:0.5;"/><text fill="#000000" font-family="sans-serif" font-size="13" lengthAdjust="spacing" textLength="146" x="1232.5" y="648.897">asignarProfesorACurso()</text></g><!--link mostrarMenu to HORARIO_GENERADO--><g id="link_mostrarMenu_HORARIO_GENERADO"><path d="M1103.18,416.1 C1238.15,509.06 1406.5,625 1406.5,625 C1406.5,625 1450.0969,661.0655 1482.6869,688.0255 " fill="none" id="mostrarMenu-to-HORARIO_GENERADO" style="stroke:#008000;stroke-width:1.0;"/><polygon fill="#008000" points="1487.31,691.85,1482.9249,683.0312,1483.4574,688.6629,1477.8256,689.1954,1487.31,691.85" style="stroke:#008000;stroke-width:1.0;"/><path d="M1453.5,630 L1453.5,657 L1575.5,657 L1575.5,640 L1565.5,630 L1453.5,630 " fill="#FEFFDD" style="stroke:#181818;stroke-width:0.5;"/><path d="M1565.5,630 L1565.5,640 L1575.5,640 L1565.5,630 " fill="#FEFFDD" style="stroke:#181818;stroke-width:0.5;"/><text fill="#000000" font-family="sans-serif" font-size="13" lengthAdjust="spacing" textLength="101" x="1459.5" y="648.897">generarHorario()</text></g><!--link mostrarMenu to HORARIO_ABIERTO--><g id="link_mostrarMenu_HORARIO_ABIERTO"><path d="M1103.04,384.13 C1295.91,479.83 1588.5,625 1588.5,625 C1588.5,625 1636.7551,661.2832 1672.5951,688.2432 " fill="none" id="mostrarMenu-to-HORARIO_ABIERTO" style="stroke:#008000;stroke-width:1.0;"/><polygon fill="#008000" points="1677.39,691.85,1672.6023,683.2432,1673.3943,688.8443,1667.7931,689.6363,1677.39,691.85" style="stroke:#008000;stroke-width:1.0;"/><path d="M1640.5,630 L1640.5,657 L1771.5,657 L1771.5,640 L1761.5,630 L1640.5,630 " fill="#FEFFDD" style="stroke:#181818;stroke-width:0.5;"/><path d="M1761.5,630 L1761.5,640 L1771.5,640 L1761.5,630 " fill="#FEFFDD" style="stroke:#181818;stroke-width:0.5;"/><text fill="#000000" font-family="sans-serif" font-size="13" lengthAdjust="spacing" textLength="110" x="1646.5" y="648.897">consultarHorario()</text></g><!--link mostrarMenu to SESION_CERRADA--><g id="link_mostrarMenu_SESION_CERRADA"><path d="M1103.07,365.14 C1349.61,459.16 1784.5,625 1784.5,625 C1784.5,625 1825.9957,660.9606 1857.1057,687.9206 " fill="none" id="mostrarMenu-to-SESION_CERRADA" style="stroke:#008000;stroke-width:1.0;"/><polygon fill="#008000" points="1861.64,691.85,1857.4582,682.933,1857.8614,688.5755,1852.219,688.9787,1861.64,691.85" style="stroke:#008000;stroke-width:1.0;"/><path d="M1829.5,630 L1829.5,657 L1932.5,657 L1932.5,640 L1922.5,630 L1829.5,630 " fill="#FEFFDD" style="stroke:#181818;stroke-width:0.5;"/><path d="M1922.5,630 L1922.5,640 L1932.5,640 L1922.5,630 " fill="#FEFFDD" style="stroke:#181818;stroke-width:0.5;"/><text fill="#000000" font-family="sans-serif" font-size="13" lengthAdjust="spacing" textLength="82" x="1835.5" y="648.897">cerrarSesion()</text></g><!--SRC=[dPDVQkCm4CRVVGgHVMaNobwW1BIfcXgsSP6QfrA2Oa-3g3qoalrGIg5dwJ7sjJVfINRiDAx_975P6GJIZ7_pwTF8FnhCjTCPImr2yPG3ostwL2s2m1Uw09PPNpZjhW5BfZsRjDOdfnFs70ICnZPtGX_bt3ZmW8N6n5PfmmJXSt1LM44ASMmiRYbtF-_PsTsFZGF0-xDf7yJg9BG4ibWfVgmtpjTJdcG6JIKiiUxyrthAl4rDR0gzqyyomFU_TJvWieNG29gfNwkjOu_UGqeKgO1CrnhoJ-IsDYqDnYRNQPtxyVh6zDePT-FiXcv0-vFJRc1MEcy7kvJ-0DuIkXyHYNcWCmz_uMKwf4k81tnlDgYR2hmMq8fl0Ca6TsLfCkr0RD6NQR4t18ws57WoxNDxv_-NzqD_E_PJM_pFpPUeMGACpiviNa71T-k_146xkpkT9wEvvDTShVZlKCZRAEWK7rnSmpn8d2sbYexXckiUPv6wIw4YAKRaVJNAE5DSX9VXB3mgiTrXuqI-_7FKlrrRZfEa67MlrSxVzs_5LJXVyDkbF2Zqm9COht4LIIx3Q3KN2o7vHOyxU4hV1-xLkUS5ZXELK66qMCs4986y1-o-smRs3m00]--></g></svg>