<?xml version="1.0" encoding="us-ascii" standalone="no"?><svg xmlns="http://www.w3.org/2000/svg" xmlns:xlink="http://www.w3.org/1999/xlink" contentStyleType="text/css" height="748px" preserveAspectRatio="none" style="width:2081px;height:748px;background:#FFFFFF;" version="1.1" viewBox="0 0 2081 748" width="2081px" zoomAndPan="magnify"><defs/><g><path d="M834.5,7 L1140.5,7 A12.5,12.5 0 0 1 1153,19.5 L1153,36.0679 L822,36.0679 L822,19.5 A12.5,12.5 0 0 1 834.5,7 " fill="#F1F1F1" style="stroke:#F1F1F1;stroke-width:1.0;"/><rect fill="none" height="588.0679" rx="12.5" ry="12.5" style="stroke:#181818;stroke-width:0.5;" width="331" x="822" y="7"/><line style="stroke:#181818;stroke-width:0.5;" x1="822" x2="1153" y1="36.0679" y2="36.0679"/><text fill="#000000" font-family="sans-serif" font-size="14" lengthAdjust="spacing" textLength="100" x="937.5" y="26.9659">mostrarMenu()</text><g id="mostrarMenu.PresentandoMenu"><rect fill="#F1F1F1" height="50" rx="12.5" ry="12.5" style="stroke:#181818;stroke-width:0.5;" width="50" x="834" y="140.0679"/><line style="stroke:#181818;stroke-width:0.5;" x1="834" x2="884" y1="169.1358" y2="169.1358"/><text fill="#000000" font-family="sans-serif" font-size="14" lengthAdjust="spacing" textLength="4" x="857" y="160.0339">&#160;</text></g><g id="mostrarMenu.EsperandoSeleccion"><rect fill="#F1F1F1" height="50" rx="12.5" ry="12.5" style="stroke:#181818;stroke-width:0.5;" width="50" x="834" y="440.0679"/><line style="stroke:#181818;stroke-width:0.5;" x1="834" x2="884" y1="469.1358" y2="469.1358"/><text fill="#000000" font-family="sans-serif" font-size="14" lengthAdjust="spacing" textLength="4" x="857" y="460.0339">&#160;</text></g><ellipse cx="859" cy="57.0679" fill="#222222" rx="10" ry="10" style="stroke:#222222;stroke-width:1.0;"/><ellipse cx="859" cy="574.0679" fill="none" rx="11" ry="11" style="stroke:#222222;stroke-width:1.0;"/><ellipse cx="859" cy="574.0679" fill="#222222" rx="6" ry="6" style="stroke:#222222;stroke-width:1.0;"/><!--link *start*mostrarMenu to PresentandoMenu--><g id="link_*start*mostrarMenu_PresentandoMenu"><path d="M859,67.1079 C859,83.0279 859,110.5779 859,133.7079 " fill="none" id="*start*mostrarMenu-to-PresentandoMenu" style="stroke:#008000;stroke-width:1.0;"/><polygon fill="#008000" points="859,139.7079,863,130.7079,859,134.7079,855,130.7079,859,139.7079" style="stroke:#008000;stroke-width:1.0;"/><path d="M864,90.0679 L864,117.0679 L1113,117.0679 L1113,100.0679 L1103,90.0679 L864,90.0679 " fill="#FEFFDD" style="stroke:#181818;stroke-width:0.5;"/><path d="M1103,90.0679 L1103,100.0679 L1113,100.0679 L1103,90.0679 " fill="#FEFFDD" style="stroke:#181818;stroke-width:0.5;"/><text fill="#000000" font-family="sans-serif" font-size="13" font-weight="bold" lengthAdjust="spacing" textLength="95" x="870" y="108.9649">Administrador</text><text fill="#000000" font-family="sans-serif" font-size="13" lengthAdjust="spacing" textLength="130" x="968" y="108.9649">solicita mostrar men&#250;</text></g><!--link PresentandoMenu to EsperandoSeleccion--><g id="link_PresentandoMenu_EsperandoSeleccion"><path d="M859,190.1979 C859,246.0379 859,377.6479 859,433.7079 " fill="none" id="PresentandoMenu-to-EsperandoSeleccion" style="stroke:#008000;stroke-width:1.0;"/><polygon fill="#008000" points="859,439.7079,863,430.7079,859,434.7079,855,430.7079,859,439.7079" style="stroke:#008000;stroke-width:1.0;"/><path d="M864,213.0679 L864,417.0679 L1085,417.0679 L1085,223.0679 L1075,213.0679 L864,213.0679 " fill="#FEFFDD" style="stroke:#181818;stroke-width:0.5;"/><path d="M1075,213.0679 L1075,223.0679 L1085,223.0679 L1075,213.0679 " fill="#FEFFDD" style="stroke:#181818;stroke-width:0.5;"/><text fill="#000000" font-family="sans-serif" font-size="13" font-weight="bold" lengthAdjust="spacing" textLength="52" x="870" y="231.9649">Sistema</text><text fill="#000000" font-family="sans-serif" font-size="13" lengthAdjust="spacing" textLength="145" x="925" y="231.9649">presenta men&#250; principal</text><text fill="#000000" font-family="sans-serif" font-size="13" lengthAdjust="spacing" textLength="111" x="870" y="249.6709">&#8226; listarProgramas()</text><text fill="#000000" font-family="sans-serif" font-size="13" lengthAdjust="spacing" textLength="86" x="870" y="267.377">&#8226; listarCursos()</text><text fill="#000000" font-family="sans-serif" font-size="13" lengthAdjust="spacing" textLength="109" x="870" y="285.083">&#8226; listarProfesores()</text><text fill="#000000" font-family="sans-serif" font-size="13" lengthAdjust="spacing" textLength="93" x="870" y="302.789">&#8226; listarEdificios()</text><text fill="#000000" font-family="sans-serif" font-size="13" lengthAdjust="spacing" textLength="77" x="870" y="320.495">&#8226; listarAulas()</text><text fill="#000000" font-family="sans-serif" font-size="13" lengthAdjust="spacing" textLength="99" x="870" y="338.201">&#8226; listarRecursos()</text><text fill="#000000" font-family="sans-serif" font-size="13" lengthAdjust="spacing" textLength="154" x="870" y="355.907">&#8226; asignarProfesorACurso()</text><text fill="#000000" font-family="sans-serif" font-size="13" lengthAdjust="spacing" textLength="109" x="870" y="373.6131">&#8226; generarHorario()</text><text fill="#000000" font-family="sans-serif" font-size="13" lengthAdjust="spacing" textLength="118" x="870" y="391.3191">&#8226; consultarHorario()</text><text fill="#000000" font-family="sans-serif" font-size="13" lengthAdjust="spacing" textLength="90" x="870" y="409.0251">&#8226; cerrarSesion()</text></g><!--link EsperandoSeleccion to *end*mostrarMenu--><g id="link_EsperandoSeleccion_*end*mostrarMenu"><path d="M859,490.0779 C859,512.9979 859,540.4279 859,556.9879 " fill="none" id="EsperandoSeleccion-to-*end*mostrarMenu" style="stroke:#008000;stroke-width:1.0;"/><polygon fill="#008000" points="859,562.9879,863,553.9879,859,557.9879,855,553.9879,859,562.9879" style="stroke:#008000;stroke-width:1.0;"/><path d="M864,513.0679 L864,540.0679 L1144,540.0679 L1144,523.0679 L1134,513.0679 L864,513.0679 " fill="#FEFFDD" style="stroke:#181818;stroke-width:0.5;"/><path d="M1134,513.0679 L1134,523.0679 L1144,523.0679 L1134,513.0679 " fill="#FEFFDD" style="stroke:#181818;stroke-width:0.5;"/><text fill="#000000" font-family="sans-serif" font-size="13" font-weight="bold" lengthAdjust="spacing" textLength="95" x="870" y="531.9649">Administrador</text><text fill="#000000" font-family="sans-serif" font-size="13" lengthAdjust="spacing" textLength="161" x="968" y="531.9649">solicita una de las opciones</text></g><g id="LISTANDO_PROGRAMAS"><rect fill="#F1F1F1" height="50" rx="12.5" ry="12.5" style="stroke:#181818;stroke-width:0.5;" width="181" x="7" y="692"/><line style="stroke:#181818;stroke-width:0.5;" x1="7" x2="188" y1="721.0679" y2="721.0679"/><text fill="#000000" font-family="sans-serif" font-size="14" lengthAdjust="spacing" textLength="161" x="17" y="711.9659">LISTANDO_PROGRAMAS</text></g><g id="LISTANDO_CURSOS"><rect fill="#F1F1F1" height="50" rx="12.5" ry="12.5" style="stroke:#181818;stroke-width:0.5;" width="150" x="223.5" y="692"/><line style="stroke:#181818;stroke-width:0.5;" x1="223.5" x2="373.5" y1="721.0679" y2="721.0679"/><text fill="#000000" font-family="sans-serif" font-size="14" lengthAdjust="spacing" textLength="130" x="233.5" y="711.9659">LISTANDO_CURSOS</text></g><g id="LISTANDO_PROFESORES"><rect fill="#F1F1F1" height="50" rx="12.5" ry="12.5" style="stroke:#181818;stroke-width:0.5;" width="182" x="408.5" y="692"/><line style="stroke:#181818;stroke-width:0.5;" x1="408.5" x2="590.5" y1="721.0679" y2="721.0679"/><text fill="#000000" font-family="sans-serif" font-size="14" lengthAdjust="spacing" textLength="162" x="418.5" y="711.9659">LISTANDO_PROFESORES</text></g><g id="LISTANDO_EDIFICIOS"><rect fill="#F1F1F1" height="50" rx="12.5" ry="12.5" style="stroke:#181818;stroke-width:0.5;" width="163" x="626" y="692"/><line style="stroke:#181818;stroke-width:0.5;" x1="626" x2="789" y1="721.0679" y2="721.0679"/><text fill="#000000" font-family="sans-serif" font-size="14" lengthAdjust="spacing" textLength="143" x="636" y="711.9659">LISTANDO_EDIFICIOS</text></g><g id="LISTANDO_AULAS"><rect fill="#F1F1F1" height="50" rx="12.5" ry="12.5" style="stroke:#181818;stroke-width:0.5;" width="138" x="824.5" y="692"/><line style="stroke:#181818;stroke-width:0.5;" x1="824.5" x2="962.5" y1="721.0679" y2="721.0679"/><text fill="#000000" font-family="sans-serif" font-size="14" lengthAdjust="spacing" textLength="118" x="834.5" y="711.9659">LISTANDO_AULAS</text></g><g id="LISTANDO_RECURSOS"><rect fill="#F1F1F1" height="50" rx="12.5" ry="12.5" style="stroke:#181818;stroke-width:0.5;" width="167" x="998" y="692"/><line style="stroke:#181818;stroke-width:0.5;" x1="998" x2="1165" y1="721.0679" y2="721.0679"/><text fill="#000000" font-family="sans-serif" font-size="14" lengthAdjust="spacing" textLength="147" x="1008" y="711.9659">LISTANDO_RECURSOS</text></g><g id="CONFIGURANDO_ASIGNACIONES"><rect fill="#F1F1F1" height="50" rx="12.5" ry="12.5" style="stroke:#181818;stroke-width:0.5;" width="243" x="1200" y="692"/><line style="stroke:#181818;stroke-width:0.5;" x1="1200" x2="1443" y1="721.0679" y2="721.0679"/><text fill="#000000" font-family="sans-serif" font-size="14" lengthAdjust="spacing" textLength="223" x="1210" y="711.9659">CONFIGURANDO_ASIGNACIONES</text></g><g id="GENERANDO_HORARIO"><rect fill="#F1F1F1" height="50" rx="12.5" ry="12.5" style="stroke:#181818;stroke-width:0.5;" width="177" x="1478" y="692"/><line style="stroke:#181818;stroke-width:0.5;" x1="1478" x2="1655" y1="721.0679" y2="721.0679"/><text fill="#000000" font-family="sans-serif" font-size="14" lengthAdjust="spacing" textLength="157" x="1488" y="711.9659">GENERANDO_HORARIO</text></g><g id="CONSULTANDO_HORARIOS"><rect fill="#F1F1F1" height="50" rx="12.5" ry="12.5" style="stroke:#181818;stroke-width:0.5;" width="203" x="1690" y="692"/><line style="stroke:#181818;stroke-width:0.5;" x1="1690" x2="1893" y1="721.0679" y2="721.0679"/><text fill="#000000" font-family="sans-serif" font-size="14" lengthAdjust="spacing" textLength="183" x="1700" y="711.9659">CONSULTANDO_HORARIOS</text></g><g id="NO_AUTENTICADO"><rect fill="#F1F1F1" height="50" rx="12.5" ry="12.5" style="stroke:#181818;stroke-width:0.5;" width="146" x="1928.5" y="692"/><line style="stroke:#181818;stroke-width:0.5;" x1="1928.5" x2="2074.5" y1="721.0679" y2="721.0679"/><text fill="#000000" font-family="sans-serif" font-size="14" lengthAdjust="spacing" textLength="126" x="1938.5" y="711.9659">NO_AUTENTICADO</text></g><!--link mostrarMenu to LISTANDO_PROGRAMAS--><g id="link_mostrarMenu_LISTANDO_PROGRAMAS"><path d="M821.85,375.29 C606.47,470.59 257.5,625 257.5,625 C257.5,625 192.5754,661.9236 145.1754,688.8836 " fill="none" id="mostrarMenu-to-LISTANDO_PROGRAMAS" style="stroke:#008000;stroke-width:1.0;"/><polygon fill="#008000" points="139.96,691.85,149.7607,690.8773,144.3062,689.378,145.8055,683.9235,139.96,691.85" style="stroke:#008000;stroke-width:1.0;"/><path d="M262.5,630 L262.5,657 L386.5,657 L386.5,640 L376.5,630 L262.5,630 " fill="#FEFFDD" style="stroke:#181818;stroke-width:0.5;"/><path d="M376.5,630 L376.5,640 L386.5,640 L376.5,630 " fill="#FEFFDD" style="stroke:#181818;stroke-width:0.5;"/><text fill="#000000" font-family="sans-serif" font-size="13" lengthAdjust="spacing" textLength="103" x="268.5" y="648.897">listarProgramas()</text></g><!--link mostrarMenu to LISTANDO_CURSOS--><g id="link_mostrarMenu_LISTANDO_CURSOS"><path d="M821.59,401.69 C661.72,497.75 436.053,633.3498 343.883,688.7298 " fill="none" id="mostrarMenu-to-LISTANDO_CURSOS" style="stroke:#008000;stroke-width:1.0;"/><polygon fill="#008000" points="338.74,691.82,348.5147,690.6134,343.0259,689.2449,344.3944,683.756,338.74,691.82" style="stroke:#008000;stroke-width:1.0;"/><path d="M452.5,630 L452.5,657 L551.5,657 L551.5,640 L541.5,630 L452.5,630 " fill="#FEFFDD" style="stroke:#181818;stroke-width:0.5;"/><path d="M541.5,630 L541.5,640 L551.5,640 L541.5,630 " fill="#FEFFDD" style="stroke:#181818;stroke-width:0.5;"/><text fill="#000000" font-family="sans-serif" font-size="13" lengthAdjust="spacing" textLength="78" x="458.5" y="648.897">listarCursos()</text></g><!--link mostrarMenu to LISTANDO_PROFESORES--><g id="link_mostrarMenu_LISTANDO_PROFESORES"><path d="M821.95,442.45 C714.7,533.43 589.3952,639.7383 532.7852,687.7683 " fill="none" id="mostrarMenu-to-LISTANDO_PROFESORES" style="stroke:#008000;stroke-width:1.0;"/><polygon fill="#008000" points="528.21,691.65,537.6606,688.8775,532.0226,688.4152,532.4849,682.7773,528.21,691.65" style="stroke:#008000;stroke-width:1.0;"/><path d="M610.5,630 L610.5,657 L732.5,657 L732.5,640 L722.5,630 L610.5,630 " fill="#FEFFDD" style="stroke:#181818;stroke-width:0.5;"/><path d="M722.5,630 L722.5,640 L732.5,640 L722.5,630 " fill="#FEFFDD" style="stroke:#181818;stroke-width:0.5;"/><text fill="#000000" font-family="sans-serif" font-size="13" lengthAdjust="spacing" textLength="101" x="616.5" y="648.897">listarProfesores()</text></g><!--link mostrarMenu to LISTANDO_EDIFICIOS--><g id="link_mostrarMenu_LISTANDO_EDIFICIOS"><path d="M821.99,546.71 C781.67,606.33 747.6315,656.66 727.1515,686.94 " fill="none" id="mostrarMenu-to-LISTANDO_EDIFICIOS" style="stroke:#008000;stroke-width:1.0;"/><polygon fill="#008000" points="723.79,691.91,732.1455,686.696,726.5912,687.7684,725.5189,682.2141,723.79,691.91" style="stroke:#008000;stroke-width:1.0;"/><path d="M773.5,630 L773.5,657 L879.5,657 L879.5,640 L869.5,630 L773.5,630 " fill="#FEFFDD" style="stroke:#181818;stroke-width:0.5;"/><path d="M869.5,630 L869.5,640 L879.5,640 L869.5,630 " fill="#FEFFDD" style="stroke:#181818;stroke-width:0.5;"/><text fill="#000000" font-family="sans-serif" font-size="13" lengthAdjust="spacing" textLength="85" x="779.5" y="648.897">listarEdificios()</text></g><!--link mostrarMenu to LISTANDO_AULAS--><g id="link_mostrarMenu_LISTANDO_AULAS"><path d="M920.94,595.14 C911.84,635.23 905.2588,664.229 900.2988,686.069 " fill="none" id="mostrarMenu-to-LISTANDO_AULAS" style="stroke:#008000;stroke-width:1.0;"/><polygon fill="#008000" points="898.97,691.92,904.8639,684.0294,900.0773,687.0442,897.0625,682.2576,898.97,691.92" style="stroke:#008000;stroke-width:1.0;"/><path d="M919.5,630 L919.5,657 L1009.5,657 L1009.5,640 L999.5,630 L919.5,630 " fill="#FEFFDD" style="stroke:#181818;stroke-width:0.5;"/><path d="M999.5,630 L999.5,640 L1009.5,640 L999.5,630 " fill="#FEFFDD" style="stroke:#181818;stroke-width:0.5;"/><text fill="#000000" font-family="sans-serif" font-size="13" lengthAdjust="spacing" textLength="69" x="925.5" y="648.897">listarAulas()</text></g><!--link mostrarMenu to LISTANDO_RECURSOS--><g id="link_mostrarMenu_LISTANDO_RECURSOS"><path d="M1054.06,595.14 C1063.16,635.23 1069.7412,664.229 1074.7012,686.069 " fill="none" id="mostrarMenu-to-LISTANDO_RECURSOS" style="stroke:#008000;stroke-width:1.0;"/><polygon fill="#008000" points="1076.03,691.92,1077.9375,682.2576,1074.9227,687.0442,1070.1361,684.0294,1076.03,691.92" style="stroke:#008000;stroke-width:1.0;"/><path d="M1073.5,630 L1073.5,657 L1185.5,657 L1185.5,640 L1175.5,630 L1073.5,630 " fill="#FEFFDD" style="stroke:#181818;stroke-width:0.5;"/><path d="M1175.5,630 L1175.5,640 L1185.5,640 L1175.5,630 " fill="#FEFFDD" style="stroke:#181818;stroke-width:0.5;"/><text fill="#000000" font-family="sans-serif" font-size="13" lengthAdjust="spacing" textLength="91" x="1079.5" y="648.897">listarRecursos()</text></g><!--link mostrarMenu to CONFIGURANDO_ASIGNACIONES--><g id="link_mostrarMenu_CONFIGURANDO_ASIGNACIONES"><path d="M1153.03,507.18 C1212.58,580.99 1268.6027,650.4301 1298.3627,687.3201 " fill="none" id="mostrarMenu-to-CONFIGURANDO_ASIGNACIONES" style="stroke:#008000;stroke-width:1.0;"/><polygon fill="#008000" points="1302.13,691.99,1299.5923,682.4737,1298.9906,688.0985,1293.3658,687.4967,1302.13,691.99" style="stroke:#008000;stroke-width:1.0;"/><path d="M1278.5,630 L1278.5,657 L1445.5,657 L1445.5,640 L1435.5,630 L1278.5,630 " fill="#FEFFDD" style="stroke:#181818;stroke-width:0.5;"/><path d="M1435.5,630 L1435.5,640 L1445.5,640 L1435.5,630 " fill="#FEFFDD" style="stroke:#181818;stroke-width:0.5;"/><text fill="#000000" font-family="sans-serif" font-size="13" lengthAdjust="spacing" textLength="146" x="1284.5" y="648.897">asignarProfesorACurso()</text></g><!--link mostrarMenu to GENERANDO_HORARIO--><g id="link_mostrarMenu_GENERANDO_HORARIO"><path d="M1153.23,415.65 C1288.88,508.68 1458.5,625 1458.5,625 C1458.5,625 1501.262,661.0234 1533.252,687.9834 " fill="none" id="mostrarMenu-to-GENERANDO_HORARIO" style="stroke:#008000;stroke-width:1.0;"/><polygon fill="#008000" points="1537.84,691.85,1533.5358,682.9915,1534.0167,688.6278,1528.3803,689.1088,1537.84,691.85" style="stroke:#008000;stroke-width:1.0;"/><path d="M1505.5,630 L1505.5,657 L1627.5,657 L1627.5,640 L1617.5,630 L1505.5,630 " fill="#FEFFDD" style="stroke:#181818;stroke-width:0.5;"/><path d="M1617.5,630 L1617.5,640 L1627.5,640 L1617.5,630 " fill="#FEFFDD" style="stroke:#181818;stroke-width:0.5;"/><text fill="#000000" font-family="sans-serif" font-size="13" lengthAdjust="spacing" textLength="101" x="1511.5" y="648.897">generarHorario()</text></g><!--link mostrarMenu to CONSULTANDO_HORARIOS--><g id="link_mostrarMenu_CONSULTANDO_HORARIOS"><path d="M1153.12,383.92 C1346.58,479.62 1640.5,625 1640.5,625 C1640.5,625 1701.5612,661.7927 1746.2912,688.7527 " fill="none" id="mostrarMenu-to-CONSULTANDO_HORARIOS" style="stroke:#008000;stroke-width:1.0;"/><polygon fill="#008000" points="1751.43,691.85,1745.7867,683.7782,1747.1477,689.2689,1741.657,690.6299,1751.43,691.85" style="stroke:#008000;stroke-width:1.0;"/><path d="M1703.5,630 L1703.5,657 L1834.5,657 L1834.5,640 L1824.5,630 L1703.5,630 " fill="#FEFFDD" style="stroke:#181818;stroke-width:0.5;"/><path d="M1824.5,630 L1824.5,640 L1834.5,640 L1824.5,630 " fill="#FEFFDD" style="stroke:#181818;stroke-width:0.5;"/><text fill="#000000" font-family="sans-serif" font-size="13" lengthAdjust="spacing" textLength="110" x="1709.5" y="648.897">consultarHorario()</text></g><!--link mostrarMenu to NO_AUTENTICADO--><g id="link_mostrarMenu_NO_AUTENTICADO"><path d="M1153.06,364.18 C1402.92,458.02 1847.5,625 1847.5,625 C1847.5,625 1909.8443,661.8379 1955.4743,688.7979 " fill="none" id="mostrarMenu-to-NO_AUTENTICADO" style="stroke:#008000;stroke-width:1.0;"/><polygon fill="#008000" points="1960.64,691.85,1954.9262,683.828,1956.3352,689.3066,1950.8567,690.7156,1960.64,691.85" style="stroke:#008000;stroke-width:1.0;"/><path d="M1910.5,630 L1910.5,657 L2013.5,657 L2013.5,640 L2003.5,630 L1910.5,630 " fill="#FEFFDD" style="stroke:#181818;stroke-width:0.5;"/><path d="M2003.5,630 L2003.5,640 L2013.5,640 L2003.5,630 " fill="#FEFFDD" style="stroke:#181818;stroke-width:0.5;"/><text fill="#000000" font-family="sans-serif" font-size="13" lengthAdjust="spacing" textLength="82" x="1916.5" y="648.897">cerrarSesion()</text></g><!--SRC=[dPDHQkCm48RVVGgHVMaNobwW18IZf8RK3bBoLCgYsjCWQaj6iX_Aij2pz1ZxkZVfIJgscqIn7R9P6GoQ6NtpQsRaNfGkfPK5oPM6whK4KfhyjTa4WQja1QGmhhBIteEkYNHaukslhYVaLn0GN5ti13-CMLbme2kfCzE43GEOAy4sRW4vfAaokgCyV7yaDm_VjXP0FzvC-o3I1cc38ACRnI-juVPfIhD2QTK8ouoz_V4q9SxaAbMLtEad1UY_Vzfuq5a7mHNiV_rSleuHlQUK25G1XMmrb5_8BZTkbKvLAVCszkFj7GzYMUpAcYssGBghwvudhAqpGpCUU0Pda3vmiKmzuxr73j4w7yd08Utda4vjzI49RKLu_YreB8QzC_XJlYCrsjLvDUe2YoO13altPTvruT21OPMFce33yJ_zhxKa6H2yF35b0mLtdFzt4FWpxgTSHc9DurdoSyMJ1QVtL0H7sOVzsrFFCyCD5yaeSD_s2sYeSCv4mjafYOU9kO3APj4y2gDncVwiNS2ac-Lu7NSJUW6BizDLz4RxF35CudcqsF1EeOWMCSLhn_rgddeRvnCiMCmw-bt2AO-IO_3WKVsJPB5PhdrcJ-t8WpoFZPiEhLcyZa8wwwdiFUCzx1C0]--></g></svg>