<?xml version="1.0" encoding="us-ascii" standalone="no"?><svg xmlns="http://www.w3.org/2000/svg" xmlns:xlink="http://www.w3.org/1999/xlink" contentStyleType="text/css" height="245px" preserveAspectRatio="none" style="width:369px;height:245px;background:#FFFFFF;" version="1.1" viewBox="0 0 369 245" width="369px" zoomAndPan="magnify"><defs/><g><text fill="#000000" font-family="sans-serif" font-size="12" font-weight="bold" lengthAdjust="spacing" textLength="116" x="6" y="18.8281">GESTI&#211;N DE AULAS</text><line style="stroke:#AAAAAA;stroke-width:1.0;" x1="6" x2="362" y1="26.8441" y2="26.8441"/><line style="stroke:#AAAAAA;stroke-width:1.0;" x1="6" x2="362" y1="28.8441" y2="28.8441"/><text fill="#000000" font-family="sans-serif" font-size="12" lengthAdjust="spacing" textLength="13" x="7" y="46.1722">ID</text><text fill="#000000" font-family="sans-serif" font-size="12" lengthAdjust="spacing" textLength="51" x="30" y="46.1722">NOMBRE</text><text fill="#000000" font-family="sans-serif" font-size="12" lengthAdjust="spacing" textLength="69" x="99" y="46.1722">CAPACIDAD</text><text fill="#000000" font-family="sans-serif" font-size="12" lengthAdjust="spacing" textLength="51" x="170" y="46.1722">EDIFICIO</text><text fill="#000000" font-family="sans-serif" font-size="12" lengthAdjust="spacing" textLength="46" x="303" y="46.1722">ACCI&#211;N</text><line style="stroke:#AAAAAA;stroke-width:1.0;" x1="7" x2="29" y1="55.1882" y2="55.1882"/><line style="stroke:#AAAAAA;stroke-width:1.0;" x1="30" x2="98" y1="55.1882" y2="55.1882"/><line style="stroke:#AAAAAA;stroke-width:1.0;" x1="99" x2="169" y1="55.1882" y2="55.1882"/><line style="stroke:#AAAAAA;stroke-width:1.0;" x1="170" x2="302" y1="55.1882" y2="55.1882"/><line style="stroke:#AAAAAA;stroke-width:1.0;" x1="303" x2="361" y1="55.1882" y2="55.1882"/><text fill="#000000" font-family="sans-serif" font-size="12" lengthAdjust="spacing" textLength="21" x="7" y="72.5163">001</text><text fill="#000000" font-family="sans-serif" font-size="12" lengthAdjust="spacing" textLength="49" x="30" y="72.5163">Aula 101</text><text fill="#000000" font-family="sans-serif" font-size="12" lengthAdjust="spacing" textLength="14" x="99" y="72.5163">30</text><text fill="#000000" font-family="sans-serif" font-size="12" lengthAdjust="spacing" textLength="91" x="170" y="72.5163">Edificio Principal</text><rect fill="#EEEEEE" height="20.3441" rx="5" ry="5" style="stroke:#000000;stroke-width:2.5;" width="52" x="305.5" y="62.1882"/><text fill="#000000" font-family="sans-serif" font-size="12" lengthAdjust="spacing" textLength="33" x="315" y="77.0163">Editar</text><text fill="#000000" font-family="sans-serif" font-size="12" lengthAdjust="spacing" textLength="21" x="7" y="99.8604">002</text><text fill="#000000" font-family="sans-serif" font-size="12" lengthAdjust="spacing" textLength="49" x="30" y="99.8604">Aula 102</text><text fill="#000000" font-family="sans-serif" font-size="12" lengthAdjust="spacing" textLength="14" x="99" y="99.8604">25</text><text fill="#000000" font-family="sans-serif" font-size="12" lengthAdjust="spacing" textLength="91" x="170" y="99.8604">Edificio Principal</text><rect fill="#EEEEEE" height="20.3441" rx="5" ry="5" style="stroke:#000000;stroke-width:2.5;" width="52" x="305.5" y="89.5323"/><text fill="#000000" font-family="sans-serif" font-size="12" lengthAdjust="spacing" textLength="33" x="315" y="104.3604">Editar</text><text fill="#000000" font-family="sans-serif" font-size="12" lengthAdjust="spacing" textLength="21" x="7" y="127.2045">003</text><text fill="#000000" font-family="sans-serif" font-size="12" lengthAdjust="spacing" textLength="44" x="30" y="127.2045">Lab 201</text><text fill="#000000" font-family="sans-serif" font-size="12" lengthAdjust="spacing" textLength="14" x="99" y="127.2045">20</text><text fill="#000000" font-family="sans-serif" font-size="12" lengthAdjust="spacing" textLength="131" x="170" y="127.2045">Edificio de Laboratorios</text><rect fill="#EEEEEE" height="20.3441" rx="5" ry="5" style="stroke:#000000;stroke-width:2.5;" width="52" x="305.5" y="116.8765"/><text fill="#000000" font-family="sans-serif" font-size="12" lengthAdjust="spacing" textLength="33" x="315" y="131.7045">Editar</text><text fill="#000000" font-family="sans-serif" font-size="12" lengthAdjust="spacing" textLength="21" x="7" y="154.5487">004</text><text fill="#000000" font-family="sans-serif" font-size="12" lengthAdjust="spacing" textLength="67" x="30" y="154.5487">Aula Magna</text><text fill="#000000" font-family="sans-serif" font-size="12" lengthAdjust="spacing" textLength="21" x="99" y="154.5487">100</text><text fill="#000000" font-family="sans-serif" font-size="12" lengthAdjust="spacing" textLength="91" x="170" y="154.5487">Edificio Principal</text><rect fill="#EEEEEE" height="20.3441" rx="5" ry="5" style="stroke:#000000;stroke-width:2.5;" width="52" x="305.5" y="144.2206"/><text fill="#000000" font-family="sans-serif" font-size="12" lengthAdjust="spacing" textLength="33" x="315" y="159.0487">Editar</text><line style="stroke:#000000;stroke-width:1.0;" x1="6" x2="29" y1="32.3441" y2="32.3441"/><line style="stroke:#000000;stroke-width:1.0;" x1="29" x2="98" y1="32.3441" y2="32.3441"/><line style="stroke:#000000;stroke-width:1.0;" x1="98" x2="169" y1="32.3441" y2="32.3441"/><line style="stroke:#000000;stroke-width:1.0;" x1="169" x2="302" y1="32.3441" y2="32.3441"/><line style="stroke:#000000;stroke-width:1.0;" x1="302" x2="361" y1="32.3441" y2="32.3441"/><line style="stroke:#000000;stroke-width:1.0;" x1="6" x2="29" y1="168.0647" y2="168.0647"/><line style="stroke:#000000;stroke-width:1.0;" x1="29" x2="98" y1="168.0647" y2="168.0647"/><line style="stroke:#000000;stroke-width:1.0;" x1="98" x2="169" y1="168.0647" y2="168.0647"/><line style="stroke:#000000;stroke-width:1.0;" x1="169" x2="302" y1="168.0647" y2="168.0647"/><line style="stroke:#000000;stroke-width:1.0;" x1="302" x2="361" y1="168.0647" y2="168.0647"/><line style="stroke:#000000;stroke-width:1.0;" x1="6" x2="6" y1="32.3441" y2="50.6882"/><line style="stroke:#000000;stroke-width:1.0;" x1="361" x2="361" y1="140.7206" y2="168.0647"/><line style="stroke:#000000;stroke-width:1.0;" x1="361" x2="361" y1="113.3765" y2="140.7206"/><line style="stroke:#000000;stroke-width:1.0;" x1="361" x2="361" y1="86.0323" y2="113.3765"/><line style="stroke:#000000;stroke-width:1.0;" x1="361" x2="361" y1="58.6882" y2="86.0323"/><line style="stroke:#000000;stroke-width:1.0;" x1="361" x2="361" y1="50.6882" y2="58.6882"/><line style="stroke:#000000;stroke-width:1.0;" x1="361" x2="361" y1="32.3441" y2="50.6882"/><line style="stroke:#000000;stroke-width:1.0;" x1="6" x2="6" y1="140.7206" y2="168.0647"/><line style="stroke:#000000;stroke-width:1.0;" x1="6" x2="6" y1="113.3765" y2="140.7206"/><line style="stroke:#000000;stroke-width:1.0;" x1="6" x2="6" y1="86.0323" y2="113.3765"/><line style="stroke:#000000;stroke-width:1.0;" x1="6" x2="6" y1="58.6882" y2="86.0323"/><line style="stroke:#000000;stroke-width:1.0;" x1="6" x2="6" y1="50.6882" y2="58.6882"/><line style="stroke:#AAAAAA;stroke-width:1.5;" x1="6" x2="362" y1="173.5647" y2="173.5647"/><text fill="#000000" font-family="sans-serif" font-size="12" font-weight="bold" lengthAdjust="spacing" textLength="51" x="7" y="191.8928">BUSCAR:</text><text fill="#000000" font-family="sans-serif" font-size="12" lengthAdjust="spacing" textLength="125" x="61" y="191.8928">[                                       ]</text><rect fill="#EEEEEE" height="20.3441" rx="5" ry="5" style="stroke:#000000;stroke-width:2.5;" width="60" x="190.5" y="181.5647"/><text fill="#000000" font-family="sans-serif" font-size="12" lengthAdjust="spacing" textLength="33" x="204" y="196.3928">Filtrar</text><line style="stroke:#AAAAAA;stroke-width:1.5;" x1="6" x2="362" y1="210.9088" y2="210.9088"/><rect fill="#EEEEEE" height="20.3441" rx="5" ry="5" style="stroke:#000000;stroke-width:2.5;" width="92" x="9.5" y="218.9088"/><text fill="#000000" font-family="sans-serif" font-size="12" lengthAdjust="spacing" textLength="69" x="21" y="233.7369">Crear nuevo</text><rect fill="#EEEEEE" height="20.3441" rx="5" ry="5" style="stroke:#000000;stroke-width:2.5;" width="156" x="108.5" y="218.9088"/><text fill="#000000" font-family="sans-serif" font-size="12" lengthAdjust="spacing" textLength="113" x="130" y="233.7369">Borrar seleccionado</text><rect fill="#EEEEEE" height="20.3441" rx="5" ry="5" style="stroke:#000000;stroke-width:2.5;" width="44" x="271.5" y="218.9088"/><text fill="#000000" font-family="sans-serif" font-size="12" lengthAdjust="spacing" textLength="25" x="281" y="233.7369">Salir</text><!--SRC=[ZL91Rjim4Bpp5NjCK2YHPBieX3Y8BCc1N2asB3iN8uULHBi4P3AWA1M1atoYJ-h7kdGGkEt914aiXpEpYoNlMeFQjDWOm58B7NODjivFeVbMuvwp0x2RylO-ALRfxryF42SGhhEmkBakRm7OU3ncXoy0QGoly33F9yk4WYXSX54QXnPCudIQHkcSmZ2Ah0S3S9pNloO1hkjP0kK6xnWENAkjnLPKGi522rc9Psm8t11A9JyTLVv9PKD_T9PgG4269VZ7LFu_gMfkhvH6exHGxV_IuMV277SIwU2vvrJwHklzdRO3DNEoBg9m6HnRk87pnfFrcuh6Q38ykMqYpL63x7YlZfI9qiI0bZUyedearXzuWOsmmZV6xhYixNipjcXGcdMUGSzrIsJmhdpN7ruDBbO_EfZo4hmHjISOke4xWYXPWRs-P1VtYwpteLMThZZKeZLQb9qXXqismnvXsKaZzZo0-JENi_Zx9m29x8LMSi-bORF7_4JuEdGcma31DTK2ZpcB-HOx-fI9h5Gjv2w0zMhgV6CPobs7E_BcBOiK-UgN09BY3m00]--></g></svg>