<?xml version="1.0" encoding="us-ascii" standalone="no"?><svg xmlns="http://www.w3.org/2000/svg" xmlns:xlink="http://www.w3.org/1999/xlink" contentStyleType="text/css" height="665px" preserveAspectRatio="none" style="width:578px;height:665px;background:#FFFFFF;" version="1.1" viewBox="0 0 578 665" width="578px" zoomAndPan="magnify"><defs/><g><path d="M59.5,7 L372.5,7 A12.5,12.5 0 0 1 385,19.5 L385,36.0679 L47,36.0679 L47,19.5 A12.5,12.5 0 0 1 59.5,7 " fill="#F1F1F1" style="stroke:#F1F1F1;stroke-width:1.0;"/><rect fill="none" height="505.0679" rx="12.5" ry="12.5" style="stroke:#181818;stroke-width:0.5;" width="338" x="47" y="7"/><line style="stroke:#181818;stroke-width:0.5;" x1="47" x2="385" y1="36.0679" y2="36.0679"/><text fill="#000000" font-family="sans-serif" font-size="14" lengthAdjust="spacing" textLength="78" x="177" y="26.9659">abrirAulas()</text><g id="abrirAulas.MostrandoLista"><rect fill="#F1F1F1" height="50" rx="12.5" ry="12.5" style="stroke:#181818;stroke-width:0.5;" width="50" x="59" y="140.0679"/><line style="stroke:#181818;stroke-width:0.5;" x1="59" x2="109" y1="169.1358" y2="169.1358"/><text fill="#000000" font-family="sans-serif" font-size="14" lengthAdjust="spacing" textLength="4" x="82" y="160.0339">&#160;</text></g><g id="abrirAulas.FiltrandoLista"><rect fill="#F1F1F1" height="50" rx="12.5" ry="12.5" style="stroke:#181818;stroke-width:0.5;" width="50" x="59" y="354.5679"/><line style="stroke:#181818;stroke-width:0.5;" x1="59" x2="109" y1="383.6358" y2="383.6358"/><text fill="#000000" font-family="sans-serif" font-size="14" lengthAdjust="spacing" textLength="4" x="82" y="374.5339">&#160;</text></g><ellipse cx="84" cy="57.0679" fill="#222222" rx="10" ry="10" style="stroke:#222222;stroke-width:1.0;"/><ellipse cx="84" cy="491.0679" fill="none" rx="11" ry="11" style="stroke:#222222;stroke-width:1.0;"/><ellipse cx="84" cy="491.0679" fill="#222222" rx="6" ry="6" style="stroke:#222222;stroke-width:1.0;"/><!--link *start*abrirAulas to MostrandoLista--><g id="link_*start*abrirAulas_MostrandoLista"><path d="M84,67.1079 C84,83.0279 84,110.5779 84,133.7079 " fill="none" id="*start*abrirAulas-to-MostrandoLista" style="stroke:#008000;stroke-width:1.0;"/><polygon fill="#008000" points="84,139.7079,88,130.7079,84,134.7079,80,130.7079,84,139.7079" style="stroke:#008000;stroke-width:1.0;"/><path d="M89,90.0679 L89,117.0679 L314,117.0679 L314,100.0679 L304,90.0679 L89,90.0679 " fill="#FEFFDD" style="stroke:#181818;stroke-width:0.5;"/><path d="M304,90.0679 L304,100.0679 L314,100.0679 L304,90.0679 " fill="#FEFFDD" style="stroke:#181818;stroke-width:0.5;"/><text fill="#000000" font-family="sans-serif" font-size="13" font-weight="bold" lengthAdjust="spacing" textLength="95" x="95" y="108.9649">Administrador</text><text fill="#000000" font-family="sans-serif" font-size="13" lengthAdjust="spacing" textLength="106" x="193" y="108.9649">solicita abrir aulas</text></g><!--link MostrandoLista to FiltrandoLista--><g id="link_MostrandoLista_FiltrandoLista"><path d="M84,190.4479 C84,231.4379 84,307.6779 84,348.4779 " fill="none" id="MostrandoLista-to-FiltrandoLista" style="stroke:#008000;stroke-width:1.0;"/><polygon fill="#008000" points="84,354.4779,88,345.4779,84,349.4779,80,345.4779,84,354.4779" style="stroke:#008000;stroke-width:1.0;"/><path d="M89,213.0679 L89,329.0679 L376,329.0679 L376,223.0679 L366,213.0679 L89,213.0679 " fill="#FEFFDD" style="stroke:#181818;stroke-width:0.5;"/><path d="M366,213.0679 L366,223.0679 L376,223.0679 L366,213.0679 " fill="#FEFFDD" style="stroke:#181818;stroke-width:0.5;"/><text fill="#000000" font-family="sans-serif" font-size="13" font-weight="bold" lengthAdjust="spacing" textLength="52" x="95" y="231.9649">Sistema</text><text fill="#000000" font-family="sans-serif" font-size="13" lengthAdjust="spacing" textLength="132" x="150" y="231.9649">presenta lista de aulas</text><text fill="#000000" font-family="sans-serif" font-size="13" lengthAdjust="spacing" textLength="266" x="95" y="249.6709">&#8226; ID, nombre, capacidad, edificio de cada aula</text><text fill="#000000" font-family="sans-serif" font-size="13" lengthAdjust="spacing" textLength="166" x="95" y="267.377">&#8226; Permite solicitar filtrar lista</text><text fill="#000000" font-family="sans-serif" font-size="13" lengthAdjust="spacing" textLength="205" x="95" y="285.083">&#8226; Permite solicitar crear aula nueva</text><text fill="#000000" font-family="sans-serif" font-size="13" lengthAdjust="spacing" textLength="183" x="95" y="302.789">&#8226; Permite solicitar eliminar aula</text><text fill="#000000" font-family="sans-serif" font-size="13" lengthAdjust="spacing" textLength="170" x="95" y="320.495">&#8226; Permite solicitar editar aula</text></g><!--link FiltrandoLista to FiltrandoLista--><g id="link_FiltrandoLista_FiltrandoLista"><path d="M109.18,367.6179 C118.91,367.0879 127,371.0679 127,379.5679 C127,388.0679 124.9011,392.3743 115.1711,391.8443 " fill="none" id="FiltrandoLista-to-FiltrandoLista" style="stroke:#008000;stroke-width:1.0;"/><polygon fill="#008000" points="109.18,391.5179,117.9491,396.0015,114.1726,391.7899,118.3842,388.0133,109.18,391.5179" style="stroke:#008000;stroke-width:1.0;"/><path d="M132,357.0679 L132,402.0679 L354,402.0679 L354,367.0679 L344,357.0679 L132,357.0679 " fill="#FEFFDD" style="stroke:#181818;stroke-width:0.5;"/><path d="M344,357.0679 L344,367.0679 L354,367.0679 L344,357.0679 " fill="#FEFFDD" style="stroke:#181818;stroke-width:0.5;"/><text fill="#000000" font-family="sans-serif" font-size="13" font-weight="bold" lengthAdjust="spacing" textLength="95" x="138" y="375.9649">Administrador</text><text fill="#000000" font-family="sans-serif" font-size="13" lengthAdjust="spacing" textLength="103" x="236" y="375.9649">solicita filtrar lista</text><text fill="#000000" font-family="sans-serif" font-size="13" font-weight="bold" lengthAdjust="spacing" textLength="52" x="138" y="393.6709">Sistema</text><text fill="#000000" font-family="sans-serif" font-size="13" lengthAdjust="spacing" textLength="125" x="193" y="393.6709">presenta lista filtrada</text></g><!--link FiltrandoLista to *end*abrirAulas--><g id="link_FiltrandoLista_*end*abrirAulas"><path d="M84,404.5979 C84,428.1479 84,456.8979 84,473.9179 " fill="none" id="FiltrandoLista-to-*end*abrirAulas" style="stroke:#008000;stroke-width:1.0;"/><polygon fill="#008000" points="84,479.9179,88,470.9179,84,474.9179,80,470.9179,84,479.9179" style="stroke:#008000;stroke-width:1.0;"/><path d="M89,430.0679 L89,457.0679 L369,457.0679 L369,440.0679 L359,430.0679 L89,430.0679 " fill="#FEFFDD" style="stroke:#181818;stroke-width:0.5;"/><path d="M359,430.0679 L359,440.0679 L369,440.0679 L359,430.0679 " fill="#FEFFDD" style="stroke:#181818;stroke-width:0.5;"/><text fill="#000000" font-family="sans-serif" font-size="13" font-weight="bold" lengthAdjust="spacing" textLength="95" x="95" y="448.9649">Administrador</text><text fill="#000000" font-family="sans-serif" font-size="13" lengthAdjust="spacing" textLength="161" x="193" y="448.9649">solicita una de las opciones</text></g><g id="AULA_ABIERTO"><rect fill="#F1F1F1" height="50" rx="12.5" ry="12.5" style="stroke:#181818;stroke-width:0.5;" width="120" x="7" y="609"/><line style="stroke:#181818;stroke-width:0.5;" x1="7" x2="127" y1="638.0679" y2="638.0679"/><text fill="#000000" font-family="sans-serif" font-size="14" lengthAdjust="spacing" textLength="100" x="17" y="628.9659">AULA_ABIERTO</text></g><g id="AULAS_ABIERTO"><rect fill="#F1F1F1" height="50" rx="12.5" ry="12.5" style="stroke:#181818;stroke-width:0.5;" width="128" x="220" y="609"/><line style="stroke:#181818;stroke-width:0.5;" x1="220" x2="348" y1="638.0679" y2="638.0679"/><text fill="#000000" font-family="sans-serif" font-size="14" lengthAdjust="spacing" textLength="108" x="230" y="628.9659">AULAS_ABIERTO</text></g><g id="SISTEMA_DISPONIBLE"><rect fill="#F1F1F1" height="50" rx="12.5" ry="12.5" style="stroke:#181818;stroke-width:0.5;" width="167" x="383.5" y="609"/><line style="stroke:#181818;stroke-width:0.5;" x1="383.5" x2="550.5" y1="638.0679" y2="638.0679"/><text fill="#000000" font-family="sans-serif" font-size="14" lengthAdjust="spacing" textLength="147" x="393.5" y="628.9659">SISTEMA_DISPONIBLE</text></g><!--link abrirAulas to AULA_ABIERTO--><g id="link_abrirAulas_AULA_ABIERTO"><path d="M46.99,487.06 C22.84,519.42 6,542 6,542 C6,542 6,579 6,579 C6,579 18.9765,590.494 35.2165,604.864 " fill="none" id="abrirAulas-to-AULA_ABIERTO" style="stroke:#008000;stroke-width:1.0;"/><polygon fill="#008000" points="39.71,608.84,35.6205,599.8803,35.9655,605.5266,30.3191,605.8716,39.71,608.84" style="stroke:#008000;stroke-width:1.0;"/><path d="M11,547 L11,574 L101,574 L101,557 L91,547 L11,547 " fill="#FEFFDD" style="stroke:#181818;stroke-width:0.5;"/><path d="M91,547 L91,557 L101,557 L91,547 " fill="#FEFFDD" style="stroke:#181818;stroke-width:0.5;"/><text fill="#000000" font-family="sans-serif" font-size="13" lengthAdjust="spacing" textLength="69" x="17" y="565.897">editarAula()</text></g><!--link abrirAulas to AULA_ABIERTO--><g id="link_abrirAulas_AULA_ABIERTO"><path d="M132.22,512.23 C119.22,551.3 110,579 110,579 C110,579 101.429,589.7775 89.979,604.1475 " fill="none" id="abrirAulas-to-AULA_ABIERTO-1" style="stroke:#008000;stroke-width:1.0;"/><polygon fill="#008000" points="86.24,608.84,94.9769,604.2939,89.3558,604.9296,88.7202,599.3085,86.24,608.84" style="stroke:#008000;stroke-width:1.0;"/><path d="M127,547 L127,574 L212,574 L212,557 L202,547 L127,547 " fill="#FEFFDD" style="stroke:#181818;stroke-width:0.5;"/><path d="M202,547 L202,557 L212,557 L202,547 " fill="#FEFFDD" style="stroke:#181818;stroke-width:0.5;"/><text fill="#000000" font-family="sans-serif" font-size="13" lengthAdjust="spacing" textLength="64" x="133" y="565.897">crearAula()</text></g><!--link abrirAulas to AULAS_ABIERTO--><g id="link_abrirAulas_AULAS_ABIERTO"><path d="M261.92,512.06 C269.13,551.52 274.4317,580.6077 278.4617,602.6677 " fill="none" id="abrirAulas-to-AULAS_ABIERTO" style="stroke:#008000;stroke-width:1.0;"/><polygon fill="#008000" points="279.54,608.57,281.8575,598.9977,278.6415,603.6514,273.9877,600.4354,279.54,608.57" style="stroke:#008000;stroke-width:1.0;"/><path d="M280,547 L280,574 L383,574 L383,557 L373,547 L280,547 " fill="#FEFFDD" style="stroke:#181818;stroke-width:0.5;"/><path d="M373,547 L373,557 L383,557 L373,547 " fill="#FEFFDD" style="stroke:#181818;stroke-width:0.5;"/><text fill="#000000" font-family="sans-serif" font-size="13" lengthAdjust="spacing" textLength="82" x="286" y="565.897">eliminarAula()</text></g><!--link abrirAulas to SISTEMA_DISPONIBLE--><g id="link_abrirAulas_SISTEMA_DISPONIBLE"><path d="M385.16,511.54 C412.02,551.41 432.4885,581.7733 447.3985,603.9133 " fill="none" id="abrirAulas-to-SISTEMA_DISPONIBLE" style="stroke:#008000;stroke-width:1.0;"/><polygon fill="#008000" points="450.75,608.89,449.0405,599.1906,447.9571,604.7428,442.4049,603.6593,450.75,608.89" style="stroke:#008000;stroke-width:1.0;"/><path d="M435,547 L435,574 L571,574 L571,557 L561,547 L435,547 " fill="#FEFFDD" style="stroke:#181818;stroke-width:0.5;"/><path d="M561,547 L561,557 L571,557 L561,547 " fill="#FEFFDD" style="stroke:#181818;stroke-width:0.5;"/><text fill="#000000" font-family="sans-serif" font-size="13" lengthAdjust="spacing" textLength="115" x="441" y="565.897">completarGestion()</text></g><!--SRC=[dLFHQi8m57tFLrpSYmvbFo12PMuKTChgdaGaRQuZc2ObhGCPWttBFcrVijjKQwrOfcbfINBkkIVdtgGRgHDkUGnAQins2K9Yr2wVC9PcF4FWePNMsogU0hsjuxJTQS4dOq2ZGBRe8SZ4f9dbMfYnfFNp_IUfgliEiBXVGcznzsuHzR8tg760msX374RdIZTkeHyEF15BBNEiCBR_40uWDKf6acASKE2vKeT6BGeA6gpyr19LDTHqNf8Gq2x6t2LFBAQeYKSvDe6L_B_VF-0_TeaZ3Yrs8U89ZwJWeWiev9f4cpmWueAxg39eXZQMbFTmCWjhfymMMHfmaKLUM01wYnzDK5IIdDoZct32_KhKmTMZewUstU9eGr7FJzvSWG8lRj1A7NcBmArsPSzlYqcef1fFkuzzCLQvKTMCtjlOMtb3V_GwdxAJj8NfUKIxmqgcwtbSFrn34rpGis-M_r85VZ0VJRpLen_CfY_-S3ogwJ9nef2E-8nfHfvLEVy0]--></g></svg>