<?xml version="1.0" encoding="us-ascii" standalone="no"?><svg xmlns="http://www.w3.org/2000/svg" xmlns:xlink="http://www.w3.org/1999/xlink" contentStyleType="text/css" height="758px" preserveAspectRatio="none" style="width:514px;height:758px;background:#FFFFFF;" version="1.1" viewBox="0 0 514 758" width="514px" zoomAndPan="magnify"><defs/><g><path d="M19.5,7 L477.5,7 A12.5,12.5 0 0 1 490,19.5 L490,36.0679 L7,36.0679 L7,19.5 A12.5,12.5 0 0 1 19.5,7 " fill="#F1F1F1" style="stroke:#F1F1F1;stroke-width:1.0;"/><rect fill="none" height="580.0679" rx="12.5" ry="12.5" style="stroke:#181818;stroke-width:0.5;" width="483" x="7" y="7"/><line style="stroke:#181818;stroke-width:0.5;" x1="7" x2="490" y1="36.0679" y2="36.0679"/><text fill="#000000" font-family="sans-serif" font-size="14" lengthAdjust="spacing" textLength="94" x="201.5" y="26.9659">iniciarSesion()</text><g id="iniciarSesion.SolicitandoAcceso"><rect fill="#F1F1F1" height="50" rx="12.5" ry="12.5" style="stroke:#181818;stroke-width:0.5;" width="50" x="134" y="140.0679"/><line style="stroke:#181818;stroke-width:0.5;" x1="134" x2="184" y1="169.1358" y2="169.1358"/><text fill="#000000" font-family="sans-serif" font-size="14" lengthAdjust="spacing" textLength="4" x="157" y="160.0339">&#160;</text></g><g id="iniciarSesion.ProporcionandoCredenciales"><rect fill="#F1F1F1" height="50" rx="12.5" ry="12.5" style="stroke:#181818;stroke-width:0.5;" width="50" x="19" y="299.0679"/><line style="stroke:#181818;stroke-width:0.5;" x1="19" x2="69" y1="328.1358" y2="328.1358"/><text fill="#000000" font-family="sans-serif" font-size="14" lengthAdjust="spacing" textLength="4" x="42" y="319.0339">&#160;</text></g><g id="elem_c"><polygon fill="#F1F1F1" points="149,458.0679,161,470.0679,149,482.0679,137,470.0679,149,458.0679" style="stroke:#181818;stroke-width:0.5;"/></g><ellipse cx="159" cy="57.0679" fill="#222222" rx="10" ry="10" style="stroke:#222222;stroke-width:1.0;"/><ellipse cx="149" cy="566.0679" fill="none" rx="11" ry="11" style="stroke:#222222;stroke-width:1.0;"/><ellipse cx="149" cy="566.0679" fill="#222222" rx="6" ry="6" style="stroke:#222222;stroke-width:1.0;"/><!--link *start*iniciarSesion to SolicitandoAcceso--><g id="link_*start*iniciarSesion_SolicitandoAcceso"><path d="M159,67.1079 C159,83.0279 159,110.5779 159,133.7079 " fill="none" id="*start*iniciarSesion-to-SolicitandoAcceso" style="stroke:#008000;stroke-width:1.0;"/><polygon fill="#008000" points="159,139.7079,163,130.7079,159,134.7079,155,130.7079,159,139.7079" style="stroke:#008000;stroke-width:1.0;"/><path d="M164,90.0679 L164,117.0679 L481,117.0679 L481,100.0679 L471,90.0679 L164,90.0679 " fill="#FEFFDD" style="stroke:#181818;stroke-width:0.5;"/><path d="M471,90.0679 L471,100.0679 L481,100.0679 L471,90.0679 " fill="#FEFFDD" style="stroke:#181818;stroke-width:0.5;"/><text fill="#000000" font-family="sans-serif" font-size="13" font-weight="bold" lengthAdjust="spacing" textLength="141" x="170" y="108.9649">UsuarioNoRegistrado</text><text fill="#000000" font-family="sans-serif" font-size="13" lengthAdjust="spacing" textLength="152" x="314" y="108.9649">solicita acceder al sistema</text></g><!--link SolicitandoAcceso to ProporcionandoCredenciales--><g id="link_SolicitandoAcceso_ProporcionandoCredenciales"><path d="M133.54,177.3279 C105.4,189.7679 64,208.0679 64,208.0679 C64,208.0679 55.089,259.3268 49.219,293.0468 " fill="none" id="SolicitandoAcceso-to-ProporcionandoCredenciales" style="stroke:#008000;stroke-width:1.0;"/><polygon fill="#008000" points="48.19,298.9579,53.6742,290.7773,49.0475,294.032,45.7928,289.4053,48.19,298.9579" style="stroke:#008000;stroke-width:1.0;"/><path d="M69,213.0679 L69,276.0679 L254,276.0679 L254,223.0679 L244,213.0679 L69,213.0679 " fill="#FEFFDD" style="stroke:#181818;stroke-width:0.5;"/><path d="M244,213.0679 L244,223.0679 L254,223.0679 L244,213.0679 " fill="#FEFFDD" style="stroke:#181818;stroke-width:0.5;"/><text fill="#000000" font-family="sans-serif" font-size="13" font-weight="bold" lengthAdjust="spacing" textLength="52" x="75" y="231.9649">Sistema</text><text fill="#000000" font-family="sans-serif" font-size="13" lengthAdjust="spacing" textLength="109" x="130" y="231.9649">permite introducir</text><text fill="#000000" font-family="sans-serif" font-size="13" lengthAdjust="spacing" textLength="53" x="75" y="249.6709">&#8226; usuario</text><text fill="#000000" font-family="sans-serif" font-size="13" lengthAdjust="spacing" textLength="75" x="75" y="267.377">&#8226; contrase&#241;a</text></g><!--link ProporcionandoCredenciales to c--><g id="link_ProporcionandoCredenciales_c"><path d="M33.53,349.4979 C29.57,358.7379 26,367.0679 26,367.0679 C26,367.0679 26,440.0679 26,440.0679 C26,440.0679 105.3099,458.7721 133.9199,465.5121 " fill="none" id="ProporcionandoCredenciales-to-c" style="stroke:#008000;stroke-width:1.0;"/><polygon fill="#008000" points="139.76,466.8879,131.917,460.9308,134.8932,465.7414,130.0826,468.7176,139.76,466.8879" style="stroke:#008000;stroke-width:1.0;"/><path d="M31,372.0679 L31,435.0679 L254,435.0679 L254,382.0679 L244,372.0679 L31,372.0679 " fill="#FEFFDD" style="stroke:#181818;stroke-width:0.5;"/><path d="M244,372.0679 L244,382.0679 L254,382.0679 L244,372.0679 " fill="#FEFFDD" style="stroke:#181818;stroke-width:0.5;"/><text fill="#000000" font-family="sans-serif" font-size="13" font-weight="bold" lengthAdjust="spacing" textLength="141" x="37" y="390.9649">UsuarioNoRegistrado</text><text fill="#000000" font-family="sans-serif" font-size="13" lengthAdjust="spacing" textLength="58" x="181" y="390.9649">introduce</text><text fill="#000000" font-family="sans-serif" font-size="13" lengthAdjust="spacing" textLength="53" x="37" y="408.6709">&#8226; usuario</text><text fill="#000000" font-family="sans-serif" font-size="13" lengthAdjust="spacing" textLength="75" x="37" y="426.377">&#8226; contrase&#241;a</text></g><!--link c to SolicitandoAcceso--><g id="link_c_SolicitandoAcceso"><path d="M158,466.6979 C184.27,459.7679 259,440.0679 259,440.0679 C259,440.0679 259,208.0679 259,208.0679 C259,208.0679 219.3922,191.4306 189.7622,178.9906 " fill="none" id="c-to-SolicitandoAcceso" style="stroke:#FF0000;stroke-width:1.0;"/><polygon fill="#FF0000" points="184.23,176.6679,190.9799,183.84,188.8402,178.6035,194.0767,176.4638,184.23,176.6679" style="stroke:#FF0000;stroke-width:1.0;"/><path d="M264,310.5679 L264,337.5679 L457,337.5679 L457,320.5679 L447,310.5679 L264,310.5679 " fill="#FEFFDD" style="stroke:#181818;stroke-width:0.5;"/><path d="M447,310.5679 L447,320.5679 L457,320.5679 L447,310.5679 " fill="#FEFFDD" style="stroke:#181818;stroke-width:0.5;"/><text fill="#000000" font-family="sans-serif" font-size="13" lengthAdjust="spacing" textLength="172" x="270" y="329.4649">usuario:contrase&#241;a no v&#225;lida</text></g><!--link c to *end*iniciarSesion--><g id="link_c_*end*iniciarSesion"><path d="M149,482.2179 C149,500.6079 149,530.9979 149,548.7879 " fill="none" id="c-to-*end*iniciarSesion" style="stroke:#008000;stroke-width:1.0;"/><polygon fill="#008000" points="149,554.7879,153,545.7879,149,549.7879,145,545.7879,149,554.7879" style="stroke:#008000;stroke-width:1.0;"/><path d="M154,505.0679 L154,532.0679 L328,532.0679 L328,515.0679 L318,505.0679 L154,505.0679 " fill="#FEFFDD" style="stroke:#181818;stroke-width:0.5;"/><path d="M318,505.0679 L318,515.0679 L328,515.0679 L318,505.0679 " fill="#FEFFDD" style="stroke:#181818;stroke-width:0.5;"/><text fill="#000000" font-family="sans-serif" font-size="13" lengthAdjust="spacing" textLength="153" x="160" y="523.9649">usuario:contrase&#241;a v&#225;lida</text></g><g id="SISTEMA_DISPONIBLE"><rect fill="#F1F1F1" height="50" rx="12.5" ry="12.5" style="stroke:#181818;stroke-width:0.5;" width="167" x="165" y="702"/><line style="stroke:#181818;stroke-width:0.5;" x1="165" x2="332" y1="731.0679" y2="731.0679"/><text fill="#000000" font-family="sans-serif" font-size="14" lengthAdjust="spacing" textLength="147" x="175" y="721.9659">SISTEMA_DISPONIBLE</text></g><!--link iniciarSesion to SISTEMA_DISPONIBLE--><g id="link_iniciarSesion_SISTEMA_DISPONIBLE"><path d="M248.5,587.04 C248.5,634.79 248.5,670.83 248.5,695.83 " fill="none" id="iniciarSesion-to-SISTEMA_DISPONIBLE" style="stroke:#008000;stroke-width:1.0;"/><polygon fill="#008000" points="248.5,701.83,252.5,692.83,248.5,696.83,244.5,692.83,248.5,701.83" style="stroke:#008000;stroke-width:1.0;"/><path d="M253.5,622 L253.5,667 L507.5,667 L507.5,632 L497.5,622 L253.5,622 " fill="#FEFFDD" style="stroke:#181818;stroke-width:0.5;"/><path d="M497.5,622 L497.5,632 L507.5,632 L497.5,622 " fill="#FEFFDD" style="stroke:#181818;stroke-width:0.5;"/><text fill="#000000" font-family="sans-serif" font-size="13" lengthAdjust="spacing" textLength="233" x="259.5" y="640.897">UsuarioNoRegistrado &#8594; Administrador</text><text fill="#000000" font-family="sans-serif" font-size="13" lengthAdjust="spacing" textLength="91" x="259.5" y="658.603">mostrarMenu()</text></g><!--SRC=[fPFHIiCm58RlynI7URC9mtifXQcx6BWvh5wD8Lboc65jKf9M629uvGFu1le6FiFUP4_YQJEtrdMYs49fmf___yv9uXPAfzpo16AbCLkc2Ac9byM0CPVn345f9HIt4JfbD707hTfCkzE2HyQ07gzlqKkgoCIaohYMfYS4EhCl6LkJ6Yl8f52TMvIeoJX61r1H2mW2SM-Km33qGPFZANGdHtEBgAVTS3_BBzU6LXCpLRCe9u9PUEjoRfKPcMkSAvTPBarmCWl1RIo0au542pm6Hm9CUBaKjVH-i64hF_l1LQp3zHt4YtnaYPIYJLIv0ParCXVAbghryplalehjM1ZIS8UhZphjZlI7NbUHnPyRzqM7_u0J1GCXDUvbCz4cvBHYJY9uMBt5IdxBsMLiwwGJz7lVHjCdnketetOW1z5DVzYxknX4uwlHuEoopsf93Ss4zSihz6H2fdx2iiGKVtQ8Eczts3Rv4m00]--></g></svg>