<?xml version="1.0" encoding="us-ascii" standalone="no"?><svg xmlns="http://www.w3.org/2000/svg" xmlns:xlink="http://www.w3.org/1999/xlink" contentStyleType="text/css" height="547px" preserveAspectRatio="none" style="width:849px;height:547px;background:#FFFFFF;" version="1.1" viewBox="0 0 849 547" width="849px" zoomAndPan="magnify"><defs/><g><!--cluster editarCurso--><g id="cluster_editarCurso"><path d="M8.5,111 L100.5,111 A3.75,3.75 0 0 1 103,113.5 L110,136.0679 L626.5,136.0679 A2.5,2.5 0 0 1 629,138.5679 L629,537.5 A2.5,2.5 0 0 1 626.5,540 L8.5,540 A2.5,2.5 0 0 1 6,537.5 L6,113.5 A2.5,2.5 0 0 1 8.5,111 " fill="none" style="stroke:#000000;stroke-width:1.5;"/><line style="stroke:#000000;stroke-width:1.5;" x1="6" x2="110" y1="136.0679" y2="136.0679"/><text fill="#000000" font-family="sans-serif" font-size="14" font-weight="bold" lengthAdjust="spacing" textLength="91" x="10" y="127.9659">editarCurso()</text></g><!--entity EditarCursoView--><g id="elem_EditarCursoView"><rect fill="#629EF9" height="39.0679" rx="2.5" ry="2.5" style="stroke:#181818;stroke-width:0.5;" width="130" x="274" y="149"/><text fill="#000000" font-family="sans-serif" font-size="14" lengthAdjust="spacing" textLength="110" x="284" y="173.9659">EditarCursoView</text></g><!--entity CursoController--><g id="elem_CursoController"><rect fill="#B5BD68" height="39.0679" rx="2.5" ry="2.5" style="stroke:#181818;stroke-width:0.5;" width="126" x="118" y="267"/><text fill="#000000" font-family="sans-serif" font-size="14" lengthAdjust="spacing" textLength="106" x="128" y="291.9659">CursoController</text></g><!--entity CursoRepository--><g id="elem_CursoRepository"><rect fill="#F2AC4E" height="39.0679" rx="2.5" ry="2.5" style="stroke:#181818;stroke-width:0.5;" width="130" x="124" y="385"/><text fill="#000000" font-family="sans-serif" font-size="14" lengthAdjust="spacing" textLength="110" x="134" y="409.9659">CursoRepository</text></g><!--entity Curso--><g id="elem_Curso"><rect fill="#F2AC4E" height="39.0679" rx="2.5" ry="2.5" style="stroke:#181818;stroke-width:0.5;" width="59" x="159.5" y="485"/><text fill="#000000" font-family="sans-serif" font-size="14" lengthAdjust="spacing" textLength="39" x="169.5" y="509.9659">Curso</text></g><!--entity CursosAbierto--><g id="elem_CursosAbierto"><rect fill="#CDEBA5" height="39.0679" rx="2.5" ry="2.5" style="stroke:#181818;stroke-width:0.5;" width="123" x="112.5" y="7"/><text fill="#000000" font-family="sans-serif" font-size="14" lengthAdjust="spacing" textLength="103" x="122.5" y="31.9659">:Cursos Abierto</text></g><!--entity CursoAbierto--><g id="elem_CursoAbierto"><rect fill="#CDEBA5" height="39.0679" rx="2.5" ry="2.5" style="stroke:#181818;stroke-width:0.5;" width="116" x="281" y="7"/><text fill="#000000" font-family="sans-serif" font-size="14" lengthAdjust="spacing" textLength="96" x="291" y="31.9659">:Curso Abierto</text></g><!--entity CrearCurso--><g id="elem_CrearCurso"><rect fill="#CDEBA5" height="39.0679" rx="2.5" ry="2.5" style="stroke:#181818;stroke-width:0.5;" width="194" x="432" y="7"/><text fill="#000000" font-family="sans-serif" font-size="14" lengthAdjust="spacing" textLength="174" x="442" y="31.9659">:Collaboration CrearCurso</text></g><!--entity AbrirCursos--><g id="elem_AbrirCursos"><rect fill="#CDEBA5" height="39.0679" rx="2.5" ry="2.5" style="stroke:#181818;stroke-width:0.5;" width="198" x="645" y="267"/><text fill="#000000" font-family="sans-serif" font-size="14" lengthAdjust="spacing" textLength="178" x="655" y="291.9659">:Collaboration AbrirCursos</text></g><!--link CursosAbierto to EditarCursoView--><g id="link_CursosAbierto_EditarCursoView"><path d="M182.91,46.3 C192.38,66.28 206,95 206,95 C206,95 260.0717,124.4786 299.4817,145.9586 " fill="none" id="CursosAbierto-to-EditarCursoView" style="stroke:#181818;stroke-width:1.0;"/><polygon fill="#181818" points="304.75,148.83,298.7618,141.0107,300.3598,146.4371,294.9333,148.0351,304.75,148.83" style="stroke:#181818;stroke-width:1.0;"/><text fill="#000000" font-family="sans-serif" font-size="13" lengthAdjust="spacing" textLength="123" x="207" y="90.897">editarCurso(cursoId)</text></g><!--link CursoAbierto to EditarCursoView--><g id="link_CursoAbierto_EditarCursoView"><path d="M339,46.09 C339,72.87 339,116.01 339,142.83 " fill="none" id="CursoAbierto-to-EditarCursoView" style="stroke:#181818;stroke-width:1.0;"/><polygon fill="#181818" points="339,148.83,343,139.83,339,143.83,335,139.83,339,148.83" style="stroke:#181818;stroke-width:1.0;"/><text fill="#000000" font-family="sans-serif" font-size="13" lengthAdjust="spacing" textLength="123" x="340" y="90.897">editarCurso(cursoId)</text></g><!--link CrearCurso to EditarCursoView--><g id="link_CrearCurso_EditarCursoView"><path d="M513.12,46.3 C496.26,66.28 472,95 472,95 C472,95 417.9283,124.4786 378.5183,145.9586 " fill="none" id="CrearCurso-to-EditarCursoView" style="stroke:#181818;stroke-width:1.0;"/><polygon fill="#181818" points="373.25,148.83,383.0667,148.0351,377.6402,146.4371,379.2382,141.0107,373.25,148.83" style="stroke:#181818;stroke-width:1.0;"/><text fill="#000000" font-family="sans-serif" font-size="13" lengthAdjust="spacing" textLength="151" x="488" y="90.897">editarCurso(cursoNuevo)</text></g><!--link EditarCursoView to CursoController--><g id="link_EditarCursoView_CursoController"><path d="M273.97,180.57 C189.86,194.88 54,218 54,218 C54,218 54,237 54,237 C54,237 90.8451,251.0688 126.6551,264.7488 " fill="none" id="EditarCursoView-to-CursoController" style="stroke:#181818;stroke-width:1.0;"/><polygon fill="#181818" points="132.26,266.89,125.28,259.9416,127.5892,265.1057,122.4251,267.4149,132.26,266.89" style="stroke:#181818;stroke-width:1.0;"/><text fill="#000000" font-family="sans-serif" font-size="13" lengthAdjust="spacing" textLength="240" x="55" y="232.897">cargarCursoParaEdici&#243;n(cursoId) : Curso</text></g><!--link EditarCursoView to CursoController--><g id="link_EditarCursoView_CursoController"><path d="M328.14,188.3 C316.6,208.28 300,237 300,237 C300,237 265.7861,250.9452 232.2261,264.6252 " fill="none" id="EditarCursoView-to-CursoController-1" style="stroke:#181818;stroke-width:1.0;"/><polygon fill="#181818" points="226.67,266.89,236.5141,267.1968,231.3001,265.0026,233.4943,259.7887,226.67,266.89" style="stroke:#181818;stroke-width:1.0;"/><text fill="#000000" font-family="sans-serif" font-size="13" lengthAdjust="spacing" textLength="272" x="312" y="232.897">modificarCampos(cursoId, cambios) : boolean</text></g><!--link CursoController to CursoRepository--><g id="link_CursoController_CursoRepository"><path d="M138.02,306.11 C106.43,319.79 69,336 69,336 C69,336 69,355 69,355 C69,355 103.5473,368.9613 137.3873,382.6413 " fill="none" id="CursoController-to-CursoRepository" style="stroke:#181818;stroke-width:1.0;"/><polygon fill="#181818" points="142.95,384.89,136.1052,377.8085,138.3144,383.0161,133.1069,385.2253,142.95,384.89" style="stroke:#181818;stroke-width:1.0;"/><text fill="#000000" font-family="sans-serif" font-size="13" lengthAdjust="spacing" textLength="178" x="70" y="350.897">obtenerPorId(cursoId) : Curso</text></g><!--link CursoController to CursoRepository--><g id="link_CursoController_CursoRepository"><path d="M208.63,306.11 C228.94,319.79 253,336 253,336 C253,336 253,355 253,355 C253,355 236.3918,367.5859 218.3418,381.2659 " fill="none" id="CursoController-to-CursoRepository-1" style="stroke:#181818;stroke-width:1.0;"/><polygon fill="#181818" points="213.56,384.89,223.1488,382.6417,217.5448,381.8699,218.3167,376.2659,213.56,384.89" style="stroke:#181818;stroke-width:1.0;"/><text fill="#000000" font-family="sans-serif" font-size="13" lengthAdjust="spacing" textLength="156" x="254" y="350.897">actualizar(curso) : boolean</text></g><!--link CursoRepository to Curso--><g id="link_CursoRepository_Curso"><path d="M189,424.4 C189,441.86 189,467.66 189,484.99 " fill="none" id="CursoRepository-Curso" style="stroke:#181818;stroke-width:1.0;"/></g><!--link EditarCursoView to AbrirCursos--><g id="link_EditarCursoView_AbrirCursos"><path d="M404.08,181.93 C479.34,196.3 593,218 593,218 C593,218 652.1623,244.4516 696.8623,264.4316 " fill="none" id="EditarCursoView-to-AbrirCursos" style="stroke:#181818;stroke-width:1.0;stroke-dasharray:7.0,7.0;"/><polygon fill="#181818" points="702.34,266.88,695.7557,259.5556,697.7752,264.8396,692.4912,266.8592,702.34,266.88" style="stroke:#181818;stroke-width:1.0;"/><text fill="#000000" font-family="sans-serif" font-size="13" lengthAdjust="spacing" textLength="137" x="634" y="232.897">&#171;include&#187; abrirCursos()</text></g><!--SRC=[bP9DQiCm48NtEiNWRc9eiWXDQ4qmkAu3sPJGHVSZUnf4PCd8SajQUgeUeHUh7Bk9w_oGQY4OwNrFRmQLQw4AD9Y358hifY0ejDpK1ME6Kejg9GckueVaFfg05yILANK94HTahFO0IsYEsfFJq25p5j5I8jS6hT0AOaDejan3xyeBs8WRqOZBBTof6IimNUEAW39XMyjQutNgWU_11mEtEczDntV9_0wIlUnPq5jVnISyczuspSPQMUE2aUchvkCelaaQrHCLkXHMcyqv5VjaxC_KOJWC-s62RbE3jDuNcS-wa_yFjXlvXT1ZHQ_QPwodX67cyDv40aZHh5hLqdr71wNY-qljteUWxPprq6sQtkW2qDoI8hFKPf4TyJZ8T2nIhZFn8bom67Fd_6jpxRBcNEYozkDQIq9rOIfCROLIlADfp0uTzchdS2hjQ1HsFt40ivbGgQmo2aF0_SN0Ppy0]--></g></svg>