<?xml version="1.0" encoding="us-ascii" standalone="no"?><svg xmlns="http://www.w3.org/2000/svg" xmlns:xlink="http://www.w3.org/1999/xlink" contentStyleType="text/css" height="740px" preserveAspectRatio="none" style="width:536px;height:740px;background:#FFFFFF;" version="1.1" viewBox="0 0 536 740" width="536px" zoomAndPan="magnify"><defs/><g><path d="M19.5,7 L510.95,7 A12.5,12.5 0 0 1 523.45,19.5 L523.45,36.0679 L7,36.0679 L7,19.5 A12.5,12.5 0 0 1 19.5,7 " fill="#F1F1F1" style="stroke:#F1F1F1;stroke-width:1.0;"/><rect fill="none" height="580.0679" rx="12.5" ry="12.5" style="stroke:#181818;stroke-width:0.5;" width="516.45" x="7" y="7"/><line style="stroke:#181818;stroke-width:0.5;" x1="7" x2="523.45" y1="36.0679" y2="36.0679"/><text fill="#000000" font-family="sans-serif" font-size="14" lengthAdjust="spacing" textLength="94" x="218.225" y="26.9659">iniciarSesion()</text><g id="iniciarSesion.SolicitandoAcceso"><rect fill="#F1F1F1" height="50" rx="12.5" ry="12.5" style="stroke:#181818;stroke-width:0.5;" width="50" x="146.45" y="140.0679"/><line style="stroke:#181818;stroke-width:0.5;" x1="146.45" x2="196.45" y1="169.1358" y2="169.1358"/><text fill="#000000" font-family="sans-serif" font-size="14" lengthAdjust="spacing" textLength="4" x="169.45" y="160.0339">&#160;</text></g><g id="iniciarSesion.ProporcionandoCredenciales"><rect fill="#F1F1F1" height="50" rx="12.5" ry="12.5" style="stroke:#181818;stroke-width:0.5;" width="50" x="31.45" y="299.0679"/><line style="stroke:#181818;stroke-width:0.5;" x1="31.45" x2="81.45" y1="328.1358" y2="328.1358"/><text fill="#000000" font-family="sans-serif" font-size="14" lengthAdjust="spacing" textLength="4" x="54.45" y="319.0339">&#160;</text></g><g id="elem_c"><polygon fill="#F1F1F1" points="161.45,458.0679,173.45,470.0679,161.45,482.0679,149.45,470.0679,161.45,458.0679" style="stroke:#181818;stroke-width:0.5;"/></g><ellipse cx="171.45" cy="57.0679" fill="#222222" rx="10" ry="10" style="stroke:#222222;stroke-width:1.0;"/><ellipse cx="161.45" cy="566.0679" fill="none" rx="11" ry="11" style="stroke:#222222;stroke-width:1.0;"/><ellipse cx="161.45" cy="566.0679" fill="#222222" rx="6" ry="6" style="stroke:#222222;stroke-width:1.0;"/><!--link *start*iniciarSesion to SolicitandoAcceso--><g id="link_*start*iniciarSesion_SolicitandoAcceso"><path d="M171.45,67.1079 C171.45,83.0279 171.45,110.5779 171.45,133.7079 " fill="none" id="*start*iniciarSesion-to-SolicitandoAcceso" style="stroke:#008000;stroke-width:1.0;"/><polygon fill="#008000" points="171.45,139.7079,175.45,130.7079,171.45,134.7079,167.45,130.7079,171.45,139.7079" style="stroke:#008000;stroke-width:1.0;"/><path d="M176.45,90.0679 L176.45,117.0679 L493.45,117.0679 L493.45,100.0679 L483.45,90.0679 L176.45,90.0679 " fill="#FEFFDD" style="stroke:#181818;stroke-width:0.5;"/><path d="M483.45,90.0679 L483.45,100.0679 L493.45,100.0679 L483.45,90.0679 " fill="#FEFFDD" style="stroke:#181818;stroke-width:0.5;"/><text fill="#000000" font-family="sans-serif" font-size="13" font-weight="bold" lengthAdjust="spacing" textLength="141" x="182.45" y="108.9649">UsuarioNoRegistrado</text><text fill="#000000" font-family="sans-serif" font-size="13" lengthAdjust="spacing" textLength="152" x="326.45" y="108.9649">solicita acceder al sistema</text></g><!--link SolicitandoAcceso to ProporcionandoCredenciales--><g id="link_SolicitandoAcceso_ProporcionandoCredenciales"><path d="M146.36,170.3379 C124.45,175.4279 93.55,186.1879 76.45,208.0679 C56.11,234.0979 53.363,267.6012 54.193,292.8712 " fill="none" id="SolicitandoAcceso-to-ProporcionandoCredenciales" style="stroke:#008000;stroke-width:1.0;"/><polygon fill="#008000" points="54.39,298.8679,58.0924,289.7415,54.2259,293.8706,50.0967,290.0041,54.39,298.8679" style="stroke:#008000;stroke-width:1.0;"/><path d="M81.45,213.0679 L81.45,276.0679 L266.45,276.0679 L266.45,223.0679 L256.45,213.0679 L81.45,213.0679 " fill="#FEFFDD" style="stroke:#181818;stroke-width:0.5;"/><path d="M256.45,213.0679 L256.45,223.0679 L266.45,223.0679 L256.45,213.0679 " fill="#FEFFDD" style="stroke:#181818;stroke-width:0.5;"/><text fill="#000000" font-family="sans-serif" font-size="13" font-weight="bold" lengthAdjust="spacing" textLength="52" x="87.45" y="231.9649">Sistema</text><text fill="#000000" font-family="sans-serif" font-size="13" lengthAdjust="spacing" textLength="109" x="142.45" y="231.9649">permite introducir</text><text fill="#000000" font-family="sans-serif" font-size="13" lengthAdjust="spacing" textLength="53" x="87.45" y="249.6709">&#8226; usuario</text><text fill="#000000" font-family="sans-serif" font-size="13" lengthAdjust="spacing" textLength="75" x="87.45" y="267.377">&#8226; contrase&#241;a</text></g><!--link ProporcionandoCredenciales to c--><g id="link_ProporcionandoCredenciales_c"><path d="M42.95,349.3479 C30.89,374.6779 18,414.2379 38.45,440.0679 C52.54,457.8679 118.2837,465.3155 145.2237,467.7155 " fill="none" id="ProporcionandoCredenciales-to-c" style="stroke:#008000;stroke-width:1.0;"/><polygon fill="#008000" points="151.2,468.2479,142.5904,463.4651,146.2197,467.8042,141.8806,471.4335,151.2,468.2479" style="stroke:#008000;stroke-width:1.0;"/><path d="M43.45,372.0679 L43.45,435.0679 L266.45,435.0679 L266.45,382.0679 L256.45,372.0679 L43.45,372.0679 " fill="#FEFFDD" style="stroke:#181818;stroke-width:0.5;"/><path d="M256.45,372.0679 L256.45,382.0679 L266.45,382.0679 L256.45,372.0679 " fill="#FEFFDD" style="stroke:#181818;stroke-width:0.5;"/><text fill="#000000" font-family="sans-serif" font-size="13" font-weight="bold" lengthAdjust="spacing" textLength="141" x="49.45" y="390.9649">UsuarioNoRegistrado</text><text fill="#000000" font-family="sans-serif" font-size="13" lengthAdjust="spacing" textLength="58" x="193.45" y="390.9649">introduce</text><text fill="#000000" font-family="sans-serif" font-size="13" lengthAdjust="spacing" textLength="53" x="49.45" y="408.6709">&#8226; usuario</text><text fill="#000000" font-family="sans-serif" font-size="13" lengthAdjust="spacing" textLength="75" x="49.45" y="426.377">&#8226; contrase&#241;a</text></g><!--link c to SolicitandoAcceso--><g id="link_c_SolicitandoAcceso"><path d="M171.7,467.9379 C196.6,464.9679 259.15,456.0279 271.45,440.0679 C334.38,358.3879 328.52,293.9379 271.45,208.0679 C254.87,183.1279 226.2221,173.9909 202.4121,169.8709 " fill="none" id="c-to-SolicitandoAcceso" style="stroke:#FF0000;stroke-width:1.0;"/><polygon fill="#FF0000" points="196.5,168.8479,204.6862,174.3239,201.4268,169.7004,206.0502,166.441,196.5,168.8479" style="stroke:#FF0000;stroke-width:1.0;"/><path d="M321.45,310.5679 L321.45,337.5679 L514.45,337.5679 L514.45,320.5679 L504.45,310.5679 L321.45,310.5679 " fill="#FEFFDD" style="stroke:#181818;stroke-width:0.5;"/><path d="M504.45,310.5679 L504.45,320.5679 L514.45,320.5679 L504.45,310.5679 " fill="#FEFFDD" style="stroke:#181818;stroke-width:0.5;"/><text fill="#000000" font-family="sans-serif" font-size="13" lengthAdjust="spacing" textLength="172" x="327.45" y="329.4649">usuario:contrase&#241;a no v&#225;lida</text></g><!--link c to *end*iniciarSesion--><g id="link_c_*end*iniciarSesion"><path d="M161.45,482.2179 C161.45,500.6079 161.45,530.9979 161.45,548.7879 " fill="none" id="c-to-*end*iniciarSesion" style="stroke:#008000;stroke-width:1.0;"/><polygon fill="#008000" points="161.45,554.7879,165.45,545.7879,161.45,549.7879,157.45,545.7879,161.45,554.7879" style="stroke:#008000;stroke-width:1.0;"/><path d="M166.45,505.0679 L166.45,532.0679 L340.45,532.0679 L340.45,515.0679 L330.45,505.0679 L166.45,505.0679 " fill="#FEFFDD" style="stroke:#181818;stroke-width:0.5;"/><path d="M330.45,505.0679 L330.45,515.0679 L340.45,515.0679 L330.45,505.0679 " fill="#FEFFDD" style="stroke:#181818;stroke-width:0.5;"/><text fill="#000000" font-family="sans-serif" font-size="13" lengthAdjust="spacing" textLength="153" x="172.45" y="523.9649">usuario:contrase&#241;a v&#225;lida</text></g><g id="MENU_PRINCIPAL"><rect fill="#F1F1F1" height="50" rx="12.5" ry="12.5" style="stroke:#181818;stroke-width:0.5;" width="139" x="195.5" y="684"/><line style="stroke:#181818;stroke-width:0.5;" x1="195.5" x2="334.5" y1="713.0679" y2="713.0679"/><text fill="#000000" font-family="sans-serif" font-size="14" lengthAdjust="spacing" textLength="119" x="205.5" y="703.9659">MENU_PRINCIPAL</text></g><!--link iniciarSesion to MENU_PRINCIPAL--><g id="link_iniciarSesion_MENU_PRINCIPAL"><path d="M265,587.2 C265,627.22 265,656.06 265,677.9 " fill="none" id="iniciarSesion-to-MENU_PRINCIPAL" style="stroke:#008000;stroke-width:1.0;"/><polygon fill="#008000" points="265,683.9,269,674.9,265,678.9,261,674.9,265,683.9" style="stroke:#008000;stroke-width:1.0;"/><path d="M270,622 L270,649 L382,649 L382,632 L372,622 L270,622 " fill="#FEFFDD" style="stroke:#181818;stroke-width:0.5;"/><path d="M372,622 L372,632 L382,632 L372,622 " fill="#FEFFDD" style="stroke:#181818;stroke-width:0.5;"/><text fill="#000000" font-family="sans-serif" font-size="13" lengthAdjust="spacing" textLength="91" x="276" y="640.897">mostrarMenu()</text></g><!--SRC=[fPF1IiD048RlUOgXNbgXU9SGACL3mORGq5CfijqTwcAoKtOJBoBuAle6FaFVn2TnigbjOb9HJ22GvP___sPsrnMYGD16IoriYawJ0U5Wq5ePZWRm50J0Z_Fw0R-iIYbZLI6CeecKwAWhIIpjo4esgLHJYmeD6sVe01fg2M4exqbBZA8wQ7MvXl7gOciHpNeSTRFgSaDSpSoPDWz-8Tn4IrSAgocc1MwrAwnG55vj8d072n1ieD22oC2n07FXIz6esWyERFxJ3MvYdU_lB5vQHtga7TfS-mqeBAbIQkjL7ozlKDPT7FybiKOutB-tQK-aFyowYIp_FBWlElm7dAmO6AbtB_k93Y7N3NCMmUF-DTFgMyufuzWddw3V-_QQFWT1-sOqxUStyV8kMSpYwIoPt0Qjb9ogwTavcd8u2ev-dm00]--></g></svg>