<?xml version="1.0" encoding="us-ascii" standalone="no"?><svg xmlns="http://www.w3.org/2000/svg" xmlns:xlink="http://www.w3.org/1999/xlink" contentStyleType="text/css" height="560px" preserveAspectRatio="none" style="width:1671px;height:560px;background:#FFFFFF;" version="1.1" viewBox="0 0 1671 560" width="1671px" zoomAndPan="magnify"><defs/><g><!--cluster generarHorario--><g id="cluster_generarHorario"><path d="M179,6.602 L297,6.602 A3.75,3.75 0 0 1 299.5,9.102 L306.5,31.6699 L982,31.6699 A2.5,2.5 0 0 1 984.5,34.1699 L984.5,551.102 A2.5,2.5 0 0 1 982,553.602 L179,553.602 A2.5,2.5 0 0 1 176.5,551.102 L176.5,9.102 A2.5,2.5 0 0 1 179,6.602 " fill="none" style="stroke:#000000;stroke-width:1.5;"/><line style="stroke:#000000;stroke-width:1.5;" x1="176.5" x2="306.5" y1="31.6699" y2="31.6699"/><text fill="#000000" font-family="sans-serif" font-size="14" font-weight="bold" lengthAdjust="spacing" textLength="117" x="180.5" y="23.5679">generarHorario()</text></g><!--entity GenerarHorarioView--><g id="elem_GenerarHorarioView"><rect fill="#629EF9" height="39.0679" rx="2.5" ry="2.5" style="stroke:#181818;stroke-width:0.5;" width="156" x="717.5" y="44.602"/><text fill="#000000" font-family="sans-serif" font-size="14" lengthAdjust="spacing" textLength="136" x="727.5" y="69.5679">GenerarHorarioView</text></g><!--entity HorarioController--><g id="elem_HorarioController"><rect fill="#B5BD68" height="39.0679" rx="2.5" ry="2.5" style="stroke:#181818;stroke-width:0.5;" width="137" x="633" y="162.602"/><text fill="#000000" font-family="sans-serif" font-size="14" lengthAdjust="spacing" textLength="117" x="643" y="187.5679">HorarioController</text></g><!--entity HorarioRepository--><g id="elem_HorarioRepository"><rect fill="#F2AC4E" height="39.0679" rx="2.5" ry="2.5" style="stroke:#181818;stroke-width:0.5;" width="141" x="193" y="398.602"/><text fill="#000000" font-family="sans-serif" font-size="14" lengthAdjust="spacing" textLength="121" x="203" y="423.5679">HorarioRepository</text></g><!--entity HorarioGenerator--><g id="elem_HorarioGenerator"><rect fill="#F2AC4E" height="39.0679" rx="2.5" ry="2.5" style="stroke:#181818;stroke-width:0.5;" width="138" x="755.5" y="280.602"/><text fill="#000000" font-family="sans-serif" font-size="14" lengthAdjust="spacing" textLength="118" x="765.5" y="305.5679">HorarioGenerator</text></g><!--entity Validador--><g id="elem_Validador"><rect fill="#F2AC4E" height="39.0679" rx="2.5" ry="2.5" style="stroke:#181818;stroke-width:0.5;" width="84" x="598.5" y="498.602"/><text fill="#000000" font-family="sans-serif" font-size="14" lengthAdjust="spacing" textLength="64" x="608.5" y="523.5679">Validador</text></g><!--entity Horario--><g id="elem_Horario"><rect fill="#F2AC4E" height="39.0679" rx="2.5" ry="2.5" style="stroke:#181818;stroke-width:0.5;" width="70" x="228.5" y="498.602"/><text fill="#000000" font-family="sans-serif" font-size="14" lengthAdjust="spacing" textLength="50" x="238.5" y="523.5679">Horario</text></g><!--entity SistemaDisponible--><g id="elem_SistemaDisponible"><rect fill="#CDEBA5" height="39.0679" rx="2.5" ry="2.5" style="stroke:#181818;stroke-width:0.5;" width="153" x="7" y="44.602"/><text fill="#000000" font-family="sans-serif" font-size="14" lengthAdjust="spacing" textLength="133" x="17" y="69.5679">:Sistema Disponible</text></g><!--entity ConsultarHorario--><g id="elem_ConsultarHorario"><rect fill="#CDEBA5" height="39.0679" rx="2.5" ry="2.5" style="stroke:#181818;stroke-width:0.5;" width="233" x="1000" y="162.602"/><text fill="#000000" font-family="sans-serif" font-size="14" lengthAdjust="spacing" textLength="213" x="1010" y="187.5679">:Collaboration ConsultarHorario</text></g><!--entity CompletarGestion--><g id="elem_CompletarGestion"><rect fill="#CDEBA5" height="39.0679" rx="2.5" ry="2.5" style="stroke:#181818;stroke-width:0.5;" width="239" x="1300" y="162.602"/><text fill="#000000" font-family="sans-serif" font-size="14" lengthAdjust="spacing" textLength="219" x="1310" y="187.5679">:Collaboration CompletarGestion</text></g><!--link SistemaDisponible to GenerarHorarioView--><g id="link_SistemaDisponible_GenerarHorarioView"><path d="M160.03,64.102 C296.34,64.102 573.7,64.102 711.24,64.102 " fill="none" id="SistemaDisponible-to-GenerarHorarioView" style="stroke:#181818;stroke-width:1.0;"/><polygon fill="#181818" points="717.24,64.102,708.24,60.102,712.24,64.102,708.24,68.102,717.24,64.102" style="stroke:#181818;stroke-width:1.0;"/><text fill="#000000" font-family="sans-serif" font-size="13" lengthAdjust="spacing" textLength="101" x="388.25" y="56.999">generarHorario()</text></g><!--link GenerarHorarioView to HorarioController--><g id="link_GenerarHorarioView_HorarioController"><path d="M780.4,83.742 C762.86,105.382 737.8665,136.2196 720.3465,157.8496 " fill="none" id="GenerarHorarioView-to-HorarioController" style="stroke:#181818;stroke-width:1.0;"/><polygon fill="#181818" points="716.57,162.512,725.343,158.036,719.7171,158.6266,719.1265,153.0007,716.57,162.512" style="stroke:#181818;stroke-width:1.0;"/><text fill="#000000" font-family="sans-serif" font-size="13" lengthAdjust="spacing" textLength="265" x="754.5" y="128.499">procesarGeneracion() : ResultadoGeneracion</text></g><!--link HorarioController to Validador--><g id="link_HorarioController_Validador"><path d="M770.23,198.052 C835.75,212.302 924.5,231.602 924.5,231.602 C924.5,231.602 924.5,250.602 924.5,250.602 C924.5,250.602 911.5,319.602 911.5,319.602 C911.5,319.602 738.3087,445.8179 670.8487,494.9879 " fill="none" id="HorarioController-to-Validador" style="stroke:#181818;stroke-width:1.0;"/><polygon fill="#181818" points="666,498.522,675.6291,496.4533,670.0406,495.5769,670.917,489.9883,666,498.522" style="stroke:#181818;stroke-width:1.0;"/><text fill="#000000" font-family="sans-serif" font-size="13" lengthAdjust="spacing" textLength="200" x="870.5" y="364.499">verificarDatosMinimos() : boolean</text></g><!--link HorarioController to HorarioRepository--><g id="link_HorarioController_HorarioRepository"><path d="M632.83,195.722 C554.6,210.092 437.5,231.602 437.5,231.602 C437.5,231.602 254.5,280.602 254.5,280.602 C254.5,280.602 198.5,349.602 198.5,349.602 C198.5,349.602 198.5,368.602 198.5,368.602 C198.5,368.602 215.4106,381.2246 233.7506,394.9046 " fill="none" id="HorarioController-to-HorarioRepository" style="stroke:#181818;stroke-width:1.0;"/><polygon fill="#181818" points="238.56,398.492,233.7375,389.9046,234.5521,395.5025,228.9543,396.3172,238.56,398.492" style="stroke:#181818;stroke-width:1.0;"/><text fill="#000000" font-family="sans-serif" font-size="13" lengthAdjust="spacing" textLength="147" x="255.5" y="305.499">existeHorario() : boolean</text></g><!--link HorarioController to HorarioRepository--><g id="link_HorarioController_HorarioRepository"><path d="M656.36,201.672 C587.6,229.962 464.5,280.602 464.5,280.602 C464.5,280.602 407.5,319.602 407.5,319.602 C407.5,319.602 226.5,349.602 226.5,349.602 C226.5,349.602 226.5,368.602 226.5,368.602 C226.5,368.602 235.2322,380.0406 245.6622,393.7206 " fill="none" id="HorarioController-to-HorarioRepository-1" style="stroke:#181818;stroke-width:1.0;"/><polygon fill="#181818" points="249.3,398.492,247.0242,388.9097,246.2685,394.5158,240.6623,393.7601,249.3,398.492" style="stroke:#181818;stroke-width:1.0;"/><text fill="#000000" font-family="sans-serif" font-size="13" lengthAdjust="spacing" textLength="272" x="465.5" y="305.499">verificarDatosDisponibles() : DatosDisponibles</text></g><!--link HorarioController to HorarioGenerator--><g id="link_HorarioController_HorarioGenerator"><path d="M712.09,201.902 C723.33,221.882 739.5,250.602 739.5,250.602 C739.5,250.602 762.6989,263.838 786.6689,277.518 " fill="none" id="HorarioController-to-HorarioGenerator" style="stroke:#181818;stroke-width:1.0;"/><polygon fill="#181818" points="791.88,280.492,786.0461,272.5569,787.5374,278.0136,782.0807,279.505,791.88,280.492" style="stroke:#181818;stroke-width:1.0;"/><text fill="#000000" font-family="sans-serif" font-size="13" lengthAdjust="spacing" textLength="179" x="740.5" y="246.499">ejecutarGeneracion() : Horario</text></g><!--link HorarioGenerator to HorarioRepository--><g id="link_HorarioGenerator_HorarioRepository"><path d="M755.5,314.402 C740.23,317.342 728.5,319.602 728.5,319.602 C728.5,319.602 484.5,349.602 484.5,349.602 C484.5,349.602 448.5,368.602 448.5,368.602 C448.5,368.602 392.2637,383.3397 340.0337,397.0397 " fill="none" id="HorarioGenerator-to-HorarioRepository" style="stroke:#181818;stroke-width:1.0;"/><polygon fill="#181818" points="334.23,398.562,343.9504,400.1476,339.0664,397.2934,341.9206,392.4094,334.23,398.562" style="stroke:#181818;stroke-width:1.0;"/><text fill="#000000" font-family="sans-serif" font-size="13" lengthAdjust="spacing" textLength="237" x="485.5" y="364.499">cargarDatosMaestros() : DatosMaestros</text></g><!--link HorarioGenerator to HorarioRepository--><g id="link_HorarioGenerator_HorarioRepository"><path d="M755.5,314.402 C740.23,317.342 728.5,319.602 728.5,319.602 C728.5,319.602 234.5,349.602 234.5,349.602 C234.5,349.602 234.5,368.602 234.5,368.602 C234.5,368.602 241.1108,379.6624 249.2908,393.3424 " fill="none" id="HorarioGenerator-to-HorarioRepository-1" style="stroke:#181818;stroke-width:1.0;"/><polygon fill="#181818" points="252.37,398.492,251.1842,388.7148,249.804,394.2006,244.3181,392.8204,252.37,398.492" style="stroke:#181818;stroke-width:1.0;"/><text fill="#000000" font-family="sans-serif" font-size="13" lengthAdjust="spacing" textLength="204" x="235.5" y="364.499">guardarHorario(horario) : boolean</text></g><!--link HorarioRepository to Horario--><g id="link_HorarioRepository_Horario"><path d="M263.5,438.002 C263.5,455.462 263.5,481.262 263.5,498.592 " fill="none" id="HorarioRepository-Horario" style="stroke:#181818;stroke-width:1.0;"/></g><!--link HorarioRepository to Validador--><g id="link_HorarioRepository_Validador"><path d="M334.41,437.532 C412.16,457.742 534.34,489.502 598.28,506.132 " fill="none" id="HorarioRepository-Validador" style="stroke:#181818;stroke-width:1.0;"/></g><!--link GenerarHorarioView to ConsultarHorario--><g id="link_GenerarHorarioView_ConsultarHorario"><path d="M873.73,81.382 C941.42,95.472 1028.5,113.602 1028.5,113.602 C1028.5,113.602 1061.1898,138.6696 1087.2298,158.6496 " fill="none" id="GenerarHorarioView-to-ConsultarHorario" style="stroke:#181818;stroke-width:1.0;stroke-dasharray:7.0,7.0;"/><polygon fill="#181818" points="1091.99,162.302,1087.2846,153.6499,1088.0231,159.2583,1082.4147,159.9968,1091.99,162.302" style="stroke:#181818;stroke-width:1.0;"/><text fill="#000000" font-family="sans-serif" font-size="13" lengthAdjust="spacing" textLength="294" x="1052.5" y="128.499">&#171;include&#187; consultarHorario() [generaci&#243;n exitosa]</text></g><!--link GenerarHorarioView to CompletarGestion--><g id="link_GenerarHorarioView_CompletarGestion"><path d="M873.66,71.872 C1027.66,85.212 1355.5,113.602 1355.5,113.602 C1355.5,113.602 1378.6134,137.9664 1397.5434,157.9464 " fill="none" id="GenerarHorarioView-to-CompletarGestion" style="stroke:#181818;stroke-width:1.0;stroke-dasharray:7.0,7.0;"/><polygon fill="#181818" points="1401.67,162.302,1398.3837,153.0176,1398.2311,158.6724,1392.5763,158.5198,1401.67,162.302" style="stroke:#181818;stroke-width:1.0;"/><text fill="#000000" font-family="sans-serif" font-size="13" lengthAdjust="spacing" textLength="290" x="1373.5" y="128.499">&#171;include&#187; completarGestion() [cancelaci&#243;n/error]</text></g><!--SRC=[ZLJBRjim4BppAnRk9JxO1Op6I0J3G68xwIMN5CYbo655RLN6D5TOocsCeb_LJyYFbV93iXvEh8kWuUnmTfQYNngNeU0Ah76KRpA2ZEsc-51AIEVeKalmQJPVtDvSGY_wPdnEAuIvyHax4rlg0NhOmnNQMJnZQp5cmTomWnaxlxOvojU0YE6jK1CyIsULMGebz-GBOAzJ1vNAK2yn9KZ9aPJw1RTNXoxwFVYZ83n7Uuz7rukxQxYlCPyC_MuIuyiu6L_1dX7QoIMu9MdoxaOtio-B0- -HClOcPzcypzlj7tWdQ4zeJO89Vx2T-gjKQsGmaC6qeyC8claerMR180dLhROZo8Gr-M8GHOaEixZeGmIFj9rpmXMkLAiS1a6qR2g2NoJcXz4eyn22Vp3EhDXlzM9cItXIevLp1FHQ950sTQHnjaJTJXNbpb8J_C1RETjWxONqEczbTfYUQbQSyXUSfOUiCFm8maVE3iZPQkaQ9QcEmS_TkolygYfebROx5wiJstMeXiDfwqg8O38nJjjrGjCfwCPgwEzxke_jxPyhfXnwnUVJwlMBegbUNotKDJfDTYV_cKHOdjL_]--></g></svg>