<?xml version="1.0" encoding="us-ascii" standalone="no"?><svg xmlns="http://www.w3.org/2000/svg" xmlns:xlink="http://www.w3.org/1999/xlink" contentStyleType="text/css" height="398px" preserveAspectRatio="none" style="width:3472px;height:398px;background:#FFFFFF;" version="1.1" viewBox="0 0 3472 398" width="3472px" zoomAndPan="magnify"><defs/><g><!--cluster mostrarMenu--><g id="cluster_mostrarMenu"><path d="M121,6.602 L227,6.602 A3.75,3.75 0 0 1 229.5,9.102 L236.5,31.6699 L986,31.6699 A2.5,2.5 0 0 1 988.5,34.1699 L988.5,389.102 A2.5,2.5 0 0 1 986,391.602 L121,391.602 A2.5,2.5 0 0 1 118.5,389.102 L118.5,9.102 A2.5,2.5 0 0 1 121,6.602 " fill="none" style="stroke:#000000;stroke-width:1.5;"/><line style="stroke:#000000;stroke-width:1.5;" x1="118.5" x2="236.5" y1="31.6699" y2="31.6699"/><text fill="#000000" font-family="sans-serif" font-size="14" font-weight="bold" lengthAdjust="spacing" textLength="105" x="122.5" y="23.5679">mostrarMenu()</text></g><!--entity MenuView--><g id="elem_MenuView"><rect fill="#629EF9" height="39.0679" rx="2.5" ry="2.5" style="stroke:#181818;stroke-width:0.5;" width="90" x="882.5" y="44.602"/><text fill="#000000" font-family="sans-serif" font-size="14" lengthAdjust="spacing" textLength="70" x="892.5" y="69.5679">MenuView</text></g><!--entity MostrarMenuController--><g id="elem_MostrarMenuController"><rect fill="#B5BD68" height="39.0679" rx="2.5" ry="2.5" style="stroke:#181818;stroke-width:0.5;" width="179" x="469" y="200.602"/><text fill="#000000" font-family="sans-serif" font-size="14" lengthAdjust="spacing" textLength="159" x="479" y="225.5679">MostrarMenuController</text></g><!--entity PermisosRepository--><g id="elem_PermisosRepository"><rect fill="#F2AC4E" height="39.0679" rx="2.5" ry="2.5" style="stroke:#181818;stroke-width:0.5;" width="152" x="419.5" y="336.602"/><text fill="#000000" font-family="sans-serif" font-size="14" lengthAdjust="spacing" textLength="132" x="429.5" y="361.5679">PermisosRepository</text></g><!--entity OpcionesMenu--><g id="elem_OpcionesMenu"><rect fill="#F2AC4E" height="39.0679" rx="2.5" ry="2.5" style="stroke:#181818;stroke-width:0.5;" width="122" x="134.5" y="336.602"/><text fill="#000000" font-family="sans-serif" font-size="14" lengthAdjust="spacing" textLength="102" x="144.5" y="361.5679">OpcionesMenu</text></g><!--entity Sesion--><g id="elem_Sesion"><rect fill="#F2AC4E" height="39.0679" rx="2.5" ry="2.5" style="stroke:#181818;stroke-width:0.5;" width="64" x="778.5" y="336.602"/><text fill="#000000" font-family="sans-serif" font-size="14" lengthAdjust="spacing" textLength="44" x="788.5" y="361.5679">Sesion</text></g><!--entity Administrador--><g id="elem_Administrador"><ellipse cx="54.5" cy="33.102" fill="#F1F1F1" rx="8" ry="8" style="stroke:#181818;stroke-width:0.5;"/><path d="M54.5,41.102 L54.5,68.102 M41.5,49.102 L67.5,49.102 M54.5,68.102 L41.5,83.102 M54.5,68.102 L67.5,83.102 " fill="none" style="stroke:#181818;stroke-width:0.5;"/><text fill="#000000" font-family="sans-serif" font-size="14" lengthAdjust="spacing" textLength="97" x="6" y="99.5679">Administrador</text></g><!--entity AbrirProgramas--><g id="elem_AbrirProgramas"><rect fill="#CDEBA5" height="39.0679" rx="2.5" ry="2.5" style="stroke:#181818;stroke-width:0.5;" width="225" x="1005" y="200.602"/><text fill="#000000" font-family="sans-serif" font-size="14" lengthAdjust="spacing" textLength="205" x="1015" y="225.5679">:Collaboration AbrirProgramas</text></g><!--entity AbrirCursos--><g id="elem_AbrirCursos"><rect fill="#CDEBA5" height="39.0679" rx="2.5" ry="2.5" style="stroke:#181818;stroke-width:0.5;" width="198" x="1265.5" y="200.602"/><text fill="#000000" font-family="sans-serif" font-size="14" lengthAdjust="spacing" textLength="178" x="1275.5" y="225.5679">:Collaboration AbrirCursos</text></g><!--entity AbrirProfesores--><g id="elem_AbrirProfesores"><rect fill="#CDEBA5" height="39.0679" rx="2.5" ry="2.5" style="stroke:#181818;stroke-width:0.5;" width="223" x="1499" y="200.602"/><text fill="#000000" font-family="sans-serif" font-size="14" lengthAdjust="spacing" textLength="203" x="1509" y="225.5679">:Collaboration AbrirProfesores</text></g><!--entity AbrirEdificios--><g id="elem_AbrirEdificios"><rect fill="#CDEBA5" height="39.0679" rx="2.5" ry="2.5" style="stroke:#181818;stroke-width:0.5;" width="208" x="1757.5" y="200.602"/><text fill="#000000" font-family="sans-serif" font-size="14" lengthAdjust="spacing" textLength="188" x="1767.5" y="225.5679">:Collaboration AbrirEdificios</text></g><!--entity AbrirAulas--><g id="elem_AbrirAulas"><rect fill="#CDEBA5" height="39.0679" rx="2.5" ry="2.5" style="stroke:#181818;stroke-width:0.5;" width="189" x="2001" y="200.602"/><text fill="#000000" font-family="sans-serif" font-size="14" lengthAdjust="spacing" textLength="169" x="2011" y="225.5679">:Collaboration AbrirAulas</text></g><!--entity AbrirRecursos--><g id="elem_AbrirRecursos"><rect fill="#CDEBA5" height="39.0679" rx="2.5" ry="2.5" style="stroke:#181818;stroke-width:0.5;" width="213" x="2225" y="200.602"/><text fill="#000000" font-family="sans-serif" font-size="14" lengthAdjust="spacing" textLength="193" x="2235" y="225.5679">:Collaboration AbrirRecursos</text></g><!--entity AsignarProfesor--><g id="elem_AsignarProfesor"><rect fill="#CDEBA5" height="39.0679" rx="2.5" ry="2.5" style="stroke:#181818;stroke-width:0.5;" width="226" x="2473.5" y="200.602"/><text fill="#000000" font-family="sans-serif" font-size="14" lengthAdjust="spacing" textLength="206" x="2483.5" y="225.5679">:Collaboration AsignarProfesor</text></g><!--entity GenerarHorario--><g id="elem_GenerarHorario"><rect fill="#CDEBA5" height="39.0679" rx="2.5" ry="2.5" style="stroke:#181818;stroke-width:0.5;" width="223" x="2735" y="200.602"/><text fill="#000000" font-family="sans-serif" font-size="14" lengthAdjust="spacing" textLength="203" x="2745" y="225.5679">:Collaboration GenerarHorario</text></g><!--entity ConsultarHorario--><g id="elem_ConsultarHorario"><rect fill="#CDEBA5" height="39.0679" rx="2.5" ry="2.5" style="stroke:#181818;stroke-width:0.5;" width="233" x="2993" y="200.602"/><text fill="#000000" font-family="sans-serif" font-size="14" lengthAdjust="spacing" textLength="213" x="3003" y="225.5679">:Collaboration ConsultarHorario</text></g><!--entity CerrarSesion--><g id="elem_CerrarSesion"><rect fill="#CDEBA5" height="39.0679" rx="2.5" ry="2.5" style="stroke:#181818;stroke-width:0.5;" width="205" x="3261" y="200.602"/><text fill="#000000" font-family="sans-serif" font-size="14" lengthAdjust="spacing" textLength="185" x="3271" y="225.5679">:Collaboration CerrarSesion</text></g><!--link Administrador to MenuView--><g id="link_Administrador_MenuView"><path d="M103.31,64.102 C257.62,64.102 727.55,64.102 876.47,64.102 " fill="none" id="Administrador-to-MenuView" style="stroke:#181818;stroke-width:1.0;"/><polygon fill="#181818" points="882.47,64.102,873.47,60.102,877.47,64.102,873.47,68.102,882.47,64.102" style="stroke:#181818;stroke-width:1.0;"/><path d="M415.25,29.102 L415.25,56.102 L570.25,56.102 L570.25,39.102 L560.25,29.102 L415.25,29.102 " fill="#FEFFDD" style="stroke:#181818;stroke-width:0.5;"/><path d="M560.25,29.102 L560.25,39.102 L570.25,39.102 L560.25,29.102 " fill="#FEFFDD" style="stroke:#181818;stroke-width:0.5;"/><text fill="#000000" font-family="sans-serif" font-size="13" lengthAdjust="spacing" textLength="134" x="421.25" y="47.999">disponibilizarSistema()</text></g><!--link MenuView to MostrarMenuController--><g id="link_MenuView_MostrarMenuController"><path d="M882.99,83.682 C811.97,113.322 679.357,168.6609 608.417,198.2709 " fill="none" id="MenuView-to-MostrarMenuController" style="stroke:#181818;stroke-width:1.0;"/><polygon fill="#181818" points="602.88,200.582,612.7263,200.8066,607.4942,198.656,609.6448,193.4239,602.88,200.582" style="stroke:#181818;stroke-width:1.0;"/><path d="M758.5,138.602 L758.5,165.602 L977.5,165.602 L977.5,148.602 L967.5,138.602 L758.5,138.602 " fill="#FEFFDD" style="stroke:#181818;stroke-width:0.5;"/><path d="M967.5,138.602 L967.5,148.602 L977.5,148.602 L967.5,138.602 " fill="#FEFFDD" style="stroke:#181818;stroke-width:0.5;"/><text fill="#000000" font-family="sans-serif" font-size="13" lengthAdjust="spacing" textLength="198" x="764.5" y="157.499">habilitarOpciones(administrador)</text></g><!--link MostrarMenuController to Sesion--><g id="link_MostrarMenuController_Sesion"><path d="M639.94,239.642 C700.07,253.342 771.5,269.602 771.5,269.602 C771.5,269.602 788.0803,305.9429 799.5503,331.0929 " fill="none" id="MostrarMenuController-to-Sesion" style="stroke:#181818;stroke-width:1.0;"/><polygon fill="#181818" points="802.04,336.552,801.9449,326.7036,799.9653,332.0028,794.6661,330.0232,802.04,336.552" style="stroke:#181818;stroke-width:1.0;"/><path d="M792.5,274.602 L792.5,301.602 L944.5,301.602 L944.5,284.602 L934.5,274.602 L792.5,274.602 " fill="#FEFFDD" style="stroke:#181818;stroke-width:0.5;"/><path d="M934.5,274.602 L934.5,284.602 L944.5,284.602 L934.5,274.602 " fill="#FEFFDD" style="stroke:#181818;stroke-width:0.5;"/><text fill="#000000" font-family="sans-serif" font-size="13" lengthAdjust="spacing" textLength="131" x="798.5" y="293.499">getUsuario() : Usuario</text></g><!--link MostrarMenuController to PermisosRepository--><g id="link_MostrarMenuController_PermisosRepository"><path d="M533.17,239.712 C514.56,253.392 492.5,269.602 492.5,269.602 C492.5,269.602 492.5,306.602 492.5,306.602 C492.5,306.602 493.1279,316.8235 493.9779,330.5035 " fill="none" id="MostrarMenuController-to-PermisosRepository" style="stroke:#181818;stroke-width:1.0;"/><polygon fill="#181818" points="494.35,336.492,497.7842,327.2612,494.0399,331.5016,489.7996,327.7574,494.35,336.492" style="stroke:#181818;stroke-width:1.0;"/><path d="M497.5,274.602 L497.5,301.602 L762.5,301.602 L762.5,284.602 L752.5,274.602 L497.5,274.602 " fill="#FEFFDD" style="stroke:#181818;stroke-width:0.5;"/><path d="M752.5,274.602 L752.5,284.602 L762.5,284.602 L752.5,274.602 " fill="#FEFFDD" style="stroke:#181818;stroke-width:0.5;"/><text fill="#000000" font-family="sans-serif" font-size="13" lengthAdjust="spacing" textLength="244" x="503.5" y="293.499">obtenerOpciones(usuario) : List&lt;Opcion&gt;</text></g><!--link MostrarMenuController to OpcionesMenu--><g id="link_MostrarMenuController_OpcionesMenu"><path d="M468.97,233.402 C364.39,247.772 205.5,269.602 205.5,269.602 C205.5,269.602 201.3066,305.4426 198.3666,330.5926 " fill="none" id="MostrarMenuController-to-OpcionesMenu" style="stroke:#181818;stroke-width:1.0;"/><polygon fill="#181818" points="197.67,336.552,202.6879,328.0773,198.2505,331.5858,194.742,327.1484,197.67,336.552" style="stroke:#181818;stroke-width:1.0;"/><path d="M210.5,274.602 L210.5,301.602 L479.5,301.602 L479.5,284.602 L469.5,274.602 L210.5,274.602 " fill="#FEFFDD" style="stroke:#181818;stroke-width:0.5;"/><path d="M469.5,274.602 L469.5,284.602 L479.5,284.602 L469.5,274.602 " fill="#FEFFDD" style="stroke:#181818;stroke-width:0.5;"/><text fill="#000000" font-family="sans-serif" font-size="13" lengthAdjust="spacing" textLength="248" x="216.5" y="293.499">crearOpciones(opciones) : OpcionesMenu</text></g><!--link MenuView to OpcionesMenu--><g id="link_MenuView_OpcionesMenu"><path d="M882.49,74.102 C731.06,104.362 249.5,200.602 249.5,200.602 C249.5,200.602 192.5,269.602 192.5,269.602 C192.5,269.602 192.5,306.602 192.5,306.602 C192.5,306.602 193.1279,316.8235 193.9779,330.5035 " fill="none" id="MenuView-to-OpcionesMenu" style="stroke:#181818;stroke-width:1.0;"/><polygon fill="#181818" points="194.35,336.492,197.7842,327.2612,194.0399,331.5016,189.7996,327.7574,194.35,336.492" style="stroke:#181818;stroke-width:1.0;"/><path d="M254.5,206.602 L254.5,233.602 L446.5,233.602 L446.5,216.602 L436.5,206.602 L254.5,206.602 " fill="#FEFFDD" style="stroke:#181818;stroke-width:0.5;"/><path d="M436.5,206.602 L436.5,216.602 L446.5,216.602 L436.5,206.602 " fill="#FEFFDD" style="stroke:#181818;stroke-width:0.5;"/><text fill="#000000" font-family="sans-serif" font-size="13" lengthAdjust="spacing" textLength="171" x="260.5" y="225.499">getOpciones() : List&lt;Opcion&gt;</text></g><!--link MenuView to AbrirProgramas--><g id="link_MenuView_AbrirProgramas"><path d="M950.42,83.682 C986.94,113.282 1053.2688,167.044 1089.8388,196.684 " fill="none" id="MenuView-to-AbrirProgramas" style="stroke:#181818;stroke-width:1.0;"/><polygon fill="#181818" points="1094.5,200.462,1090.0268,191.6876,1090.6156,197.3137,1084.9895,197.9026,1094.5,200.462" style="stroke:#181818;stroke-width:1.0;"/><path d="M1060.5,138.602 L1060.5,165.602 L1183.5,165.602 L1183.5,148.602 L1173.5,138.602 L1060.5,138.602 " fill="#FEFFDD" style="stroke:#181818;stroke-width:0.5;"/><path d="M1173.5,138.602 L1173.5,148.602 L1183.5,148.602 L1173.5,138.602 " fill="#FEFFDD" style="stroke:#181818;stroke-width:0.5;"/><text fill="#000000" font-family="sans-serif" font-size="13" lengthAdjust="spacing" textLength="102" x="1066.5" y="157.499">abrirProgramas()</text></g><!--link MenuView to AbrirCursos--><g id="link_MenuView_AbrirCursos"><path d="M972.52,76.572 C1049.1,96.072 1196.5,133.602 1196.5,133.602 C1196.5,133.602 1273.2928,172.6802 1322.7028,197.8302 " fill="none" id="MenuView-to-AbrirCursos" style="stroke:#181818;stroke-width:1.0;"/><polygon fill="#181818" points="1328.05,200.552,1321.8438,192.9046,1323.594,198.2839,1318.2148,200.0341,1328.05,200.552" style="stroke:#181818;stroke-width:1.0;"/><path d="M1269.5,138.602 L1269.5,165.602 L1367.5,165.602 L1367.5,148.602 L1357.5,138.602 L1269.5,138.602 " fill="#FEFFDD" style="stroke:#181818;stroke-width:0.5;"/><path d="M1357.5,138.602 L1357.5,148.602 L1367.5,148.602 L1357.5,138.602 " fill="#FEFFDD" style="stroke:#181818;stroke-width:0.5;"/><text fill="#000000" font-family="sans-serif" font-size="13" lengthAdjust="spacing" textLength="77" x="1275.5" y="157.499">abrirCursos()</text></g><!--link MenuView to AbrirProfesores--><g id="link_MenuView_AbrirProfesores"><path d="M972.59,71.922 C1087.17,89.242 1380.5,133.602 1380.5,133.602 C1380.5,133.602 1487.3262,173.3109 1554.9662,198.4609 " fill="none" id="MenuView-to-AbrirProfesores" style="stroke:#181818;stroke-width:1.0;"/><polygon fill="#181818" points="1560.59,200.552,1553.5483,193.6662,1555.9035,198.8094,1550.7602,201.1646,1560.59,200.552" style="stroke:#181818;stroke-width:1.0;"/><path d="M1479.5,138.602 L1479.5,165.602 L1600.5,165.602 L1600.5,148.602 L1590.5,138.602 L1479.5,138.602 " fill="#FEFFDD" style="stroke:#181818;stroke-width:0.5;"/><path d="M1590.5,138.602 L1590.5,148.602 L1600.5,148.602 L1590.5,138.602 " fill="#FEFFDD" style="stroke:#181818;stroke-width:0.5;"/><text fill="#000000" font-family="sans-serif" font-size="13" lengthAdjust="spacing" textLength="100" x="1485.5" y="157.499">abrirProfesores()</text></g><!--link MenuView to AbrirEdificios--><g id="link_MenuView_AbrirEdificios"><path d="M972.51,69.592 C1125.13,84.832 1613.5,133.602 1613.5,133.602 C1613.5,133.602 1729.0777,173.4462 1802.0177,198.5962 " fill="none" id="MenuView-to-AbrirEdificios" style="stroke:#181818;stroke-width:1.0;"/><polygon fill="#181818" points="1807.69,200.552,1800.4855,193.8367,1802.9631,198.9221,1797.8777,201.3998,1807.69,200.552" style="stroke:#181818;stroke-width:1.0;"/><path d="M1719.5,138.602 L1719.5,165.602 L1824.5,165.602 L1824.5,148.602 L1814.5,138.602 L1719.5,138.602 " fill="#FEFFDD" style="stroke:#181818;stroke-width:0.5;"/><path d="M1814.5,138.602 L1814.5,148.602 L1824.5,148.602 L1814.5,138.602 " fill="#FEFFDD" style="stroke:#181818;stroke-width:0.5;"/><text fill="#000000" font-family="sans-serif" font-size="13" lengthAdjust="spacing" textLength="84" x="1725.5" y="157.499">abrirEdificios()</text></g><!--link MenuView to AbrirAulas--><g id="link_MenuView_AbrirAulas"><path d="M972.63,68.502 C1156.25,82.322 1837.5,133.602 1837.5,133.602 C1837.5,133.602 1957.9447,173.5143 2033.8247,198.6643 " fill="none" id="MenuView-to-AbrirAulas" style="stroke:#181818;stroke-width:1.0;"/><polygon fill="#181818" points="2039.52,200.552,2032.2355,193.9236,2034.7739,198.9789,2029.7186,201.5173,2039.52,200.552" style="stroke:#181818;stroke-width:1.0;"/><path d="M1947.5,138.602 L1947.5,165.602 L2036.5,165.602 L2036.5,148.602 L2026.5,138.602 L1947.5,138.602 " fill="#FEFFDD" style="stroke:#181818;stroke-width:0.5;"/><path d="M2026.5,138.602 L2026.5,148.602 L2036.5,148.602 L2026.5,138.602 " fill="#FEFFDD" style="stroke:#181818;stroke-width:0.5;"/><text fill="#000000" font-family="sans-serif" font-size="13" lengthAdjust="spacing" textLength="68" x="1953.5" y="157.499">abrirAulas()</text></g><!--link MenuView to AbrirRecursos--><g id="link_MenuView_AbrirRecursos"><path d="M972.52,67.852 C1181.82,80.632 2049.5,133.602 2049.5,133.602 C2049.5,133.602 2181.6282,173.6609 2264.5682,198.8109 " fill="none" id="MenuView-to-AbrirRecursos" style="stroke:#181818;stroke-width:1.0;"/><polygon fill="#181818" points="2270.31,200.552,2262.858,194.1124,2265.5251,199.1011,2260.5365,201.7682,2270.31,200.552" style="stroke:#181818;stroke-width:1.0;"/><path d="M2169.5,138.602 L2169.5,165.602 L2280.5,165.602 L2280.5,148.602 L2270.5,138.602 L2169.5,138.602 " fill="#FEFFDD" style="stroke:#181818;stroke-width:0.5;"/><path d="M2270.5,138.602 L2270.5,148.602 L2280.5,148.602 L2270.5,138.602 " fill="#FEFFDD" style="stroke:#181818;stroke-width:0.5;"/><text fill="#000000" font-family="sans-serif" font-size="13" lengthAdjust="spacing" textLength="90" x="2175.5" y="157.499">abrirRecursos()</text></g><!--link MenuView to AsignarProfesor--><g id="link_MenuView_AsignarProfesor"><path d="M972.56,67.362 C1208.78,79.212 2293.5,133.602 2293.5,133.602 C2293.5,133.602 2430.9903,173.7209 2517.1603,198.8709 " fill="none" id="MenuView-to-AsignarProfesor" style="stroke:#181818;stroke-width:1.0;"/><polygon fill="#181818" points="2522.92,200.552,2515.4012,194.1906,2518.1203,199.1511,2513.1598,201.8702,2522.92,200.552" style="stroke:#181818;stroke-width:1.0;"/><path d="M2418.5,138.602 L2418.5,165.602 L2585.5,165.602 L2585.5,148.602 L2575.5,138.602 L2418.5,138.602 " fill="#FEFFDD" style="stroke:#181818;stroke-width:0.5;"/><path d="M2575.5,138.602 L2575.5,148.602 L2585.5,148.602 L2575.5,138.602 " fill="#FEFFDD" style="stroke:#181818;stroke-width:0.5;"/><text fill="#000000" font-family="sans-serif" font-size="13" lengthAdjust="spacing" textLength="146" x="2424.5" y="157.499">asignarProfesorACurso()</text></g><!--link MenuView to GenerarHorario--><g id="link_MenuView_GenerarHorario"><path d="M972.63,66.952 C1239.4,77.892 2598.5,133.602 2598.5,133.602 C2598.5,133.602 2714.0777,173.4462 2787.0177,198.5962 " fill="none" id="MenuView-to-GenerarHorario" style="stroke:#181818;stroke-width:1.0;"/><polygon fill="#181818" points="2792.69,200.552,2785.4855,193.8367,2787.9631,198.9221,2782.8777,201.3998,2792.69,200.552" style="stroke:#181818;stroke-width:1.0;"/><path d="M2704.5,138.602 L2704.5,165.602 L2826.5,165.602 L2826.5,148.602 L2816.5,138.602 L2704.5,138.602 " fill="#FEFFDD" style="stroke:#181818;stroke-width:0.5;"/><path d="M2816.5,138.602 L2816.5,148.602 L2826.5,148.602 L2816.5,138.602 " fill="#FEFFDD" style="stroke:#181818;stroke-width:0.5;"/><text fill="#000000" font-family="sans-serif" font-size="13" lengthAdjust="spacing" textLength="101" x="2710.5" y="157.499">generarHorario()</text></g><!--link MenuView to ConsultarHorario--><g id="link_MenuView_ConsultarHorario"><path d="M972.88,66.732 C1262.42,77.102 2839.5,133.602 2839.5,133.602 C2839.5,133.602 2965.78,173.5904 3045.19,198.7404 " fill="none" id="MenuView-to-ConsultarHorario" style="stroke:#181818;stroke-width:1.0;"/><polygon fill="#181818" points="3050.91,200.552,3043.5377,194.0213,3046.1433,199.0423,3041.1223,201.6479,3050.91,200.552" style="stroke:#181818;stroke-width:1.0;"/><path d="M2954.5,138.602 L2954.5,165.602 L3085.5,165.602 L3085.5,148.602 L3075.5,138.602 L2954.5,138.602 " fill="#FEFFDD" style="stroke:#181818;stroke-width:0.5;"/><path d="M3075.5,138.602 L3075.5,148.602 L3085.5,148.602 L3075.5,138.602 " fill="#FEFFDD" style="stroke:#181818;stroke-width:0.5;"/><text fill="#000000" font-family="sans-serif" font-size="13" lengthAdjust="spacing" textLength="110" x="2960.5" y="157.499">consultarHorario()</text></g><!--link MenuView to CerrarSesion--><g id="link_MenuView_CerrarSesion"><path d="M972.84,66.532 C1284.61,76.372 3098.5,133.602 3098.5,133.602 C3098.5,133.602 3222.3499,173.5594 3300.2899,198.7094 " fill="none" id="MenuView-to-CerrarSesion" style="stroke:#181818;stroke-width:1.0;"/><polygon fill="#181818" points="3306,200.552,3298.6632,193.9814,3301.2416,199.0165,3296.2065,201.5949,3306,200.552" style="stroke:#181818;stroke-width:1.0;"/><path d="M3211.5,138.602 L3211.5,165.602 L3314.5,165.602 L3314.5,148.602 L3304.5,138.602 L3211.5,138.602 " fill="#FEFFDD" style="stroke:#181818;stroke-width:0.5;"/><path d="M3304.5,138.602 L3304.5,148.602 L3314.5,148.602 L3304.5,138.602 " fill="#FEFFDD" style="stroke:#181818;stroke-width:0.5;"/><text fill="#000000" font-family="sans-serif" font-size="13" lengthAdjust="spacing" textLength="82" x="3217.5" y="157.499">cerrarSesion()</text></g><!--SRC=[bPLDZzCm48Rl_XLMET0UUbcnAtQ5LWgX2mTMh1R1tKbcWzNKZkn4g23-E-Fce_ugE3t5Oy_pphZsQxtdecMA7MZ31NJ75cWhcwCP4CBAJYgQLGSkkEuKgwGYBIlth0Pwa2QY7a7qb6cwiiRhpOh-9XH_2igEYRe1-khcwdRtS4lD_7SEF_tfuhgeRjxInpCbbw9Jicb0-MiVhhBypOu-WJfmBVKpj59phFHuOU6NjkHIW3RK2qk-WiObv0yXrbp-OVS-kwQhknpBO8LKhCD5D2iKLqzArhXhJAzCzsuebP7t2ii_0uRnWWfUG4i5RWbZB9Mog_WBn-sn87CebP7rZRqFfs5gxZEKtYvCaHI2vhLWSzS3muqbK3w203npdt2ik3n1t5020m-hxflEfVZ150ueN3gSne5X1GXnhYBTgktz-K89sG5515xT_UcKLrotKl22D_mN8Z0D3coz8I0gQXOJCkNIRML8qRiNO7ymGyIkfckrPdPL3Zz6f5lK6XiAu3LqttHlDckzeNTq_4v2HkmWmCkYC__iN7a_y8tKPspWtJ1ndwJdk4gWL2gmTaYE7qR8oOlz5_zbuoRDv7-K_jexBTPXmIJcM1OU2wS0pz224eBiHRA3qKKrHm-C2yvvIviSJV5IbvDdNcppdBz8UNRIgF3PP-EwTlOYsPC1HoK7QuxBJLcBf2QpZghDJXuNj7AJDLrppqu78j3sNe1G_G8bjOhQUHryUU_jYDnUBpjLjlIU4ryuU6v2Kme9oUBMEnG8sszKAEfcpe9_0G00]--></g></svg>