<?xml version="1.0" encoding="us-ascii" standalone="no"?><svg xmlns="http://www.w3.org/2000/svg" xmlns:xlink="http://www.w3.org/1999/xlink" contentStyleType="text/css" height="398px" preserveAspectRatio="none" style="width:3489px;height:398px;background:#FFFFFF;" version="1.1" viewBox="0 0 3489 398" width="3489px" zoomAndPan="magnify"><defs/><g><!--cluster mostrarMenu--><g id="cluster_mostrarMenu"><path d="M121,6.602 L227,6.602 A3.75,3.75 0 0 1 229.5,9.102 L236.5,31.6699 L986,31.6699 A2.5,2.5 0 0 1 988.5,34.1699 L988.5,389.102 A2.5,2.5 0 0 1 986,391.602 L121,391.602 A2.5,2.5 0 0 1 118.5,389.102 L118.5,9.102 A2.5,2.5 0 0 1 121,6.602 " fill="none" style="stroke:#000000;stroke-width:1.5;"/><line style="stroke:#000000;stroke-width:1.5;" x1="118.5" x2="236.5" y1="31.6699" y2="31.6699"/><text fill="#000000" font-family="sans-serif" font-size="14" font-weight="bold" lengthAdjust="spacing" textLength="105" x="122.5" y="23.5679">mostrarMenu()</text></g><!--entity MenuView--><g id="elem_MenuView"><rect fill="#629EF9" height="39.0679" rx="2.5" ry="2.5" style="stroke:#181818;stroke-width:0.5;" width="90" x="882.5" y="44.602"/><text fill="#000000" font-family="sans-serif" font-size="14" lengthAdjust="spacing" textLength="70" x="892.5" y="69.5679">MenuView</text></g><!--entity MostrarMenuController--><g id="elem_MostrarMenuController"><rect fill="#B5BD68" height="39.0679" rx="2.5" ry="2.5" style="stroke:#181818;stroke-width:0.5;" width="179" x="485" y="200.602"/><text fill="#000000" font-family="sans-serif" font-size="14" lengthAdjust="spacing" textLength="159" x="495" y="225.5679">MostrarMenuController</text></g><!--entity PermisosRepository--><g id="elem_PermisosRepository"><rect fill="#F2AC4E" height="39.0679" rx="2.5" ry="2.5" style="stroke:#181818;stroke-width:0.5;" width="152" x="419.5" y="336.602"/><text fill="#000000" font-family="sans-serif" font-size="14" lengthAdjust="spacing" textLength="132" x="429.5" y="361.5679">PermisosRepository</text></g><!--entity OpcionesMenu--><g id="elem_OpcionesMenu"><rect fill="#F2AC4E" height="39.0679" rx="2.5" ry="2.5" style="stroke:#181818;stroke-width:0.5;" width="122" x="134.5" y="336.602"/><text fill="#000000" font-family="sans-serif" font-size="14" lengthAdjust="spacing" textLength="102" x="144.5" y="361.5679">OpcionesMenu</text></g><!--entity Sesion--><g id="elem_Sesion"><rect fill="#F2AC4E" height="39.0679" rx="2.5" ry="2.5" style="stroke:#181818;stroke-width:0.5;" width="64" x="778.5" y="336.602"/><text fill="#000000" font-family="sans-serif" font-size="14" lengthAdjust="spacing" textLength="44" x="788.5" y="361.5679">Sesion</text></g><!--entity Administrador--><g id="elem_Administrador"><ellipse cx="54.5" cy="33.102" fill="#F1F1F1" rx="8" ry="8" style="stroke:#181818;stroke-width:0.5;"/><path d="M54.5,41.102 L54.5,68.102 M41.5,49.102 L67.5,49.102 M54.5,68.102 L41.5,83.102 M54.5,68.102 L67.5,83.102 " fill="none" style="stroke:#181818;stroke-width:0.5;"/><text fill="#000000" font-family="sans-serif" font-size="14" lengthAdjust="spacing" textLength="97" x="6" y="99.5679">Administrador</text></g><!--entity ListarProgramas--><g id="elem_ListarProgramas"><rect fill="#CDEBA5" height="39.0679" rx="2.5" ry="2.5" style="stroke:#181818;stroke-width:0.5;" width="228" x="1004.5" y="200.602"/><text fill="#000000" font-family="sans-serif" font-size="14" lengthAdjust="spacing" textLength="208" x="1014.5" y="225.5679">:Collaboration ListarProgramas</text></g><!--entity ListarCursos--><g id="elem_ListarCursos"><rect fill="#CDEBA5" height="39.0679" rx="2.5" ry="2.5" style="stroke:#181818;stroke-width:0.5;" width="201" x="1268" y="200.602"/><text fill="#000000" font-family="sans-serif" font-size="14" lengthAdjust="spacing" textLength="181" x="1278" y="225.5679">:Collaboration ListarCursos</text></g><!--entity ListarProfesores--><g id="elem_ListarProfesores"><rect fill="#CDEBA5" height="39.0679" rx="2.5" ry="2.5" style="stroke:#181818;stroke-width:0.5;" width="226" x="1504.5" y="200.602"/><text fill="#000000" font-family="sans-serif" font-size="14" lengthAdjust="spacing" textLength="206" x="1514.5" y="225.5679">:Collaboration ListarProfesores</text></g><!--entity ListarEdificios--><g id="elem_ListarEdificios"><rect fill="#CDEBA5" height="39.0679" rx="2.5" ry="2.5" style="stroke:#181818;stroke-width:0.5;" width="211" x="1766" y="200.602"/><text fill="#000000" font-family="sans-serif" font-size="14" lengthAdjust="spacing" textLength="191" x="1776" y="225.5679">:Collaboration ListarEdificios</text></g><!--entity ListarAulas--><g id="elem_ListarAulas"><rect fill="#CDEBA5" height="39.0679" rx="2.5" ry="2.5" style="stroke:#181818;stroke-width:0.5;" width="192" x="2012.5" y="200.602"/><text fill="#000000" font-family="sans-serif" font-size="14" lengthAdjust="spacing" textLength="172" x="2022.5" y="225.5679">:Collaboration ListarAulas</text></g><!--entity ListarRecursos--><g id="elem_ListarRecursos"><rect fill="#CDEBA5" height="39.0679" rx="2.5" ry="2.5" style="stroke:#181818;stroke-width:0.5;" width="216" x="2239.5" y="200.602"/><text fill="#000000" font-family="sans-serif" font-size="14" lengthAdjust="spacing" textLength="196" x="2249.5" y="225.5679">:Collaboration ListarRecursos</text></g><!--entity AsignarProfesor--><g id="elem_AsignarProfesor"><rect fill="#CDEBA5" height="39.0679" rx="2.5" ry="2.5" style="stroke:#181818;stroke-width:0.5;" width="226" x="2490.5" y="200.602"/><text fill="#000000" font-family="sans-serif" font-size="14" lengthAdjust="spacing" textLength="206" x="2500.5" y="225.5679">:Collaboration AsignarProfesor</text></g><!--entity GenerarHorario--><g id="elem_GenerarHorario"><rect fill="#CDEBA5" height="39.0679" rx="2.5" ry="2.5" style="stroke:#181818;stroke-width:0.5;" width="223" x="2752" y="200.602"/><text fill="#000000" font-family="sans-serif" font-size="14" lengthAdjust="spacing" textLength="203" x="2762" y="225.5679">:Collaboration GenerarHorario</text></g><!--entity ConsultarHorario--><g id="elem_ConsultarHorario"><rect fill="#CDEBA5" height="39.0679" rx="2.5" ry="2.5" style="stroke:#181818;stroke-width:0.5;" width="233" x="3010" y="200.602"/><text fill="#000000" font-family="sans-serif" font-size="14" lengthAdjust="spacing" textLength="213" x="3020" y="225.5679">:Collaboration ConsultarHorario</text></g><!--entity CerrarSesion--><g id="elem_CerrarSesion"><rect fill="#CDEBA5" height="39.0679" rx="2.5" ry="2.5" style="stroke:#181818;stroke-width:0.5;" width="205" x="3278" y="200.602"/><text fill="#000000" font-family="sans-serif" font-size="14" lengthAdjust="spacing" textLength="185" x="3288" y="225.5679">:Collaboration CerrarSesion</text></g><!--link Administrador to MenuView--><g id="link_Administrador_MenuView"><path d="M103.31,64.102 C257.62,64.102 727.55,64.102 876.47,64.102 " fill="none" id="Administrador-to-MenuView" style="stroke:#181818;stroke-width:1.0;"/><polygon fill="#181818" points="882.47,64.102,873.47,60.102,877.47,64.102,873.47,68.102,882.47,64.102" style="stroke:#181818;stroke-width:1.0;"/><path d="M436.75,29.102 L436.75,56.102 L548.75,56.102 L548.75,39.102 L538.75,29.102 L436.75,29.102 " fill="#FEFFDD" style="stroke:#181818;stroke-width:0.5;"/><path d="M538.75,29.102 L538.75,39.102 L548.75,39.102 L538.75,29.102 " fill="#FEFFDD" style="stroke:#181818;stroke-width:0.5;"/><text fill="#000000" font-family="sans-serif" font-size="13" lengthAdjust="spacing" textLength="91" x="442.75" y="47.999">mostrarMenu()</text></g><!--link MenuView to MostrarMenuController--><g id="link_MenuView_MostrarMenuController"><path d="M884.92,83.682 C816.98,113.322 690.3193,168.5724 622.4593,198.1824 " fill="none" id="MenuView-to-MostrarMenuController" style="stroke:#181818;stroke-width:1.0;"/><polygon fill="#181818" points="616.96,200.582,626.8086,200.6488,621.5427,198.5824,623.6092,193.3165,616.96,200.582" style="stroke:#181818;stroke-width:1.0;"/><path d="M766.5,138.602 L766.5,165.602 L920.5,165.602 L920.5,148.602 L910.5,138.602 L766.5,138.602 " fill="#FEFFDD" style="stroke:#181818;stroke-width:0.5;"/><path d="M910.5,138.602 L910.5,148.602 L920.5,148.602 L910.5,138.602 " fill="#FEFFDD" style="stroke:#181818;stroke-width:0.5;"/><text fill="#000000" font-family="sans-serif" font-size="13" lengthAdjust="spacing" textLength="133" x="772.5" y="157.499">prepararMenu(sesion)</text></g><!--link MostrarMenuController to Sesion--><g id="link_MostrarMenuController_Sesion"><path d="M649.82,239.642 C705.43,253.342 771.5,269.602 771.5,269.602 C771.5,269.602 788.0803,305.9429 799.5503,331.0929 " fill="none" id="MostrarMenuController-to-Sesion" style="stroke:#181818;stroke-width:1.0;"/><polygon fill="#181818" points="802.04,336.552,801.9449,326.7036,799.9653,332.0028,794.6661,330.0232,802.04,336.552" style="stroke:#181818;stroke-width:1.0;"/><path d="M792.5,274.602 L792.5,301.602 L944.5,301.602 L944.5,284.602 L934.5,274.602 L792.5,274.602 " fill="#FEFFDD" style="stroke:#181818;stroke-width:0.5;"/><path d="M934.5,274.602 L934.5,284.602 L944.5,284.602 L934.5,274.602 " fill="#FEFFDD" style="stroke:#181818;stroke-width:0.5;"/><text fill="#000000" font-family="sans-serif" font-size="13" lengthAdjust="spacing" textLength="131" x="798.5" y="293.499">getUsuario() : Usuario</text></g><!--link MostrarMenuController to PermisosRepository--><g id="link_MostrarMenuController_PermisosRepository"><path d="M543.03,239.712 C519.91,253.392 492.5,269.602 492.5,269.602 C492.5,269.602 492.5,306.602 492.5,306.602 C492.5,306.602 493.1279,316.8235 493.9779,330.5035 " fill="none" id="MostrarMenuController-to-PermisosRepository" style="stroke:#181818;stroke-width:1.0;"/><polygon fill="#181818" points="494.35,336.492,497.7842,327.2612,494.0399,331.5016,489.7996,327.7574,494.35,336.492" style="stroke:#181818;stroke-width:1.0;"/><path d="M497.5,274.602 L497.5,301.602 L762.5,301.602 L762.5,284.602 L752.5,274.602 L497.5,274.602 " fill="#FEFFDD" style="stroke:#181818;stroke-width:0.5;"/><path d="M752.5,274.602 L752.5,284.602 L762.5,284.602 L752.5,274.602 " fill="#FEFFDD" style="stroke:#181818;stroke-width:0.5;"/><text fill="#000000" font-family="sans-serif" font-size="13" lengthAdjust="spacing" textLength="244" x="503.5" y="293.499">obtenerOpciones(usuario) : List&lt;Opcion&gt;</text></g><!--link MostrarMenuController to OpcionesMenu--><g id="link_MostrarMenuController_OpcionesMenu"><path d="M484.7,232.902 C375.48,247.262 205.5,269.602 205.5,269.602 C205.5,269.602 201.3066,305.4426 198.3666,330.5926 " fill="none" id="MostrarMenuController-to-OpcionesMenu" style="stroke:#181818;stroke-width:1.0;"/><polygon fill="#181818" points="197.67,336.552,202.6879,328.0773,198.2505,331.5858,194.742,327.1484,197.67,336.552" style="stroke:#181818;stroke-width:1.0;"/><path d="M210.5,274.602 L210.5,301.602 L479.5,301.602 L479.5,284.602 L469.5,274.602 L210.5,274.602 " fill="#FEFFDD" style="stroke:#181818;stroke-width:0.5;"/><path d="M469.5,274.602 L469.5,284.602 L479.5,284.602 L469.5,274.602 " fill="#FEFFDD" style="stroke:#181818;stroke-width:0.5;"/><text fill="#000000" font-family="sans-serif" font-size="13" lengthAdjust="spacing" textLength="248" x="216.5" y="293.499">crearOpciones(opciones) : OpcionesMenu</text></g><!--link MenuView to OpcionesMenu--><g id="link_MenuView_OpcionesMenu"><path d="M882.26,74.362 C732.98,104.922 265.5,200.602 265.5,200.602 C265.5,200.602 192.5,269.602 192.5,269.602 C192.5,269.602 192.5,306.602 192.5,306.602 C192.5,306.602 193.1279,316.8235 193.9779,330.5035 " fill="none" id="MenuView-to-OpcionesMenu" style="stroke:#181818;stroke-width:1.0;"/><polygon fill="#181818" points="194.35,336.492,197.7842,327.2612,194.0399,331.5016,189.7996,327.7574,194.35,336.492" style="stroke:#181818;stroke-width:1.0;"/><path d="M270.5,206.602 L270.5,233.602 L462.5,233.602 L462.5,216.602 L452.5,206.602 L270.5,206.602 " fill="#FEFFDD" style="stroke:#181818;stroke-width:0.5;"/><path d="M452.5,206.602 L452.5,216.602 L462.5,216.602 L452.5,206.602 " fill="#FEFFDD" style="stroke:#181818;stroke-width:0.5;"/><text fill="#000000" font-family="sans-serif" font-size="13" lengthAdjust="spacing" textLength="171" x="276.5" y="225.499">getOpciones() : List&lt;Opcion&gt;</text></g><!--link MenuView to ListarProgramas--><g id="link_MenuView_ListarProgramas"><path d="M950.54,83.682 C987.25,113.282 1053.9492,167.0559 1090.7092,196.6959 " fill="none" id="MenuView-to-ListarProgramas" style="stroke:#181818;stroke-width:1.0;"/><polygon fill="#181818" points="1095.38,200.462,1090.8845,191.6989,1091.4877,197.3236,1085.8631,197.9267,1095.38,200.462" style="stroke:#181818;stroke-width:1.0;"/><path d="M1061.5,138.602 L1061.5,165.602 L1172.5,165.602 L1172.5,148.602 L1162.5,138.602 L1061.5,138.602 " fill="#FEFFDD" style="stroke:#181818;stroke-width:0.5;"/><path d="M1162.5,138.602 L1162.5,148.602 L1172.5,148.602 L1162.5,138.602 " fill="#FEFFDD" style="stroke:#181818;stroke-width:0.5;"/><text fill="#000000" font-family="sans-serif" font-size="13" lengthAdjust="spacing" textLength="90" x="1067.5" y="157.499">invocar(sesion)</text></g><!--link MenuView to ListarCursos--><g id="link_MenuView_ListarCursos"><path d="M972.74,77.112 C1046.73,96.762 1185.5,133.602 1185.5,133.602 C1185.5,133.602 1269.5342,172.8618 1323.3542,198.0118 " fill="none" id="MenuView-to-ListarCursos" style="stroke:#181818;stroke-width:1.0;"/><polygon fill="#181818" points="1328.79,200.552,1322.3297,193.1179,1324.2602,198.4352,1318.9429,200.3656,1328.79,200.552" style="stroke:#181818;stroke-width:1.0;"/><path d="M1265.5,138.602 L1265.5,165.602 L1376.5,165.602 L1376.5,148.602 L1366.5,138.602 L1265.5,138.602 " fill="#FEFFDD" style="stroke:#181818;stroke-width:0.5;"/><path d="M1366.5,138.602 L1366.5,148.602 L1376.5,148.602 L1366.5,138.602 " fill="#FEFFDD" style="stroke:#181818;stroke-width:0.5;"/><text fill="#000000" font-family="sans-serif" font-size="13" lengthAdjust="spacing" textLength="90" x="1271.5" y="157.499">invocar(sesion)</text></g><!--link MenuView to ListarProfesores--><g id="link_MenuView_ListarProfesores"><path d="M972.64,71.792 C1088.89,89.032 1389.5,133.602 1389.5,133.602 C1389.5,133.602 1495.3521,173.2951 1562.4121,198.4451 " fill="none" id="MenuView-to-ListarProfesores" style="stroke:#181818;stroke-width:1.0;"/><polygon fill="#181818" points="1568.03,200.552,1561.0078,193.6463,1563.3484,198.7962,1558.1985,201.1369,1568.03,200.552" style="stroke:#181818;stroke-width:1.0;"/><path d="M1487.5,138.602 L1487.5,165.602 L1598.5,165.602 L1598.5,148.602 L1588.5,138.602 L1487.5,138.602 " fill="#FEFFDD" style="stroke:#181818;stroke-width:0.5;"/><path d="M1588.5,138.602 L1588.5,148.602 L1598.5,148.602 L1588.5,138.602 " fill="#FEFFDD" style="stroke:#181818;stroke-width:0.5;"/><text fill="#000000" font-family="sans-serif" font-size="13" lengthAdjust="spacing" textLength="90" x="1493.5" y="157.499">invocar(sesion)</text></g><!--link MenuView to ListarEdificios--><g id="link_MenuView_ListarEdificios"><path d="M972.64,69.622 C1125.11,84.892 1611.5,133.602 1611.5,133.602 C1611.5,133.602 1732.9204,173.5272 1809.3804,198.6772 " fill="none" id="MenuView-to-ListarEdificios" style="stroke:#181818;stroke-width:1.0;"/><polygon fill="#181818" points="1815.08,200.552,1807.7805,193.9401,1810.3303,198.9897,1805.2808,201.5396,1815.08,200.552" style="stroke:#181818;stroke-width:1.0;"/><path d="M1722.5,138.602 L1722.5,165.602 L1833.5,165.602 L1833.5,148.602 L1823.5,138.602 L1722.5,138.602 " fill="#FEFFDD" style="stroke:#181818;stroke-width:0.5;"/><path d="M1823.5,138.602 L1823.5,148.602 L1833.5,148.602 L1823.5,138.602 " fill="#FEFFDD" style="stroke:#181818;stroke-width:0.5;"/><text fill="#000000" font-family="sans-serif" font-size="13" lengthAdjust="spacing" textLength="90" x="1728.5" y="157.499">invocar(sesion)</text></g><!--link MenuView to ListarAulas--><g id="link_MenuView_ListarAulas"><path d="M972.76,68.472 C1157.73,82.262 1846.5,133.602 1846.5,133.602 C1846.5,133.602 1968.8861,173.5404 2045.9461,198.6904 " fill="none" id="MenuView-to-ListarAulas" style="stroke:#181818;stroke-width:1.0;"/><polygon fill="#181818" points="2051.65,200.552,2044.3352,193.957,2046.8967,199.0007,2041.8531,201.5622,2051.65,200.552" style="stroke:#181818;stroke-width:1.0;"/><path d="M1958.5,138.602 L1958.5,165.602 L2069.5,165.602 L2069.5,148.602 L2059.5,138.602 L1958.5,138.602 " fill="#FEFFDD" style="stroke:#181818;stroke-width:0.5;"/><path d="M2059.5,138.602 L2059.5,148.602 L2069.5,148.602 L2059.5,138.602 " fill="#FEFFDD" style="stroke:#181818;stroke-width:0.5;"/><text fill="#000000" font-family="sans-serif" font-size="13" lengthAdjust="spacing" textLength="90" x="1964.5" y="157.499">invocar(sesion)</text></g><!--link MenuView to ListarRecursos--><g id="link_MenuView_ListarRecursos"><path d="M972.78,67.792 C1186.32,80.452 2082.5,133.602 2082.5,133.602 C2082.5,133.602 2206.3499,173.5594 2284.2899,198.7094 " fill="none" id="MenuView-to-ListarRecursos" style="stroke:#181818;stroke-width:1.0;"/><polygon fill="#181818" points="2290,200.552,2282.6632,193.9814,2285.2416,199.0165,2280.2065,201.5949,2290,200.552" style="stroke:#181818;stroke-width:1.0;"/><path d="M2195.5,138.602 L2195.5,165.602 L2306.5,165.602 L2306.5,148.602 L2296.5,138.602 L2195.5,138.602 " fill="#FEFFDD" style="stroke:#181818;stroke-width:0.5;"/><path d="M2296.5,138.602 L2296.5,148.602 L2306.5,148.602 L2296.5,138.602 " fill="#FEFFDD" style="stroke:#181818;stroke-width:0.5;"/><text fill="#000000" font-family="sans-serif" font-size="13" lengthAdjust="spacing" textLength="90" x="2201.5" y="157.499">invocar(sesion)</text></g><!--link MenuView to AsignarProfesor--><g id="link_MenuView_AsignarProfesor"><path d="M972.63,67.322 C1211.71,79.092 2319.5,133.602 2319.5,133.602 C2319.5,133.602 2452.6048,173.6722 2536.1348,198.8222 " fill="none" id="MenuView-to-AsignarProfesor" style="stroke:#181818;stroke-width:1.0;"/><polygon fill="#181818" points="2541.88,200.552,2534.4154,194.1271,2537.0923,199.1105,2532.1089,201.7874,2541.88,200.552" style="stroke:#181818;stroke-width:1.0;"/><path d="M2440.5,138.602 L2440.5,165.602 L2551.5,165.602 L2551.5,148.602 L2541.5,138.602 L2440.5,138.602 " fill="#FEFFDD" style="stroke:#181818;stroke-width:0.5;"/><path d="M2541.5,138.602 L2541.5,148.602 L2551.5,148.602 L2541.5,138.602 " fill="#FEFFDD" style="stroke:#181818;stroke-width:0.5;"/><text fill="#000000" font-family="sans-serif" font-size="13" lengthAdjust="spacing" textLength="90" x="2446.5" y="157.499">invocar(sesion)</text></g><!--link MenuView to GenerarHorario--><g id="link_MenuView_GenerarHorario"><path d="M972.56,66.992 C1235.94,78.012 2564.5,133.602 2564.5,133.602 C2564.5,133.602 2704.9113,173.7522 2792.8513,198.9022 " fill="none" id="MenuView-to-GenerarHorario" style="stroke:#181818;stroke-width:1.0;"/><polygon fill="#181818" points="2798.62,200.552,2791.0668,194.2315,2793.8127,199.1771,2788.867,201.9231,2798.62,200.552" style="stroke:#181818;stroke-width:1.0;"/><path d="M2691.5,138.602 L2691.5,165.602 L2802.5,165.602 L2802.5,148.602 L2792.5,138.602 L2691.5,138.602 " fill="#FEFFDD" style="stroke:#181818;stroke-width:0.5;"/><path d="M2792.5,138.602 L2792.5,148.602 L2802.5,148.602 L2792.5,138.602 " fill="#FEFFDD" style="stroke:#181818;stroke-width:0.5;"/><text fill="#000000" font-family="sans-serif" font-size="13" lengthAdjust="spacing" textLength="90" x="2697.5" y="157.499">invocar(sesion)</text></g><!--link MenuView to ConsultarHorario--><g id="link_MenuView_ConsultarHorario"><path d="M972.77,66.742 C1259.89,77.162 2815.5,133.602 2815.5,133.602 C2815.5,133.602 2961.7647,173.8113 3053.2347,198.9613 " fill="none" id="MenuView-to-ConsultarHorario" style="stroke:#181818;stroke-width:1.0;"/><polygon fill="#181818" points="3059.02,200.552,3051.4025,194.3091,3054.1989,199.2264,3049.2816,202.0228,3059.02,200.552" style="stroke:#181818;stroke-width:1.0;"/><path d="M2947.5,138.602 L2947.5,165.602 L3058.5,165.602 L3058.5,148.602 L3048.5,138.602 L2947.5,138.602 " fill="#FEFFDD" style="stroke:#181818;stroke-width:0.5;"/><path d="M3048.5,138.602 L3048.5,148.602 L3058.5,148.602 L3048.5,138.602 " fill="#FEFFDD" style="stroke:#181818;stroke-width:0.5;"/><text fill="#000000" font-family="sans-serif" font-size="13" lengthAdjust="spacing" textLength="90" x="2953.5" y="157.499">invocar(sesion)</text></g><!--link MenuView to CerrarSesion--><g id="link_MenuView_CerrarSesion"><path d="M972.78,66.552 C1282.08,76.432 3071.5,133.602 3071.5,133.602 C3071.5,133.602 3216.7873,173.8017 3307.6673,198.9517 " fill="none" id="MenuView-to-CerrarSesion" style="stroke:#181818;stroke-width:1.0;"/><polygon fill="#181818" points="3313.45,200.552,3305.8429,194.2965,3308.6311,199.2184,3303.7092,202.0067,3313.45,200.552" style="stroke:#181818;stroke-width:1.0;"/><path d="M3202.5,138.602 L3202.5,165.602 L3313.5,165.602 L3313.5,148.602 L3303.5,138.602 L3202.5,138.602 " fill="#FEFFDD" style="stroke:#181818;stroke-width:0.5;"/><path d="M3303.5,138.602 L3303.5,148.602 L3313.5,148.602 L3303.5,138.602 " fill="#FEFFDD" style="stroke:#181818;stroke-width:0.5;"/><text fill="#000000" font-family="sans-serif" font-size="13" lengthAdjust="spacing" textLength="90" x="3208.5" y="157.499">invocar(sesion)</text></g><!--SRC=[fPJ1Rjim38RlUWeYkwI7N8grM8kXWEUbss75YWxhNR5PGuWZ6fIy8HZsxfDi9xPbTzCIdoIA-aZHv6-sIbUIvGvAfT7kAuIAohtV224pImn9lbDQ6Sio9nQLpBQoGDYHj_03wXgaWSLWlxnOm2y1xcFChDH5YV3c-l9cVNy3_lnPuS_mU7EroQ_VmKDFIKbRfh943dtlBvFqxHeUaNVAa7d2YenocUvVSVnQPOeq6azznUKR6kSYVWinE4i_hZyaLx2uJLqQSaCihNE2BwuMaX-P2bSsQHR- -O4jcfBMx5umGBI6_ydY1Gqn1cbqncZEEbSlobLfY3dQeYb9NOxgqUoZRpzX5bRZO8fW94OLkdzx0mbi4PHFgD7rtsUtPqKDP6oAOBZ6DNLfnvJG6CD1TgvjPxQCWK68qLZ2YbTt_N1fiWWEuSPustJyQ3e5wXoyYn276x3A_VtPwPl0AaOl6ItDDEcCc7CKM3b-b_e4MA3zRcfVbkK5t4AtZaBEYC04Jnlh_-511fPro_UXV9kzRm_kekADj6GIAMEKVHpg5ZxGwDvS_V_9TaKwal-M-f0Ooj84glGFoYJF_SKffzEcyo03SJeFrClJUPnMfCvZ77NgL4oeLATo0h4w5JDHgvD1GycAX_m1]--></g></svg>