<?xml version="1.0" encoding="us-ascii" standalone="no"?><svg xmlns="http://www.w3.org/2000/svg" xmlns:xlink="http://www.w3.org/1999/xlink" contentStyleType="text/css" height="960px" preserveAspectRatio="none" style="width:1328px;height:960px;background:#FFFFFF;" version="1.1" viewBox="0 0 1328 960" width="1328px" zoomAndPan="magnify"><defs/><g><text fill="#000000" font-family="sans-serif" font-size="14" font-weight="bold" lengthAdjust="spacing" textLength="262" x="529.25" y="29.9659">An&#225;lisis de Colaboraci&#243;n: crearCurso()</text><rect fill="#FFFFFF" height="626.0914" style="stroke:#181818;stroke-width:1.0;" width="10" x="474.5" y="203.5479"/><rect fill="#FFFFFF" height="95.118" style="stroke:#181818;stroke-width:1.0;" width="10" x="699.5" y="361.49"/><rect fill="#FFFFFF" height="280.0602" style="stroke:#181818;stroke-width:1.0;" width="10" x="699.5" y="488.314"/><rect fill="#FFFFFF" height="31.706" style="stroke:#181818;stroke-width:1.0;" width="10" x="897.5" y="393.196"/><rect fill="#FFFFFF" height="216.6481" style="stroke:#181818;stroke-width:1.0;" width="10" x="897.5" y="520.0201"/><rect fill="#FFFFFF" height="70.118" style="stroke:#181818;stroke-width:1.0;" width="10" x="1070.5" y="590.1381"/><line style="stroke:#181818;stroke-width:0.5;stroke-dasharray:5.0,5.0;" x1="59" x2="59" y1="124.1358" y2="877.1983"/><line style="stroke:#181818;stroke-width:0.5;stroke-dasharray:5.0,5.0;" x1="219" x2="219" y1="124.1358" y2="877.1983"/><line style="stroke:#181818;stroke-width:0.5;stroke-dasharray:5.0,5.0;" x1="479" x2="479" y1="124.1358" y2="877.1983"/><line style="stroke:#181818;stroke-width:0.5;stroke-dasharray:5.0,5.0;" x1="704.5" x2="704.5" y1="124.1358" y2="877.1983"/><line style="stroke:#181818;stroke-width:0.5;stroke-dasharray:5.0,5.0;" x1="902.5" x2="902.5" y1="124.1358" y2="877.1983"/><line style="stroke:#181818;stroke-width:0.5;stroke-dasharray:5.0,5.0;" x1="1075.5" x2="1075.5" y1="124.1358" y2="877.1983"/><text fill="#000000" font-family="sans-serif" font-size="14" lengthAdjust="spacing" textLength="103" x="5" y="120.0339">:Cursos Abierto</text><ellipse cx="59.5" cy="53.5679" fill="#E2E2F0" rx="8" ry="8" style="stroke:#181818;stroke-width:0.5;"/><path d="M59.5,61.5679 L59.5,88.5679 M46.5,69.5679 L72.5,69.5679 M59.5,88.5679 L46.5,103.5679 M59.5,88.5679 L72.5,103.5679 " fill="none" style="stroke:#181818;stroke-width:0.5;"/><text fill="#000000" font-family="sans-serif" font-size="14" lengthAdjust="spacing" textLength="103" x="5" y="891.1642">:Cursos Abierto</text><ellipse cx="59.5" cy="903.7662" fill="#E2E2F0" rx="8" ry="8" style="stroke:#181818;stroke-width:0.5;"/><path d="M59.5,911.7662 L59.5,938.7662 M46.5,919.7662 L72.5,919.7662 M59.5,938.7662 L46.5,953.7662 M59.5,938.7662 L72.5,953.7662 " fill="none" style="stroke:#181818;stroke-width:0.5;"/><rect fill="#E2E2F0" height="33.0679" rx="2.5" ry="2.5" style="stroke:#181818;stroke-width:0.5;" width="191" x="124" y="90.0679"/><text fill="#000000" font-family="sans-serif" font-size="14" lengthAdjust="spacing" textLength="177" x="131" y="112.0339">:Collaboration EditarCurso</text><rect fill="#E2E2F0" height="33.0679" rx="2.5" ry="2.5" style="stroke:#181818;stroke-width:0.5;" width="191" x="124" y="876.1983"/><text fill="#000000" font-family="sans-serif" font-size="14" lengthAdjust="spacing" textLength="177" x="131" y="898.1642">:Collaboration EditarCurso</text><text fill="#000000" font-family="sans-serif" font-size="14" font-style="italic" lengthAdjust="spacing" textLength="75" x="439" y="100.9659">&#171;boundary&#187;</text><text fill="#000000" font-family="sans-serif" font-size="14" lengthAdjust="spacing" textLength="107" x="423" y="120.0339">CrearCursoView</text><path d="M459,58 L459,82 M459,70 L476,70 " fill="none" style="stroke:#181818;stroke-width:0.5;"/><ellipse cx="488" cy="70" fill="#E2E2F0" rx="12" ry="12" style="stroke:#181818;stroke-width:0.5;"/><text fill="#000000" font-family="sans-serif" font-size="14" font-style="italic" lengthAdjust="spacing" textLength="75" x="439" y="891.1642">&#171;boundary&#187;</text><text fill="#000000" font-family="sans-serif" font-size="14" lengthAdjust="spacing" textLength="107" x="423" y="910.2321">CrearCursoView</text><path d="M459,918.3341 L459,942.3341 M459,930.3341 L476,930.3341 " fill="none" style="stroke:#181818;stroke-width:0.5;"/><ellipse cx="488" cy="930.3341" fill="#E2E2F0" rx="12" ry="12" style="stroke:#181818;stroke-width:0.5;"/><text fill="#000000" font-family="sans-serif" font-size="14" font-style="italic" lengthAdjust="spacing" textLength="59" x="672" y="100.9659">&#171;control&#187;</text><text fill="#000000" font-family="sans-serif" font-size="14" lengthAdjust="spacing" textLength="106" x="648.5" y="120.0339">CursoController</text><ellipse cx="704.5" cy="70" fill="#E2E2F0" rx="12" ry="12" style="stroke:#181818;stroke-width:0.5;"/><polygon fill="#181818" points="700.5,58,706.5,53,704.5,58,706.5,63,700.5,58" style="stroke:#181818;stroke-width:1.0;"/><text fill="#000000" font-family="sans-serif" font-size="14" font-style="italic" lengthAdjust="spacing" textLength="59" x="672" y="891.1642">&#171;control&#187;</text><text fill="#000000" font-family="sans-serif" font-size="14" lengthAdjust="spacing" textLength="106" x="648.5" y="910.2321">CursoController</text><ellipse cx="704.5" cy="930.3341" fill="#E2E2F0" rx="12" ry="12" style="stroke:#181818;stroke-width:0.5;"/><polygon fill="#181818" points="700.5,918.3341,706.5,913.3341,704.5,918.3341,706.5,923.3341,700.5,918.3341" style="stroke:#181818;stroke-width:1.0;"/><text fill="#000000" font-family="sans-serif" font-size="14" font-style="italic" lengthAdjust="spacing" textLength="50" x="874.5" y="100.9659">&#171;entity&#187;</text><text fill="#000000" font-family="sans-serif" font-size="14" lengthAdjust="spacing" textLength="110" x="844.5" y="120.0339">CursoRepository</text><ellipse cx="902.5" cy="70" fill="#E2E2F0" rx="12" ry="12" style="stroke:#181818;stroke-width:0.5;"/><line style="stroke:#181818;stroke-width:0.5;" x1="890.5" x2="914.5" y1="84" y2="84"/><text fill="#000000" font-family="sans-serif" font-size="14" font-style="italic" lengthAdjust="spacing" textLength="50" x="874.5" y="891.1642">&#171;entity&#187;</text><text fill="#000000" font-family="sans-serif" font-size="14" lengthAdjust="spacing" textLength="110" x="844.5" y="910.2321">CursoRepository</text><ellipse cx="902.5" cy="930.3341" fill="#E2E2F0" rx="12" ry="12" style="stroke:#181818;stroke-width:0.5;"/><line style="stroke:#181818;stroke-width:0.5;" x1="890.5" x2="914.5" y1="944.3341" y2="944.3341"/><text fill="#000000" font-family="sans-serif" font-size="14" font-style="italic" lengthAdjust="spacing" textLength="50" x="1047.5" y="100.9659">&#171;entity&#187;</text><text fill="#000000" font-family="sans-serif" font-size="14" lengthAdjust="spacing" textLength="39" x="1053" y="120.0339">Curso</text><ellipse cx="1075.5" cy="70" fill="#E2E2F0" rx="12" ry="12" style="stroke:#181818;stroke-width:0.5;"/><line style="stroke:#181818;stroke-width:0.5;" x1="1063.5" x2="1087.5" y1="84" y2="84"/><text fill="#000000" font-family="sans-serif" font-size="14" font-style="italic" lengthAdjust="spacing" textLength="50" x="1047.5" y="891.1642">&#171;entity&#187;</text><text fill="#000000" font-family="sans-serif" font-size="14" lengthAdjust="spacing" textLength="39" x="1053" y="910.2321">Curso</text><ellipse cx="1075.5" cy="930.3341" fill="#E2E2F0" rx="12" ry="12" style="stroke:#181818;stroke-width:0.5;"/><line style="stroke:#181818;stroke-width:0.5;" x1="1063.5" x2="1087.5" y1="944.3341" y2="944.3341"/><rect fill="#FFFFFF" height="626.0914" style="stroke:#181818;stroke-width:1.0;" width="10" x="474.5" y="203.5479"/><rect fill="#FFFFFF" height="95.118" style="stroke:#181818;stroke-width:1.0;" width="10" x="699.5" y="361.49"/><rect fill="#FFFFFF" height="280.0602" style="stroke:#181818;stroke-width:1.0;" width="10" x="699.5" y="488.314"/><rect fill="#FFFFFF" height="31.706" style="stroke:#181818;stroke-width:1.0;" width="10" x="897.5" y="393.196"/><rect fill="#FFFFFF" height="216.6481" style="stroke:#181818;stroke-width:1.0;" width="10" x="897.5" y="520.0201"/><rect fill="#FFFFFF" height="70.118" style="stroke:#181818;stroke-width:1.0;" width="10" x="1070.5" y="590.1381"/><rect fill="#EEEEEE" height="3" style="stroke:#EEEEEE;stroke-width:1.0;" width="1321.5" x="0" y="155.9888"/><line style="stroke:#000000;stroke-width:1.0;" x1="0" x2="1321.5" y1="155.9888" y2="155.9888"/><line style="stroke:#000000;stroke-width:1.0;" x1="0" x2="1321.5" y1="158.9888" y2="158.9888"/><rect fill="#EEEEEE" height="25.706" style="stroke:#000000;stroke-width:2.0;" width="268" x="526.75" y="144.1358"/><text fill="#000000" font-family="sans-serif" font-size="13" font-weight="bold" lengthAdjust="spacing" textLength="251" x="532.75" y="162.0328">Flujo Principal: Crear Curso Acad&#233;mico</text><polygon fill="#181818" points="462.5,199.5479,472.5,203.5479,462.5,207.5479,466.5,203.5479" style="stroke:#181818;stroke-width:1.0;"/><line style="stroke:#181818;stroke-width:1.0;" x1="59.5" x2="468.5" y1="203.5479" y2="203.5479"/><text fill="#000000" font-family="sans-serif" font-size="13" lengthAdjust="spacing" textLength="86" x="66.5" y="197.7389">1: crearCurso()</text><line style="stroke:#181818;stroke-width:1.0;" x1="484.5" x2="526.5" y1="284.8719" y2="284.8719"/><line style="stroke:#181818;stroke-width:1.0;" x1="526.5" x2="526.5" y1="284.8719" y2="297.8719"/><line style="stroke:#181818;stroke-width:1.0;" x1="485.5" x2="526.5" y1="297.8719" y2="297.8719"/><polygon fill="#181818" points="495.5,293.8719,485.5,297.8719,495.5,301.8719,491.5,297.8719" style="stroke:#181818;stroke-width:1.0;"/><text fill="#000000" font-family="sans-serif" font-size="13" lengthAdjust="spacing" textLength="137" x="491.5" y="261.3569">2: presenta solicitud de</text><text fill="#000000" font-family="sans-serif" font-size="13" lengthAdjust="spacing" textLength="146" x="491.5" y="279.0629">datos m&#237;nimos del curso</text><path d="M649,216.5479 L649,332.5479 L1023,332.5479 L1023,226.5479 L1013,216.5479 L649,216.5479 " fill="#FEFFDD" style="stroke:#181818;stroke-width:0.5;"/><path d="M1013,216.5479 L1013,226.5479 L1023,226.5479 L1013,216.5479 " fill="#FEFFDD" style="stroke:#181818;stroke-width:0.5;"/><text fill="#000000" font-family="sans-serif" font-size="13" font-weight="bold" lengthAdjust="spacing" textLength="353" x="655" y="235.4449">Sistema presenta solicitud de datos m&#237;nimos del curso</text><text fill="#000000" font-family="sans-serif" font-size="13" lengthAdjust="spacing" textLength="192" x="655" y="253.1509">&#8226; Nombre del curso (obligatorio)</text><text fill="#000000" font-family="sans-serif" font-size="13" lengthAdjust="spacing" textLength="3" x="655" y="270.8569">&#160;</text><text fill="#000000" font-family="sans-serif" font-size="13" font-weight="bold" lengthAdjust="spacing" textLength="168" x="655" y="288.5629">Sistema permite solicitar:</text><text fill="#000000" font-family="sans-serif" font-size="13" lengthAdjust="spacing" textLength="74" x="655" y="306.2689">&#8226; crear curso</text><text fill="#000000" font-family="sans-serif" font-size="13" lengthAdjust="spacing" textLength="110" x="655" y="323.975">&#8226; cancelar creaci&#243;n</text><polygon fill="#181818" points="687.5,357.49,697.5,361.49,687.5,365.49,691.5,361.49" style="stroke:#181818;stroke-width:1.0;"/><line style="stroke:#181818;stroke-width:1.0;" x1="484.5" x2="693.5" y1="361.49" y2="361.49"/><text fill="#000000" font-family="sans-serif" font-size="13" lengthAdjust="spacing" textLength="196" x="491.5" y="355.681">3: validarDatosM&#237;nimos(nombre)</text><polygon fill="#181818" points="885.5,389.196,895.5,393.196,885.5,397.196,889.5,393.196" style="stroke:#181818;stroke-width:1.0;"/><line style="stroke:#181818;stroke-width:1.0;" x1="709.5" x2="891.5" y1="393.196" y2="393.196"/><text fill="#000000" font-family="sans-serif" font-size="13" lengthAdjust="spacing" textLength="169" x="716.5" y="387.387">4: verificarUnicidad(nombre)</text><polygon fill="#181818" points="720.5,420.902,710.5,424.902,720.5,428.902,716.5,424.902" style="stroke:#181818;stroke-width:1.0;"/><line style="stroke:#181818;stroke-width:1.0;stroke-dasharray:2.0,2.0;" x1="714.5" x2="901.5" y1="424.902" y2="424.902"/><text fill="#000000" font-family="sans-serif" font-size="13" lengthAdjust="spacing" textLength="119" x="726.5" y="419.093">5: es&#218;nico : boolean</text><polygon fill="#181818" points="495.5,452.608,485.5,456.608,495.5,460.608,491.5,456.608" style="stroke:#181818;stroke-width:1.0;"/><line style="stroke:#181818;stroke-width:1.0;stroke-dasharray:2.0,2.0;" x1="489.5" x2="703.5" y1="456.608" y2="456.608"/><text fill="#000000" font-family="sans-serif" font-size="13" lengthAdjust="spacing" textLength="182" x="501.5" y="450.799">6: validaci&#243;nCorrecta : boolean</text><polygon fill="#181818" points="687.5,484.314,697.5,488.314,687.5,492.314,691.5,488.314" style="stroke:#181818;stroke-width:1.0;"/><line style="stroke:#181818;stroke-width:1.0;" x1="484.5" x2="693.5" y1="488.314" y2="488.314"/><text fill="#000000" font-family="sans-serif" font-size="13" lengthAdjust="spacing" textLength="134" x="491.5" y="482.505">7: crearCurso(nombre)</text><polygon fill="#181818" points="885.5,516.0201,895.5,520.0201,885.5,524.0201,889.5,520.0201" style="stroke:#181818;stroke-width:1.0;"/><line style="stroke:#181818;stroke-width:1.0;" x1="709.5" x2="891.5" y1="520.0201" y2="520.0201"/><text fill="#000000" font-family="sans-serif" font-size="13" lengthAdjust="spacing" textLength="143" x="716.5" y="514.2111">8: crear(nombre) : Curso</text><polygon fill="#181818" points="1058.5,586.1381,1068.5,590.1381,1058.5,594.1381,1062.5,590.1381" style="stroke:#181818;stroke-width:1.0;"/><line style="stroke:#181818;stroke-width:1.0;" x1="907.5" x2="1064.5" y1="590.1381" y2="590.1381"/><text fill="#000000" font-family="sans-serif" font-size="13" lengthAdjust="spacing" textLength="132" x="914.5" y="584.3291">9: new Curso(nombre)</text><path d="M1085,533.0201 L1085,631.0201 L1321,631.0201 L1321,543.0201 L1311,533.0201 L1085,533.0201 " fill="#FEFFDD" style="stroke:#181818;stroke-width:0.5;"/><path d="M1311,533.0201 L1311,543.0201 L1321,543.0201 L1311,533.0201 " fill="#FEFFDD" style="stroke:#181818;stroke-width:0.5;"/><text fill="#000000" font-family="sans-serif" font-size="13" font-weight="bold" lengthAdjust="spacing" textLength="215" x="1091" y="551.9171">Curso creado con datos m&#237;nimos:</text><text fill="#000000" font-family="sans-serif" font-size="13" lengthAdjust="spacing" textLength="162" x="1091" y="569.6231">&#8226; Nombre: [proporcionado]</text><text fill="#000000" font-family="sans-serif" font-size="13" lengthAdjust="spacing" textLength="213" x="1091" y="587.3291">&#8226; Otros campos: valores por defecto</text><text fill="#000000" font-family="sans-serif" font-size="13" lengthAdjust="spacing" textLength="91" x="1091" y="605.0351">&#8226; Estado: activo</text><text fill="#000000" font-family="sans-serif" font-size="13" lengthAdjust="spacing" textLength="195" x="1091" y="622.7411">&#8226; ID: generado autom&#225;ticamente</text><polygon fill="#181818" points="918.5,656.2562,908.5,660.2562,918.5,664.2562,914.5,660.2562" style="stroke:#181818;stroke-width:1.0;"/><line style="stroke:#181818;stroke-width:1.0;stroke-dasharray:2.0,2.0;" x1="912.5" x2="1074.5" y1="660.2562" y2="660.2562"/><text fill="#000000" font-family="sans-serif" font-size="13" lengthAdjust="spacing" textLength="137" x="924.5" y="654.4472">10: cursoNuevo : Curso</text><line style="stroke:#181818;stroke-width:1.0;" x1="907.5" x2="949.5" y1="691.9622" y2="691.9622"/><line style="stroke:#181818;stroke-width:1.0;" x1="949.5" x2="949.5" y1="691.9622" y2="704.9622"/><line style="stroke:#181818;stroke-width:1.0;" x1="908.5" x2="949.5" y1="704.9622" y2="704.9622"/><polygon fill="#181818" points="918.5,700.9622,908.5,704.9622,918.5,708.9622,914.5,704.9622" style="stroke:#181818;stroke-width:1.0;"/><text fill="#000000" font-family="sans-serif" font-size="13" lengthAdjust="spacing" textLength="149" x="914.5" y="686.1532">11: persistir(cursoNuevo)</text><polygon fill="#181818" points="720.5,732.6682,710.5,736.6682,720.5,740.6682,716.5,736.6682" style="stroke:#181818;stroke-width:1.0;"/><line style="stroke:#181818;stroke-width:1.0;stroke-dasharray:2.0,2.0;" x1="714.5" x2="901.5" y1="736.6682" y2="736.6682"/><text fill="#000000" font-family="sans-serif" font-size="13" lengthAdjust="spacing" textLength="140" x="726.5" y="730.8592">12: cursoCreado : Curso</text><polygon fill="#181818" points="495.5,764.3742,485.5,768.3742,495.5,772.3742,491.5,768.3742" style="stroke:#181818;stroke-width:1.0;"/><line style="stroke:#181818;stroke-width:1.0;stroke-dasharray:2.0,2.0;" x1="489.5" x2="703.5" y1="768.3742" y2="768.3742"/><text fill="#000000" font-family="sans-serif" font-size="13" lengthAdjust="spacing" textLength="140" x="501.5" y="762.5652">13: cursoCreado : Curso</text><polygon fill="#181818" points="230.5,825.6393,220.5,829.6393,230.5,833.6393,226.5,829.6393" style="stroke:#181818;stroke-width:1.0;"/><line style="stroke:#181818;stroke-width:1.0;" x1="224.5" x2="478.5" y1="829.6393" y2="829.6393"/><text fill="#000000" font-family="sans-serif" font-size="13" lengthAdjust="spacing" textLength="231" x="236.5" y="823.8303">14: &#171;include&#187; editarCurso(cursoNuevo)</text><path d="M489,781.3742 L489,861.3742 L714,861.3742 L714,791.3742 L704,781.3742 L489,781.3742 " fill="#FEFFDD" style="stroke:#181818;stroke-width:0.5;"/><path d="M704,781.3742 L704,791.3742 L714,791.3742 L704,781.3742 " fill="#FEFFDD" style="stroke:#181818;stroke-width:0.5;"/><text fill="#000000" font-family="sans-serif" font-size="13" font-weight="bold" lengthAdjust="spacing" textLength="204" x="495" y="800.2712">Transferencia autom&#225;tica C&#8594;U</text><text fill="#000000" font-family="sans-serif" font-size="13" lengthAdjust="spacing" textLength="128" x="495" y="817.9772">&#8226; Curso b&#225;sico creado</text><text fill="#000000" font-family="sans-serif" font-size="13" lengthAdjust="spacing" textLength="181" x="495" y="835.6833">&#8226; Edici&#243;n completa autom&#225;tica</text><text fill="#000000" font-family="sans-serif" font-size="13" lengthAdjust="spacing" textLength="157" x="495" y="853.3893">&#8226; "El delgado" &#8594; "El gordo"</text><!--SRC=[fLNDRXCn4BxxAKQva4QgH5f-hIHIIOF4WOA0zW8SdDrfC7ZjbUsqvCQ91-38hTmuSE8HyYPz4iRsDl6s2KNYjElPyUTlllaywpv9NGihAb1Ier_K2BLHYx1Wx0uS5DvOT82VFLfj71CX01q-dbjd71nC9LflEY0Sf50JOGJgPI5heNr8Dqg9gR72IwDXKaelRCoFExDrE7IiXACpImIXbnTAEkbW5qwaymAwJynSby8kTjYqUOFEs6Ap_KJYUOHCsOF1LT9ej1rvRBItHW6meddhHB0chj2c-j9Ib2J0OD2a_WrtehqiHGdTyEA9CSPdW_uAQ-CagRc8wAkbD8IUCWcyjMKjSqBC4naz5SB1wdmYGwf7qGkv_Aqv52kPkZkC3OVmLCq_6dXffGwDKXoYaEa4QhqebpyhMHWO3XbhTHTsHut27FhNWCaXyanuJ0cCfRnimnw7cZn5p0KueyWaVbuItNVKA4-UgfQ_jAnCg4114KsX3U5PEVlWMQ_tcd2m4fj1O1j6hySkl_o08rDDBQx3q3LJ9MSY2a-gPF1eAqd7DkZ2yWOYLjiGYskX2rGXH1-YrDIr4WBdhFhSFHpsEPm9HUwmXu7lyuPkLqTwcOZPDkf1Xa6GkMKut2D8jF9K5i8UQw9Crhk9b-rX-VxT6nJlSq2t_Aw30JXCZL4eD2jn8rIRMjRi1rU5Hc76nbeiueSDWArQjmZtiEMs_v3hKGDqXK6XD80srzVIQjIwX1mUSz1u3jiuhNFRHaxtBB0ewK5piUrTth8iXxUrDRMn1KrGsl0-Vdj11JfoO4Niej9nMbCMEVoKb4uEdP2KfU4GAQNGiqCECzHemzbYxasrlA1vBIgwKPZvDozqzuQ8_RiyNOIZEPwPbOHvJxFYhuju3Oi62Tqv6brUskuQTUSMd_Rt6WxZ9EG64l_arFx-hJYR3PhzlG8CtSF1W2QgcfSu6W6klxQAQZdXZHNQdQ956iGYRmUCBxz-EswCa8wOBYzSk9F9Dwc_fOpNYqnKrGfz2o9cT2OgpBmPxUW0GSR0p5XQPitEIat3-my0]--></g></svg>