<?xml version="1.0" encoding="us-ascii" standalone="no"?><svg xmlns="http://www.w3.org/2000/svg" xmlns:xlink="http://www.w3.org/1999/xlink" contentStyleType="text/css" height="547px" preserveAspectRatio="none" style="width:748px;height:547px;background:#FFFFFF;" version="1.1" viewBox="0 0 748 547" width="748px" zoomAndPan="magnify"><defs/><g><!--cluster crearCurso--><g id="cluster_crearCurso"><path d="M8.5,111 L94.5,111 A3.75,3.75 0 0 1 97,113.5 L104,136.0679 L520.5,136.0679 A2.5,2.5 0 0 1 523,138.5679 L523,537.5 A2.5,2.5 0 0 1 520.5,540 L8.5,540 A2.5,2.5 0 0 1 6,537.5 L6,113.5 A2.5,2.5 0 0 1 8.5,111 " fill="none" style="stroke:#000000;stroke-width:1.5;"/><line style="stroke:#000000;stroke-width:1.5;" x1="6" x2="104" y1="136.0679" y2="136.0679"/><text fill="#000000" font-family="sans-serif" font-size="14" font-weight="bold" lengthAdjust="spacing" textLength="85" x="10" y="127.9659">crearCurso()</text></g><!--entity CrearCursoView--><g id="elem_CrearCursoView"><rect fill="#629EF9" height="39.0679" rx="2.5" ry="2.5" style="stroke:#181818;stroke-width:0.5;" width="127" x="276.5" y="149"/><text fill="#000000" font-family="sans-serif" font-size="14" lengthAdjust="spacing" textLength="107" x="286.5" y="173.9659">CrearCursoView</text></g><!--entity CursoController--><g id="elem_CursoController"><rect fill="#B5BD68" height="39.0679" rx="2.5" ry="2.5" style="stroke:#181818;stroke-width:0.5;" width="126" x="136" y="267"/><text fill="#000000" font-family="sans-serif" font-size="14" lengthAdjust="spacing" textLength="106" x="146" y="291.9659">CursoController</text></g><!--entity CursoRepository--><g id="elem_CursoRepository"><rect fill="#F2AC4E" height="39.0679" rx="2.5" ry="2.5" style="stroke:#181818;stroke-width:0.5;" width="130" x="142" y="385"/><text fill="#000000" font-family="sans-serif" font-size="14" lengthAdjust="spacing" textLength="110" x="152" y="409.9659">CursoRepository</text></g><!--entity Curso--><g id="elem_Curso"><rect fill="#F2AC4E" height="39.0679" rx="2.5" ry="2.5" style="stroke:#181818;stroke-width:0.5;" width="59" x="177.5" y="485"/><text fill="#000000" font-family="sans-serif" font-size="14" lengthAdjust="spacing" textLength="39" x="187.5" y="509.9659">Curso</text></g><!--entity CursosAbierto--><g id="elem_CursosAbierto"><rect fill="#CDEBA5" height="39.0679" rx="2.5" ry="2.5" style="stroke:#181818;stroke-width:0.5;" width="123" x="278.5" y="7"/><text fill="#000000" font-family="sans-serif" font-size="14" lengthAdjust="spacing" textLength="103" x="288.5" y="31.9659">:Cursos Abierto</text></g><!--entity EditarCurso--><g id="elem_EditarCurso"><rect fill="#CDEBA5" height="39.0679" rx="2.5" ry="2.5" style="stroke:#181818;stroke-width:0.5;" width="197" x="539.5" y="267"/><text fill="#000000" font-family="sans-serif" font-size="14" lengthAdjust="spacing" textLength="177" x="549.5" y="291.9659">:Collaboration EditarCurso</text></g><!--link CursosAbierto to CrearCursoView--><g id="link_CursosAbierto_CrearCursoView"><path d="M340,46.09 C340,72.87 340,116.01 340,142.83 " fill="none" id="CursosAbierto-to-CrearCursoView" style="stroke:#181818;stroke-width:1.0;"/><polygon fill="#181818" points="340,148.83,344,139.83,340,143.83,336,139.83,340,148.83" style="stroke:#181818;stroke-width:1.0;"/><text fill="#000000" font-family="sans-serif" font-size="13" lengthAdjust="spacing" textLength="73" x="341" y="90.897">crearCurso()</text></g><!--link CrearCursoView to CursoController--><g id="link_CrearCursoView_CursoController"><path d="M276.17,180.32 C191.88,194.62 54,218 54,218 C54,218 54,237 54,237 C54,237 96.77,251.3064 137.66,264.9864 " fill="none" id="CrearCursoView-to-CursoController" style="stroke:#181818;stroke-width:1.0;"/><polygon fill="#181818" points="143.35,266.89,136.0841,260.2412,138.6083,265.3036,133.5459,267.8279,143.35,266.89" style="stroke:#181818;stroke-width:1.0;"/><text fill="#000000" font-family="sans-serif" font-size="13" lengthAdjust="spacing" textLength="241" x="55" y="232.897">validarDatosM&#237;nimos(nombre) : boolean</text></g><!--link CrearCursoView to CursoController--><g id="link_CrearCursoView_CursoController"><path d="M329.14,188.3 C317.6,208.28 301,237 301,237 C301,237 272.3286,250.6335 243.5586,264.3135 " fill="none" id="CrearCursoView-to-CursoController-1" style="stroke:#181818;stroke-width:1.0;"/><polygon fill="#181818" points="238.14,266.89,247.9856,266.6376,242.6555,264.7429,244.5502,259.4128,238.14,266.89" style="stroke:#181818;stroke-width:1.0;"/><text fill="#000000" font-family="sans-serif" font-size="13" lengthAdjust="spacing" textLength="165" x="313" y="232.897">crearCurso(nombre) : Curso</text></g><!--link CursoController to CursoRepository--><g id="link_CursoController_CursoRepository"><path d="M149.11,306.11 C112.45,319.79 69,336 69,336 C69,336 69,355 69,355 C69,355 109.4595,369.2204 148.3795,382.9004 " fill="none" id="CursoController-to-CursoRepository" style="stroke:#181818;stroke-width:1.0;"/><polygon fill="#181818" points="154.04,384.89,146.8756,378.1319,149.3229,383.232,144.2228,385.6793,154.04,384.89" style="stroke:#181818;stroke-width:1.0;"/><text fill="#000000" font-family="sans-serif" font-size="13" lengthAdjust="spacing" textLength="214" x="70" y="350.897">verificarUnicidad(nombre) : boolean</text></g><!--link CursoController to CursoRepository--><g id="link_CursoController_CursoRepository"><path d="M233.54,306.11 C258.92,319.79 289,336 289,336 C289,336 289,355 289,355 C289,355 266.7538,368.1546 243.6338,381.8346 " fill="none" id="CursoController-to-CursoRepository-1" style="stroke:#181818;stroke-width:1.0;"/><polygon fill="#181818" points="238.47,384.89,248.2526,383.7494,242.7731,382.3438,244.1787,376.8644,238.47,384.89" style="stroke:#181818;stroke-width:1.0;"/><text fill="#000000" font-family="sans-serif" font-size="13" lengthAdjust="spacing" textLength="130" x="290" y="350.897">crear(nombre) : Curso</text></g><!--link CursoRepository to Curso--><g id="link_CursoRepository_Curso"><path d="M207,424.4 C207,441.86 207,467.66 207,484.99 " fill="none" id="CursoRepository-Curso" style="stroke:#181818;stroke-width:1.0;"/></g><!--link CrearCursoView to EditarCurso--><g id="link_CrearCursoView_EditarCurso"><path d="M396.41,188.11 C437.87,201.79 487,218 487,218 C487,218 546.1623,244.4516 590.8623,264.4316 " fill="none" id="CrearCursoView-to-EditarCurso" style="stroke:#181818;stroke-width:1.0;stroke-dasharray:7.0,7.0;"/><polygon fill="#181818" points="596.34,266.88,589.7557,259.5556,591.7752,264.8396,586.4912,266.8592,596.34,266.88" style="stroke:#181818;stroke-width:1.0;"/><text fill="#000000" font-family="sans-serif" font-size="13" lengthAdjust="spacing" textLength="211" x="529" y="232.897">&#171;include&#187; editarCurso(cursoNuevo)</text></g><!--SRC=[ZPBFIiD04CRl-nH3lBI7zb1iiQ44QfhUz23eVR8PozBjJfXiAqLy99_25pDfWlb35NDOc9dl- -QtIOgzSJaA7i0QH_wS4-HiprMXb93sw7QMu2RU9FVhEGHXV9I22rYdXiHp05X0tMewrqriBQOiw0qxI3BZKIwkYxzJAvMZtkEEG0irlKeIjELe7C2xWlBfR5hCbibs2V6FwiNGsr2KpjDiSLVZnkoyb5GaGzLsjevlarhrH3aNnhES_rAf3wLwxm0casZ04aBt1gM-DuL9LZdwO26Sq9eCPOEUYuUlJsSEN8mS7rAXCOIGCbj2ronlZVNwFdyPHc9UZKPvTaQNiTdLf07MDQhEHTg4vklzY-GIy8ktrPNUdqcVQZgDklzC2AkLSTeUCueYe7OmqjNvUAGJZzKt]--></g></svg>