<?xml version="1.0" encoding="us-ascii" standalone="no"?><svg xmlns="http://www.w3.org/2000/svg" xmlns:xlink="http://www.w3.org/1999/xlink" contentStyleType="text/css" height="763px" preserveAspectRatio="none" style="width:415px;height:763px;background:#FFFFFF;" version="1.1" viewBox="0 0 415 763" width="415px" zoomAndPan="magnify"><defs/><g><path d="M19.5,7 L389.5,7 A12.5,12.5 0 0 1 402,19.5 L402,36.0679 L7,36.0679 L7,19.5 A12.5,12.5 0 0 1 19.5,7 " fill="#F1F1F1" style="stroke:#F1F1F1;stroke-width:1.0;"/><rect fill="none" height="603.0679" rx="12.5" ry="12.5" style="stroke:#181818;stroke-width:0.5;" width="395" x="7" y="7"/><line style="stroke:#181818;stroke-width:0.5;" x1="7" x2="402" y1="36.0679" y2="36.0679"/><text fill="#000000" font-family="sans-serif" font-size="14" lengthAdjust="spacing" textLength="97" x="156" y="26.9659">crearRecurso()</text><g id="crearRecurso.RequiringData"><rect fill="#F1F1F1" height="50" rx="12.5" ry="12.5" style="stroke:#181818;stroke-width:0.5;" width="50" x="122" y="140.0679"/><line style="stroke:#181818;stroke-width:0.5;" x1="122" x2="172" y1="169.1358" y2="169.1358"/><text fill="#000000" font-family="sans-serif" font-size="14" lengthAdjust="spacing" textLength="4" x="145" y="160.0339">&#160;</text></g><g id="crearRecurso.ProvidingData"><rect fill="#F1F1F1" height="50" rx="12.5" ry="12.5" style="stroke:#181818;stroke-width:0.5;" width="50" x="19" y="301.5679"/><line style="stroke:#181818;stroke-width:0.5;" x1="19" x2="69" y1="330.6358" y2="330.6358"/><text fill="#000000" font-family="sans-serif" font-size="14" lengthAdjust="spacing" textLength="4" x="42" y="321.5339">&#160;</text></g><g id="elem_c"><polygon fill="#F1F1F1" points="149,463.0679,161,475.0679,149,487.0679,137,475.0679,149,463.0679" style="stroke:#181818;stroke-width:0.5;"/></g><ellipse cx="147" cy="57.0679" fill="#222222" rx="10" ry="10" style="stroke:#222222;stroke-width:1.0;"/><ellipse cx="149" cy="589.0679" fill="none" rx="11" ry="11" style="stroke:#222222;stroke-width:1.0;"/><ellipse cx="149" cy="589.0679" fill="#222222" rx="6" ry="6" style="stroke:#222222;stroke-width:1.0;"/><!--link *start*crearRecurso to RequiringData--><g id="link_*start*crearRecurso_RequiringData"><path d="M147,67.1079 C147,83.0279 147,110.5779 147,133.7079 " fill="none" id="*start*crearRecurso-to-RequiringData" style="stroke:#008000;stroke-width:1.0;"/><polygon fill="#008000" points="147,139.7079,151,130.7079,147,134.7079,143,130.7079,147,139.7079" style="stroke:#008000;stroke-width:1.0;"/><path d="M152,90.0679 L152,117.0679 L393,117.0679 L393,100.0679 L383,90.0679 L152,90.0679 " fill="#FEFFDD" style="stroke:#181818;stroke-width:0.5;"/><path d="M383,90.0679 L383,100.0679 L393,100.0679 L383,90.0679 " fill="#FEFFDD" style="stroke:#181818;stroke-width:0.5;"/><text fill="#000000" font-family="sans-serif" font-size="13" font-weight="bold" lengthAdjust="spacing" textLength="95" x="158" y="108.9649">Administrador</text><text fill="#000000" font-family="sans-serif" font-size="13" lengthAdjust="spacing" textLength="122" x="256" y="108.9649">solicita crear recurso</text></g><!--link RequiringData to ProvidingData--><g id="link_RequiringData_ProvidingData"><path d="M121.82,176.2379 C91.05,188.6679 43,208.0679 43,208.0679 C43,208.0679 43,281.0679 43,281.0679 C43,281.0679 43.0828,285.0095 43.3228,295.4995 " fill="none" id="RequiringData-to-ProvidingData" style="stroke:#008000;stroke-width:1.0;"/><polygon fill="#008000" points="43.46,301.4979,47.2531,292.4088,43.3456,296.4992,39.2552,292.5918,43.46,301.4979" style="stroke:#008000;stroke-width:1.0;"/><path d="M48,213.0679 L48,276.0679 L233,276.0679 L233,223.0679 L223,213.0679 L48,213.0679 " fill="#FEFFDD" style="stroke:#181818;stroke-width:0.5;"/><path d="M223,213.0679 L223,223.0679 L233,223.0679 L223,213.0679 " fill="#FEFFDD" style="stroke:#181818;stroke-width:0.5;"/><text fill="#000000" font-family="sans-serif" font-size="13" font-weight="bold" lengthAdjust="spacing" textLength="52" x="54" y="231.9649">Sistema</text><text fill="#000000" font-family="sans-serif" font-size="13" lengthAdjust="spacing" textLength="109" x="109" y="231.9649">permite introducir</text><text fill="#000000" font-family="sans-serif" font-size="13" lengthAdjust="spacing" textLength="118" x="54" y="249.6709">&#8226; c&#243;digo del recurso</text><text fill="#000000" font-family="sans-serif" font-size="13" lengthAdjust="spacing" textLength="125" x="54" y="267.377">&#8226; nombre del recurso</text></g><!--link ProvidingData to c--><g id="link_ProvidingData_c"><path d="M45.43,351.6279 C47.48,386.0079 51,445.0679 51,445.0679 C51,445.0679 110.5669,462.6945 134.5469,469.7945 " fill="none" id="ProvidingData-to-c" style="stroke:#008000;stroke-width:1.0;"/><polygon fill="#008000" points="140.3,471.4979,132.8059,465.1074,135.5057,470.0784,130.5347,472.7783,140.3,471.4979" style="stroke:#008000;stroke-width:1.0;"/><path d="M56,377.0679 L56,440.0679 L233,440.0679 L233,387.0679 L223,377.0679 L56,377.0679 " fill="#FEFFDD" style="stroke:#181818;stroke-width:0.5;"/><path d="M223,377.0679 L223,387.0679 L233,387.0679 L223,377.0679 " fill="#FEFFDD" style="stroke:#181818;stroke-width:0.5;"/><text fill="#000000" font-family="sans-serif" font-size="13" font-weight="bold" lengthAdjust="spacing" textLength="95" x="62" y="395.9649">Administrador</text><text fill="#000000" font-family="sans-serif" font-size="13" lengthAdjust="spacing" textLength="58" x="160" y="395.9649">introduce</text><text fill="#000000" font-family="sans-serif" font-size="13" lengthAdjust="spacing" textLength="118" x="62" y="413.6709">&#8226; c&#243;digo del recurso</text><text fill="#000000" font-family="sans-serif" font-size="13" lengthAdjust="spacing" textLength="125" x="62" y="431.377">&#8226; nombre del recurso</text></g><!--link c to RequiringData--><g id="link_c_RequiringData"><path d="M157.53,471.2879 C179.81,464.0279 238,445.0679 238,445.0679 C238,445.0679 238,208.0679 238,208.0679 C238,208.0679 204.7173,192.7132 177.7973,180.2832 " fill="none" id="c-to-RequiringData" style="stroke:#FF0000;stroke-width:1.0;"/><polygon fill="#FF0000" points="172.35,177.7679,178.8442,185.1723,176.8895,179.864,182.1978,177.9092,172.35,177.7679" style="stroke:#FF0000;stroke-width:1.0;"/><path d="M243,304.0679 L243,349.0679 L374,349.0679 L374,314.0679 L364,304.0679 L243,304.0679 " fill="#FEFFDD" style="stroke:#181818;stroke-width:0.5;"/><path d="M364,304.0679 L364,314.0679 L374,314.0679 L364,304.0679 " fill="#FEFFDD" style="stroke:#181818;stroke-width:0.5;"/><text fill="#000000" font-family="sans-serif" font-size="13" lengthAdjust="spacing" textLength="110" x="249" y="322.9649">c&#243;digo del recurso</text><text fill="#000000" font-family="sans-serif" font-size="13" lengthAdjust="spacing" textLength="52" x="249" y="340.6709">ya existe</text></g><!--link c to *end*crearRecurso--><g id="link_c_*end*crearRecurso"><path d="M149,487.2179 C149,509.0179 149,550.9879 149,571.9379 " fill="none" id="c-to-*end*crearRecurso" style="stroke:#008000;stroke-width:1.0;"/><polygon fill="#008000" points="149,577.9379,153,568.9379,149,572.9379,145,568.9379,149,577.9379" style="stroke:#008000;stroke-width:1.0;"/><path d="M154,510.0679 L154,555.0679 L381,555.0679 L381,520.0679 L371,510.0679 L154,510.0679 " fill="#FEFFDD" style="stroke:#181818;stroke-width:0.5;"/><path d="M371,510.0679 L371,520.0679 L381,520.0679 L371,510.0679 " fill="#FEFFDD" style="stroke:#181818;stroke-width:0.5;"/><text fill="#000000" font-family="sans-serif" font-size="13" lengthAdjust="spacing" textLength="206" x="160" y="528.9649">recurso creado con datos m&#237;nimos</text><text fill="#000000" font-family="sans-serif" font-size="13" lengthAdjust="spacing" textLength="159" x="160" y="546.6709">transferir a editarRecurso()</text></g><g id="RECURSO_ABIERTO"><rect fill="#F1F1F1" height="50" rx="12.5" ry="12.5" style="stroke:#181818;stroke-width:0.5;" width="149" x="130" y="707"/><line style="stroke:#181818;stroke-width:0.5;" x1="130" x2="279" y1="736.0679" y2="736.0679"/><text fill="#000000" font-family="sans-serif" font-size="14" lengthAdjust="spacing" textLength="129" x="140" y="726.9659">RECURSO_ABIERTO</text></g><!--link crearRecurso to RECURSO_ABIERTO--><g id="link_crearRecurso_RECURSO_ABIERTO"><path d="M204.5,610.22 C204.5,650.39 204.5,679.19 204.5,700.98 " fill="none" id="crearRecurso-to-RECURSO_ABIERTO" style="stroke:#008000;stroke-width:1.0;"/><polygon fill="#008000" points="204.5,706.98,208.5,697.98,204.5,701.98,200.5,697.98,204.5,706.98" style="stroke:#008000;stroke-width:1.0;"/><path d="M209.5,645 L209.5,672 L321.5,672 L321.5,655 L311.5,645 L209.5,645 " fill="#FEFFDD" style="stroke:#181818;stroke-width:0.5;"/><path d="M311.5,645 L311.5,655 L321.5,655 L311.5,645 " fill="#FEFFDD" style="stroke:#181818;stroke-width:0.5;"/><text fill="#000000" font-family="sans-serif" font-size="13" lengthAdjust="spacing" textLength="91" x="215.5" y="663.897">editarRecurso()</text></g><!--SRC=[hLF1IiD04BtdAuPwKQ7u0o5GjGTFbLHFfSXsTrg7PdVZx5Oi8lWjtZtv2VqJlyJDLblNL54mWOJCUtdlpMJYvcHgmK93HGRziaQeRRLi7hBCUU4H9AFW4kM2dGNXeFEvi7_GWViCmh4cTy8PE2NUB8Z9p4w55studEqjgJOi8S_bjIM9HH7ByJ8w74Dtj3TZH3Fk5Zl4ZGqlMzFqC8-5V5Bqb2P3phDGblEZIG7ELYJ9YtL7mEiE8X-DYY9RqyGaiM-7tsK_3DQeHJIkaJK52XdFLYqaSMIzFZw1NBqecbbGM2M16inOFM5iGUsiIQ8ag_p3U3xIuV-6aqqWHlNBB_UTvr80tZKp_SbcqtTOcTtoxv9n1LIu1Km9RnterRCXRLraXQaODqKcXc2hmivizptrVyYovFz8zhH_SbaE1rUzuxD-UJ78aZ1VLJUARm00]--></g></svg>