<?xml version="1.0" encoding="us-ascii" standalone="no"?><svg xmlns="http://www.w3.org/2000/svg" xmlns:xlink="http://www.w3.org/1999/xlink" contentStyleType="text/css" height="713px" preserveAspectRatio="none" style="width:590px;height:713px;background:#FFFFFF;" version="1.1" viewBox="0 0 590 713" width="590px" zoomAndPan="magnify"><defs/><g><path d="M19.5,7 L564.5,7 A12.5,12.5 0 0 1 577,19.5 L577,36.0679 L7,36.0679 L7,19.5 A12.5,12.5 0 0 1 19.5,7 " fill="#F1F1F1" style="stroke:#F1F1F1;stroke-width:1.0;"/><rect fill="none" height="553.0679" rx="12.5" ry="12.5" style="stroke:#181818;stroke-width:0.5;" width="570" x="7" y="7"/><line style="stroke:#181818;stroke-width:0.5;" x1="7" x2="577" y1="36.0679" y2="36.0679"/><text fill="#000000" font-family="sans-serif" font-size="14" lengthAdjust="spacing" textLength="104" x="240" y="26.9659">editarProfesor()</text><g id="editarProfesor.EditandoDatos"><rect fill="#F1F1F1" height="50" rx="12.5" ry="12.5" style="stroke:#181818;stroke-width:0.5;" width="50" x="141" y="140.0679"/><line style="stroke:#181818;stroke-width:0.5;" x1="141" x2="191" y1="169.1358" y2="169.1358"/><text fill="#000000" font-family="sans-serif" font-size="14" lengthAdjust="spacing" textLength="4" x="164" y="160.0339">&#160;</text></g><g id="editarProfesor.GuardandoDatos"><rect fill="#F1F1F1" height="50" rx="12.5" ry="12.5" style="stroke:#181818;stroke-width:0.5;" width="50" x="141" y="405.0679"/><line style="stroke:#181818;stroke-width:0.5;" x1="141" x2="191" y1="434.1358" y2="434.1358"/><text fill="#000000" font-family="sans-serif" font-size="14" lengthAdjust="spacing" textLength="4" x="164" y="425.0339">&#160;</text></g><ellipse cx="166" cy="57.0679" fill="#222222" rx="10" ry="10" style="stroke:#222222;stroke-width:1.0;"/><ellipse cx="166" cy="539.0679" fill="none" rx="11" ry="11" style="stroke:#222222;stroke-width:1.0;"/><ellipse cx="166" cy="539.0679" fill="#222222" rx="6" ry="6" style="stroke:#222222;stroke-width:1.0;"/><!--link *start*editarProfesor to EditandoDatos--><g id="link_*start*editarProfesor_EditandoDatos"><path d="M166,67.1079 C166,83.0279 166,110.5779 166,133.7079 " fill="none" id="*start*editarProfesor-to-EditandoDatos" style="stroke:#008000;stroke-width:1.0;"/><polygon fill="#008000" points="166,139.7079,170,130.7079,166,134.7079,162,130.7079,166,139.7079" style="stroke:#008000;stroke-width:1.0;"/><path d="M171,90.0679 L171,117.0679 L423,117.0679 L423,100.0679 L413,90.0679 L171,90.0679 " fill="#FEFFDD" style="stroke:#181818;stroke-width:0.5;"/><path d="M413,90.0679 L413,100.0679 L423,100.0679 L413,90.0679 " fill="#FEFFDD" style="stroke:#181818;stroke-width:0.5;"/><text fill="#000000" font-family="sans-serif" font-size="13" font-weight="bold" lengthAdjust="spacing" textLength="95" x="177" y="108.9649">Administrador</text><text fill="#000000" font-family="sans-serif" font-size="13" lengthAdjust="spacing" textLength="133" x="275" y="108.9649">solicita editar profesor</text></g><!--link EditandoDatos to GuardandoDatos--><g id="link_EditandoDatos_GuardandoDatos"><path d="M140.89,173.1879 C98.67,185.1779 18,208.0679 18,208.0679 C18,208.0679 18,387.0679 18,387.0679 C18,387.0679 92.8982,408.3188 135.1182,420.3088 " fill="none" id="EditandoDatos-to-GuardandoDatos" style="stroke:#008000;stroke-width:1.0;"/><polygon fill="#008000" points="140.89,421.9479,133.3251,415.6414,136.0802,420.582,131.1396,423.3371,140.89,421.9479" style="stroke:#008000;stroke-width:1.0;"/><path d="M23,213.0679 L23,382.0679 L289,382.0679 L289,223.0679 L279,213.0679 L23,213.0679 " fill="#FEFFDD" style="stroke:#181818;stroke-width:0.5;"/><path d="M279,213.0679 L279,223.0679 L289,223.0679 L279,213.0679 " fill="#FEFFDD" style="stroke:#181818;stroke-width:0.5;"/><text fill="#000000" font-family="sans-serif" font-size="13" font-weight="bold" lengthAdjust="spacing" textLength="52" x="29" y="231.9649">Sistema</text><text fill="#000000" font-family="sans-serif" font-size="13" lengthAdjust="spacing" textLength="154" x="84" y="231.9649">presenta datos de edici&#243;n</text><text fill="#000000" font-family="sans-serif" font-size="13" lengthAdjust="spacing" textLength="245" x="29" y="249.6709">&#8226; C&#243;digo, nombres, apellidos del profesor</text><text fill="#000000" font-family="sans-serif" font-size="13" lengthAdjust="spacing" textLength="174" x="29" y="267.377">&#8226; Correo electr&#243;nico, tel&#233;fono</text><text fill="#000000" font-family="sans-serif" font-size="13" lengthAdjust="spacing" textLength="171" x="29" y="285.083">&#8226; Observaciones del profesor</text><text fill="#000000" font-family="sans-serif" font-size="13" lengthAdjust="spacing" textLength="3" x="29" y="302.789">&#160;</text><text fill="#000000" font-family="sans-serif" font-size="13" font-weight="bold" lengthAdjust="spacing" textLength="52" x="29" y="320.495">Sistema</text><text fill="#000000" font-family="sans-serif" font-size="13" lengthAdjust="spacing" textLength="99" x="84" y="320.495">permite solicitar:</text><text fill="#000000" font-family="sans-serif" font-size="13" lengthAdjust="spacing" textLength="114" x="29" y="338.201">&#8226; modificar campos</text><text fill="#000000" font-family="sans-serif" font-size="13" lengthAdjust="spacing" textLength="110" x="29" y="355.907">&#8226; guardar profesor</text><text fill="#000000" font-family="sans-serif" font-size="13" lengthAdjust="spacing" textLength="103" x="29" y="373.6131">&#8226; cancelar edici&#243;n</text></g><!--link GuardandoDatos to EditandoDatos--><g id="link_GuardandoDatos_EditandoDatos"><path d="M191.29,420.7679 C228.59,408.5279 294,387.0679 294,387.0679 C294,387.0679 294,208.0679 294,208.0679 C294,208.0679 234.2909,188.4787 196.9909,176.2387 " fill="none" id="GuardandoDatos-to-EditandoDatos" style="stroke:#008000;stroke-width:1.0;"/><polygon fill="#008000" points="191.29,174.3679,198.5942,180.9746,196.0408,175.9269,201.0885,173.3734,191.29,174.3679" style="stroke:#008000;stroke-width:1.0;"/><path d="M299,284.0679 L299,311.0679 L568,311.0679 L568,294.0679 L558,284.0679 L299,284.0679 " fill="#FEFFDD" style="stroke:#181818;stroke-width:0.5;"/><path d="M558,284.0679 L558,294.0679 L568,294.0679 L558,284.0679 " fill="#FEFFDD" style="stroke:#181818;stroke-width:0.5;"/><text fill="#000000" font-family="sans-serif" font-size="13" font-weight="bold" lengthAdjust="spacing" textLength="95" x="305" y="302.9649">Administrador</text><text fill="#000000" font-family="sans-serif" font-size="13" lengthAdjust="spacing" textLength="150" x="403" y="302.9649">solicita modificar campos</text></g><!--link GuardandoDatos to *end*editarProfesor--><g id="link_GuardandoDatos_*end*editarProfesor"><path d="M140.83,438.6779 C100.77,450.7779 27,473.0679 27,473.0679 C27,473.0679 27,510.0679 27,510.0679 C27,510.0679 116.4381,528.0833 149.2081,534.6833 " fill="none" id="GuardandoDatos-to-*end*editarProfesor" style="stroke:#008000;stroke-width:1.0;"/><polygon fill="#008000" points="155.09,535.8679,147.0569,530.1697,150.1884,534.8807,145.4774,538.0122,155.09,535.8679" style="stroke:#008000;stroke-width:1.0;"/><path d="M32,478.0679 L32,505.0679 L280,505.0679 L280,488.0679 L270,478.0679 L32,478.0679 " fill="#FEFFDD" style="stroke:#181818;stroke-width:0.5;"/><path d="M270,478.0679 L270,488.0679 L280,488.0679 L270,478.0679 " fill="#FEFFDD" style="stroke:#181818;stroke-width:0.5;"/><text fill="#000000" font-family="sans-serif" font-size="13" font-weight="bold" lengthAdjust="spacing" textLength="95" x="38" y="496.9649">Administrador</text><text fill="#000000" font-family="sans-serif" font-size="13" lengthAdjust="spacing" textLength="129" x="136" y="496.9649">solicita guardar y salir</text></g><!--link GuardandoDatos to *end*editarProfesor--><g id="link_GuardandoDatos_*end*editarProfesor"><path d="M191.24,439.9779 C226.17,452.3079 285,473.0679 285,473.0679 C285,473.0679 285,510.0679 285,510.0679 C285,510.0679 211.5201,527.3521 182.4001,534.2121 " fill="none" id="GuardandoDatos-to-*end*editarProfesor-1" style="stroke:#FF0000;stroke-width:1.0;"/><polygon fill="#FF0000" points="176.56,535.5879,186.2374,537.4176,181.4268,534.4414,184.403,529.6308,176.56,535.5879" style="stroke:#FF0000;stroke-width:1.0;"/><path d="M290,478.0679 L290,505.0679 L548,505.0679 L548,488.0679 L538,478.0679 L290,478.0679 " fill="#FEFFDD" style="stroke:#181818;stroke-width:0.5;"/><path d="M538,478.0679 L538,488.0679 L548,488.0679 L538,478.0679 " fill="#FEFFDD" style="stroke:#181818;stroke-width:0.5;"/><text fill="#000000" font-family="sans-serif" font-size="13" font-weight="bold" lengthAdjust="spacing" textLength="95" x="296" y="496.9649">Administrador</text><text fill="#000000" font-family="sans-serif" font-size="13" lengthAdjust="spacing" textLength="139" x="394" y="496.9649">solicita cancelar edici&#243;n</text></g><g id="PROFESORES_ABIERTO"><rect fill="#F1F1F1" height="50" rx="12.5" ry="12.5" style="stroke:#181818;stroke-width:0.5;" width="172" x="206" y="657"/><line style="stroke:#181818;stroke-width:0.5;" x1="206" x2="378" y1="686.0679" y2="686.0679"/><text fill="#000000" font-family="sans-serif" font-size="14" lengthAdjust="spacing" textLength="152" x="216" y="676.9659">PROFESORES_ABIERTO</text></g><!--link editarProfesor to PROFESORES_ABIERTO--><g id="link_editarProfesor_PROFESORES_ABIERTO"><path d="M212.6,560.15 C207.29,578.58 204,590 204,590 C204,590 204,627 204,627 C204,627 224.0853,639.3331 247.5153,653.7031 " fill="none" id="editarProfesor-to-PROFESORES_ABIERTO" style="stroke:#008000;stroke-width:1.0;"/><polygon fill="#008000" points="252.63,656.84,247.0493,648.7249,248.3678,654.2259,242.8667,655.5444,252.63,656.84" style="stroke:#008000;stroke-width:1.0;"/><path d="M209,595 L209,622 L330,622 L330,605 L320,595 L209,595 " fill="#FEFFDD" style="stroke:#181818;stroke-width:0.5;"/><path d="M320,595 L320,605 L330,605 L320,595 " fill="#FEFFDD" style="stroke:#181818;stroke-width:0.5;"/><text fill="#000000" font-family="sans-serif" font-size="13" lengthAdjust="spacing" textLength="100" x="215" y="613.897">abrirProfesores()</text></g><!--link editarProfesor to PROFESORES_ABIERTO--><g id="link_editarProfesor_PROFESORES_ABIERTO"><path d="M334.41,560.15 C337.24,578.58 339,590 339,590 C339,590 339,627 339,627 C339,627 329.4796,637.9446 316.9696,652.3146 " fill="none" id="editarProfesor-to-PROFESORES_ABIERTO-1" style="stroke:#FF0000;stroke-width:1.0;"/><polygon fill="#FF0000" points="313.03,656.84,321.9564,652.6783,316.313,653.0688,315.9225,647.4255,313.03,656.84" style="stroke:#FF0000;stroke-width:1.0;"/><path d="M344,595 L344,622 L460,622 L460,605 L450,595 L344,595 " fill="#FEFFDD" style="stroke:#181818;stroke-width:0.5;"/><path d="M450,595 L450,605 L460,605 L450,595 " fill="#FEFFDD" style="stroke:#181818;stroke-width:0.5;"/><text fill="#000000" font-family="sans-serif" font-size="13" lengthAdjust="spacing" textLength="95" x="350" y="613.897">cancelar edici&#243;n</text></g><!--SRC=[fLFBQW8n5DtdAuBTQ56wBoBqCIrTZMXt8YMJN2MOIOQRj22bq6_fhci_mJ_fbpJ6SJIE8hKP69ZSSyyvzoHZPr8N35bEbTJWvWNGmgZvweCGwvW32a8wXdqq4x06AREq4MyrMmtwJWZrQztHy8-79IkK5kQUEMFhvSTNXgAgqpN1w79CEwEBAGBeSQSNSz00qSPp6BqoF0iRtQnt8tAffNN8XC7kLTQZrYZ9VMzfdnQbsT01Mgnf_2BLAzRQTH5RFUfYw1r0pe9-WM11UtqHs4J8aSlbGWVqp-SNlLikX9oQjkVACmzlKrQ0Kb84l8ejXmQ328Q20kxGCqdkcnsevVV4Q5F1qim2lZ4kZOO3J0VT0kRI3xH93Qyhjjm8EP7SHyXPNfJJhmhJ40hMRNAcEIXVYIRUPBxri7S1ZXxxEQT-qFMVBFYRU8xm9fKvjKp9-BgH8ve8uX-A9-8c7uJi_SAxO_O7wKCoJ0V9yENczYaPFASaqcSPogeJRBD5jinrsdAIKwHronNfBm00]--></g></svg>