<?xml version="1.0" encoding="us-ascii" standalone="no"?><svg xmlns="http://www.w3.org/2000/svg" xmlns:xlink="http://www.w3.org/1999/xlink" contentStyleType="text/css" height="950px" preserveAspectRatio="none" style="width:1365px;height:950px;background:#FFFFFF;" version="1.1" viewBox="0 0 1365 950" width="1365px" zoomAndPan="magnify"><defs/><g><g id="PresentarDatos"><rect fill="#90EE90" height="232.4735" rx="12.5" ry="12.5" style="stroke:#008000;stroke-width:1.0;" width="283" x="519.8" y="471"/><line style="stroke:#008000;stroke-width:1.0;" x1="519.8" x2="802.8" y1="497.3441" y2="497.3441"/><text fill="#000000" font-family="Arial" font-size="12" lengthAdjust="spacing" textLength="263" x="529.8" y="488.8281">Sistema presenta datos de edici&#243;n del profesor</text><text fill="#000000" font-family="Arial" font-size="12" lengthAdjust="spacing" textLength="194" x="524.8" y="515.1722">&#8226; C&#243;digo del profesor (solo lectura)</text><text fill="#000000" font-family="Arial" font-size="12" lengthAdjust="spacing" textLength="131" x="524.8" y="531.5163">&#8226; Nombres del profesor</text><text fill="#000000" font-family="Arial" font-size="12" lengthAdjust="spacing" textLength="130" x="524.8" y="547.8604">&#8226; Apellidos del profesor</text><text fill="#000000" font-family="Arial" font-size="12" lengthAdjust="spacing" textLength="112" x="524.8" y="564.2045">&#8226; Correo electr&#243;nico</text><text fill="#000000" font-family="Arial" font-size="12" lengthAdjust="spacing" textLength="57" x="524.8" y="580.5487">&#8226; Tel&#233;fono</text><text fill="#000000" font-family="Arial" font-size="12" lengthAdjust="spacing" textLength="91" x="524.8" y="596.8928">&#8226; Observaciones</text><text fill="#000000" font-family="Arial" font-size="12" lengthAdjust="spacing" textLength="8" x="524.8" y="613.2369">--</text><text fill="#000000" font-family="Arial" font-size="12" lengthAdjust="spacing" textLength="142" x="524.8" y="629.581">Sistema permite solicitar:</text><text fill="#000000" font-family="Arial" font-size="12" lengthAdjust="spacing" textLength="108" x="524.8" y="645.9251">&#8226; Modificar campos</text><text fill="#000000" font-family="Arial" font-size="12" lengthAdjust="spacing" textLength="106" x="524.8" y="662.2692">&#8226; Guardar profesor</text><text fill="#000000" font-family="Arial" font-size="12" lengthAdjust="spacing" textLength="142" x="524.8" y="678.6133">&#8226; Configurar preferencias</text><text fill="#000000" font-family="Arial" font-size="12" lengthAdjust="spacing" textLength="101" x="524.8" y="694.9575">&#8226; Cancelar edici&#243;n</text></g><g id="ValidarActualizar"><rect fill="#90EE90" height="167.097" rx="12.5" ry="12.5" style="stroke:#008000;stroke-width:1.0;" width="228" x="547.3" y="12"/><line style="stroke:#008000;stroke-width:1.0;" x1="547.3" x2="775.3" y1="38.3441" y2="38.3441"/><text fill="#000000" font-family="Arial" font-size="12" lengthAdjust="spacing" textLength="194" x="564.3" y="29.8281">Sistema valida y actualiza profesor</text><text fill="#000000" font-family="Arial" font-size="12" lengthAdjust="spacing" textLength="137" x="552.3" y="56.1722">&#8226; Valida datos completos</text><text fill="#000000" font-family="Arial" font-size="12" lengthAdjust="spacing" textLength="208" x="552.3" y="72.5163">&#8226; Actualiza profesor en base de datos</text><text fill="#000000" font-family="Arial" font-size="12" lengthAdjust="spacing" textLength="208" x="552.3" y="88.8604">&#8226; Presenta confirmaci&#243;n de guardado</text><text fill="#000000" font-family="Arial" font-size="12" lengthAdjust="spacing" textLength="8" x="552.3" y="105.2045">--</text><text fill="#000000" font-family="Arial" font-size="12" lengthAdjust="spacing" textLength="95" x="552.3" y="121.5487">Sistema permite:</text><text fill="#000000" font-family="Arial" font-size="12" lengthAdjust="spacing" textLength="115" x="552.3" y="137.8928">&#8226; Continuar editando</text><text fill="#000000" font-family="Arial" font-size="12" lengthAdjust="spacing" textLength="142" x="552.3" y="154.2369">&#8226; Configurar preferencias</text><text fill="#000000" font-family="Arial" font-size="12" lengthAdjust="spacing" textLength="98" x="552.3" y="170.581">&#8226; Finalizar edici&#243;n</text></g><g id="MostrarError"><rect fill="#90EE90" height="134.4088" rx="12.5" ry="12.5" style="stroke:#008000;stroke-width:1.0;" width="218" x="852.3" y="258"/><line style="stroke:#008000;stroke-width:1.0;" x1="852.3" x2="1070.3" y1="284.3441" y2="284.3441"/><text fill="#000000" font-family="Arial" font-size="12" lengthAdjust="spacing" textLength="198" x="862.3" y="275.8281">Sistema presenta mensaje de error</text><text fill="#000000" font-family="Arial" font-size="12" lengthAdjust="spacing" textLength="164" x="857.3" y="302.1722">&#8226; Mensaje de error espec&#237;fico</text><text fill="#000000" font-family="Arial" font-size="12" lengthAdjust="spacing" textLength="166" x="857.3" y="318.5163">&#8226; Mantiene datos modificados</text><text fill="#000000" font-family="Arial" font-size="12" lengthAdjust="spacing" textLength="8" x="857.3" y="334.8604">--</text><text fill="#000000" font-family="Arial" font-size="12" lengthAdjust="spacing" textLength="95" x="857.3" y="351.2045">Sistema permite:</text><text fill="#000000" font-family="Arial" font-size="12" lengthAdjust="spacing" textLength="89" x="857.3" y="367.5487">&#8226; Corregir datos</text><text fill="#000000" font-family="Arial" font-size="12" lengthAdjust="spacing" textLength="101" x="857.3" y="383.8928">&#8226; Cancelar edici&#243;n</text></g><g id="ConfigurarPreferencias"><rect fill="#90EE90" height="50" rx="12.5" ry="12.5" style="stroke:#008000;stroke-width:1.0;" width="205" x="299.8" y="782"/><line style="stroke:#008000;stroke-width:1.0;" x1="299.8" x2="504.8" y1="808.3441" y2="808.3441"/><text fill="#000000" font-family="Arial" font-size="12" lengthAdjust="spacing" textLength="185" x="309.8" y="799.8281">configurarPreferenciasProfesor()</text></g><ellipse cx="807.3" cy="325" fill="#FFFFFF" rx="10" ry="10" style="stroke:#000000;stroke-width:1.0;"/><ellipse cx="1068.3" cy="807" fill="none" rx="11" ry="11" style="stroke:#000000;stroke-width:1.0;"/><ellipse cx="1068.3" cy="807" fill="#FFFFFF" rx="6" ry="6" style="stroke:#000000;stroke-width:1.0;"/><g id="elem_GMN19"><path d="M172.8,293 L172.8,357.4799 L337.8,357.4799 L337.8,303 L327.8,293 L172.8,293 " fill="#FFFFE0" style="stroke:#FFA500;stroke-width:1.0;"/><path d="M327.8,293 L327.8,303 L337.8,303 L327.8,293 " fill="#FFFFE0" style="stroke:#FFA500;stroke-width:1.0;"/><text fill="#000000" font-family="Verdana" font-size="10" font-weight="bold" lengthAdjust="spacing" textLength="95" x="178.8" y="308.69">Filosof&#237;a "El gordo"</text><text fill="#000000" font-family="Verdana" font-size="10" lengthAdjust="spacing" textLength="133" x="178.8" y="322.31">Edici&#243;n completa con todos</text><text fill="#000000" font-family="Verdana" font-size="10" lengthAdjust="spacing" textLength="115" x="178.8" y="335.93">los campos del profesor</text><text fill="#000000" font-family="Verdana" font-size="10" lengthAdjust="spacing" textLength="144" x="178.8" y="349.55">disponibles para modificaci&#243;n</text></g><g id="elem_GMN22"><path d="M810.3,63.5 L810.3,91.5 L775.55,95.5 L810.3,99.5 L810.3,127.9799 A0,0 0 0 0 810.3,127.9799 L1012.3,127.9799 A0,0 0 0 0 1012.3,127.9799 L1012.3,73.5 L1002.3,63.5 L810.3,63.5 A0,0 0 0 0 810.3,63.5 " fill="#FFFFE0" style="stroke:#FFA500;stroke-width:1.0;"/><path d="M1002.3,63.5 L1002.3,73.5 L1012.3,73.5 L1002.3,63.5 " fill="#FFFFE0" style="stroke:#FFA500;stroke-width:1.0;"/><text fill="#000000" font-family="Verdana" font-size="10" font-weight="bold" lengthAdjust="spacing" textLength="87" x="816.3" y="79.19">Edici&#243;n continua:</text><text fill="#000000" font-family="Verdana" font-size="10" lengthAdjust="spacing" textLength="181" x="816.3" y="92.81">Mantiene estado PROFESOR_ABIERTO</text><text fill="#000000" font-family="Verdana" font-size="10" lengthAdjust="spacing" textLength="163" x="816.3" y="106.43">despu&#233;s de guardar para permitir</text><text fill="#000000" font-family="Verdana" font-size="10" lengthAdjust="spacing" textLength="154" x="816.3" y="120.05">m&#250;ltiples ciclos de modificaci&#243;n</text></g><g id="elem_GMN25"><path d="M312.3,893 L312.3,943.86 A0,0 0 0 0 312.3,943.86 L492.3,943.86 A0,0 0 0 0 492.3,943.86 L492.3,903 L482.3,893 L406.3,893 L402.3,832.03 L398.3,893 L312.3,893 A0,0 0 0 0 312.3,893 " fill="#FFFFE0" style="stroke:#FFA500;stroke-width:1.0;"/><path d="M482.3,893 L482.3,903 L492.3,903 L482.3,893 " fill="#FFFFE0" style="stroke:#FFA500;stroke-width:1.0;"/><text fill="#000000" font-family="Verdana" font-size="10" font-weight="bold" lengthAdjust="spacing" textLength="119" x="318.3" y="908.69">Navegaci&#243;n contextual:</text><text fill="#000000" font-family="Verdana" font-size="10" lengthAdjust="spacing" textLength="142" x="318.3" y="922.31">Acceso directo a preferencias</text><text fill="#000000" font-family="Verdana" font-size="10" lengthAdjust="spacing" textLength="159" x="318.3" y="935.93">sin perder el contexto de edici&#243;n</text></g><!--link *start* to PresentarDatos--><g id="link_*start*_PresentarDatos"><path d="M804.23,334.68 C799.04,348.31 787.42,374.94 770.3,392 C750.85,411.38 733.85,400.89 716.3,422 C704.39,436.32 697.3516,447.7873 689.9916,465.3273 " fill="none" id="*start*-to-PresentarDatos" style="stroke:#000000;stroke-width:1.0;"/><polygon fill="#000000" points="687.67,470.86,694.8408,464.1087,689.6046,466.2495,687.4639,461.0133,687.67,470.86" style="stroke:#000000;stroke-width:1.0;"/><text fill="#000000" font-family="Verdana" font-size="13" lengthAdjust="spacing" textLength="168" x="717.3" y="436.897">Actor solicita editar profesor</text></g><!--link PresentarDatos to ValidarActualizar--><g id="link_PresentarDatos_ValidarActualizar"><path d="M519.53,496.68 C485.64,467.77 453.92,432.53 435.3,392 C410.43,337.88 408.05,310.96 435.3,258 C459.34,211.26 498.7478,178.1481 541.9778,151.9681 " fill="none" id="PresentarDatos-to-ValidarActualizar" style="stroke:#000000;stroke-width:1.0;"/><polygon fill="#000000" points="547.11,148.86,537.3396,150.1006,542.8331,151.4501,541.4837,156.9436,547.11,148.86" style="stroke:#000000;stroke-width:1.0;"/><text fill="#000000" font-family="Verdana" font-size="13" lengthAdjust="spacing" textLength="181" x="436.3" y="330.397">Actor solicita guardar profesor</text></g><!--link ValidarActualizar to PresentarDatos--><g id="link_ValidarActualizar_PresentarDatos"><path d="M661.3,179.26 C661.3,259.27 661.3,375.21 661.3,464.71 " fill="none" id="ValidarActualizar-to-PresentarDatos" style="stroke:#000000;stroke-width:1.0;"/><polygon fill="#000000" points="661.3,470.71,665.3,461.71,661.3,465.71,657.3,461.71,661.3,470.71" style="stroke:#000000;stroke-width:1.0;"/><text fill="#000000" font-family="Verdana" font-size="13" lengthAdjust="spacing" textLength="99" x="662.3" y="330.397">Edici&#243;n continua</text></g><!--link PresentarDatos to ConfigurarPreferencias--><g id="link_PresentarDatos_ConfigurarPreferencias"><path d="M519.48,633.02 C472.83,655.34 426.09,687.54 399.3,733 C390.73,747.53 390.6655,760.7921 393.7455,775.8221 " fill="none" id="PresentarDatos-to-ConfigurarPreferencias" style="stroke:#000000;stroke-width:1.0;"/><polygon fill="#000000" points="394.95,781.7,397.0618,772.0802,393.9462,776.8018,389.2247,773.6862,394.95,781.7" style="stroke:#000000;stroke-width:1.0;"/><text fill="#000000" font-family="Verdana" font-size="13" lengthAdjust="spacing" textLength="217" x="400.3" y="747.897">Actor solicita configurar preferencias</text></g><!--link ConfigurarPreferencias to PresentarDatos--><g id="link_ConfigurarPreferencias_PresentarDatos"><path d="M504.94,791.32 C553.8,782.3 605.26,769.16 622.3,752 C635.7,738.5 642.892,726.9652 649.022,708.7952 " fill="none" id="ConfigurarPreferencias-to-PresentarDatos" style="stroke:#000000;stroke-width:1.0;"/><polygon fill="#000000" points="650.94,703.11,644.2729,710.3591,649.3417,707.8476,651.8531,712.9164,650.94,703.11" style="stroke:#000000;stroke-width:1.0;"/><text fill="#000000" font-family="Verdana" font-size="13" lengthAdjust="spacing" textLength="164" x="636.3" y="747.897">Regreso desde preferencias</text></g><!--link PresentarDatos to *end*--><g id="link_PresentarDatos_*end*"><path d="M788.92,703.12 C813.42,721.35 839.75,738.58 866.3,752 C934.01,786.22 1019.8507,799.7818 1051.2707,803.8918 " fill="none" id="PresentarDatos-to-*end*" style="stroke:#000000;stroke-width:1.0;"/><polygon fill="#000000" points="1057.22,804.67,1048.8148,799.5365,1052.2622,804.0215,1047.7772,807.4689,1057.22,804.67" style="stroke:#000000;stroke-width:1.0;"/><text fill="#000000" font-family="Verdana" font-size="13" lengthAdjust="spacing" textLength="174" x="867.3" y="747.897">Actor solicita cancelar edici&#243;n</text></g><!--link ValidarActualizar to ConfigurarPreferencias--><g id="link_ValidarActualizar_ConfigurarPreferencias"><path d="M547.17,99.39 C430.04,108.94 251.7,142.98 155.3,258 C11,430.15 279.5231,696.2131 370.0831,777.8331 " fill="none" id="ValidarActualizar-to-ConfigurarPreferencias" style="stroke:#000000;stroke-width:1.0;"/><polygon fill="#000000" points="374.54,781.85,370.5326,772.8533,370.8259,778.5025,365.1767,778.7959,374.54,781.85" style="stroke:#000000;stroke-width:1.0;"/><text fill="#000000" font-family="Verdana" font-size="13" lengthAdjust="spacing" textLength="217" x="125.3" y="436.897">Actor solicita configurar preferencias</text></g><!--link ValidarActualizar to *end*--><g id="link_ValidarActualizar_*end*"><path d="M775.62,171.1 C781.5,173.94 787.42,176.6 793.3,179 C918.95,230.33 982.92,172.45 1088.3,258 C1247.15,386.96 1298.01,520.09 1206.3,703 C1178.56,758.32 1111.0285,789.3109 1084.0585,799.9909 " fill="none" id="ValidarActualizar-to-*end*" style="stroke:#000000;stroke-width:1.0;"/><polygon fill="#000000" points="1078.48,802.2,1088.3205,802.6054,1083.1288,800.3591,1085.3751,795.1674,1078.48,802.2" style="stroke:#000000;stroke-width:1.0;"/><text fill="#000000" font-family="Verdana" font-size="13" lengthAdjust="spacing" textLength="122" x="1235.3" y="436.897">Actor finaliza edici&#243;n</text></g><!--link ValidarActualizar to MostrarError--><g id="link_ValidarActualizar_MostrarError"><path d="M770.45,179.28 C804.46,205.07 836.7187,229.5352 869.0487,254.0452 " fill="none" id="ValidarActualizar-to-MostrarError" style="stroke:#000000;stroke-width:1.0;"/><polygon fill="#000000" points="873.83,257.67,869.0746,249.0453,869.8456,254.6493,864.2415,255.4203,873.83,257.67" style="stroke:#000000;stroke-width:1.0;"/><text fill="#000000" font-family="Verdana" font-size="13" lengthAdjust="spacing" textLength="91" x="829.3" y="223.897">Datos inv&#225;lidos</text></g><!--link MostrarError to PresentarDatos--><g id="link_MostrarError_PresentarDatos"><path d="M927.53,392.1 C917,409.17 904.4,426.73 890.3,441 C864.74,466.85 838.7714,487.0159 807.9614,507.1659 " fill="none" id="MostrarError-to-PresentarDatos" style="stroke:#000000;stroke-width:1.0;"/><polygon fill="#000000" points="802.94,510.45,812.6615,508.8715,807.1245,507.7133,808.2828,502.1763,802.94,510.45" style="stroke:#000000;stroke-width:1.0;"/><text fill="#000000" font-family="Verdana" font-size="13" lengthAdjust="spacing" textLength="114" x="905.3" y="436.897">Actor corrige datos</text></g><!--link MostrarError to *end*--><g id="link_MostrarError_*end*"><path d="M1013.62,392.05 C1019.37,401.69 1024.5,411.81 1028.3,422 C1080.59,562.38 1072.4564,744.3431 1069.4464,789.8031 " fill="none" id="MostrarError-to-*end*" style="stroke:#000000;stroke-width:1.0;"/><polygon fill="#000000" points="1069.05,795.79,1073.6359,787.0739,1069.3803,790.8009,1065.6533,786.5454,1069.05,795.79" style="stroke:#000000;stroke-width:1.0;"/><text fill="#000000" font-family="Verdana" font-size="13" lengthAdjust="spacing" textLength="125" x="1072.3" y="592.397">Actor cancela edici&#243;n</text></g><!--link GMN19 to PresentarDatos--><g id="link_GMN19_PresentarDatos"><path d="M285.52,357.18 C310.36,381.77 347.21,415.97 383.3,441 C425.57,470.31 474.51,497.75 519.44,520.69 " fill="none" id="GMN19-PresentarDatos" style="stroke:#000000;stroke-width:1.0;stroke-dasharray:7.0,7.0;"/></g><!--SRC=[fLPBRzD04BxdLomvjKWLZsDKLKf3KY7H9aeh98GGsgp7xb9xnzhT12X2ug_0hOUUUkFgVy8lONPj9twcIDoisNbyyyt3yyHUGm8iZRbK0tCZLSerJvYnt0BxDc3ib8kRIEDQ1HECKRCtChgsPnf0kKVK0UZyePJDKDaBJZx7MlAu45pAMs0lNWw-Ls8et1VY7SGnVcx4c6kk8gZvV4u-1pdSuQKq5XBEKWq6bEKiu1OD2u1188NC7XHzn_IC8HZKGyODMnIw-fNNTNZgeX7xy-CNcsGFWOomPiyE3A5YCGYxrlomn_82anM9QvOzgkEKafO1_fFo1BK6PE32QqfD2kpHl88ukmjHzRtFLmRqXWk92ao7pj5HXt3BDUX44lb41L5CxwEUAESOo50AhfdWIOgcH-ripNL0Iezchq8P4UrE4qBGe8JaVKudN0c8IRViWuwcsN2YdhElZ5CvwVkMrnlbhN_Nu_9L-rvfIVE0kRZeFu596eFrAVVeZrin6IYsuWPSztet_SPbnXI8ID49BrkTHPxC0BjjVLqxv8tIZleZKnMiLEkSMCjLNwJz5Uinc4bL4BsdQjjHJq0P_idJ1LeNDJj7OodWr0bykQg2eYqRTWnC2YAx3_DvwZ3Wb3EeeYeiATewy1Mggtk2ww8ERjiX_6X7KcyBtw6ofwF5bkb5XUX5qLW7XvwQIQVIOF3-wGV2VTBSYoFNeiHEEUPvmIjZsj1tBjeJq_8IDQUzmqqtqhOlqTDW7IvTactx5gNj13gPcPO_5r6CGu_X_oRIxRMQIrYCp6CfrEPYnF94fDfaF_tlPr1xtzCDWXfLHkM2QbbLeHNixf3riD4PRGaHYTpVrz2SraWP-3F2OiemR1ZIu1olJcOoHeDXTi_PS1gpYCu971u_MvtGSwLoVaLxxibPFionszt-NzNy7mVIfAZaAgR_kZjcjbiWJmrKuA-R0fnszuo3rof6Zh3LFwC2tdRL04rsW6ondC-cb_Fbn_7fw-doQkwGqBfQPtTcj-rrZYXVCDA5IBBViPMf0okaYFEBQ2_Y5LgBYOFSioOyxWk-WOZleCCNbrS9VYo4BvdKTA0WuysjRwHo8EcsenkcjCVgiRP3zHS0]--></g></svg>