<?xml version="1.0" encoding="us-ascii" standalone="no"?><svg xmlns="http://www.w3.org/2000/svg" xmlns:xlink="http://www.w3.org/1999/xlink" contentStyleType="text/css" height="245px" preserveAspectRatio="none" style="width:327px;height:245px;background:#FFFFFF;" version="1.1" viewBox="0 0 327 245" width="327px" zoomAndPan="magnify"><defs/><g><text fill="#000000" font-family="sans-serif" font-size="12" font-weight="bold" lengthAdjust="spacing" textLength="140" x="6" y="18.8281">GESTI&#211;N DE EDIFICIOS</text><line style="stroke:#AAAAAA;stroke-width:1.0;" x1="6" x2="320" y1="26.8441" y2="26.8441"/><line style="stroke:#AAAAAA;stroke-width:1.0;" x1="6" x2="320" y1="28.8441" y2="28.8441"/><text fill="#000000" font-family="sans-serif" font-size="12" lengthAdjust="spacing" textLength="13" x="7" y="46.1722">ID</text><text fill="#000000" font-family="sans-serif" font-size="12" lengthAdjust="spacing" textLength="51" x="30" y="46.1722">NOMBRE</text><text fill="#000000" font-family="sans-serif" font-size="12" lengthAdjust="spacing" textLength="46" x="176" y="46.1722">ACCI&#211;N</text><line style="stroke:#AAAAAA;stroke-width:1.0;" x1="7" x2="29" y1="55.1882" y2="55.1882"/><line style="stroke:#AAAAAA;stroke-width:1.0;" x1="30" x2="175" y1="55.1882" y2="55.1882"/><line style="stroke:#AAAAAA;stroke-width:1.0;" x1="176" x2="234" y1="55.1882" y2="55.1882"/><text fill="#000000" font-family="sans-serif" font-size="12" lengthAdjust="spacing" textLength="21" x="7" y="72.5163">001</text><text fill="#000000" font-family="sans-serif" font-size="12" lengthAdjust="spacing" textLength="91" x="30" y="72.5163">Edificio Principal</text><rect fill="#EEEEEE" height="20.3441" rx="5" ry="5" style="stroke:#000000;stroke-width:2.5;" width="52" x="178.5" y="62.1882"/><text fill="#000000" font-family="sans-serif" font-size="12" lengthAdjust="spacing" textLength="33" x="188" y="77.0163">Editar</text><text fill="#000000" font-family="sans-serif" font-size="12" lengthAdjust="spacing" textLength="21" x="7" y="99.8604">002</text><text fill="#000000" font-family="sans-serif" font-size="12" lengthAdjust="spacing" textLength="91" x="30" y="99.8604">Edificio de Aulas</text><rect fill="#EEEEEE" height="20.3441" rx="5" ry="5" style="stroke:#000000;stroke-width:2.5;" width="52" x="178.5" y="89.5323"/><text fill="#000000" font-family="sans-serif" font-size="12" lengthAdjust="spacing" textLength="33" x="188" y="104.3604">Editar</text><text fill="#000000" font-family="sans-serif" font-size="12" lengthAdjust="spacing" textLength="21" x="7" y="127.2045">003</text><text fill="#000000" font-family="sans-serif" font-size="12" lengthAdjust="spacing" textLength="131" x="30" y="127.2045">Edificio de Laboratorios</text><rect fill="#EEEEEE" height="20.3441" rx="5" ry="5" style="stroke:#000000;stroke-width:2.5;" width="52" x="178.5" y="116.8765"/><text fill="#000000" font-family="sans-serif" font-size="12" lengthAdjust="spacing" textLength="33" x="188" y="131.7045">Editar</text><text fill="#000000" font-family="sans-serif" font-size="12" lengthAdjust="spacing" textLength="21" x="7" y="154.5487">004</text><text fill="#000000" font-family="sans-serif" font-size="12" lengthAdjust="spacing" textLength="144" x="30" y="154.5487">Edificio de Administraci&#243;n</text><rect fill="#EEEEEE" height="20.3441" rx="5" ry="5" style="stroke:#000000;stroke-width:2.5;" width="52" x="178.5" y="144.2206"/><text fill="#000000" font-family="sans-serif" font-size="12" lengthAdjust="spacing" textLength="33" x="188" y="159.0487">Editar</text><line style="stroke:#000000;stroke-width:1.0;" x1="6" x2="29" y1="32.3441" y2="32.3441"/><line style="stroke:#000000;stroke-width:1.0;" x1="29" x2="175" y1="32.3441" y2="32.3441"/><line style="stroke:#000000;stroke-width:1.0;" x1="175" x2="234" y1="32.3441" y2="32.3441"/><line style="stroke:#000000;stroke-width:1.0;" x1="6" x2="29" y1="168.0647" y2="168.0647"/><line style="stroke:#000000;stroke-width:1.0;" x1="29" x2="175" y1="168.0647" y2="168.0647"/><line style="stroke:#000000;stroke-width:1.0;" x1="175" x2="234" y1="168.0647" y2="168.0647"/><line style="stroke:#000000;stroke-width:1.0;" x1="6" x2="6" y1="32.3441" y2="50.6882"/><line style="stroke:#000000;stroke-width:1.0;" x1="234" x2="234" y1="86.0323" y2="113.3765"/><line style="stroke:#000000;stroke-width:1.0;" x1="234" x2="234" y1="58.6882" y2="86.0323"/><line style="stroke:#000000;stroke-width:1.0;" x1="234" x2="234" y1="50.6882" y2="58.6882"/><line style="stroke:#000000;stroke-width:1.0;" x1="234" x2="234" y1="32.3441" y2="50.6882"/><line style="stroke:#000000;stroke-width:1.0;" x1="6" x2="6" y1="140.7206" y2="168.0647"/><line style="stroke:#000000;stroke-width:1.0;" x1="6" x2="6" y1="113.3765" y2="140.7206"/><line style="stroke:#000000;stroke-width:1.0;" x1="6" x2="6" y1="86.0323" y2="113.3765"/><line style="stroke:#000000;stroke-width:1.0;" x1="6" x2="6" y1="58.6882" y2="86.0323"/><line style="stroke:#000000;stroke-width:1.0;" x1="234" x2="234" y1="140.7206" y2="168.0647"/><line style="stroke:#000000;stroke-width:1.0;" x1="6" x2="6" y1="50.6882" y2="58.6882"/><line style="stroke:#000000;stroke-width:1.0;" x1="234" x2="234" y1="113.3765" y2="140.7206"/><line style="stroke:#AAAAAA;stroke-width:1.5;" x1="6" x2="320" y1="173.5647" y2="173.5647"/><text fill="#000000" font-family="sans-serif" font-size="12" font-weight="bold" lengthAdjust="spacing" textLength="51" x="7" y="191.8928">BUSCAR:</text><text fill="#000000" font-family="sans-serif" font-size="12" lengthAdjust="spacing" textLength="125" x="61" y="191.8928">[                                       ]</text><rect fill="#EEEEEE" height="20.3441" rx="5" ry="5" style="stroke:#000000;stroke-width:2.5;" width="60" x="190.5" y="181.5647"/><text fill="#000000" font-family="sans-serif" font-size="12" lengthAdjust="spacing" textLength="33" x="204" y="196.3928">Filtrar</text><line style="stroke:#AAAAAA;stroke-width:1.5;" x1="6" x2="320" y1="210.9088" y2="210.9088"/><rect fill="#EEEEEE" height="20.3441" rx="5" ry="5" style="stroke:#000000;stroke-width:2.5;" width="92" x="9.5" y="218.9088"/><text fill="#000000" font-family="sans-serif" font-size="12" lengthAdjust="spacing" textLength="69" x="21" y="233.7369">Crear nuevo</text><rect fill="#EEEEEE" height="20.3441" rx="5" ry="5" style="stroke:#000000;stroke-width:2.5;" width="156" x="108.5" y="218.9088"/><text fill="#000000" font-family="sans-serif" font-size="12" lengthAdjust="spacing" textLength="113" x="130" y="233.7369">Borrar seleccionado</text><rect fill="#EEEEEE" height="20.3441" rx="5" ry="5" style="stroke:#000000;stroke-width:2.5;" width="44" x="271.5" y="218.9088"/><text fill="#000000" font-family="sans-serif" font-size="12" lengthAdjust="spacing" textLength="25" x="281" y="233.7369">Salir</text><!--SRC=[ZPB1JkCm48RlVeevWbPXqr1MAAA8Dd5HkYsjcfPBrSCaSOkbr45Z9mWLU0aUPH-15zj9LuZTdjQohT7ucz_poxwn3ibPB1rWHffaeJSwrvNrdZIf3U5EYJs8g-pwLgQBvEFz3c89Caw6IPHCqwllsJM0wFLwOlyD88dX1Uwcay5SSj2FehP007ZUos5owFiTFlgy1cQaJQuViUJaYhFSpVf01NzJXO9-NQ8zXiwFe35c5Q6hY0qSizrZmMAdZRQECDSVlyo_-2kljpVUzknyi4oZ_ZmyU5t1_urrgpVK9SlJ-ajj5P520bEhfZeWWugO0AjAbNDZ1ei_-HHBtHQ-2d6ZJD4-a12p4erRJiRGAB8CG-Siy8FksVd9ug66eSgWSm617tRzqB-0I2wWFJuL9xUpSHE0hMhA5HIjQPtLZXLEnGWRX7bjdDwf4AQFoepYdvy9aARHL9cTCawCxYTVm8-kDz0EKaNS2znFHAmsMFClaYQl2css8ImNG-zIZD5iQzoojh8YgbYNdaEGwMy0]--></g></svg>