<?xml version="1.0" encoding="us-ascii" standalone="no"?><svg xmlns="http://www.w3.org/2000/svg" xmlns:xlink="http://www.w3.org/1999/xlink" contentStyleType="text/css" height="678px" preserveAspectRatio="none" style="width:474px;height:678px;background:#FFFFFF;" version="1.1" viewBox="0 0 474 678" width="474px" zoomAndPan="magnify"><defs/><g><path d="M19.5,7 L394.5,7 A12.5,12.5 0 0 1 407,19.5 L407,36.0679 L7,36.0679 L7,19.5 A12.5,12.5 0 0 1 19.5,7 " fill="#F1F1F1" style="stroke:#F1F1F1;stroke-width:1.0;"/><rect fill="none" height="518.0679" rx="12.5" ry="12.5" style="stroke:#181818;stroke-width:0.5;" width="400" x="7" y="7"/><line style="stroke:#181818;stroke-width:0.5;" x1="7" x2="407" y1="36.0679" y2="36.0679"/><text fill="#000000" font-family="sans-serif" font-size="14" lengthAdjust="spacing" textLength="130" x="142" y="26.9659">eliminarPrograma()</text><g id="eliminarPrograma.ConfirmandoEliminacion"><rect fill="#F1F1F1" height="50" rx="12.5" ry="12.5" style="stroke:#181818;stroke-width:0.5;" width="50" x="19" y="140.0679"/><line style="stroke:#181818;stroke-width:0.5;" x1="19" x2="69" y1="169.1358" y2="169.1358"/><text fill="#000000" font-family="sans-serif" font-size="14" lengthAdjust="spacing" textLength="4" x="42" y="160.0339">&#160;</text></g><g id="eliminarPrograma.EliminandoPrograma"><rect fill="#F1F1F1" height="50" rx="12.5" ry="12.5" style="stroke:#181818;stroke-width:0.5;" width="50" x="19" y="334.0679"/><line style="stroke:#181818;stroke-width:0.5;" x1="19" x2="69" y1="363.1358" y2="363.1358"/><text fill="#000000" font-family="sans-serif" font-size="14" lengthAdjust="spacing" textLength="4" x="42" y="354.0339">&#160;</text></g><ellipse cx="44" cy="57.0679" fill="#222222" rx="10" ry="10" style="stroke:#222222;stroke-width:1.0;"/><ellipse cx="44" cy="504.0679" fill="none" rx="11" ry="11" style="stroke:#222222;stroke-width:1.0;"/><ellipse cx="44" cy="504.0679" fill="#222222" rx="6" ry="6" style="stroke:#222222;stroke-width:1.0;"/><!--link *start*eliminarPrograma to ConfirmandoEliminacion--><g id="link_*start*eliminarPrograma_ConfirmandoEliminacion"><path d="M44,67.1079 C44,83.0279 44,110.5779 44,133.7079 " fill="none" id="*start*eliminarPrograma-to-ConfirmandoEliminacion" style="stroke:#008000;stroke-width:1.0;"/><polygon fill="#008000" points="44,139.7079,48,130.7079,44,134.7079,40,130.7079,44,139.7079" style="stroke:#008000;stroke-width:1.0;"/><path d="M49,90.0679 L49,117.0679 L323,117.0679 L323,100.0679 L313,90.0679 L49,90.0679 " fill="#FEFFDD" style="stroke:#181818;stroke-width:0.5;"/><path d="M313,90.0679 L313,100.0679 L323,100.0679 L313,90.0679 " fill="#FEFFDD" style="stroke:#181818;stroke-width:0.5;"/><text fill="#000000" font-family="sans-serif" font-size="13" font-weight="bold" lengthAdjust="spacing" textLength="95" x="55" y="108.9649">Administrador</text><text fill="#000000" font-family="sans-serif" font-size="13" lengthAdjust="spacing" textLength="155" x="153" y="108.9649">solicita eliminar programa</text></g><!--link ConfirmandoEliminacion to EliminandoPrograma--><g id="link_ConfirmandoEliminacion_EliminandoPrograma"><path d="M44,190.3879 C44,227.3179 44,291.1379 44,327.9479 " fill="none" id="ConfirmandoEliminacion-to-EliminandoPrograma" style="stroke:#008000;stroke-width:1.0;"/><polygon fill="#008000" points="44,333.9479,48,324.9479,44,328.9479,40,324.9479,44,333.9479" style="stroke:#008000;stroke-width:1.0;"/><path d="M49,213.0679 L49,311.0679 L398,311.0679 L398,223.0679 L388,213.0679 L49,213.0679 " fill="#FEFFDD" style="stroke:#181818;stroke-width:0.5;"/><path d="M388,213.0679 L388,223.0679 L398,223.0679 L388,213.0679 " fill="#FEFFDD" style="stroke:#181818;stroke-width:0.5;"/><text fill="#000000" font-family="sans-serif" font-size="13" font-weight="bold" lengthAdjust="spacing" textLength="52" x="55" y="231.9649">Sistema</text><text fill="#000000" font-family="sans-serif" font-size="13" lengthAdjust="spacing" textLength="273" x="110" y="231.9649">presenta informaci&#243;n del programa a eliminar</text><text fill="#000000" font-family="sans-serif" font-size="13" lengthAdjust="spacing" textLength="263" x="55" y="249.6709">&#8226; C&#243;digo, nombre, descripci&#243;n del programa</text><text fill="#000000" font-family="sans-serif" font-size="13" lengthAdjust="spacing" textLength="223" x="55" y="267.377">&#8226; Presenta advertencia de eliminaci&#243;n</text><text fill="#000000" font-family="sans-serif" font-size="13" lengthAdjust="spacing" textLength="236" x="55" y="285.083">&#8226; Permite solicitar confirmar eliminaci&#243;n</text><text fill="#000000" font-family="sans-serif" font-size="13" lengthAdjust="spacing" textLength="227" x="55" y="302.789">&#8226; Permite solicitar cancelar eliminaci&#243;n</text></g><!--link EliminandoPrograma to *end*eliminarPrograma--><g id="link_EliminandoPrograma_*end*eliminarPrograma"><path d="M44,384.3279 C44,416.0379 44,464.1979 44,486.7479 " fill="none" id="EliminandoPrograma-to-*end*eliminarPrograma" style="stroke:#008000;stroke-width:1.0;"/><polygon fill="#008000" points="44,492.7479,48,483.7479,44,487.7479,40,483.7479,44,492.7479" style="stroke:#008000;stroke-width:1.0;"/><path d="M49,407.0679 L49,470.0679 L379,470.0679 L379,417.0679 L369,407.0679 L49,407.0679 " fill="#FEFFDD" style="stroke:#181818;stroke-width:0.5;"/><path d="M369,407.0679 L369,417.0679 L379,417.0679 L369,407.0679 " fill="#FEFFDD" style="stroke:#181818;stroke-width:0.5;"/><text fill="#000000" font-family="sans-serif" font-size="13" font-weight="bold" lengthAdjust="spacing" textLength="95" x="55" y="425.9649">Administrador</text><text fill="#000000" font-family="sans-serif" font-size="13" lengthAdjust="spacing" textLength="211" x="153" y="425.9649">solicita confirmaci&#243;n de eliminaci&#243;n</text><text fill="#000000" font-family="sans-serif" font-size="13" font-weight="bold" lengthAdjust="spacing" textLength="52" x="55" y="443.6709">Sistema</text><text fill="#000000" font-family="sans-serif" font-size="13" lengthAdjust="spacing" textLength="228" x="110" y="443.6709">permite solicitar confirmar eliminaci&#243;n</text><text fill="#000000" font-family="sans-serif" font-size="13" font-weight="bold" lengthAdjust="spacing" textLength="95" x="55" y="461.377">Administrador</text><text fill="#000000" font-family="sans-serif" font-size="13" lengthAdjust="spacing" textLength="173" x="153" y="461.377">solicita confirmar eliminaci&#243;n</text></g><g id="PROGRAMAS_ABIERTO"><rect fill="#F1F1F1" height="50" rx="12.5" ry="12.5" style="stroke:#181818;stroke-width:0.5;" width="171" x="121.5" y="622"/><line style="stroke:#181818;stroke-width:0.5;" x1="121.5" x2="292.5" y1="651.0679" y2="651.0679"/><text fill="#000000" font-family="sans-serif" font-size="14" lengthAdjust="spacing" textLength="151" x="131.5" y="641.9659">PROGRAMAS_ABIERTO</text></g><!--link eliminarPrograma to PROGRAMAS_ABIERTO--><g id="link_eliminarPrograma_PROGRAMAS_ABIERTO"><path d="M68,525.26 C58.15,543.57 52,555 52,555 C52,555 52,592 52,592 C52,592 90.7237,605.497 131.9937,619.867 " fill="none" id="eliminarPrograma-to-PROGRAMAS_ABIERTO" style="stroke:#008000;stroke-width:1.0;"/><polygon fill="#008000" points="137.66,621.84,130.4758,615.103,132.9381,620.1958,127.8452,622.6581,137.66,621.84" style="stroke:#008000;stroke-width:1.0;"/><path d="M57,560 L57,587 L312,587 L312,570 L302,560 L57,560 " fill="#FEFFDD" style="stroke:#181818;stroke-width:0.5;"/><path d="M302,560 L302,570 L312,570 L302,560 " fill="#FEFFDD" style="stroke:#181818;stroke-width:0.5;"/><text fill="#000000" font-family="sans-serif" font-size="13" lengthAdjust="spacing" textLength="234" x="63" y="578.897">abrirProgramas() - programa eliminado</text></g><!--link eliminarPrograma to PROGRAMAS_ABIERTO--><g id="link_eliminarPrograma_PROGRAMAS_ABIERTO"><path d="M309.23,525.26 C316.48,543.57 321,555 321,555 C321,555 321,592 321,592 C321,592 293.7729,604.9024 263.4229,619.2724 " fill="none" id="eliminarPrograma-to-PROGRAMAS_ABIERTO-1" style="stroke:#0000FF;stroke-width:1.0;"/><polygon fill="#0000FF" points="258,621.84,267.846,621.6038,262.5191,619.7003,264.4226,614.3734,258,621.84" style="stroke:#0000FF;stroke-width:1.0;"/><path d="M326,560 L326,587 L467,587 L467,570 L457,560 L326,560 " fill="#FEFFDD" style="stroke:#181818;stroke-width:0.5;"/><path d="M457,560 L457,570 L467,570 L457,560 " fill="#FEFFDD" style="stroke:#181818;stroke-width:0.5;"/><text fill="#000000" font-family="sans-serif" font-size="13" lengthAdjust="spacing" textLength="120" x="332" y="578.897">cancelar eliminaci&#243;n</text></g><!--SRC=[dLDTQi9047xVKmpsHOlI2uYGYfG-54Nx9b8ssL46azsmcnQa57gMNi4ZU9EUf6FY9cfYiTr08CdtDzzkt9fqAgrC82QDsIP5I4sysJy8uJAP8M1C2Mbf9zQi62X1EcYTlsntMl0k1F0gM2s-63WqUaasaLgPKK69oEWwxl2HOLwn49lVBg0tlrbPHBte3IxeGOxLXlNuWSElynVzS10enf3Bh5J6zk_20JWJKqIPBEU2r3lkEQXL8SHBbBSBjiV96YQu56h6WJ2HUPpKeaFDSKWl3Jj4jDjgK1YNiQ2AcWjyVtx1SBTLj39Tbaz2YrqckCXIMcUNb8atakeDROOw8ib8hvqpAp3QX3YuByj2T6Z0NasGEiAu2UyhhkgjTtTIBH-2_somZ-nBgISvtuk_J7sTzs_ZVmXH-xUEnvvCnm_Ju2cOlGJtZwFfyrYS5213IoNHjJlGguxCGLSPKRerUeNnArvXrRoNfVGF]--></g></svg>