<?xml version="1.0" encoding="us-ascii" standalone="no"?><svg xmlns="http://www.w3.org/2000/svg" xmlns:xlink="http://www.w3.org/1999/xlink" contentStyleType="text/css" height="447px" preserveAspectRatio="none" style="width:399px;height:447px;background:#FFFFFF;" version="1.1" viewBox="0 0 399 447" width="399px" zoomAndPan="magnify"><defs/><g><!--cluster CampusUniversitario--><g id="cluster_CampusUniversitario"><path d="M8.5,211 L155.5,211 A3.75,3.75 0 0 1 158,213.5 L165,236.0679 L165.5,236.0679 A2.5,2.5 0 0 1 168,238.5679 L168,437.5 A2.5,2.5 0 0 1 165.5,440 L8.5,440 A2.5,2.5 0 0 1 6,437.5 L6,213.5 A2.5,2.5 0 0 1 8.5,211 " fill="none" style="stroke:#000000;stroke-width:1.5;"/><line style="stroke:#000000;stroke-width:1.5;" x1="6" x2="165" y1="236.0679" y2="236.0679"/><text fill="#000000" font-family="sans-serif" font-size="14" font-weight="bold" lengthAdjust="spacing" textLength="146" x="10" y="227.9659">CampusUniversitario</text></g><!--class Edificio--><g id="elem_Edificio"><rect fill="#F1F1F1" height="48" id="Edificio" rx="2.5" ry="2.5" style="stroke:#181818;stroke-width:0.5;" width="81" x="68.5" y="376"/><ellipse cx="83.5" cy="392" fill="#ADD1B2" rx="11" ry="11" style="stroke:#181818;stroke-width:1.0;"/><path d="M86.4688,397.6406 Q85.8906,397.9375 85.25,398.0781 Q84.6094,398.2344 83.9063,398.2344 Q81.4063,398.2344 80.0781,396.5938 Q78.7656,394.9375 78.7656,391.8125 Q78.7656,388.6875 80.0781,387.0313 Q81.4063,385.375 83.9063,385.375 Q84.6094,385.375 85.25,385.5313 Q85.9063,385.6875 86.4688,385.9844 L86.4688,388.7031 Q85.8438,388.125 85.25,387.8594 Q84.6563,387.5781 84.0313,387.5781 Q82.6875,387.5781 82,388.6563 Q81.3125,389.7188 81.3125,391.8125 Q81.3125,393.9063 82,394.9844 Q82.6875,396.0469 84.0313,396.0469 Q84.6563,396.0469 85.25,395.7813 Q85.8438,395.5 86.4688,394.9219 L86.4688,397.6406 Z " fill="#000000"/><text fill="#000000" font-family="sans-serif" font-size="14" lengthAdjust="spacing" textLength="49" x="97.5" y="397.432">Edificio</text><line style="stroke:#181818;stroke-width:0.5;" x1="69.5" x2="148.5" y1="408" y2="408"/><line style="stroke:#181818;stroke-width:0.5;" x1="69.5" x2="148.5" y1="416" y2="416"/></g><!--class Aula--><g id="elem_Aula"><rect fill="#F1F1F1" height="48" id="Aula" rx="2.5" ry="2.5" style="stroke:#181818;stroke-width:0.5;" width="62" x="83" y="249"/><ellipse cx="98" cy="265" fill="#ADD1B2" rx="11" ry="11" style="stroke:#181818;stroke-width:1.0;"/><path d="M100.9688,270.6406 Q100.3906,270.9375 99.75,271.0781 Q99.1094,271.2344 98.4063,271.2344 Q95.9063,271.2344 94.5781,269.5938 Q93.2656,267.9375 93.2656,264.8125 Q93.2656,261.6875 94.5781,260.0313 Q95.9063,258.375 98.4063,258.375 Q99.1094,258.375 99.75,258.5313 Q100.4063,258.6875 100.9688,258.9844 L100.9688,261.7031 Q100.3438,261.125 99.75,260.8594 Q99.1563,260.5781 98.5313,260.5781 Q97.1875,260.5781 96.5,261.6563 Q95.8125,262.7188 95.8125,264.8125 Q95.8125,266.9063 96.5,267.9844 Q97.1875,269.0469 98.5313,269.0469 Q99.1563,269.0469 99.75,268.7813 Q100.3438,268.5 100.9688,267.9219 L100.9688,270.6406 Z " fill="#000000"/><text fill="#000000" font-family="sans-serif" font-size="14" lengthAdjust="spacing" textLength="30" x="112" y="270.432">Aula</text><line style="stroke:#181818;stroke-width:0.5;" x1="84" x2="144" y1="281" y2="281"/><line style="stroke:#181818;stroke-width:0.5;" x1="84" x2="144" y1="289" y2="289"/></g><!--class Profesor--><g id="elem_Profesor"><rect fill="#F1F1F1" height="48" id="Profesor" rx="2.5" ry="2.5" style="stroke:#181818;stroke-width:0.5;" width="88" x="185" y="249"/><ellipse cx="200" cy="265" fill="#ADD1B2" rx="11" ry="11" style="stroke:#181818;stroke-width:1.0;"/><path d="M202.9688,270.6406 Q202.3906,270.9375 201.75,271.0781 Q201.1094,271.2344 200.4063,271.2344 Q197.9063,271.2344 196.5781,269.5938 Q195.2656,267.9375 195.2656,264.8125 Q195.2656,261.6875 196.5781,260.0313 Q197.9063,258.375 200.4063,258.375 Q201.1094,258.375 201.75,258.5313 Q202.4063,258.6875 202.9688,258.9844 L202.9688,261.7031 Q202.3438,261.125 201.75,260.8594 Q201.1563,260.5781 200.5313,260.5781 Q199.1875,260.5781 198.5,261.6563 Q197.8125,262.7188 197.8125,264.8125 Q197.8125,266.9063 198.5,267.9844 Q199.1875,269.0469 200.5313,269.0469 Q201.1563,269.0469 201.75,268.7813 Q202.3438,268.5 202.9688,267.9219 L202.9688,270.6406 Z " fill="#000000"/><text fill="#000000" font-family="sans-serif" font-size="14" lengthAdjust="spacing" textLength="56" x="214" y="270.432">Profesor</text><line style="stroke:#181818;stroke-width:0.5;" x1="186" x2="272" y1="281" y2="281"/><line style="stroke:#181818;stroke-width:0.5;" x1="186" x2="272" y1="289" y2="289"/></g><!--class Curso--><g id="elem_Curso"><rect fill="#F1F1F1" height="48" id="Curso" rx="2.5" ry="2.5" style="stroke:#181818;stroke-width:0.5;" width="71" x="219.5" y="7"/><ellipse cx="234.5" cy="23" fill="#ADD1B2" rx="11" ry="11" style="stroke:#181818;stroke-width:1.0;"/><path d="M237.4688,28.6406 Q236.8906,28.9375 236.25,29.0781 Q235.6094,29.2344 234.9063,29.2344 Q232.4063,29.2344 231.0781,27.5938 Q229.7656,25.9375 229.7656,22.8125 Q229.7656,19.6875 231.0781,18.0313 Q232.4063,16.375 234.9063,16.375 Q235.6094,16.375 236.25,16.5313 Q236.9063,16.6875 237.4688,16.9844 L237.4688,19.7031 Q236.8438,19.125 236.25,18.8594 Q235.6563,18.5781 235.0313,18.5781 Q233.6875,18.5781 233,19.6563 Q232.3125,20.7188 232.3125,22.8125 Q232.3125,24.9063 233,25.9844 Q233.6875,27.0469 235.0313,27.0469 Q235.6563,27.0469 236.25,26.7813 Q236.8438,26.5 237.4688,25.9219 L237.4688,28.6406 Z " fill="#000000"/><text fill="#000000" font-family="sans-serif" font-size="14" lengthAdjust="spacing" textLength="39" x="248.5" y="28.432">Curso</text><line style="stroke:#181818;stroke-width:0.5;" x1="220.5" x2="289.5" y1="39" y2="39"/><line style="stroke:#181818;stroke-width:0.5;" x1="220.5" x2="289.5" y1="47" y2="47"/></g><!--class Programa--><g id="elem_Programa"><rect fill="#F1F1F1" height="48" id="Programa" rx="2.5" ry="2.5" style="stroke:#181818;stroke-width:0.5;" width="98" x="86" y="7"/><ellipse cx="101" cy="23" fill="#ADD1B2" rx="11" ry="11" style="stroke:#181818;stroke-width:1.0;"/><path d="M103.9688,28.6406 Q103.3906,28.9375 102.75,29.0781 Q102.1094,29.2344 101.4063,29.2344 Q98.9063,29.2344 97.5781,27.5938 Q96.2656,25.9375 96.2656,22.8125 Q96.2656,19.6875 97.5781,18.0313 Q98.9063,16.375 101.4063,16.375 Q102.1094,16.375 102.75,16.5313 Q103.4063,16.6875 103.9688,16.9844 L103.9688,19.7031 Q103.3438,19.125 102.75,18.8594 Q102.1563,18.5781 101.5313,18.5781 Q100.1875,18.5781 99.5,19.6563 Q98.8125,20.7188 98.8125,22.8125 Q98.8125,24.9063 99.5,25.9844 Q100.1875,27.0469 101.5313,27.0469 Q102.1563,27.0469 102.75,26.7813 Q103.3438,26.5 103.9688,25.9219 L103.9688,28.6406 Z " fill="#000000"/><text fill="#000000" font-family="sans-serif" font-size="14" lengthAdjust="spacing" textLength="66" x="115" y="28.432">Programa</text><line style="stroke:#181818;stroke-width:0.5;" x1="87" x2="183" y1="39" y2="39"/><line style="stroke:#181818;stroke-width:0.5;" x1="87" x2="183" y1="47" y2="47"/></g><!--class Horario--><g id="elem_Horario"><rect fill="#F1F1F1" height="48" id="Horario" rx="2.5" ry="2.5" style="stroke:#181818;stroke-width:0.5;" width="82" x="73" y="116"/><ellipse cx="88" cy="132" fill="#ADD1B2" rx="11" ry="11" style="stroke:#181818;stroke-width:1.0;"/><path d="M90.9688,137.6406 Q90.3906,137.9375 89.75,138.0781 Q89.1094,138.2344 88.4063,138.2344 Q85.9063,138.2344 84.5781,136.5938 Q83.2656,134.9375 83.2656,131.8125 Q83.2656,128.6875 84.5781,127.0313 Q85.9063,125.375 88.4063,125.375 Q89.1094,125.375 89.75,125.5313 Q90.4063,125.6875 90.9688,125.9844 L90.9688,128.7031 Q90.3438,128.125 89.75,127.8594 Q89.1563,127.5781 88.5313,127.5781 Q87.1875,127.5781 86.5,128.6563 Q85.8125,129.7188 85.8125,131.8125 Q85.8125,133.9063 86.5,134.9844 Q87.1875,136.0469 88.5313,136.0469 Q89.1563,136.0469 89.75,135.7813 Q90.3438,135.5 90.9688,134.9219 L90.9688,137.6406 Z " fill="#000000"/><text fill="#000000" font-family="sans-serif" font-size="14" lengthAdjust="spacing" textLength="50" x="102" y="137.432">Horario</text><line style="stroke:#181818;stroke-width:0.5;" x1="74" x2="154" y1="148" y2="148"/><line style="stroke:#181818;stroke-width:0.5;" x1="74" x2="154" y1="156" y2="156"/></g><!--class Recurso--><g id="elem_Recurso"><rect fill="#F1F1F1" height="48" id="Recurso" rx="2.5" ry="2.5" style="stroke:#181818;stroke-width:0.5;" width="86" x="186" y="376"/><ellipse cx="201" cy="392" fill="#ADD1B2" rx="11" ry="11" style="stroke:#181818;stroke-width:1.0;"/><path d="M203.9688,397.6406 Q203.3906,397.9375 202.75,398.0781 Q202.1094,398.2344 201.4063,398.2344 Q198.9063,398.2344 197.5781,396.5938 Q196.2656,394.9375 196.2656,391.8125 Q196.2656,388.6875 197.5781,387.0313 Q198.9063,385.375 201.4063,385.375 Q202.1094,385.375 202.75,385.5313 Q203.4063,385.6875 203.9688,385.9844 L203.9688,388.7031 Q203.3438,388.125 202.75,387.8594 Q202.1563,387.5781 201.5313,387.5781 Q200.1875,387.5781 199.5,388.6563 Q198.8125,389.7188 198.8125,391.8125 Q198.8125,393.9063 199.5,394.9844 Q200.1875,396.0469 201.5313,396.0469 Q202.1563,396.0469 202.75,395.7813 Q203.3438,395.5 203.9688,394.9219 L203.9688,397.6406 Z " fill="#000000"/><text fill="#000000" font-family="sans-serif" font-size="14" lengthAdjust="spacing" textLength="54" x="215" y="397.432">Recurso</text><line style="stroke:#181818;stroke-width:0.5;" x1="187" x2="271" y1="408" y2="408"/><line style="stroke:#181818;stroke-width:0.5;" x1="187" x2="271" y1="416" y2="416"/></g><!--class BloqueHorario--><g id="elem_BloqueHorario"><rect fill="#F1F1F1" height="48" id="BloqueHorario" rx="2.5" ry="2.5" style="stroke:#181818;stroke-width:0.5;" width="129" x="190.5" y="116"/><ellipse cx="205.5" cy="132" fill="#ADD1B2" rx="11" ry="11" style="stroke:#181818;stroke-width:1.0;"/><path d="M208.4688,137.6406 Q207.8906,137.9375 207.25,138.0781 Q206.6094,138.2344 205.9063,138.2344 Q203.4063,138.2344 202.0781,136.5938 Q200.7656,134.9375 200.7656,131.8125 Q200.7656,128.6875 202.0781,127.0313 Q203.4063,125.375 205.9063,125.375 Q206.6094,125.375 207.25,125.5313 Q207.9063,125.6875 208.4688,125.9844 L208.4688,128.7031 Q207.8438,128.125 207.25,127.8594 Q206.6563,127.5781 206.0313,127.5781 Q204.6875,127.5781 204,128.6563 Q203.3125,129.7188 203.3125,131.8125 Q203.3125,133.9063 204,134.9844 Q204.6875,136.0469 206.0313,136.0469 Q206.6563,136.0469 207.25,135.7813 Q207.8438,135.5 208.4688,134.9219 L208.4688,137.6406 Z " fill="#000000"/><text fill="#000000" font-family="sans-serif" font-size="14" lengthAdjust="spacing" textLength="97" x="219.5" y="137.432">BloqueHorario</text><line style="stroke:#181818;stroke-width:0.5;" x1="191.5" x2="318.5" y1="148" y2="148"/><line style="stroke:#181818;stroke-width:0.5;" x1="191.5" x2="318.5" y1="156" y2="156"/></g><!--link Profesor to Curso--><g id="link_Profesor_Curso"><path codeLine="2" d="M263.74,248.93 C289.37,229.66 322.24,199.64 337,164 C345.16,144.29 345.05,135.76 337,116 C327.01,91.46 306.02,70.18 287.78,55.18 " fill="none" id="Profesor-Curso" style="stroke:#181818;stroke-width:1.0;"/><text fill="#000000" font-family="sans-serif" font-size="13" lengthAdjust="spacing" textLength="47" x="344" y="145.397">imparte</text></g><!--reverse link Programa to Curso--><g id="link_Programa_Curso"><path codeLine="4" d="M196.22,31 C207.92,31 207.63,31 219.33,31 " fill="none" id="Programa-backto-Curso" style="stroke:#181818;stroke-width:1.0;"/><polygon fill="#181818" points="184.22,31,190.22,35,196.22,31,190.22,27,184.22,31" style="stroke:#181818;stroke-width:1.0;"/></g><!--link Aula to Edificio--><g id="link_Aula_Edificio"><path codeLine="7" d="M113.07,297.22 C112.17,319.67 111.3015,341.5097 110.4015,363.9197 " fill="none" id="Aula-to-Edificio" style="stroke:#181818;stroke-width:1.0;"/><polygon fill="#181818" points="109.92,375.91,114.1575,370.0753,110.4015,363.9197,106.164,369.7543,109.92,375.91" style="stroke:#181818;stroke-width:1.0;"/></g><!--reverse link Horario to Aula--><g id="link_Horario_Aula"><path codeLine="11" d="M114,176.12 C114,199.92 114,224.8 114,248.67 " fill="none" id="Horario-backto-Aula" style="stroke:#181818;stroke-width:1.0;"/><polygon fill="#181818" points="114,164.12,110,170.12,114,176.12,118,170.12,114,164.12" style="stroke:#181818;stroke-width:1.0;"/></g><!--link Curso to Horario--><g id="link_Curso_Horario"><path codeLine="12" d="M224.41,55.22 C200.75,73.16 177.7276,90.6338 154.0976,108.5738 " fill="none" id="Curso-to-Horario" style="stroke:#181818;stroke-width:1.0;"/><polygon fill="#181818" points="144.54,115.83,151.7375,115.3878,154.0976,108.5738,146.9001,109.016,144.54,115.83" style="stroke:#181818;stroke-width:1.0;"/></g><!--reverse link Horario to Profesor--><g id="link_Horario_Profesor"><path codeLine="13" d="M142.2081,173.1368 C163.1081,196.9368 187.56,224.8 208.52,248.67 " fill="none" id="Horario-backto-Profesor" style="stroke:#181818;stroke-width:1.0;"/><polygon fill="#181818" points="134.29,164.12,135.2435,171.2678,142.2081,173.1368,141.2547,165.989,134.29,164.12" style="stroke:#181818;stroke-width:1.0;"/></g><!--link Profesor to Recurso--><g id="link_Profesor_Recurso"><path codeLine="15" d="M229,297.22 C229,319.67 229,347.5 229,369.91 " fill="none" id="Profesor-to-Recurso" style="stroke:#181818;stroke-width:1.0;stroke-dasharray:7.0,7.0;"/><polygon fill="#181818" points="229,375.91,233,366.91,229,370.91,225,366.91,229,375.91" style="stroke:#181818;stroke-width:1.0;"/><text fill="#000000" font-family="sans-serif" font-size="13" lengthAdjust="spacing" textLength="46" x="230" y="341.897">prefiere</text></g><!--link Aula to Recurso--><g id="link_Aula_Recurso"><path codeLine="16" d="M135.36,297.22 C156.02,319.67 183.0784,349.0837 203.6884,371.4937 " fill="none" id="Aula-to-Recurso" style="stroke:#181818;stroke-width:1.0;stroke-dasharray:7.0,7.0;"/><polygon fill="#181818" points="207.75,375.91,204.6018,366.5778,204.3654,372.2298,198.7134,371.9933,207.75,375.91" style="stroke:#181818;stroke-width:1.0;"/><text fill="#000000" font-family="sans-serif" font-size="13" lengthAdjust="spacing" textLength="37" x="179" y="341.897">ofrece</text></g><!--link Curso to BloqueHorario--><g id="link_Curso_BloqueHorario"><path codeLine="18" d="M255,55.22 C255,73.16 255,97.89 255,115.83 " fill="none" id="Curso-BloqueHorario" style="stroke:#181818;stroke-width:1.0;stroke-dasharray:7.0,7.0;"/></g><!--SRC=[NO_12i8m44Jl-nLxBYGVu47G8dWiWX-mf9iIRDsuQRo8_svi8ufxsvbXUDEfU4wYQ7g3RTOakC4mHTAP0JgLGMaYR8nM6o2Ikz30sD8KSpfVmvqrXPaq23u0ontwu8ChRsEomLqU2Pu0S1HTGesfubV8d_RVJ5VP5ewLqjejdjXLpgZi0ol3k-tF4w_ioeHraxMu7-MMkVO3l000]--></g></svg>