<?xml version="1.0" encoding="us-ascii" standalone="no"?><svg xmlns="http://www.w3.org/2000/svg" xmlns:xlink="http://www.w3.org/1999/xlink" contentStyleType="text/css" height="713px" preserveAspectRatio="none" style="width:563px;height:713px;background:#FFFFFF;" version="1.1" viewBox="0 0 563 713" width="563px" zoomAndPan="magnify"><defs/><g><path d="M19.5,7 L537.5,7 A12.5,12.5 0 0 1 550,19.5 L550,36.0679 L7,36.0679 L7,19.5 A12.5,12.5 0 0 1 19.5,7 " fill="#F1F1F1" style="stroke:#F1F1F1;stroke-width:1.0;"/><rect fill="none" height="553.0679" rx="12.5" ry="12.5" style="stroke:#181818;stroke-width:0.5;" width="543" x="7" y="7"/><line style="stroke:#181818;stroke-width:0.5;" x1="7" x2="550" y1="36.0679" y2="36.0679"/><text fill="#000000" font-family="sans-serif" font-size="14" lengthAdjust="spacing" textLength="97" x="230" y="26.9659">editarEdificio()</text><g id="editarEdificio.EditandoDatos"><rect fill="#F1F1F1" height="50" rx="12.5" ry="12.5" style="stroke:#181818;stroke-width:0.5;" width="50" x="132" y="140.0679"/><line style="stroke:#181818;stroke-width:0.5;" x1="132" x2="182" y1="169.1358" y2="169.1358"/><text fill="#000000" font-family="sans-serif" font-size="14" lengthAdjust="spacing" textLength="4" x="155" y="160.0339">&#160;</text></g><g id="editarEdificio.GuardandoDatos"><rect fill="#F1F1F1" height="50" rx="12.5" ry="12.5" style="stroke:#181818;stroke-width:0.5;" width="50" x="132" y="405.0679"/><line style="stroke:#181818;stroke-width:0.5;" x1="132" x2="182" y1="434.1358" y2="434.1358"/><text fill="#000000" font-family="sans-serif" font-size="14" lengthAdjust="spacing" textLength="4" x="155" y="425.0339">&#160;</text></g><ellipse cx="157" cy="57.0679" fill="#222222" rx="10" ry="10" style="stroke:#222222;stroke-width:1.0;"/><ellipse cx="157" cy="539.0679" fill="none" rx="11" ry="11" style="stroke:#222222;stroke-width:1.0;"/><ellipse cx="157" cy="539.0679" fill="#222222" rx="6" ry="6" style="stroke:#222222;stroke-width:1.0;"/><!--link *start*editarEdificio to EditandoDatos--><g id="link_*start*editarEdificio_EditandoDatos"><path d="M157,67.1079 C157,83.0279 157,110.5779 157,133.7079 " fill="none" id="*start*editarEdificio-to-EditandoDatos" style="stroke:#008000;stroke-width:1.0;"/><polygon fill="#008000" points="157,139.7079,161,130.7079,157,134.7079,153,130.7079,157,139.7079" style="stroke:#008000;stroke-width:1.0;"/><path d="M162,90.0679 L162,117.0679 L405,117.0679 L405,100.0679 L395,90.0679 L162,90.0679 " fill="#FEFFDD" style="stroke:#181818;stroke-width:0.5;"/><path d="M395,90.0679 L395,100.0679 L405,100.0679 L395,90.0679 " fill="#FEFFDD" style="stroke:#181818;stroke-width:0.5;"/><text fill="#000000" font-family="sans-serif" font-size="13" font-weight="bold" lengthAdjust="spacing" textLength="95" x="168" y="108.9649">Administrador</text><text fill="#000000" font-family="sans-serif" font-size="13" lengthAdjust="spacing" textLength="124" x="266" y="108.9649">solicita editar edificio</text></g><!--link EditandoDatos to GuardandoDatos--><g id="link_EditandoDatos_GuardandoDatos"><path d="M131.93,174.1679 C94.16,186.3679 27,208.0679 27,208.0679 C27,208.0679 27,387.0679 27,387.0679 C27,387.0679 88.4505,406.9237 126.2205,419.1237 " fill="none" id="EditandoDatos-to-GuardandoDatos" style="stroke:#008000;stroke-width:1.0;"/><polygon fill="#008000" points="131.93,420.9679,124.5952,414.3952,127.1721,419.4311,122.1362,422.0079,131.93,420.9679" style="stroke:#008000;stroke-width:1.0;"/><path d="M32,213.0679 L32,382.0679 L262,382.0679 L262,223.0679 L252,213.0679 L32,213.0679 " fill="#FEFFDD" style="stroke:#181818;stroke-width:0.5;"/><path d="M252,213.0679 L252,223.0679 L262,223.0679 L252,213.0679 " fill="#FEFFDD" style="stroke:#181818;stroke-width:0.5;"/><text fill="#000000" font-family="sans-serif" font-size="13" font-weight="bold" lengthAdjust="spacing" textLength="52" x="38" y="231.9649">Sistema</text><text fill="#000000" font-family="sans-serif" font-size="13" lengthAdjust="spacing" textLength="154" x="93" y="231.9649">presenta datos de edici&#243;n</text><text fill="#000000" font-family="sans-serif" font-size="13" lengthAdjust="spacing" textLength="171" x="38" y="249.6709">&#8226; C&#243;digo, nombre del edificio</text><text fill="#000000" font-family="sans-serif" font-size="13" lengthAdjust="spacing" textLength="141" x="38" y="267.377">&#8226; Ubicaci&#243;n, descripci&#243;n</text><text fill="#000000" font-family="sans-serif" font-size="13" lengthAdjust="spacing" textLength="162" x="38" y="285.083">&#8226; Observaciones del edificio</text><text fill="#000000" font-family="sans-serif" font-size="13" lengthAdjust="spacing" textLength="3" x="38" y="302.789">&#160;</text><text fill="#000000" font-family="sans-serif" font-size="13" font-weight="bold" lengthAdjust="spacing" textLength="52" x="38" y="320.495">Sistema</text><text fill="#000000" font-family="sans-serif" font-size="13" lengthAdjust="spacing" textLength="99" x="93" y="320.495">permite solicitar:</text><text fill="#000000" font-family="sans-serif" font-size="13" lengthAdjust="spacing" textLength="114" x="38" y="338.201">&#8226; modificar campos</text><text fill="#000000" font-family="sans-serif" font-size="13" lengthAdjust="spacing" textLength="101" x="38" y="355.907">&#8226; guardar edificio</text><text fill="#000000" font-family="sans-serif" font-size="13" lengthAdjust="spacing" textLength="103" x="38" y="373.6131">&#8226; cancelar edici&#243;n</text></g><!--link GuardandoDatos to EditandoDatos--><g id="link_GuardandoDatos_EditandoDatos"><path d="M182.24,419.4279 C214.71,407.0279 267,387.0679 267,387.0679 C267,387.0679 267,208.0679 267,208.0679 C267,208.0679 220.3152,190.2485 187.8452,177.8485 " fill="none" id="GuardandoDatos-to-EditandoDatos" style="stroke:#008000;stroke-width:1.0;"/><polygon fill="#008000" points="182.24,175.7079,189.2207,182.6555,186.911,177.4917,192.0748,175.182,182.24,175.7079" style="stroke:#008000;stroke-width:1.0;"/><path d="M272,284.0679 L272,311.0679 L541,311.0679 L541,294.0679 L531,284.0679 L272,284.0679 " fill="#FEFFDD" style="stroke:#181818;stroke-width:0.5;"/><path d="M531,284.0679 L531,294.0679 L541,294.0679 L531,284.0679 " fill="#FEFFDD" style="stroke:#181818;stroke-width:0.5;"/><text fill="#000000" font-family="sans-serif" font-size="13" font-weight="bold" lengthAdjust="spacing" textLength="95" x="278" y="302.9649">Administrador</text><text fill="#000000" font-family="sans-serif" font-size="13" lengthAdjust="spacing" textLength="150" x="376" y="302.9649">solicita modificar campos</text></g><!--link GuardandoDatos to *end*editarEdificio--><g id="link_GuardandoDatos_*end*editarEdificio"><path d="M131.83,438.6779 C91.77,450.7779 18,473.0679 18,473.0679 C18,473.0679 18,510.0679 18,510.0679 C18,510.0679 107.4381,528.0833 140.2081,534.6833 " fill="none" id="GuardandoDatos-to-*end*editarEdificio" style="stroke:#008000;stroke-width:1.0;"/><polygon fill="#008000" points="146.09,535.8679,138.0569,530.1697,141.1884,534.8807,136.4774,538.0122,146.09,535.8679" style="stroke:#008000;stroke-width:1.0;"/><path d="M23,478.0679 L23,505.0679 L271,505.0679 L271,488.0679 L261,478.0679 L23,478.0679 " fill="#FEFFDD" style="stroke:#181818;stroke-width:0.5;"/><path d="M261,478.0679 L261,488.0679 L271,488.0679 L261,478.0679 " fill="#FEFFDD" style="stroke:#181818;stroke-width:0.5;"/><text fill="#000000" font-family="sans-serif" font-size="13" font-weight="bold" lengthAdjust="spacing" textLength="95" x="29" y="496.9649">Administrador</text><text fill="#000000" font-family="sans-serif" font-size="13" lengthAdjust="spacing" textLength="129" x="127" y="496.9649">solicita guardar y salir</text></g><!--link GuardandoDatos to *end*editarEdificio--><g id="link_GuardandoDatos_*end*editarEdificio"><path d="M182.24,439.9779 C217.17,452.3079 276,473.0679 276,473.0679 C276,473.0679 276,510.0679 276,510.0679 C276,510.0679 202.5201,527.3521 173.4001,534.2121 " fill="none" id="GuardandoDatos-to-*end*editarEdificio-1" style="stroke:#FF0000;stroke-width:1.0;"/><polygon fill="#FF0000" points="167.56,535.5879,177.2374,537.4176,172.4268,534.4414,175.403,529.6308,167.56,535.5879" style="stroke:#FF0000;stroke-width:1.0;"/><path d="M281,478.0679 L281,505.0679 L539,505.0679 L539,488.0679 L529,478.0679 L281,478.0679 " fill="#FEFFDD" style="stroke:#181818;stroke-width:0.5;"/><path d="M529,478.0679 L529,488.0679 L539,488.0679 L529,478.0679 " fill="#FEFFDD" style="stroke:#181818;stroke-width:0.5;"/><text fill="#000000" font-family="sans-serif" font-size="13" font-weight="bold" lengthAdjust="spacing" textLength="95" x="287" y="496.9649">Administrador</text><text fill="#000000" font-family="sans-serif" font-size="13" lengthAdjust="spacing" textLength="139" x="385" y="496.9649">solicita cancelar edici&#243;n</text></g><g id="EDIFICIOS_ABIERTO"><rect fill="#F1F1F1" height="50" rx="12.5" ry="12.5" style="stroke:#181818;stroke-width:0.5;" width="153" x="202" y="657"/><line style="stroke:#181818;stroke-width:0.5;" x1="202" x2="355" y1="686.0679" y2="686.0679"/><text fill="#000000" font-family="sans-serif" font-size="14" lengthAdjust="spacing" textLength="133" x="212" y="676.9659">EDIFICIOS_ABIERTO</text></g><!--link editarEdificio to EDIFICIOS_ABIERTO--><g id="link_editarEdificio_EDIFICIOS_ABIERTO"><path d="M206.32,560.15 C201.49,578.58 198.5,590 198.5,590 C198.5,590 198.5,627 198.5,627 C198.5,627 216.4361,639.1144 237.7361,653.4844 " fill="none" id="editarEdificio-to-EDIFICIOS_ABIERTO" style="stroke:#008000;stroke-width:1.0;"/><polygon fill="#008000" points="242.71,656.84,237.4862,648.4906,238.5651,654.0436,233.0121,655.1225,242.71,656.84" style="stroke:#008000;stroke-width:1.0;"/><path d="M203.5,595 L203.5,622 L308.5,622 L308.5,605 L298.5,595 L203.5,595 " fill="#FEFFDD" style="stroke:#181818;stroke-width:0.5;"/><path d="M298.5,595 L298.5,605 L308.5,605 L298.5,595 " fill="#FEFFDD" style="stroke:#181818;stroke-width:0.5;"/><text fill="#000000" font-family="sans-serif" font-size="13" lengthAdjust="spacing" textLength="84" x="209.5" y="613.897">abrirEdificios()</text></g><!--link editarEdificio to EDIFICIOS_ABIERTO--><g id="link_editarEdificio_EDIFICIOS_ABIERTO"><path d="M313.69,560.15 C316.04,578.58 317.5,590 317.5,590 C317.5,590 317.5,627 317.5,627 C317.5,627 309.8433,637.6062 299.4633,651.9762 " fill="none" id="editarEdificio-to-EDIFICIOS_ABIERTO-1" style="stroke:#FF0000;stroke-width:1.0;"/><polygon fill="#FF0000" points="295.95,656.84,304.4625,651.8865,298.8778,652.7868,297.9774,647.2021,295.95,656.84" style="stroke:#FF0000;stroke-width:1.0;"/><path d="M322.5,595 L322.5,622 L438.5,622 L438.5,605 L428.5,595 L322.5,595 " fill="#FEFFDD" style="stroke:#181818;stroke-width:0.5;"/><path d="M428.5,595 L428.5,605 L438.5,605 L428.5,595 " fill="#FEFFDD" style="stroke:#181818;stroke-width:0.5;"/><text fill="#000000" font-family="sans-serif" font-size="13" lengthAdjust="spacing" textLength="95" x="328.5" y="613.897">cancelar edici&#243;n</text></g><!--SRC=[fPFHQi8m58RlynJ1tUXGTZz4SEf6huIvNOcCj3cJWsrIJhg1ZC6UPQ_W8_WcUvATHgsBdSXS2YrD_lF_NqvQjq2JArAPJD50iSn1vZPTbYz2k48L845ZeMYayHaJj58vsGYdcgs6V1D2yjXKDFXYsQXK6Ms7gh2kldpteaXNwt9ZCBsSoSxqOau0PjRfXHxIIunb3sjAu8MVwCQzlixGe2j8QKlTgxWddKsPhL1R_FBXONq56BsnuI6gMvZrao94FKenOGB8bC_F2HmOpjVUJVi-9hXU6Q_- -lYKW_LAuzossIkB2LYJXfYbw376HFcwDWjSGfY7BkFO0Rson1fmTOzVsO0oPFnTZ-YwSikiB-Q69IhBjtij5-Q-1LG7J9H98DsixCbs7Tup71ptqKC-vun_fVuJ0dztvmJlkhAKJgL8OUwHJ0BzZyGJxHRlGXpyi46dXz5jD8Z6awV-JJIwVnYB85x5X5MXQxR4thTkkjt72SiwR-Nv3G00]--></g></svg>