<?xml version="1.0" encoding="us-ascii" standalone="no"?><svg xmlns="http://www.w3.org/2000/svg" xmlns:xlink="http://www.w3.org/1999/xlink" contentStyleType="text/css" height="665px" preserveAspectRatio="none" style="width:604px;height:665px;background:#FFFFFF;" version="1.1" viewBox="0 0 604 665" width="604px" zoomAndPan="magnify"><defs/><g><path d="M77.5,7 L388.5,7 A12.5,12.5 0 0 1 401,19.5 L401,36.0679 L65,36.0679 L65,19.5 A12.5,12.5 0 0 1 77.5,7 " fill="#F1F1F1" style="stroke:#F1F1F1;stroke-width:1.0;"/><rect fill="none" height="505.0679" rx="12.5" ry="12.5" style="stroke:#181818;stroke-width:0.5;" width="336" x="65" y="7"/><line style="stroke:#181818;stroke-width:0.5;" x1="65" x2="401" y1="36.0679" y2="36.0679"/><text fill="#000000" font-family="sans-serif" font-size="14" lengthAdjust="spacing" textLength="87" x="189.5" y="26.9659">abrirCursos()</text><g id="abrirCursos.MostrandoLista"><rect fill="#F1F1F1" height="50" rx="12.5" ry="12.5" style="stroke:#181818;stroke-width:0.5;" width="50" x="77" y="140.0679"/><line style="stroke:#181818;stroke-width:0.5;" x1="77" x2="127" y1="169.1358" y2="169.1358"/><text fill="#000000" font-family="sans-serif" font-size="14" lengthAdjust="spacing" textLength="4" x="100" y="160.0339">&#160;</text></g><g id="abrirCursos.FiltrandoLista"><rect fill="#F1F1F1" height="50" rx="12.5" ry="12.5" style="stroke:#181818;stroke-width:0.5;" width="50" x="77" y="354.5679"/><line style="stroke:#181818;stroke-width:0.5;" x1="77" x2="127" y1="383.6358" y2="383.6358"/><text fill="#000000" font-family="sans-serif" font-size="14" lengthAdjust="spacing" textLength="4" x="100" y="374.5339">&#160;</text></g><ellipse cx="102" cy="57.0679" fill="#222222" rx="10" ry="10" style="stroke:#222222;stroke-width:1.0;"/><ellipse cx="102" cy="491.0679" fill="none" rx="11" ry="11" style="stroke:#222222;stroke-width:1.0;"/><ellipse cx="102" cy="491.0679" fill="#222222" rx="6" ry="6" style="stroke:#222222;stroke-width:1.0;"/><!--link *start*abrirCursos to MostrandoLista--><g id="link_*start*abrirCursos_MostrandoLista"><path d="M102,67.1079 C102,83.0279 102,110.5779 102,133.7079 " fill="none" id="*start*abrirCursos-to-MostrandoLista" style="stroke:#008000;stroke-width:1.0;"/><polygon fill="#008000" points="102,139.7079,106,130.7079,102,134.7079,98,130.7079,102,139.7079" style="stroke:#008000;stroke-width:1.0;"/><path d="M107,90.0679 L107,117.0679 L340,117.0679 L340,100.0679 L330,90.0679 L107,90.0679 " fill="#FEFFDD" style="stroke:#181818;stroke-width:0.5;"/><path d="M330,90.0679 L330,100.0679 L340,100.0679 L330,90.0679 " fill="#FEFFDD" style="stroke:#181818;stroke-width:0.5;"/><text fill="#000000" font-family="sans-serif" font-size="13" font-weight="bold" lengthAdjust="spacing" textLength="95" x="113" y="108.9649">Administrador</text><text fill="#000000" font-family="sans-serif" font-size="13" lengthAdjust="spacing" textLength="114" x="211" y="108.9649">solicita abrir cursos</text></g><!--link MostrandoLista to FiltrandoLista--><g id="link_MostrandoLista_FiltrandoLista"><path d="M102,190.4479 C102,231.4379 102,307.6779 102,348.4779 " fill="none" id="MostrandoLista-to-FiltrandoLista" style="stroke:#008000;stroke-width:1.0;"/><polygon fill="#008000" points="102,354.4779,106,345.4779,102,349.4779,98,345.4779,102,354.4779" style="stroke:#008000;stroke-width:1.0;"/><path d="M107,213.0679 L107,329.0679 L392,329.0679 L392,223.0679 L382,213.0679 L107,213.0679 " fill="#FEFFDD" style="stroke:#181818;stroke-width:0.5;"/><path d="M382,213.0679 L382,223.0679 L392,223.0679 L382,213.0679 " fill="#FEFFDD" style="stroke:#181818;stroke-width:0.5;"/><text fill="#000000" font-family="sans-serif" font-size="13" font-weight="bold" lengthAdjust="spacing" textLength="52" x="113" y="231.9649">Sistema</text><text fill="#000000" font-family="sans-serif" font-size="13" lengthAdjust="spacing" textLength="140" x="168" y="231.9649">presenta lista de cursos</text><text fill="#000000" font-family="sans-serif" font-size="13" lengthAdjust="spacing" textLength="264" x="113" y="249.6709">&#8226; C&#243;digo, nombre, descripci&#243;n de cada curso</text><text fill="#000000" font-family="sans-serif" font-size="13" lengthAdjust="spacing" textLength="166" x="113" y="267.377">&#8226; Permite solicitar filtrar lista</text><text fill="#000000" font-family="sans-serif" font-size="13" lengthAdjust="spacing" textLength="214" x="113" y="285.083">&#8226; Permite solicitar crear curso nuevo</text><text fill="#000000" font-family="sans-serif" font-size="13" lengthAdjust="spacing" textLength="191" x="113" y="302.789">&#8226; Permite solicitar eliminar curso</text><text fill="#000000" font-family="sans-serif" font-size="13" lengthAdjust="spacing" textLength="178" x="113" y="320.495">&#8226; Permite solicitar editar curso</text></g><!--link FiltrandoLista to FiltrandoLista--><g id="link_FiltrandoLista_FiltrandoLista"><path d="M127.18,367.6179 C136.91,367.0879 145,371.0679 145,379.5679 C145,388.0679 142.9011,392.3743 133.1711,391.8443 " fill="none" id="FiltrandoLista-to-FiltrandoLista" style="stroke:#008000;stroke-width:1.0;"/><polygon fill="#008000" points="127.18,391.5179,135.9491,396.0015,132.1726,391.7899,136.3842,388.0133,127.18,391.5179" style="stroke:#008000;stroke-width:1.0;"/><path d="M150,357.0679 L150,402.0679 L372,402.0679 L372,367.0679 L362,357.0679 L150,357.0679 " fill="#FEFFDD" style="stroke:#181818;stroke-width:0.5;"/><path d="M362,357.0679 L362,367.0679 L372,367.0679 L362,357.0679 " fill="#FEFFDD" style="stroke:#181818;stroke-width:0.5;"/><text fill="#000000" font-family="sans-serif" font-size="13" font-weight="bold" lengthAdjust="spacing" textLength="95" x="156" y="375.9649">Administrador</text><text fill="#000000" font-family="sans-serif" font-size="13" lengthAdjust="spacing" textLength="103" x="254" y="375.9649">solicita filtrar lista</text><text fill="#000000" font-family="sans-serif" font-size="13" font-weight="bold" lengthAdjust="spacing" textLength="52" x="156" y="393.6709">Sistema</text><text fill="#000000" font-family="sans-serif" font-size="13" lengthAdjust="spacing" textLength="125" x="211" y="393.6709">presenta lista filtrada</text></g><!--link FiltrandoLista to *end*abrirCursos--><g id="link_FiltrandoLista_*end*abrirCursos"><path d="M102,404.5979 C102,428.1479 102,456.8979 102,473.9179 " fill="none" id="FiltrandoLista-to-*end*abrirCursos" style="stroke:#008000;stroke-width:1.0;"/><polygon fill="#008000" points="102,479.9179,106,470.9179,102,474.9179,98,470.9179,102,479.9179" style="stroke:#008000;stroke-width:1.0;"/><path d="M107,430.0679 L107,457.0679 L387,457.0679 L387,440.0679 L377,430.0679 L107,430.0679 " fill="#FEFFDD" style="stroke:#181818;stroke-width:0.5;"/><path d="M377,430.0679 L377,440.0679 L387,440.0679 L377,430.0679 " fill="#FEFFDD" style="stroke:#181818;stroke-width:0.5;"/><text fill="#000000" font-family="sans-serif" font-size="13" font-weight="bold" lengthAdjust="spacing" textLength="95" x="113" y="448.9649">Administrador</text><text fill="#000000" font-family="sans-serif" font-size="13" lengthAdjust="spacing" textLength="161" x="211" y="448.9649">solicita una de las opciones</text></g><g id="CURSO_ABIERTO"><rect fill="#F1F1F1" height="50" rx="12.5" ry="12.5" style="stroke:#181818;stroke-width:0.5;" width="132" x="7" y="609"/><line style="stroke:#181818;stroke-width:0.5;" x1="7" x2="139" y1="638.0679" y2="638.0679"/><text fill="#000000" font-family="sans-serif" font-size="14" lengthAdjust="spacing" textLength="112" x="17" y="628.9659">CURSO_ABIERTO</text></g><g id="CURSOS_ABIERTO"><rect fill="#F1F1F1" height="50" rx="12.5" ry="12.5" style="stroke:#181818;stroke-width:0.5;" width="140" x="235" y="609"/><line style="stroke:#181818;stroke-width:0.5;" x1="235" x2="375" y1="638.0679" y2="638.0679"/><text fill="#000000" font-family="sans-serif" font-size="14" lengthAdjust="spacing" textLength="120" x="245" y="628.9659">CURSOS_ABIERTO</text></g><g id="SISTEMA_DISPONIBLE"><rect fill="#F1F1F1" height="50" rx="12.5" ry="12.5" style="stroke:#181818;stroke-width:0.5;" width="167" x="410.5" y="609"/><line style="stroke:#181818;stroke-width:0.5;" x1="410.5" x2="577.5" y1="638.0679" y2="638.0679"/><text fill="#000000" font-family="sans-serif" font-size="14" lengthAdjust="spacing" textLength="147" x="420.5" y="628.9659">SISTEMA_DISPONIBLE</text></g><!--link abrirCursos to CURSO_ABIERTO--><g id="link_abrirCursos_CURSO_ABIERTO"><path d="M64.95,471.69 C32.83,512.05 9,542 9,542 C9,542 9,579 9,579 C9,579 22.7433,590.602 39.7833,604.972 " fill="none" id="abrirCursos-to-CURSO_ABIERTO" style="stroke:#008000;stroke-width:1.0;"/><polygon fill="#008000" points="44.37,608.84,40.0686,599.9801,40.5477,605.6166,34.9112,606.0958,44.37,608.84" style="stroke:#008000;stroke-width:1.0;"/><path d="M14,547 L14,574 L113,574 L113,557 L103,547 L14,547 " fill="#FEFFDD" style="stroke:#181818;stroke-width:0.5;"/><path d="M103,547 L103,557 L113,557 L103,547 " fill="#FEFFDD" style="stroke:#181818;stroke-width:0.5;"/><text fill="#000000" font-family="sans-serif" font-size="13" lengthAdjust="spacing" textLength="78" x="20" y="565.897">editarCurso()</text></g><!--link abrirCursos to CURSO_ABIERTO--><g id="link_abrirCursos_CURSO_ABIERTO"><path d="M145.27,512.23 C131.65,551.3 122,579 122,579 C122,579 112.0037,590.0283 98.9537,604.3983 " fill="none" id="abrirCursos-to-CURSO_ABIERTO-1" style="stroke:#008000;stroke-width:1.0;"/><polygon fill="#008000" points="94.92,608.84,103.9318,604.8665,98.2814,605.1386,98.0094,599.4882,94.92,608.84" style="stroke:#008000;stroke-width:1.0;"/><path d="M139,547 L139,574 L233,574 L233,557 L223,547 L139,547 " fill="#FEFFDD" style="stroke:#181818;stroke-width:0.5;"/><path d="M223,547 L223,557 L233,557 L223,547 " fill="#FEFFDD" style="stroke:#181818;stroke-width:0.5;"/><text fill="#000000" font-family="sans-serif" font-size="13" lengthAdjust="spacing" textLength="73" x="145" y="565.897">crearCurso()</text></g><!--link abrirCursos to CURSOS_ABIERTO--><g id="link_abrirCursos_CURSOS_ABIERTO"><path d="M281.62,512.06 C289.25,551.52 294.8698,580.6193 299.1398,602.6793 " fill="none" id="abrirCursos-to-CURSOS_ABIERTO" style="stroke:#008000;stroke-width:1.0;"/><polygon fill="#008000" points="300.28,608.57,302.4968,598.9739,299.3298,603.6611,294.6426,600.4941,300.28,608.57" style="stroke:#008000;stroke-width:1.0;"/><path d="M300,547 L300,574 L412,574 L412,557 L402,547 L300,547 " fill="#FEFFDD" style="stroke:#181818;stroke-width:0.5;"/><path d="M402,547 L402,557 L412,557 L402,547 " fill="#FEFFDD" style="stroke:#181818;stroke-width:0.5;"/><text fill="#000000" font-family="sans-serif" font-size="13" lengthAdjust="spacing" textLength="91" x="306" y="565.897">eliminarCurso()</text></g><!--link abrirCursos to SISTEMA_DISPONIBLE--><g id="link_abrirCursos_SISTEMA_DISPONIBLE"><path d="M401.06,500.36 C432.08,544.63 456.5675,579.5758 473.5275,603.7858 " fill="none" id="abrirCursos-to-SISTEMA_DISPONIBLE" style="stroke:#008000;stroke-width:1.0;"/><polygon fill="#008000" points="476.97,608.7,475.0823,599.0337,474.1012,604.6049,468.5301,603.6238,476.97,608.7" style="stroke:#008000;stroke-width:1.0;"/><path d="M461,547 L461,574 L597,574 L597,557 L587,547 L461,547 " fill="#FEFFDD" style="stroke:#181818;stroke-width:0.5;"/><path d="M587,547 L587,557 L597,557 L587,547 " fill="#FEFFDD" style="stroke:#181818;stroke-width:0.5;"/><text fill="#000000" font-family="sans-serif" font-size="13" lengthAdjust="spacing" textLength="115" x="467" y="565.897">completarGestion()</text></g><!--SRC=[dLFHQi8m57tFLmJteaFP3uYWpes2Jh7kIKJIvaw2QLAIEf0nsBVi5_m4_sHVicjgkrgnJ5Ce93dtt7FFlR5heM9cM4IbK91iOw2nbjl3XX2Ri0Ge2umm_Osnsb9cQQsmhpTgz8CGYYl5rl13p4ZRn335zL3W-Vdzav35UmUOtozeQtwtCW1gqUgKEAZ3A8qSMXsqhjr1E-XqUIIKE62vDks7e4EjbY8K6EEKqj19TN1GFEN0HV9VALDHH4de9Gq-taB4NFROW0M5FDAnSIWA-FdwfltzZekLRY9J51Xe8iI6HiIXsE-KmpFEqg0yPW8c4fWtAytGDwVCf5agSA41TlI0gWsyLt625EXb1gy2yfGxXsN6_fbwwjmjfbOqzhpuwYQaUCwkrufJUOl0ZNATbpZh6Xkh5PmE8FaafFYkYYdxhrD_lEpslC5qDYOdYLFVNKozGNAoMwZSN5p9v5zGTHoR_xFvdZyRZBhBHy-VZ5-ytd1G4gUZM0AM-WmsGVUAfBy0]--></g></svg>