<?xml version="1.0" encoding="us-ascii" standalone="no"?><svg xmlns="http://www.w3.org/2000/svg" xmlns:xlink="http://www.w3.org/1999/xlink" contentStyleType="text/css" height="442px" preserveAspectRatio="none" style="width:1036px;height:442px;background:#FFFFFF;" version="1.1" viewBox="0 0 1036 442" width="1036px" zoomAndPan="magnify"><defs/><g><!--cluster crearAula--><g id="cluster_crearAula"><path d="M139.5,6.602 L216.5,6.602 A3.75,3.75 0 0 1 219,9.102 L226,31.6699 L823.5,31.6699 A2.5,2.5 0 0 1 826,34.1699 L826,433.102 A2.5,2.5 0 0 1 823.5,435.602 L139.5,435.602 A2.5,2.5 0 0 1 137,433.102 L137,9.102 A2.5,2.5 0 0 1 139.5,6.602 " fill="none" style="stroke:#000000;stroke-width:1.5;"/><line style="stroke:#000000;stroke-width:1.5;" x1="137" x2="226" y1="31.6699" y2="31.6699"/><text fill="#000000" font-family="sans-serif" font-size="14" font-weight="bold" lengthAdjust="spacing" textLength="76" x="141" y="23.5679">crearAula()</text></g><!--entity CrearAulaView--><g id="elem_CrearAulaView"><rect fill="#629EF9" height="39.0679" rx="2.5" ry="2.5" style="stroke:#181818;stroke-width:0.5;" width="118" x="364" y="44.602"/><text fill="#000000" font-family="sans-serif" font-size="14" lengthAdjust="spacing" textLength="98" x="374" y="69.5679">CrearAulaView</text></g><!--entity AulaController--><g id="elem_AulaController"><rect fill="#B5BD68" height="39.0679" rx="2.5" ry="2.5" style="stroke:#181818;stroke-width:0.5;" width="117" x="265.5" y="162.602"/><text fill="#000000" font-family="sans-serif" font-size="14" lengthAdjust="spacing" textLength="97" x="275.5" y="187.5679">AulaController</text></g><!--entity AulaRepository--><g id="elem_AulaRepository"><rect fill="#F2AC4E" height="39.0679" rx="2.5" ry="2.5" style="stroke:#181818;stroke-width:0.5;" width="121" x="271.5" y="280.602"/><text fill="#000000" font-family="sans-serif" font-size="14" lengthAdjust="spacing" textLength="101" x="281.5" y="305.5679">AulaRepository</text></g><!--entity Aula--><g id="elem_Aula"><rect fill="#F2AC4E" height="39.0679" rx="2.5" ry="2.5" style="stroke:#181818;stroke-width:0.5;" width="50" x="307" y="380.602"/><text fill="#000000" font-family="sans-serif" font-size="14" lengthAdjust="spacing" textLength="30" x="317" y="405.5679">Aula</text></g><!--entity AulasAbierto--><g id="elem_AulasAbierto"><rect fill="#CDEBA5" height="39.0679" rx="2.5" ry="2.5" style="stroke:#181818;stroke-width:0.5;" width="114" x="7" y="44.602"/><text fill="#000000" font-family="sans-serif" font-size="14" lengthAdjust="spacing" textLength="94" x="17" y="69.5679">:Aulas Abierto</text></g><!--entity EditarAula--><g id="elem_EditarAula"><rect fill="#CDEBA5" height="39.0679" rx="2.5" ry="2.5" style="stroke:#181818;stroke-width:0.5;" width="188" x="842" y="162.602"/><text fill="#000000" font-family="sans-serif" font-size="14" lengthAdjust="spacing" textLength="168" x="852" y="187.5679">:Collaboration EditarAula</text></g><!--link AulasAbierto to CrearAulaView--><g id="link_AulasAbierto_CrearAulaView"><path d="M121.28,64.102 C187.7,64.102 290.62,64.102 357.83,64.102 " fill="none" id="AulasAbierto-to-CrearAulaView" style="stroke:#181818;stroke-width:1.0;"/><polygon fill="#181818" points="363.83,64.102,354.83,60.102,358.83,64.102,354.83,68.102,363.83,64.102" style="stroke:#181818;stroke-width:1.0;"/><text fill="#000000" font-family="sans-serif" font-size="13" lengthAdjust="spacing" textLength="64" x="210.5" y="56.999">crearAula()</text></g><!--link CrearAulaView to AulaController--><g id="link_CrearAulaView_AulaController"><path d="M363.86,77.152 C293.38,91.512 185,113.602 185,113.602 C185,113.602 185,132.602 185,132.602 C185,132.602 225.795,146.835 264.995,160.515 " fill="none" id="CrearAulaView-to-AulaController" style="stroke:#181818;stroke-width:1.0;"/><polygon fill="#181818" points="270.66,162.492,263.4805,155.7499,265.9392,160.8445,260.8446,163.3032,270.66,162.492" style="stroke:#181818;stroke-width:1.0;"/><text fill="#000000" font-family="sans-serif" font-size="13" lengthAdjust="spacing" textLength="336" x="186" y="128.499">validarDatosM&#237;nimos(codigo, nombre, edificio) : boolean</text></g><!--link CrearAulaView to AulaController--><g id="link_CrearAulaView_AulaController"><path d="M462.91,83.712 C492.24,97.392 527,113.602 527,113.602 C527,113.602 527,132.602 527,132.602 C527,132.602 448.5058,151.358 388.5558,165.678 " fill="none" id="CrearAulaView-to-AulaController-1" style="stroke:#181818;stroke-width:1.0;"/><polygon fill="#181818" points="382.72,167.072,392.4031,168.8716,387.5832,165.9103,390.5444,161.0905,382.72,167.072" style="stroke:#181818;stroke-width:1.0;"/><text fill="#000000" font-family="sans-serif" font-size="13" lengthAdjust="spacing" textLength="242" x="528" y="128.499">crearAula(codigo, nombre, edificio) : Aula</text></g><!--link AulaController to AulaRepository--><g id="link_AulaController_AulaRepository"><path d="M275.65,201.712 C240.11,215.392 198,231.602 198,231.602 C198,231.602 198,250.602 198,250.602 C198,250.602 237.1483,264.7697 274.9383,278.4497 " fill="none" id="AulaController-to-AulaRepository" style="stroke:#181818;stroke-width:1.0;"/><polygon fill="#181818" points="280.58,280.492,273.479,273.6674,275.8786,278.7901,270.7559,281.1897,280.58,280.492" style="stroke:#181818;stroke-width:1.0;"/><text fill="#000000" font-family="sans-serif" font-size="13" lengthAdjust="spacing" textLength="207" x="199" y="246.499">verificarUnicidad(codigo) : boolean</text></g><!--link AulaController to AulaRepository--><g id="link_AulaController_AulaRepository"><path d="M357.39,201.712 C381.92,215.392 411,231.602 411,231.602 C411,231.602 411,250.602 411,250.602 C411,250.602 389.7131,263.6725 367.4331,277.3525 " fill="none" id="AulaController-to-AulaRepository-1" style="stroke:#181818;stroke-width:1.0;"/><polygon fill="#181818" points="362.32,280.492,372.0826,279.1915,366.5809,277.8758,367.8967,272.3741,362.32,280.492" style="stroke:#181818;stroke-width:1.0;"/><text fill="#000000" font-family="sans-serif" font-size="13" lengthAdjust="spacing" textLength="216" x="412" y="246.499">crear(codigo, nombre, edificio) : Aula</text></g><!--link AulaRepository to Aula--><g id="link_AulaRepository_Aula"><path d="M332,320.002 C332,337.462 332,363.262 332,380.592 " fill="none" id="AulaRepository-Aula" style="stroke:#181818;stroke-width:1.0;"/></g><!--link CrearAulaView to EditarAula--><g id="link_CrearAulaView_EditarAula"><path d="M482.19,73.162 C583.42,86.952 779,113.602 779,113.602 C779,113.602 840.6979,140.132 887.1679,160.112 " fill="none" id="CrearAulaView-to-EditarAula" style="stroke:#181818;stroke-width:1.0;stroke-dasharray:7.0,7.0;"/><polygon fill="#181818" points="892.68,162.482,885.9918,155.2523,888.0866,160.507,882.8319,162.6018,892.68,162.482" style="stroke:#181818;stroke-width:1.0;"/><text fill="#000000" font-family="sans-serif" font-size="13" lengthAdjust="spacing" textLength="193" x="822" y="128.499">&#171;include&#187; editarAula(aulaNueva)</text></g><!--SRC=[ZPBDQeD058NtynGNkqaWPX6Qq4WGh36xTb5ezrVdDWoPp9LnaX9A7wbFqHUh6bj_224kn7iyvyntqMAdJ8uMzw2L8NVA2NBMfseGmbBcq6mrmLsyJXwZENX1TD1OG9Ggieuzg9uhfH4kHcBM6bEsw1GRIAHoQAjGdMv78NBCThWbo2oTfShW_K-ZiGUV0ighSyfYjamsIuZ_J6-AFeQUT9xAnKCD6hDnjkGXEpHjPb5ydzIc5ygvK8xjwOf9V0dHNHrywuTzZW0wx4Bqte4lItiVAO0ZQYNHhj5nyVJpRTIUYr76Kcrv0eRtgQK9a5JlAbCyXW1IParepYXj4_XDURjAMKws2g9zDMLSecoQUpq3o0kCxKxNmCvVz0Qgkkx6gZPNLZLw7tWw3Jk_L02hbJAPFaWAmwgpqKTOtfuFTCIn-0K0]--></g></svg>