<?xml version="1.0" encoding="us-ascii" standalone="no"?><svg xmlns="http://www.w3.org/2000/svg" xmlns:xlink="http://www.w3.org/1999/xlink" contentStyleType="text/css" height="342px" preserveAspectRatio="none" style="width:3443px;height:342px;background:#FFFFFF;" version="1.1" viewBox="0 0 3443 342" width="3443px" zoomAndPan="magnify"><defs/><g><!--cluster completarGestion--><g id="cluster_completarGestion"><path d="M179,6.602 L314,6.602 A3.75,3.75 0 0 1 316.5,9.102 L323.5,31.6699 L957,31.6699 A2.5,2.5 0 0 1 959.5,34.1699 L959.5,333.102 A2.5,2.5 0 0 1 957,335.602 L179,335.602 A2.5,2.5 0 0 1 176.5,333.102 L176.5,9.102 A2.5,2.5 0 0 1 179,6.602 " fill="none" style="stroke:#000000;stroke-width:1.5;"/><line style="stroke:#000000;stroke-width:1.5;" x1="176.5" x2="323.5" y1="31.6699" y2="31.6699"/><text fill="#000000" font-family="sans-serif" font-size="14" font-weight="bold" lengthAdjust="spacing" textLength="134" x="180.5" y="23.5679">completarGestion()</text></g><!--entity GestionView--><g id="elem_GestionView"><rect fill="#629EF9" height="39.0679" rx="2.5" ry="2.5" style="stroke:#181818;stroke-width:0.5;" width="102" x="841.5" y="44.602"/><text fill="#000000" font-family="sans-serif" font-size="14" lengthAdjust="spacing" textLength="82" x="851.5" y="69.5679">GestionView</text></g><!--entity CompletarGestionController--><g id="elem_CompletarGestionController"><rect fill="#B5BD68" height="39.0679" rx="2.5" ry="2.5" style="stroke:#181818;stroke-width:0.5;" width="208" x="486.5" y="162.602"/><text fill="#000000" font-family="sans-serif" font-size="14" lengthAdjust="spacing" textLength="188" x="496.5" y="187.5679">CompletarGestionController</text></g><!--entity PermisosRepository--><g id="elem_PermisosRepository"><rect fill="#F2AC4E" height="39.0679" rx="2.5" ry="2.5" style="stroke:#181818;stroke-width:0.5;" width="152" x="448.5" y="280.602"/><text fill="#000000" font-family="sans-serif" font-size="14" lengthAdjust="spacing" textLength="132" x="458.5" y="305.5679">PermisosRepository</text></g><!--entity OpcionesMenu--><g id="elem_OpcionesMenu"><rect fill="#F2AC4E" height="39.0679" rx="2.5" ry="2.5" style="stroke:#181818;stroke-width:0.5;" width="122" x="192.5" y="280.602"/><text fill="#000000" font-family="sans-serif" font-size="14" lengthAdjust="spacing" textLength="102" x="202.5" y="305.5679">OpcionesMenu</text></g><!--entity Sesion--><g id="elem_Sesion"><rect fill="#F2AC4E" height="39.0679" rx="2.5" ry="2.5" style="stroke:#181818;stroke-width:0.5;" width="64" x="778.5" y="280.602"/><text fill="#000000" font-family="sans-serif" font-size="14" lengthAdjust="spacing" textLength="44" x="788.5" y="305.5679">Sesion</text></g><!--entity SistemaDisponible--><g id="elem_SistemaDisponible"><rect fill="#CDEBA5" height="39.0679" rx="2.5" ry="2.5" style="stroke:#181818;stroke-width:0.5;" width="153" x="7" y="44.602"/><text fill="#000000" font-family="sans-serif" font-size="14" lengthAdjust="spacing" textLength="133" x="17" y="69.5679">:Sistema Disponible</text></g><!--entity AbrirProgramas--><g id="elem_AbrirProgramas"><rect fill="#CDEBA5" height="39.0679" rx="2.5" ry="2.5" style="stroke:#181818;stroke-width:0.5;" width="225" x="976" y="162.602"/><text fill="#000000" font-family="sans-serif" font-size="14" lengthAdjust="spacing" textLength="205" x="986" y="187.5679">:Collaboration AbrirProgramas</text></g><!--entity AbrirCursos--><g id="elem_AbrirCursos"><rect fill="#CDEBA5" height="39.0679" rx="2.5" ry="2.5" style="stroke:#181818;stroke-width:0.5;" width="198" x="1236.5" y="162.602"/><text fill="#000000" font-family="sans-serif" font-size="14" lengthAdjust="spacing" textLength="178" x="1246.5" y="187.5679">:Collaboration AbrirCursos</text></g><!--entity AbrirProfesores--><g id="elem_AbrirProfesores"><rect fill="#CDEBA5" height="39.0679" rx="2.5" ry="2.5" style="stroke:#181818;stroke-width:0.5;" width="223" x="1470" y="162.602"/><text fill="#000000" font-family="sans-serif" font-size="14" lengthAdjust="spacing" textLength="203" x="1480" y="187.5679">:Collaboration AbrirProfesores</text></g><!--entity AbrirEdificios--><g id="elem_AbrirEdificios"><rect fill="#CDEBA5" height="39.0679" rx="2.5" ry="2.5" style="stroke:#181818;stroke-width:0.5;" width="208" x="1728.5" y="162.602"/><text fill="#000000" font-family="sans-serif" font-size="14" lengthAdjust="spacing" textLength="188" x="1738.5" y="187.5679">:Collaboration AbrirEdificios</text></g><!--entity AbrirAulas--><g id="elem_AbrirAulas"><rect fill="#CDEBA5" height="39.0679" rx="2.5" ry="2.5" style="stroke:#181818;stroke-width:0.5;" width="189" x="1972" y="162.602"/><text fill="#000000" font-family="sans-serif" font-size="14" lengthAdjust="spacing" textLength="169" x="1982" y="187.5679">:Collaboration AbrirAulas</text></g><!--entity AbrirRecursos--><g id="elem_AbrirRecursos"><rect fill="#CDEBA5" height="39.0679" rx="2.5" ry="2.5" style="stroke:#181818;stroke-width:0.5;" width="213" x="2196" y="162.602"/><text fill="#000000" font-family="sans-serif" font-size="14" lengthAdjust="spacing" textLength="193" x="2206" y="187.5679">:Collaboration AbrirRecursos</text></g><!--entity AsignarProfesor--><g id="elem_AsignarProfesor"><rect fill="#CDEBA5" height="39.0679" rx="2.5" ry="2.5" style="stroke:#181818;stroke-width:0.5;" width="226" x="2444.5" y="162.602"/><text fill="#000000" font-family="sans-serif" font-size="14" lengthAdjust="spacing" textLength="206" x="2454.5" y="187.5679">:Collaboration AsignarProfesor</text></g><!--entity GenerarHorario--><g id="elem_GenerarHorario"><rect fill="#CDEBA5" height="39.0679" rx="2.5" ry="2.5" style="stroke:#181818;stroke-width:0.5;" width="223" x="2706" y="162.602"/><text fill="#000000" font-family="sans-serif" font-size="14" lengthAdjust="spacing" textLength="203" x="2716" y="187.5679">:Collaboration GenerarHorario</text></g><!--entity ConsultarHorario--><g id="elem_ConsultarHorario"><rect fill="#CDEBA5" height="39.0679" rx="2.5" ry="2.5" style="stroke:#181818;stroke-width:0.5;" width="233" x="2964" y="162.602"/><text fill="#000000" font-family="sans-serif" font-size="14" lengthAdjust="spacing" textLength="213" x="2974" y="187.5679">:Collaboration ConsultarHorario</text></g><!--entity CerrarSesion--><g id="elem_CerrarSesion"><rect fill="#CDEBA5" height="39.0679" rx="2.5" ry="2.5" style="stroke:#181818;stroke-width:0.5;" width="205" x="3232" y="162.602"/><text fill="#000000" font-family="sans-serif" font-size="14" lengthAdjust="spacing" textLength="185" x="3242" y="187.5679">:Collaboration CerrarSesion</text></g><!--link SistemaDisponible to GestionView--><g id="link_SistemaDisponible_GestionView"><path d="M160.34,64.102 C324.02,64.102 697.38,64.102 835.24,64.102 " fill="none" id="SistemaDisponible-to-GestionView" style="stroke:#181818;stroke-width:1.0;"/><polygon fill="#181818" points="841.24,64.102,832.24,60.102,836.24,64.102,832.24,68.102,841.24,64.102" style="stroke:#181818;stroke-width:1.0;"/><text fill="#000000" font-family="sans-serif" font-size="13" lengthAdjust="spacing" textLength="134" x="433.75" y="56.999">disponibilizarSistema()</text></g><!--link GestionView to CompletarGestionController--><g id="link_GestionView_CompletarGestionController"><path d="M844.31,83.612 C788.03,105.232 701.0409,138.6402 644.6109,160.3202 " fill="none" id="GestionView-to-CompletarGestionController" style="stroke:#181818;stroke-width:1.0;"/><polygon fill="#181818" points="639.01,162.472,648.8458,162.9782,643.6774,160.6788,645.9768,155.5104,639.01,162.472" style="stroke:#181818;stroke-width:1.0;"/><text fill="#000000" font-family="sans-serif" font-size="13" lengthAdjust="spacing" textLength="198" x="760.5" y="128.499">habilitarOpciones(administrador)</text></g><!--link CompletarGestionController to Sesion--><g id="link_CompletarGestionController_Sesion"><path d="M659.7,201.642 C710.8,215.342 771.5,231.602 771.5,231.602 C771.5,231.602 785.0991,255.1263 796.6391,275.1063 " fill="none" id="CompletarGestionController-to-Sesion" style="stroke:#181818;stroke-width:1.0;"/><polygon fill="#181818" points="799.64,280.302,798.6024,270.5079,797.1393,275.9723,791.6749,274.5091,799.64,280.302" style="stroke:#181818;stroke-width:1.0;"/><text fill="#000000" font-family="sans-serif" font-size="13" lengthAdjust="spacing" textLength="131" x="782.5" y="246.499">getUsuario() : Usuario</text></g><!--link CompletarGestionController to PermisosRepository--><g id="link_CompletarGestionController_PermisosRepository"><path d="M564.02,201.712 C544.56,215.392 521.5,231.602 521.5,231.602 C521.5,231.602 521.5,250.602 521.5,250.602 C521.5,250.602 522.1279,260.8235 522.9779,274.5035 " fill="none" id="CompletarGestionController-to-PermisosRepository" style="stroke:#181818;stroke-width:1.0;"/><polygon fill="#181818" points="523.35,280.492,526.7842,271.2612,523.0399,275.5016,518.7996,271.7574,523.35,280.492" style="stroke:#181818;stroke-width:1.0;"/><text fill="#000000" font-family="sans-serif" font-size="13" lengthAdjust="spacing" textLength="244" x="522.5" y="246.499">obtenerOpciones(usuario) : List&lt;Opcion&gt;</text></g><!--link CompletarGestionController to OpcionesMenu--><g id="link_CompletarGestionController_OpcionesMenu"><path d="M486.14,198.582 C390.44,212.772 263.5,231.602 263.5,231.602 C263.5,231.602 260.1164,254.3863 257.1664,274.3663 " fill="none" id="CompletarGestionController-to-OpcionesMenu" style="stroke:#181818;stroke-width:1.0;"/><polygon fill="#181818" points="256.29,280.302,261.5617,271.9828,257.0203,275.3556,253.6475,270.8142,256.29,280.302" style="stroke:#181818;stroke-width:1.0;"/><text fill="#000000" font-family="sans-serif" font-size="13" lengthAdjust="spacing" textLength="248" x="264.5" y="246.499">crearOpciones(opciones) : OpcionesMenu</text></g><!--link GestionView to OpcionesMenu--><g id="link_GestionView_OpcionesMenu"><path d="M841.43,73.452 C697.08,97.072 296.5,162.602 296.5,162.602 C296.5,162.602 252.5,231.602 252.5,231.602 C252.5,231.602 252.5,250.602 252.5,250.602 C252.5,250.602 252.7028,260.8133 252.9928,274.4933 " fill="none" id="GestionView-to-OpcionesMenu" style="stroke:#181818;stroke-width:1.0;"/><polygon fill="#181818" points="253.12,280.492,256.9284,271.4092,253.014,275.4931,248.9302,271.5788,253.12,280.492" style="stroke:#181818;stroke-width:1.0;"/><text fill="#000000" font-family="sans-serif" font-size="13" lengthAdjust="spacing" textLength="171" x="297.5" y="187.499">getOpciones() : List&lt;Opcion&gt;</text></g><!--link GestionView to AbrirProgramas--><g id="link_GestionView_AbrirProgramas"><path d="M923.99,83.742 C960.57,105.382 1015.3868,137.8256 1051.9268,159.4556 " fill="none" id="GestionView-to-AbrirProgramas" style="stroke:#181818;stroke-width:1.0;stroke-dasharray:7.0,7.0;"/><polygon fill="#181818" points="1057.09,162.512,1051.3828,154.4853,1052.7873,159.965,1047.3076,161.3696,1057.09,162.512" style="stroke:#181818;stroke-width:1.0;"/><text fill="#000000" font-family="sans-serif" font-size="13" lengthAdjust="spacing" textLength="102" x="1002.5" y="128.499">abrirProgramas()</text></g><!--link GestionView to AbrirCursos--><g id="link_GestionView_AbrirCursos"><path d="M943.76,76.352 C1009.04,90.682 1113.5,113.602 1113.5,113.602 C1113.5,113.602 1203.0797,140.836 1268.7997,160.826 " fill="none" id="GestionView-to-AbrirCursos" style="stroke:#181818;stroke-width:1.0;stroke-dasharray:7.0,7.0;"/><polygon fill="#181818" points="1274.54,162.572,1267.0935,156.126,1269.7564,161.117,1264.7655,163.7798,1274.54,162.572" style="stroke:#181818;stroke-width:1.0;"/><text fill="#000000" font-family="sans-serif" font-size="13" lengthAdjust="spacing" textLength="77" x="1173.5" y="128.499">abrirCursos()</text></g><!--link GestionView to AbrirProfesores--><g id="link_GestionView_AbrirProfesores"><path d="M943.53,71.842 C1044.37,85.172 1259.5,113.602 1259.5,113.602 C1259.5,113.602 1391.8877,141.3506 1487.2177,161.3406 " fill="none" id="GestionView-to-AbrirProfesores" style="stroke:#181818;stroke-width:1.0;stroke-dasharray:7.0,7.0;"/><polygon fill="#181818" points="1493.09,162.572,1485.1025,156.8101,1488.1964,161.5458,1483.4607,164.6398,1493.09,162.572" style="stroke:#181818;stroke-width:1.0;"/><text fill="#000000" font-family="sans-serif" font-size="13" lengthAdjust="spacing" textLength="100" x="1346.5" y="128.499">abrirProfesores()</text></g><!--link GestionView to AbrirEdificios--><g id="link_GestionView_AbrirEdificios"><path d="M943.95,69.532 C1082.94,81.512 1455.5,113.602 1455.5,113.602 C1455.5,113.602 1611.474,141.5241 1723.074,161.5141 " fill="none" id="GestionView-to-AbrirEdificios" style="stroke:#181818;stroke-width:1.0;stroke-dasharray:7.0,7.0;"/><polygon fill="#181818" points="1728.98,162.572,1720.8263,157.0478,1724.0583,161.6904,1719.4157,164.9225,1728.98,162.572" style="stroke:#181818;stroke-width:1.0;"/><text fill="#000000" font-family="sans-serif" font-size="13" lengthAdjust="spacing" textLength="84" x="1557.5" y="128.499">abrirEdificios()</text></g><!--link GestionView to AbrirAulas--><g id="link_GestionView_AbrirAulas"><path d="M943.71,68.382 C1113.99,79.272 1650.5,113.602 1650.5,113.602 C1650.5,113.602 1954.5,162.602 1954.5,162.602 C1954.5,162.602 1955.3602,162.744 1965.5902,164.434 " fill="none" id="GestionView-to-AbrirAulas" style="stroke:#181818;stroke-width:1.0;stroke-dasharray:7.0,7.0;"/><polygon fill="#181818" points="1971.51,165.412,1963.2823,159.9986,1966.5769,164.597,1961.9784,167.8916,1971.51,165.412" style="stroke:#181818;stroke-width:1.0;"/><text fill="#000000" font-family="sans-serif" font-size="13" lengthAdjust="spacing" textLength="68" x="1766.5" y="128.499">abrirAulas()</text></g><!--link GestionView to AbrirRecursos--><g id="link_GestionView_AbrirRecursos"><path d="M943.63,67.712 C1141.16,77.782 1843.5,113.602 1843.5,113.602 C1843.5,113.602 2178.5,162.602 2178.5,162.602 C2178.5,162.602 2179.3752,162.74 2189.8052,164.29 " fill="none" id="GestionView-to-AbrirRecursos" style="stroke:#181818;stroke-width:1.0;stroke-dasharray:7.0,7.0;"/><polygon fill="#181818" points="2195.74,165.172,2187.4257,159.8925,2190.7943,164.437,2186.2498,167.8056,2195.74,165.172" style="stroke:#181818;stroke-width:1.0;"/><text fill="#000000" font-family="sans-serif" font-size="13" lengthAdjust="spacing" textLength="90" x="1971.5" y="128.499">abrirRecursos()</text></g><!--link GestionView to AsignarProfesor--><g id="link_GestionView_AsignarProfesor"><path d="M943.87,67.222 C1170.61,76.552 2070.5,113.602 2070.5,113.602 C2070.5,113.602 2426.5,162.602 2426.5,162.602 C2426.5,162.602 2427.6387,162.7649 2438.4987,164.2949 " fill="none" id="GestionView-to-AsignarProfesor" style="stroke:#181818;stroke-width:1.0;stroke-dasharray:7.0,7.0;"/><polygon fill="#181818" points="2444.44,165.132,2436.086,159.9155,2439.4889,164.4345,2434.97,167.8373,2444.44,165.132" style="stroke:#181818;stroke-width:1.0;"/><text fill="#000000" font-family="sans-serif" font-size="13" lengthAdjust="spacing" textLength="146" x="2206.5" y="128.499">asignarProfesorACurso()</text></g><!--link GestionView to GenerarHorario--><g id="link_GestionView_GenerarHorario"><path d="M943.92,66.802 C1203.92,75.382 2361.5,113.602 2361.5,113.602 C2361.5,113.602 2565.0147,143.7231 2700.0147,163.7131 " fill="none" id="GestionView-to-GenerarHorario" style="stroke:#181818;stroke-width:1.0;stroke-dasharray:7.0,7.0;"/><polygon fill="#181818" points="2705.95,164.592,2697.633,159.3168,2701.0039,163.8596,2696.4612,167.2305,2705.95,164.592" style="stroke:#181818;stroke-width:1.0;"/><text fill="#000000" font-family="sans-serif" font-size="13" lengthAdjust="spacing" textLength="101" x="2484.5" y="128.499">generarHorario()</text></g><!--link GestionView to ConsultarHorario--><g id="link_GestionView_ConsultarHorario"><path d="M943.9,66.562 C1228.12,74.662 2594.5,113.602 2594.5,113.602 C2594.5,113.602 2814.047,144.0966 2957.837,164.0666 " fill="none" id="GestionView-to-ConsultarHorario" style="stroke:#181818;stroke-width:1.0;stroke-dasharray:7.0,7.0;"/><polygon fill="#181818" points="2963.78,164.892,2955.4158,159.6919,2958.8275,164.2042,2954.3153,167.6159,2963.78,164.892" style="stroke:#181818;stroke-width:1.0;"/><text fill="#000000" font-family="sans-serif" font-size="13" lengthAdjust="spacing" textLength="110" x="2725.5" y="128.499">consultarHorario()</text></g><!--link GestionView to CerrarSesion--><g id="link_GestionView_CerrarSesion"><path d="M943.71,66.372 C1251.69,74.022 2844.5,113.602 2844.5,113.602 C2844.5,113.602 3214.5,162.602 3214.5,162.602 C3214.5,162.602 3215.4999,162.7588 3226.0199,164.3788 " fill="none" id="GestionView-to-CerrarSesion" style="stroke:#181818;stroke-width:1.0;stroke-dasharray:7.0,7.0;"/><polygon fill="#181818" points="3231.95,165.292,3223.6636,159.9688,3227.0083,164.531,3222.4461,167.8756,3231.95,165.292" style="stroke:#181818;stroke-width:1.0;"/><text fill="#000000" font-family="sans-serif" font-size="13" lengthAdjust="spacing" textLength="82" x="2985.5" y="128.499">cerrarSesion()</text></g><!--SRC=[bPH1Rvmm48Nl_8hHvh9xs1oY9cfGjH8Xc_JGgb6YzcvWGgqOZCQWQblrltS0BskpeD0zUHxlVJisZCsRB2j1eW0bIwmF5KAbrQ4jWe0mhKMPAuIB-7v_5rt3AdoHfiP2mBqqbIvbed05me2LJsfGYVHDv0YfBYg5jQ17DBNKPUjUZSNrPWL_0k2VyvytLxVxXrkmbXyIVuqToNMItNo4U4IBTLcJLWff77YuYk8FUtX2AgJHvXahRMIjwJ1Z_5Qbp4Fp5SjcnlA2XYt1t-dZYhaDaMWItTQZX2GzaSxvm8Nf3iwNbZBYXhZz4w2l_wE3LpIQq6_1Qaif-qo-IZuU1p98InbHeznpwCgbsMTCHwTmL9OGZCnBCUowP_ZQ0ieZbaY2FdDDKdSGNrh0u8_LDAhsAMDn2GU9hVtNs3CS8GZE1XIsjDsvmmKXPFQfLF8tH_l8UXC4hcsRSMv-v4BuALe0FpjEprfaXIoPHYBJnBZvD6mPtlSSGexrTzEq-rzlk3kxVYzzFjmXwAHktylGKDEZMkeNxkjJ_s3t7jgz3a982PqzQhjecTwruH_U6OKtEJ3E-d6ZbvUxqMqHWl1gVbEJWVvsiEw-cBEUhe4Jt0fpaM7eRMAevmBTb5jpjvup7kVPUe_bbDqVNGxuGjJjUYBeZslxDjnw8Z2UJFuCHifKo1b53ZWLc_y1]--></g></svg>