<?xml version="1.0" encoding="us-ascii" standalone="no"?><svg xmlns="http://www.w3.org/2000/svg" xmlns:xlink="http://www.w3.org/1999/xlink" contentStyleType="text/css" height="442px" preserveAspectRatio="none" style="width:1761px;height:442px;background:#FFFFFF;" version="1.1" viewBox="0 0 1761 442" width="1761px" zoomAndPan="magnify"><defs/><g><!--cluster asignarProfesorACurso--><g id="cluster_asignarProfesorACurso"><path d="M159,6.602 L330,6.602 A3.75,3.75 0 0 1 332.5,9.102 L339.5,31.6699 L1523,31.6699 A2.5,2.5 0 0 1 1525.5,34.1699 L1525.5,433.102 A2.5,2.5 0 0 1 1523,435.602 L159,435.602 A2.5,2.5 0 0 1 156.5,433.102 L156.5,9.102 A2.5,2.5 0 0 1 159,6.602 " fill="none" style="stroke:#000000;stroke-width:1.5;"/><line style="stroke:#000000;stroke-width:1.5;" x1="156.5" x2="339.5" y1="31.6699" y2="31.6699"/><text fill="#000000" font-family="sans-serif" font-size="14" font-weight="bold" lengthAdjust="spacing" textLength="170" x="160.5" y="23.5679">asignarProfesorACurso()</text></g><!--entity AsignarProfesorACursoView--><g id="elem_AsignarProfesorACursoView"><rect fill="#629EF9" height="39.0679" rx="2.5" ry="2.5" style="stroke:#181818;stroke-width:0.5;" width="207" x="621" y="44.602"/><text fill="#000000" font-family="sans-serif" font-size="14" lengthAdjust="spacing" textLength="187" x="631" y="69.5679">AsignarProfesorACursoView</text></g><!--entity AsignacionProfesorCursoController--><g id="elem_AsignacionProfesorCursoController"><rect fill="#B5BD68" height="39.0679" rx="2.5" ry="2.5" style="stroke:#181818;stroke-width:0.5;" width="256" x="596.5" y="162.602"/><text fill="#000000" font-family="sans-serif" font-size="14" lengthAdjust="spacing" textLength="236" x="606.5" y="187.5679">AsignacionProfesorCursoController</text></g><!--entity ProfesorRepository--><g id="elem_ProfesorRepository"><rect fill="#F2AC4E" height="39.0679" rx="2.5" ry="2.5" style="stroke:#181818;stroke-width:0.5;" width="147" x="341" y="280.602"/><text fill="#000000" font-family="sans-serif" font-size="14" lengthAdjust="spacing" textLength="127" x="351" y="305.5679">ProfesorRepository</text></g><!--entity CursoRepository--><g id="elem_CursoRepository"><rect fill="#F2AC4E" height="39.0679" rx="2.5" ry="2.5" style="stroke:#181818;stroke-width:0.5;" width="130" x="997.5" y="280.602"/><text fill="#000000" font-family="sans-serif" font-size="14" lengthAdjust="spacing" textLength="110" x="1007.5" y="305.5679">CursoRepository</text></g><!--entity Profesor--><g id="elem_Profesor"><rect fill="#F2AC4E" height="39.0679" rx="2.5" ry="2.5" style="stroke:#181818;stroke-width:0.5;" width="76" x="292.5" y="380.602"/><text fill="#000000" font-family="sans-serif" font-size="14" lengthAdjust="spacing" textLength="56" x="302.5" y="405.5679">Profesor</text></g><!--entity AsignacionProfesorCurso--><g id="elem_AsignacionProfesorCurso"><rect fill="#F2AC4E" height="39.0679" rx="2.5" ry="2.5" style="stroke:#181818;stroke-width:0.5;" width="189" x="404" y="380.602"/><text fill="#000000" font-family="sans-serif" font-size="14" lengthAdjust="spacing" textLength="169" x="414" y="405.5679">AsignacionProfesorCurso</text></g><!--entity Curso--><g id="elem_Curso"><rect fill="#F2AC4E" height="39.0679" rx="2.5" ry="2.5" style="stroke:#181818;stroke-width:0.5;" width="59" x="1033" y="380.602"/><text fill="#000000" font-family="sans-serif" font-size="14" lengthAdjust="spacing" textLength="39" x="1043" y="405.5679">Curso</text></g><!--entity ProfesorAbierto--><g id="elem_ProfesorAbierto"><rect fill="#CDEBA5" height="39.0679" rx="2.5" ry="2.5" style="stroke:#181818;stroke-width:0.5;" width="133" x="7" y="44.602"/><text fill="#000000" font-family="sans-serif" font-size="14" lengthAdjust="spacing" textLength="113" x="17" y="69.5679">:Profesor Abierto</text></g><!--entity EditarProfesor--><g id="elem_EditarProfesor"><rect fill="#CDEBA5" height="39.0679" rx="2.5" ry="2.5" style="stroke:#181818;stroke-width:0.5;" width="214" x="1541.5" y="162.602"/><text fill="#000000" font-family="sans-serif" font-size="14" lengthAdjust="spacing" textLength="194" x="1551.5" y="187.5679">:Collaboration EditarProfesor</text></g><!--link ProfesorAbierto to AsignarProfesorACursoView--><g id="link_ProfesorAbierto_AsignarProfesorACursoView"><path d="M140.11,64.102 C253.77,64.102 479.96,64.102 614.94,64.102 " fill="none" id="ProfesorAbierto-to-AsignarProfesorACursoView" style="stroke:#181818;stroke-width:1.0;"/><polygon fill="#181818" points="620.94,64.102,611.94,60.102,615.94,64.102,611.94,68.102,620.94,64.102" style="stroke:#181818;stroke-width:1.0;"/><text fill="#000000" font-family="sans-serif" font-size="13" lengthAdjust="spacing" textLength="209" x="276" y="56.999">asignarProfesorACurso(profesorId)</text></g><!--link AsignarProfesorACursoView to AsignacionProfesorCursoController--><g id="link_AsignarProfesorACursoView_AsignacionProfesorCursoController"><path d="M620.73,82.882 C539.96,96.732 441.5,113.602 441.5,113.602 C441.5,113.602 441.5,132.602 441.5,132.602 C441.5,132.602 530.4963,147.8479 610.3863,161.5479 " fill="none" id="AsignarProfesorACursoView-to-AsignacionProfesorCursoController" style="stroke:#181818;stroke-width:1.0;"/><polygon fill="#181818" points="616.3,162.562,608.1056,157.0984,611.3719,161.7169,606.7534,164.9833,616.3,162.562" style="stroke:#181818;stroke-width:1.0;"/><text fill="#000000" font-family="sans-serif" font-size="13" lengthAdjust="spacing" textLength="238" x="442.5" y="128.499">cargarAsignacionesProfesor(profesorId)</text></g><!--link AsignarProfesorACursoView to AsignacionProfesorCursoController--><g id="link_AsignarProfesorACursoView_AsignacionProfesorCursoController"><path d="M723.35,83.712 C722.5,97.392 721.5,113.602 721.5,113.602 C721.5,113.602 721.5,132.602 721.5,132.602 C721.5,132.602 722.1279,142.8235 722.9779,156.5035 " fill="none" id="AsignarProfesorACursoView-to-AsignacionProfesorCursoController-1" style="stroke:#181818;stroke-width:1.0;"/><polygon fill="#181818" points="723.35,162.492,726.7842,153.2612,723.0399,157.5016,718.7996,153.7574,723.35,162.492" style="stroke:#181818;stroke-width:1.0;"/><text fill="#000000" font-family="sans-serif" font-size="13" lengthAdjust="spacing" textLength="259" x="722.5" y="128.499">asignarCurso(profesorId, cursoId) : boolean</text></g><!--link AsignarProfesorACursoView to AsignacionProfesorCursoController--><g id="link_AsignarProfesorACursoView_AsignacionProfesorCursoController"><path d="M824.67,83.642 C898.64,97.342 986.5,113.602 986.5,113.602 C986.5,113.602 986.5,132.602 986.5,132.602 C986.5,132.602 904.5397,147.7693 830.5697,161.4693 " fill="none" id="AsignarProfesorACursoView-to-AsignacionProfesorCursoController-2" style="stroke:#181818;stroke-width:1.0;"/><polygon fill="#181818" points="824.67,162.562,834.248,164.8561,829.5864,161.6514,832.791,156.9899,824.67,162.562" style="stroke:#181818;stroke-width:1.0;"/><text fill="#000000" font-family="sans-serif" font-size="13" lengthAdjust="spacing" textLength="280" x="987.5" y="128.499">desasignarCurso(profesorId, cursoId) : boolean</text></g><!--link AsignacionProfesorCursoController to ProfesorRepository--><g id="link_AsignacionProfesorCursoController_ProfesorRepository"><path d="M596.29,195.062 C442.32,209.422 204.5,231.602 204.5,231.602 C204.5,231.602 204.5,250.602 204.5,250.602 C204.5,250.602 274.404,266.7413 334.914,280.7213 " fill="none" id="AsignacionProfesorCursoController-to-ProfesorRepository" style="stroke:#181818;stroke-width:1.0;"/><polygon fill="#181818" points="340.76,282.072,332.8914,276.1487,335.8883,280.9464,331.0906,283.9434,340.76,282.072" style="stroke:#181818;stroke-width:1.0;"/><text fill="#000000" font-family="sans-serif" font-size="13" lengthAdjust="spacing" textLength="281" x="205.5" y="246.499">obtenerConAsignaciones(profesorId) : Profesor</text></g><!--link AsignacionProfesorCursoController to ProfesorRepository--><g id="link_AsignacionProfesorCursoController_ProfesorRepository"><path d="M649.18,201.642 C593.57,215.342 527.5,231.602 527.5,231.602 C527.5,231.602 484.2707,257.4245 450.8307,277.4045 " fill="none" id="AsignacionProfesorCursoController-to-ProfesorRepository-1" style="stroke:#181818;stroke-width:1.0;"/><polygon fill="#181818" points="445.68,280.482,455.4576,279.2996,449.9722,277.9174,451.3543,272.432,445.68,280.482" style="stroke:#181818;stroke-width:1.0;"/><text fill="#000000" font-family="sans-serif" font-size="13" lengthAdjust="spacing" textLength="347" x="528.5" y="246.499">actualizarAsignaciones(profesorId, asignaciones) : boolean</text></g><!--link AsignacionProfesorCursoController to CursoRepository--><g id="link_AsignacionProfesorCursoController_CursoRepository"><path d="M784.37,201.712 C828.36,215.392 880.5,231.602 880.5,231.602 C880.5,231.602 916.5,250.602 916.5,250.602 C916.5,250.602 959.6061,264.92 1000.7761,278.6 " fill="none" id="AsignacionProfesorCursoController-to-CursoRepository" style="stroke:#181818;stroke-width:1.0;"/><polygon fill="#181818" points="1006.47,280.492,999.1905,273.8581,1001.7251,278.9153,996.6678,281.45,1006.47,280.492" style="stroke:#181818;stroke-width:1.0;"/><text fill="#000000" font-family="sans-serif" font-size="13" lengthAdjust="spacing" textLength="245" x="917.5" y="246.499">obtenerCursosDisponibles() : List&lt;Curso&gt;</text></g><!--link AsignacionProfesorCursoController to CursoRepository--><g id="link_AsignacionProfesorCursoController_CursoRepository"><path d="M852.63,197.132 C983.47,211.452 1167.5,231.602 1167.5,231.602 C1167.5,231.602 1167.5,250.602 1167.5,250.602 C1167.5,250.602 1137.8568,264.2955 1108.2468,277.9755 " fill="none" id="AsignacionProfesorCursoController-to-CursoRepository-1" style="stroke:#181818;stroke-width:1.0;"/><polygon fill="#181818" points="1102.8,280.492,1112.6478,280.3485,1107.339,278.3949,1109.2925,273.0861,1102.8,280.492" style="stroke:#181818;stroke-width:1.0;"/><text fill="#000000" font-family="sans-serif" font-size="13" lengthAdjust="spacing" textLength="301" x="1168.5" y="246.499">obtenerCursosAsignados(profesorId) : List&lt;Curso&gt;</text></g><!--link ProfesorRepository to Profesor--><g id="link_ProfesorRepository_Profesor"><path d="M398.3,320.002 C383.33,337.462 361.22,363.262 346.36,380.592 " fill="none" id="ProfesorRepository-Profesor" style="stroke:#181818;stroke-width:1.0;"/></g><!--link ProfesorRepository to AsignacionProfesorCurso--><g id="link_ProfesorRepository_AsignacionProfesorCurso"><path d="M430.7,320.002 C445.67,337.462 467.78,363.262 482.64,380.592 " fill="none" id="ProfesorRepository-AsignacionProfesorCurso" style="stroke:#181818;stroke-width:1.0;"/></g><!--link CursoRepository to Curso--><g id="link_CursoRepository_Curso"><path d="M1062.5,320.002 C1062.5,337.462 1062.5,363.262 1062.5,380.592 " fill="none" id="CursoRepository-Curso" style="stroke:#181818;stroke-width:1.0;"/></g><!--link AsignarProfesorACursoView to EditarProfesor--><g id="link_AsignarProfesorACursoView_EditarProfesor"><path d="M828,74.192 C987.84,88.242 1276.5,113.602 1276.5,113.602 C1276.5,113.602 1430.3265,141.5104 1540.4565,161.5004 " fill="none" id="AsignarProfesorACursoView-to-EditarProfesor" style="stroke:#181818;stroke-width:1.0;stroke-dasharray:7.0,7.0;"/><polygon fill="#181818" points="1546.36,162.572,1538.2191,157.0289,1541.4404,161.679,1536.7903,164.9003,1546.36,162.572" style="stroke:#181818;stroke-width:1.0;"/><text fill="#000000" font-family="sans-serif" font-size="13" lengthAdjust="spacing" textLength="217" x="1376.5" y="128.499">&#171;include&#187; editarProfesor(profesorId)</text></g><!--SRC=[hLHTQuCm57tFhxYubnPc7yfQLYc2inO6UnXxs7lKEmdD4abIHZVstwTMwqVLTNI-vPvppqdkITGx9bAgw3jm9j0SKeHKyaE-84HXPAX8ECADlmaUl0LOphEIRwYb0Yzag8oqW6geYcMjjz6NdDDGAcgO5134p51LzHKYxH8XAOrsDC4COece0S_VAotp1giNcKmj-2AGVOrTBEUhOBi2hw_XbU57bnykmdXvN_AZRCDLIz7XIs5KTXnKtRxjtFFlWjCyNZ2LcXcf3WF4GkvNrcac_V30BiSioJSXdT30LhOxF26dFuT9MYuVuoaXWzrWnoVnaN4w456LK5KJKLVKFgSHAR0pm_CS792XGO4gOpPTckhWr1E_pASJOssIr_M6wLGA5lBC9XT_Ojgi2yZz5_sZHYoxXsZwZ4LpMJ9b_DtKRo7AAqV7K4gEL5nl5gF-YzyLru56Payv-snVkfOXRG0jrtEzpAQ-E_tmq6ljP9nJZy38D6Spj_FRT62zPYBY-nXT5x25jLxG3m00]--></g></svg>