<?xml version="1.0" encoding="us-ascii" standalone="no"?><svg xmlns="http://www.w3.org/2000/svg" xmlns:xlink="http://www.w3.org/1999/xlink" contentStyleType="text/css" height="713px" preserveAspectRatio="none" style="width:601px;height:713px;background:#FFFFFF;" version="1.1" viewBox="0 0 601 713" width="601px" zoomAndPan="magnify"><defs/><g><path d="M19.5,7 L375.5,7 A12.5,12.5 0 0 1 388,19.5 L388,36.0679 L7,36.0679 L7,19.5 A12.5,12.5 0 0 1 19.5,7 " fill="#F1F1F1" style="stroke:#F1F1F1;stroke-width:1.0;"/><rect fill="none" height="553.0679" rx="12.5" ry="12.5" style="stroke:#181818;stroke-width:0.5;" width="381" x="7" y="7"/><line style="stroke:#181818;stroke-width:0.5;" x1="7" x2="388" y1="36.0679" y2="36.0679"/><text fill="#000000" font-family="sans-serif" font-size="14" lengthAdjust="spacing" textLength="94" x="150.5" y="26.9659">eliminarAula()</text><g id="eliminarAula.ConfirmandoEliminacion"><rect fill="#F1F1F1" height="50" rx="12.5" ry="12.5" style="stroke:#181818;stroke-width:0.5;" width="50" x="19" y="140.0679"/><line style="stroke:#181818;stroke-width:0.5;" x1="19" x2="69" y1="169.1358" y2="169.1358"/><text fill="#000000" font-family="sans-serif" font-size="14" lengthAdjust="spacing" textLength="4" x="42" y="160.0339">&#160;</text></g><g id="eliminarAula.EliminandoAula"><rect fill="#F1F1F1" height="50" rx="12.5" ry="12.5" style="stroke:#181818;stroke-width:0.5;" width="50" x="19" y="369.0679"/><line style="stroke:#181818;stroke-width:0.5;" x1="19" x2="69" y1="398.1358" y2="398.1358"/><text fill="#000000" font-family="sans-serif" font-size="14" lengthAdjust="spacing" textLength="4" x="42" y="389.0339">&#160;</text></g><ellipse cx="44" cy="57.0679" fill="#222222" rx="10" ry="10" style="stroke:#222222;stroke-width:1.0;"/><ellipse cx="44" cy="539.0679" fill="none" rx="11" ry="11" style="stroke:#222222;stroke-width:1.0;"/><ellipse cx="44" cy="539.0679" fill="#222222" rx="6" ry="6" style="stroke:#222222;stroke-width:1.0;"/><!--link *start*eliminarAula to ConfirmandoEliminacion--><g id="link_*start*eliminarAula_ConfirmandoEliminacion"><path d="M44,67.1079 C44,83.0279 44,110.5779 44,133.7079 " fill="none" id="*start*eliminarAula-to-ConfirmandoEliminacion" style="stroke:#008000;stroke-width:1.0;"/><polygon fill="#008000" points="44,139.7079,48,130.7079,44,134.7079,40,130.7079,44,139.7079" style="stroke:#008000;stroke-width:1.0;"/><path d="M49,90.0679 L49,117.0679 L288,117.0679 L288,100.0679 L278,90.0679 L49,90.0679 " fill="#FEFFDD" style="stroke:#181818;stroke-width:0.5;"/><path d="M278,90.0679 L278,100.0679 L288,100.0679 L278,90.0679 " fill="#FEFFDD" style="stroke:#181818;stroke-width:0.5;"/><text fill="#000000" font-family="sans-serif" font-size="13" font-weight="bold" lengthAdjust="spacing" textLength="95" x="55" y="108.9649">Administrador</text><text fill="#000000" font-family="sans-serif" font-size="13" lengthAdjust="spacing" textLength="120" x="153" y="108.9649">solicita eliminar aula</text></g><!--link ConfirmandoEliminacion to EliminandoAula--><g id="link_ConfirmandoEliminacion_EliminandoAula"><path d="M44,190.3579 C44,234.0479 44,319.3879 44,362.9479 " fill="none" id="ConfirmandoEliminacion-to-EliminandoAula" style="stroke:#008000;stroke-width:1.0;"/><polygon fill="#008000" points="44,368.9479,48,359.9479,44,363.9479,40,359.9479,44,368.9479" style="stroke:#008000;stroke-width:1.0;"/><path d="M49,213.0679 L49,346.0679 L363,346.0679 L363,223.0679 L353,213.0679 L49,213.0679 " fill="#FEFFDD" style="stroke:#181818;stroke-width:0.5;"/><path d="M353,213.0679 L353,223.0679 L363,223.0679 L353,213.0679 " fill="#FEFFDD" style="stroke:#181818;stroke-width:0.5;"/><text fill="#000000" font-family="sans-serif" font-size="13" font-weight="bold" lengthAdjust="spacing" textLength="52" x="55" y="231.9649">Sistema</text><text fill="#000000" font-family="sans-serif" font-size="13" lengthAdjust="spacing" textLength="238" x="110" y="231.9649">presenta informaci&#243;n del aula a eliminar</text><text fill="#000000" font-family="sans-serif" font-size="13" lengthAdjust="spacing" textLength="154" x="55" y="249.6709">&#8226; C&#243;digo, nombre del aula</text><text fill="#000000" font-family="sans-serif" font-size="13" lengthAdjust="spacing" textLength="172" x="55" y="267.377">&#8226; Edificio asociado, capacidad</text><text fill="#000000" font-family="sans-serif" font-size="13" lengthAdjust="spacing" textLength="183" x="55" y="285.083">&#8226; Tipo, recursos, observaciones</text><text fill="#000000" font-family="sans-serif" font-size="13" lengthAdjust="spacing" textLength="223" x="55" y="302.789">&#8226; Presenta advertencia de eliminaci&#243;n</text><text fill="#000000" font-family="sans-serif" font-size="13" lengthAdjust="spacing" textLength="236" x="55" y="320.495">&#8226; Permite solicitar confirmar eliminaci&#243;n</text><text fill="#000000" font-family="sans-serif" font-size="13" lengthAdjust="spacing" textLength="227" x="55" y="338.201">&#8226; Permite solicitar cancelar eliminaci&#243;n</text></g><!--link EliminandoAula to *end*eliminarAula--><g id="link_EliminandoAula_*end*eliminarAula"><path d="M44,419.3279 C44,451.0379 44,499.1979 44,521.7479 " fill="none" id="EliminandoAula-to-*end*eliminarAula" style="stroke:#008000;stroke-width:1.0;"/><polygon fill="#008000" points="44,527.7479,48,518.7479,44,522.7479,40,518.7479,44,527.7479" style="stroke:#008000;stroke-width:1.0;"/><path d="M49,442.0679 L49,505.0679 L379,505.0679 L379,452.0679 L369,442.0679 L49,442.0679 " fill="#FEFFDD" style="stroke:#181818;stroke-width:0.5;"/><path d="M369,442.0679 L369,452.0679 L379,452.0679 L369,442.0679 " fill="#FEFFDD" style="stroke:#181818;stroke-width:0.5;"/><text fill="#000000" font-family="sans-serif" font-size="13" font-weight="bold" lengthAdjust="spacing" textLength="95" x="55" y="460.9649">Administrador</text><text fill="#000000" font-family="sans-serif" font-size="13" lengthAdjust="spacing" textLength="211" x="153" y="460.9649">solicita confirmaci&#243;n de eliminaci&#243;n</text><text fill="#000000" font-family="sans-serif" font-size="13" font-weight="bold" lengthAdjust="spacing" textLength="52" x="55" y="478.6709">Sistema</text><text fill="#000000" font-family="sans-serif" font-size="13" lengthAdjust="spacing" textLength="228" x="110" y="478.6709">permite solicitar confirmar eliminaci&#243;n</text><text fill="#000000" font-family="sans-serif" font-size="13" font-weight="bold" lengthAdjust="spacing" textLength="95" x="55" y="496.377">Administrador</text><text fill="#000000" font-family="sans-serif" font-size="13" lengthAdjust="spacing" textLength="173" x="153" y="496.377">solicita confirmar eliminaci&#243;n</text></g><g id="AULAS_ABIERTO"><rect fill="#F1F1F1" height="50" rx="12.5" ry="12.5" style="stroke:#181818;stroke-width:0.5;" width="128" x="133.5" y="657"/><line style="stroke:#181818;stroke-width:0.5;" x1="133.5" x2="261.5" y1="686.0679" y2="686.0679"/><text fill="#000000" font-family="sans-serif" font-size="14" lengthAdjust="spacing" textLength="108" x="143.5" y="676.9659">AULAS_ABIERTO</text></g><!--link eliminarAula to AULAS_ABIERTO--><g id="link_eliminarAula_AULAS_ABIERTO"><path d="M58.55,560.15 C49.26,578.58 43.5,590 43.5,590 C43.5,590 43.5,627 43.5,627 C43.5,627 85.2181,641.6243 127.4181,656.4243 " fill="none" id="eliminarAula-to-AULAS_ABIERTO" style="stroke:#008000;stroke-width:1.0;"/><polygon fill="#008000" points="133.08,658.41,125.911,651.6569,128.3618,656.7553,123.2634,659.2061,133.08,658.41" style="stroke:#008000;stroke-width:1.0;"/><path d="M48.5,595 L48.5,622 L301.5,622 L301.5,605 L291.5,595 L48.5,595 " fill="#FEFFDD" style="stroke:#181818;stroke-width:0.5;"/><path d="M291.5,595 L291.5,605 L301.5,605 L291.5,595 " fill="#FEFFDD" style="stroke:#181818;stroke-width:0.5;"/><text fill="#000000" font-family="sans-serif" font-size="13" lengthAdjust="spacing" textLength="232" x="54.5" y="613.897">&#171;include&#187; abrirAulas() - lista actualizada</text></g><!--link eliminarAula to AULAS_ABIERTO--><g id="link_eliminarAula_AULAS_ABIERTO"><path d="M299.46,560.15 C306.28,578.58 310.5,590 310.5,590 C310.5,590 310.5,627 310.5,627 C310.5,627 283.5543,639.8843 253.4643,654.2543 " fill="none" id="eliminarAula-to-AULAS_ABIERTO-1" style="stroke:#0000FF;stroke-width:1.0;"/><polygon fill="#0000FF" points="248.05,656.84,257.8952,656.571,252.5619,654.6853,254.4476,649.352,248.05,656.84" style="stroke:#0000FF;stroke-width:1.0;"/><path d="M315.5,595 L315.5,622 L594.5,622 L594.5,605 L584.5,595 L315.5,595 " fill="#FEFFDD" style="stroke:#181818;stroke-width:0.5;"/><path d="M584.5,595 L584.5,605 L594.5,605 L584.5,595 " fill="#FEFFDD" style="stroke:#181818;stroke-width:0.5;"/><text fill="#000000" font-family="sans-serif" font-size="13" lengthAdjust="spacing" textLength="258" x="321.5" y="613.897">&#171;include&#187; abrirAulas() - cancelar eliminaci&#243;n</text></g><!--SRC=[dLDTIWCn47xFAORwejBY1Sh2AdqG1CNM9n6PJQOoc4sMPBTGHV0iNi4ZU1DFukpMtRQsbMeM5f9y-NvcalZ8hi20ELXsLCuBWiBRUJrHAfPO4f3bd1s6jB886A6tkd1ur8DdfK360jsJJq1dtaqvvEYC7otWchtRn7rl2gncMn3T7j_1uFRW8H2vkq6oWmiQhFF29HCn_DWi3BCaDOBXM0OqFWnFiWIYjwovn2uBOArMuycP1OaCrVrsIAww-k5ybvcn6A4S6nj5e4XERB2RUc7N_F7km91jxC3INdFuy_KDpZxU3J_ulb3dMQ0Esm56XgSIpKijlMO9t0UDXJ0RD1remeMi1z9LY3xsmMUHmgo9HB53NRNkqCmebEI4JmHRKutP9PX2pfAshMm0_LsoiFS1T9hiDdpRasK_rekzrWUvBV-v2QtTjWURBdusxo-9zzF-BVgBKciFRpLoUdEHZk_Jq_FHzUHIhGKV3jbfMnbA4i0iS7Cu7Xx1GFPZtLnTLcZv2GsgJcn3AhCL_LzfUsSxjIy0]--></g></svg>