<?xml version="1.0" encoding="us-ascii" standalone="no"?><svg xmlns="http://www.w3.org/2000/svg" xmlns:xlink="http://www.w3.org/1999/xlink" contentStyleType="text/css" height="1371px" preserveAspectRatio="none" style="width:1666px;height:1371px;background:#FFFFFF;" version="1.1" viewBox="0 0 1666 1371" width="1666px" zoomAndPan="magnify"><defs/><g><g id="NoAuth"><rect fill="#F1F1F1" height="50" rx="12.5" ry="12.5" style="stroke:#181818;stroke-width:0.5;" width="140" x="7" y="645"/><line style="stroke:#181818;stroke-width:0.5;" x1="7" x2="147" y1="674.0679" y2="674.0679"/><text fill="#000000" font-family="sans-serif" font-size="14" lengthAdjust="spacing" textLength="120" x="17" y="664.9659">SESION_CERRADA</text></g><g id="Menu"><rect fill="#F1F1F1" height="50" rx="12.5" ry="12.5" style="stroke:#181818;stroke-width:0.5;" width="167" x="291" y="645"/><line style="stroke:#181818;stroke-width:0.5;" x1="291" x2="458" y1="674.0679" y2="674.0679"/><text fill="#000000" font-family="sans-serif" font-size="14" lengthAdjust="spacing" textLength="147" x="301" y="664.9659">SISTEMA_DISPONIBLE</text></g><g id="ListProgramas"><rect fill="#F1F1F1" height="50" rx="12.5" ry="12.5" style="stroke:#181818;stroke-width:0.5;" width="171" x="642.5" y="129"/><line style="stroke:#181818;stroke-width:0.5;" x1="642.5" x2="813.5" y1="158.0679" y2="158.0679"/><text fill="#000000" font-family="sans-serif" font-size="14" lengthAdjust="spacing" textLength="151" x="652.5" y="148.9659">PROGRAMAS_ABIERTO</text></g><g id="EditPrograma"><rect fill="#F1F1F1" height="50" rx="12.5" ry="12.5" style="stroke:#181818;stroke-width:0.5;" width="163" x="979" y="70"/><line style="stroke:#181818;stroke-width:0.5;" x1="979" x2="1142" y1="99.0679" y2="99.0679"/><text fill="#000000" font-family="sans-serif" font-size="14" lengthAdjust="spacing" textLength="143" x="989" y="89.9659">PROGRAMA_ABIERTO</text></g><g id="ListCursos"><rect fill="#F1F1F1" height="50" rx="12.5" ry="12.5" style="stroke:#181818;stroke-width:0.5;" width="140" x="658" y="306"/><line style="stroke:#181818;stroke-width:0.5;" x1="658" x2="798" y1="335.0679" y2="335.0679"/><text fill="#000000" font-family="sans-serif" font-size="14" lengthAdjust="spacing" textLength="120" x="668" y="325.9659">CURSOS_ABIERTO</text></g><g id="EditCurso"><rect fill="#F1F1F1" height="50" rx="12.5" ry="12.5" style="stroke:#181818;stroke-width:0.5;" width="132" x="994.5" y="247"/><line style="stroke:#181818;stroke-width:0.5;" x1="994.5" x2="1126.5" y1="276.0679" y2="276.0679"/><text fill="#000000" font-family="sans-serif" font-size="14" lengthAdjust="spacing" textLength="112" x="1004.5" y="266.9659">CURSO_ABIERTO</text></g><g id="ListProfesores"><rect fill="#F1F1F1" height="50" rx="12.5" ry="12.5" style="stroke:#181818;stroke-width:0.5;" width="172" x="642" y="438"/><line style="stroke:#181818;stroke-width:0.5;" x1="642" x2="814" y1="467.0679" y2="467.0679"/><text fill="#000000" font-family="sans-serif" font-size="14" lengthAdjust="spacing" textLength="152" x="652" y="457.9659">PROFESORES_ABIERTO</text></g><g id="EditProfesor"><rect fill="#F1F1F1" height="50" rx="12.5" ry="12.5" style="stroke:#181818;stroke-width:0.5;" width="156" x="982.5" y="424"/><line style="stroke:#181818;stroke-width:0.5;" x1="982.5" x2="1138.5" y1="453.0679" y2="453.0679"/><text fill="#000000" font-family="sans-serif" font-size="14" lengthAdjust="spacing" textLength="136" x="992.5" y="443.9659">PROFESOR_ABIERTO</text></g><g id="EditProfesorPreferencias"><rect fill="#F1F1F1" height="50" rx="12.5" ry="12.5" style="stroke:#181818;stroke-width:0.5;" width="261" x="1398" y="374"/><line style="stroke:#181818;stroke-width:0.5;" x1="1398" x2="1659" y1="403.0679" y2="403.0679"/><text fill="#000000" font-family="sans-serif" font-size="14" lengthAdjust="spacing" textLength="241" x="1408" y="393.9659">PROFESOR_PREFERENCIAS_ABIERTO</text></g><g id="ListEdificios"><rect fill="#F1F1F1" height="50" rx="12.5" ry="12.5" style="stroke:#181818;stroke-width:0.5;" width="153" x="651.5" y="601"/><line style="stroke:#181818;stroke-width:0.5;" x1="651.5" x2="804.5" y1="630.0679" y2="630.0679"/><text fill="#000000" font-family="sans-serif" font-size="14" lengthAdjust="spacing" textLength="133" x="661.5" y="620.9659">EDIFICIOS_ABIERTO</text></g><g id="EditEdificio"><rect fill="#F1F1F1" height="50" rx="12.5" ry="12.5" style="stroke:#181818;stroke-width:0.5;" width="145" x="988" y="601"/><line style="stroke:#181818;stroke-width:0.5;" x1="988" x2="1133" y1="630.0679" y2="630.0679"/><text fill="#000000" font-family="sans-serif" font-size="14" lengthAdjust="spacing" textLength="125" x="998" y="620.9659">EDIFICIO_ABIERTO</text></g><g id="ListAulas"><rect fill="#F1F1F1" height="50" rx="12.5" ry="12.5" style="stroke:#181818;stroke-width:0.5;" width="128" x="664" y="733"/><line style="stroke:#181818;stroke-width:0.5;" x1="664" x2="792" y1="762.0679" y2="762.0679"/><text fill="#000000" font-family="sans-serif" font-size="14" lengthAdjust="spacing" textLength="108" x="674" y="752.9659">AULAS_ABIERTO</text></g><g id="EditAula"><rect fill="#F1F1F1" height="50" rx="12.5" ry="12.5" style="stroke:#181818;stroke-width:0.5;" width="118" x="1001.5" y="778"/><line style="stroke:#181818;stroke-width:0.5;" x1="1001.5" x2="1119.5" y1="807.0679" y2="807.0679"/><text fill="#000000" font-family="sans-serif" font-size="14" lengthAdjust="spacing" textLength="98" x="1011.5" y="797.9659">AULA_ABIERTA</text></g><g id="ListRecursos"><rect fill="#F1F1F1" height="50" rx="12.5" ry="12.5" style="stroke:#181818;stroke-width:0.5;" width="157" x="649.5" y="884"/><line style="stroke:#181818;stroke-width:0.5;" x1="649.5" x2="806.5" y1="913.0679" y2="913.0679"/><text fill="#000000" font-family="sans-serif" font-size="14" lengthAdjust="spacing" textLength="137" x="659.5" y="903.9659">RECURSOS_ABIERTO</text></g><g id="EditRecurso"><rect fill="#F1F1F1" height="50" rx="12.5" ry="12.5" style="stroke:#181818;stroke-width:0.5;" width="149" x="986" y="955"/><line style="stroke:#181818;stroke-width:0.5;" x1="986" x2="1135" y1="984.0679" y2="984.0679"/><text fill="#000000" font-family="sans-serif" font-size="14" lengthAdjust="spacing" textLength="129" x="996" y="974.9659">RECURSO_ABIERTO</text></g><g id="Asignaciones"><rect fill="#F1F1F1" height="50" rx="12.5" ry="12.5" style="stroke:#181818;stroke-width:0.5;" width="258" x="1399.5" y="475"/><line style="stroke:#181818;stroke-width:0.5;" x1="1399.5" x2="1657.5" y1="504.0679" y2="504.0679"/><text fill="#000000" font-family="sans-serif" font-size="14" lengthAdjust="spacing" textLength="238" x="1409.5" y="494.9659">PROFESOR_ASIGNATURAS_ABIERTO</text></g><g id="Generacion"><rect fill="#F1F1F1" height="50" rx="12.5" ry="12.5" style="stroke:#181818;stroke-width:0.5;" width="166" x="645" y="969"/><line style="stroke:#181818;stroke-width:0.5;" x1="645" x2="811" y1="998.0679" y2="998.0679"/><text fill="#000000" font-family="sans-serif" font-size="14" lengthAdjust="spacing" textLength="146" x="655" y="988.9659">HORARIO_GENERADO</text></g><g id="Consulta"><rect fill="#F1F1F1" height="50" rx="12.5" ry="12.5" style="stroke:#181818;stroke-width:0.5;" width="149" x="653.5" y="1070"/><line style="stroke:#181818;stroke-width:0.5;" x1="653.5" x2="802.5" y1="1099.0679" y2="1099.0679"/><text fill="#000000" font-family="sans-serif" font-size="14" lengthAdjust="spacing" textLength="129" x="663.5" y="1089.9659">HORARIO_ABIERTO</text></g><!--link NoAuth to Menu--><g id="link_NoAuth_Menu"><path d="M147.28,670 C190.27,670 239.74,670 285,670 " fill="none" id="NoAuth-to-Menu" style="stroke:#B8860B;stroke-width:2.0;"/><polygon fill="#B8860B" points="291,670,282,666,286,670,282,674,291,670" style="stroke:#B8860B;stroke-width:2.0;"/><text fill="#000000" font-family="sans-serif" font-size="13" lengthAdjust="spacing" textLength="82" x="178" y="665.897">iniciarSesion()</text></g><!--link Menu to NoAuth--><g id="link_Menu_NoAuth"><path d="M290.85,689.84 C273.84,693.92 261,697 261,697 C261,697 177,697 177,697 C177,697 169.5787,694.9784 152.8187,690.4084 " fill="none" id="Menu-to-NoAuth" style="stroke:#B8860B;stroke-width:2.0;"/><polygon fill="#B8860B" points="147.03,688.83,154.6607,695.0567,151.8539,690.1453,156.7653,687.3385,147.03,688.83" style="stroke:#B8860B;stroke-width:2.0;"/><text fill="#000000" font-family="sans-serif" font-size="13" lengthAdjust="spacing" textLength="82" x="178" y="692.897">cerrarSesion()</text></g><!--link Menu to ListProgramas--><g id="link_Menu_ListProgramas"><path d="M381.79,644.73 C405.48,549.54 488,218 488,218 C488,218 567.8542,196.612 636.6042,178.202 " fill="none" id="Menu-to-ListProgramas" style="stroke:#B8860B;stroke-width:2.0;"/><polygon fill="#B8860B" points="642.4,176.65,632.6716,175.1141,637.5702,177.9433,634.741,182.8419,642.4,176.65" style="stroke:#B8860B;stroke-width:2.0;"/><text fill="#000000" font-family="sans-serif" font-size="13" lengthAdjust="spacing" textLength="102" x="499" y="181.897">abrirProgramas()</text></g><!--link ListProgramas to Menu--><g id="link_ListProgramas_Menu"><path d="M695.27,179.11 C661.23,206.04 612,245 612,245 C612,245 488,326 488,326 C488,326 411.4351,560.1173 385.5451,639.2773 " fill="none" id="ListProgramas-to-Menu" style="stroke:#B8860B;stroke-width:2.0;"/><polygon fill="#B8860B" points="383.68,644.98,390.2795,637.6693,385.2343,640.2277,382.6759,635.1825,383.68,644.98" style="stroke:#B8860B;stroke-width:2.0;"/><text fill="#000000" font-family="sans-serif" font-size="13" lengthAdjust="spacing" textLength="115" x="492.5" y="240.897">completarGestion()</text></g><!--link Menu to ListCursos--><g id="link_Menu_ListCursos"><path d="M385.09,644.76 C412.3,573.18 488,374 488,374 C488,374 581.3848,357.2026 651.9648,344.5026 " fill="none" id="Menu-to-ListCursos" style="stroke:#B8860B;stroke-width:2.0;"/><polygon fill="#B8860B" points="657.87,343.44,648.3039,341.0971,652.949,344.3255,649.7206,348.9706,657.87,343.44" style="stroke:#B8860B;stroke-width:2.0;"/><text fill="#000000" font-family="sans-serif" font-size="13" lengthAdjust="spacing" textLength="77" x="511.5" y="348.897">abrirCursos()</text></g><!--link ListCursos to Menu--><g id="link_ListCursos_Menu"><path d="M676.08,356.16 C657.98,365.1 642,373 642,373 C642,373 612,401 612,401 C612,401 488,456 488,456 C488,456 421.4418,582.6091 391.6418,639.2991 " fill="none" id="ListCursos-to-Menu" style="stroke:#B8860B;stroke-width:2.0;"/><polygon fill="#B8860B" points="388.85,644.61,396.5783,638.5048,391.1765,640.1842,389.497,634.7824,388.85,644.61" style="stroke:#B8860B;stroke-width:2.0;"/><text fill="#000000" font-family="sans-serif" font-size="13" lengthAdjust="spacing" textLength="115" x="492.5" y="396.897">completarGestion()</text></g><!--link Menu to ListProfesores--><g id="link_Menu_ListProfesores"><path d="M392.34,644.85 C423.73,597.98 488,502 488,502 C488,502 567.1683,489.0762 635.8083,477.8762 " fill="none" id="Menu-to-ListProfesores" style="stroke:#B8860B;stroke-width:2.0;"/><polygon fill="#B8860B" points="641.73,476.91,632.2033,474.4116,636.7953,477.7152,633.4916,482.3072,641.73,476.91" style="stroke:#B8860B;stroke-width:2.0;"/><text fill="#000000" font-family="sans-serif" font-size="13" lengthAdjust="spacing" textLength="100" x="500" y="478.897">abrirProfesores()</text></g><!--link ListProfesores to Menu--><g id="link_ListProfesores_Menu"><path d="M683.2,488.14 C650.7,506.79 612,529 612,529 C612,529 488,593 488,593 C488,593 450.1011,618.9408 417.2911,641.4008 " fill="none" id="ListProfesores-to-Menu" style="stroke:#B8860B;stroke-width:2.0;"/><polygon fill="#B8860B" points="412.34,644.79,422.0261,643.0069,416.4659,641.9656,417.5071,636.4054,412.34,644.79" style="stroke:#B8860B;stroke-width:2.0;"/><text fill="#000000" font-family="sans-serif" font-size="13" lengthAdjust="spacing" textLength="115" x="492.5" y="524.897">completarGestion()</text></g><!--link Menu to ListEdificios--><g id="link_Menu_ListEdificios"><path d="M432.08,644.85 C460.09,632.4 488,620 488,620 C488,620 612,620 612,620 C612,620 623.7282,620.6055 645.2582,621.7355 " fill="none" id="Menu-to-ListEdificios" style="stroke:#B8860B;stroke-width:1.0;"/><polygon fill="#B8860B" points="651.25,622.05,642.472,617.5838,646.2569,621.7879,642.0527,625.5728,651.25,622.05" style="stroke:#B8860B;stroke-width:1.0;"/><text fill="#000000" font-family="sans-serif" font-size="13" lengthAdjust="spacing" textLength="84" x="508" y="615.897">abrirEdificios()</text></g><!--link ListEdificios to Menu--><g id="link_ListEdificios_Menu"><path d="M651.25,639.83 C629.72,643.76 612,647 612,647 C612,647 532.3918,654.7386 464.1918,661.3786 " fill="none" id="ListEdificios-to-Menu" style="stroke:#B8860B;stroke-width:1.0;"/><polygon fill="#B8860B" points="458.22,661.96,467.5653,665.0691,463.1965,661.4755,466.79,657.1067,458.22,661.96" style="stroke:#B8860B;stroke-width:1.0;"/><text fill="#000000" font-family="sans-serif" font-size="13" lengthAdjust="spacing" textLength="115" x="492.5" y="642.897">completarGestion()</text></g><!--link Menu to ListAulas--><g id="link_Menu_ListAulas"><path d="M458.36,690.74 C521.28,706.5 600.6696,726.3729 658.1096,740.7529 " fill="none" id="Menu-to-ListAulas" style="stroke:#B8860B;stroke-width:1.0;"/><polygon fill="#B8860B" points="663.93,742.21,656.1708,736.1441,659.0797,740.9957,654.228,743.9046,663.93,742.21" style="stroke:#B8860B;stroke-width:1.0;"/><text fill="#000000" font-family="sans-serif" font-size="13" lengthAdjust="spacing" textLength="68" x="516" y="693.897">abrirAulas()</text></g><!--link ListAulas to Menu--><g id="link_ListAulas_Menu"><path d="M663.89,756.94 C593.08,755.76 488,754 488,754 C488,754 447.1973,723.5402 414.0573,698.7902 " fill="none" id="ListAulas-to-Menu" style="stroke:#B8860B;stroke-width:1.0;"/><polygon fill="#B8860B" points="409.25,695.2,414.0675,703.7902,413.2561,698.1919,418.8544,697.3805,409.25,695.2" style="stroke:#B8860B;stroke-width:1.0;"/><text fill="#000000" font-family="sans-serif" font-size="13" lengthAdjust="spacing" textLength="115" x="492.5" y="749.897">completarGestion()</text></g><!--link Menu to ListRecursos--><g id="link_Menu_ListRecursos"><path d="M400.47,695.08 C433.61,728.37 488,783 488,783 C488,783 604.4926,844.4116 674.1926,881.1616 " fill="none" id="Menu-to-ListRecursos" style="stroke:#808080;stroke-width:1.0;stroke-dasharray:1.0,3.0;"/><polygon fill="#808080" points="679.5,883.96,673.4044,876.2241,675.0771,881.628,669.6732,883.3007,679.5,883.96" style="stroke:#808080;stroke-width:1.0;"/><text fill="#000000" font-family="sans-serif" font-size="13" lengthAdjust="spacing" textLength="90" x="505" y="778.897">abrirRecursos()</text></g><!--link ListRecursos to Menu--><g id="link_ListRecursos_Menu"><path d="M649.4,897.31 C579.62,886.8 488,873 488,873 C488,873 422.5885,754.9679 392.4285,700.5479 " fill="none" id="ListRecursos-to-Menu" style="stroke:#B8860B;stroke-width:2.0;"/><polygon fill="#B8860B" points="389.52,695.3,390.384,705.1109,391.9437,699.6733,397.3813,701.2329,389.52,695.3" style="stroke:#B8860B;stroke-width:2.0;"/><text fill="#000000" font-family="sans-serif" font-size="13" lengthAdjust="spacing" textLength="115" x="492.5" y="868.897">completarGestion()</text></g><!--link Menu to Generacion--><g id="link_Menu_Generacion"><path d="M386.91,695.14 C415.51,758.19 488,918 488,918 C488,918 572.7419,944.9524 642.3619,967.0824 " fill="none" id="Menu-to-Generacion" style="stroke:#808080;stroke-width:1.0;stroke-dasharray:1.0,3.0;"/><polygon fill="#808080" points="648.08,968.9,640.7146,962.3616,643.3149,967.3853,638.2912,969.9857,648.08,968.9" style="stroke:#808080;stroke-width:1.0;"/><text fill="#000000" font-family="sans-serif" font-size="13" lengthAdjust="spacing" textLength="101" x="499.5" y="913.897">generarHorario()</text></g><!--link Generacion to Menu--><g id="link_Generacion_Menu"><path d="M644.75,990.21 C575.62,987.03 488,983 488,983 C488,983 413.2391,775.0065 386.5491,700.7365 " fill="none" id="Generacion-to-Menu" style="stroke:#B8860B;stroke-width:2.0;"/><polygon fill="#B8860B" points="384.52,695.09,383.7994,704.9125,386.2109,699.7954,391.328,702.2069,384.52,695.09" style="stroke:#B8860B;stroke-width:2.0;"/><text fill="#000000" font-family="sans-serif" font-size="13" lengthAdjust="spacing" textLength="117" x="491.5" y="978.897">completarProceso()</text></g><!--link Menu to Consulta--><g id="link_Menu_Consulta"><path d="M383.68,695.09 C409.57,774.48 488,1015 488,1015 C488,1015 577.4302,1044.9358 647.6502,1068.4358 " fill="none" id="Menu-to-Consulta" style="stroke:#808080;stroke-width:1.0;stroke-dasharray:1.0,3.0;"/><polygon fill="#808080" points="653.34,1070.34,646.0747,1063.6905,648.5985,1068.7532,643.5358,1071.277,653.34,1070.34" style="stroke:#808080;stroke-width:1.0;"/><text fill="#000000" font-family="sans-serif" font-size="13" lengthAdjust="spacing" textLength="110" x="495" y="1010.897">consultarHorario()</text></g><!--link Consulta to Menu--><g id="link_Consulta_Menu"><path d="M653.34,1090.99 C583.12,1087.17 488,1082 488,1082 C488,1082 408.3702,790.3882 383.9502,700.9382 " fill="none" id="Consulta-to-Menu" style="stroke:#B8860B;stroke-width:2.0;"/><polygon fill="#B8860B" points="382.37,695.15,380.8815,704.8857,383.6868,699.9735,388.5991,702.7788,382.37,695.15" style="stroke:#B8860B;stroke-width:2.0;"/><text fill="#000000" font-family="sans-serif" font-size="13" lengthAdjust="spacing" textLength="122" x="489" y="1077.897">completarConsulta()</text></g><!--link EditProfesor to Asignaciones--><g id="link_EditProfesor_Asignaciones"><path d="M1138.55,462.25 C1157.26,465.47 1172,468 1172,468 C1172,468 1291.5542,478.7621 1393.4342,487.9321 " fill="none" id="EditProfesor-to-Asignaciones" style="stroke:#808080;stroke-width:1.0;stroke-dasharray:1.0,3.0;"/><polygon fill="#808080" points="1399.41,488.47,1390.8048,483.6793,1394.4301,488.0218,1390.0877,491.6471,1399.41,488.47" style="stroke:#808080;stroke-width:1.0;"/><text fill="#000000" font-family="sans-serif" font-size="13" lengthAdjust="spacing" textLength="146" x="1197" y="463.897">asignarProfesorACurso()</text></g><!--link Asignaciones to EditProfesor--><g id="link_Asignaciones_EditProfesor"><path d="M1399.13,509.66 C1380.79,511.04 1368,512 1368,512 C1368,512 1172,512 1172,512 C1172,512 1141.5121,494.6223 1110.7021,477.0523 " fill="none" id="Asignaciones-to-EditProfesor" style="stroke:#808080;stroke-width:1.0;stroke-dasharray:1.0,3.0;"/><polygon fill="#808080" points="1105.49,474.08,1111.3266,482.0131,1109.8334,476.5569,1115.2896,475.0637,1105.49,474.08" style="stroke:#808080;stroke-width:1.0;"/><text fill="#000000" font-family="sans-serif" font-size="13" lengthAdjust="spacing" textLength="94" x="1223" y="507.897">editarProfesor()</text></g><!--link ListProgramas to EditPrograma--><g id="link_ListProgramas_EditPrograma"><path d="M765.7,128.79 C799.36,105.67 844,75 844,75 C844,75 949,75 949,75 C949,75 956.0056,76.2731 972.9956,79.3431 " fill="none" id="ListProgramas-to-EditPrograma" style="stroke:#808080;stroke-width:1.0;stroke-dasharray:1.0,3.0;"/><polygon fill="#808080" points="978.9,80.41,970.7547,74.8734,973.9797,79.5209,969.3322,82.7459,978.9,80.41" style="stroke:#808080;stroke-width:1.0;"/><text fill="#000000" font-family="sans-serif" font-size="13" lengthAdjust="spacing" textLength="98" x="847.5" y="70.897">crearPrograma()</text></g><!--link ListProgramas to EditPrograma--><g id="link_ListProgramas_EditPrograma"><path d="M813.68,138.88 C864.46,129.82 922.7732,119.4037 972.8332,110.4737 " fill="none" id="ListProgramas-to-EditPrograma-1" style="stroke:#808080;stroke-width:1.0;stroke-dasharray:1.0,3.0;"/><polygon fill="#808080" points="978.74,109.42,969.1774,107.0627,973.8177,110.2981,970.5823,114.9384,978.74,109.42" style="stroke:#808080;stroke-width:1.0;"/><text fill="#000000" font-family="sans-serif" font-size="13" lengthAdjust="spacing" textLength="103" x="845" y="111.897">editarPrograma()</text></g><!--link EditPrograma to ListProgramas--><g id="link_EditPrograma_ListProgramas"><path d="M1017.41,120.14 C986.18,138.79 949,161 949,161 C949,161 844,161 844,161 C844,161 837.0089,160.575 819.7789,159.525 " fill="none" id="EditPrograma-to-ListProgramas" style="stroke:#808080;stroke-width:1.0;stroke-dasharray:1.0,3.0;"/><polygon fill="#808080" points="813.79,159.16,822.53,163.7,818.7807,159.4641,823.0166,155.7149,813.79,159.16" style="stroke:#808080;stroke-width:1.0;"/><text fill="#000000" font-family="sans-serif" font-size="13" lengthAdjust="spacing" textLength="102" x="845.5" y="156.897">abrirProgramas()</text></g><!--link ListProgramas to ListProgramas--><g id="link_ListProgramas_ListProgramas"><path d="M699.58,128.72 C690.96,111.23 700.44,94 728,94 C755.56,94 767.6925,105.8481 759.0725,123.3381 " fill="none" id="ListProgramas-to-ListProgramas" style="stroke:#808080;stroke-width:1.0;stroke-dasharray:1.0,3.0;"/><polygon fill="#808080" points="756.42,128.72,763.9866,122.4155,758.6304,124.2351,756.8108,118.8789,756.42,128.72" style="stroke:#808080;stroke-width:1.0;"/><text fill="#000000" font-family="sans-serif" font-size="13" lengthAdjust="spacing" textLength="116" x="670" y="84.897">eliminarPrograma()</text></g><!--link EditPrograma to EditPrograma--><g id="link_EditPrograma_EditPrograma"><path d="M1032.75,69.72 C1024.34,52.23 1033.59,35 1060.5,35 C1087.41,35 1099.2601,46.8226 1090.8501,64.3126 " fill="none" id="EditPrograma-to-EditPrograma" style="stroke:#808080;stroke-width:1.0;stroke-dasharray:1.0,3.0;"/><polygon fill="#808080" points="1088.25,69.72,1095.7551,63.3424,1090.4168,65.2139,1088.5453,59.8756,1088.25,69.72" style="stroke:#808080;stroke-width:1.0;"/><text fill="#000000" font-family="sans-serif" font-size="13" lengthAdjust="spacing" textLength="103" x="1009" y="25.897">editarPrograma()</text></g><!--link ListCursos to EditCurso--><g id="link_ListCursos_EditCurso"><path d="M765.7,305.79 C799.36,282.67 844,252 844,252 C844,252 949,252 949,252 C949,252 964.436,254.7912 988.356,259.1212 " fill="none" id="ListCursos-to-EditCurso" style="stroke:#808080;stroke-width:1.0;stroke-dasharray:1.0,3.0;"/><polygon fill="#808080" points="994.26,260.19,986.1164,254.6508,989.34,259.2994,984.6914,262.5229,994.26,260.19" style="stroke:#808080;stroke-width:1.0;"/><text fill="#000000" font-family="sans-serif" font-size="13" lengthAdjust="spacing" textLength="73" x="860" y="247.897">crearCurso()</text></g><!--link ListCursos to EditCurso--><g id="link_ListCursos_EditCurso"><path d="M798.28,318.63 C856.02,308.33 931.7534,294.8044 988.3334,284.7044 " fill="none" id="ListCursos-to-EditCurso-1" style="stroke:#808080;stroke-width:1.0;stroke-dasharray:1.0,3.0;"/><polygon fill="#808080" points="994.24,283.65,984.6771,281.2938,989.3178,284.5287,986.083,289.1693,994.24,283.65" style="stroke:#808080;stroke-width:1.0;"/><text fill="#000000" font-family="sans-serif" font-size="13" lengthAdjust="spacing" textLength="78" x="857.5" y="288.897">editarCurso()</text></g><!--link EditCurso to ListCursos--><g id="link_EditCurso_ListCursos"><path d="M1017.41,297.14 C986.18,315.79 949,338 949,338 C949,338 844,338 844,338 C844,338 828.5588,337.0665 804.2088,335.5765 " fill="none" id="EditCurso-to-ListCursos" style="stroke:#808080;stroke-width:1.0;stroke-dasharray:1.0,3.0;"/><polygon fill="#808080" points="798.22,335.21,806.9589,339.7522,803.2107,335.5154,807.4475,331.7672,798.22,335.21" style="stroke:#808080;stroke-width:1.0;"/><text fill="#000000" font-family="sans-serif" font-size="13" lengthAdjust="spacing" textLength="77" x="858" y="333.897">abrirCursos()</text></g><!--link ListCursos to ListCursos--><g id="link_ListCursos_ListCursos"><path d="M699.58,305.72 C690.96,288.23 700.44,271 728,271 C755.56,271 767.6925,282.8481 759.0725,300.3381 " fill="none" id="ListCursos-to-ListCursos" style="stroke:#808080;stroke-width:1.0;stroke-dasharray:1.0,3.0;"/><polygon fill="#808080" points="756.42,305.72,763.9866,299.4155,758.6304,301.2351,756.8108,295.8789,756.42,305.72" style="stroke:#808080;stroke-width:1.0;"/><text fill="#000000" font-family="sans-serif" font-size="13" lengthAdjust="spacing" textLength="91" x="682.5" y="261.897">eliminarCurso()</text></g><!--link EditCurso to EditCurso--><g id="link_EditCurso_EditCurso"><path d="M1032.75,246.72 C1024.34,229.23 1033.59,212 1060.5,212 C1087.41,212 1099.2601,223.8226 1090.8501,241.3126 " fill="none" id="EditCurso-to-EditCurso" style="stroke:#808080;stroke-width:1.0;stroke-dasharray:1.0,3.0;"/><polygon fill="#808080" points="1088.25,246.72,1095.7551,240.3424,1090.4168,242.2139,1088.5453,236.8756,1088.25,246.72" style="stroke:#808080;stroke-width:1.0;"/><text fill="#000000" font-family="sans-serif" font-size="13" lengthAdjust="spacing" textLength="78" x="1021.5" y="202.897">editarCurso()</text></g><!--link ListProfesores to EditProfesor--><g id="link_ListProfesores_EditProfesor"><path d="M813.79,437.93 C831.02,432.84 844,429 844,429 C844,429 949,429 949,429 C949,429 957.8356,430.6034 976.5456,433.9834 " fill="none" id="ListProfesores-to-EditProfesor" style="stroke:#808080;stroke-width:1.0;stroke-dasharray:1.0,3.0;"/><polygon fill="#808080" points="982.45,435.05,974.3045,429.5137,977.5296,434.1611,972.8823,437.3863,982.45,435.05" style="stroke:#808080;stroke-width:1.0;"/><text fill="#000000" font-family="sans-serif" font-size="13" lengthAdjust="spacing" textLength="89" x="852" y="424.897">crearProfesor()</text></g><!--link ListProfesores to EditProfesor--><g id="link_ListProfesores_EditProfesor"><path d="M814.06,460.29 C875.97,458.32 949,456 949,456 C949,456 957.7521,455.4508 976.4621,454.2608 " fill="none" id="ListProfesores-to-EditProfesor-1" style="stroke:#808080;stroke-width:1.0;stroke-dasharray:1.0,3.0;"/><polygon fill="#808080" points="982.45,453.88,973.2143,450.4593,977.4601,454.1974,973.722,458.4432,982.45,453.88" style="stroke:#808080;stroke-width:1.0;"/><text fill="#000000" font-family="sans-serif" font-size="13" lengthAdjust="spacing" textLength="94" x="849.5" y="451.897">editarProfesor()</text></g><!--link EditProfesor to ListProfesores--><g id="link_EditProfesor_ListProfesores"><path d="M986.72,474.03 C966.03,481.14 949,487 949,487 C949,487 844,487 844,487 C844,487 837.0438,485.5443 819.9638,481.9843 " fill="none" id="EditProfesor-to-ListProfesores" style="stroke:#808080;stroke-width:1.0;stroke-dasharray:1.0,3.0;"/><polygon fill="#808080" points="814.09,480.76,822.0845,486.5123,818.9848,481.7802,823.7168,478.6806,814.09,480.76" style="stroke:#808080;stroke-width:1.0;"/><text fill="#000000" font-family="sans-serif" font-size="13" lengthAdjust="spacing" textLength="100" x="846.5" y="482.897">abrirProfesores()</text></g><!--link ListProfesores to ListProfesores--><g id="link_ListProfesores_ListProfesores"><path d="M699.58,437.72 C690.96,420.23 700.44,403 728,403 C755.56,403 767.6925,414.8481 759.0725,432.3381 " fill="none" id="ListProfesores-to-ListProfesores" style="stroke:#808080;stroke-width:1.0;stroke-dasharray:1.0,3.0;"/><polygon fill="#808080" points="756.42,437.72,763.9866,431.4155,758.6304,433.2351,756.8108,427.8789,756.42,437.72" style="stroke:#808080;stroke-width:1.0;"/><text fill="#000000" font-family="sans-serif" font-size="13" lengthAdjust="spacing" textLength="107" x="674.5" y="393.897">eliminarProfesor()</text></g><!--link EditProfesor to EditProfesor--><g id="link_EditProfesor_EditProfesor"><path d="M1032.75,423.72 C1024.34,406.23 1033.59,389 1060.5,389 C1087.41,389 1099.2601,400.8226 1090.8501,418.3126 " fill="none" id="EditProfesor-to-EditProfesor" style="stroke:#808080;stroke-width:1.0;stroke-dasharray:1.0,3.0;"/><polygon fill="#808080" points="1088.25,423.72,1095.7551,417.3424,1090.4168,419.2139,1088.5453,413.8756,1088.25,423.72" style="stroke:#808080;stroke-width:1.0;"/><text fill="#000000" font-family="sans-serif" font-size="13" lengthAdjust="spacing" textLength="94" x="1013.5" y="379.897">editarProfesor()</text></g><!--link EditProfesor to EditProfesorPreferencias--><g id="link_EditProfesor_EditProfesorPreferencias"><path d="M1118.04,423.93 C1145.23,411.87 1172,400 1172,400 C1172,400 1290.3,399.6671 1391.9,399.3771 " fill="none" id="EditProfesor-to-EditProfesorPreferencias" style="stroke:#808080;stroke-width:1.0;stroke-dasharray:1.0,3.0;"/><polygon fill="#808080" points="1397.9,399.36,1388.8886,395.3857,1392.9,399.3743,1388.9115,403.3857,1397.9,399.36" style="stroke:#808080;stroke-width:1.0;"/><text fill="#000000" font-family="sans-serif" font-size="13" lengthAdjust="spacing" textLength="194" x="1173" y="395.897">configurarPreferenciasProfesor()</text></g><!--link EditProfesorPreferencias to EditProfesor--><g id="link_EditProfesorPreferencias_EditProfesor"><path d="M1397.63,421.8 C1380.1,424.88 1368,427 1368,427 C1368,427 1235.6246,436.5003 1144.8246,443.0203 " fill="none" id="EditProfesorPreferencias-to-EditProfesor" style="stroke:#808080;stroke-width:1.0;stroke-dasharray:1.0,3.0;"/><polygon fill="#808080" points="1138.84,443.45,1148.1034,446.7951,1143.8272,443.0919,1147.5304,438.8157,1138.84,443.45" style="stroke:#808080;stroke-width:1.0;"/><text fill="#000000" font-family="sans-serif" font-size="13" lengthAdjust="spacing" textLength="130" x="1205" y="422.897">abrirEdicionProfesor()</text></g><!--link ListEdificios to EditEdificio--><g id="link_ListEdificios_EditEdificio"><path d="M804.75,612.83 C826.28,609.08 844,606 844,606 C844,606 949,606 949,606 C949,606 960.8056,608.143 982.0556,611.983 " fill="none" id="ListEdificios-to-EditEdificio" style="stroke:#808080;stroke-width:1.0;stroke-dasharray:1.0,3.0;"/><polygon fill="#808080" points="987.96,613.05,979.8147,607.5133,983.0397,612.1609,978.3921,615.3858,987.96,613.05" style="stroke:#808080;stroke-width:1.0;"/><text fill="#000000" font-family="sans-serif" font-size="13" lengthAdjust="spacing" textLength="80" x="856.5" y="601.897">crearEdificio()</text></g><!--link ListEdificios to EditEdificio--><g id="link_ListEdificios_EditEdificio"><path d="M804.75,630.61 C826.28,631.92 844,633 844,633 C844,633 949,633 949,633 C949,633 960.7221,632.2604 981.9721,630.9104 " fill="none" id="ListEdificios-to-EditEdificio-1" style="stroke:#808080;stroke-width:1.0;stroke-dasharray:1.0,3.0;"/><polygon fill="#808080" points="987.96,630.53,978.7245,627.1087,982.9701,630.847,979.2317,635.0926,987.96,630.53" style="stroke:#808080;stroke-width:1.0;"/><text fill="#000000" font-family="sans-serif" font-size="13" lengthAdjust="spacing" textLength="85" x="854" y="628.897">editarEdificio()</text></g><!--link EditEdificio to ListEdificios--><g id="link_EditEdificio_ListEdificios"><path d="M987.96,648.01 C966.71,654.55 949,660 949,660 C949,660 844,660 844,660 C844,660 832.0335,656.4623 810.5035,650.0923 " fill="none" id="EditEdificio-to-ListEdificios" style="stroke:#B8860B;stroke-width:1.0;"/><polygon fill="#B8860B" points="804.75,648.39,812.2454,654.779,809.5446,649.8085,814.515,647.1077,804.75,648.39" style="stroke:#B8860B;stroke-width:1.0;"/><text fill="#000000" font-family="sans-serif" font-size="13" lengthAdjust="spacing" textLength="84" x="854.5" y="655.897">abrirEdificios()</text></g><!--link ListEdificios to ListEdificios--><g id="link_ListEdificios_ListEdificios"><path d="M699.58,600.72 C690.96,583.23 700.44,566 728,566 C755.56,566 767.6925,577.8481 759.0725,595.3381 " fill="none" id="ListEdificios-to-ListEdificios" style="stroke:#808080;stroke-width:1.0;stroke-dasharray:1.0,3.0;"/><polygon fill="#808080" points="756.42,600.72,763.9866,594.4155,758.6304,596.2351,756.8108,590.8789,756.42,600.72" style="stroke:#808080;stroke-width:1.0;"/><text fill="#000000" font-family="sans-serif" font-size="13" lengthAdjust="spacing" textLength="98" x="679" y="556.897">eliminarEdificio()</text></g><!--link EditEdificio to EditEdificio--><g id="link_EditEdificio_EditEdificio"><path d="M1032.75,600.72 C1024.34,583.23 1033.59,566 1060.5,566 C1087.41,566 1099.2601,577.8226 1090.8501,595.3126 " fill="none" id="EditEdificio-to-EditEdificio" style="stroke:#808080;stroke-width:1.0;stroke-dasharray:1.0,3.0;"/><polygon fill="#808080" points="1088.25,600.72,1095.7551,594.3424,1090.4168,596.2139,1088.5453,590.8756,1088.25,600.72" style="stroke:#808080;stroke-width:1.0;"/><text fill="#000000" font-family="sans-serif" font-size="13" lengthAdjust="spacing" textLength="85" x="1018" y="556.897">editarEdificio()</text></g><!--link ListAulas to EditAula--><g id="link_ListAulas_EditAula"><path d="M792.04,765.16 C857.05,772.55 949,783 949,783 C949,783 968.816,786.581 995.436,791.401 " fill="none" id="ListAulas-to-EditAula" style="stroke:#808080;stroke-width:1.0;stroke-dasharray:1.0,3.0;"/><polygon fill="#808080" points="1001.34,792.47,993.1967,786.9305,996.42,791.5792,991.7713,794.8025,1001.34,792.47" style="stroke:#808080;stroke-width:1.0;"/><text fill="#000000" font-family="sans-serif" font-size="13" lengthAdjust="spacing" textLength="64" x="864.5" y="766.897">crearAula()</text></g><!--link ListAulas to EditAula--><g id="link_ListAulas_EditAula"><path d="M784.48,783.09 C813.89,796.38 844,810 844,810 C844,810 949,810 949,810 C949,810 968.7321,808.7502 995.3521,807.0602 " fill="none" id="ListAulas-to-EditAula-1" style="stroke:#808080;stroke-width:1.0;stroke-dasharray:1.0,3.0;"/><polygon fill="#808080" points="1001.34,806.68,992.1046,803.2583,996.35,806.9968,992.6115,811.2422,1001.34,806.68" style="stroke:#808080;stroke-width:1.0;"/><text fill="#000000" font-family="sans-serif" font-size="13" lengthAdjust="spacing" textLength="69" x="862" y="805.897">editarAula()</text></g><!--link EditAula to ListAulas--><g id="link_EditAula_ListAulas"><path d="M1001.34,820.9 C974.72,829.09 949,837 949,837 C949,837 844,837 844,837 C844,837 804.3057,809.7271 770.6457,786.6071 " fill="none" id="EditAula-to-ListAulas" style="stroke:#B8860B;stroke-width:1.0;"/><polygon fill="#B8860B" points="765.7,783.21,770.8539,791.6027,769.8214,786.0409,775.3833,785.0084,765.7,783.21" style="stroke:#B8860B;stroke-width:1.0;"/><text fill="#000000" font-family="sans-serif" font-size="13" lengthAdjust="spacing" textLength="68" x="862.5" y="832.897">abrirAulas()</text></g><!--link ListAulas to ListAulas--><g id="link_ListAulas_ListAulas"><path d="M699.58,732.72 C690.96,715.23 700.44,698 728,698 C755.56,698 767.6925,709.8481 759.0725,727.3381 " fill="none" id="ListAulas-to-ListAulas" style="stroke:#808080;stroke-width:1.0;stroke-dasharray:1.0,3.0;"/><polygon fill="#808080" points="756.42,732.72,763.9866,726.4155,758.6304,728.2351,756.8108,722.8789,756.42,732.72" style="stroke:#808080;stroke-width:1.0;"/><text fill="#000000" font-family="sans-serif" font-size="13" lengthAdjust="spacing" textLength="82" x="687" y="688.897">eliminarAula()</text></g><!--link EditAula to EditAula--><g id="link_EditAula_EditAula"><path d="M1032.75,777.72 C1024.34,760.23 1033.59,743 1060.5,743 C1087.41,743 1099.2601,754.8226 1090.8501,772.3126 " fill="none" id="EditAula-to-EditAula" style="stroke:#808080;stroke-width:1.0;stroke-dasharray:1.0,3.0;"/><polygon fill="#808080" points="1088.25,777.72,1095.7551,771.3424,1090.4168,773.2139,1088.5453,767.8756,1088.25,777.72" style="stroke:#808080;stroke-width:1.0;"/><text fill="#000000" font-family="sans-serif" font-size="13" lengthAdjust="spacing" textLength="69" x="1026" y="733.897">editarAula()</text></g><!--link ListRecursos to EditRecurso--><g id="link_ListRecursos_EditRecurso"><path d="M806.91,925.74 C861.01,937.36 926.7738,951.4898 979.9338,962.9098 " fill="none" id="ListRecursos-to-EditRecurso" style="stroke:#808080;stroke-width:1.0;stroke-dasharray:1.0,3.0;"/><polygon fill="#808080" points="985.8,964.17,977.8409,958.3689,980.9115,963.1198,976.1606,966.1905,985.8,964.17" style="stroke:#808080;stroke-width:1.0;"/><text fill="#000000" font-family="sans-serif" font-size="13" lengthAdjust="spacing" textLength="86" x="853.5" y="928.897">crearRecurso()</text></g><!--link ListRecursos to EditRecurso--><g id="link_ListRecursos_EditRecurso"><path d="M778.44,934.01 C797.14,943.47 814,952 814,952 C814,952 844,982 844,982 C844,982 949,982 949,982 C949,982 959.531,981.8096 979.791,981.4396 " fill="none" id="ListRecursos-to-EditRecurso-1" style="stroke:#808080;stroke-width:1.0;stroke-dasharray:1.0,3.0;"/><polygon fill="#808080" points="985.79,981.33,976.7185,977.495,980.7908,981.4213,976.8645,985.4937,985.79,981.33" style="stroke:#808080;stroke-width:1.0;"/><text fill="#000000" font-family="sans-serif" font-size="13" lengthAdjust="spacing" textLength="91" x="851" y="977.897">editarRecurso()</text></g><!--link EditRecurso to ListRecursos--><g id="link_EditRecurso_ListRecursos"><path d="M985.79,999.34 C965.53,1004.66 949,1009 949,1009 C949,1009 844,1009 844,1009 C844,1009 814,952 814,952 C814,952 802.4939,946.1784 783.7939,936.7184 " fill="none" id="EditRecurso-to-ListRecursos" style="stroke:#808080;stroke-width:1.0;stroke-dasharray:1.0,3.0;"/><polygon fill="#808080" points="778.44,934.01,784.6652,941.6419,782.9016,936.267,788.2765,934.5034,778.44,934.01" style="stroke:#808080;stroke-width:1.0;"/><text fill="#000000" font-family="sans-serif" font-size="13" lengthAdjust="spacing" textLength="90" x="851.5" y="1004.897">abrirRecursos()</text></g><!--link ListRecursos to ListRecursos--><g id="link_ListRecursos_ListRecursos"><path d="M699.58,883.72 C690.96,866.23 700.44,849 728,849 C755.56,849 767.6925,860.8481 759.0725,878.3381 " fill="none" id="ListRecursos-to-ListRecursos" style="stroke:#808080;stroke-width:1.0;stroke-dasharray:1.0,3.0;"/><polygon fill="#808080" points="756.42,883.72,763.9866,877.4155,758.6304,879.2351,756.8108,873.8789,756.42,883.72" style="stroke:#808080;stroke-width:1.0;"/><text fill="#000000" font-family="sans-serif" font-size="13" lengthAdjust="spacing" textLength="104" x="676" y="839.897">eliminarRecurso()</text></g><!--link EditRecurso to EditRecurso--><g id="link_EditRecurso_EditRecurso"><path d="M1032.75,954.72 C1024.34,937.23 1033.59,920 1060.5,920 C1087.41,920 1099.2601,931.8226 1090.8501,949.3126 " fill="none" id="EditRecurso-to-EditRecurso" style="stroke:#808080;stroke-width:1.0;stroke-dasharray:1.0,3.0;"/><polygon fill="#808080" points="1088.25,954.72,1095.7551,948.3424,1090.4168,950.2139,1088.5453,944.8756,1088.25,954.72" style="stroke:#808080;stroke-width:1.0;"/><text fill="#000000" font-family="sans-serif" font-size="13" lengthAdjust="spacing" textLength="91" x="1015" y="910.897">editarRecurso()</text></g><rect fill="#DDDDDD" height="214.6792" id="_legend" rx="7.5" ry="7.5" style="stroke:#000000;stroke-width:1.0;" width="209" x="1431" y="1137"/><text fill="#000000" font-family="sans-serif" font-size="14" font-weight="bold" lengthAdjust="spacing" textLength="170" x="1436" y="1156.9659">Leyenda de Estados RUP</text><line style="stroke:#000000;stroke-width:1.0;" x1="1431" x2="1640" y1="1166.0679" y2="1166.0679"/><line style="stroke:#000000;stroke-width:1.0;" x1="1431" x2="1640" y1="1168.0679" y2="1168.0679"/><rect fill="#808080" height="19.0679" style="stroke:none;stroke-width:1.0;" width="24" x="1436" y="1173.0679"/><text fill="#000000" font-family="sans-serif" font-size="14" lengthAdjust="spacing" textLength="20" x="1436" y="1188.0339">&#160;&#160;&#160;&#160;&#160;</text><text fill="#000000" font-family="sans-serif" font-size="14" lengthAdjust="spacing" textLength="167" x="1464" y="1188.0339">Identificado (no iniciado)</text><rect fill="#FF0000" height="19.0679" style="stroke:none;stroke-width:1.0;" width="24" x="1436" y="1192.1358"/><text fill="#000000" font-family="sans-serif" font-size="14" lengthAdjust="spacing" textLength="24" x="1436" y="1207.1018">&#160;&#160;&#160;&#160;&#160;&#160;</text><text fill="#000000" font-family="sans-serif" font-size="14" lengthAdjust="spacing" textLength="130" x="1464" y="1207.1018">Detalle/Prototipado</text><rect fill="#B8860B" height="19.0679" style="stroke:none;stroke-width:1.0;" width="24" x="1436" y="1211.2038"/><text fill="#000000" font-family="sans-serif" font-size="14" lengthAdjust="spacing" textLength="4" x="1436" y="1226.1697">&#160;</text><text fill="#000000" font-family="sans-serif" font-size="14" lengthAdjust="spacing" textLength="52" x="1464" y="1226.1697">An&#225;lisis</text><rect fill="#008000" height="19.0679" style="stroke:none;stroke-width:1.0;" width="24" x="1436" y="1230.2717"/><text fill="#000000" font-family="sans-serif" font-size="14" lengthAdjust="spacing" textLength="16" x="1436" y="1245.2376">&#160;&#160;&#160;&#160;</text><text fill="#000000" font-family="sans-serif" font-size="14" lengthAdjust="spacing" textLength="46" x="1464" y="1245.2376">Dise&#241;o</text><rect fill="#ADD8E6" height="19.0679" style="stroke:none;stroke-width:1.0;" width="24" x="1436" y="1249.3396"/><text fill="#000000" font-family="sans-serif" font-size="14" lengthAdjust="spacing" textLength="4" x="1436" y="1264.3055">&#160;</text><text fill="#000000" font-family="sans-serif" font-size="14" lengthAdjust="spacing" textLength="69" x="1464" y="1264.3055">Desarrollo</text><rect fill="#0000FF" height="19.0679" style="stroke:none;stroke-width:1.0;" width="24" x="1436" y="1268.4075"/><text fill="#000000" font-family="sans-serif" font-size="14" lengthAdjust="spacing" textLength="20" x="1436" y="1283.3734">&#160;&#160;&#160;&#160;&#160;</text><text fill="#000000" font-family="sans-serif" font-size="14" lengthAdjust="spacing" textLength="55" x="1464" y="1283.3734">Pruebas</text><rect fill="#000000" height="19.0679" style="stroke:none;stroke-width:1.0;" width="24" x="1436" y="1287.4754"/><text fill="#000000" font-family="sans-serif" font-size="14" lengthAdjust="spacing" textLength="16" x="1436" y="1302.4414">&#160;&#160;&#160;&#160;</text><text fill="#000000" font-family="sans-serif" font-size="14" lengthAdjust="spacing" textLength="81" x="1464" y="1302.4414">Completado</text><text fill="#000000" font-family="sans-serif" font-size="14" lengthAdjust="spacing" textLength="12" x="1440" y="1321.5093">...</text><text fill="#000000" font-family="sans-serif" font-size="14" lengthAdjust="spacing" textLength="81" x="1460" y="1321.5093">Identificado</text><text fill="#000000" font-family="sans-serif" font-size="14" lengthAdjust="spacing" textLength="15" x="1440" y="1340.5772">---</text><text fill="#000000" font-family="sans-serif" font-size="14" lengthAdjust="spacing" textLength="112" x="1460" y="1340.5772">En trabajo activo</text><line style="stroke:#000000;stroke-width:1.0;" x1="1436" x2="1635" y1="1173.0679" y2="1173.0679"/><line style="stroke:#000000;stroke-width:1.0;" x1="1436" x2="1635" y1="1192.1358" y2="1192.1358"/><line style="stroke:#000000;stroke-width:1.0;" x1="1436" x2="1635" y1="1211.2038" y2="1211.2038"/><line style="stroke:#000000;stroke-width:1.0;" x1="1436" x2="1635" y1="1230.2717" y2="1230.2717"/><line style="stroke:#000000;stroke-width:1.0;" x1="1436" x2="1635" y1="1249.3396" y2="1249.3396"/><line style="stroke:#000000;stroke-width:1.0;" x1="1436" x2="1635" y1="1268.4075" y2="1268.4075"/><line style="stroke:#000000;stroke-width:1.0;" x1="1436" x2="1635" y1="1287.4754" y2="1287.4754"/><line style="stroke:#000000;stroke-width:1.0;" x1="1436" x2="1635" y1="1306.5433" y2="1306.5433"/><line style="stroke:#000000;stroke-width:1.0;" x1="1436" x2="1635" y1="1325.6113" y2="1325.6113"/><line style="stroke:#000000;stroke-width:1.0;" x1="1436" x2="1635" y1="1344.6792" y2="1344.6792"/><line style="stroke:#000000;stroke-width:1.0;" x1="1436" x2="1436" y1="1173.0679" y2="1344.6792"/><line style="stroke:#000000;stroke-width:1.0;" x1="1460" x2="1460" y1="1173.0679" y2="1344.6792"/><line style="stroke:#000000;stroke-width:1.0;" x1="1635" x2="1635" y1="1173.0679" y2="1344.6792"/><!--SRC=[dLT1Rjiw4Dth54J_9WdY5EZIQ0seZk8AI6n3IbOV7m4jZHt-oA91qWK2-38zGi_GYvMYI8gIh4YA5m6fUU_DS3X3CXbi1H8KCR9x4IWb3191QExnLv8VCCDxb94SnDi1q85cRyN4ypBOGPwY3HM2xakgX-JlwkeUtgG5enHGm0LEAKVHq_hgIfc_oPyQdBx-isFuRORK18Kfv89iIIBnw2AdYEGa8N9oYKu6po0juH9_2m9d6NnUCoge88U2Pe4fPgyxcab9HjFP2VdvdryPuOHNa1q3o6TQYt3uyzlXPyLgDjaHPeKZZXcZMURObKa7icP7s63k6d7ogfNdT7_8G3Z1ePkR6tHoLsiCaya4dO8S2OOt-7-AiDo4dz9QPBbCjkV9T0f0d-8W3bVBvtaGHVwj_mb9zqlg7yMB1OJnO_3WFz-6yNgr3B_V1mhq0FdHYgoZrIBo7_pusVyU1j7ZIa7k2HSoft9hzfWteJLaa1ABDC3vKnIlseBp8-EKrq0jAOLn7Du5yIeApWQt1KuPy2RuN7GAsWAke-0kY8BbF6oitcMj6Mo1GIwhqBeARiExS1wUMQ9aokqaj0LjwHka0VfFzsVsm3zcbTi2eX6-rIaG1X057PcF8AdbNWDRGMcSryvf72wM_kDJr8ZHvsINOxcClDg87wl8Z-IA5y4oa8LP0XUG0rF09ioLczES7pE1FQyiP3Jvjzx5r-A59A_I6V_svR_9J9NoL1yIB0OkzIykFQ_utCijNKnH0emvv47SMdzC4TummknyZ4ZP4rgXd8oCGRT15OJ-q2LZgBPKDTFE-uYg9ZL9ZHr2SPPVf_8o00itjQSPPjfDgafbYdPgp7vG-OVGReuf7BcRUkHmFBUVpv3T8fPHgfbDfAysfL1nOMTKN2TJ179MYKXwhMAwwSekLy40su8QpRREXz8RvGmPsPEyfk0w6E-_XztNJLMZTBXMHfqrirz3IMMmWrXkmveS6Q9L7EFjFLBtwL1l_DvIDBNKgCIXzAvAxkOt3oQdd8n6JqVsH322xLxVwd3OajsHuThtuShzHswNxzv5cZEuE5yQoROdSuU8iUkjDjFHx3BF8-YDQyJiiwFWEXZllyaUVO_Pwwh3Ts7JMIk6Wnbbf0CepdrfigDPHcou7vSn-69sR-0ELzgiyw1d8wbbe8EvzNU1oKn5TxJ7UdwV-lw3f7LD3dXx9lf_ExO0BieNPFqE-RX6_P3zk4wjXLkLyoxLrlKuchlr7ukxUWIErP1PIq2LWdaKZbKml8lBlm00]--></g></svg>