<?xml version="1.0" encoding="us-ascii" standalone="no"?><svg xmlns="http://www.w3.org/2000/svg" xmlns:xlink="http://www.w3.org/1999/xlink" contentStyleType="text/css" height="1371px" preserveAspectRatio="none" style="width:1654px;height:1371px;background:#FFFFFF;" version="1.1" viewBox="0 0 1654 1371" width="1654px" zoomAndPan="magnify"><defs/><g><g id="NoAuth"><rect fill="#F1F1F1" height="50" rx="12.5" ry="12.5" style="stroke:#181818;stroke-width:0.5;" width="140" x="7" y="645"/><line style="stroke:#181818;stroke-width:0.5;" x1="7" x2="147" y1="674.0679" y2="674.0679"/><text fill="#000000" font-family="sans-serif" font-size="14" lengthAdjust="spacing" textLength="120" x="17" y="664.9659">SESION_CERRADA</text></g><g id="Menu"><rect fill="#F1F1F1" height="50" rx="12.5" ry="12.5" style="stroke:#181818;stroke-width:0.5;" width="167" x="291" y="645"/><line style="stroke:#181818;stroke-width:0.5;" x1="291" x2="458" y1="674.0679" y2="674.0679"/><text fill="#000000" font-family="sans-serif" font-size="14" lengthAdjust="spacing" textLength="147" x="301" y="664.9659">SISTEMA_DISPONIBLE</text></g><g id="ListProgramas"><rect fill="#F1F1F1" height="50" rx="12.5" ry="12.5" style="stroke:#181818;stroke-width:0.5;" width="171" x="630.5" y="129"/><line style="stroke:#181818;stroke-width:0.5;" x1="630.5" x2="801.5" y1="158.0679" y2="158.0679"/><text fill="#000000" font-family="sans-serif" font-size="14" lengthAdjust="spacing" textLength="151" x="640.5" y="148.9659">PROGRAMAS_ABIERTO</text></g><g id="EditPrograma"><rect fill="#F1F1F1" height="50" rx="12.5" ry="12.5" style="stroke:#181818;stroke-width:0.5;" width="163" x="967" y="70"/><line style="stroke:#181818;stroke-width:0.5;" x1="967" x2="1130" y1="99.0679" y2="99.0679"/><text fill="#000000" font-family="sans-serif" font-size="14" lengthAdjust="spacing" textLength="143" x="977" y="89.9659">PROGRAMA_ABIERTO</text></g><g id="ListCursos"><rect fill="#F1F1F1" height="50" rx="12.5" ry="12.5" style="stroke:#181818;stroke-width:0.5;" width="140" x="646" y="306"/><line style="stroke:#181818;stroke-width:0.5;" x1="646" x2="786" y1="335.0679" y2="335.0679"/><text fill="#000000" font-family="sans-serif" font-size="14" lengthAdjust="spacing" textLength="120" x="656" y="325.9659">CURSOS_ABIERTO</text></g><g id="EditCurso"><rect fill="#F1F1F1" height="50" rx="12.5" ry="12.5" style="stroke:#181818;stroke-width:0.5;" width="132" x="982.5" y="247"/><line style="stroke:#181818;stroke-width:0.5;" x1="982.5" x2="1114.5" y1="276.0679" y2="276.0679"/><text fill="#000000" font-family="sans-serif" font-size="14" lengthAdjust="spacing" textLength="112" x="992.5" y="266.9659">CURSO_ABIERTO</text></g><g id="ListProfesores"><rect fill="#F1F1F1" height="50" rx="12.5" ry="12.5" style="stroke:#181818;stroke-width:0.5;" width="172" x="630" y="438"/><line style="stroke:#181818;stroke-width:0.5;" x1="630" x2="802" y1="467.0679" y2="467.0679"/><text fill="#000000" font-family="sans-serif" font-size="14" lengthAdjust="spacing" textLength="152" x="640" y="457.9659">PROFESORES_ABIERTO</text></g><g id="EditProfesor"><rect fill="#F1F1F1" height="50" rx="12.5" ry="12.5" style="stroke:#181818;stroke-width:0.5;" width="156" x="970.5" y="424"/><line style="stroke:#181818;stroke-width:0.5;" x1="970.5" x2="1126.5" y1="453.0679" y2="453.0679"/><text fill="#000000" font-family="sans-serif" font-size="14" lengthAdjust="spacing" textLength="136" x="980.5" y="443.9659">PROFESOR_ABIERTO</text></g><g id="EditProfesorPreferencias"><rect fill="#F1F1F1" height="50" rx="12.5" ry="12.5" style="stroke:#181818;stroke-width:0.5;" width="261" x="1386" y="374"/><line style="stroke:#181818;stroke-width:0.5;" x1="1386" x2="1647" y1="403.0679" y2="403.0679"/><text fill="#000000" font-family="sans-serif" font-size="14" lengthAdjust="spacing" textLength="241" x="1396" y="393.9659">PROFESOR_PREFERENCIAS_ABIERTO</text></g><g id="ListEdificios"><rect fill="#F1F1F1" height="50" rx="12.5" ry="12.5" style="stroke:#181818;stroke-width:0.5;" width="153" x="639.5" y="601"/><line style="stroke:#181818;stroke-width:0.5;" x1="639.5" x2="792.5" y1="630.0679" y2="630.0679"/><text fill="#000000" font-family="sans-serif" font-size="14" lengthAdjust="spacing" textLength="133" x="649.5" y="620.9659">EDIFICIOS_ABIERTO</text></g><g id="EditEdificio"><rect fill="#F1F1F1" height="50" rx="12.5" ry="12.5" style="stroke:#181818;stroke-width:0.5;" width="145" x="976" y="601"/><line style="stroke:#181818;stroke-width:0.5;" x1="976" x2="1121" y1="630.0679" y2="630.0679"/><text fill="#000000" font-family="sans-serif" font-size="14" lengthAdjust="spacing" textLength="125" x="986" y="620.9659">EDIFICIO_ABIERTO</text></g><g id="ListAulas"><rect fill="#F1F1F1" height="50" rx="12.5" ry="12.5" style="stroke:#181818;stroke-width:0.5;" width="128" x="652" y="733"/><line style="stroke:#181818;stroke-width:0.5;" x1="652" x2="780" y1="762.0679" y2="762.0679"/><text fill="#000000" font-family="sans-serif" font-size="14" lengthAdjust="spacing" textLength="108" x="662" y="752.9659">AULAS_ABIERTO</text></g><g id="EditAula"><rect fill="#F1F1F1" height="50" rx="12.5" ry="12.5" style="stroke:#181818;stroke-width:0.5;" width="118" x="989.5" y="778"/><line style="stroke:#181818;stroke-width:0.5;" x1="989.5" x2="1107.5" y1="807.0679" y2="807.0679"/><text fill="#000000" font-family="sans-serif" font-size="14" lengthAdjust="spacing" textLength="98" x="999.5" y="797.9659">AULA_ABIERTA</text></g><g id="ListRecursos"><rect fill="#F1F1F1" height="50" rx="12.5" ry="12.5" style="stroke:#181818;stroke-width:0.5;" width="157" x="637.5" y="884"/><line style="stroke:#181818;stroke-width:0.5;" x1="637.5" x2="794.5" y1="913.0679" y2="913.0679"/><text fill="#000000" font-family="sans-serif" font-size="14" lengthAdjust="spacing" textLength="137" x="647.5" y="903.9659">RECURSOS_ABIERTO</text></g><g id="EditRecurso"><rect fill="#F1F1F1" height="50" rx="12.5" ry="12.5" style="stroke:#181818;stroke-width:0.5;" width="149" x="974" y="955"/><line style="stroke:#181818;stroke-width:0.5;" x1="974" x2="1123" y1="984.0679" y2="984.0679"/><text fill="#000000" font-family="sans-serif" font-size="14" lengthAdjust="spacing" textLength="129" x="984" y="974.9659">RECURSO_ABIERTO</text></g><g id="Asignaciones"><rect fill="#F1F1F1" height="50" rx="12.5" ry="12.5" style="stroke:#181818;stroke-width:0.5;" width="258" x="1387.5" y="475"/><line style="stroke:#181818;stroke-width:0.5;" x1="1387.5" x2="1645.5" y1="504.0679" y2="504.0679"/><text fill="#000000" font-family="sans-serif" font-size="14" lengthAdjust="spacing" textLength="238" x="1397.5" y="494.9659">PROFESOR_ASIGNATURAS_ABIERTO</text></g><g id="Generacion"><rect fill="#F1F1F1" height="50" rx="12.5" ry="12.5" style="stroke:#181818;stroke-width:0.5;" width="166" x="633" y="969"/><line style="stroke:#181818;stroke-width:0.5;" x1="633" x2="799" y1="998.0679" y2="998.0679"/><text fill="#000000" font-family="sans-serif" font-size="14" lengthAdjust="spacing" textLength="146" x="643" y="988.9659">HORARIO_GENERADO</text></g><g id="Consulta"><rect fill="#F1F1F1" height="50" rx="12.5" ry="12.5" style="stroke:#181818;stroke-width:0.5;" width="149" x="641.5" y="1070"/><line style="stroke:#181818;stroke-width:0.5;" x1="641.5" x2="790.5" y1="1099.0679" y2="1099.0679"/><text fill="#000000" font-family="sans-serif" font-size="14" lengthAdjust="spacing" textLength="129" x="651.5" y="1089.9659">HORARIO_ABIERTO</text></g><!--link NoAuth to Menu--><g id="link_NoAuth_Menu"><path d="M147.28,670 C190.27,670 239.74,670 285,670 " fill="none" id="NoAuth-to-Menu" style="stroke:#B8860B;stroke-width:2.0;"/><polygon fill="#B8860B" points="291,670,282,666,286,670,282,674,291,670" style="stroke:#B8860B;stroke-width:2.0;"/><text fill="#000000" font-family="sans-serif" font-size="13" lengthAdjust="spacing" textLength="82" x="178" y="665.897">iniciarSesion()</text></g><!--link Menu to NoAuth--><g id="link_Menu_NoAuth"><path d="M290.85,689.84 C273.84,693.92 261,697 261,697 C261,697 177,697 177,697 C177,697 169.5787,694.9784 152.8187,690.4084 " fill="none" id="Menu-to-NoAuth" style="stroke:#808080;stroke-width:1.0;stroke-dasharray:1.0,3.0;"/><polygon fill="#808080" points="147.03,688.83,154.6607,695.0567,151.8539,690.1453,156.7653,687.3385,147.03,688.83" style="stroke:#808080;stroke-width:1.0;"/><text fill="#000000" font-family="sans-serif" font-size="13" lengthAdjust="spacing" textLength="82" x="178" y="692.897">cerrarSesion()</text></g><!--link Menu to ListProgramas--><g id="link_Menu_ListProgramas"><path d="M381.79,644.73 C405.48,549.54 488,218 488,218 C488,218 560.1552,197.6585 624.6952,179.4585 " fill="none" id="Menu-to-ListProgramas" style="stroke:#FF0000;stroke-width:2.0;"/><polygon fill="#FF0000" points="630.47,177.83,620.7222,176.4228,625.6577,179.1871,622.8935,184.1225,630.47,177.83" style="stroke:#FF0000;stroke-width:2.0;"/><text fill="#000000" font-family="sans-serif" font-size="13" lengthAdjust="spacing" textLength="102" x="493" y="183.897">abrirProgramas()</text></g><!--link ListProgramas to Menu--><g id="link_ListProgramas_Menu"><path d="M683.27,179.11 C649.23,206.04 600,245 600,245 C600,245 488,327 488,327 C488,327 411.6199,559.8688 385.6399,639.0788 " fill="none" id="ListProgramas-to-Menu" style="stroke:#B8860B;stroke-width:2.0;"/><polygon fill="#B8860B" points="383.77,644.78,390.3757,637.4749,385.3283,640.029,382.7741,634.9816,383.77,644.78" style="stroke:#B8860B;stroke-width:2.0;"/><text fill="#000000" font-family="sans-serif" font-size="13" lengthAdjust="spacing" textLength="91" x="498.5" y="240.897">mostrarMenu()</text></g><!--link Menu to ListCursos--><g id="link_Menu_ListCursos"><path d="M385.09,644.76 C412.3,573.18 488,374 488,374 C488,374 573.2848,357.8465 640.0748,345.1965 " fill="none" id="Menu-to-ListCursos" style="stroke:#FF0000;stroke-width:1.0;"/><polygon fill="#FF0000" points="645.97,344.08,636.3828,341.8247,641.0573,345.0105,637.8716,349.685,645.97,344.08" style="stroke:#FF0000;stroke-width:1.0;"/><text fill="#000000" font-family="sans-serif" font-size="13" lengthAdjust="spacing" textLength="77" x="505.5" y="349.897">abrirCursos()</text></g><!--link ListCursos to Menu--><g id="link_ListCursos_Menu"><path d="M664.08,356.16 C645.98,365.1 630,373 630,373 C630,373 600,401 600,401 C600,401 488,457 488,457 C488,457 421.4522,583.0046 391.6522,639.4246 " fill="none" id="ListCursos-to-Menu" style="stroke:#B8860B;stroke-width:2.0;"/><polygon fill="#B8860B" points="388.85,644.73,396.5903,638.64,391.1852,640.3088,389.5164,634.9037,388.85,644.73" style="stroke:#B8860B;stroke-width:2.0;"/><text fill="#000000" font-family="sans-serif" font-size="13" lengthAdjust="spacing" textLength="91" x="498.5" y="396.897">mostrarMenu()</text></g><!--link Menu to ListProfesores--><g id="link_Menu_ListProfesores"><path d="M392.34,644.85 C423.73,597.98 488,502 488,502 C488,502 559.5067,489.7163 623.9167,478.6463 " fill="none" id="Menu-to-ListProfesores" style="stroke:#808080;stroke-width:1.0;stroke-dasharray:1.0,3.0;"/><polygon fill="#808080" points="629.83,477.63,620.2825,475.2123,624.9022,478.4769,621.6376,483.0967,629.83,477.63" style="stroke:#808080;stroke-width:1.0;"/><text fill="#000000" font-family="sans-serif" font-size="13" lengthAdjust="spacing" textLength="100" x="494" y="479.897">abrirProfesores()</text></g><!--link ListProfesores to Menu--><g id="link_ListProfesores_Menu"><path d="M671.2,488.14 C638.7,506.79 600,529 600,529 C600,529 488,593 488,593 C488,593 450.1011,618.9408 417.2911,641.4008 " fill="none" id="ListProfesores-to-Menu" style="stroke:#B8860B;stroke-width:2.0;"/><polygon fill="#B8860B" points="412.34,644.79,422.0261,643.0069,416.4659,641.9656,417.5071,636.4054,412.34,644.79" style="stroke:#B8860B;stroke-width:2.0;"/><text fill="#000000" font-family="sans-serif" font-size="13" lengthAdjust="spacing" textLength="91" x="498.5" y="524.897">mostrarMenu()</text></g><!--link Menu to ListEdificios--><g id="link_Menu_ListEdificios"><path d="M432.08,644.85 C460.09,632.4 488,620 488,620 C488,620 600,620 600,620 C600,620 611.7282,620.6055 633.2582,621.7355 " fill="none" id="Menu-to-ListEdificios" style="stroke:#808080;stroke-width:1.0;stroke-dasharray:1.0,3.0;"/><polygon fill="#808080" points="639.25,622.05,630.472,617.5838,634.2569,621.7879,630.0527,625.5728,639.25,622.05" style="stroke:#808080;stroke-width:1.0;"/><text fill="#000000" font-family="sans-serif" font-size="13" lengthAdjust="spacing" textLength="84" x="502" y="615.897">abrirEdificios()</text></g><!--link ListEdificios to Menu--><g id="link_ListEdificios_Menu"><path d="M639.25,639.83 C617.72,643.76 600,647 600,647 C600,647 528.1188,654.3692 464.1088,660.9192 " fill="none" id="ListEdificios-to-Menu" style="stroke:#B8860B;stroke-width:2.0;"/><polygon fill="#B8860B" points="458.14,661.53,467.5004,664.5931,463.114,661.021,466.6861,656.6346,458.14,661.53" style="stroke:#B8860B;stroke-width:2.0;"/><text fill="#000000" font-family="sans-serif" font-size="13" lengthAdjust="spacing" textLength="91" x="498.5" y="642.897">mostrarMenu()</text></g><!--link Menu to ListAulas--><g id="link_Menu_ListAulas"><path d="M458.12,691.41 C517.78,706.88 591.3521,725.9438 645.9921,740.1138 " fill="none" id="Menu-to-ListAulas" style="stroke:#808080;stroke-width:1.0;stroke-dasharray:1.0,3.0;"/><polygon fill="#808080" points="651.8,741.62,644.0923,735.4888,646.9601,740.3649,642.0841,743.2326,651.8,741.62" style="stroke:#808080;stroke-width:1.0;"/><text fill="#000000" font-family="sans-serif" font-size="13" lengthAdjust="spacing" textLength="68" x="510" y="695.897">abrirAulas()</text></g><!--link ListAulas to Menu--><g id="link_ListAulas_Menu"><path d="M651.77,756.89 C584.6,755.7 488,754 488,754 C488,754 447.1973,723.5402 414.0573,698.7902 " fill="none" id="ListAulas-to-Menu" style="stroke:#B8860B;stroke-width:2.0;"/><polygon fill="#B8860B" points="409.25,695.2,414.0675,703.7902,413.2561,698.1919,418.8544,697.3805,409.25,695.2" style="stroke:#B8860B;stroke-width:2.0;"/><text fill="#000000" font-family="sans-serif" font-size="13" lengthAdjust="spacing" textLength="91" x="498.5" y="749.897">mostrarMenu()</text></g><!--link Menu to ListRecursos--><g id="link_Menu_ListRecursos"><path d="M400.75,695.13 C433.92,728.16 488,782 488,782 C488,782 598.7638,843.9704 664.9138,880.9804 " fill="none" id="Menu-to-ListRecursos" style="stroke:#808080;stroke-width:1.0;stroke-dasharray:1.0,3.0;"/><polygon fill="#808080" points="670.15,883.91,664.2488,876.0249,665.7865,881.4687,660.3427,883.0064,670.15,883.91" style="stroke:#808080;stroke-width:1.0;"/><text fill="#000000" font-family="sans-serif" font-size="13" lengthAdjust="spacing" textLength="90" x="499" y="777.897">abrirRecursos()</text></g><!--link ListRecursos to Menu--><g id="link_ListRecursos_Menu"><path d="M637.2,894.95 C571.49,883.08 488,868 488,868 C488,868 422.9839,753.5769 392.7139,700.2969 " fill="none" id="ListRecursos-to-Menu" style="stroke:#B8860B;stroke-width:2.0;"/><polygon fill="#B8860B" points="389.75,695.08,390.7179,704.8812,392.2199,699.4274,397.6737,700.9294,389.75,695.08" style="stroke:#B8860B;stroke-width:2.0;"/><text fill="#000000" font-family="sans-serif" font-size="13" lengthAdjust="spacing" textLength="91" x="498.5" y="863.897">mostrarMenu()</text></g><!--link Menu to Generacion--><g id="link_Menu_Generacion"><path d="M387.12,695.19 C415.86,757.53 488,914 488,914 C488,914 571.5711,943.4557 638.1411,966.9157 " fill="none" id="Menu-to-Generacion" style="stroke:#808080;stroke-width:1.0;stroke-dasharray:1.0,3.0;"/><polygon fill="#808080" points="643.8,968.91,636.6412,962.146,639.0843,967.2481,633.9822,969.6912,643.8,968.91" style="stroke:#808080;stroke-width:1.0;"/><text fill="#000000" font-family="sans-serif" font-size="13" lengthAdjust="spacing" textLength="101" x="493.5" y="909.897">generarHorario()</text></g><!--link Generacion to Menu--><g id="link_Generacion_Menu"><path d="M632.73,988.2 C567.76,983.62 488,978 488,978 C488,978 413.628,774.396 386.768,700.836 " fill="none" id="Generacion-to-Menu" style="stroke:#B8860B;stroke-width:2.0;"/><polygon fill="#B8860B" points="384.71,695.2,384.0396,705.026,386.425,699.8967,391.5543,702.2821,384.71,695.2" style="stroke:#B8860B;stroke-width:2.0;"/><text fill="#000000" font-family="sans-serif" font-size="13" lengthAdjust="spacing" textLength="91" x="498.5" y="973.897">mostrarMenu()</text></g><!--link Menu to Consulta--><g id="link_Menu_Consulta"><path d="M383.77,695.15 C409.75,774.13 488,1012 488,1012 C488,1012 574.1147,1043.49 640.9447,1067.92 " fill="none" id="Menu-to-Consulta" style="stroke:#808080;stroke-width:1.0;stroke-dasharray:1.0,3.0;"/><polygon fill="#808080" points="646.58,1069.98,639.5004,1063.1331,641.8839,1068.2633,636.7537,1070.6469,646.58,1069.98" style="stroke:#808080;stroke-width:1.0;"/><text fill="#000000" font-family="sans-serif" font-size="13" lengthAdjust="spacing" textLength="110" x="489" y="1007.897">consultarHorario()</text></g><!--link Consulta to Menu--><g id="link_Consulta_Menu"><path d="M641.3,1089.48 C575.02,1084.52 488,1078 488,1078 C488,1078 408.5749,789.9541 384.0449,700.9941 " fill="none" id="Consulta-to-Menu" style="stroke:#B8860B;stroke-width:2.0;"/><polygon fill="#B8860B" points="382.45,695.21,380.9863,704.9495,383.7791,700.0301,388.6985,702.8229,382.45,695.21" style="stroke:#B8860B;stroke-width:2.0;"/><text fill="#000000" font-family="sans-serif" font-size="13" lengthAdjust="spacing" textLength="91" x="498.5" y="1073.897">mostrarMenu()</text></g><!--link EditProfesor to Asignaciones--><g id="link_EditProfesor_Asignaciones"><path d="M1126.55,462.25 C1145.26,465.47 1160,468 1160,468 C1160,468 1279.5542,478.7621 1381.4342,487.9321 " fill="none" id="EditProfesor-to-Asignaciones" style="stroke:#808080;stroke-width:1.0;stroke-dasharray:1.0,3.0;"/><polygon fill="#808080" points="1387.41,488.47,1378.8048,483.6793,1382.4301,488.0218,1378.0877,491.6471,1387.41,488.47" style="stroke:#808080;stroke-width:1.0;"/><text fill="#000000" font-family="sans-serif" font-size="13" lengthAdjust="spacing" textLength="146" x="1185" y="463.897">asignarProfesorACurso()</text></g><!--link Asignaciones to EditProfesor--><g id="link_Asignaciones_EditProfesor"><path d="M1387.13,509.66 C1368.79,511.04 1356,512 1356,512 C1356,512 1160,512 1160,512 C1160,512 1129.5121,494.6223 1098.7021,477.0523 " fill="none" id="Asignaciones-to-EditProfesor" style="stroke:#808080;stroke-width:1.0;stroke-dasharray:1.0,3.0;"/><polygon fill="#808080" points="1093.49,474.08,1099.3266,482.0131,1097.8334,476.5569,1103.2896,475.0637,1093.49,474.08" style="stroke:#808080;stroke-width:1.0;"/><text fill="#000000" font-family="sans-serif" font-size="13" lengthAdjust="spacing" textLength="94" x="1211" y="507.897">editarProfesor()</text></g><!--link ListProgramas to EditPrograma--><g id="link_ListProgramas_EditPrograma"><path d="M753.7,128.79 C787.36,105.67 832,75 832,75 C832,75 937,75 937,75 C937,75 944.0056,76.2731 960.9956,79.3431 " fill="none" id="ListProgramas-to-EditPrograma" style="stroke:#808080;stroke-width:1.0;stroke-dasharray:1.0,3.0;"/><polygon fill="#808080" points="966.9,80.41,958.7547,74.8734,961.9797,79.5209,957.3322,82.7459,966.9,80.41" style="stroke:#808080;stroke-width:1.0;"/><text fill="#000000" font-family="sans-serif" font-size="13" lengthAdjust="spacing" textLength="98" x="835.5" y="70.897">crearPrograma()</text></g><!--link ListProgramas to EditPrograma--><g id="link_ListProgramas_EditPrograma"><path d="M801.68,138.88 C852.46,129.82 910.7732,119.4037 960.8332,110.4737 " fill="none" id="ListProgramas-to-EditPrograma-1" style="stroke:#808080;stroke-width:1.0;stroke-dasharray:1.0,3.0;"/><polygon fill="#808080" points="966.74,109.42,957.1774,107.0627,961.8177,110.2981,958.5823,114.9384,966.74,109.42" style="stroke:#808080;stroke-width:1.0;"/><text fill="#000000" font-family="sans-serif" font-size="13" lengthAdjust="spacing" textLength="103" x="833" y="111.897">editarPrograma()</text></g><!--link EditPrograma to ListProgramas--><g id="link_EditPrograma_ListProgramas"><path d="M1005.41,120.14 C974.18,138.79 937,161 937,161 C937,161 832,161 832,161 C832,161 825.0089,160.575 807.7789,159.525 " fill="none" id="EditPrograma-to-ListProgramas" style="stroke:#808080;stroke-width:1.0;stroke-dasharray:1.0,3.0;"/><polygon fill="#808080" points="801.79,159.16,810.53,163.7,806.7807,159.4641,811.0166,155.7149,801.79,159.16" style="stroke:#808080;stroke-width:1.0;"/><text fill="#000000" font-family="sans-serif" font-size="13" lengthAdjust="spacing" textLength="102" x="833.5" y="156.897">abrirProgramas()</text></g><!--link ListProgramas to ListProgramas--><g id="link_ListProgramas_ListProgramas"><path d="M687.58,128.72 C678.96,111.23 688.44,94 716,94 C743.56,94 755.6925,105.8481 747.0725,123.3381 " fill="none" id="ListProgramas-to-ListProgramas" style="stroke:#808080;stroke-width:1.0;stroke-dasharray:1.0,3.0;"/><polygon fill="#808080" points="744.42,128.72,751.9866,122.4155,746.6304,124.2351,744.8108,118.8789,744.42,128.72" style="stroke:#808080;stroke-width:1.0;"/><text fill="#000000" font-family="sans-serif" font-size="13" lengthAdjust="spacing" textLength="116" x="658" y="84.897">eliminarPrograma()</text></g><!--link EditPrograma to EditPrograma--><g id="link_EditPrograma_EditPrograma"><path d="M1020.75,69.72 C1012.34,52.23 1021.59,35 1048.5,35 C1075.41,35 1087.2601,46.8226 1078.8501,64.3126 " fill="none" id="EditPrograma-to-EditPrograma" style="stroke:#808080;stroke-width:1.0;stroke-dasharray:1.0,3.0;"/><polygon fill="#808080" points="1076.25,69.72,1083.7551,63.3424,1078.4168,65.2139,1076.5453,59.8756,1076.25,69.72" style="stroke:#808080;stroke-width:1.0;"/><text fill="#000000" font-family="sans-serif" font-size="13" lengthAdjust="spacing" textLength="103" x="997" y="25.897">editarPrograma()</text></g><!--link ListCursos to EditCurso--><g id="link_ListCursos_EditCurso"><path d="M753.7,305.79 C787.36,282.67 832,252 832,252 C832,252 937,252 937,252 C937,252 952.436,254.7912 976.356,259.1212 " fill="none" id="ListCursos-to-EditCurso" style="stroke:#808080;stroke-width:1.0;stroke-dasharray:1.0,3.0;"/><polygon fill="#808080" points="982.26,260.19,974.1164,254.6508,977.34,259.2994,972.6914,262.5229,982.26,260.19" style="stroke:#808080;stroke-width:1.0;"/><text fill="#000000" font-family="sans-serif" font-size="13" lengthAdjust="spacing" textLength="73" x="848" y="247.897">crearCurso()</text></g><!--link ListCursos to EditCurso--><g id="link_ListCursos_EditCurso"><path d="M786.28,318.63 C844.02,308.33 919.7534,294.8044 976.3334,284.7044 " fill="none" id="ListCursos-to-EditCurso-1" style="stroke:#808080;stroke-width:1.0;stroke-dasharray:1.0,3.0;"/><polygon fill="#808080" points="982.24,283.65,972.6771,281.2938,977.3178,284.5287,974.083,289.1693,982.24,283.65" style="stroke:#808080;stroke-width:1.0;"/><text fill="#000000" font-family="sans-serif" font-size="13" lengthAdjust="spacing" textLength="78" x="845.5" y="288.897">editarCurso()</text></g><!--link EditCurso to ListCursos--><g id="link_EditCurso_ListCursos"><path d="M1005.41,297.14 C974.18,315.79 937,338 937,338 C937,338 832,338 832,338 C832,338 816.5588,337.0665 792.2088,335.5765 " fill="none" id="EditCurso-to-ListCursos" style="stroke:#808080;stroke-width:1.0;stroke-dasharray:1.0,3.0;"/><polygon fill="#808080" points="786.22,335.21,794.9589,339.7522,791.2107,335.5154,795.4475,331.7672,786.22,335.21" style="stroke:#808080;stroke-width:1.0;"/><text fill="#000000" font-family="sans-serif" font-size="13" lengthAdjust="spacing" textLength="77" x="846" y="333.897">abrirCursos()</text></g><!--link ListCursos to ListCursos--><g id="link_ListCursos_ListCursos"><path d="M687.58,305.72 C678.96,288.23 688.44,271 716,271 C743.56,271 755.6925,282.8481 747.0725,300.3381 " fill="none" id="ListCursos-to-ListCursos" style="stroke:#808080;stroke-width:1.0;stroke-dasharray:1.0,3.0;"/><polygon fill="#808080" points="744.42,305.72,751.9866,299.4155,746.6304,301.2351,744.8108,295.8789,744.42,305.72" style="stroke:#808080;stroke-width:1.0;"/><text fill="#000000" font-family="sans-serif" font-size="13" lengthAdjust="spacing" textLength="91" x="670.5" y="261.897">eliminarCurso()</text></g><!--link EditCurso to EditCurso--><g id="link_EditCurso_EditCurso"><path d="M1020.75,246.72 C1012.34,229.23 1021.59,212 1048.5,212 C1075.41,212 1087.2601,223.8226 1078.8501,241.3126 " fill="none" id="EditCurso-to-EditCurso" style="stroke:#808080;stroke-width:1.0;stroke-dasharray:1.0,3.0;"/><polygon fill="#808080" points="1076.25,246.72,1083.7551,240.3424,1078.4168,242.2139,1076.5453,236.8756,1076.25,246.72" style="stroke:#808080;stroke-width:1.0;"/><text fill="#000000" font-family="sans-serif" font-size="13" lengthAdjust="spacing" textLength="78" x="1009.5" y="202.897">editarCurso()</text></g><!--link ListProfesores to EditProfesor--><g id="link_ListProfesores_EditProfesor"><path d="M801.79,437.93 C819.02,432.84 832,429 832,429 C832,429 937,429 937,429 C937,429 945.8356,430.6034 964.5456,433.9834 " fill="none" id="ListProfesores-to-EditProfesor" style="stroke:#808080;stroke-width:1.0;stroke-dasharray:1.0,3.0;"/><polygon fill="#808080" points="970.45,435.05,962.3045,429.5137,965.5296,434.1611,960.8823,437.3863,970.45,435.05" style="stroke:#808080;stroke-width:1.0;"/><text fill="#000000" font-family="sans-serif" font-size="13" lengthAdjust="spacing" textLength="89" x="840" y="424.897">crearProfesor()</text></g><!--link ListProfesores to EditProfesor--><g id="link_ListProfesores_EditProfesor"><path d="M802.06,460.29 C863.97,458.32 937,456 937,456 C937,456 945.7521,455.4508 964.4621,454.2608 " fill="none" id="ListProfesores-to-EditProfesor-1" style="stroke:#808080;stroke-width:1.0;stroke-dasharray:1.0,3.0;"/><polygon fill="#808080" points="970.45,453.88,961.2143,450.4593,965.4601,454.1974,961.722,458.4432,970.45,453.88" style="stroke:#808080;stroke-width:1.0;"/><text fill="#000000" font-family="sans-serif" font-size="13" lengthAdjust="spacing" textLength="94" x="837.5" y="451.897">editarProfesor()</text></g><!--link EditProfesor to ListProfesores--><g id="link_EditProfesor_ListProfesores"><path d="M974.72,474.03 C954.03,481.14 937,487 937,487 C937,487 832,487 832,487 C832,487 825.0438,485.5443 807.9638,481.9843 " fill="none" id="EditProfesor-to-ListProfesores" style="stroke:#808080;stroke-width:1.0;stroke-dasharray:1.0,3.0;"/><polygon fill="#808080" points="802.09,480.76,810.0845,486.5123,806.9848,481.7802,811.7168,478.6806,802.09,480.76" style="stroke:#808080;stroke-width:1.0;"/><text fill="#000000" font-family="sans-serif" font-size="13" lengthAdjust="spacing" textLength="100" x="834.5" y="482.897">abrirProfesores()</text></g><!--link ListProfesores to ListProfesores--><g id="link_ListProfesores_ListProfesores"><path d="M687.58,437.72 C678.96,420.23 688.44,403 716,403 C743.56,403 755.6925,414.8481 747.0725,432.3381 " fill="none" id="ListProfesores-to-ListProfesores" style="stroke:#808080;stroke-width:1.0;stroke-dasharray:1.0,3.0;"/><polygon fill="#808080" points="744.42,437.72,751.9866,431.4155,746.6304,433.2351,744.8108,427.8789,744.42,437.72" style="stroke:#808080;stroke-width:1.0;"/><text fill="#000000" font-family="sans-serif" font-size="13" lengthAdjust="spacing" textLength="107" x="662.5" y="393.897">eliminarProfesor()</text></g><!--link EditProfesor to EditProfesor--><g id="link_EditProfesor_EditProfesor"><path d="M1020.75,423.72 C1012.34,406.23 1021.59,389 1048.5,389 C1075.41,389 1087.2601,400.8226 1078.8501,418.3126 " fill="none" id="EditProfesor-to-EditProfesor" style="stroke:#808080;stroke-width:1.0;stroke-dasharray:1.0,3.0;"/><polygon fill="#808080" points="1076.25,423.72,1083.7551,417.3424,1078.4168,419.2139,1076.5453,413.8756,1076.25,423.72" style="stroke:#808080;stroke-width:1.0;"/><text fill="#000000" font-family="sans-serif" font-size="13" lengthAdjust="spacing" textLength="94" x="1001.5" y="379.897">editarProfesor()</text></g><!--link EditProfesor to EditProfesorPreferencias--><g id="link_EditProfesor_EditProfesorPreferencias"><path d="M1106.04,423.93 C1133.23,411.87 1160,400 1160,400 C1160,400 1278.3,399.6671 1379.9,399.3771 " fill="none" id="EditProfesor-to-EditProfesorPreferencias" style="stroke:#808080;stroke-width:1.0;stroke-dasharray:1.0,3.0;"/><polygon fill="#808080" points="1385.9,399.36,1376.8886,395.3857,1380.9,399.3743,1376.9115,403.3857,1385.9,399.36" style="stroke:#808080;stroke-width:1.0;"/><text fill="#000000" font-family="sans-serif" font-size="13" lengthAdjust="spacing" textLength="194" x="1161" y="395.897">configurarPreferenciasProfesor()</text></g><!--link EditProfesorPreferencias to EditProfesor--><g id="link_EditProfesorPreferencias_EditProfesor"><path d="M1385.63,421.8 C1368.1,424.88 1356,427 1356,427 C1356,427 1223.6246,436.5003 1132.8246,443.0203 " fill="none" id="EditProfesorPreferencias-to-EditProfesor" style="stroke:#808080;stroke-width:1.0;stroke-dasharray:1.0,3.0;"/><polygon fill="#808080" points="1126.84,443.45,1136.1034,446.7951,1131.8272,443.0919,1135.5304,438.8157,1126.84,443.45" style="stroke:#808080;stroke-width:1.0;"/><text fill="#000000" font-family="sans-serif" font-size="13" lengthAdjust="spacing" textLength="130" x="1193" y="422.897">abrirEdicionProfesor()</text></g><!--link ListEdificios to EditEdificio--><g id="link_ListEdificios_EditEdificio"><path d="M792.75,612.83 C814.28,609.08 832,606 832,606 C832,606 937,606 937,606 C937,606 948.8056,608.143 970.0556,611.983 " fill="none" id="ListEdificios-to-EditEdificio" style="stroke:#808080;stroke-width:1.0;stroke-dasharray:1.0,3.0;"/><polygon fill="#808080" points="975.96,613.05,967.8147,607.5133,971.0397,612.1609,966.3921,615.3858,975.96,613.05" style="stroke:#808080;stroke-width:1.0;"/><text fill="#000000" font-family="sans-serif" font-size="13" lengthAdjust="spacing" textLength="80" x="844.5" y="601.897">crearEdificio()</text></g><!--link ListEdificios to EditEdificio--><g id="link_ListEdificios_EditEdificio"><path d="M792.75,630.61 C814.28,631.92 832,633 832,633 C832,633 937,633 937,633 C937,633 948.7221,632.2604 969.9721,630.9104 " fill="none" id="ListEdificios-to-EditEdificio-1" style="stroke:#808080;stroke-width:1.0;stroke-dasharray:1.0,3.0;"/><polygon fill="#808080" points="975.96,630.53,966.7245,627.1087,970.9701,630.847,967.2317,635.0926,975.96,630.53" style="stroke:#808080;stroke-width:1.0;"/><text fill="#000000" font-family="sans-serif" font-size="13" lengthAdjust="spacing" textLength="85" x="842" y="628.897">editarEdificio()</text></g><!--link EditEdificio to ListEdificios--><g id="link_EditEdificio_ListEdificios"><path d="M975.96,648.01 C954.71,654.55 937,660 937,660 C937,660 832,660 832,660 C832,660 820.0335,656.4623 798.5035,650.0923 " fill="none" id="EditEdificio-to-ListEdificios" style="stroke:#808080;stroke-width:1.0;stroke-dasharray:1.0,3.0;"/><polygon fill="#808080" points="792.75,648.39,800.2454,654.779,797.5446,649.8085,802.515,647.1077,792.75,648.39" style="stroke:#808080;stroke-width:1.0;"/><text fill="#000000" font-family="sans-serif" font-size="13" lengthAdjust="spacing" textLength="84" x="842.5" y="655.897">abrirEdificios()</text></g><!--link ListEdificios to ListEdificios--><g id="link_ListEdificios_ListEdificios"><path d="M687.58,600.72 C678.96,583.23 688.44,566 716,566 C743.56,566 755.6925,577.8481 747.0725,595.3381 " fill="none" id="ListEdificios-to-ListEdificios" style="stroke:#808080;stroke-width:1.0;stroke-dasharray:1.0,3.0;"/><polygon fill="#808080" points="744.42,600.72,751.9866,594.4155,746.6304,596.2351,744.8108,590.8789,744.42,600.72" style="stroke:#808080;stroke-width:1.0;"/><text fill="#000000" font-family="sans-serif" font-size="13" lengthAdjust="spacing" textLength="98" x="667" y="556.897">eliminarEdificio()</text></g><!--link EditEdificio to EditEdificio--><g id="link_EditEdificio_EditEdificio"><path d="M1020.75,600.72 C1012.34,583.23 1021.59,566 1048.5,566 C1075.41,566 1087.2601,577.8226 1078.8501,595.3126 " fill="none" id="EditEdificio-to-EditEdificio" style="stroke:#808080;stroke-width:1.0;stroke-dasharray:1.0,3.0;"/><polygon fill="#808080" points="1076.25,600.72,1083.7551,594.3424,1078.4168,596.2139,1076.5453,590.8756,1076.25,600.72" style="stroke:#808080;stroke-width:1.0;"/><text fill="#000000" font-family="sans-serif" font-size="13" lengthAdjust="spacing" textLength="85" x="1006" y="556.897">editarEdificio()</text></g><!--link ListAulas to EditAula--><g id="link_ListAulas_EditAula"><path d="M780.04,765.16 C845.05,772.55 937,783 937,783 C937,783 956.816,786.581 983.436,791.401 " fill="none" id="ListAulas-to-EditAula" style="stroke:#808080;stroke-width:1.0;stroke-dasharray:1.0,3.0;"/><polygon fill="#808080" points="989.34,792.47,981.1967,786.9305,984.42,791.5792,979.7713,794.8025,989.34,792.47" style="stroke:#808080;stroke-width:1.0;"/><text fill="#000000" font-family="sans-serif" font-size="13" lengthAdjust="spacing" textLength="64" x="852.5" y="766.897">crearAula()</text></g><!--link ListAulas to EditAula--><g id="link_ListAulas_EditAula"><path d="M772.48,783.09 C801.89,796.38 832,810 832,810 C832,810 937,810 937,810 C937,810 956.7321,808.7502 983.3521,807.0602 " fill="none" id="ListAulas-to-EditAula-1" style="stroke:#808080;stroke-width:1.0;stroke-dasharray:1.0,3.0;"/><polygon fill="#808080" points="989.34,806.68,980.1046,803.2583,984.35,806.9968,980.6115,811.2422,989.34,806.68" style="stroke:#808080;stroke-width:1.0;"/><text fill="#000000" font-family="sans-serif" font-size="13" lengthAdjust="spacing" textLength="69" x="850" y="805.897">editarAula()</text></g><!--link EditAula to ListAulas--><g id="link_EditAula_ListAulas"><path d="M989.34,820.9 C962.72,829.09 937,837 937,837 C937,837 832,837 832,837 C832,837 792.3057,809.7271 758.6457,786.6071 " fill="none" id="EditAula-to-ListAulas" style="stroke:#808080;stroke-width:1.0;stroke-dasharray:1.0,3.0;"/><polygon fill="#808080" points="753.7,783.21,758.8539,791.6027,757.8214,786.0409,763.3833,785.0084,753.7,783.21" style="stroke:#808080;stroke-width:1.0;"/><text fill="#000000" font-family="sans-serif" font-size="13" lengthAdjust="spacing" textLength="68" x="850.5" y="832.897">abrirAulas()</text></g><!--link ListAulas to ListAulas--><g id="link_ListAulas_ListAulas"><path d="M687.58,732.72 C678.96,715.23 688.44,698 716,698 C743.56,698 755.6925,709.8481 747.0725,727.3381 " fill="none" id="ListAulas-to-ListAulas" style="stroke:#808080;stroke-width:1.0;stroke-dasharray:1.0,3.0;"/><polygon fill="#808080" points="744.42,732.72,751.9866,726.4155,746.6304,728.2351,744.8108,722.8789,744.42,732.72" style="stroke:#808080;stroke-width:1.0;"/><text fill="#000000" font-family="sans-serif" font-size="13" lengthAdjust="spacing" textLength="82" x="675" y="688.897">eliminarAula()</text></g><!--link EditAula to EditAula--><g id="link_EditAula_EditAula"><path d="M1020.75,777.72 C1012.34,760.23 1021.59,743 1048.5,743 C1075.41,743 1087.2601,754.8226 1078.8501,772.3126 " fill="none" id="EditAula-to-EditAula" style="stroke:#808080;stroke-width:1.0;stroke-dasharray:1.0,3.0;"/><polygon fill="#808080" points="1076.25,777.72,1083.7551,771.3424,1078.4168,773.2139,1076.5453,767.8756,1076.25,777.72" style="stroke:#808080;stroke-width:1.0;"/><text fill="#000000" font-family="sans-serif" font-size="13" lengthAdjust="spacing" textLength="69" x="1014" y="733.897">editarAula()</text></g><!--link ListRecursos to EditRecurso--><g id="link_ListRecursos_EditRecurso"><path d="M794.91,925.74 C849.01,937.36 914.7738,951.4898 967.9338,962.9098 " fill="none" id="ListRecursos-to-EditRecurso" style="stroke:#808080;stroke-width:1.0;stroke-dasharray:1.0,3.0;"/><polygon fill="#808080" points="973.8,964.17,965.8409,958.3689,968.9115,963.1198,964.1606,966.1905,973.8,964.17" style="stroke:#808080;stroke-width:1.0;"/><text fill="#000000" font-family="sans-serif" font-size="13" lengthAdjust="spacing" textLength="86" x="841.5" y="928.897">crearRecurso()</text></g><!--link ListRecursos to EditRecurso--><g id="link_ListRecursos_EditRecurso"><path d="M766.44,934.01 C785.14,943.47 802,952 802,952 C802,952 832,982 832,982 C832,982 937,982 937,982 C937,982 947.531,981.8096 967.791,981.4396 " fill="none" id="ListRecursos-to-EditRecurso-1" style="stroke:#808080;stroke-width:1.0;stroke-dasharray:1.0,3.0;"/><polygon fill="#808080" points="973.79,981.33,964.7185,977.495,968.7908,981.4213,964.8645,985.4937,973.79,981.33" style="stroke:#808080;stroke-width:1.0;"/><text fill="#000000" font-family="sans-serif" font-size="13" lengthAdjust="spacing" textLength="91" x="839" y="977.897">editarRecurso()</text></g><!--link EditRecurso to ListRecursos--><g id="link_EditRecurso_ListRecursos"><path d="M973.79,999.34 C953.53,1004.66 937,1009 937,1009 C937,1009 832,1009 832,1009 C832,1009 802,952 802,952 C802,952 790.4939,946.1784 771.7939,936.7184 " fill="none" id="EditRecurso-to-ListRecursos" style="stroke:#808080;stroke-width:1.0;stroke-dasharray:1.0,3.0;"/><polygon fill="#808080" points="766.44,934.01,772.6652,941.6419,770.9016,936.267,776.2765,934.5034,766.44,934.01" style="stroke:#808080;stroke-width:1.0;"/><text fill="#000000" font-family="sans-serif" font-size="13" lengthAdjust="spacing" textLength="90" x="839.5" y="1004.897">abrirRecursos()</text></g><!--link ListRecursos to ListRecursos--><g id="link_ListRecursos_ListRecursos"><path d="M687.58,883.72 C678.96,866.23 688.44,849 716,849 C743.56,849 755.6925,860.8481 747.0725,878.3381 " fill="none" id="ListRecursos-to-ListRecursos" style="stroke:#808080;stroke-width:1.0;stroke-dasharray:1.0,3.0;"/><polygon fill="#808080" points="744.42,883.72,751.9866,877.4155,746.6304,879.2351,744.8108,873.8789,744.42,883.72" style="stroke:#808080;stroke-width:1.0;"/><text fill="#000000" font-family="sans-serif" font-size="13" lengthAdjust="spacing" textLength="104" x="664" y="839.897">eliminarRecurso()</text></g><!--link EditRecurso to EditRecurso--><g id="link_EditRecurso_EditRecurso"><path d="M1020.75,954.72 C1012.34,937.23 1021.59,920 1048.5,920 C1075.41,920 1087.2601,931.8226 1078.8501,949.3126 " fill="none" id="EditRecurso-to-EditRecurso" style="stroke:#808080;stroke-width:1.0;stroke-dasharray:1.0,3.0;"/><polygon fill="#808080" points="1076.25,954.72,1083.7551,948.3424,1078.4168,950.2139,1076.5453,944.8756,1076.25,954.72" style="stroke:#808080;stroke-width:1.0;"/><text fill="#000000" font-family="sans-serif" font-size="13" lengthAdjust="spacing" textLength="91" x="1003" y="910.897">editarRecurso()</text></g><rect fill="#DDDDDD" height="214.6792" id="_legend" rx="7.5" ry="7.5" style="stroke:#000000;stroke-width:1.0;" width="209" x="1419" y="1137"/><text fill="#000000" font-family="sans-serif" font-size="14" font-weight="bold" lengthAdjust="spacing" textLength="170" x="1424" y="1156.9659">Leyenda de Estados RUP</text><line style="stroke:#000000;stroke-width:1.0;" x1="1419" x2="1628" y1="1166.0679" y2="1166.0679"/><line style="stroke:#000000;stroke-width:1.0;" x1="1419" x2="1628" y1="1168.0679" y2="1168.0679"/><rect fill="#808080" height="19.0679" style="stroke:none;stroke-width:1.0;" width="24" x="1424" y="1173.0679"/><text fill="#000000" font-family="sans-serif" font-size="14" lengthAdjust="spacing" textLength="20" x="1424" y="1188.0339">&#160;&#160;&#160;&#160;&#160;</text><text fill="#000000" font-family="sans-serif" font-size="14" lengthAdjust="spacing" textLength="167" x="1452" y="1188.0339">Identificado (no iniciado)</text><rect fill="#FF0000" height="19.0679" style="stroke:none;stroke-width:1.0;" width="24" x="1424" y="1192.1358"/><text fill="#000000" font-family="sans-serif" font-size="14" lengthAdjust="spacing" textLength="24" x="1424" y="1207.1018">&#160;&#160;&#160;&#160;&#160;&#160;</text><text fill="#000000" font-family="sans-serif" font-size="14" lengthAdjust="spacing" textLength="130" x="1452" y="1207.1018">Detalle/Prototipado</text><rect fill="#B8860B" height="19.0679" style="stroke:none;stroke-width:1.0;" width="24" x="1424" y="1211.2038"/><text fill="#000000" font-family="sans-serif" font-size="14" lengthAdjust="spacing" textLength="4" x="1424" y="1226.1697">&#160;</text><text fill="#000000" font-family="sans-serif" font-size="14" lengthAdjust="spacing" textLength="52" x="1452" y="1226.1697">An&#225;lisis</text><rect fill="#008000" height="19.0679" style="stroke:none;stroke-width:1.0;" width="24" x="1424" y="1230.2717"/><text fill="#000000" font-family="sans-serif" font-size="14" lengthAdjust="spacing" textLength="16" x="1424" y="1245.2376">&#160;&#160;&#160;&#160;</text><text fill="#000000" font-family="sans-serif" font-size="14" lengthAdjust="spacing" textLength="46" x="1452" y="1245.2376">Dise&#241;o</text><rect fill="#ADD8E6" height="19.0679" style="stroke:none;stroke-width:1.0;" width="24" x="1424" y="1249.3396"/><text fill="#000000" font-family="sans-serif" font-size="14" lengthAdjust="spacing" textLength="4" x="1424" y="1264.3055">&#160;</text><text fill="#000000" font-family="sans-serif" font-size="14" lengthAdjust="spacing" textLength="69" x="1452" y="1264.3055">Desarrollo</text><rect fill="#0000FF" height="19.0679" style="stroke:none;stroke-width:1.0;" width="24" x="1424" y="1268.4075"/><text fill="#000000" font-family="sans-serif" font-size="14" lengthAdjust="spacing" textLength="20" x="1424" y="1283.3734">&#160;&#160;&#160;&#160;&#160;</text><text fill="#000000" font-family="sans-serif" font-size="14" lengthAdjust="spacing" textLength="55" x="1452" y="1283.3734">Pruebas</text><rect fill="#000000" height="19.0679" style="stroke:none;stroke-width:1.0;" width="24" x="1424" y="1287.4754"/><text fill="#000000" font-family="sans-serif" font-size="14" lengthAdjust="spacing" textLength="16" x="1424" y="1302.4414">&#160;&#160;&#160;&#160;</text><text fill="#000000" font-family="sans-serif" font-size="14" lengthAdjust="spacing" textLength="81" x="1452" y="1302.4414">Completado</text><text fill="#000000" font-family="sans-serif" font-size="14" lengthAdjust="spacing" textLength="12" x="1428" y="1321.5093">...</text><text fill="#000000" font-family="sans-serif" font-size="14" lengthAdjust="spacing" textLength="81" x="1448" y="1321.5093">Identificado</text><text fill="#000000" font-family="sans-serif" font-size="14" lengthAdjust="spacing" textLength="15" x="1428" y="1340.5772">---</text><text fill="#000000" font-family="sans-serif" font-size="14" lengthAdjust="spacing" textLength="112" x="1448" y="1340.5772">En trabajo activo</text><line style="stroke:#000000;stroke-width:1.0;" x1="1424" x2="1623" y1="1173.0679" y2="1173.0679"/><line style="stroke:#000000;stroke-width:1.0;" x1="1424" x2="1623" y1="1192.1358" y2="1192.1358"/><line style="stroke:#000000;stroke-width:1.0;" x1="1424" x2="1623" y1="1211.2038" y2="1211.2038"/><line style="stroke:#000000;stroke-width:1.0;" x1="1424" x2="1623" y1="1230.2717" y2="1230.2717"/><line style="stroke:#000000;stroke-width:1.0;" x1="1424" x2="1623" y1="1249.3396" y2="1249.3396"/><line style="stroke:#000000;stroke-width:1.0;" x1="1424" x2="1623" y1="1268.4075" y2="1268.4075"/><line style="stroke:#000000;stroke-width:1.0;" x1="1424" x2="1623" y1="1287.4754" y2="1287.4754"/><line style="stroke:#000000;stroke-width:1.0;" x1="1424" x2="1623" y1="1306.5433" y2="1306.5433"/><line style="stroke:#000000;stroke-width:1.0;" x1="1424" x2="1623" y1="1325.6113" y2="1325.6113"/><line style="stroke:#000000;stroke-width:1.0;" x1="1424" x2="1623" y1="1344.6792" y2="1344.6792"/><line style="stroke:#000000;stroke-width:1.0;" x1="1424" x2="1424" y1="1173.0679" y2="1344.6792"/><line style="stroke:#000000;stroke-width:1.0;" x1="1448" x2="1448" y1="1173.0679" y2="1344.6792"/><line style="stroke:#000000;stroke-width:1.0;" x1="1623" x2="1623" y1="1173.0679" y2="1344.6792"/><!--SRC=[dLV1RkCs4BthAuZjPJTOfsYFHjU0rc6o0XBRa99JKGIqDNROoAH1qWK2-6Vw2Vs6_R5I52bHacL9zY7GQDvxCnmEXqe6MuKKHuBktXHAgO2Defm5yfso0n5aZpBAG7qS01ruzf4RGP313bYArbmflY-e0TA_cvj7-D0UWb90M2gISedYbzNDZN5_qp_pSFhZbvqW7pDa31Ibm1JTqet6ey-C8yheXchZ2pevl82qW6ly7IYIPV3hId355Jtaj1AO4l6-uvcM53oTdL38VlwRKKbb1Ta903QpMbJ2p_yyVfQlPfqTOPO7aaG8dcMUtxXi8YjnX3MHlfDitgtodEyF6IWlENHxUujE_cgTOpAPe1DcI0co9dzpHFGc_AEzUPMBOWU1BgS2z2d1IRHSlCvn78TtuIUamozuU5Hl9I1Adl5J-7eN9Qlb8lh-Y0te2TYn55d5ouSuV0gJr_1xXEFdfO4yKgbqJVNMx8biGcj8dD8IwO3pbpXPjWNdHo6vh85QKWRZ1Rp7oJB6PvFRWkG2P1DyBZi3RG5NCRx7CLxCeyRgVTPAm1O4CDs5PIXy5zr7y-ZC4ZLJRoVbBMXBto4TC7nvFBC7uJ6hmkOGYmXBdHpX037kg7mCcrhjBR2LbCK5xPecqSCYV7w96pc6akuOqSjWrKRyMCPXh5VyW1TODsO1V006mW2RC5zkpfayPee4GT78QF9d_HH_LMzqyww3oM-__pMPcLQUsY4X4f1Q__EN8CXVvznyj7nDzMo2D4SNebEq0I4yk4FhmTBKhvs3AI9hGKLfTr9_SzIYuoslC3nI8xjwMrV1x8lBnBBnBA-qBzDCVrcAURuCTtra6Sxi9bNRFaKxyon-SFs7ycwEQmAzJ_R9umJ-sJn3zXjIPsciieYXsO9SnOUTKV63J15egnBHz5fNTDEDNwz202cRPZIx33wKtcXPoEYUifg27s1y_1vstucfZaL7QEEqLNFxDPHK93k8vHzFLoD7B1N7HBj4wfu5zKFVsugkbngTE9JUrSdT_EPGyjh9QVISo9uCHh3zgzWCXotT7GMflH-kt3zkksBtBj9Du7o-D8fTpkKE4UUtM-tCqUoYpYFeZKl4xREdu0SO7x-7tNU7bPTLH-JSPskMFmvc57aEe7YtfQkDPJcnuN4kCBekPV_sxGXatROArXf9BT8SpAr_4xYwL7HFUspaozJB7oEjAtB0D-IUI_qlbyYDrjLn5Rq-Lg-Ig9tNgnJARhwAxU_yQ87gq-ygkliAl8RyFm00]--></g></svg>