<?xml version="1.0" encoding="us-ascii" standalone="no"?><svg xmlns="http://www.w3.org/2000/svg" xmlns:xlink="http://www.w3.org/1999/xlink" contentStyleType="text/css" height="1478px" preserveAspectRatio="none" style="width:888px;height:1478px;background:#FFFFFF;" version="1.1" viewBox="0 0 888 1478" width="888px" zoomAndPan="magnify"><defs/><g><!--class Aula--><g id="elem_Aula"><rect codeLine="3" fill="#F1F1F1" height="181.4754" id="Aula" rx="2.5" ry="2.5" style="stroke:#181818;stroke-width:0.5;" width="246" x="7" y="191"/><ellipse cx="110.75" cy="207" fill="#ADD1B2" rx="11" ry="11" style="stroke:#181818;stroke-width:1.0;"/><path d="M113.7188,212.6406 Q113.1406,212.9375 112.5,213.0781 Q111.8594,213.2344 111.1563,213.2344 Q108.6563,213.2344 107.3281,211.5938 Q106.0156,209.9375 106.0156,206.8125 Q106.0156,203.6875 107.3281,202.0313 Q108.6563,200.375 111.1563,200.375 Q111.8594,200.375 112.5,200.5313 Q113.1563,200.6875 113.7188,200.9844 L113.7188,203.7031 Q113.0938,203.125 112.5,202.8594 Q111.9063,202.5781 111.2813,202.5781 Q109.9375,202.5781 109.25,203.6563 Q108.5625,204.7188 108.5625,206.8125 Q108.5625,208.9063 109.25,209.9844 Q109.9375,211.0469 111.2813,211.0469 Q111.9063,211.0469 112.5,210.7813 Q113.0938,210.5 113.7188,209.9219 L113.7188,212.6406 Z " fill="#000000"/><text fill="#000000" font-family="sans-serif" font-size="14" lengthAdjust="spacing" textLength="30" x="131.25" y="212.432">Aula</text><line style="stroke:#181818;stroke-width:0.5;" x1="8" x2="252" y1="223" y2="223"/><text fill="#000000" font-family="sans-serif" font-size="14" lengthAdjust="spacing" textLength="76" x="13" y="241.9659">-id: Integer</text><text fill="#000000" font-family="sans-serif" font-size="14" lengthAdjust="spacing" textLength="107" x="13" y="261.0339">-nombre: String</text><text fill="#000000" font-family="sans-serif" font-size="14" lengthAdjust="spacing" textLength="132" x="13" y="280.1018">-capacidad: Integer</text><text fill="#000000" font-family="sans-serif" font-size="14" lengthAdjust="spacing" textLength="137" x="13" y="299.1697">-propiedades: BitSet</text><text fill="#000000" font-family="sans-serif" font-size="14" lengthAdjust="spacing" textLength="122" x="13" y="318.2376">-especial: Boolean</text><text fill="#000000" font-family="sans-serif" font-size="14" lengthAdjust="spacing" textLength="139" x="13" y="337.3055">-bloqueada: Boolean</text><line style="stroke:#181818;stroke-width:0.5;" x1="8" x2="252" y1="345.4075" y2="345.4075"/><text fill="#000000" font-family="sans-serif" font-size="14" lengthAdjust="spacing" textLength="234" x="13" y="364.3734">+tieneRecurso(r: Recurso): Boolean</text></g><!--class Profesor--><g id="elem_Profesor"><rect codeLine="13" fill="#F1F1F1" height="143.3396" id="Profesor" rx="2.5" ry="2.5" style="stroke:#181818;stroke-width:0.5;" width="283" x="288.5" y="210"/><ellipse cx="397.75" cy="226" fill="#ADD1B2" rx="11" ry="11" style="stroke:#181818;stroke-width:1.0;"/><path d="M400.7188,231.6406 Q400.1406,231.9375 399.5,232.0781 Q398.8594,232.2344 398.1563,232.2344 Q395.6563,232.2344 394.3281,230.5938 Q393.0156,228.9375 393.0156,225.8125 Q393.0156,222.6875 394.3281,221.0313 Q395.6563,219.375 398.1563,219.375 Q398.8594,219.375 399.5,219.5313 Q400.1563,219.6875 400.7188,219.9844 L400.7188,222.7031 Q400.0938,222.125 399.5,221.8594 Q398.9063,221.5781 398.2813,221.5781 Q396.9375,221.5781 396.25,222.6563 Q395.5625,223.7188 395.5625,225.8125 Q395.5625,227.9063 396.25,228.9844 Q396.9375,230.0469 398.2813,230.0469 Q398.9063,230.0469 399.5,229.7813 Q400.0938,229.5 400.7188,228.9219 L400.7188,231.6406 Z " fill="#000000"/><text fill="#000000" font-family="sans-serif" font-size="14" lengthAdjust="spacing" textLength="56" x="418.25" y="231.432">Profesor</text><line style="stroke:#181818;stroke-width:0.5;" x1="289.5" x2="570.5" y1="242" y2="242"/><text fill="#000000" font-family="sans-serif" font-size="14" lengthAdjust="spacing" textLength="76" x="294.5" y="260.9659">-id: Integer</text><text fill="#000000" font-family="sans-serif" font-size="14" lengthAdjust="spacing" textLength="107" x="294.5" y="280.0339">-nombre: String</text><text fill="#000000" font-family="sans-serif" font-size="14" lengthAdjust="spacing" textLength="99" x="294.5" y="299.1018">-oficina: String</text><text fill="#000000" font-family="sans-serif" font-size="14" lengthAdjust="spacing" textLength="205" x="294.5" y="318.1697">-prioridadRecursos: Integer[5]</text><line style="stroke:#181818;stroke-width:0.5;" x1="289.5" x2="570.5" y1="326.2717" y2="326.2717"/><text fill="#000000" font-family="sans-serif" font-size="14" lengthAdjust="spacing" textLength="271" x="294.5" y="345.2376">+calcularPreferencia(aula: Aula): Integer</text></g><!--class Curso--><g id="elem_Curso"><rect codeLine="21" fill="#F1F1F1" height="257.7471" id="Curso" rx="2.5" ry="2.5" style="stroke:#181818;stroke-width:0.5;" width="202" x="414" y="451"/><ellipse cx="491.25" cy="467" fill="#ADD1B2" rx="11" ry="11" style="stroke:#181818;stroke-width:1.0;"/><path d="M494.2188,472.6406 Q493.6406,472.9375 493,473.0781 Q492.3594,473.2344 491.6563,473.2344 Q489.1563,473.2344 487.8281,471.5938 Q486.5156,469.9375 486.5156,466.8125 Q486.5156,463.6875 487.8281,462.0313 Q489.1563,460.375 491.6563,460.375 Q492.3594,460.375 493,460.5313 Q493.6563,460.6875 494.2188,460.9844 L494.2188,463.7031 Q493.5938,463.125 493,462.8594 Q492.4063,462.5781 491.7813,462.5781 Q490.4375,462.5781 489.75,463.6563 Q489.0625,464.7188 489.0625,466.8125 Q489.0625,468.9063 489.75,469.9844 Q490.4375,471.0469 491.7813,471.0469 Q492.4063,471.0469 493,470.7813 Q493.5938,470.5 494.2188,469.9219 L494.2188,472.6406 Z " fill="#000000"/><text fill="#000000" font-family="sans-serif" font-size="14" lengthAdjust="spacing" textLength="39" x="511.75" y="472.432">Curso</text><line style="stroke:#181818;stroke-width:0.5;" x1="415" x2="615" y1="483" y2="483"/><text fill="#000000" font-family="sans-serif" font-size="14" lengthAdjust="spacing" textLength="76" x="420" y="501.9659">-id: Integer</text><text fill="#000000" font-family="sans-serif" font-size="14" lengthAdjust="spacing" textLength="107" x="420" y="521.0339">-nombre: String</text><text fill="#000000" font-family="sans-serif" font-size="14" lengthAdjust="spacing" textLength="86" x="420" y="540.1018">-sigla: String</text><text fill="#000000" font-family="sans-serif" font-size="14" lengthAdjust="spacing" textLength="117" x="420" y="559.1697">-creditos: Integer</text><text fill="#000000" font-family="sans-serif" font-size="14" lengthAdjust="spacing" textLength="122" x="420" y="578.2376">-vacantes: Integer</text><text fill="#000000" font-family="sans-serif" font-size="14" lengthAdjust="spacing" textLength="93" x="420" y="597.3055">-ciclo: Integer</text><text fill="#000000" font-family="sans-serif" font-size="14" lengthAdjust="spacing" textLength="190" x="420" y="616.3734">-programas: Set&lt;Programa&gt;</text><text fill="#000000" font-family="sans-serif" font-size="14" lengthAdjust="spacing" textLength="128" x="420" y="635.4414">-tipoHorario: TipoH</text><text fill="#000000" font-family="sans-serif" font-size="14" lengthAdjust="spacing" textLength="141" x="420" y="654.5093">-laboratorio: Boolean</text><text fill="#000000" font-family="sans-serif" font-size="14" lengthAdjust="spacing" textLength="182" x="420" y="673.5772">-profesorVisitante: Boolean</text><text fill="#000000" font-family="sans-serif" font-size="14" lengthAdjust="spacing" textLength="106" x="420" y="692.6451">-activo: Boolean</text><line style="stroke:#181818;stroke-width:0.5;" x1="415" x2="615" y1="700.7471" y2="700.7471"/></g><!--class Horario--><g id="elem_Horario"><rect codeLine="35" fill="#F1F1F1" height="86.1358" id="Horario" rx="2.5" ry="2.5" style="stroke:#181818;stroke-width:0.5;" width="122" x="632" y="1067.5"/><ellipse cx="665" cy="1083.5" fill="#ADD1B2" rx="11" ry="11" style="stroke:#181818;stroke-width:1.0;"/><path d="M667.9688,1089.1406 Q667.3906,1089.4375 666.75,1089.5781 Q666.1094,1089.7344 665.4063,1089.7344 Q662.9063,1089.7344 661.5781,1088.0938 Q660.2656,1086.4375 660.2656,1083.3125 Q660.2656,1080.1875 661.5781,1078.5313 Q662.9063,1076.875 665.4063,1076.875 Q666.1094,1076.875 666.75,1077.0313 Q667.4063,1077.1875 667.9688,1077.4844 L667.9688,1080.2031 Q667.3438,1079.625 666.75,1079.3594 Q666.1563,1079.0781 665.5313,1079.0781 Q664.1875,1079.0781 663.5,1080.1563 Q662.8125,1081.2188 662.8125,1083.3125 Q662.8125,1085.4063 663.5,1086.4844 Q664.1875,1087.5469 665.5313,1087.5469 Q666.1563,1087.5469 666.75,1087.2813 Q667.3438,1087 667.9688,1086.4219 L667.9688,1089.1406 Z " fill="#000000"/><text fill="#000000" font-family="sans-serif" font-size="14" lengthAdjust="spacing" textLength="50" x="683" y="1088.932">Horario</text><line style="stroke:#181818;stroke-width:0.5;" x1="633" x2="753" y1="1099.5" y2="1099.5"/><text fill="#000000" font-family="sans-serif" font-size="14" lengthAdjust="spacing" textLength="110" x="638" y="1118.4659">-dia: DiaSemana</text><text fill="#000000" font-family="sans-serif" font-size="14" lengthAdjust="spacing" textLength="94" x="638" y="1137.5339">-hora: Integer</text><line style="stroke:#181818;stroke-width:0.5;" x1="633" x2="753" y1="1145.6358" y2="1145.6358"/></g><!--class BloqueHorario--><g id="elem_BloqueHorario"><rect codeLine="40" fill="#F1F1F1" height="86.1358" id="BloqueHorario" rx="2.5" ry="2.5" style="stroke:#181818;stroke-width:0.5;" width="152" x="536" y="807"/><ellipse cx="561.35" cy="823" fill="#ADD1B2" rx="11" ry="11" style="stroke:#181818;stroke-width:1.0;"/><path d="M564.3188,828.6406 Q563.7406,828.9375 563.1,829.0781 Q562.4594,829.2344 561.7563,829.2344 Q559.2563,829.2344 557.9281,827.5938 Q556.6156,825.9375 556.6156,822.8125 Q556.6156,819.6875 557.9281,818.0313 Q559.2563,816.375 561.7563,816.375 Q562.4594,816.375 563.1,816.5313 Q563.7563,816.6875 564.3188,816.9844 L564.3188,819.7031 Q563.6938,819.125 563.1,818.8594 Q562.5063,818.5781 561.8813,818.5781 Q560.5375,818.5781 559.85,819.6563 Q559.1625,820.7188 559.1625,822.8125 Q559.1625,824.9063 559.85,825.9844 Q560.5375,827.0469 561.8813,827.0469 Q562.5063,827.0469 563.1,826.7813 Q563.6938,826.5 564.3188,825.9219 L564.3188,828.6406 Z " fill="#000000"/><text fill="#000000" font-family="sans-serif" font-size="14" lengthAdjust="spacing" textLength="97" x="577.65" y="828.432">BloqueHorario</text><line style="stroke:#181818;stroke-width:0.5;" x1="537" x2="687" y1="839" y2="839"/><text fill="#000000" font-family="sans-serif" font-size="14" lengthAdjust="spacing" textLength="78" x="542" y="857.9659">-tipo: TipoH</text><text fill="#000000" font-family="sans-serif" font-size="14" lengthAdjust="spacing" textLength="140" x="542" y="877.0339">-horas: List&lt;Horario&gt;</text><line style="stroke:#181818;stroke-width:0.5;" x1="537" x2="687" y1="885.1358" y2="885.1358"/></g><!--class TipoH--><g id="elem_TipoH"><rect codeLine="45" fill="#F1F1F1" height="238.6792" id="TipoH" rx="2.5" ry="2.5" style="stroke:#181818;stroke-width:0.5;" width="71" x="470.5" y="991"/><ellipse cx="485.5" cy="1007" fill="#EB937F" rx="11" ry="11" style="stroke:#181818;stroke-width:1.0;"/><path d="M489.6094,1013 L481.8906,1013 L481.8906,1000.6094 L489.6094,1000.6094 L489.6094,1002.7656 L484.3438,1002.7656 L484.3438,1005.4375 L489.1094,1005.4375 L489.1094,1007.5938 L484.3438,1007.5938 L484.3438,1010.8438 L489.6094,1010.8438 L489.6094,1013 Z " fill="#000000"/><text fill="#000000" font-family="sans-serif" font-size="14" lengthAdjust="spacing" textLength="39" x="499.5" y="1012.432">TipoH</text><line style="stroke:#181818;stroke-width:0.5;" x1="471.5" x2="540.5" y1="1023" y2="1023"/><text fill="#000000" font-family="sans-serif" font-size="14" lengthAdjust="spacing" textLength="18" x="476.5" y="1041.9659">H1</text><text fill="#000000" font-family="sans-serif" font-size="14" lengthAdjust="spacing" textLength="18" x="476.5" y="1061.0339">H2</text><text fill="#000000" font-family="sans-serif" font-size="14" lengthAdjust="spacing" textLength="18" x="476.5" y="1080.1018">H3</text><text fill="#000000" font-family="sans-serif" font-size="14" lengthAdjust="spacing" textLength="18" x="476.5" y="1099.1697">H4</text><text fill="#000000" font-family="sans-serif" font-size="14" lengthAdjust="spacing" textLength="18" x="476.5" y="1118.2376">H5</text><text fill="#000000" font-family="sans-serif" font-size="14" lengthAdjust="spacing" textLength="18" x="476.5" y="1137.3055">H6</text><text fill="#000000" font-family="sans-serif" font-size="14" lengthAdjust="spacing" textLength="18" x="476.5" y="1156.3734">H7</text><text fill="#000000" font-family="sans-serif" font-size="14" lengthAdjust="spacing" textLength="18" x="476.5" y="1175.4414">H8</text><text fill="#000000" font-family="sans-serif" font-size="14" lengthAdjust="spacing" textLength="18" x="476.5" y="1194.5093">HE</text><text fill="#000000" font-family="sans-serif" font-size="14" lengthAdjust="spacing" textLength="18" x="476.5" y="1213.5772">HV</text><line style="stroke:#181818;stroke-width:0.5;" x1="471.5" x2="540.5" y1="1221.6792" y2="1221.6792"/></g><!--class DiaSemana--><g id="elem_DiaSemana"><rect codeLine="58" fill="#F1F1F1" height="162.4075" id="DiaSemana" rx="2.5" ry="2.5" style="stroke:#181818;stroke-width:0.5;" width="108" x="639" y="1309"/><ellipse cx="654" cy="1325" fill="#EB937F" rx="11" ry="11" style="stroke:#181818;stroke-width:1.0;"/><path d="M658.1094,1331 L650.3906,1331 L650.3906,1318.6094 L658.1094,1318.6094 L658.1094,1320.7656 L652.8438,1320.7656 L652.8438,1323.4375 L657.6094,1323.4375 L657.6094,1325.5938 L652.8438,1325.5938 L652.8438,1328.8438 L658.1094,1328.8438 L658.1094,1331 Z " fill="#000000"/><text fill="#000000" font-family="sans-serif" font-size="14" lengthAdjust="spacing" textLength="76" x="668" y="1330.432">DiaSemana</text><line style="stroke:#181818;stroke-width:0.5;" x1="640" x2="746" y1="1341" y2="1341"/><text fill="#000000" font-family="sans-serif" font-size="14" lengthAdjust="spacing" textLength="44" x="645" y="1359.9659">LUNES</text><text fill="#000000" font-family="sans-serif" font-size="14" lengthAdjust="spacing" textLength="55" x="645" y="1379.0339">MARTES</text><text fill="#000000" font-family="sans-serif" font-size="14" lengthAdjust="spacing" textLength="78" x="645" y="1398.1018">MIERCOLES</text><text fill="#000000" font-family="sans-serif" font-size="14" lengthAdjust="spacing" textLength="46" x="645" y="1417.1697">JUEVES</text><text fill="#000000" font-family="sans-serif" font-size="14" lengthAdjust="spacing" textLength="57" x="645" y="1436.2376">VIERNES</text><text fill="#000000" font-family="sans-serif" font-size="14" lengthAdjust="spacing" textLength="56" x="645" y="1455.3055">SABADO</text><line style="stroke:#181818;stroke-width:0.5;" x1="640" x2="746" y1="1463.4075" y2="1463.4075"/></g><!--class Programa--><g id="elem_Programa"><rect codeLine="67" fill="#F1F1F1" height="124.2717" id="Programa" rx="2.5" ry="2.5" style="stroke:#181818;stroke-width:0.5;" width="98" x="403" y="788"/><ellipse cx="418" cy="804" fill="#EB937F" rx="11" ry="11" style="stroke:#181818;stroke-width:1.0;"/><path d="M422.1094,810 L414.3906,810 L414.3906,797.6094 L422.1094,797.6094 L422.1094,799.7656 L416.8438,799.7656 L416.8438,802.4375 L421.6094,802.4375 L421.6094,804.5938 L416.8438,804.5938 L416.8438,807.8438 L422.1094,807.8438 L422.1094,810 Z " fill="#000000"/><text fill="#000000" font-family="sans-serif" font-size="14" lengthAdjust="spacing" textLength="66" x="432" y="809.432">Programa</text><line style="stroke:#181818;stroke-width:0.5;" x1="404" x2="500" y1="820" y2="820"/><text fill="#000000" font-family="sans-serif" font-size="14" lengthAdjust="spacing" textLength="82" x="409" y="838.9659">INDUSTRIAL</text><text fill="#000000" font-family="sans-serif" font-size="14" lengthAdjust="spacing" textLength="67" x="409" y="858.0339">SISTEMAS</text><text fill="#000000" font-family="sans-serif" font-size="14" lengthAdjust="spacing" textLength="73" x="409" y="877.1018">MECANICA</text><text fill="#000000" font-family="sans-serif" font-size="14" lengthAdjust="spacing" textLength="34" x="409" y="896.1697">CIVIL</text><line style="stroke:#181818;stroke-width:0.5;" x1="404" x2="500" y1="904.2717" y2="904.2717"/></g><!--class AsignacionHorario--><g id="elem_AsignacionHorario"><rect codeLine="74" fill="#F1F1F1" height="67.0679" id="AsignacionHorario" rx="2.5" ry="2.5" style="stroke:#181818;stroke-width:0.5;" width="228" x="474" y="26"/><ellipse cx="521.75" cy="42" fill="#ADD1B2" rx="11" ry="11" style="stroke:#181818;stroke-width:1.0;"/><path d="M524.7188,47.6406 Q524.1406,47.9375 523.5,48.0781 Q522.8594,48.2344 522.1563,48.2344 Q519.6563,48.2344 518.3281,46.5938 Q517.0156,44.9375 517.0156,41.8125 Q517.0156,38.6875 518.3281,37.0313 Q519.6563,35.375 522.1563,35.375 Q522.8594,35.375 523.5,35.5313 Q524.1563,35.6875 524.7188,35.9844 L524.7188,38.7031 Q524.0938,38.125 523.5,37.8594 Q522.9063,37.5781 522.2813,37.5781 Q520.9375,37.5781 520.25,38.6563 Q519.5625,39.7188 519.5625,41.8125 Q519.5625,43.9063 520.25,44.9844 Q520.9375,46.0469 522.2813,46.0469 Q522.9063,46.0469 523.5,45.7813 Q524.0938,45.5 524.7188,44.9219 L524.7188,47.6406 Z " fill="#000000"/><text fill="#000000" font-family="sans-serif" font-size="14" lengthAdjust="spacing" textLength="124" x="542.25" y="47.432">AsignacionHorario</text><line style="stroke:#181818;stroke-width:0.5;" x1="475" x2="701" y1="58" y2="58"/><line style="stroke:#181818;stroke-width:0.5;" x1="475" x2="701" y1="66" y2="66"/><text fill="#000000" font-family="sans-serif" font-size="14" lengthAdjust="spacing" textLength="216" x="480" y="84.9659">+calcularOptimizacion(): Integer</text></g><!--class Edificio--><g id="elem_Edificio"><rect codeLine="78" fill="#F1F1F1" height="86.1358" id="Edificio" rx="2.5" ry="2.5" style="stroke:#181818;stroke-width:0.5;" width="119" x="70.5" y="537"/><ellipse cx="102.6" cy="553" fill="#ADD1B2" rx="11" ry="11" style="stroke:#181818;stroke-width:1.0;"/><path d="M105.5688,558.6406 Q104.9906,558.9375 104.35,559.0781 Q103.7094,559.2344 103.0063,559.2344 Q100.5063,559.2344 99.1781,557.5938 Q97.8656,555.9375 97.8656,552.8125 Q97.8656,549.6875 99.1781,548.0313 Q100.5063,546.375 103.0063,546.375 Q103.7094,546.375 104.35,546.5313 Q105.0063,546.6875 105.5688,546.9844 L105.5688,549.7031 Q104.9438,549.125 104.35,548.8594 Q103.7563,548.5781 103.1313,548.5781 Q101.7875,548.5781 101.1,549.6563 Q100.4125,550.7188 100.4125,552.8125 Q100.4125,554.9063 101.1,555.9844 Q101.7875,557.0469 103.1313,557.0469 Q103.7563,557.0469 104.35,556.7813 Q104.9438,556.5 105.5688,555.9219 L105.5688,558.6406 Z " fill="#000000"/><text fill="#000000" font-family="sans-serif" font-size="14" lengthAdjust="spacing" textLength="49" x="120.4" y="558.432">Edificio</text><line style="stroke:#181818;stroke-width:0.5;" x1="71.5" x2="188.5" y1="569" y2="569"/><text fill="#000000" font-family="sans-serif" font-size="14" lengthAdjust="spacing" textLength="76" x="76.5" y="587.9659">-id: Integer</text><text fill="#000000" font-family="sans-serif" font-size="14" lengthAdjust="spacing" textLength="107" x="76.5" y="607.0339">-nombre: String</text><line style="stroke:#181818;stroke-width:0.5;" x1="71.5" x2="188.5" y1="615.1358" y2="615.1358"/></g><!--class Recurso--><g id="elem_Recurso"><rect codeLine="83" fill="#F1F1F1" height="105.2038" id="Recurso" rx="2.5" ry="2.5" style="stroke:#181818;stroke-width:0.5;" width="144" x="737" y="7"/><ellipse cx="778.1" cy="23" fill="#ADD1B2" rx="11" ry="11" style="stroke:#181818;stroke-width:1.0;"/><path d="M781.0688,28.6406 Q780.4906,28.9375 779.85,29.0781 Q779.2094,29.2344 778.5063,29.2344 Q776.0063,29.2344 774.6781,27.5938 Q773.3656,25.9375 773.3656,22.8125 Q773.3656,19.6875 774.6781,18.0313 Q776.0063,16.375 778.5063,16.375 Q779.2094,16.375 779.85,16.5313 Q780.5063,16.6875 781.0688,16.9844 L781.0688,19.7031 Q780.4438,19.125 779.85,18.8594 Q779.2563,18.5781 778.6313,18.5781 Q777.2875,18.5781 776.6,19.6563 Q775.9125,20.7188 775.9125,22.8125 Q775.9125,24.9063 776.6,25.9844 Q777.2875,27.0469 778.6313,27.0469 Q779.2563,27.0469 779.85,26.7813 Q780.4438,26.5 781.0688,25.9219 L781.0688,28.6406 Z " fill="#000000"/><text fill="#000000" font-family="sans-serif" font-size="14" lengthAdjust="spacing" textLength="54" x="797.9" y="28.432">Recurso</text><line style="stroke:#181818;stroke-width:0.5;" x1="738" x2="880" y1="39" y2="39"/><text fill="#000000" font-family="sans-serif" font-size="14" lengthAdjust="spacing" textLength="76" x="743" y="57.9659">-id: Integer</text><text fill="#000000" font-family="sans-serif" font-size="14" lengthAdjust="spacing" textLength="107" x="743" y="77.0339">-nombre: String</text><text fill="#000000" font-family="sans-serif" font-size="14" lengthAdjust="spacing" textLength="132" x="743" y="96.1018">-descripcion: String</text><line style="stroke:#181818;stroke-width:0.5;" x1="738" x2="880" y1="104.2038" y2="104.2038"/></g><!--link Aula to Edificio--><g id="link_Aula_Edificio"><path codeLine="89" d="M130,372.26 C130,426.98 130,482.35 130,525 " fill="none" id="Aula-to-Edificio" style="stroke:#181818;stroke-width:1.0;"/><polygon fill="none" points="130,537,134,531,130,525,126,531,130,537" style="stroke:#181818;stroke-width:1.0;"/><polygon fill="#000000" points="135,416.853,137.9389,407.8079,132.0611,407.8079,135,416.853" style="stroke:#000000;stroke-width:1.0;"/><text fill="#000000" font-family="sans-serif" font-size="13" lengthAdjust="spacing" textLength="70" x="144" y="416.897">pertenece a</text><text fill="#000000" font-family="sans-serif" font-size="13" lengthAdjust="spacing" textLength="7" x="122.7102" y="394.3865">*</text><text fill="#000000" font-family="sans-serif" font-size="13" lengthAdjust="spacing" textLength="7" x="122.3984" y="525.0945">1</text></g><!--link Curso to Programa--><g id="link_Curso_Programa"><path codeLine="90" d="M469.24,709.23 C466.52,719.23 464.05,729.23 462,739 C458.71,754.67 456.5,771.82 455.02,787.82 " fill="none" id="Curso-Programa" style="stroke:#181818;stroke-width:1.0;"/><polygon fill="#000000" points="466.1098,753.7731,470.6122,745.3958,464.8283,744.3493,466.1098,753.7731" style="stroke:#000000;stroke-width:1.0;"/><text fill="#000000" font-family="sans-serif" font-size="13" lengthAdjust="spacing" textLength="79" x="476" y="753.897">es dictado en</text><text fill="#000000" font-family="sans-serif" font-size="13" lengthAdjust="spacing" textLength="7" x="459.5461" y="730.6853">1</text><text fill="#000000" font-family="sans-serif" font-size="13" lengthAdjust="spacing" textLength="7" x="447.9615" y="776.1294">*</text></g><!--link Curso to BloqueHorario--><g id="link_Curso_BloqueHorario"><path codeLine="91" d="M561.37,709.11 C574.13,744.37 587.09,780.18 596.7,806.73 " fill="none" id="Curso-BloqueHorario" style="stroke:#181818;stroke-width:1.0;"/><polygon fill="#000000" points="584.7016,753.5546,584.3869,744.0492,578.8599,746.0495,584.7016,753.5546" style="stroke:#000000;stroke-width:1.0;"/><text fill="#000000" font-family="sans-serif" font-size="13" lengthAdjust="spacing" textLength="65" x="592" y="753.897">asignado a</text><text fill="#000000" font-family="sans-serif" font-size="13" lengthAdjust="spacing" textLength="7" x="556.7145" y="730.5588">*</text><text fill="#000000" font-family="sans-serif" font-size="13" lengthAdjust="spacing" textLength="7" x="586.5863" y="795.0998">1</text></g><!--link BloqueHorario to TipoH--><g id="link_BloqueHorario_TipoH"><path codeLine="92" d="M566.08,893.15 C553.11,907.43 540.29,924.28 532,942 C524.89,957.19 519.66,973.93 515.82,990.76 " fill="none" id="BloqueHorario-TipoH" style="stroke:#181818;stroke-width:1.0;"/><polygon fill="#000000" points="534.7111,956.2983,541.4647,949.6021,536.2389,946.9113,534.7111,956.2983" style="stroke:#000000;stroke-width:1.0;"/><text fill="#000000" font-family="sans-serif" font-size="13" lengthAdjust="spacing" textLength="58" x="546" y="956.897">es de tipo</text><text fill="#000000" font-family="sans-serif" font-size="13" lengthAdjust="spacing" textLength="7" x="551.5126" y="914.9996">*</text><text fill="#000000" font-family="sans-serif" font-size="13" lengthAdjust="spacing" textLength="7" x="509.2446" y="979.0754">1</text></g><!--link BloqueHorario to Horario--><g id="link_BloqueHorario_Horario"><path codeLine="93" d="M609.23,893.16 C608.95,913.91 610.24,939.1 616,961 C626.05,999.2 647.16,1038.72 664.73,1067.38 " fill="none" id="BloqueHorario-Horario" style="stroke:#181818;stroke-width:1.0;"/><polygon fill="#000000" points="622.5177,956.6171,622.5725,947.1067,616.9719,948.8908,622.5177,956.6171" style="stroke:#000000;stroke-width:1.0;"/><text fill="#000000" font-family="sans-serif" font-size="13" lengthAdjust="spacing" textLength="92" x="630" y="956.897">compuesto por</text><text fill="#000000" font-family="sans-serif" font-size="13" lengthAdjust="spacing" textLength="7" x="601.2699" y="915.0111">*</text><text fill="#000000" font-family="sans-serif" font-size="13" lengthAdjust="spacing" textLength="7" x="652.4681" y="1055.7747">*</text></g><!--link Horario to DiaSemana--><g id="link_Horario_DiaSemana"><path codeLine="94" d="M693,1153.65 C693,1194.74 693,1258.26 693,1308.97 " fill="none" id="Horario-DiaSemana" style="stroke:#181818;stroke-width:1.0;"/><polygon fill="#000000" points="698,1274.853,700.9389,1265.8079,695.0611,1265.8079,698,1274.853" style="stroke:#000000;stroke-width:1.0;"/><text fill="#000000" font-family="sans-serif" font-size="13" lengthAdjust="spacing" textLength="57" x="707" y="1274.897">ocurre en</text><text fill="#000000" font-family="sans-serif" font-size="13" lengthAdjust="spacing" textLength="7" x="685.4641" y="1175.4996">*</text><text fill="#000000" font-family="sans-serif" font-size="13" lengthAdjust="spacing" textLength="7" x="685.6555" y="1297.0686">1</text></g><!--link AsignacionHorario to Aula--><g id="link_AsignacionHorario_Aula"><path codeLine="96" d="M496.95,93.12 C432.54,117.36 344.85,152.74 271,191 C265.08,194.07 259.08,197.31 253.08,200.66 " fill="none" id="AsignacionHorario-Aula" style="stroke:#181818;stroke-width:1.0;"/><polygon fill="#000000" points="374.4251,153.8704,383.887,152.91,381.5154,147.5318,374.4251,153.8704" style="stroke:#000000;stroke-width:1.0;"/><text fill="#000000" font-family="sans-serif" font-size="13" lengthAdjust="spacing" textLength="35" x="388" y="156.897">utiliza</text><text fill="#000000" font-family="sans-serif" font-size="13" lengthAdjust="spacing" textLength="7" x="472.5173" y="114.8417">*</text><text fill="#000000" font-family="sans-serif" font-size="13" lengthAdjust="spacing" textLength="7" x="261.189" y="191.8411">1</text></g><!--link AsignacionHorario to Curso--><g id="link_AsignacionHorario_Curso"><path codeLine="97" d="M604.15,93.36 C610.43,107.9 616.86,125.42 620,142 C621.57,150.3 620.62,152.58 620,161 C613.09,255.53 611.95,280.04 589,372 C582.55,397.83 574.13,424.95 565.28,450.74 " fill="none" id="AsignacionHorario-Curso" style="stroke:#181818;stroke-width:1.0;"/><polygon fill="#000000" points="622.4594,286.8237,626.3591,278.1494,620.5157,277.5139,622.4594,286.8237" style="stroke:#000000;stroke-width:1.0;"/><text fill="#000000" font-family="sans-serif" font-size="13" lengthAdjust="spacing" textLength="39" x="632" y="286.897">asigna</text><text fill="#000000" font-family="sans-serif" font-size="13" lengthAdjust="spacing" textLength="7" x="599.4033" y="114.8592">*</text><text fill="#000000" font-family="sans-serif" font-size="13" lengthAdjust="spacing" textLength="7" x="561.1307" y="439.2715">1</text></g><!--link AsignacionHorario to Profesor--><g id="link_AsignacionHorario_Profesor"><path codeLine="98" d="M564.35,93.44 C542.31,124.12 508.72,170.89 480.64,209.98 " fill="none" id="AsignacionHorario-Profesor" style="stroke:#181818;stroke-width:1.0;"/><polygon fill="#000000" points="530.083,155.914,537.7468,150.2822,532.9729,146.8531,530.083,155.914" style="stroke:#000000;stroke-width:1.0;"/><text fill="#000000" font-family="sans-serif" font-size="13" lengthAdjust="spacing" textLength="69" x="542" y="156.897">dictado por</text><text fill="#000000" font-family="sans-serif" font-size="13" lengthAdjust="spacing" textLength="7" x="552.5139" y="114.9535">*</text><text fill="#000000" font-family="sans-serif" font-size="13" lengthAdjust="spacing" textLength="7" x="478.7959" y="198.1449">1</text></g><!--link AsignacionHorario to Horario--><g id="link_AsignacionHorario_Horario"><path codeLine="99" d="M632.85,93.12 C680.49,131.92 749,201.46 749,280.5 C749,280.5 749,280.5 749,851 C749,928.6 724.59,1016.4 708.01,1067.12 " fill="none" id="AsignacionHorario-Horario" style="stroke:#181818;stroke-width:1.0;"/><polygon fill="#000000" points="754.3847,585.3382,756.619,576.0938,750.7586,576.546,754.3847,585.3382" style="stroke:#000000;stroke-width:1.0;"/><text fill="#000000" font-family="sans-serif" font-size="13" lengthAdjust="spacing" textLength="57" x="763" y="585.397">ocurre en</text><text fill="#000000" font-family="sans-serif" font-size="13" lengthAdjust="spacing" textLength="7" x="633.4739" y="114.8417">*</text><text fill="#000000" font-family="sans-serif" font-size="13" lengthAdjust="spacing" textLength="7" x="702.8444" y="1055.7941">1</text></g><!--link Profesor to Curso--><g id="link_Profesor_Curso"><path codeLine="101" d="M450.25,353.14 C458.65,382.43 468.66,417.35 478.27,450.87 " fill="none" id="Profesor-Curso" style="stroke:#181818;stroke-width:1.0;"/><polygon fill="#000000" points="474.378,416.6594,474.7103,407.1546,469.0601,408.7746,474.378,416.6594" style="stroke:#000000;stroke-width:1.0;"/><text fill="#000000" font-family="sans-serif" font-size="13" lengthAdjust="spacing" textLength="29" x="482" y="416.897">dicta</text><text fill="#000000" font-family="sans-serif" font-size="13" lengthAdjust="spacing" textLength="7" x="444.9773" y="375.3203">*</text><text fill="#000000" font-family="sans-serif" font-size="13" lengthAdjust="spacing" textLength="7" x="468.6928" y="438.9808">*</text></g><!--SRC=[ZLHDRzim3BtdLmWvjHq2hDkw3KOHm4qDr4FwWJZDPTX1aTcCc2Dfijp3XlttaRAZs5lMvKBBpu_qunEb-XjgAvtS2bN9kawzTxXkFEJAw09_W7Wz6eKl8cqgANwEX9XWcOXSUzY0urTjjci7YIWeLMyOKT9AXQKSygmp5e5Gg1DnXRu0pp3K5XJAYZ1ZAf2QmNLblZSWIzb7Nta43GjGZQlDYKj4jppTatxjr3uuymIrSKSgDa-eKCi-P1qQnqrqVwbZYSyNNrYDafKYJzo3WoTmeAc94qb04gmwtVynYffndICLrRYf1dgKWn9zJmQ3pr99UXk22bLb_hH-GtiiYKUkNpvqhrF-vj6Q6-CajPk89RymMiarOTu4jBSnjlDrXJLw_lNWgrGUdys1xUX-qFPU8ZLsZRA0hTIIaQ_q-O1VLs4A1hcijYUJ4wcfETR-ikDDEHzqisrP8UtcdCCR3cyvlEDmmU4zXmySFdB8EAnYXIWoL9a_tcK5FM_JnR9TvDbYTZyFwq-FsIeiLWIsl2AzIg_lOx6Tww5MVdVzM2mNUJfdObuiiziqbCncwLq-IsavorVvV6z6IXEXwLWPtJSaJk6zzRZ57u5mScZuiX9vo8-QlvZKpVwHCqidMpcqBA5VAjmSuxEnc4oC69-FevH4M72UphG28SLqr9uFPamc8M5dMIAW5YKgBqiZGE-fPosLCWQpaWWPt28srntEKIyfJ4XR70IFrZ_9z8YrbTdQ1cflXAKBPZewK3WEJY8CEUYWLJtwUnDxIMcuF1gF5UqZiLya1mDsVVwFlBiDasXYg_p5fDZle8DuiVQSwRI4scBw6m00]--></g></svg>