<?xml version="1.0" encoding="us-ascii" standalone="no"?><svg xmlns="http://www.w3.org/2000/svg" xmlns:xlink="http://www.w3.org/1999/xlink" contentStyleType="text/css" height="1499px" preserveAspectRatio="none" style="width:786px;height:1499px;background:#FFFFFF;" version="1.1" viewBox="0 0 786 1499" width="786px" zoomAndPan="magnify"><defs/><g><!--class Aula--><g id="elem_Aula"><rect codeLine="3" fill="#F1F1F1" height="181.4754" id="Aula" rx="2.5" ry="2.5" style="stroke:#181818;stroke-width:0.5;" width="246" x="62" y="191"/><ellipse cx="165.75" cy="207" fill="#ADD1B2" rx="11" ry="11" style="stroke:#181818;stroke-width:1.0;"/><path d="M168.7188,212.6406 Q168.1406,212.9375 167.5,213.0781 Q166.8594,213.2344 166.1563,213.2344 Q163.6563,213.2344 162.3281,211.5938 Q161.0156,209.9375 161.0156,206.8125 Q161.0156,203.6875 162.3281,202.0313 Q163.6563,200.375 166.1563,200.375 Q166.8594,200.375 167.5,200.5313 Q168.1563,200.6875 168.7188,200.9844 L168.7188,203.7031 Q168.0938,203.125 167.5,202.8594 Q166.9063,202.5781 166.2813,202.5781 Q164.9375,202.5781 164.25,203.6563 Q163.5625,204.7188 163.5625,206.8125 Q163.5625,208.9063 164.25,209.9844 Q164.9375,211.0469 166.2813,211.0469 Q166.9063,211.0469 167.5,210.7813 Q168.0938,210.5 168.7188,209.9219 L168.7188,212.6406 Z " fill="#000000"/><text fill="#000000" font-family="sans-serif" font-size="14" lengthAdjust="spacing" textLength="30" x="186.25" y="212.432">Aula</text><line style="stroke:#181818;stroke-width:0.5;" x1="63" x2="307" y1="223" y2="223"/><text fill="#000000" font-family="sans-serif" font-size="14" lengthAdjust="spacing" textLength="76" x="68" y="241.9659">-id: Integer</text><text fill="#000000" font-family="sans-serif" font-size="14" lengthAdjust="spacing" textLength="107" x="68" y="261.0339">-nombre: String</text><text fill="#000000" font-family="sans-serif" font-size="14" lengthAdjust="spacing" textLength="132" x="68" y="280.1018">-capacidad: Integer</text><text fill="#000000" font-family="sans-serif" font-size="14" lengthAdjust="spacing" textLength="137" x="68" y="299.1697">-propiedades: BitSet</text><text fill="#000000" font-family="sans-serif" font-size="14" lengthAdjust="spacing" textLength="122" x="68" y="318.2376">-especial: Boolean</text><text fill="#000000" font-family="sans-serif" font-size="14" lengthAdjust="spacing" textLength="139" x="68" y="337.3055">-bloqueada: Boolean</text><line style="stroke:#181818;stroke-width:0.5;" x1="63" x2="307" y1="345.4075" y2="345.4075"/><text fill="#000000" font-family="sans-serif" font-size="14" lengthAdjust="spacing" textLength="234" x="68" y="364.3734">+tieneRecurso(r: Recurso): Boolean</text></g><!--class Profesor--><g id="elem_Profesor"><rect codeLine="13" fill="#F1F1F1" height="143.3396" id="Profesor" rx="2.5" ry="2.5" style="stroke:#181818;stroke-width:0.5;" width="283" x="343.5" y="210"/><ellipse cx="452.75" cy="226" fill="#ADD1B2" rx="11" ry="11" style="stroke:#181818;stroke-width:1.0;"/><path d="M455.7188,231.6406 Q455.1406,231.9375 454.5,232.0781 Q453.8594,232.2344 453.1563,232.2344 Q450.6563,232.2344 449.3281,230.5938 Q448.0156,228.9375 448.0156,225.8125 Q448.0156,222.6875 449.3281,221.0313 Q450.6563,219.375 453.1563,219.375 Q453.8594,219.375 454.5,219.5313 Q455.1563,219.6875 455.7188,219.9844 L455.7188,222.7031 Q455.0938,222.125 454.5,221.8594 Q453.9063,221.5781 453.2813,221.5781 Q451.9375,221.5781 451.25,222.6563 Q450.5625,223.7188 450.5625,225.8125 Q450.5625,227.9063 451.25,228.9844 Q451.9375,230.0469 453.2813,230.0469 Q453.9063,230.0469 454.5,229.7813 Q455.0938,229.5 455.7188,228.9219 L455.7188,231.6406 Z " fill="#000000"/><text fill="#000000" font-family="sans-serif" font-size="14" lengthAdjust="spacing" textLength="56" x="473.25" y="231.432">Profesor</text><line style="stroke:#181818;stroke-width:0.5;" x1="344.5" x2="625.5" y1="242" y2="242"/><text fill="#000000" font-family="sans-serif" font-size="14" lengthAdjust="spacing" textLength="76" x="349.5" y="260.9659">-id: Integer</text><text fill="#000000" font-family="sans-serif" font-size="14" lengthAdjust="spacing" textLength="107" x="349.5" y="280.0339">-nombre: String</text><text fill="#000000" font-family="sans-serif" font-size="14" lengthAdjust="spacing" textLength="99" x="349.5" y="299.1018">-oficina: String</text><text fill="#000000" font-family="sans-serif" font-size="14" lengthAdjust="spacing" textLength="205" x="349.5" y="318.1697">-prioridadRecursos: Integer[5]</text><line style="stroke:#181818;stroke-width:0.5;" x1="344.5" x2="625.5" y1="326.2717" y2="326.2717"/><text fill="#000000" font-family="sans-serif" font-size="14" lengthAdjust="spacing" textLength="271" x="349.5" y="345.2376">+calcularPreferencia(aula: Aula): Integer</text></g><!--class Curso--><g id="elem_Curso"><rect codeLine="21" fill="#F1F1F1" height="257.7471" id="Curso" rx="2.5" ry="2.5" style="stroke:#181818;stroke-width:0.5;" width="202" x="490" y="451"/><ellipse cx="567.25" cy="467" fill="#ADD1B2" rx="11" ry="11" style="stroke:#181818;stroke-width:1.0;"/><path d="M570.2188,472.6406 Q569.6406,472.9375 569,473.0781 Q568.3594,473.2344 567.6563,473.2344 Q565.1563,473.2344 563.8281,471.5938 Q562.5156,469.9375 562.5156,466.8125 Q562.5156,463.6875 563.8281,462.0313 Q565.1563,460.375 567.6563,460.375 Q568.3594,460.375 569,460.5313 Q569.6563,460.6875 570.2188,460.9844 L570.2188,463.7031 Q569.5938,463.125 569,462.8594 Q568.4063,462.5781 567.7813,462.5781 Q566.4375,462.5781 565.75,463.6563 Q565.0625,464.7188 565.0625,466.8125 Q565.0625,468.9063 565.75,469.9844 Q566.4375,471.0469 567.7813,471.0469 Q568.4063,471.0469 569,470.7813 Q569.5938,470.5 570.2188,469.9219 L570.2188,472.6406 Z " fill="#000000"/><text fill="#000000" font-family="sans-serif" font-size="14" lengthAdjust="spacing" textLength="39" x="587.75" y="472.432">Curso</text><line style="stroke:#181818;stroke-width:0.5;" x1="491" x2="691" y1="483" y2="483"/><text fill="#000000" font-family="sans-serif" font-size="14" lengthAdjust="spacing" textLength="76" x="496" y="501.9659">-id: Integer</text><text fill="#000000" font-family="sans-serif" font-size="14" lengthAdjust="spacing" textLength="107" x="496" y="521.0339">-nombre: String</text><text fill="#000000" font-family="sans-serif" font-size="14" lengthAdjust="spacing" textLength="86" x="496" y="540.1018">-sigla: String</text><text fill="#000000" font-family="sans-serif" font-size="14" lengthAdjust="spacing" textLength="117" x="496" y="559.1697">-creditos: Integer</text><text fill="#000000" font-family="sans-serif" font-size="14" lengthAdjust="spacing" textLength="122" x="496" y="578.2376">-vacantes: Integer</text><text fill="#000000" font-family="sans-serif" font-size="14" lengthAdjust="spacing" textLength="93" x="496" y="597.3055">-ciclo: Integer</text><text fill="#000000" font-family="sans-serif" font-size="14" lengthAdjust="spacing" textLength="190" x="496" y="616.3734">-programas: Set&lt;Programa&gt;</text><text fill="#000000" font-family="sans-serif" font-size="14" lengthAdjust="spacing" textLength="127" x="496" y="635.4414">-bloqueH: BloqueH</text><text fill="#000000" font-family="sans-serif" font-size="14" lengthAdjust="spacing" textLength="141" x="496" y="654.5093">-laboratorio: Boolean</text><text fill="#000000" font-family="sans-serif" font-size="14" lengthAdjust="spacing" textLength="182" x="496" y="673.5772">-profesorVisitante: Boolean</text><text fill="#000000" font-family="sans-serif" font-size="14" lengthAdjust="spacing" textLength="106" x="496" y="692.6451">-activo: Boolean</text><line style="stroke:#181818;stroke-width:0.5;" x1="491" x2="691" y1="700.7471" y2="700.7471"/></g><!--class BloqueH--><g id="elem_BloqueH"><rect codeLine="35" fill="#F1F1F1" height="238.6792" id="BloqueH" rx="2.5" ry="2.5" style="stroke:#181818;stroke-width:0.5;" width="112" x="235" y="788"/><ellipse cx="260.35" cy="804" fill="#EB937F" rx="11" ry="11" style="stroke:#181818;stroke-width:1.0;"/><path d="M264.4594,810 L256.7406,810 L256.7406,797.6094 L264.4594,797.6094 L264.4594,799.7656 L259.1938,799.7656 L259.1938,802.4375 L263.9594,802.4375 L263.9594,804.5938 L259.1938,804.5938 L259.1938,807.8438 L264.4594,807.8438 L264.4594,810 Z " fill="#000000"/><text fill="#000000" font-family="sans-serif" font-size="14" lengthAdjust="spacing" textLength="57" x="276.65" y="809.432">BloqueH</text><line style="stroke:#181818;stroke-width:0.5;" x1="236" x2="346" y1="820" y2="820"/><text fill="#000000" font-family="sans-serif" font-size="14" lengthAdjust="spacing" textLength="98" x="241" y="838.9659">H1 "LXV 07-08"</text><text fill="#000000" font-family="sans-serif" font-size="14" lengthAdjust="spacing" textLength="100" x="241" y="858.0339">H2 "MJS 07-08"</text><text fill="#000000" font-family="sans-serif" font-size="14" lengthAdjust="spacing" textLength="98" x="241" y="877.1018">H3 "LXV 09-10"</text><text fill="#000000" font-family="sans-serif" font-size="14" lengthAdjust="spacing" textLength="100" x="241" y="896.1697">H4 "MJS 09-10"</text><text fill="#000000" font-family="sans-serif" font-size="14" lengthAdjust="spacing" textLength="98" x="241" y="915.2376">H5 "LXV 11-12"</text><text fill="#000000" font-family="sans-serif" font-size="14" lengthAdjust="spacing" textLength="100" x="241" y="934.3055">H6 "MJS 11-12"</text><text fill="#000000" font-family="sans-serif" font-size="14" lengthAdjust="spacing" textLength="98" x="241" y="953.3734">H7 "LXV 05-06"</text><text fill="#000000" font-family="sans-serif" font-size="14" lengthAdjust="spacing" textLength="100" x="241" y="972.4414">H8 "MJS 05-06"</text><text fill="#000000" font-family="sans-serif" font-size="14" lengthAdjust="spacing" textLength="89" x="241" y="991.5093">HE "Especial"</text><text fill="#000000" font-family="sans-serif" font-size="14" lengthAdjust="spacing" textLength="75" x="241" y="1010.5772">HV "Varios"</text><line style="stroke:#181818;stroke-width:0.5;" x1="236" x2="346" y1="1018.6792" y2="1018.6792"/></g><!--class PatronDias--><g id="elem_PatronDias"><rect codeLine="48" fill="#F1F1F1" height="181.4754" id="PatronDias" rx="2.5" ry="2.5" style="stroke:#181818;stroke-width:0.5;" width="144" x="7" y="1088"/><ellipse cx="39.55" cy="1104" fill="#ADD1B2" rx="11" ry="11" style="stroke:#181818;stroke-width:1.0;"/><path d="M42.5188,1109.6406 Q41.9406,1109.9375 41.3,1110.0781 Q40.6594,1110.2344 39.9563,1110.2344 Q37.4563,1110.2344 36.1281,1108.5938 Q34.8156,1106.9375 34.8156,1103.8125 Q34.8156,1100.6875 36.1281,1099.0313 Q37.4563,1097.375 39.9563,1097.375 Q40.6594,1097.375 41.3,1097.5313 Q41.9563,1097.6875 42.5188,1097.9844 L42.5188,1100.7031 Q41.8938,1100.125 41.3,1099.8594 Q40.7063,1099.5781 40.0813,1099.5781 Q38.7375,1099.5781 38.05,1100.6563 Q37.3625,1101.7188 37.3625,1103.8125 Q37.3625,1105.9063 38.05,1106.9844 Q38.7375,1108.0469 40.0813,1108.0469 Q40.7063,1108.0469 41.3,1107.7813 Q41.8938,1107.5 42.5188,1106.9219 L42.5188,1109.6406 Z " fill="#000000"/><text fill="#000000" font-family="sans-serif" font-size="14" lengthAdjust="spacing" textLength="73" x="57.45" y="1109.432">PatronDias</text><line style="stroke:#181818;stroke-width:0.5;" x1="8" x2="150" y1="1120" y2="1120"/><text fill="#000000" font-family="sans-serif" font-size="14" lengthAdjust="spacing" textLength="107" x="13" y="1138.9659">-nombre: String</text><text fill="#000000" font-family="sans-serif" font-size="14" lengthAdjust="spacing" textLength="104" x="13" y="1158.0339">-lunes: Boolean</text><text fill="#000000" font-family="sans-serif" font-size="14" lengthAdjust="spacing" textLength="114" x="13" y="1177.1018">-martes: Boolean</text><text fill="#000000" font-family="sans-serif" font-size="14" lengthAdjust="spacing" textLength="132" x="13" y="1196.1697">-miercoles: Boolean</text><text fill="#000000" font-family="sans-serif" font-size="14" lengthAdjust="spacing" textLength="110" x="13" y="1215.2376">-jueves: Boolean</text><text fill="#000000" font-family="sans-serif" font-size="14" lengthAdjust="spacing" textLength="116" x="13" y="1234.3055">-viernes: Boolean</text><text fill="#000000" font-family="sans-serif" font-size="14" lengthAdjust="spacing" textLength="116" x="13" y="1253.3734">-sabado: Boolean</text><line style="stroke:#181818;stroke-width:0.5;" x1="8" x2="150" y1="1261.4754" y2="1261.4754"/></g><!--class RangoHorario--><g id="elem_RangoHorario"><rect codeLine="58" fill="#F1F1F1" height="86.1358" id="RangoHorario" rx="2.5" ry="2.5" style="stroke:#181818;stroke-width:0.5;" width="143" x="432.5" y="1135.5"/><ellipse cx="455.6" cy="1151.5" fill="#ADD1B2" rx="11" ry="11" style="stroke:#181818;stroke-width:1.0;"/><path d="M458.5688,1157.1406 Q457.9906,1157.4375 457.35,1157.5781 Q456.7094,1157.7344 456.0063,1157.7344 Q453.5063,1157.7344 452.1781,1156.0938 Q450.8656,1154.4375 450.8656,1151.3125 Q450.8656,1148.1875 452.1781,1146.5313 Q453.5063,1144.875 456.0063,1144.875 Q456.7094,1144.875 457.35,1145.0313 Q458.0063,1145.1875 458.5688,1145.4844 L458.5688,1148.2031 Q457.9438,1147.625 457.35,1147.3594 Q456.7563,1147.0781 456.1313,1147.0781 Q454.7875,1147.0781 454.1,1148.1563 Q453.4125,1149.2188 453.4125,1151.3125 Q453.4125,1153.4063 454.1,1154.4844 Q454.7875,1155.5469 456.1313,1155.5469 Q456.7563,1155.5469 457.35,1155.2813 Q457.9438,1155 458.5688,1154.4219 L458.5688,1157.1406 Z " fill="#000000"/><text fill="#000000" font-family="sans-serif" font-size="14" lengthAdjust="spacing" textLength="93" x="471.4" y="1156.932">RangoHorario</text><line style="stroke:#181818;stroke-width:0.5;" x1="433.5" x2="574.5" y1="1167.5" y2="1167.5"/><text fill="#000000" font-family="sans-serif" font-size="14" lengthAdjust="spacing" textLength="131" x="438.5" y="1186.4659">-horaInicio: Integer</text><text fill="#000000" font-family="sans-serif" font-size="14" lengthAdjust="spacing" textLength="114" x="438.5" y="1205.5339">-horaFin: Integer</text><line style="stroke:#181818;stroke-width:0.5;" x1="433.5" x2="574.5" y1="1213.6358" y2="1213.6358"/></g><!--class AsignacionHorario--><g id="elem_AsignacionHorario"><rect codeLine="63" fill="#F1F1F1" height="105.2038" id="AsignacionHorario" rx="2.5" ry="2.5" style="stroke:#181818;stroke-width:0.5;" width="228" x="371" y="7"/><ellipse cx="418.75" cy="23" fill="#ADD1B2" rx="11" ry="11" style="stroke:#181818;stroke-width:1.0;"/><path d="M421.7188,28.6406 Q421.1406,28.9375 420.5,29.0781 Q419.8594,29.2344 419.1563,29.2344 Q416.6563,29.2344 415.3281,27.5938 Q414.0156,25.9375 414.0156,22.8125 Q414.0156,19.6875 415.3281,18.0313 Q416.6563,16.375 419.1563,16.375 Q419.8594,16.375 420.5,16.5313 Q421.1563,16.6875 421.7188,16.9844 L421.7188,19.7031 Q421.0938,19.125 420.5,18.8594 Q419.9063,18.5781 419.2813,18.5781 Q417.9375,18.5781 417.25,19.6563 Q416.5625,20.7188 416.5625,22.8125 Q416.5625,24.9063 417.25,25.9844 Q417.9375,27.0469 419.2813,27.0469 Q419.9063,27.0469 420.5,26.7813 Q421.0938,26.5 421.7188,25.9219 L421.7188,28.6406 Z " fill="#000000"/><text fill="#000000" font-family="sans-serif" font-size="14" lengthAdjust="spacing" textLength="124" x="439.25" y="28.432">AsignacionHorario</text><line style="stroke:#181818;stroke-width:0.5;" x1="372" x2="598" y1="39" y2="39"/><text fill="#000000" font-family="sans-serif" font-size="14" lengthAdjust="spacing" textLength="110" x="377" y="57.9659">-dia: DiaSemana</text><text fill="#000000" font-family="sans-serif" font-size="14" lengthAdjust="spacing" textLength="94" x="377" y="77.0339">-hora: Integer</text><line style="stroke:#181818;stroke-width:0.5;" x1="372" x2="598" y1="85.1358" y2="85.1358"/><text fill="#000000" font-family="sans-serif" font-size="14" lengthAdjust="spacing" textLength="216" x="377" y="104.1018">+calcularOptimizacion(): Integer</text></g><!--class DiaSemana--><g id="elem_DiaSemana"><rect codeLine="69" fill="#F1F1F1" height="162.4075" id="DiaSemana" rx="2.5" ry="2.5" style="stroke:#181818;stroke-width:0.5;" width="108" x="25" y="1330"/><ellipse cx="40" cy="1346" fill="#EB937F" rx="11" ry="11" style="stroke:#181818;stroke-width:1.0;"/><path d="M44.1094,1352 L36.3906,1352 L36.3906,1339.6094 L44.1094,1339.6094 L44.1094,1341.7656 L38.8438,1341.7656 L38.8438,1344.4375 L43.6094,1344.4375 L43.6094,1346.5938 L38.8438,1346.5938 L38.8438,1349.8438 L44.1094,1349.8438 L44.1094,1352 Z " fill="#000000"/><text fill="#000000" font-family="sans-serif" font-size="14" lengthAdjust="spacing" textLength="76" x="54" y="1351.432">DiaSemana</text><line style="stroke:#181818;stroke-width:0.5;" x1="26" x2="132" y1="1362" y2="1362"/><text fill="#000000" font-family="sans-serif" font-size="14" lengthAdjust="spacing" textLength="63" x="31" y="1380.9659">L "Lunes"</text><text fill="#000000" font-family="sans-serif" font-size="14" lengthAdjust="spacing" textLength="76" x="31" y="1400.0339">M "Martes"</text><text fill="#000000" font-family="sans-serif" font-size="14" lengthAdjust="spacing" textLength="89" x="31" y="1419.1018">X "Mi&#233;rcoles"</text><text fill="#000000" font-family="sans-serif" font-size="14" lengthAdjust="spacing" textLength="63" x="31" y="1438.1697">J "Jueves"</text><text fill="#000000" font-family="sans-serif" font-size="14" lengthAdjust="spacing" textLength="74" x="31" y="1457.2376">V "Viernes"</text><text fill="#000000" font-family="sans-serif" font-size="14" lengthAdjust="spacing" textLength="74" x="31" y="1476.3055">S "S&#225;bado"</text><line style="stroke:#181818;stroke-width:0.5;" x1="26" x2="132" y1="1484.4075" y2="1484.4075"/></g><!--class Programa--><g id="elem_Programa"><rect codeLine="78" fill="#F1F1F1" height="124.2717" id="Programa" rx="2.5" ry="2.5" style="stroke:#181818;stroke-width:0.5;" width="98" x="681" y="845.5"/><ellipse cx="696" cy="861.5" fill="#EB937F" rx="11" ry="11" style="stroke:#181818;stroke-width:1.0;"/><path d="M700.1094,867.5 L692.3906,867.5 L692.3906,855.1094 L700.1094,855.1094 L700.1094,857.2656 L694.8438,857.2656 L694.8438,859.9375 L699.6094,859.9375 L699.6094,862.0938 L694.8438,862.0938 L694.8438,865.3438 L700.1094,865.3438 L700.1094,867.5 Z " fill="#000000"/><text fill="#000000" font-family="sans-serif" font-size="14" lengthAdjust="spacing" textLength="66" x="710" y="866.932">Programa</text><line style="stroke:#181818;stroke-width:0.5;" x1="682" x2="778" y1="877.5" y2="877.5"/><text fill="#000000" font-family="sans-serif" font-size="14" lengthAdjust="spacing" textLength="82" x="687" y="896.4659">INDUSTRIAL</text><text fill="#000000" font-family="sans-serif" font-size="14" lengthAdjust="spacing" textLength="67" x="687" y="915.5339">SISTEMAS</text><text fill="#000000" font-family="sans-serif" font-size="14" lengthAdjust="spacing" textLength="73" x="687" y="934.6018">MECANICA</text><text fill="#000000" font-family="sans-serif" font-size="14" lengthAdjust="spacing" textLength="34" x="687" y="953.6697">CIVIL</text><line style="stroke:#181818;stroke-width:0.5;" x1="682" x2="778" y1="961.7717" y2="961.7717"/></g><!--class Edificio--><g id="elem_Edificio"><rect codeLine="85" fill="#F1F1F1" height="86.1358" id="Edificio" rx="2.5" ry="2.5" style="stroke:#181818;stroke-width:0.5;" width="119" x="125.5" y="537"/><ellipse cx="157.6" cy="553" fill="#ADD1B2" rx="11" ry="11" style="stroke:#181818;stroke-width:1.0;"/><path d="M160.5688,558.6406 Q159.9906,558.9375 159.35,559.0781 Q158.7094,559.2344 158.0063,559.2344 Q155.5063,559.2344 154.1781,557.5938 Q152.8656,555.9375 152.8656,552.8125 Q152.8656,549.6875 154.1781,548.0313 Q155.5063,546.375 158.0063,546.375 Q158.7094,546.375 159.35,546.5313 Q160.0063,546.6875 160.5688,546.9844 L160.5688,549.7031 Q159.9438,549.125 159.35,548.8594 Q158.7563,548.5781 158.1313,548.5781 Q156.7875,548.5781 156.1,549.6563 Q155.4125,550.7188 155.4125,552.8125 Q155.4125,554.9063 156.1,555.9844 Q156.7875,557.0469 158.1313,557.0469 Q158.7563,557.0469 159.35,556.7813 Q159.9438,556.5 160.5688,555.9219 L160.5688,558.6406 Z " fill="#000000"/><text fill="#000000" font-family="sans-serif" font-size="14" lengthAdjust="spacing" textLength="49" x="175.4" y="558.432">Edificio</text><line style="stroke:#181818;stroke-width:0.5;" x1="126.5" x2="243.5" y1="569" y2="569"/><text fill="#000000" font-family="sans-serif" font-size="14" lengthAdjust="spacing" textLength="76" x="131.5" y="587.9659">-id: Integer</text><text fill="#000000" font-family="sans-serif" font-size="14" lengthAdjust="spacing" textLength="107" x="131.5" y="607.0339">-nombre: String</text><line style="stroke:#181818;stroke-width:0.5;" x1="126.5" x2="243.5" y1="615.1358" y2="615.1358"/></g><!--class Recurso--><g id="elem_Recurso"><rect codeLine="90" fill="#F1F1F1" height="105.2038" id="Recurso" rx="2.5" ry="2.5" style="stroke:#181818;stroke-width:0.5;" width="144" x="634" y="7"/><ellipse cx="675.1" cy="23" fill="#ADD1B2" rx="11" ry="11" style="stroke:#181818;stroke-width:1.0;"/><path d="M678.0688,28.6406 Q677.4906,28.9375 676.85,29.0781 Q676.2094,29.2344 675.5063,29.2344 Q673.0063,29.2344 671.6781,27.5938 Q670.3656,25.9375 670.3656,22.8125 Q670.3656,19.6875 671.6781,18.0313 Q673.0063,16.375 675.5063,16.375 Q676.2094,16.375 676.85,16.5313 Q677.5063,16.6875 678.0688,16.9844 L678.0688,19.7031 Q677.4438,19.125 676.85,18.8594 Q676.2563,18.5781 675.6313,18.5781 Q674.2875,18.5781 673.6,19.6563 Q672.9125,20.7188 672.9125,22.8125 Q672.9125,24.9063 673.6,25.9844 Q674.2875,27.0469 675.6313,27.0469 Q676.2563,27.0469 676.85,26.7813 Q677.4438,26.5 678.0688,25.9219 L678.0688,28.6406 Z " fill="#000000"/><text fill="#000000" font-family="sans-serif" font-size="14" lengthAdjust="spacing" textLength="54" x="694.9" y="28.432">Recurso</text><line style="stroke:#181818;stroke-width:0.5;" x1="635" x2="777" y1="39" y2="39"/><text fill="#000000" font-family="sans-serif" font-size="14" lengthAdjust="spacing" textLength="76" x="640" y="57.9659">-id: Integer</text><text fill="#000000" font-family="sans-serif" font-size="14" lengthAdjust="spacing" textLength="107" x="640" y="77.0339">-nombre: String</text><text fill="#000000" font-family="sans-serif" font-size="14" lengthAdjust="spacing" textLength="132" x="640" y="96.1018">-descripcion: String</text><line style="stroke:#181818;stroke-width:0.5;" x1="635" x2="777" y1="104.2038" y2="104.2038"/></g><g id="elem_GMN23"><path d="M186.5,1147 L186.5,1174.5 L151.39,1178.5 L186.5,1182.5 L186.5,1210.118 A0,0 0 0 0 186.5,1210.118 L397.5,1210.118 A0,0 0 0 0 397.5,1210.118 L397.5,1157 L387.5,1147 L186.5,1147 A0,0 0 0 0 186.5,1147 " fill="#FEFFDD" style="stroke:#181818;stroke-width:0.5;"/><path d="M387.5,1147 L387.5,1157 L397.5,1157 L387.5,1147 " fill="#FEFFDD" style="stroke:#181818;stroke-width:0.5;"/><text fill="#000000" font-family="sans-serif" font-size="13" lengthAdjust="spacing" textLength="176" x="192.5" y="1165.897">Hay dos patrones principales:</text><text fill="#000000" font-family="sans-serif" font-size="13" lengthAdjust="spacing" textLength="190" x="192.5" y="1183.603">- LXV (Lunes, Mi&#233;rcoles, Viernes)</text><text fill="#000000" font-family="sans-serif" font-size="13" lengthAdjust="spacing" textLength="179" x="192.5" y="1201.309">- MJS (Martes, Jueves, S&#225;bado)</text></g><g id="elem_GMN26"><path d="M382,858 L382,903.5 L347.19,907.5 L382,911.5 L382,956.5301 A0,0 0 0 0 382,956.5301 L646,956.5301 A0,0 0 0 0 646,956.5301 L646,868 L636,858 L382,858 A0,0 0 0 0 382,858 " fill="#FEFFDD" style="stroke:#181818;stroke-width:0.5;"/><path d="M636,858 L636,868 L646,868 L636,858 " fill="#FEFFDD" style="stroke:#181818;stroke-width:0.5;"/><text fill="#000000" font-family="sans-serif" font-size="13" lengthAdjust="spacing" textLength="242" x="388" y="876.897">Los bloques est&#225;n organizados en pares:</text><text fill="#000000" font-family="sans-serif" font-size="13" lengthAdjust="spacing" textLength="243" x="388" y="894.603">- H1-H2: mismo horario, diferente patr&#243;n</text><text fill="#000000" font-family="sans-serif" font-size="13" lengthAdjust="spacing" textLength="243" x="388" y="912.309">- H3-H4: mismo horario, diferente patr&#243;n</text><text fill="#000000" font-family="sans-serif" font-size="13" lengthAdjust="spacing" textLength="243" x="388" y="930.0151">- H5-H6: mismo horario, diferente patr&#243;n</text><text fill="#000000" font-family="sans-serif" font-size="13" lengthAdjust="spacing" textLength="243" x="388" y="947.7211">- H7-H8: mismo horario, diferente patr&#243;n</text></g><!--link BloqueH to PatronDias--><g id="link_BloqueH_PatronDias"><path codeLine="96" d="M234.74,979.88 C208.62,1013.03 177.27,1052.8 149.58,1087.95 " fill="none" id="BloqueH-PatronDias" style="stroke:#181818;stroke-width:1.0;"/><text fill="#000000" font-family="sans-serif" font-size="13" lengthAdjust="spacing" textLength="7" x="220.0833" y="985.0274">1</text><text fill="#000000" font-family="sans-serif" font-size="13" lengthAdjust="spacing" textLength="7" x="148.3447" y="1076.3448">1</text></g><!--link BloqueH to RangoHorario--><g id="link_BloqueH_RangoHorario"><path codeLine="97" d="M347.13,1003.42 C352.63,1011.54 358.29,1019.5 364,1027 C393.61,1065.9 431.63,1106.27 460.57,1135.39 " fill="none" id="BloqueH-RangoHorario" style="stroke:#181818;stroke-width:1.0;"/><text fill="#000000" font-family="sans-serif" font-size="13" lengthAdjust="spacing" textLength="7" x="355.1428" y="1012.1331">1</text><text fill="#000000" font-family="sans-serif" font-size="13" lengthAdjust="spacing" textLength="7" x="445.7972" y="1123.7863">1</text></g><!--link PatronDias to DiaSemana--><g id="link_PatronDias_DiaSemana"><path codeLine="98" d="M79,1269.28 C79,1289.25 79,1310.3 79,1329.85 " fill="none" id="PatronDias-DiaSemana" style="stroke:#181818;stroke-width:1.0;"/><text fill="#000000" font-family="sans-serif" font-size="13" lengthAdjust="spacing" textLength="7" x="71.7102" y="1291.4082">*</text><text fill="#000000" font-family="sans-serif" font-size="13" lengthAdjust="spacing" textLength="7" x="71.6664" y="1318.2165">*</text></g><!--link Aula to Edificio--><g id="link_Aula_Edificio"><path codeLine="100" d="M185,372.26 C185,426.98 185,494.35 185,537 " fill="none" id="Aula-Edificio" style="stroke:#181818;stroke-width:1.0;"/><polygon fill="#000000" points="190,416.853,192.9389,407.8079,187.0611,407.8079,190,416.853" style="stroke:#000000;stroke-width:1.0;"/><text fill="#000000" font-family="sans-serif" font-size="13" lengthAdjust="spacing" textLength="70" x="199" y="416.897">pertenece a</text><text fill="#000000" font-family="sans-serif" font-size="13" lengthAdjust="spacing" textLength="7" x="177.7102" y="394.3865">*</text><text fill="#000000" font-family="sans-serif" font-size="13" lengthAdjust="spacing" textLength="7" x="177.3984" y="525.0945">1</text></g><!--link Curso to Programa--><g id="link_Curso_Programa"><path codeLine="101" d="M645.74,709.18 C665.72,755.97 687.4,806.75 703.77,845.08 " fill="none" id="Curso-Programa" style="stroke:#181818;stroke-width:1.0;"/><polygon fill="#000000" points="670.9635,753.4513,670.1143,743.9788,664.7087,746.287,670.9635,753.4513" style="stroke:#000000;stroke-width:1.0;"/><text fill="#000000" font-family="sans-serif" font-size="13" lengthAdjust="spacing" textLength="79" x="678" y="753.897">es dictado en</text><text fill="#000000" font-family="sans-serif" font-size="13" lengthAdjust="spacing" textLength="7" x="641.5422" y="730.6326">1</text><text fill="#000000" font-family="sans-serif" font-size="13" lengthAdjust="spacing" textLength="7" x="693.3325" y="833.802">*</text></g><!--link Curso to BloqueH--><g id="link_Curso_BloqueH"><path codeLine="102" d="M489.95,662.35 C448.39,698.45 401.34,742.92 364,788 C358.22,794.98 352.57,802.45 347.13,810.13 " fill="none" id="Curso-BloqueH" style="stroke:#181818;stroke-width:1.0;"/><polygon fill="#000000" points="405.5253,752.4484,413.9244,747.9867,409.6978,743.9019,405.5253,752.4484" style="stroke:#000000;stroke-width:1.0;"/><text fill="#000000" font-family="sans-serif" font-size="13" lengthAdjust="spacing" textLength="65" x="418" y="753.897">asignado a</text><text fill="#000000" font-family="sans-serif" font-size="13" lengthAdjust="spacing" textLength="7" x="474.9454" y="664.9379">*</text><text fill="#000000" font-family="sans-serif" font-size="13" lengthAdjust="spacing" textLength="7" x="355.1428" y="792.8697">1</text></g><!--link AsignacionHorario to Aula--><g id="link_AsignacionHorario_Aula"><path codeLine="104" d="M414.66,112.08 C382.62,135.58 343.75,164.08 307.17,190.91 " fill="none" id="AsignacionHorario-Aula" style="stroke:#181818;stroke-width:1.0;"/><polygon fill="#000000" points="371.968,154.8099,381,151.8307,377.5239,147.0909,371.968,154.8099" style="stroke:#000000;stroke-width:1.0;"/><text fill="#000000" font-family="sans-serif" font-size="13" lengthAdjust="spacing" textLength="35" x="385" y="156.897">utiliza</text><text fill="#000000" font-family="sans-serif" font-size="13" lengthAdjust="spacing" textLength="7" x="397.7378" y="134.2184">*</text><text fill="#000000" font-family="sans-serif" font-size="13" lengthAdjust="spacing" textLength="7" x="310.3682" y="179.3014">1</text></g><!--link AsignacionHorario to Curso--><g id="link_AsignacionHorario_Curso"><path codeLine="105" d="M574.84,112.12 C602.23,132.82 629.04,159.36 644,191 C682.3,271.97 667.14,372.37 643.4,450.75 " fill="none" id="AsignacionHorario-Curso" style="stroke:#181818;stroke-width:1.0;"/><polygon fill="#000000" points="672.9922,286.7536,674.0778,277.3052,668.3168,278.4716,672.9922,286.7536" style="stroke:#000000;stroke-width:1.0;"/><text fill="#000000" font-family="sans-serif" font-size="13" lengthAdjust="spacing" textLength="39" x="681" y="286.897">asigna</text><text fill="#000000" font-family="sans-serif" font-size="13" lengthAdjust="spacing" textLength="7" x="579.4419" y="134.2638">*</text><text fill="#000000" font-family="sans-serif" font-size="13" lengthAdjust="spacing" textLength="7" x="639.3798" y="439.2821">1</text></g><!--link AsignacionHorario to Profesor--><g id="link_AsignacionHorario_Profesor"><path codeLine="106" d="M485,112.08 C485,141.16 485,177.92 485,209.67 " fill="none" id="AsignacionHorario-Profesor" style="stroke:#181818;stroke-width:1.0;"/><polygon fill="#000000" points="490,156.853,492.9389,147.8079,487.0611,147.8079,490,156.853" style="stroke:#000000;stroke-width:1.0;"/><text fill="#000000" font-family="sans-serif" font-size="13" lengthAdjust="spacing" textLength="69" x="499" y="156.897">dictado por</text><text fill="#000000" font-family="sans-serif" font-size="13" lengthAdjust="spacing" textLength="7" x="477.5297" y="134.2184">*</text><text fill="#000000" font-family="sans-serif" font-size="13" lengthAdjust="spacing" textLength="7" x="477.6391" y="198.3019">1</text></g><!--link Profesor to Curso--><g id="link_Profesor_Curso"><path codeLine="108" d="M510.25,353.14 C520.73,382.43 533.21,417.35 545.19,450.87 " fill="none" id="Profesor-Curso" style="stroke:#181818;stroke-width:1.0;"/><polygon fill="#000000" points="538.6832,416.5612,538.4056,407.0546,532.8708,409.0334,538.6832,416.5612" style="stroke:#000000;stroke-width:1.0;"/><text fill="#000000" font-family="sans-serif" font-size="13" lengthAdjust="spacing" textLength="29" x="546" y="416.897">dicta</text><text fill="#000000" font-family="sans-serif" font-size="13" lengthAdjust="spacing" textLength="7" x="505.493" y="375.3203">*</text><text fill="#000000" font-family="sans-serif" font-size="13" lengthAdjust="spacing" textLength="7" x="535.0311" y="438.9808">*</text></g><!--SRC=[ZLNRZjis47ttLmpqv6qjmDvaBnMA0Cx6XRNm9ejLQWGeyZ2ck5wsCgcIz09DaO_9Ovxp2VjZdQ7kpgBnayIZe-7CcSEX-qlf4YtkG1JetDnxgpPxBrDXTAO-IPYEHk4BpFS5mhyZW5Zb2QJQowsqlDHcjx4oWOn-rLj619OeL8v3NcbDgIIXqYNmMlbCUeQbAwLGM11cJ25HCxWfpDzxYJdsqP-zabhUIR6tpenj0lNhIKVwt6HxQyszTCOUcR6vLq9fx4EbLSPo4VKkhWtnnzb7paPW8KWJUslblRHIKn5Z9209KfrqExP9NN6S8pDoQbiCyX5Mvihtqc3m4GNIQWWA9GfpAFsMUep48zL_lQsNhpgfbwHXzS9OWHjZqLFzPj2MibPrhPpolF7WAmgl7isW6LBlTqtWKFXo1j7gmngc5_7qCcBW5AARwwm7lAWPlyIpQG1UremMEAiOirayEmt0USNeW8iwnbayFG_0PHsZ1HOGBMhdXVKQeZLIlIxgcGYzDVgDGbSrxVik5NiTtDo9i4Fh3o4bhQ3L4FrpBnyFe4SY7iPpkC7SFEFmEzHRiwGsKT9LUW-qI3KPUTXyXdzJ-Xa_pibacawgqOCukIBZKTMPtA769aG_PklzTwLNE_Kfn1WFBHzQtqO9aLVK5HQC1R-XXWIfUF615khfQwKI0zSGNGTzUC6jgPJXLGPHzlI5HOdQRHf3XrtIjsz-pzxVfVCLizFi_U9cdl6EYwlvs_HgJgzNwJfTTJeiSiNd_wYZsUbVZOKZZpCDFM5LoJhrGpL78vf54CVXqPdkkQ_zhezw_en-gYZqw3et2ZEx-KH_DuKcK4hINaiX0U7Lg1fCpJR4RmHDG3h8bV0aDqZTKRkOhvlvWS5DnEE8e- -zrVjd7iRatgk2l4Fi_oM77PlmFo8tSpzfioxf4g1ysWkXfrGTEJ2PeusNODNsmOEvxpU2vWF-0xbnK0QGHA7hWIP-YNoikS70ysOSx3s1pimJgArx4aWyWyQLxoTGENm2jPrFoCivS0w7cNIJUKKfL0FRKMVyqnSDncvHauoS7NM8BlCce-KiNfuci5DkP-2Xqcf2rORRYk9pBK_VTCLz4IzV7iizYvVdnt8lukNb4ToczFy0]--></g></svg>