<?xml version="1.0" encoding="us-ascii" standalone="no"?><svg xmlns="http://www.w3.org/2000/svg" xmlns:xlink="http://www.w3.org/1999/xlink" contentStyleType="text/css" height="280px" preserveAspectRatio="none" style="width:2122px;height:280px;background:#FFFFFF;" version="1.1" viewBox="0 0 2122 280" width="2122px" zoomAndPan="magnify"><defs/><g><!--cluster View--><g id="cluster_View"><path d="M316,157 L350,157 A3.75,3.75 0 0 1 352.5,159.5 L359.5,182.0679 L643,182.0679 A2.5,2.5 0 0 1 645.5,184.5679 L645.5,269.5 A2.5,2.5 0 0 1 643,272 L316,272 A2.5,2.5 0 0 1 313.5,269.5 L313.5,159.5 A2.5,2.5 0 0 1 316,157 " fill="#FFFFFF" style="stroke:#000000;stroke-width:1.0;"/><line style="stroke:#000000;stroke-width:1.0;" x1="313.5" x2="359.5" y1="182.0679" y2="182.0679"/><text fill="#000000" font-family="Verdana" font-size="14" font-weight="bold" lengthAdjust="spacing" textLength="33" x="317.5" y="173.9659">View</text></g><!--cluster Controller--><g id="cluster_Controller"><path d="M864,157 L935,157 A3.75,3.75 0 0 1 937.5,159.5 L944.5,182.0679 L1165,182.0679 A2.5,2.5 0 0 1 1167.5,184.5679 L1167.5,269.5 A2.5,2.5 0 0 1 1165,272 L864,272 A2.5,2.5 0 0 1 861.5,269.5 L861.5,159.5 A2.5,2.5 0 0 1 864,157 " fill="#FFFFFF" style="stroke:#000000;stroke-width:1.0;"/><line style="stroke:#000000;stroke-width:1.0;" x1="861.5" x2="944.5" y1="182.0679" y2="182.0679"/><text fill="#000000" font-family="Verdana" font-size="14" font-weight="bold" lengthAdjust="spacing" textLength="70" x="865.5" y="173.9659">Controller</text></g><!--cluster Model--><g id="cluster_Model"><path d="M1609,157 L1653,157 A3.75,3.75 0 0 1 1655.5,159.5 L1662.5,182.0679 L2092,182.0679 A2.5,2.5 0 0 1 2094.5,184.5679 L2094.5,269.5 A2.5,2.5 0 0 1 2092,272 L1609,272 A2.5,2.5 0 0 1 1606.5,269.5 L1606.5,159.5 A2.5,2.5 0 0 1 1609,157 " fill="#FFFFFF" style="stroke:#000000;stroke-width:1.0;"/><line style="stroke:#000000;stroke-width:1.0;" x1="1606.5" x2="1662.5" y1="182.0679" y2="182.0679"/><text fill="#000000" font-family="Verdana" font-size="14" font-weight="bold" lengthAdjust="spacing" textLength="43" x="1610.5" y="173.9659">Model</text></g><g id="elem_view"><rect fill="#FFFFFF" height="39.0679" style="stroke:#000000;stroke-width:1.0;" width="299" x="330" y="217"/><text fill="#000000" font-family="Verdana" font-size="14" lengthAdjust="spacing" textLength="285" x="337" y="233.9659">profesorEdicionView : ProfesorEdicionView</text><line style="stroke:#000000;stroke-width:1.0;" x1="331" x2="628" y1="240.0679" y2="240.0679"/></g><g id="elem_controller"><rect fill="#FFFFFF" height="39.0679" style="stroke:#000000;stroke-width:1.0;" width="273" x="878" y="217"/><text fill="#000000" font-family="Verdana" font-size="14" lengthAdjust="spacing" textLength="259" x="885" y="233.9659">profesorController : ProfesorController</text><line style="stroke:#000000;stroke-width:1.0;" x1="879" x2="1150" y1="240.0679" y2="240.0679"/></g><g id="elem_profesor"><rect fill="#FFFFFF" height="39.0679" style="stroke:#000000;stroke-width:1.0;" width="139" x="1623" y="217"/><text fill="#000000" font-family="Verdana" font-size="14" lengthAdjust="spacing" textLength="125" x="1630" y="233.9659">profesor : Profesor</text><line style="stroke:#000000;stroke-width:1.0;" x1="1624" x2="1761" y1="240.0679" y2="240.0679"/></g><g id="elem_repository"><rect fill="#FFFFFF" height="39.0679" style="stroke:#000000;stroke-width:1.0;" width="281" x="1797" y="217"/><text fill="#000000" font-family="Verdana" font-size="14" lengthAdjust="spacing" textLength="267" x="1804" y="233.9659">profesorRepository : ProfesorRepository</text><line style="stroke:#000000;stroke-width:1.0;" x1="1798" x2="2077" y1="240.0679" y2="240.0679"/></g><!--entity admin--><g id="elem_admin"><ellipse cx="59.5" cy="205.5" fill="#FFFFFF" rx="8" ry="8" style="stroke:#000000;stroke-width:1.0;"/><path d="M59.5,213.5 L59.5,240.5 M46.5,221.5 L72.5,221.5 M59.5,240.5 L46.5,255.5 M59.5,240.5 L72.5,255.5 " fill="none" style="stroke:#000000;stroke-width:1.0;"/><text fill="#000000" font-family="Verdana" font-size="14" lengthAdjust="spacing" textLength="97" x="11" y="272.4659">Administrador</text></g><g id="elem_GMN25"><path d="M389,11 L389,91.8241 A0,0 0 0 0 389,91.8241 L475.5,91.8241 L479.5,216.58 L483.5,91.8241 L570,91.8241 A0,0 0 0 0 570,91.8241 L570,21 L560,11 L389,11 A0,0 0 0 0 389,11 " fill="#FFFFFF" style="stroke:#000000;stroke-width:1.0;"/><path d="M560,11 L560,21 L570,21 L560,11 " fill="#FFFFFF" style="stroke:#000000;stroke-width:1.0;"/><text fill="#000000" font-family="Verdana" font-size="13" font-weight="bold" lengthAdjust="spacing" textLength="36" x="395" y="29.897">Vista:</text><text fill="#000000" font-family="Verdana" font-size="13" lengthAdjust="spacing" textLength="160" x="395" y="47.603">Presenta interfaz completa</text><text fill="#000000" font-family="Verdana" font-size="13" lengthAdjust="spacing" textLength="156" x="395" y="65.309">para edici&#243;n con todos los</text><text fill="#000000" font-family="Verdana" font-size="13" lengthAdjust="spacing" textLength="122" x="395" y="83.0151">campos del profesor</text></g><g id="elem_GMN28"><path d="M933.5,11 L933.5,91.8241 A0,0 0 0 0 933.5,91.8241 L1010.5,91.8241 L1014.5,216.58 L1018.5,91.8241 L1095.5,91.8241 A0,0 0 0 0 1095.5,91.8241 L1095.5,21 L1085.5,11 L933.5,11 A0,0 0 0 0 933.5,11 " fill="#FFFFFF" style="stroke:#000000;stroke-width:1.0;"/><path d="M1085.5,11 L1085.5,21 L1095.5,21 L1085.5,11 " fill="#FFFFFF" style="stroke:#000000;stroke-width:1.0;"/><text fill="#000000" font-family="Verdana" font-size="13" font-weight="bold" lengthAdjust="spacing" textLength="83" x="939.5" y="29.897">Controlador:</text><text fill="#000000" font-family="Verdana" font-size="13" lengthAdjust="spacing" textLength="140" x="939.5" y="47.603">Coordina carga, edici&#243;n</text><text fill="#000000" font-family="Verdana" font-size="13" lengthAdjust="spacing" textLength="141" x="939.5" y="65.309">y mantiene estado para</text><text fill="#000000" font-family="Verdana" font-size="13" lengthAdjust="spacing" textLength="99" x="939.5" y="83.0151">edici&#243;n continua</text></g><g id="elem_GMN31"><path d="M1738.5,11 L1738.5,91.8241 L1902.5,91.8241 L1902.5,21 L1892.5,11 L1738.5,11 " fill="#FFFFFF" style="stroke:#000000;stroke-width:1.0;"/><path d="M1892.5,11 L1892.5,21 L1902.5,21 L1892.5,11 " fill="#FFFFFF" style="stroke:#000000;stroke-width:1.0;"/><text fill="#000000" font-family="Verdana" font-size="13" font-weight="bold" lengthAdjust="spacing" textLength="54" x="1744.5" y="29.897">Entidad:</text><text fill="#000000" font-family="Verdana" font-size="13" lengthAdjust="spacing" textLength="143" x="1744.5" y="47.603">Aplica reglas de negocio</text><text fill="#000000" font-family="Verdana" font-size="13" lengthAdjust="spacing" textLength="132" x="1744.5" y="65.309">y mantiene integridad</text><text fill="#000000" font-family="Verdana" font-size="13" lengthAdjust="spacing" textLength="141" x="1744.5" y="83.0151">durante actualizaciones</text></g><g id="elem_GMN34"><path d="M1937.5,11 L1937.5,91.8241 A0,0 0 0 0 1937.5,91.8241 L2003.19,91.8241 L1946.7,216.58 L2011.19,91.8241 L2115.5,91.8241 A0,0 0 0 0 2115.5,91.8241 L2115.5,21 L2105.5,11 L1937.5,11 A0,0 0 0 0 1937.5,11 " fill="#FFFFFF" style="stroke:#000000;stroke-width:1.0;"/><path d="M2105.5,11 L2105.5,21 L2115.5,21 L2105.5,11 " fill="#FFFFFF" style="stroke:#000000;stroke-width:1.0;"/><text fill="#000000" font-family="Verdana" font-size="13" font-weight="bold" lengthAdjust="spacing" textLength="79" x="1943.5" y="29.897">Repositorio:</text><text fill="#000000" font-family="Verdana" font-size="13" lengthAdjust="spacing" textLength="154" x="1943.5" y="47.603">Carga y actualiza profesor</text><text fill="#000000" font-family="Verdana" font-size="13" lengthAdjust="spacing" textLength="157" x="1943.5" y="65.309">manteniendo consistencia</text><text fill="#000000" font-family="Verdana" font-size="13" lengthAdjust="spacing" textLength="79" x="1943.5" y="83.0151">transaccional</text></g><!--link admin to view--><g id="link_admin_view"><path codeLine="19" d="M108.09,236.5 C162.07,236.5 245.89,236.5 323.67,236.5 " fill="none" id="admin-to-view" style="stroke:#000000;stroke-width:1.0;"/><polygon fill="#000000" points="329.67,236.5,320.67,232.5,324.67,236.5,320.67,240.5,329.67,236.5" style="stroke:#000000;stroke-width:1.0;"/><text fill="#000000" font-family="Verdana" font-size="13" lengthAdjust="spacing" textLength="164" x="137" y="229.397">1: solicitarEditarProfesor(id)</text></g><!--link view to admin--><g id="link_view_admin"><path codeLine="24" d="M335.91,256.02 C325.29,257.01 314.74,257.86 304.5,258.5 C266.57,260.87 171.1,263.97 133.5,258.5 C125.14,257.28 122.2179,256.8743 113.8079,254.6343 " fill="none" id="view-to-admin" style="stroke:#000000;stroke-width:1.0;"/><polygon fill="#000000" points="108.01,253.09,115.6773,259.2716,112.8416,254.3769,117.7363,251.5411,108.01,253.09" style="stroke:#000000;stroke-width:1.0;"/><text fill="#000000" font-family="Verdana" font-size="13" lengthAdjust="spacing" textLength="169" x="134.5" y="254.397">6: mostrarDatosCompletos()</text></g><!--link admin to view--><g id="link_admin_view"><path codeLine="25" d="M108.26,252.55 C117.7,255.02 127.58,257.19 137,258.5 C210.47,268.73 287.5311,264.5008 353.4311,256.7508 " fill="none" id="admin-to-view-1" style="stroke:#000000;stroke-width:1.0;"/><polygon fill="#000000" points="359.39,256.05,349.9844,253.1286,354.4242,256.634,350.9188,261.0738,359.39,256.05" style="stroke:#000000;stroke-width:1.0;"/><text fill="#000000" font-family="Verdana" font-size="13" lengthAdjust="spacing" textLength="162" x="138" y="254.397">7: modificarDatos(cambios)</text></g><!--link view to admin--><g id="link_view_admin"><path codeLine="32" d="M342.48,216.98 C332.35,215.99 322.28,215.14 312.5,214.5 C271.03,211.78 166.52,207.84 125.5,214.5 C119.78,215.43 119.6665,215.1937 113.8665,216.7837 " fill="none" id="view-to-admin-1" style="stroke:#000000;stroke-width:1.0;"/><polygon fill="#000000" points="108.08,218.37,117.8173,219.8482,112.9021,217.0481,115.7022,212.1329,108.08,218.37" style="stroke:#000000;stroke-width:1.0;"/><text fill="#000000" font-family="Verdana" font-size="13" lengthAdjust="spacing" textLength="156" x="141" y="204.397">14: mostrarConfirmacion()</text></g><!--link view to admin--><g id="link_view_admin"><path codeLine="33" d="M329.67,236.5 C251.89,236.5 168.07,236.5 114.09,236.5 " fill="none" id="view-to-admin-2" style="stroke:#000000;stroke-width:1.0;"/><polygon fill="#000000" points="108.09,236.5,117.09,240.5,113.09,236.5,117.09,232.5,108.09,236.5" style="stroke:#000000;stroke-width:1.0;"/><text fill="#000000" font-family="Verdana" font-size="13" lengthAdjust="spacing" textLength="185" x="126.5" y="229.397">15: mantenerEdicionContinua()</text></g><!--link view to controller--><g id="link_view_controller"><path codeLine="20" d="M629.11,253.94 C650.2,255.83 671.63,257.45 692,258.5 C746.59,261.32 760.42,261.5 815,258.5 C835.35,257.38 850.8481,256.1996 871.8681,254.1596 " fill="none" id="view-to-controller" style="stroke:#000000;stroke-width:1.0;"/><polygon fill="#000000" points="877.84,253.58,868.4957,250.4681,872.8634,254.063,869.2685,258.4307,877.84,253.58" style="stroke:#000000;stroke-width:1.0;"/><text fill="#000000" font-family="Verdana" font-size="13" lengthAdjust="spacing" textLength="121" x="693" y="254.397">2: cargarProfesor(id)</text></g><!--link controller to view--><g id="link_controller_view"><path codeLine="23" d="M877.62,236.5 C801.68,236.5 713.14,236.5 635.24,236.5 " fill="none" id="controller-to-view" style="stroke:#000000;stroke-width:1.0;"/><polygon fill="#000000" points="629.24,236.5,638.24,240.5,634.24,236.5,638.24,232.5,629.24,236.5" style="stroke:#000000;stroke-width:1.0;"/><text fill="#000000" font-family="Verdana" font-size="13" lengthAdjust="spacing" textLength="191" x="658" y="229.397">5: presentarDatosEdicion(datos)</text></g><!--link view to controller--><g id="link_view_controller"><path codeLine="26" d="M629.24,236.5 C707.14,236.5 795.68,236.5 871.62,236.5 " fill="none" id="view-to-controller-1" style="stroke:#000000;stroke-width:1.0;"/><polygon fill="#000000" points="877.62,236.5,868.62,232.5,872.62,236.5,868.62,240.5,877.62,236.5" style="stroke:#000000;stroke-width:1.0;"/><text fill="#000000" font-family="Verdana" font-size="13" lengthAdjust="spacing" textLength="212" x="647.5" y="229.397">8: procesarModificaciones(cambios)</text></g><!--link controller to view--><g id="link_controller_view"><path codeLine="31" d="M877.81,254.45 C860.89,256.12 843.82,257.54 827.5,258.5 C761.83,262.35 745.18,262.1 679.5,258.5 C663.19,257.61 652.1456,256.84 635.2156,255.31 " fill="none" id="controller-to-view-1" style="stroke:#000000;stroke-width:1.0;"/><polygon fill="#000000" points="629.24,254.77,637.8435,259.5638,634.2197,255.22,638.5635,251.5963,629.24,254.77" style="stroke:#000000;stroke-width:1.0;"/><text fill="#000000" font-family="Verdana" font-size="13" lengthAdjust="spacing" textLength="146" x="680.5" y="254.397">13: confirmarGuardado()</text></g><!--link controller to repository--><g id="link_controller_repository"><path codeLine="21" d="M1063.21,217 C1121.82,194.67 1223.77,159.44 1315,146 C1398.7,133.67 1679.97,122.8 1779.5,149 C1830.14,162.33 1877.0755,192.0015 1906.9755,213.4615 " fill="none" id="controller-to-repository" style="stroke:#000000;stroke-width:1.0;"/><polygon fill="#000000" points="1911.85,216.96,1906.8707,208.4626,1907.788,214.0446,1902.206,214.9619,1911.85,216.96" style="stroke:#000000;stroke-width:1.0;"/><text fill="#000000" font-family="Verdana" font-size="13" lengthAdjust="spacing" textLength="131" x="1316" y="136.897">3: obtenerProfesor(id)</text></g><!--link repository to controller--><g id="link_repository_controller"><path codeLine="22" d="M1911.86,216.94 C1881.96,195.46 1830.16,162.26 1779.5,149 C1637.49,111.82 1195.28,132.65 1151,146 C1105.26,159.78 1065.2697,190.481 1040.0897,212.691 " fill="none" id="repository-to-controller" style="stroke:#000000;stroke-width:1.0;"/><polygon fill="#000000" points="1035.59,216.66,1044.9855,213.7064,1039.3398,213.3525,1039.6936,207.7068,1035.59,216.66" style="stroke:#000000;stroke-width:1.0;"/><text fill="#000000" font-family="Verdana" font-size="13" lengthAdjust="spacing" textLength="157" x="1152" y="136.897">4: profesorCargado(datos)</text></g><!--link controller to repository--><g id="link_controller_repository"><path codeLine="29" d="M1063.21,217 C1121.82,194.67 1223.77,159.44 1315,146 C1398.7,133.67 1679.97,122.8 1779.5,149 C1830.14,162.33 1877.0755,192.0015 1906.9755,213.4615 " fill="none" id="controller-to-repository-1" style="stroke:#000000;stroke-width:1.0;"/><polygon fill="#000000" points="1911.85,216.96,1906.8707,208.4626,1907.788,214.0446,1902.206,214.9619,1911.85,216.96" style="stroke:#000000;stroke-width:1.0;"/><text fill="#000000" font-family="Verdana" font-size="13" lengthAdjust="spacing" textLength="187" x="1288" y="136.897">11: actualizarProfesor(profesor)</text></g><!--link repository to controller--><g id="link_repository_controller"><path codeLine="30" d="M1911.86,216.94 C1881.96,195.46 1830.16,162.26 1779.5,149 C1637.49,111.82 1195.28,132.65 1151,146 C1105.26,159.78 1065.2697,190.481 1040.0897,212.691 " fill="none" id="repository-to-controller-1" style="stroke:#000000;stroke-width:1.0;"/><polygon fill="#000000" points="1035.59,216.66,1044.9855,213.7064,1039.3398,213.3525,1039.6936,207.7068,1035.59,216.66" style="stroke:#000000;stroke-width:1.0;"/><text fill="#000000" font-family="Verdana" font-size="13" lengthAdjust="spacing" textLength="148" x="1156.5" y="136.897">12: profesorActualizado()</text></g><!--link controller to profesor--><g id="link_controller_profesor"><path codeLine="27" d="M1151.3,236.5 C1294.03,236.5 1506.14,236.5 1616.83,236.5 " fill="none" id="controller-to-profesor" style="stroke:#000000;stroke-width:1.0;"/><polygon fill="#000000" points="1622.83,236.5,1613.83,232.5,1617.83,236.5,1613.83,240.5,1622.83,236.5" style="stroke:#000000;stroke-width:1.0;"/><text fill="#000000" font-family="Verdana" font-size="13" lengthAdjust="spacing" textLength="163" x="1305.5" y="229.397">9: validarCambios(cambios)</text></g><!--link profesor to controller--><g id="link_profesor_controller"><path codeLine="28" d="M1622.83,236.5 C1512.14,236.5 1300.03,236.5 1157.3,236.5 " fill="none" id="profesor-to-controller" style="stroke:#000000;stroke-width:1.0;"/><polygon fill="#000000" points="1151.3,236.5,1160.3,240.5,1156.3,236.5,1160.3,232.5,1151.3,236.5" style="stroke:#000000;stroke-width:1.0;"/><text fill="#000000" font-family="Verdana" font-size="13" lengthAdjust="spacing" textLength="121" x="1326.5" y="229.397">10: cambiosValidos()</text></g><!--link GMN31 to profesor--><g id="link_GMN31_profesor"><path d="M1818.39,92.22 C1815.68,108.91 1810.03,127.53 1798.5,141 C1792.54,147.96 1787.11,143.9 1779.5,149 C1750.84,168.21 1723.61,197.75 1707.48,216.85 " fill="none" id="GMN31-profesor" style="stroke:#000000;stroke-width:1.0;stroke-dasharray:7.0,7.0;"/></g><!--SRC=[VLJBRjim4BphAxO-EK2BLcdw4W83XXlq523e8TTYBT8gMuaKA3bfKlIh-WdziSvIBygnSx55SdPcTuVB5-rtNMcgIpOsuR9qzzygyylO8abgpdzoeMbnQ_JzWdudH6xxG-SjBMhlThfn_agPt3Wh0ChevkdkWhYXEtmaVoB2ZREjTsMf_N7QwJnYZOD0ce_B6VMrKxeypXfn1OPX_mZqgwvTOrhd7wAWQJE4-t4f2N2EBrgiLMMiQLhFgbTXsS6v_D6hLMW6IDEC6bUYJorBl_0xo2oDEai22kWyxiHvHZdxuW0QGH3WuypVPgYirLRF8oBCeSH5DhPb8rBABHMthZcKwQju9t3TQ8lyFmkkjtu86ihegi_eVKQLa-vqw8shwbBZOtdsf44V1AhCpkGzU9bpjJKnwoppZo7pN3Vih_iuoKH7SVCIeclnAQCxBerY51smKyo8EjHBtuWR0NKhiQ68Pxn8uJWkoHxOnyZ1WVzPLzBpoPRrm05hJhYImdSSx8ols7_PirST-D2Dz6AqOzF3Wtb7a32wOXkkKc-nZAEnUmOwiQxLrBgQtAuRTgBBxUeMSy3PvUlj2kkR_fgG0OlVyICo3EOp3clsJ5fu__sraZh8q50gNODJT1cT8SprDBBQAXBLkNRq9eGC-YT3Pd78O-ESLyPoDqalHrKSFOGI3MeaZSoL2tdX8Cuir7n2FdfG87u5B1e_2AzhJ3lZJXGbIp5aTU7GoBcmTAVm4eTzjVVIy-dQT1VwX7hq7WNzyRaoRYnUQeRSI1YdtFcBB50u2ctWdhQvaGRWXjY6Sv7dSfB_3m00]--></g></svg>