<?xml version="1.0" encoding="us-ascii" standalone="no"?><svg xmlns="http://www.w3.org/2000/svg" xmlns:xlink="http://www.w3.org/1999/xlink" contentStyleType="text/css" height="713px" preserveAspectRatio="none" style="width:589px;height:713px;background:#FFFFFF;" version="1.1" viewBox="0 0 589 713" width="589px" zoomAndPan="magnify"><defs/><g><path d="M19.5,7 L563.5,7 A12.5,12.5 0 0 1 576,19.5 L576,36.0679 L7,36.0679 L7,19.5 A12.5,12.5 0 0 1 19.5,7 " fill="#F1F1F1" style="stroke:#F1F1F1;stroke-width:1.0;"/><rect fill="none" height="553.0679" rx="12.5" ry="12.5" style="stroke:#181818;stroke-width:0.5;" width="569" x="7" y="7"/><line style="stroke:#181818;stroke-width:0.5;" x1="7" x2="576" y1="36.0679" y2="36.0679"/><text fill="#000000" font-family="sans-serif" font-size="14" lengthAdjust="spacing" textLength="87" x="248" y="26.9659">editarCurso()</text><g id="editarCurso.EditandoDatos"><rect fill="#F1F1F1" height="50" rx="12.5" ry="12.5" style="stroke:#181818;stroke-width:0.5;" width="50" x="141" y="140.0679"/><line style="stroke:#181818;stroke-width:0.5;" x1="141" x2="191" y1="169.1358" y2="169.1358"/><text fill="#000000" font-family="sans-serif" font-size="14" lengthAdjust="spacing" textLength="4" x="164" y="160.0339">&#160;</text></g><g id="editarCurso.GuardandoDatos"><rect fill="#F1F1F1" height="50" rx="12.5" ry="12.5" style="stroke:#181818;stroke-width:0.5;" width="50" x="141" y="405.0679"/><line style="stroke:#181818;stroke-width:0.5;" x1="141" x2="191" y1="434.1358" y2="434.1358"/><text fill="#000000" font-family="sans-serif" font-size="14" lengthAdjust="spacing" textLength="4" x="164" y="425.0339">&#160;</text></g><ellipse cx="166" cy="57.0679" fill="#222222" rx="10" ry="10" style="stroke:#222222;stroke-width:1.0;"/><ellipse cx="166" cy="539.0679" fill="none" rx="11" ry="11" style="stroke:#222222;stroke-width:1.0;"/><ellipse cx="166" cy="539.0679" fill="#222222" rx="6" ry="6" style="stroke:#222222;stroke-width:1.0;"/><!--link *start*editarCurso to EditandoDatos--><g id="link_*start*editarCurso_EditandoDatos"><path d="M166,67.1079 C166,83.0279 166,110.5779 166,133.7079 " fill="none" id="*start*editarCurso-to-EditandoDatos" style="stroke:#008000;stroke-width:1.0;"/><polygon fill="#008000" points="166,139.7079,170,130.7079,166,134.7079,162,130.7079,166,139.7079" style="stroke:#008000;stroke-width:1.0;"/><path d="M171,90.0679 L171,117.0679 L405,117.0679 L405,100.0679 L395,90.0679 L171,90.0679 " fill="#FEFFDD" style="stroke:#181818;stroke-width:0.5;"/><path d="M395,90.0679 L395,100.0679 L405,100.0679 L395,90.0679 " fill="#FEFFDD" style="stroke:#181818;stroke-width:0.5;"/><text fill="#000000" font-family="sans-serif" font-size="13" font-weight="bold" lengthAdjust="spacing" textLength="95" x="177" y="108.9649">Administrador</text><text fill="#000000" font-family="sans-serif" font-size="13" lengthAdjust="spacing" textLength="115" x="275" y="108.9649">solicita editar curso</text></g><!--link EditandoDatos to GuardandoDatos--><g id="link_EditandoDatos_GuardandoDatos"><path d="M140.89,173.1879 C98.67,185.1779 18,208.0679 18,208.0679 C18,208.0679 18,387.0679 18,387.0679 C18,387.0679 92.8982,408.3188 135.1182,420.3088 " fill="none" id="EditandoDatos-to-GuardandoDatos" style="stroke:#008000;stroke-width:1.0;"/><polygon fill="#008000" points="140.89,421.9479,133.3251,415.6414,136.0802,420.582,131.1396,423.3371,140.89,421.9479" style="stroke:#008000;stroke-width:1.0;"/><path d="M23,213.0679 L23,382.0679 L288,382.0679 L288,223.0679 L278,213.0679 L23,213.0679 " fill="#FEFFDD" style="stroke:#181818;stroke-width:0.5;"/><path d="M278,213.0679 L278,223.0679 L288,223.0679 L278,213.0679 " fill="#FEFFDD" style="stroke:#181818;stroke-width:0.5;"/><text fill="#000000" font-family="sans-serif" font-size="13" font-weight="bold" lengthAdjust="spacing" textLength="52" x="29" y="231.9649">Sistema</text><text fill="#000000" font-family="sans-serif" font-size="13" lengthAdjust="spacing" textLength="154" x="84" y="231.9649">presenta datos de edici&#243;n</text><text fill="#000000" font-family="sans-serif" font-size="13" lengthAdjust="spacing" textLength="236" x="29" y="249.6709">&#8226; C&#243;digo, nombre, descripci&#243;n del curso</text><text fill="#000000" font-family="sans-serif" font-size="13" lengthAdjust="spacing" textLength="244" x="29" y="267.377">&#8226; Cr&#233;ditos, horas te&#243;ricas, horas pr&#225;cticas</text><text fill="#000000" font-family="sans-serif" font-size="13" lengthAdjust="spacing" textLength="191" x="29" y="285.083">&#8226; Programa acad&#233;mico asociado</text><text fill="#000000" font-family="sans-serif" font-size="13" lengthAdjust="spacing" textLength="3" x="29" y="302.789">&#160;</text><text fill="#000000" font-family="sans-serif" font-size="13" font-weight="bold" lengthAdjust="spacing" textLength="52" x="29" y="320.495">Sistema</text><text fill="#000000" font-family="sans-serif" font-size="13" lengthAdjust="spacing" textLength="99" x="84" y="320.495">permite solicitar:</text><text fill="#000000" font-family="sans-serif" font-size="13" lengthAdjust="spacing" textLength="114" x="29" y="338.201">&#8226; modificar campos</text><text fill="#000000" font-family="sans-serif" font-size="13" lengthAdjust="spacing" textLength="92" x="29" y="355.907">&#8226; guardar curso</text><text fill="#000000" font-family="sans-serif" font-size="13" lengthAdjust="spacing" textLength="103" x="29" y="373.6131">&#8226; cancelar edici&#243;n</text></g><!--link GuardandoDatos to EditandoDatos--><g id="link_GuardandoDatos_EditandoDatos"><path d="M191.09,420.7679 C228.1,408.5279 293,387.0679 293,387.0679 C293,387.0679 293,208.0679 293,208.0679 C293,208.0679 233.7965,188.4919 196.7865,176.2519 " fill="none" id="GuardandoDatos-to-EditandoDatos" style="stroke:#008000;stroke-width:1.0;"/><polygon fill="#008000" points="191.09,174.3679,198.3788,180.9916,195.8371,175.9379,200.8908,173.3962,191.09,174.3679" style="stroke:#008000;stroke-width:1.0;"/><path d="M298,284.0679 L298,311.0679 L567,311.0679 L567,294.0679 L557,284.0679 L298,284.0679 " fill="#FEFFDD" style="stroke:#181818;stroke-width:0.5;"/><path d="M557,284.0679 L557,294.0679 L567,294.0679 L557,284.0679 " fill="#FEFFDD" style="stroke:#181818;stroke-width:0.5;"/><text fill="#000000" font-family="sans-serif" font-size="13" font-weight="bold" lengthAdjust="spacing" textLength="95" x="304" y="302.9649">Administrador</text><text fill="#000000" font-family="sans-serif" font-size="13" lengthAdjust="spacing" textLength="150" x="402" y="302.9649">solicita modificar campos</text></g><!--link GuardandoDatos to *end*editarCurso--><g id="link_GuardandoDatos_*end*editarCurso"><path d="M140.83,438.6779 C100.77,450.7779 27,473.0679 27,473.0679 C27,473.0679 27,510.0679 27,510.0679 C27,510.0679 116.4381,528.0833 149.2081,534.6833 " fill="none" id="GuardandoDatos-to-*end*editarCurso" style="stroke:#008000;stroke-width:1.0;"/><polygon fill="#008000" points="155.09,535.8679,147.0569,530.1697,150.1884,534.8807,145.4774,538.0122,155.09,535.8679" style="stroke:#008000;stroke-width:1.0;"/><path d="M32,478.0679 L32,505.0679 L280,505.0679 L280,488.0679 L270,478.0679 L32,478.0679 " fill="#FEFFDD" style="stroke:#181818;stroke-width:0.5;"/><path d="M270,478.0679 L270,488.0679 L280,488.0679 L270,478.0679 " fill="#FEFFDD" style="stroke:#181818;stroke-width:0.5;"/><text fill="#000000" font-family="sans-serif" font-size="13" font-weight="bold" lengthAdjust="spacing" textLength="95" x="38" y="496.9649">Administrador</text><text fill="#000000" font-family="sans-serif" font-size="13" lengthAdjust="spacing" textLength="129" x="136" y="496.9649">solicita guardar y salir</text></g><!--link GuardandoDatos to *end*editarCurso--><g id="link_GuardandoDatos_*end*editarCurso"><path d="M191.24,439.9779 C226.17,452.3079 285,473.0679 285,473.0679 C285,473.0679 285,510.0679 285,510.0679 C285,510.0679 211.5201,527.3521 182.4001,534.2121 " fill="none" id="GuardandoDatos-to-*end*editarCurso-1" style="stroke:#FF0000;stroke-width:1.0;"/><polygon fill="#FF0000" points="176.56,535.5879,186.2374,537.4176,181.4268,534.4414,184.403,529.6308,176.56,535.5879" style="stroke:#FF0000;stroke-width:1.0;"/><path d="M290,478.0679 L290,505.0679 L548,505.0679 L548,488.0679 L538,478.0679 L290,478.0679 " fill="#FEFFDD" style="stroke:#181818;stroke-width:0.5;"/><path d="M538,478.0679 L538,488.0679 L548,488.0679 L538,478.0679 " fill="#FEFFDD" style="stroke:#181818;stroke-width:0.5;"/><text fill="#000000" font-family="sans-serif" font-size="13" font-weight="bold" lengthAdjust="spacing" textLength="95" x="296" y="496.9649">Administrador</text><text fill="#000000" font-family="sans-serif" font-size="13" lengthAdjust="spacing" textLength="139" x="394" y="496.9649">solicita cancelar edici&#243;n</text></g><g id="CURSOS_ABIERTO"><rect fill="#F1F1F1" height="50" rx="12.5" ry="12.5" style="stroke:#181818;stroke-width:0.5;" width="140" x="221.5" y="657"/><line style="stroke:#181818;stroke-width:0.5;" x1="221.5" x2="361.5" y1="686.0679" y2="686.0679"/><text fill="#000000" font-family="sans-serif" font-size="14" lengthAdjust="spacing" textLength="120" x="231.5" y="676.9659">CURSOS_ABIERTO</text></g><!--link editarCurso to CURSOS_ABIERTO--><g id="link_editarCurso_CURSOS_ABIERTO"><path d="M222.02,560.15 C217.38,578.58 214.5,590 214.5,590 C214.5,590 214.5,627 214.5,627 C214.5,627 231.6369,639.026 252.1369,653.396 " fill="none" id="editarCurso-to-CURSOS_ABIERTO" style="stroke:#008000;stroke-width:1.0;"/><polygon fill="#008000" points="257.05,656.84,251.9763,648.3986,252.9557,653.97,247.3843,654.9494,257.05,656.84" style="stroke:#008000;stroke-width:1.0;"/><path d="M219.5,595 L219.5,622 L317.5,622 L317.5,605 L307.5,595 L219.5,595 " fill="#FEFFDD" style="stroke:#181818;stroke-width:0.5;"/><path d="M307.5,595 L307.5,605 L317.5,605 L307.5,595 " fill="#FEFFDD" style="stroke:#181818;stroke-width:0.5;"/><text fill="#000000" font-family="sans-serif" font-size="13" lengthAdjust="spacing" textLength="77" x="225.5" y="613.897">abrirCursos()</text></g><!--link editarCurso to CURSOS_ABIERTO--><g id="link_editarCurso_CURSOS_ABIERTO"><path d="M323.08,560.15 C325.19,578.58 326.5,590 326.5,590 C326.5,590 326.5,627 326.5,627 C326.5,627 319.7449,637.4361 310.4249,651.8061 " fill="none" id="editarCurso-to-CURSOS_ABIERTO-1" style="stroke:#FF0000;stroke-width:1.0;"/><polygon fill="#FF0000" points="307.16,656.84,315.4133,651.4657,309.8807,652.645,308.7014,647.1125,307.16,656.84" style="stroke:#FF0000;stroke-width:1.0;"/><path d="M331.5,595 L331.5,622 L447.5,622 L447.5,605 L437.5,595 L331.5,595 " fill="#FEFFDD" style="stroke:#181818;stroke-width:0.5;"/><path d="M437.5,595 L437.5,605 L447.5,605 L437.5,595 " fill="#FEFFDD" style="stroke:#181818;stroke-width:0.5;"/><text fill="#000000" font-family="sans-serif" font-size="13" lengthAdjust="spacing" textLength="95" x="337.5" y="613.897">cancelar edici&#243;n</text></g><!--SRC=[fLFBJW8n5DttAnhSW86uDuG4aHXN6D0L8UPEMx5XfftS3WjYJFmLtR7c4-PF_1BlT60U81fn9fcajwVdd7jknosqYG4Xug4sAbd5YiSsN6KBnbm2YU9AwWHmi4HdEJZUgAoRhGP_OOpJasCRz19cc46CjDUGM7UuVRC4bCK-pmccvpFUcPxDKIapw_Jg7Dn3Z2KEQpAh2r_e1hs-ZBJHBa6G5hiNGOyx6sf1PxV6kSYSUhWoCkUWXnMVkb3LGjtdKGiJabSHUF4ObLE6nALdapu-eTEDyUZFjmy-I3TIpssRkA80LPj0Jg2EFOeMOSMnnsEw9elMjVcpHOelKUa6jO2Y46FwBfAiKXowGpkdgG870J9THrfamxD2Kqnbw_lc5KQQ-jibY9S5NsIbVY85YXEYs9P2SvyHxdaMO8GAgLphVfT_QM3l9XoT_odZ_zRodopGbJn5U1V9YZi8DTPrZsYYalzG_2LkzifOzI-kzZXu64z6ayV-rUrmV3zYDM48KET7NBF5IhezhgttdvWE3HPiNm00]--></g></svg>