<?xml version="1.0" encoding="us-ascii" standalone="no"?><svg xmlns="http://www.w3.org/2000/svg" xmlns:xlink="http://www.w3.org/1999/xlink" contentStyleType="text/css" height="547px" preserveAspectRatio="none" style="width:822px;height:547px;background:#FFFFFF;" version="1.1" viewBox="0 0 822 547" width="822px" zoomAndPan="magnify"><defs/><g><!--cluster eliminarEdificio--><g id="cluster_eliminarEdificio"><path d="M8.5,111 L126.5,111 A3.75,3.75 0 0 1 129,113.5 L136,136.0679 L589.5,136.0679 A2.5,2.5 0 0 1 592,138.5679 L592,537.5 A2.5,2.5 0 0 1 589.5,540 L8.5,540 A2.5,2.5 0 0 1 6,537.5 L6,113.5 A2.5,2.5 0 0 1 8.5,111 " fill="none" style="stroke:#000000;stroke-width:1.5;"/><line style="stroke:#000000;stroke-width:1.5;" x1="6" x2="136" y1="136.0679" y2="136.0679"/><text fill="#000000" font-family="sans-serif" font-size="14" font-weight="bold" lengthAdjust="spacing" textLength="117" x="10" y="127.9659">eliminarEdificio()</text></g><!--entity EliminarEdificioView--><g id="elem_EliminarEdificioView"><rect fill="#629EF9" height="39.0679" rx="2.5" ry="2.5" style="stroke:#181818;stroke-width:0.5;" width="156" x="309" y="149"/><text fill="#000000" font-family="sans-serif" font-size="14" lengthAdjust="spacing" textLength="136" x="319" y="173.9659">EliminarEdificioView</text></g><!--entity EdificioController--><g id="elem_EdificioController"><rect fill="#B5BD68" height="39.0679" rx="2.5" ry="2.5" style="stroke:#181818;stroke-width:0.5;" width="136" x="123" y="267"/><text fill="#000000" font-family="sans-serif" font-size="14" lengthAdjust="spacing" textLength="116" x="133" y="291.9659">EdificioController</text></g><!--entity EdificioRepository--><g id="elem_EdificioRepository"><rect fill="#F2AC4E" height="39.0679" rx="2.5" ry="2.5" style="stroke:#181818;stroke-width:0.5;" width="140" x="131" y="385"/><text fill="#000000" font-family="sans-serif" font-size="14" lengthAdjust="spacing" textLength="120" x="141" y="409.9659">EdificioRepository</text></g><!--entity Edificio--><g id="elem_Edificio"><rect fill="#F2AC4E" height="39.0679" rx="2.5" ry="2.5" style="stroke:#181818;stroke-width:0.5;" width="69" x="166.5" y="485"/><text fill="#000000" font-family="sans-serif" font-size="14" lengthAdjust="spacing" textLength="49" x="176.5" y="509.9659">Edificio</text></g><!--entity EdificiosAbierto--><g id="elem_EdificiosAbierto"><rect fill="#CDEBA5" height="39.0679" rx="2.5" ry="2.5" style="stroke:#181818;stroke-width:0.5;" width="133" x="223.5" y="7"/><text fill="#000000" font-family="sans-serif" font-size="14" lengthAdjust="spacing" textLength="113" x="233.5" y="31.9659">:Edificios Abierto</text></g><!--entity EdificioAbierto--><g id="elem_EdificioAbierto"><rect fill="#CDEBA5" height="39.0679" rx="2.5" ry="2.5" style="stroke:#181818;stroke-width:0.5;" width="126" x="421" y="7"/><text fill="#000000" font-family="sans-serif" font-size="14" lengthAdjust="spacing" textLength="106" x="431" y="31.9659">:Edificio Abierto</text></g><!--entity AbrirEdificios--><g id="elem_AbrirEdificios"><rect fill="#CDEBA5" height="39.0679" rx="2.5" ry="2.5" style="stroke:#181818;stroke-width:0.5;" width="208" x="608" y="267"/><text fill="#000000" font-family="sans-serif" font-size="14" lengthAdjust="spacing" textLength="188" x="618" y="291.9659">:Collaboration AbrirEdificios</text></g><!--link EdificiosAbierto to EliminarEdificioView--><g id="link_EdificiosAbierto_EliminarEdificioView"><path d="M288.85,46.11 C288,59.79 287,76 287,76 C287,76 287,95 287,95 C287,95 326.7622,123.8284 356.3922,145.3084 " fill="none" id="EdificiosAbierto-to-EliminarEdificioView" style="stroke:#181818;stroke-width:1.0;"/><polygon fill="#181818" points="361.25,148.83,356.311,140.309,357.2018,145.8953,351.6156,146.7861,361.25,148.83" style="stroke:#181818;stroke-width:1.0;"/><text fill="#000000" font-family="sans-serif" font-size="13" lengthAdjust="spacing" textLength="152" x="288" y="90.897">eliminarEdificio(edificioId)</text></g><!--link EdificioAbierto to EliminarEdificioView--><g id="link_EdificioAbierto_EliminarEdificioView"><path d="M473.14,46.3 C461.6,66.28 445,95 445,95 C445,95 422.8676,122.6644 405.6876,144.1444 " fill="none" id="EdificioAbierto-to-EliminarEdificioView" style="stroke:#181818;stroke-width:1.0;"/><polygon fill="#181818" points="401.94,148.83,410.6852,144.3,405.063,144.9253,404.4377,139.3031,401.94,148.83" style="stroke:#181818;stroke-width:1.0;"/><text fill="#000000" font-family="sans-serif" font-size="13" lengthAdjust="spacing" textLength="152" x="456" y="90.897">eliminarEdificio(edificioId)</text></g><!--link EliminarEdificioView to EdificioController--><g id="link_EliminarEdificioView_EdificioController"><path d="M308.93,180.87 C210.5,195.21 54,218 54,218 C54,218 54,237 54,237 C54,237 94.1342,251.2071 132.7642,264.8871 " fill="none" id="EliminarEdificioView-to-EdificioController" style="stroke:#181818;stroke-width:1.0;"/><polygon fill="#181818" points="138.42,266.89,131.2715,260.1151,133.7068,265.2209,128.601,267.6562,138.42,266.89" style="stroke:#181818;stroke-width:1.0;"/><text fill="#000000" font-family="sans-serif" font-size="13" lengthAdjust="spacing" textLength="288" x="55" y="232.897">cargarEdificioParaEliminacion(edificioId) : Edificio</text></g><!--link EliminarEdificioView to EdificioController--><g id="link_EliminarEdificioView_EdificioController"><path d="M376.14,188.3 C364.6,208.28 348,237 348,237 C348,237 301.2627,251.4389 256.9827,265.1189 " fill="none" id="EliminarEdificioView-to-EdificioController-1" style="stroke:#181818;stroke-width:1.0;"/><polygon fill="#181818" points="251.25,266.89,261.0297,268.0552,256.0272,265.4141,258.6683,260.4116,251.25,266.89" style="stroke:#181818;stroke-width:1.0;"/><text fill="#000000" font-family="sans-serif" font-size="13" lengthAdjust="spacing" textLength="187" x="359" y="232.897">eliminarEdificio(edificioId) : void</text></g><!--link EdificioController to EdificioRepository--><g id="link_EdificioController_EdificioRepository"><path d="M144.95,306.11 C111.11,319.79 71,336 71,336 C71,336 71,355 71,355 C71,355 108.8286,369.1123 145.4886,382.7923 " fill="none" id="EdificioController-to-EdificioRepository" style="stroke:#181818;stroke-width:1.0;"/><polygon fill="#181818" points="151.11,384.89,144.0764,377.9959,146.4255,383.1419,141.2795,385.4911,151.11,384.89" style="stroke:#181818;stroke-width:1.0;"/><text fill="#000000" font-family="sans-serif" font-size="13" lengthAdjust="spacing" textLength="194" x="72" y="350.897">obtenerPorId(edificioId) : Edificio</text></g><!--link EdificioController to EdificioRepository--><g id="link_EdificioController_EdificioRepository"><path d="M221.7,306.11 C244.26,319.79 271,336 271,336 C271,336 271,355 271,355 C271,355 252.5315,367.7924 232.7915,381.4724 " fill="none" id="EdificioController-to-EdificioRepository-1" style="stroke:#181818;stroke-width:1.0;"/><polygon fill="#181818" points="227.86,384.89,237.5357,383.0513,231.9696,382.042,232.9789,376.4759,227.86,384.89" style="stroke:#181818;stroke-width:1.0;"/><text fill="#000000" font-family="sans-serif" font-size="13" lengthAdjust="spacing" textLength="145" x="272" y="350.897">eliminar(edificioId) : void</text></g><!--link EdificioRepository to Edificio--><g id="link_EdificioRepository_Edificio"><path d="M201,424.4 C201,441.86 201,467.66 201,484.99 " fill="none" id="EdificioRepository-Edificio" style="stroke:#181818;stroke-width:1.0;"/></g><!--link EliminarEdificioView to AbrirEdificios--><g id="link_EliminarEdificioView_AbrirEdificios"><path d="M451.47,188.11 C498.85,201.79 555,218 555,218 C555,218 616.6979,244.53 663.1679,264.51 " fill="none" id="EliminarEdificioView-to-AbrirEdificios" style="stroke:#181818;stroke-width:1.0;stroke-dasharray:7.0,7.0;"/><polygon fill="#181818" points="668.68,266.88,661.9918,259.6503,664.0866,264.905,658.8319,266.9998,668.68,266.88" style="stroke:#181818;stroke-width:1.0;"/><text fill="#000000" font-family="sans-serif" font-size="13" lengthAdjust="spacing" textLength="144" x="598" y="232.897">&#171;include&#187; abrirEdificios()</text></g><!--SRC=[dLAnJiCm4Dtz5QUm94CwLBIYKHMfX5JgLZ6mE_4HdUhQaMD04UBVSQ4ahHDQWIVxxhrtzvxSx4ZLtF0zI59esngXrh8zF1WpM5gkAebmaptazwiP14akw9bAqWsi2a9ZTG2yWQvwB5waZZ8l4JCj9I-quPQqScn3fXlu9N9UOgpcvOvN22XfJufthGCsy8jX5C0x0tTEPi-dYtozWDp3FX6- -T1YLeZvNMSaqyeQjp0Q7xYUhhBRl0C-OgqRijgqLu3iWp4_O8ZZT7IxP60wnEDb8oBcnVrV6JR6WLWSr0Ov951oK_NOhVjlHxvxgLDXI7hNRAZqlUuWlmHqOL6XsMgp4LVrUgBJE-sFUlh5qgLutDHNJU9F3dxqndN6DfjCKk_Z9x1SaYhbYy0q1NxM2oFs2G00]--></g></svg>