<?xml version="1.0" encoding="us-ascii" standalone="no"?><svg xmlns="http://www.w3.org/2000/svg" xmlns:xlink="http://www.w3.org/1999/xlink" contentStyleType="text/css" height="740px" preserveAspectRatio="none" style="width:409px;height:740px;background:#FFFFFF;" version="1.1" viewBox="0 0 409 740" width="409px" zoomAndPan="magnify"><defs/><g><path d="M19.5,7 L383.5,7 A12.5,12.5 0 0 1 396,19.5 L396,36.0679 L7,36.0679 L7,19.5 A12.5,12.5 0 0 1 19.5,7 " fill="#F1F1F1" style="stroke:#F1F1F1;stroke-width:1.0;"/><rect fill="none" height="580.0679" rx="12.5" ry="12.5" style="stroke:#181818;stroke-width:0.5;" width="389" x="7" y="7"/><line style="stroke:#181818;stroke-width:0.5;" x1="7" x2="396" y1="36.0679" y2="36.0679"/><text fill="#000000" font-family="sans-serif" font-size="14" lengthAdjust="spacing" textLength="121" x="141" y="26.9659">consultarHorario()</text><g id="consultarHorario.RequiringConsultation"><rect fill="#F1F1F1" height="50" rx="12.5" ry="12.5" style="stroke:#181818;stroke-width:0.5;" width="50" x="91" y="140.0679"/><line style="stroke:#181818;stroke-width:0.5;" x1="91" x2="141" y1="169.1358" y2="169.1358"/><text fill="#000000" font-family="sans-serif" font-size="14" lengthAdjust="spacing" textLength="4" x="114" y="160.0339">&#160;</text></g><g id="consultarHorario.ProvidingSchedule"><rect fill="#F1F1F1" height="50" rx="12.5" ry="12.5" style="stroke:#181818;stroke-width:0.5;" width="50" x="91" y="299.0679"/><line style="stroke:#181818;stroke-width:0.5;" x1="91" x2="141" y1="328.1358" y2="328.1358"/><text fill="#000000" font-family="sans-serif" font-size="14" lengthAdjust="spacing" textLength="4" x="114" y="319.0339">&#160;</text></g><g id="elem_c"><polygon fill="#F1F1F1" points="116,458.0679,128,470.0679,116,482.0679,104,470.0679,116,458.0679" style="stroke:#181818;stroke-width:0.5;"/></g><ellipse cx="116" cy="57.0679" fill="#222222" rx="10" ry="10" style="stroke:#222222;stroke-width:1.0;"/><ellipse cx="116" cy="566.0679" fill="none" rx="11" ry="11" style="stroke:#222222;stroke-width:1.0;"/><ellipse cx="116" cy="566.0679" fill="#222222" rx="6" ry="6" style="stroke:#222222;stroke-width:1.0;"/><!--link *start*consultarHorario to RequiringConsultation--><g id="link_*start*consultarHorario_RequiringConsultation"><path d="M116,67.1079 C116,83.0279 116,110.5779 116,133.7079 " fill="none" id="*start*consultarHorario-to-RequiringConsultation" style="stroke:#008000;stroke-width:1.0;"/><polygon fill="#008000" points="116,139.7079,120,130.7079,116,134.7079,112,130.7079,116,139.7079" style="stroke:#008000;stroke-width:1.0;"/><path d="M121,90.0679 L121,117.0679 L387,117.0679 L387,100.0679 L377,90.0679 L121,90.0679 " fill="#FEFFDD" style="stroke:#181818;stroke-width:0.5;"/><path d="M377,90.0679 L377,100.0679 L387,100.0679 L377,90.0679 " fill="#FEFFDD" style="stroke:#181818;stroke-width:0.5;"/><text fill="#000000" font-family="sans-serif" font-size="13" font-weight="bold" lengthAdjust="spacing" textLength="95" x="127" y="108.9649">Administrador</text><text fill="#000000" font-family="sans-serif" font-size="13" lengthAdjust="spacing" textLength="147" x="225" y="108.9649">solicita consultar horario</text></g><!--link RequiringConsultation to ProvidingSchedule--><g id="link_RequiringConsultation_ProvidingSchedule"><path d="M116,190.2579 C116,219.7579 116,263.3379 116,292.8579 " fill="none" id="RequiringConsultation-to-ProvidingSchedule" style="stroke:#008000;stroke-width:1.0;"/><polygon fill="#008000" points="116,298.8579,120,289.8579,116,293.8579,112,289.8579,116,298.8579" style="stroke:#008000;stroke-width:1.0;"/><path d="M121,213.0679 L121,276.0679 L303,276.0679 L303,223.0679 L293,213.0679 L121,213.0679 " fill="#FEFFDD" style="stroke:#181818;stroke-width:0.5;"/><path d="M293,213.0679 L293,223.0679 L303,223.0679 L293,213.0679 " fill="#FEFFDD" style="stroke:#181818;stroke-width:0.5;"/><text fill="#000000" font-family="sans-serif" font-size="13" font-weight="bold" lengthAdjust="spacing" textLength="52" x="127" y="231.9649">Sistema</text><text fill="#000000" font-family="sans-serif" font-size="13" lengthAdjust="spacing" textLength="53" x="182" y="231.9649">presenta</text><text fill="#000000" font-family="sans-serif" font-size="13" lengthAdjust="spacing" textLength="113" x="127" y="249.6709">&#8226; horario generado</text><text fill="#000000" font-family="sans-serif" font-size="13" lengthAdjust="spacing" textLength="161" x="127" y="267.377">&#8226; mensaje si no hay horario</text></g><!--link ProvidingSchedule to c--><g id="link_ProvidingSchedule_c"><path d="M90.76,335.8879 C61.73,348.3279 18,367.0679 18,367.0679 C18,367.0679 18,440.0679 18,440.0679 C18,440.0679 77.5669,457.6945 101.5469,464.7945 " fill="none" id="ProvidingSchedule-to-c" style="stroke:#008000;stroke-width:1.0;"/><polygon fill="#008000" points="107.3,466.4979,99.8059,460.1074,102.5057,465.0784,97.5347,467.7783,107.3,466.4979" style="stroke:#008000;stroke-width:1.0;"/><path d="M23,372.0679 L23,435.0679 L188,435.0679 L188,382.0679 L178,372.0679 L23,372.0679 " fill="#FEFFDD" style="stroke:#181818;stroke-width:0.5;"/><path d="M178,372.0679 L178,382.0679 L188,382.0679 L178,372.0679 " fill="#FEFFDD" style="stroke:#181818;stroke-width:0.5;"/><text fill="#000000" font-family="sans-serif" font-size="13" font-weight="bold" lengthAdjust="spacing" textLength="95" x="29" y="390.9649">Administrador</text><text fill="#000000" font-family="sans-serif" font-size="13" lengthAdjust="spacing" textLength="41" x="127" y="390.9649">solicita</text><text fill="#000000" font-family="sans-serif" font-size="13" lengthAdjust="spacing" textLength="144" x="29" y="408.6709">&#8226; continuar consultando</text><text fill="#000000" font-family="sans-serif" font-size="13" lengthAdjust="spacing" textLength="104" x="29" y="426.377">&#8226; salir de consulta</text></g><!--link c to ProvidingSchedule--><g id="link_c_ProvidingSchedule"><path d="M124.24,465.9679 C144.1,458.4879 193,440.0679 193,440.0679 C193,440.0679 193,367.0679 193,367.0679 C193,367.0679 168.9375,353.9409 146.4775,341.6909 " fill="none" id="c-to-ProvidingSchedule" style="stroke:#008000;stroke-width:1.0;"/><polygon fill="#008000" points="141.21,338.8179,147.1959,346.639,145.5996,341.212,151.0265,339.6157,141.21,338.8179" style="stroke:#008000;stroke-width:1.0;"/><path d="M198,390.0679 L198,417.0679 L348,417.0679 L348,400.0679 L338,390.0679 L198,390.0679 " fill="#FEFFDD" style="stroke:#181818;stroke-width:0.5;"/><path d="M338,390.0679 L338,400.0679 L348,400.0679 L338,390.0679 " fill="#FEFFDD" style="stroke:#181818;stroke-width:0.5;"/><text fill="#000000" font-family="sans-serif" font-size="13" lengthAdjust="spacing" textLength="129" x="204" y="408.9649">continuar navegando</text></g><!--link c to *end*consultarHorario--><g id="link_c_*end*consultarHorario"><path d="M116,482.2179 C116,500.6079 116,530.9979 116,548.7879 " fill="none" id="c-to-*end*consultarHorario" style="stroke:#008000;stroke-width:1.0;"/><polygon fill="#008000" points="116,554.7879,120,545.7879,116,549.7879,112,545.7879,116,554.7879" style="stroke:#008000;stroke-width:1.0;"/><path d="M121,505.0679 L121,532.0679 L238,532.0679 L238,515.0679 L228,505.0679 L121,505.0679 " fill="#FEFFDD" style="stroke:#181818;stroke-width:0.5;"/><path d="M228,505.0679 L228,515.0679 L238,515.0679 L228,505.0679 " fill="#FEFFDD" style="stroke:#181818;stroke-width:0.5;"/><text fill="#000000" font-family="sans-serif" font-size="13" lengthAdjust="spacing" textLength="96" x="127" y="523.9649">salir de consulta</text></g><g id="SISTEMA_DISPONIBLE"><rect fill="#F1F1F1" height="50" rx="12.5" ry="12.5" style="stroke:#181818;stroke-width:0.5;" width="167" x="118" y="684"/><line style="stroke:#181818;stroke-width:0.5;" x1="118" x2="285" y1="713.0679" y2="713.0679"/><text fill="#000000" font-family="sans-serif" font-size="14" lengthAdjust="spacing" textLength="147" x="128" y="703.9659">SISTEMA_DISPONIBLE</text></g><!--link consultarHorario to SISTEMA_DISPONIBLE--><g id="link_consultarHorario_SISTEMA_DISPONIBLE"><path d="M201.5,587.2 C201.5,627.22 201.5,656.06 201.5,677.9 " fill="none" id="consultarHorario-to-SISTEMA_DISPONIBLE" style="stroke:#008000;stroke-width:1.0;"/><polygon fill="#008000" points="201.5,683.9,205.5,674.9,201.5,678.9,197.5,674.9,201.5,683.9" style="stroke:#008000;stroke-width:1.0;"/><path d="M206.5,622 L206.5,649 L342.5,649 L342.5,632 L332.5,622 L206.5,622 " fill="#FEFFDD" style="stroke:#181818;stroke-width:0.5;"/><path d="M332.5,622 L332.5,632 L342.5,632 L332.5,622 " fill="#FEFFDD" style="stroke:#181818;stroke-width:0.5;"/><text fill="#000000" font-family="sans-serif" font-size="13" lengthAdjust="spacing" textLength="115" x="212.5" y="640.897">completarGestion()</text></g><!--SRC=[dPF_IiCm4CV_prCSyvzD6Bv0AKmTEl37iFutHBBqQC-rbvgaWo62p-AZ-IHchMixLn6MG279tVVxkUDgLyI5D3A7Z1ZTfa0eTBRP7eImJZe4fTcMcPFcMXjfI8EqCFXzEHmDu4q8yAlE6lZj0n_mjIH3d5py93ZIV1WsDtfDiG-BL8fncM4dH44Gg5IJmZ2i7HQdJp1Ud2G6aP_6ORy9LA6ilO8_-89MrKMm32TnJapM6Hbh4vmjGx0w8qLEjhL2MjTLvI37jP1VeldqktQv-glgGuey3kQoWYaCMcGdgxUlZyyT2YJ8k6Lk7d9aAryGB7bHIEMcbxebFk3PerL7DAn1yOrpnALltAw5t06rCYC3SJjBVm2gOzhNMhDSOz8OD_8zqdw2-iN-8NqNuk1twEf6i-XnUZjvlfn5y_kxsVdDLEnPA9qN6VhaAxJRSHcEHAFz3G00]--></g></svg>