<?xml version="1.0" encoding="us-ascii" standalone="no"?><svg xmlns="http://www.w3.org/2000/svg" xmlns:xlink="http://www.w3.org/1999/xlink" contentStyleType="text/css" height="547px" preserveAspectRatio="none" style="width:929px;height:547px;background:#FFFFFF;" version="1.1" viewBox="0 0 929 547" width="929px" zoomAndPan="magnify"><defs/><g><!--cluster eliminarPrograma--><g id="cluster_eliminarPrograma"><path d="M8.5,111 L145.5,111 A3.75,3.75 0 0 1 148,113.5 L155,136.0679 L679.5,136.0679 A2.5,2.5 0 0 1 682,138.5679 L682,537.5 A2.5,2.5 0 0 1 679.5,540 L8.5,540 A2.5,2.5 0 0 1 6,537.5 L6,113.5 A2.5,2.5 0 0 1 8.5,111 " fill="none" style="stroke:#000000;stroke-width:1.5;"/><line style="stroke:#000000;stroke-width:1.5;" x1="6" x2="155" y1="136.0679" y2="136.0679"/><text fill="#000000" font-family="sans-serif" font-size="14" font-weight="bold" lengthAdjust="spacing" textLength="136" x="10" y="127.9659">eliminarPrograma()</text></g><!--entity EliminarProgramaView--><g id="elem_EliminarProgramaView"><rect fill="#629EF9" height="39.0679" rx="2.5" ry="2.5" style="stroke:#181818;stroke-width:0.5;" width="173" x="354.5" y="149"/><text fill="#000000" font-family="sans-serif" font-size="14" lengthAdjust="spacing" textLength="153" x="364.5" y="173.9659">EliminarProgramaView</text></g><!--entity ProgramaController--><g id="elem_ProgramaController"><rect fill="#B5BD68" height="39.0679" rx="2.5" ry="2.5" style="stroke:#181818;stroke-width:0.5;" width="153" x="137.5" y="267"/><text fill="#000000" font-family="sans-serif" font-size="14" lengthAdjust="spacing" textLength="133" x="147.5" y="291.9659">ProgramaController</text></g><!--entity ProgramaRepository--><g id="elem_ProgramaRepository"><rect fill="#F2AC4E" height="39.0679" rx="2.5" ry="2.5" style="stroke:#181818;stroke-width:0.5;" width="157" x="147.5" y="385"/><text fill="#000000" font-family="sans-serif" font-size="14" lengthAdjust="spacing" textLength="137" x="157.5" y="409.9659">ProgramaRepository</text></g><!--entity Programa--><g id="elem_Programa"><rect fill="#F2AC4E" height="39.0679" rx="2.5" ry="2.5" style="stroke:#181818;stroke-width:0.5;" width="86" x="183" y="485"/><text fill="#000000" font-family="sans-serif" font-size="14" lengthAdjust="spacing" textLength="66" x="193" y="509.9659">Programa</text></g><!--entity ProgramasAbierto--><g id="elem_ProgramasAbierto"><rect fill="#CDEBA5" height="39.0679" rx="2.5" ry="2.5" style="stroke:#181818;stroke-width:0.5;" width="150" x="251" y="7"/><text fill="#000000" font-family="sans-serif" font-size="14" lengthAdjust="spacing" textLength="130" x="261" y="31.9659">:Programas Abierto</text></g><!--entity ProgramaAbierto--><g id="elem_ProgramaAbierto"><rect fill="#CDEBA5" height="39.0679" rx="2.5" ry="2.5" style="stroke:#181818;stroke-width:0.5;" width="143" x="484.5" y="7"/><text fill="#000000" font-family="sans-serif" font-size="14" lengthAdjust="spacing" textLength="123" x="494.5" y="31.9659">:Programa Abierto</text></g><!--entity AbrirProgramas--><g id="elem_AbrirProgramas"><rect fill="#CDEBA5" height="39.0679" rx="2.5" ry="2.5" style="stroke:#181818;stroke-width:0.5;" width="225" x="698.5" y="267"/><text fill="#000000" font-family="sans-serif" font-size="14" lengthAdjust="spacing" textLength="205" x="708.5" y="291.9659">:Collaboration AbrirProgramas</text></g><!--link ProgramasAbierto to EliminarProgramaView--><g id="link_ProgramasAbierto_EliminarProgramaView"><path d="M324.85,46.11 C324,59.79 323,76 323,76 C323,76 323,95 323,95 C323,95 370.5378,124.209 405.4978,145.689 " fill="none" id="ProgramasAbierto-to-EliminarProgramaView" style="stroke:#181818;stroke-width:1.0;"/><polygon fill="#181818" points="410.61,148.83,405.0358,140.7104,406.3499,146.2125,400.8478,147.5266,410.61,148.83" style="stroke:#181818;stroke-width:1.0;"/><text fill="#000000" font-family="sans-serif" font-size="13" lengthAdjust="spacing" textLength="188" x="324" y="90.897">eliminarPrograma(programaId)</text></g><!--link ProgramaAbierto to EliminarProgramaView--><g id="link_ProgramaAbierto_EliminarProgramaView"><path d="M545.14,46.3 C533.6,66.28 517,95 517,95 C517,95 487.4317,123.2088 464.9117,144.6888 " fill="none" id="ProgramaAbierto-to-EliminarProgramaView" style="stroke:#181818;stroke-width:1.0;"/><polygon fill="#181818" points="460.57,148.83,469.8434,145.5127,464.1881,145.379,464.3218,139.7237,460.57,148.83" style="stroke:#181818;stroke-width:1.0;"/><text fill="#000000" font-family="sans-serif" font-size="13" lengthAdjust="spacing" textLength="188" x="528" y="90.897">eliminarPrograma(programaId)</text></g><!--link EliminarProgramaView to ProgramaController--><g id="link_EliminarProgramaView_ProgramaController"><path d="M354.15,180.38 C240.05,194.68 54,218 54,218 C54,218 54,237 54,237 C54,237 101.7381,251.4691 146.8581,265.1491 " fill="none" id="EliminarProgramaView-to-ProgramaController" style="stroke:#181818;stroke-width:1.0;"/><polygon fill="#181818" points="152.6,266.89,145.1478,260.4507,147.8151,265.4393,142.8266,268.1066,152.6,266.89" style="stroke:#181818;stroke-width:1.0;"/><text fill="#000000" font-family="sans-serif" font-size="13" lengthAdjust="spacing" textLength="342" x="55" y="232.897">cargarProgramaParaEliminacion(programaId) : Programa</text></g><!--link EliminarProgramaView to ProgramaController--><g id="link_EliminarProgramaView_ProgramaController"><path d="M430.14,188.3 C418.6,208.28 402,237 402,237 C402,237 344.7595,251.7603 291.6895,265.4603 " fill="none" id="EliminarProgramaView-to-ProgramaController-1" style="stroke:#181818;stroke-width:1.0;"/><polygon fill="#181818" points="285.88,266.96,295.5941,268.5834,290.7213,265.7102,293.5945,260.8374,285.88,266.96" style="stroke:#181818;stroke-width:1.0;"/><text fill="#000000" font-family="sans-serif" font-size="13" lengthAdjust="spacing" textLength="223" x="413" y="232.897">eliminarPrograma(programaId) : void</text></g><!--link ProgramaController to ProgramaRepository--><g id="link_ProgramaController_ProgramaRepository"><path d="M161.04,306.11 C122.12,319.79 76,336 76,336 C76,336 76,355 76,355 C76,355 120.421,369.3641 162.731,383.0441 " fill="none" id="ProgramaController-to-ProgramaRepository" style="stroke:#181818;stroke-width:1.0;"/><polygon fill="#181818" points="168.44,384.89,161.1071,378.3152,163.6825,383.3518,158.6459,385.9272,168.44,384.89" style="stroke:#181818;stroke-width:1.0;"/><text fill="#000000" font-family="sans-serif" font-size="13" lengthAdjust="spacing" textLength="230" x="77" y="350.897">obtenerPorId(programaId) : Programa</text></g><!--link ProgramaController to ProgramaRepository--><g id="link_ProgramaController_ProgramaRepository"><path d="M251.61,306.11 C279.25,319.79 312,336 312,336 C312,336 312,355 312,355 C312,355 288.4863,368.2629 264.2263,381.9429 " fill="none" id="ProgramaController-to-ProgramaRepository-1" style="stroke:#181818;stroke-width:1.0;"/><polygon fill="#181818" points="259,384.89,268.8042,383.9536,263.3553,382.4341,264.8748,376.9851,259,384.89" style="stroke:#181818;stroke-width:1.0;"/><text fill="#000000" font-family="sans-serif" font-size="13" lengthAdjust="spacing" textLength="163" x="313" y="350.897">eliminar(programaId) : void</text></g><!--link ProgramaRepository to Programa--><g id="link_ProgramaRepository_Programa"><path d="M226,424.4 C226,441.86 226,467.66 226,484.99 " fill="none" id="ProgramaRepository-Programa" style="stroke:#181818;stroke-width:1.0;"/></g><!--link EliminarProgramaView to AbrirProgramas--><g id="link_EliminarProgramaView_AbrirProgramas"><path d="M519,188.04 C576.59,201.74 645,218 645,218 C645,218 710.512,244.6397 759.642,264.6197 " fill="none" id="EliminarProgramaView-to-AbrirProgramas" style="stroke:#181818;stroke-width:1.0;stroke-dasharray:7.0,7.0;"/><polygon fill="#181818" points="765.2,266.88,758.3699,259.7842,760.5684,264.9964,755.3562,267.1949,765.2,266.88" style="stroke:#181818;stroke-width:1.0;"/><text fill="#000000" font-family="sans-serif" font-size="13" lengthAdjust="spacing" textLength="162" x="690" y="232.897">&#171;include&#187; abrirProgramas()</text></g><!--SRC=[dLAnReCm4Dtz5IUwm90CKHCrA49AAP6oeGxT3PoG5ST65xSLglhlTI8An52YbCdSlVVkthDF1w4gJlm8KYWqTOLGQLcVVnWZp0rNfKHuY5-Iv-qIl30bNLeuFy4s4qX6Us3FRRKfJb97cLF4M4l9CqtS2AqicmIr0oyYroN6AfuVU8c0KXo5ucthZFNSeXzuyCN0VhtPgyKwsQqXSR1l0ZzTQBRCYjLJQoJMof1T6Ca5xXRR-35fWQzOwPCmckeRGFRDc1imp6RHw7RXmBHVDOTz4J0dxl_Ai34Ep0ghDimXX9nJsM5J-zuQVculj2yCOUUQ3PKkwmxp2q5d1XLIgcbVtDJhY5Qlrn_tz8UbgNZir0yjYhiS_EgDwenkDfz7piCFORCHAfVl1KOHyAkU7x0V]--></g></svg>