<?xml version="1.0" encoding="us-ascii" standalone="no"?><svg xmlns="http://www.w3.org/2000/svg" xmlns:xlink="http://www.w3.org/1999/xlink" contentStyleType="text/css" height="1542px" preserveAspectRatio="none" style="width:1032px;height:1542px;background:#FFFFFF;" version="1.1" viewBox="0 0 1032 1542" width="1032px" zoomAndPan="magnify"><defs/><g><g id="NoAuth"><rect fill="#F1F1F1" height="50" rx="12.5" ry="12.5" style="stroke:#181818;stroke-width:0.5;" width="146" x="87" y="791"/><line style="stroke:#181818;stroke-width:0.5;" x1="87" x2="233" y1="820.0679" y2="820.0679"/><text fill="#000000" font-family="sans-serif" font-size="14" lengthAdjust="spacing" textLength="126" x="97" y="810.9659">NO_AUTENTICADO</text></g><g id="Menu"><rect fill="#F1F1F1" height="50" rx="12.5" ry="12.5" style="stroke:#181818;stroke-width:0.5;" width="139" x="406" y="791"/><line style="stroke:#181818;stroke-width:0.5;" x1="406" x2="545" y1="820.0679" y2="820.0679"/><text fill="#000000" font-family="sans-serif" font-size="14" lengthAdjust="spacing" textLength="119" x="416" y="810.9659">MENU_PRINCIPAL</text></g><g id="Programas"><rect fill="#F1F1F1" height="50" rx="12.5" ry="12.5" style="stroke:#181818;stroke-width:0.5;" width="214" x="796.5" y="109"/><line style="stroke:#181818;stroke-width:0.5;" x1="796.5" x2="1010.5" y1="138.0679" y2="138.0679"/><text fill="#000000" font-family="sans-serif" font-size="14" lengthAdjust="spacing" textLength="194" x="806.5" y="128.9659">GESTIONANDO_PROGRAMAS</text></g><g id="Cursos"><rect fill="#F1F1F1" height="50" rx="12.5" ry="12.5" style="stroke:#181818;stroke-width:0.5;" width="183" x="812" y="285"/><line style="stroke:#181818;stroke-width:0.5;" x1="812" x2="995" y1="314.0679" y2="314.0679"/><text fill="#000000" font-family="sans-serif" font-size="14" lengthAdjust="spacing" textLength="163" x="822" y="304.9659">GESTIONANDO_CURSOS</text></g><g id="Profesores"><rect fill="#F1F1F1" height="50" rx="12.5" ry="12.5" style="stroke:#181818;stroke-width:0.5;" width="215" x="796" y="478"/><line style="stroke:#181818;stroke-width:0.5;" x1="796" x2="1011" y1="507.0679" y2="507.0679"/><text fill="#000000" font-family="sans-serif" font-size="14" lengthAdjust="spacing" textLength="195" x="806" y="497.9659">GESTIONANDO_PROFESORES</text></g><g id="Edificios"><rect fill="#F1F1F1" height="50" rx="12.5" ry="12.5" style="stroke:#181818;stroke-width:0.5;" width="196" x="805.5" y="654"/><line style="stroke:#181818;stroke-width:0.5;" x1="805.5" x2="1001.5" y1="683.0679" y2="683.0679"/><text fill="#000000" font-family="sans-serif" font-size="14" lengthAdjust="spacing" textLength="176" x="815.5" y="673.9659">GESTIONANDO_EDIFICIOS</text></g><g id="Aulas"><rect fill="#F1F1F1" height="50" rx="12.5" ry="12.5" style="stroke:#181818;stroke-width:0.5;" width="171" x="818" y="830"/><line style="stroke:#181818;stroke-width:0.5;" x1="818" x2="989" y1="859.0679" y2="859.0679"/><text fill="#000000" font-family="sans-serif" font-size="14" lengthAdjust="spacing" textLength="151" x="828" y="849.9659">GESTIONANDO_AULAS</text></g><g id="Recursos"><rect fill="#F1F1F1" height="50" rx="12.5" ry="12.5" style="stroke:#181818;stroke-width:0.5;" width="200" x="803.5" y="1006"/><line style="stroke:#181818;stroke-width:0.5;" x1="803.5" x2="1003.5" y1="1035.0679" y2="1035.0679"/><text fill="#000000" font-family="sans-serif" font-size="14" lengthAdjust="spacing" textLength="180" x="813.5" y="1025.9659">GESTIONANDO_RECURSOS</text></g><g id="Asignaciones"><rect fill="#F1F1F1" height="50" rx="12.5" ry="12.5" style="stroke:#181818;stroke-width:0.5;" width="243" x="782" y="1107"/><line style="stroke:#181818;stroke-width:0.5;" x1="782" x2="1025" y1="1136.0679" y2="1136.0679"/><text fill="#000000" font-family="sans-serif" font-size="14" lengthAdjust="spacing" textLength="223" x="792" y="1126.9659">CONFIGURANDO_ASIGNACIONES</text></g><g id="Generacion"><rect fill="#F1F1F1" height="50" rx="12.5" ry="12.5" style="stroke:#181818;stroke-width:0.5;" width="177" x="815" y="1252"/><line style="stroke:#181818;stroke-width:0.5;" x1="815" x2="992" y1="1281.0679" y2="1281.0679"/><text fill="#000000" font-family="sans-serif" font-size="14" lengthAdjust="spacing" textLength="157" x="825" y="1271.9659">GENERANDO_HORARIO</text></g><g id="Consulta"><rect fill="#F1F1F1" height="50" rx="12.5" ry="12.5" style="stroke:#181818;stroke-width:0.5;" width="203" x="802" y="1406"/><line style="stroke:#181818;stroke-width:0.5;" x1="802" x2="1005" y1="1435.0679" y2="1435.0679"/><text fill="#000000" font-family="sans-serif" font-size="14" lengthAdjust="spacing" textLength="183" x="812" y="1425.9659">CONSULTANDO_HORARIOS</text></g><ellipse cx="16" cy="816" fill="#222222" rx="10" ry="10" style="stroke:#222222;stroke-width:1.0;"/><!--link *start* to NoAuth--><g id="link_*start*_NoAuth"><path d="M26.32,816 C38.97,816 56.76,816 80.74,816 " fill="none" id="*start*-to-NoAuth" style="stroke:#181818;stroke-width:1.0;"/><polygon fill="#181818" points="86.74,816,77.74,812,81.74,816,77.74,820,86.74,816" style="stroke:#181818;stroke-width:1.0;"/></g><!--link NoAuth to Menu--><g id="link_NoAuth_Menu"><path d="M233.32,816 C285.21,816 348.71,816 399.77,816 " fill="none" id="NoAuth-to-Menu" style="stroke:#181818;stroke-width:1.0;"/><polygon fill="#181818" points="405.77,816,396.77,812,400.77,816,396.77,820,405.77,816" style="stroke:#181818;stroke-width:1.0;"/><path d="M268,784 L268,811 L371,811 L371,794 L361,784 L268,784 " fill="#FEFFDD" style="stroke:#181818;stroke-width:0.5;"/><path d="M361,784 L361,794 L371,794 L361,784 " fill="#FEFFDD" style="stroke:#181818;stroke-width:0.5;"/><text fill="#000000" font-family="sans-serif" font-size="13" lengthAdjust="spacing" textLength="82" x="274" y="802.897">iniciarSesion()</text></g><!--link Menu to NoAuth--><g id="link_Menu_NoAuth"><path d="M430.3,841.07 C413.8,849.1 394.55,856.96 376,861 C326.93,871.67 312.14,871.35 263,861 C243.87,856.96 229.3898,851.6629 212.2898,843.6229 " fill="none" id="Menu-to-NoAuth" style="stroke:#181818;stroke-width:1.0;"/><polygon fill="#181818" points="206.86,841.07,213.3027,848.5193,211.3848,843.1975,216.7066,841.2796,206.86,841.07" style="stroke:#181818;stroke-width:1.0;"/><path d="M268,829 L268,856 L371,856 L371,839 L361,829 L268,829 " fill="#FEFFDD" style="stroke:#181818;stroke-width:0.5;"/><path d="M361,829 L361,839 L371,839 L361,829 " fill="#FEFFDD" style="stroke:#181818;stroke-width:0.5;"/><text fill="#000000" font-family="sans-serif" font-size="13" lengthAdjust="spacing" textLength="82" x="274" y="847.897">cerrarSesion()</text></g><!--link Menu to Programas--><g id="link_Menu_Programas"><path d="M476.57,790.66 C477.43,683.27 486.49,267.27 575,180 C632.03,123.76 718.1684,114.8322 790.1984,118.6522 " fill="none" id="Menu-to-Programas" style="stroke:#181818;stroke-width:1.0;"/><polygon fill="#181818" points="796.19,118.97,787.4145,114.499,791.197,118.7052,786.9908,122.4878,796.19,118.97" style="stroke:#181818;stroke-width:1.0;"/><path d="M601.5,87 L601.5,114 L725.5,114 L725.5,97 L715.5,87 L601.5,87 " fill="#FEFFDD" style="stroke:#181818;stroke-width:0.5;"/><path d="M715.5,87 L715.5,97 L725.5,97 L715.5,87 " fill="#FEFFDD" style="stroke:#181818;stroke-width:0.5;"/><text fill="#000000" font-family="sans-serif" font-size="13" lengthAdjust="spacing" textLength="103" x="607.5" y="105.897">listarProgramas()</text></g><!--link Programas to Menu--><g id="link_Programas_Menu"><path d="M809.21,159.05 C799.49,163.79 790.19,169.39 782,176 C762.12,192.02 772.64,209.95 752,225 C686.58,272.68 630.49,209.05 575,268 C502.2,345.33 482.066,687.6959 477.756,784.8059 " fill="none" id="Programas-to-Menu" style="stroke:#181818;stroke-width:1.0;"/><polygon fill="#181818" points="477.49,790.8,481.8851,781.9862,477.7117,785.8049,473.893,781.6315,477.49,790.8" style="stroke:#181818;stroke-width:1.0;"/><path d="M607.5,193 L607.5,220 L719.5,220 L719.5,203 L709.5,193 L607.5,193 " fill="#FEFFDD" style="stroke:#181818;stroke-width:0.5;"/><path d="M709.5,193 L709.5,203 L719.5,203 L709.5,193 " fill="#FEFFDD" style="stroke:#181818;stroke-width:0.5;"/><text fill="#000000" font-family="sans-serif" font-size="13" lengthAdjust="spacing" textLength="91" x="613.5" y="211.897">volverAlMenu()</text></g><!--link Menu to Cursos--><g id="link_Menu_Cursos"><path d="M478.11,790.88 C484.26,703.17 509.37,412.48 575,352 C608.57,321.06 721.1019,312.5128 805.9119,310.3528 " fill="none" id="Menu-to-Cursos" style="stroke:#181818;stroke-width:1.0;"/><polygon fill="#181818" points="811.91,310.2,802.8111,306.4304,806.9116,310.3273,803.0148,314.4278,811.91,310.2" style="stroke:#181818;stroke-width:1.0;"/><path d="M614,281 L614,308 L713,308 L713,291 L703,281 L614,281 " fill="#FEFFDD" style="stroke:#181818;stroke-width:0.5;"/><path d="M703,281 L703,291 L713,291 L703,281 " fill="#FEFFDD" style="stroke:#181818;stroke-width:0.5;"/><text fill="#000000" font-family="sans-serif" font-size="13" lengthAdjust="spacing" textLength="78" x="620" y="299.897">listarCursos()</text></g><!--link Cursos to Menu--><g id="link_Cursos_Menu"><path d="M811.94,334.2 C801.29,339.13 791.02,345.01 782,352 C763,366.72 771.58,383.06 752,397 C685.78,444.12 632.59,385.63 575,443 C524.76,493.04 491.062,709.5466 480.632,784.9566 " fill="none" id="Cursos-to-Menu" style="stroke:#181818;stroke-width:1.0;"/><polygon fill="#181818" points="479.81,790.9,485.0053,782.5329,480.495,785.9471,477.0808,781.4368,479.81,790.9" style="stroke:#181818;stroke-width:1.0;"/><path d="M607.5,365 L607.5,392 L719.5,392 L719.5,375 L709.5,365 L607.5,365 " fill="#FEFFDD" style="stroke:#181818;stroke-width:0.5;"/><path d="M709.5,365 L709.5,375 L719.5,375 L709.5,365 " fill="#FEFFDD" style="stroke:#181818;stroke-width:0.5;"/><text fill="#000000" font-family="sans-serif" font-size="13" lengthAdjust="spacing" textLength="91" x="613.5" y="383.897">volverAlMenu()</text></g><!--link Menu to Profesores--><g id="link_Menu_Profesores"><path d="M475.65,790.59 C475.16,729.78 483.47,575.9 575,508 C608.91,482.84 707.6982,484.7232 789.7082,491.1232 " fill="none" id="Menu-to-Profesores" style="stroke:#181818;stroke-width:1.0;"/><polygon fill="#181818" points="795.69,491.59,787.0285,486.9019,790.7052,491.201,786.4061,494.8777,795.69,491.59" style="stroke:#181818;stroke-width:1.0;"/><path d="M602.5,456 L602.5,483 L724.5,483 L724.5,466 L714.5,456 L602.5,456 " fill="#FEFFDD" style="stroke:#181818;stroke-width:0.5;"/><path d="M714.5,456 L714.5,466 L724.5,466 L714.5,456 " fill="#FEFFDD" style="stroke:#181818;stroke-width:0.5;"/><text fill="#000000" font-family="sans-serif" font-size="13" lengthAdjust="spacing" textLength="101" x="608.5" y="474.897">listarProfesores()</text></g><!--link Profesores to Menu--><g id="link_Profesores_Menu"><path d="M832.57,528.08 C807.36,536.63 778.58,545.83 752,553 C674.41,573.92 637.34,539.28 575,590 C511.09,641.99 488.5685,737.6587 480.8485,784.8587 " fill="none" id="Profesores-to-Menu" style="stroke:#181818;stroke-width:1.0;"/><polygon fill="#181818" points="479.88,790.78,485.2803,782.5437,480.6871,785.8456,477.3852,781.2524,479.88,790.78" style="stroke:#181818;stroke-width:1.0;"/><path d="M607.5,521 L607.5,548 L719.5,548 L719.5,531 L709.5,521 L607.5,521 " fill="#FEFFDD" style="stroke:#181818;stroke-width:0.5;"/><path d="M709.5,521 L709.5,531 L719.5,531 L709.5,521 " fill="#FEFFDD" style="stroke:#181818;stroke-width:0.5;"/><text fill="#000000" font-family="sans-serif" font-size="13" lengthAdjust="spacing" textLength="91" x="613.5" y="539.897">volverAlMenu()</text></g><!--link Menu to Edificios--><g id="link_Menu_Edificios"><path d="M484.04,790.89 C496.39,754.78 524.75,689.5 575,662 C653.28,619.14 752.6875,633.5759 822.4975,652.4259 " fill="none" id="Menu-to-Edificios" style="stroke:#181818;stroke-width:1.0;"/><polygon fill="#181818" points="828.29,653.99,820.6439,647.7822,823.4629,652.6866,818.5584,655.5056,828.29,653.99" style="stroke:#181818;stroke-width:1.0;"/><path d="M610.5,603 L610.5,630 L716.5,630 L716.5,613 L706.5,603 L610.5,603 " fill="#FEFFDD" style="stroke:#181818;stroke-width:0.5;"/><path d="M706.5,603 L706.5,613 L716.5,613 L706.5,603 " fill="#FEFFDD" style="stroke:#181818;stroke-width:0.5;"/><text fill="#000000" font-family="sans-serif" font-size="13" lengthAdjust="spacing" textLength="85" x="616.5" y="621.897">listarEdificios()</text></g><!--link Edificios to Menu--><g id="link_Edificios_Menu"><path d="M805.44,698.56 C739.32,713.32 650.44,735.97 575,765 C556.49,772.12 542.2181,778.9252 525.4481,787.9152 " fill="none" id="Edificios-to-Menu" style="stroke:#181818;stroke-width:1.0;"/><polygon fill="#181818" points="520.16,790.75,529.982,790.0232,524.5667,788.3877,526.2022,782.9724,520.16,790.75" style="stroke:#181818;stroke-width:1.0;"/><path d="M607.5,680 L607.5,707 L719.5,707 L719.5,690 L709.5,680 L607.5,680 " fill="#FEFFDD" style="stroke:#181818;stroke-width:0.5;"/><path d="M709.5,680 L709.5,690 L719.5,690 L709.5,680 " fill="#FEFFDD" style="stroke:#181818;stroke-width:0.5;"/><text fill="#000000" font-family="sans-serif" font-size="13" lengthAdjust="spacing" textLength="91" x="613.5" y="698.897">volverAlMenu()</text></g><!--link Menu to Aulas--><g id="link_Menu_Aulas"><path d="M545.02,811.2 C600.95,808.44 681.9,807.06 752,816 C774.76,818.9 793.1913,822.6669 815.4113,828.4169 " fill="none" id="Menu-to-Aulas" style="stroke:#181818;stroke-width:1.0;"/><polygon fill="#181818" points="821.22,829.92,813.5091,823.7928,816.3794,828.6674,811.5049,831.5377,821.22,829.92" style="stroke:#181818;stroke-width:1.0;"/><path d="M618.5,778 L618.5,805 L708.5,805 L708.5,788 L698.5,778 L618.5,778 " fill="#FEFFDD" style="stroke:#181818;stroke-width:0.5;"/><path d="M698.5,778 L698.5,788 L708.5,788 L698.5,778 " fill="#FEFFDD" style="stroke:#181818;stroke-width:0.5;"/><text fill="#000000" font-family="sans-serif" font-size="13" lengthAdjust="spacing" textLength="69" x="624.5" y="796.897">listarAulas()</text></g><!--link Aulas to Menu--><g id="link_Aulas_Menu"><path d="M818,867.15 C751.24,874.22 656.13,878.65 575,861 C556.45,856.96 542.595,851.7256 526.095,843.6956 " fill="none" id="Aulas-to-Menu" style="stroke:#181818;stroke-width:1.0;"/><polygon fill="#181818" points="520.7,841.07,527.0422,848.6051,525.1959,843.258,530.5429,841.4117,520.7,841.07" style="stroke:#181818;stroke-width:1.0;"/><path d="M607.5,829 L607.5,856 L719.5,856 L719.5,839 L709.5,829 L607.5,829 " fill="#FEFFDD" style="stroke:#181818;stroke-width:0.5;"/><path d="M709.5,829 L709.5,839 L719.5,839 L709.5,829 " fill="#FEFFDD" style="stroke:#181818;stroke-width:0.5;"/><text fill="#000000" font-family="sans-serif" font-size="13" lengthAdjust="spacing" textLength="91" x="613.5" y="847.897">volverAlMenu()</text></g><!--link Menu to Recursos--><g id="link_Menu_Recursos"><path d="M494.81,841.42 C512.76,864.58 542.15,898.11 575,918 C645.14,960.45 674.58,943.01 752,970 C782.88,980.76 811.1441,991.9762 838.8741,1003.5662 " fill="none" id="Menu-to-Recursos" style="stroke:#181818;stroke-width:1.0;"/><polygon fill="#181818" points="844.41,1005.88,837.6486,998.7187,839.7967,1003.9518,834.5636,1006.0999,844.41,1005.88" style="stroke:#181818;stroke-width:1.0;"/><path d="M607.5,886 L607.5,913 L719.5,913 L719.5,896 L709.5,886 L607.5,886 " fill="#FEFFDD" style="stroke:#181818;stroke-width:0.5;"/><path d="M709.5,886 L709.5,896 L719.5,896 L709.5,886 " fill="#FEFFDD" style="stroke:#181818;stroke-width:0.5;"/><text fill="#000000" font-family="sans-serif" font-size="13" lengthAdjust="spacing" textLength="91" x="613.5" y="904.897">listarRecursos()</text></g><!--link Recursos to Menu--><g id="link_Recursos_Menu"><path d="M803.4,1036.91 C720.93,1039.91 611.37,1038.82 575,1015 C513.9,974.96 490.4397,891.0469 481.7797,847.0869 " fill="none" id="Recursos-to-Menu" style="stroke:#181818;stroke-width:1.0;"/><polygon fill="#181818" points="480.62,841.2,478.435,850.8034,481.5864,846.1057,486.2841,849.2572,480.62,841.2" style="stroke:#181818;stroke-width:1.0;"/><path d="M607.5,983 L607.5,1010 L719.5,1010 L719.5,993 L709.5,983 L607.5,983 " fill="#FEFFDD" style="stroke:#181818;stroke-width:0.5;"/><path d="M709.5,983 L709.5,993 L719.5,993 L709.5,983 " fill="#FEFFDD" style="stroke:#181818;stroke-width:0.5;"/><text fill="#000000" font-family="sans-serif" font-size="13" lengthAdjust="spacing" textLength="91" x="613.5" y="1001.897">volverAlMenu()</text></g><!--link Menu to Asignaciones--><g id="link_Menu_Asignaciones"><path d="M477.69,841.39 C481.69,895.3 499.11,1021.26 575,1083 C591.25,1096.22 689.187,1109.5946 775.667,1119.2446 " fill="none" id="Menu-to-Asignaciones" style="stroke:#181818;stroke-width:1.0;"/><polygon fill="#181818" points="781.63,1119.91,773.1291,1114.9366,776.6608,1119.3555,772.2419,1122.8872,781.63,1119.91" style="stroke:#181818;stroke-width:1.0;"/><path d="M580,1051 L580,1078 L747,1078 L747,1061 L737,1051 L580,1051 " fill="#FEFFDD" style="stroke:#181818;stroke-width:0.5;"/><path d="M737,1051 L737,1061 L747,1061 L737,1051 " fill="#FEFFDD" style="stroke:#181818;stroke-width:0.5;"/><text fill="#000000" font-family="sans-serif" font-size="13" lengthAdjust="spacing" textLength="146" x="586" y="1069.897">asignarProfesorACurso()</text></g><!--link Asignaciones to Menu--><g id="link_Asignaciones_Menu"><path d="M848.53,1157.06 C778.15,1185.62 654.63,1221.07 575,1161 C522.66,1121.51 490.6208,919.6436 480.5908,847.0136 " fill="none" id="Asignaciones-to-Menu" style="stroke:#181818;stroke-width:1.0;"/><polygon fill="#181818" points="479.77,841.07,477.0388,850.5326,480.454,846.023,484.9636,849.4382,479.77,841.07" style="stroke:#181818;stroke-width:1.0;"/><path d="M593.5,1129 L593.5,1156 L733.5,1156 L733.5,1139 L723.5,1129 L593.5,1129 " fill="#FEFFDD" style="stroke:#181818;stroke-width:0.5;"/><path d="M723.5,1129 L723.5,1139 L733.5,1139 L723.5,1129 " fill="#FEFFDD" style="stroke:#181818;stroke-width:0.5;"/><text fill="#000000" font-family="sans-serif" font-size="13" lengthAdjust="spacing" textLength="119" x="599.5" y="1147.897">finalizarAsignacion()</text></g><!--link Menu to Generacion--><g id="link_Menu_Generacion"><path d="M478.66,841.14 C486.29,923.67 514.8,1184.12 575,1238 C609.35,1268.73 724.0307,1276.1352 808.8607,1277.4752 " fill="none" id="Menu-to-Generacion" style="stroke:#181818;stroke-width:1.0;"/><polygon fill="#181818" points="814.86,1277.57,805.9243,1273.4284,809.8606,1277.491,805.7979,1281.4274,814.86,1277.57" style="stroke:#181818;stroke-width:1.0;"/><path d="M602.5,1206 L602.5,1233 L724.5,1233 L724.5,1216 L714.5,1206 L602.5,1206 " fill="#FEFFDD" style="stroke:#181818;stroke-width:0.5;"/><path d="M714.5,1206 L714.5,1216 L724.5,1216 L714.5,1206 " fill="#FEFFDD" style="stroke:#181818;stroke-width:0.5;"/><text fill="#000000" font-family="sans-serif" font-size="13" lengthAdjust="spacing" textLength="101" x="608.5" y="1224.897">generarHorario()</text></g><!--link Generacion to Menu--><g id="link_Generacion_Menu"><path d="M856.99,1302.05 C787.83,1336.34 655.79,1386.52 575,1320 C499.81,1258.08 481.4664,940.6949 477.6264,847.2849 " fill="none" id="Generacion-to-Menu" style="stroke:#181818;stroke-width:1.0;"/><polygon fill="#181818" points="477.38,841.29,473.753,850.4467,477.5854,846.2858,481.7463,850.1181,477.38,841.29" style="stroke:#181818;stroke-width:1.0;"/><path d="M592,1288 L592,1315 L735,1315 L735,1298 L725,1288 L592,1288 " fill="#FEFFDD" style="stroke:#181818;stroke-width:0.5;"/><path d="M725,1288 L725,1298 L735,1298 L725,1288 " fill="#FEFFDD" style="stroke:#181818;stroke-width:0.5;"/><text fill="#000000" font-family="sans-serif" font-size="13" lengthAdjust="spacing" textLength="122" x="598" y="1306.897">finalizarGeneracion()</text></g><!--link Menu to Consulta--><g id="link_Menu_Consulta"><path d="M476.9,841.27 C479.04,942.86 492.53,1319.68 575,1397 C591.42,1412.39 705.6089,1421.384 795.6589,1426.284 " fill="none" id="Menu-to-Consulta" style="stroke:#181818;stroke-width:1.0;"/><polygon fill="#181818" points="801.65,1426.61,792.8806,1422.1269,796.6574,1426.3383,792.446,1430.1151,801.65,1426.61" style="stroke:#181818;stroke-width:1.0;"/><path d="M598,1365 L598,1392 L729,1392 L729,1375 L719,1365 L598,1365 " fill="#FEFFDD" style="stroke:#181818;stroke-width:0.5;"/><path d="M719,1365 L719,1375 L729,1375 L719,1365 " fill="#FEFFDD" style="stroke:#181818;stroke-width:0.5;"/><text fill="#000000" font-family="sans-serif" font-size="13" lengthAdjust="spacing" textLength="110" x="604" y="1383.897">consultarHorario()</text></g><!--link Consulta to Menu--><g id="link_Consulta_Menu"><path d="M854.86,1456.05 C784.72,1489.07 653.51,1535.54 575,1468 C478.13,1384.66 475.2524,956.8198 476.1224,847.1898 " fill="none" id="Consulta-to-Menu" style="stroke:#181818;stroke-width:1.0;"/><polygon fill="#181818" points="476.17,841.19,472.0987,850.158,476.1303,846.1898,480.0985,850.2215,476.17,841.19" style="stroke:#181818;stroke-width:1.0;"/><path d="M607.5,1436 L607.5,1463 L719.5,1463 L719.5,1446 L709.5,1436 L607.5,1436 " fill="#FEFFDD" style="stroke:#181818;stroke-width:0.5;"/><path d="M709.5,1436 L709.5,1446 L719.5,1446 L709.5,1436 " fill="#FEFFDD" style="stroke:#181818;stroke-width:0.5;"/><text fill="#000000" font-family="sans-serif" font-size="13" lengthAdjust="spacing" textLength="91" x="613.5" y="1454.897">volverAlMenu()</text></g><!--link Programas to Programas--><g id="link_Programas_Programas"><path d="M862.89,108.72 C850.59,91.22 864.12,74 903.5,74 C942.88,74 959.8602,86.3112 947.5602,103.8112 " fill="none" id="Programas-to-Programas" style="stroke:#181818;stroke-width:1.0;"/><polygon fill="#181818" points="944.11,108.72,952.5578,103.6569,946.9852,104.6293,946.0127,99.0567,944.11,108.72" style="stroke:#181818;stroke-width:1.0;"/><path d="M835,6 L835,69 L972,69 L972,16 L962,6 L835,6 " fill="#FEFFDD" style="stroke:#181818;stroke-width:0.5;"/><path d="M962,6 L962,16 L972,16 L962,6 " fill="#FEFFDD" style="stroke:#181818;stroke-width:0.5;"/><text fill="#000000" font-family="sans-serif" font-size="13" lengthAdjust="spacing" textLength="98" x="841" y="24.897">crearPrograma()</text><text fill="#000000" font-family="sans-serif" font-size="13" lengthAdjust="spacing" textLength="103" x="841" y="42.603">editarPrograma()</text><text fill="#000000" font-family="sans-serif" font-size="13" lengthAdjust="spacing" textLength="116" x="841" y="60.309">eliminarPrograma()</text></g><!--link Cursos to Cursos--><g id="link_Cursos_Cursos"><path d="M862.89,284.72 C850.59,267.22 864.12,250 903.5,250 C942.88,250 959.8602,262.3112 947.5602,279.8112 " fill="none" id="Cursos-to-Cursos" style="stroke:#181818;stroke-width:1.0;"/><polygon fill="#181818" points="944.11,284.72,952.5578,279.6569,946.9852,280.6293,946.0127,275.0567,944.11,284.72" style="stroke:#181818;stroke-width:1.0;"/><path d="M847.5,182 L847.5,245 L959.5,245 L959.5,192 L949.5,182 L847.5,182 " fill="#FEFFDD" style="stroke:#181818;stroke-width:0.5;"/><path d="M949.5,182 L949.5,192 L959.5,192 L949.5,182 " fill="#FEFFDD" style="stroke:#181818;stroke-width:0.5;"/><text fill="#000000" font-family="sans-serif" font-size="13" lengthAdjust="spacing" textLength="73" x="853.5" y="200.897">crearCurso()</text><text fill="#000000" font-family="sans-serif" font-size="13" lengthAdjust="spacing" textLength="78" x="853.5" y="218.603">editarCurso()</text><text fill="#000000" font-family="sans-serif" font-size="13" lengthAdjust="spacing" textLength="91" x="853.5" y="236.309">eliminarCurso()</text></g><!--link Profesores to Profesores--><g id="link_Profesores_Profesores"><path d="M862.89,477.72 C850.59,460.22 864.12,443 903.5,443 C942.88,443 959.8602,455.3112 947.5602,472.8112 " fill="none" id="Profesores-to-Profesores" style="stroke:#181818;stroke-width:1.0;"/><polygon fill="#181818" points="944.11,477.72,952.5578,472.6569,946.9852,473.6293,946.0127,468.0567,944.11,477.72" style="stroke:#181818;stroke-width:1.0;"/><path d="M796,358 L796,438 L1011,438 L1011,368 L1001,358 L796,358 " fill="#FEFFDD" style="stroke:#181818;stroke-width:0.5;"/><path d="M1001,358 L1001,368 L1011,368 L1001,358 " fill="#FEFFDD" style="stroke:#181818;stroke-width:0.5;"/><text fill="#000000" font-family="sans-serif" font-size="13" lengthAdjust="spacing" textLength="89" x="802" y="376.897">crearProfesor()</text><text fill="#000000" font-family="sans-serif" font-size="13" lengthAdjust="spacing" textLength="94" x="802" y="394.603">editarProfesor()</text><text fill="#000000" font-family="sans-serif" font-size="13" lengthAdjust="spacing" textLength="107" x="802" y="412.309">eliminarProfesor()</text><text fill="#000000" font-family="sans-serif" font-size="13" lengthAdjust="spacing" textLength="194" x="802" y="430.0151">configurarPreferenciasProfesor()</text></g><!--link Edificios to Edificios--><g id="link_Edificios_Edificios"><path d="M862.89,653.72 C850.59,636.22 864.12,619 903.5,619 C942.88,619 959.8602,631.3112 947.5602,648.8112 " fill="none" id="Edificios-to-Edificios" style="stroke:#181818;stroke-width:1.0;"/><polygon fill="#181818" points="944.11,653.72,952.5578,648.6569,946.9852,649.6293,946.0127,644.0567,944.11,653.72" style="stroke:#181818;stroke-width:1.0;"/><path d="M844,551 L844,614 L963,614 L963,561 L953,551 L844,551 " fill="#FEFFDD" style="stroke:#181818;stroke-width:0.5;"/><path d="M953,551 L953,561 L963,561 L953,551 " fill="#FEFFDD" style="stroke:#181818;stroke-width:0.5;"/><text fill="#000000" font-family="sans-serif" font-size="13" lengthAdjust="spacing" textLength="80" x="850" y="569.897">crearEdificio()</text><text fill="#000000" font-family="sans-serif" font-size="13" lengthAdjust="spacing" textLength="85" x="850" y="587.603">editarEdificio()</text><text fill="#000000" font-family="sans-serif" font-size="13" lengthAdjust="spacing" textLength="98" x="850" y="605.309">eliminarEdificio()</text></g><!--link Aulas to Aulas--><g id="link_Aulas_Aulas"><path d="M862.89,829.72 C850.59,812.22 864.12,795 903.5,795 C942.88,795 959.8602,807.3112 947.5602,824.8112 " fill="none" id="Aulas-to-Aulas" style="stroke:#181818;stroke-width:1.0;"/><polygon fill="#181818" points="944.11,829.72,952.5578,824.6569,946.9852,825.6293,946.0127,820.0567,944.11,829.72" style="stroke:#181818;stroke-width:1.0;"/><path d="M852,727 L852,790 L955,790 L955,737 L945,727 L852,727 " fill="#FEFFDD" style="stroke:#181818;stroke-width:0.5;"/><path d="M945,727 L945,737 L955,737 L945,727 " fill="#FEFFDD" style="stroke:#181818;stroke-width:0.5;"/><text fill="#000000" font-family="sans-serif" font-size="13" lengthAdjust="spacing" textLength="64" x="858" y="745.897">crearAula()</text><text fill="#000000" font-family="sans-serif" font-size="13" lengthAdjust="spacing" textLength="69" x="858" y="763.603">editarAula()</text><text fill="#000000" font-family="sans-serif" font-size="13" lengthAdjust="spacing" textLength="82" x="858" y="781.309">eliminarAula()</text></g><!--link Recursos to Recursos--><g id="link_Recursos_Recursos"><path d="M862.89,1005.72 C850.59,988.22 864.12,971 903.5,971 C942.88,971 959.8602,983.3112 947.5602,1000.8112 " fill="none" id="Recursos-to-Recursos" style="stroke:#181818;stroke-width:1.0;"/><polygon fill="#181818" points="944.11,1005.72,952.5578,1000.6569,946.9852,1001.6293,946.0127,996.0567,944.11,1005.72" style="stroke:#181818;stroke-width:1.0;"/><path d="M841,903 L841,966 L966,966 L966,913 L956,903 L841,903 " fill="#FEFFDD" style="stroke:#181818;stroke-width:0.5;"/><path d="M956,903 L956,913 L966,913 L956,903 " fill="#FEFFDD" style="stroke:#181818;stroke-width:0.5;"/><text fill="#000000" font-family="sans-serif" font-size="13" lengthAdjust="spacing" textLength="86" x="847" y="921.897">crearRecurso()</text><text fill="#000000" font-family="sans-serif" font-size="13" lengthAdjust="spacing" textLength="91" x="847" y="939.603">editarRecurso()</text><text fill="#000000" font-family="sans-serif" font-size="13" lengthAdjust="spacing" textLength="104" x="847" y="957.309">eliminarRecurso()</text></g><!--SRC=[fPJHZgCW58RlVGepLpkRp2jiGgnrI5fij5vjDXDZqI7hG08w5_FqYuZA5AXkzA9DE3yV_-4SJelhBknOo4dpteKtmd7L4KQ3G7HbXyCdbBw1uXgZAup08NqAIn4Y1lhkVHASOrIyNJA88dW19oKuOzfFuIJEhp1501rIgKgJ39n1hbGNpXfUVfJ29OsAB4z7NTHpmOI7TuppD8jdO8q5uzWfZW_m22EeeV6DrAGYRYueJjeZw5ktloms76Qu-kOnIj4H9aKsmdAO820FHjec4AIXfJoRcaPHFCfVqmnaSBpe15FCbT8WvyNfQYhr9J4g-hOhW-3tpp_XoyklgKh1-A-ML5r2-L4cOOo6BQ5_rSBm4IelfEGv5lB07yzg7TER4WV1iDVaUZ4LvdoTiXJV2sg9J9hFGZzBDyWAQ5GzT3HrpxebhVJJblvQWSr2FsjimXME4laPSukkO2RT0pTc-tfffLBDLmNKxVkXHgTxaOtIy5ScVyW3rlmK_2sg5LxMt7HRUxNYU6bLZLF86-dSWPPy46g5V1OUlznFrdvY3jf1PO76lj_qK5GMPgMM5AnLxTzTL-FC7SwNTxRvWKvrK49N7Qp0KeVxaEoIcZGz7uAunXnJEHx5dT3hTaVUyqZOEabKrfFEojeLq5dVXNmMTkIYnjAMAQPo63IM__j5xTrOTXstm_Cq0pSEJkLSooppZdNj_tl4S_gUcpVcz0PMBJsrv4lUwxpFGYvJ-d-0oovxJkX1l3FNVm00]--></g></svg>