<?xml version="1.0" encoding="us-ascii" standalone="no"?><svg xmlns="http://www.w3.org/2000/svg" xmlns:xlink="http://www.w3.org/1999/xlink" contentStyleType="text/css" height="1492px" preserveAspectRatio="none" style="width:1762px;height:1492px;background:#FFFFFF;" version="1.1" viewBox="0 0 1762 1492" width="1762px" zoomAndPan="magnify"><defs/><g><g id="NoAuth"><rect fill="#F1F1F1" height="50" rx="12.5" ry="12.5" style="stroke:#181818;stroke-width:0.5;" width="146" x="87" y="712"/><line style="stroke:#181818;stroke-width:0.5;" x1="87" x2="233" y1="741.0679" y2="741.0679"/><text fill="#000000" font-family="sans-serif" font-size="14" lengthAdjust="spacing" textLength="126" x="97" y="731.9659">NO_AUTENTICADO</text></g><g id="PreMenu"><rect fill="#F1F1F1" height="50" rx="12.5" ry="12.5" style="stroke:#181818;stroke-width:0.5;" width="129" x="436" y="673"/><line style="stroke:#181818;stroke-width:0.5;" x1="436" x2="565" y1="702.0679" y2="702.0679"/><text fill="#000000" font-family="sans-serif" font-size="14" lengthAdjust="spacing" textLength="109" x="446" y="692.9659">AUTENTICANDO</text></g><g id="Menu"><rect fill="#F1F1F1" height="50" rx="12.5" ry="12.5" style="stroke:#181818;stroke-width:0.5;" width="139" x="747" y="741"/><line style="stroke:#181818;stroke-width:0.5;" x1="747" x2="886" y1="770.0679" y2="770.0679"/><text fill="#000000" font-family="sans-serif" font-size="14" lengthAdjust="spacing" textLength="119" x="757" y="760.9659">MENU_PRINCIPAL</text></g><g id="ListProgramas"><rect fill="#F1F1F1" height="50" rx="12.5" ry="12.5" style="stroke:#181818;stroke-width:0.5;" width="181" x="1154" y="86"/><line style="stroke:#181818;stroke-width:0.5;" x1="1154" x2="1335" y1="115.0679" y2="115.0679"/><text fill="#000000" font-family="sans-serif" font-size="14" lengthAdjust="spacing" textLength="161" x="1164" y="105.9659">LISTANDO_PROGRAMAS</text></g><g id="EditPrograma"><rect fill="#F1F1F1" height="50" rx="12.5" ry="12.5" style="stroke:#181818;stroke-width:0.5;" width="176" x="1560" y="73"/><line style="stroke:#181818;stroke-width:0.5;" x1="1560" x2="1736" y1="102.0679" y2="102.0679"/><text fill="#000000" font-family="sans-serif" font-size="14" lengthAdjust="spacing" textLength="156" x="1570" y="92.9659">EDITANDO_PROGRAMA</text></g><g id="ListCursos"><rect fill="#F1F1F1" height="50" rx="12.5" ry="12.5" style="stroke:#181818;stroke-width:0.5;" width="150" x="1169.5" y="273"/><line style="stroke:#181818;stroke-width:0.5;" x1="1169.5" x2="1319.5" y1="302.0679" y2="302.0679"/><text fill="#000000" font-family="sans-serif" font-size="14" lengthAdjust="spacing" textLength="130" x="1179.5" y="292.9659">LISTANDO_CURSOS</text></g><g id="EditCurso"><rect fill="#F1F1F1" height="50" rx="12.5" ry="12.5" style="stroke:#181818;stroke-width:0.5;" width="145" x="1575.5" y="252"/><line style="stroke:#181818;stroke-width:0.5;" x1="1575.5" x2="1720.5" y1="281.0679" y2="281.0679"/><text fill="#000000" font-family="sans-serif" font-size="14" lengthAdjust="spacing" textLength="125" x="1585.5" y="271.9659">EDITANDO_CURSO</text></g><g id="ListProfesores"><rect fill="#F1F1F1" height="50" rx="12.5" ry="12.5" style="stroke:#181818;stroke-width:0.5;" width="182" x="1153.5" y="442"/><line style="stroke:#181818;stroke-width:0.5;" x1="1153.5" x2="1335.5" y1="471.0679" y2="471.0679"/><text fill="#000000" font-family="sans-serif" font-size="14" lengthAdjust="spacing" textLength="162" x="1163.5" y="461.9659">LISTANDO_PROFESORES</text></g><g id="EditProfesor"><rect fill="#F1F1F1" height="50" rx="12.5" ry="12.5" style="stroke:#181818;stroke-width:0.5;" width="169" x="1563.5" y="449"/><line style="stroke:#181818;stroke-width:0.5;" x1="1563.5" x2="1732.5" y1="478.0679" y2="478.0679"/><text fill="#000000" font-family="sans-serif" font-size="14" lengthAdjust="spacing" textLength="149" x="1573.5" y="468.9659">EDITANDO_PROFESOR</text></g><g id="ListEdificios"><rect fill="#F1F1F1" height="50" rx="12.5" ry="12.5" style="stroke:#181818;stroke-width:0.5;" width="163" x="1163" y="607"/><line style="stroke:#181818;stroke-width:0.5;" x1="1163" x2="1326" y1="636.0679" y2="636.0679"/><text fill="#000000" font-family="sans-serif" font-size="14" lengthAdjust="spacing" textLength="143" x="1173" y="626.9659">LISTANDO_EDIFICIOS</text></g><g id="EditEdificio"><rect fill="#F1F1F1" height="50" rx="12.5" ry="12.5" style="stroke:#181818;stroke-width:0.5;" width="158" x="1569" y="622"/><line style="stroke:#181818;stroke-width:0.5;" x1="1569" x2="1727" y1="651.0679" y2="651.0679"/><text fill="#000000" font-family="sans-serif" font-size="14" lengthAdjust="spacing" textLength="138" x="1579" y="641.9659">EDITANDO_EDIFICIO</text></g><g id="ListAulas"><rect fill="#F1F1F1" height="50" rx="12.5" ry="12.5" style="stroke:#181818;stroke-width:0.5;" width="138" x="1175.5" y="770"/><line style="stroke:#181818;stroke-width:0.5;" x1="1175.5" x2="1313.5" y1="799.0679" y2="799.0679"/><text fill="#000000" font-family="sans-serif" font-size="14" lengthAdjust="spacing" textLength="118" x="1185.5" y="789.9659">LISTANDO_AULAS</text></g><g id="EditAula"><rect fill="#F1F1F1" height="50" rx="12.5" ry="12.5" style="stroke:#181818;stroke-width:0.5;" width="133" x="1581.5" y="796"/><line style="stroke:#181818;stroke-width:0.5;" x1="1581.5" x2="1714.5" y1="825.0679" y2="825.0679"/><text fill="#000000" font-family="sans-serif" font-size="14" lengthAdjust="spacing" textLength="113" x="1591.5" y="815.9659">EDITANDO_AULA</text></g><g id="ListRecursos"><rect fill="#F1F1F1" height="50" rx="12.5" ry="12.5" style="stroke:#181818;stroke-width:0.5;" width="167" x="1161" y="933"/><line style="stroke:#181818;stroke-width:0.5;" x1="1161" x2="1328" y1="962.0679" y2="962.0679"/><text fill="#000000" font-family="sans-serif" font-size="14" lengthAdjust="spacing" textLength="147" x="1171" y="952.9659">LISTANDO_RECURSOS</text></g><g id="EditRecurso"><rect fill="#F1F1F1" height="50" rx="12.5" ry="12.5" style="stroke:#181818;stroke-width:0.5;" width="162" x="1567" y="971"/><line style="stroke:#181818;stroke-width:0.5;" x1="1567" x2="1729" y1="1000.0679" y2="1000.0679"/><text fill="#000000" font-family="sans-serif" font-size="14" lengthAdjust="spacing" textLength="142" x="1577" y="990.9659">EDITANDO_RECURSO</text></g><g id="Asignaciones"><rect fill="#F1F1F1" height="50" rx="12.5" ry="12.5" style="stroke:#181818;stroke-width:0.5;" width="243" x="1123" y="1052"/><line style="stroke:#181818;stroke-width:0.5;" x1="1123" x2="1366" y1="1081.0679" y2="1081.0679"/><text fill="#000000" font-family="sans-serif" font-size="14" lengthAdjust="spacing" textLength="223" x="1133" y="1071.9659">CONFIGURANDO_ASIGNACIONES</text></g><g id="Generacion"><rect fill="#F1F1F1" height="50" rx="12.5" ry="12.5" style="stroke:#181818;stroke-width:0.5;" width="177" x="1156" y="1202"/><line style="stroke:#181818;stroke-width:0.5;" x1="1156" x2="1333" y1="1231.0679" y2="1231.0679"/><text fill="#000000" font-family="sans-serif" font-size="14" lengthAdjust="spacing" textLength="157" x="1166" y="1221.9659">GENERANDO_HORARIO</text></g><g id="Consulta"><rect fill="#F1F1F1" height="50" rx="12.5" ry="12.5" style="stroke:#181818;stroke-width:0.5;" width="203" x="1143" y="1356"/><line style="stroke:#181818;stroke-width:0.5;" x1="1143" x2="1346" y1="1385.0679" y2="1385.0679"/><text fill="#000000" font-family="sans-serif" font-size="14" lengthAdjust="spacing" textLength="183" x="1153" y="1375.9659">CONSULTANDO_HORARIOS</text></g><ellipse cx="16" cy="737" fill="#222222" rx="10" ry="10" style="stroke:#222222;stroke-width:1.0;"/><!--link *start* to NoAuth--><g id="link_*start*_NoAuth"><path d="M26.32,737 C38.97,737 56.76,737 80.74,737 " fill="none" id="*start*-to-NoAuth" style="stroke:#181818;stroke-width:1.0;"/><polygon fill="#181818" points="86.74,737,77.74,733,81.74,737,77.74,741,86.74,737" style="stroke:#181818;stroke-width:1.0;"/></g><!--link PreMenu to NoAuth--><g id="link_PreMenu_NoAuth"><path d="M453.73,723.18 C438.95,730.04 422.18,736.53 406,740 C348.81,752.25 288.3476,750.9983 239.0976,746.7283 " fill="none" id="PreMenu-to-NoAuth" style="stroke:#181818;stroke-width:1.0;"/><polygon fill="#181818" points="233.12,746.21,241.7409,750.9724,238.1013,746.6419,242.4319,743.0023,233.12,746.21" style="stroke:#181818;stroke-width:1.0;"/><path d="M268,708 L268,735 L401,735 L401,718 L391,708 L268,708 " fill="#FEFFDD" style="stroke:#181818;stroke-width:0.5;"/><path d="M391,708 L391,718 L401,718 L391,708 " fill="#FEFFDD" style="stroke:#181818;stroke-width:0.5;"/><text fill="#000000" font-family="sans-serif" font-size="13" lengthAdjust="spacing" textLength="112" x="274" y="726.897">iniciarSesion(error)</text></g><!--link NoAuth to PreMenu--><g id="link_NoAuth_PreMenu"><path d="M217.45,711.95 C232.01,706.61 247.85,701.76 263,699 C320.86,688.44 382.0308,689.0201 429.9608,691.9001 " fill="none" id="NoAuth-to-PreMenu" style="stroke:#181818;stroke-width:1.0;"/><polygon fill="#181818" points="435.95,692.26,427.2061,687.7274,430.959,691.9601,426.7263,695.713,435.95,692.26" style="stroke:#181818;stroke-width:1.0;"/><path d="M283,659 L283,686 L386,686 L386,669 L376,659 L283,659 " fill="#FEFFDD" style="stroke:#181818;stroke-width:0.5;"/><path d="M376,659 L376,669 L386,669 L376,659 " fill="#FEFFDD" style="stroke:#181818;stroke-width:0.5;"/><text fill="#000000" font-family="sans-serif" font-size="13" lengthAdjust="spacing" textLength="82" x="289" y="677.897">iniciarSesion()</text></g><!--link PreMenu to Menu--><g id="link_PreMenu_Menu"><path d="M565.04,711.76 C617.82,723.19 686.8758,738.1405 741.0158,749.8605 " fill="none" id="PreMenu-to-Menu" style="stroke:#181818;stroke-width:1.0;"/><polygon fill="#181818" points="746.88,751.13,738.93,745.3164,741.9932,750.0721,737.2374,753.1353,746.88,751.13" style="stroke:#181818;stroke-width:1.0;"/><path d="M600,687 L600,714 L712,714 L712,697 L702,687 L600,687 " fill="#FEFFDD" style="stroke:#181818;stroke-width:0.5;"/><path d="M702,687 L702,697 L712,697 L702,687 " fill="#FEFFDD" style="stroke:#181818;stroke-width:0.5;"/><text fill="#000000" font-family="sans-serif" font-size="13" lengthAdjust="spacing" textLength="91" x="606" y="705.897">mostrarMenu()</text></g><!--link Menu to NoAuth--><g id="link_Menu_NoAuth"><path d="M746.95,770.16 C696.63,773.01 626.59,776.52 565,778 C507.68,779.37 493.23,781.46 436,778 C358.69,773.32 339.5,769.12 263,757 C253.29,755.46 248.9896,754.753 238.9496,752.893 " fill="none" id="Menu-to-NoAuth" style="stroke:#181818;stroke-width:1.0;"/><polygon fill="#181818" points="233.05,751.8,241.1708,757.3725,237.9663,752.7108,242.6281,749.5064,233.05,751.8" style="stroke:#181818;stroke-width:1.0;"/><path d="M449,746 L449,773 L552,773 L552,756 L542,746 L449,746 " fill="#FEFFDD" style="stroke:#181818;stroke-width:0.5;"/><path d="M542,746 L542,756 L552,756 L542,746 " fill="#FEFFDD" style="stroke:#181818;stroke-width:0.5;"/><text fill="#000000" font-family="sans-serif" font-size="13" lengthAdjust="spacing" textLength="82" x="455" y="764.897">cerrarSesion()</text></g><!--link Menu to ListProgramas--><g id="link_Menu_ListProgramas"><path d="M817.66,740.69 C818.9,635.36 829.31,233.28 916,150 C978.04,90.39 1074.1019,86.7022 1147.8119,94.3322 " fill="none" id="Menu-to-ListProgramas" style="stroke:#181818;stroke-width:1.0;"/><polygon fill="#181818" points="1153.78,94.95,1145.2397,90.0446,1148.8066,94.4352,1144.416,98.0021,1153.78,94.95" style="stroke:#181818;stroke-width:1.0;"/><path d="M942.5,61 L942.5,88 L1066.5,88 L1066.5,71 L1056.5,61 L942.5,61 " fill="#FEFFDD" style="stroke:#181818;stroke-width:0.5;"/><path d="M1056.5,61 L1056.5,71 L1066.5,71 L1056.5,61 " fill="#FEFFDD" style="stroke:#181818;stroke-width:0.5;"/><text fill="#000000" font-family="sans-serif" font-size="13" lengthAdjust="spacing" textLength="103" x="948.5" y="79.897">listarProgramas()</text></g><!--link ListProgramas to Menu--><g id="link_ListProgramas_Menu"><path d="M1205.65,136 C1176.05,154.58 1133.3,179.32 1093,195 C1017.65,224.31 971.76,178.44 916,237 C845.46,311.07 823.8261,639.5478 818.9661,734.6878 " fill="none" id="ListProgramas-to-Menu" style="stroke:#181818;stroke-width:1.0;"/><polygon fill="#181818" points="818.66,740.68,823.1139,731.8958,818.9151,735.6865,815.1244,731.4877,818.66,740.68" style="stroke:#181818;stroke-width:1.0;"/><path d="M948.5,163 L948.5,190 L1060.5,190 L1060.5,173 L1050.5,163 L948.5,163 " fill="#FEFFDD" style="stroke:#181818;stroke-width:0.5;"/><path d="M1050.5,163 L1050.5,173 L1060.5,173 L1050.5,163 " fill="#FEFFDD" style="stroke:#181818;stroke-width:0.5;"/><text fill="#000000" font-family="sans-serif" font-size="13" lengthAdjust="spacing" textLength="91" x="954.5" y="181.897">mostrarMenu()</text></g><!--link Menu to ListCursos--><g id="link_Menu_ListCursos"><path d="M818.9,740.73 C824.36,652.53 847.43,360.54 916,304 C953.18,273.33 1078.7296,280.0546 1163.3596,288.4946 " fill="none" id="Menu-to-ListCursos" style="stroke:#181818;stroke-width:1.0;"/><polygon fill="#181818" points="1169.33,289.09,1160.7714,284.2166,1164.3547,288.5938,1159.9775,292.1771,1169.33,289.09" style="stroke:#181818;stroke-width:1.0;"/><path d="M955,250 L955,277 L1054,277 L1054,260 L1044,250 L955,250 " fill="#FEFFDD" style="stroke:#181818;stroke-width:0.5;"/><path d="M1044,250 L1044,260 L1054,260 L1044,250 " fill="#FEFFDD" style="stroke:#181818;stroke-width:0.5;"/><text fill="#000000" font-family="sans-serif" font-size="13" lengthAdjust="spacing" textLength="78" x="961" y="268.897">listarCursos()</text></g><!--link ListCursos to Menu--><g id="link_ListCursos_Menu"><path d="M1176.34,323.12 C1150.54,332.15 1120.65,341.85 1093,349 C1015.6,368.99 974.51,326.53 916,381 C862.34,430.94 830.6285,657.2944 821.1485,734.7944 " fill="none" id="ListCursos-to-Menu" style="stroke:#181818;stroke-width:1.0;"/><polygon fill="#181818" points="820.42,740.75,825.4832,732.3023,821.0271,735.787,817.5424,731.3309,820.42,740.75" style="stroke:#181818;stroke-width:1.0;"/><path d="M948.5,317 L948.5,344 L1060.5,344 L1060.5,327 L1050.5,317 L948.5,317 " fill="#FEFFDD" style="stroke:#181818;stroke-width:0.5;"/><path d="M1050.5,317 L1050.5,327 L1060.5,327 L1050.5,317 " fill="#FEFFDD" style="stroke:#181818;stroke-width:0.5;"/><text fill="#000000" font-family="sans-serif" font-size="13" lengthAdjust="spacing" textLength="91" x="954.5" y="335.897">mostrarMenu()</text></g><!--link Menu to ListProfesores--><g id="link_Menu_ListProfesores"><path d="M816.59,740.95 C815.91,680.25 823.73,525.36 916,458 C990.08,403.91 1094.9996,419.8862 1166.7896,440.3362 " fill="none" id="Menu-to-ListProfesores" style="stroke:#181818;stroke-width:1.0;"/><polygon fill="#181818" points="1172.56,441.98,1165.0002,435.6674,1167.7513,440.6102,1162.8085,443.3613,1172.56,441.98" style="stroke:#181818;stroke-width:1.0;"/><path d="M943.5,391 L943.5,418 L1065.5,418 L1065.5,401 L1055.5,391 L943.5,391 " fill="#FEFFDD" style="stroke:#181818;stroke-width:0.5;"/><path d="M1055.5,391 L1055.5,401 L1065.5,401 L1055.5,391 " fill="#FEFFDD" style="stroke:#181818;stroke-width:0.5;"/><text fill="#000000" font-family="sans-serif" font-size="13" lengthAdjust="spacing" textLength="101" x="949.5" y="409.897">listarProfesores()</text></g><!--link ListProfesores to Menu--><g id="link_ListProfesores_Menu"><path d="M1153.25,488.94 C1133.42,493.67 1112.52,498.57 1093,503 C1014.54,520.8 978.32,490.1 916,541 C852.42,592.92 829.746,688.0616 821.926,735.0016 " fill="none" id="ListProfesores-to-Menu" style="stroke:#181818;stroke-width:1.0;"/><polygon fill="#181818" points="820.94,740.92,826.3646,732.6997,821.7617,735.988,818.4734,731.385,820.94,740.92" style="stroke:#181818;stroke-width:1.0;"/><path d="M948.5,471 L948.5,498 L1060.5,498 L1060.5,481 L1050.5,471 L948.5,471 " fill="#FEFFDD" style="stroke:#181818;stroke-width:0.5;"/><path d="M1050.5,471 L1050.5,481 L1060.5,481 L1050.5,471 " fill="#FEFFDD" style="stroke:#181818;stroke-width:0.5;"/><text fill="#000000" font-family="sans-serif" font-size="13" lengthAdjust="spacing" textLength="91" x="954.5" y="489.897">mostrarMenu()</text></g><!--link Menu to ListEdificios--><g id="link_Menu_ListEdificios"><path d="M825.04,740.89 C837.39,704.78 865.75,639.5 916,612 C995.57,568.43 1097.1149,585.1476 1166.8549,605.2576 " fill="none" id="Menu-to-ListEdificios" style="stroke:#181818;stroke-width:1.0;"/><polygon fill="#181818" points="1172.62,606.92,1165.0806,600.583,1167.8157,605.5347,1162.8641,608.2698,1172.62,606.92" style="stroke:#181818;stroke-width:1.0;"/><path d="M951.5,554 L951.5,581 L1057.5,581 L1057.5,564 L1047.5,554 L951.5,554 " fill="#FEFFDD" style="stroke:#181818;stroke-width:0.5;"/><path d="M1047.5,554 L1047.5,564 L1057.5,564 L1047.5,554 " fill="#FEFFDD" style="stroke:#181818;stroke-width:0.5;"/><text fill="#000000" font-family="sans-serif" font-size="13" lengthAdjust="spacing" textLength="85" x="957.5" y="572.897">listarEdificios()</text></g><!--link ListEdificios to Menu--><g id="link_ListEdificios_Menu"><path d="M1162.84,647.04 C1095.57,660.86 997.84,683.91 916,715 C897.28,722.11 882.7946,729.0188 865.9246,738.0888 " fill="none" id="ListEdificios-to-Menu" style="stroke:#181818;stroke-width:1.0;"/><polygon fill="#181818" points="860.64,740.93,870.4611,740.1912,865.0439,738.5623,866.6728,733.1451,860.64,740.93" style="stroke:#181818;stroke-width:1.0;"/><path d="M948.5,631 L948.5,658 L1060.5,658 L1060.5,641 L1050.5,631 L948.5,631 " fill="#FEFFDD" style="stroke:#181818;stroke-width:0.5;"/><path d="M1050.5,631 L1050.5,641 L1060.5,641 L1050.5,631 " fill="#FEFFDD" style="stroke:#181818;stroke-width:0.5;"/><text fill="#000000" font-family="sans-serif" font-size="13" lengthAdjust="spacing" textLength="91" x="954.5" y="649.897">mostrarMenu()</text></g><!--link Menu to ListAulas--><g id="link_Menu_ListAulas"><path d="M886.17,762.38 C942.01,760.31 1022.77,759.29 1093,766 C1120.15,768.59 1143.8127,772.5429 1169.4727,777.8129 " fill="none" id="Menu-to-ListAulas" style="stroke:#181818;stroke-width:1.0;"/><polygon fill="#181818" points="1175.35,779.02,1167.3387,773.2912,1170.4522,778.0141,1165.7293,781.1276,1175.35,779.02" style="stroke:#181818;stroke-width:1.0;"/><path d="M959.5,728 L959.5,755 L1049.5,755 L1049.5,738 L1039.5,728 L959.5,728 " fill="#FEFFDD" style="stroke:#181818;stroke-width:0.5;"/><path d="M1039.5,728 L1039.5,738 L1049.5,738 L1039.5,728 " fill="#FEFFDD" style="stroke:#181818;stroke-width:0.5;"/><text fill="#000000" font-family="sans-serif" font-size="13" lengthAdjust="spacing" textLength="69" x="965.5" y="746.897">listarAulas()</text></g><!--link ListAulas to Menu--><g id="link_ListAulas_Menu"><path d="M1175.22,808.59 C1108.37,819.51 1004.02,830.15 916,811 C897.45,806.96 883.595,801.7256 867.095,793.6956 " fill="none" id="ListAulas-to-Menu" style="stroke:#181818;stroke-width:1.0;"/><polygon fill="#181818" points="861.7,791.07,868.0422,798.6051,866.1959,793.258,871.5429,791.4117,861.7,791.07" style="stroke:#181818;stroke-width:1.0;"/><path d="M948.5,779 L948.5,806 L1060.5,806 L1060.5,789 L1050.5,779 L948.5,779 " fill="#FEFFDD" style="stroke:#181818;stroke-width:0.5;"/><path d="M1050.5,779 L1050.5,789 L1060.5,789 L1050.5,779 " fill="#FEFFDD" style="stroke:#181818;stroke-width:0.5;"/><text fill="#000000" font-family="sans-serif" font-size="13" lengthAdjust="spacing" textLength="91" x="954.5" y="797.897">mostrarMenu()</text></g><!--link Menu to ListRecursos--><g id="link_Menu_ListRecursos"><path d="M835.86,791 C853.85,813.76 883.27,846.67 916,866 C937.3,878.57 1065.118,912.5897 1154.968,935.6297 " fill="none" id="Menu-to-ListRecursos" style="stroke:#181818;stroke-width:1.0;"/><polygon fill="#181818" points="1160.78,937.12,1153.0556,931.0098,1155.9367,935.878,1151.0685,938.7591,1160.78,937.12" style="stroke:#181818;stroke-width:1.0;"/><path d="M948.5,834 L948.5,861 L1060.5,861 L1060.5,844 L1050.5,834 L948.5,834 " fill="#FEFFDD" style="stroke:#181818;stroke-width:0.5;"/><path d="M1050.5,834 L1050.5,844 L1060.5,844 L1050.5,834 " fill="#FEFFDD" style="stroke:#181818;stroke-width:0.5;"/><text fill="#000000" font-family="sans-serif" font-size="13" lengthAdjust="spacing" textLength="91" x="954.5" y="852.897">listarRecursos()</text></g><!--link ListRecursos to Menu--><g id="link_ListRecursos_Menu"><path d="M1160.95,982.86 C1090.49,998.93 989.24,1009.36 916,964 C853.99,925.58 830.889,841.0147 822.519,796.9247 " fill="none" id="ListRecursos-to-Menu" style="stroke:#181818;stroke-width:1.0;"/><polygon fill="#181818" points="821.4,791.03,819.1488,800.6181,822.3325,795.9423,827.0084,799.126,821.4,791.03" style="stroke:#181818;stroke-width:1.0;"/><path d="M948.5,932 L948.5,959 L1060.5,959 L1060.5,942 L1050.5,932 L948.5,932 " fill="#FEFFDD" style="stroke:#181818;stroke-width:0.5;"/><path d="M1050.5,932 L1050.5,942 L1060.5,942 L1050.5,932 " fill="#FEFFDD" style="stroke:#181818;stroke-width:0.5;"/><text fill="#000000" font-family="sans-serif" font-size="13" lengthAdjust="spacing" textLength="91" x="954.5" y="950.897">mostrarMenu()</text></g><!--link Menu to Asignaciones--><g id="link_Menu_Asignaciones"><path d="M818.17,791.11 C821.13,846.32 836.58,978.31 916,1041 C932.36,1053.91 1030.2649,1063.367 1116.7149,1069.477 " fill="none" id="Menu-to-Asignaciones" style="stroke:#181818;stroke-width:1.0;"/><polygon fill="#181818" points="1122.7,1069.9,1114.0044,1065.2754,1117.7124,1069.5475,1113.4404,1073.2555,1122.7,1069.9" style="stroke:#181818;stroke-width:1.0;"/><path d="M921,1009 L921,1036 L1088,1036 L1088,1019 L1078,1009 L921,1009 " fill="#FEFFDD" style="stroke:#181818;stroke-width:0.5;"/><path d="M1078,1009 L1078,1019 L1088,1019 L1078,1009 " fill="#FEFFDD" style="stroke:#181818;stroke-width:0.5;"/><text fill="#000000" font-family="sans-serif" font-size="13" lengthAdjust="spacing" textLength="146" x="927" y="1027.897">asignarProfesorACurso()</text></g><!--link Asignaciones to Menu--><g id="link_Asignaciones_Menu"><path d="M1192.85,1102.1 C1123.12,1132.68 997,1173.15 916,1112 C863.54,1072.38 831.5654,869.9243 821.5754,797.0943 " fill="none" id="Asignaciones-to-Menu" style="stroke:#181818;stroke-width:1.0;"/><polygon fill="#181818" points="820.76,791.15,818.0202,800.6101,821.4395,796.1036,825.946,799.5229,820.76,791.15" style="stroke:#181818;stroke-width:1.0;"/><path d="M948.5,1080 L948.5,1107 L1060.5,1107 L1060.5,1090 L1050.5,1080 L948.5,1080 " fill="#FEFFDD" style="stroke:#181818;stroke-width:0.5;"/><path d="M1050.5,1080 L1050.5,1090 L1060.5,1090 L1050.5,1080 " fill="#FEFFDD" style="stroke:#181818;stroke-width:0.5;"/><text fill="#000000" font-family="sans-serif" font-size="13" lengthAdjust="spacing" textLength="91" x="954.5" y="1098.897">mostrarMenu()</text></g><!--link Menu to Generacion--><g id="link_Menu_Generacion"><path d="M819.66,791.14 C827.29,873.67 855.8,1134.12 916,1188 C950.35,1218.73 1065.0307,1226.1352 1149.8607,1227.4752 " fill="none" id="Menu-to-Generacion" style="stroke:#181818;stroke-width:1.0;"/><polygon fill="#181818" points="1155.86,1227.57,1146.9243,1223.4284,1150.8606,1227.491,1146.7979,1231.4274,1155.86,1227.57" style="stroke:#181818;stroke-width:1.0;"/><path d="M943.5,1156 L943.5,1183 L1065.5,1183 L1065.5,1166 L1055.5,1156 L943.5,1156 " fill="#FEFFDD" style="stroke:#181818;stroke-width:0.5;"/><path d="M1055.5,1156 L1055.5,1166 L1065.5,1166 L1055.5,1156 " fill="#FEFFDD" style="stroke:#181818;stroke-width:0.5;"/><text fill="#000000" font-family="sans-serif" font-size="13" lengthAdjust="spacing" textLength="101" x="949.5" y="1174.897">generarHorario()</text></g><!--link Generacion to Menu--><g id="link_Generacion_Menu"><path d="M1197.99,1252.05 C1128.83,1286.34 996.79,1336.52 916,1270 C840.81,1208.08 822.4664,890.6949 818.6264,797.2849 " fill="none" id="Generacion-to-Menu" style="stroke:#181818;stroke-width:1.0;"/><polygon fill="#181818" points="818.38,791.29,814.753,800.4467,818.5854,796.2858,822.7463,800.1181,818.38,791.29" style="stroke:#181818;stroke-width:1.0;"/><path d="M948.5,1238 L948.5,1265 L1060.5,1265 L1060.5,1248 L1050.5,1238 L948.5,1238 " fill="#FEFFDD" style="stroke:#181818;stroke-width:0.5;"/><path d="M1050.5,1238 L1050.5,1248 L1060.5,1248 L1050.5,1238 " fill="#FEFFDD" style="stroke:#181818;stroke-width:0.5;"/><text fill="#000000" font-family="sans-serif" font-size="13" lengthAdjust="spacing" textLength="91" x="954.5" y="1256.897">mostrarMenu()</text></g><!--link Menu to Consulta--><g id="link_Menu_Consulta"><path d="M817.9,791.27 C820.04,892.86 833.53,1269.68 916,1347 C932.42,1362.39 1046.6089,1371.384 1136.6589,1376.284 " fill="none" id="Menu-to-Consulta" style="stroke:#181818;stroke-width:1.0;"/><polygon fill="#181818" points="1142.65,1376.61,1133.8806,1372.1269,1137.6574,1376.3383,1133.446,1380.1151,1142.65,1376.61" style="stroke:#181818;stroke-width:1.0;"/><path d="M939,1315 L939,1342 L1070,1342 L1070,1325 L1060,1315 L939,1315 " fill="#FEFFDD" style="stroke:#181818;stroke-width:0.5;"/><path d="M1060,1315 L1060,1325 L1070,1325 L1060,1315 " fill="#FEFFDD" style="stroke:#181818;stroke-width:0.5;"/><text fill="#000000" font-family="sans-serif" font-size="13" lengthAdjust="spacing" textLength="110" x="945" y="1333.897">consultarHorario()</text></g><!--link Consulta to Menu--><g id="link_Consulta_Menu"><path d="M1195.86,1406.05 C1125.72,1439.07 994.51,1485.54 916,1418 C819.13,1334.66 816.2524,906.8198 817.1224,797.1898 " fill="none" id="Consulta-to-Menu" style="stroke:#181818;stroke-width:1.0;"/><polygon fill="#181818" points="817.17,791.19,813.0987,800.158,817.1303,796.1898,821.0985,800.2215,817.17,791.19" style="stroke:#181818;stroke-width:1.0;"/><path d="M948.5,1386 L948.5,1413 L1060.5,1413 L1060.5,1396 L1050.5,1386 L948.5,1386 " fill="#FEFFDD" style="stroke:#181818;stroke-width:0.5;"/><path d="M1050.5,1386 L1050.5,1396 L1060.5,1396 L1050.5,1386 " fill="#FEFFDD" style="stroke:#181818;stroke-width:0.5;"/><text fill="#000000" font-family="sans-serif" font-size="13" lengthAdjust="spacing" textLength="91" x="954.5" y="1404.897">mostrarMenu()</text></g><!--link ListProgramas to EditPrograma--><g id="link_ListProgramas_EditPrograma"><path d="M1304.76,85.91 C1332.02,75.69 1365.1,65.09 1396,60 C1454.76,50.31 1471.18,50.68 1530,60 C1547.3,62.73 1559.8055,65.7912 1576.5855,71.1612 " fill="none" id="ListProgramas-to-EditPrograma" style="stroke:#181818;stroke-width:1.0;"/><polygon fill="#181818" points="1582.3,72.99,1574.9474,66.4372,1577.5379,71.466,1572.5091,74.0565,1582.3,72.99" style="stroke:#181818;stroke-width:1.0;"/><path d="M1403.5,21 L1403.5,48 L1522.5,48 L1522.5,31 L1512.5,21 L1403.5,21 " fill="#FEFFDD" style="stroke:#181818;stroke-width:0.5;"/><path d="M1512.5,21 L1512.5,31 L1522.5,31 L1512.5,21 " fill="#FEFFDD" style="stroke:#181818;stroke-width:0.5;"/><text fill="#000000" font-family="sans-serif" font-size="13" lengthAdjust="spacing" textLength="98" x="1409.5" y="39.897">crearPrograma()</text></g><!--link ListProgramas to EditPrograma--><g id="link_ListProgramas_EditPrograma"><path d="M1335.22,109.99 C1391.24,109.14 1464.84,107.63 1530,105 C1539.66,104.6 1543.7686,104.4419 1553.8186,103.9019 " fill="none" id="ListProgramas-to-EditPrograma-1" style="stroke:#181818;stroke-width:1.0;"/><polygon fill="#181818" points="1559.81,103.58,1550.6083,100.0686,1554.8172,103.8483,1551.0376,108.0571,1559.81,103.58" style="stroke:#181818;stroke-width:1.0;"/><path d="M1401,73 L1401,100 L1525,100 L1525,83 L1515,73 L1401,73 " fill="#FEFFDD" style="stroke:#181818;stroke-width:0.5;"/><path d="M1515,73 L1515,83 L1525,83 L1515,73 " fill="#FEFFDD" style="stroke:#181818;stroke-width:0.5;"/><text fill="#000000" font-family="sans-serif" font-size="13" lengthAdjust="spacing" textLength="103" x="1407" y="91.897">editarPrograma()</text></g><!--link EditPrograma to ListProgramas--><g id="link_EditPrograma_ListProgramas"><path d="M1606.14,123.11 C1584.39,135.02 1556.68,147.94 1530,154 C1457.66,170.42 1379.26,155.0338 1321.35,137.7738 " fill="none" id="EditPrograma-to-ListProgramas" style="stroke:#181818;stroke-width:1.0;"/><polygon fill="#181818" points="1315.6,136.06,1323.0825,142.464,1320.3917,137.4882,1325.3676,134.7973,1315.6,136.06" style="stroke:#181818;stroke-width:1.0;"/><path d="M1401,122 L1401,149 L1525,149 L1525,132 L1515,122 L1401,122 " fill="#FEFFDD" style="stroke:#181818;stroke-width:0.5;"/><path d="M1515,122 L1515,132 L1525,132 L1515,122 " fill="#FEFFDD" style="stroke:#181818;stroke-width:0.5;"/><text fill="#000000" font-family="sans-serif" font-size="13" lengthAdjust="spacing" textLength="103" x="1407" y="140.897">listarProgramas()</text></g><!--link ListProgramas to ListProgramas--><g id="link_ListProgramas_ListProgramas"><path d="M1207.62,85.72 C1196.44,68.22 1208.73,51 1244.5,51 C1280.27,51 1295.7902,63.1637 1284.6102,80.6637 " fill="none" id="ListProgramas-to-ListProgramas" style="stroke:#181818;stroke-width:1.0;"/><polygon fill="#181818" points="1281.38,85.72,1289.5962,80.2891,1284.0719,81.5065,1282.8545,75.9821,1281.38,85.72" style="stroke:#181818;stroke-width:1.0;"/><path d="M1176,19 L1176,46 L1313,46 L1313,29 L1303,19 L1176,19 " fill="#FEFFDD" style="stroke:#181818;stroke-width:0.5;"/><path d="M1303,19 L1303,29 L1313,29 L1303,19 " fill="#FEFFDD" style="stroke:#181818;stroke-width:0.5;"/><text fill="#000000" font-family="sans-serif" font-size="13" lengthAdjust="spacing" textLength="116" x="1182" y="37.897">eliminarPrograma()</text></g><!--link EditPrograma to EditPrograma--><g id="link_EditPrograma_EditPrograma"><path d="M1616.87,72.72 C1607.44,55.22 1617.81,38 1648,38 C1678.19,38 1691.4062,49.938 1681.9762,67.438 " fill="none" id="EditPrograma-to-EditPrograma" style="stroke:#181818;stroke-width:1.0;"/><polygon fill="#181818" points="1679.13,72.72,1686.9206,66.6945,1681.5018,68.3184,1679.878,62.8996,1679.13,72.72" style="stroke:#181818;stroke-width:1.0;"/><path d="M1586,6 L1586,33 L1710,33 L1710,16 L1700,6 L1586,6 " fill="#FEFFDD" style="stroke:#181818;stroke-width:0.5;"/><path d="M1700,6 L1700,16 L1710,16 L1700,6 " fill="#FEFFDD" style="stroke:#181818;stroke-width:0.5;"/><text fill="#000000" font-family="sans-serif" font-size="13" lengthAdjust="spacing" textLength="103" x="1592" y="24.897">editarPrograma()</text></g><!--link ListCursos to EditCurso--><g id="link_ListCursos_EditCurso"><path d="M1319.61,294.12 C1392.57,290.3 1497.2582,284.8233 1569.3582,281.0533 " fill="none" id="ListCursos-to-EditCurso" style="stroke:#181818;stroke-width:1.0;"/><polygon fill="#181818" points="1575.35,280.74,1566.1534,277.2154,1570.3568,281.0011,1566.5711,285.2045,1575.35,280.74" style="stroke:#181818;stroke-width:1.0;"/><path d="M1413.5,234 L1413.5,279 L1512.5,279 L1512.5,244 L1502.5,234 L1413.5,234 " fill="#FEFFDD" style="stroke:#181818;stroke-width:0.5;"/><path d="M1502.5,234 L1502.5,244 L1512.5,244 L1502.5,234 " fill="#FEFFDD" style="stroke:#181818;stroke-width:0.5;"/><text fill="#000000" font-family="sans-serif" font-size="13" lengthAdjust="spacing" textLength="73" x="1419.5" y="252.897">crearCurso()</text><text fill="#000000" font-family="sans-serif" font-size="13" lengthAdjust="spacing" textLength="78" x="1419.5" y="270.603">editarCurso()</text></g><!--link EditCurso to ListCursos--><g id="link_EditCurso_ListCursos"><path d="M1607.86,302.09 C1585.91,314.66 1557.48,328.56 1530,335 C1459.56,351.5 1383.2701,338.896 1325.4201,323.576 " fill="none" id="EditCurso-to-ListCursos" style="stroke:#181818;stroke-width:1.0;"/><polygon fill="#181818" points="1319.62,322.04,1327.2961,328.2107,1324.4534,323.32,1329.3441,320.4773,1319.62,322.04" style="stroke:#181818;stroke-width:1.0;"/><path d="M1413.5,303 L1413.5,330 L1512.5,330 L1512.5,313 L1502.5,303 L1413.5,303 " fill="#FEFFDD" style="stroke:#181818;stroke-width:0.5;"/><path d="M1502.5,303 L1502.5,313 L1512.5,313 L1502.5,303 " fill="#FEFFDD" style="stroke:#181818;stroke-width:0.5;"/><text fill="#000000" font-family="sans-serif" font-size="13" lengthAdjust="spacing" textLength="78" x="1419.5" y="321.897">listarCursos()</text></g><!--link ListCursos to ListCursos--><g id="link_ListCursos_ListCursos"><path d="M1207.62,272.72 C1196.44,255.22 1208.73,238 1244.5,238 C1280.27,238 1295.7902,250.1637 1284.6102,267.6637 " fill="none" id="ListCursos-to-ListCursos" style="stroke:#181818;stroke-width:1.0;"/><polygon fill="#181818" points="1281.38,272.72,1289.5962,267.2891,1284.0719,268.5065,1282.8545,262.9821,1281.38,272.72" style="stroke:#181818;stroke-width:1.0;"/><path d="M1188.5,206 L1188.5,233 L1300.5,233 L1300.5,216 L1290.5,206 L1188.5,206 " fill="#FEFFDD" style="stroke:#181818;stroke-width:0.5;"/><path d="M1290.5,206 L1290.5,216 L1300.5,216 L1290.5,206 " fill="#FEFFDD" style="stroke:#181818;stroke-width:0.5;"/><text fill="#000000" font-family="sans-serif" font-size="13" lengthAdjust="spacing" textLength="91" x="1194.5" y="224.897">eliminarCurso()</text></g><!--link EditCurso to EditCurso--><g id="link_EditCurso_EditCurso"><path d="M1616.87,251.72 C1607.44,234.22 1617.81,217 1648,217 C1678.19,217 1691.4062,228.938 1681.9762,246.438 " fill="none" id="EditCurso-to-EditCurso" style="stroke:#181818;stroke-width:1.0;"/><polygon fill="#181818" points="1679.13,251.72,1686.9206,245.6945,1681.5018,247.3184,1679.878,241.8996,1679.13,251.72" style="stroke:#181818;stroke-width:1.0;"/><path d="M1598.5,185 L1598.5,212 L1697.5,212 L1697.5,195 L1687.5,185 L1598.5,185 " fill="#FEFFDD" style="stroke:#181818;stroke-width:0.5;"/><path d="M1687.5,185 L1687.5,195 L1697.5,195 L1687.5,185 " fill="#FEFFDD" style="stroke:#181818;stroke-width:0.5;"/><text fill="#000000" font-family="sans-serif" font-size="13" lengthAdjust="spacing" textLength="78" x="1604.5" y="203.897">editarCurso()</text></g><!--link ListProfesores to EditProfesor--><g id="link_ListProfesores_EditProfesor"><path d="M1335.6,468.57 C1403.81,469.76 1490.7909,471.2755 1557.3609,472.4355 " fill="none" id="ListProfesores-to-EditProfesor" style="stroke:#181818;stroke-width:1.0;"/><polygon fill="#181818" points="1563.36,472.54,1554.4311,468.3838,1558.3608,472.4529,1554.2917,476.3826,1563.36,472.54" style="stroke:#181818;stroke-width:1.0;"/><path d="M1405.5,420 L1405.5,465 L1520.5,465 L1520.5,430 L1510.5,420 L1405.5,420 " fill="#FEFFDD" style="stroke:#181818;stroke-width:0.5;"/><path d="M1510.5,420 L1510.5,430 L1520.5,430 L1510.5,420 " fill="#FEFFDD" style="stroke:#181818;stroke-width:0.5;"/><text fill="#000000" font-family="sans-serif" font-size="13" lengthAdjust="spacing" textLength="89" x="1411.5" y="438.897">crearProfesor()</text><text fill="#000000" font-family="sans-serif" font-size="13" lengthAdjust="spacing" textLength="94" x="1411.5" y="456.603">editarProfesor()</text></g><!--link EditProfesor to ListProfesores--><g id="link_EditProfesor_ListProfesores"><path d="M1591.29,499.01 C1572.25,506.33 1550.56,513.34 1530,517 C1471.37,527.43 1454.79,526.51 1396,517 C1365.7,512.09 1338.8757,504.0388 1311.8857,494.1788 " fill="none" id="EditProfesor-to-ListProfesores" style="stroke:#181818;stroke-width:1.0;"/><polygon fill="#181818" points="1306.25,492.12,1313.331,498.9654,1310.9464,493.8357,1316.0761,491.4511,1306.25,492.12" style="stroke:#181818;stroke-width:1.0;"/><path d="M1402,485 L1402,512 L1524,512 L1524,495 L1514,485 L1402,485 " fill="#FEFFDD" style="stroke:#181818;stroke-width:0.5;"/><path d="M1514,485 L1514,495 L1524,495 L1514,485 " fill="#FEFFDD" style="stroke:#181818;stroke-width:0.5;"/><text fill="#000000" font-family="sans-serif" font-size="13" lengthAdjust="spacing" textLength="101" x="1408" y="503.897">listarProfesores()</text></g><!--link ListProfesores to ListProfesores--><g id="link_ListProfesores_ListProfesores"><path d="M1207.62,441.72 C1196.44,424.22 1208.73,407 1244.5,407 C1280.27,407 1295.7902,419.1637 1284.6102,436.6637 " fill="none" id="ListProfesores-to-ListProfesores" style="stroke:#181818;stroke-width:1.0;"/><polygon fill="#181818" points="1281.38,441.72,1289.5962,436.2891,1284.0719,437.5065,1282.8545,431.9821,1281.38,441.72" style="stroke:#181818;stroke-width:1.0;"/><path d="M1180.5,375 L1180.5,402 L1308.5,402 L1308.5,385 L1298.5,375 L1180.5,375 " fill="#FEFFDD" style="stroke:#181818;stroke-width:0.5;"/><path d="M1298.5,375 L1298.5,385 L1308.5,385 L1298.5,375 " fill="#FEFFDD" style="stroke:#181818;stroke-width:0.5;"/><text fill="#000000" font-family="sans-serif" font-size="13" lengthAdjust="spacing" textLength="107" x="1186.5" y="393.897">eliminarProfesor()</text></g><!--link EditProfesor to EditProfesor--><g id="link_EditProfesor_EditProfesor"><path d="M1616.87,448.72 C1607.44,431.22 1617.81,414 1648,414 C1678.19,414 1691.4062,425.938 1681.9762,443.438 " fill="none" id="EditProfesor-to-EditProfesor" style="stroke:#181818;stroke-width:1.0;"/><polygon fill="#181818" points="1679.13,448.72,1686.9206,442.6945,1681.5018,444.3184,1679.878,438.8996,1679.13,448.72" style="stroke:#181818;stroke-width:1.0;"/><path d="M1540.5,364 L1540.5,409 L1755.5,409 L1755.5,374 L1745.5,364 L1540.5,364 " fill="#FEFFDD" style="stroke:#181818;stroke-width:0.5;"/><path d="M1745.5,364 L1745.5,374 L1755.5,374 L1745.5,364 " fill="#FEFFDD" style="stroke:#181818;stroke-width:0.5;"/><text fill="#000000" font-family="sans-serif" font-size="13" lengthAdjust="spacing" textLength="94" x="1546.5" y="382.897">editarProfesor()</text><text fill="#000000" font-family="sans-serif" font-size="13" lengthAdjust="spacing" textLength="194" x="1546.5" y="400.603">configurarPreferenciasProfesor()</text></g><!--link ListEdificios to EditEdificio--><g id="link_ListEdificios_EditEdificio"><path d="M1326.27,635.01 C1396.91,637.65 1492.8742,641.2361 1562.7542,643.8461 " fill="none" id="ListEdificios-to-EditEdificio" style="stroke:#181818;stroke-width:1.0;"/><polygon fill="#181818" points="1568.75,644.07,1559.9056,639.7369,1563.7535,643.8834,1559.607,647.7313,1568.75,644.07" style="stroke:#181818;stroke-width:1.0;"/><path d="M1410,588 L1410,633 L1516,633 L1516,598 L1506,588 L1410,588 " fill="#FEFFDD" style="stroke:#181818;stroke-width:0.5;"/><path d="M1506,588 L1506,598 L1516,598 L1506,588 " fill="#FEFFDD" style="stroke:#181818;stroke-width:0.5;"/><text fill="#000000" font-family="sans-serif" font-size="13" lengthAdjust="spacing" textLength="80" x="1416" y="606.897">crearEdificio()</text><text fill="#000000" font-family="sans-serif" font-size="13" lengthAdjust="spacing" textLength="85" x="1416" y="624.603">editarEdificio()</text></g><!--link EditEdificio to ListEdificios--><g id="link_EditEdificio_ListEdificios"><path d="M1587.91,672.04 C1569.67,678.58 1549.31,684.71 1530,688 C1471.29,697.98 1454.61,698.55 1396,688 C1362.53,681.97 1332.3055,671.3085 1304.0455,659.3485 " fill="none" id="EditEdificio-to-ListEdificios" style="stroke:#181818;stroke-width:1.0;"/><polygon fill="#181818" points="1298.52,657.01,1305.2493,664.2014,1303.1246,658.9587,1308.3673,656.834,1298.52,657.01" style="stroke:#181818;stroke-width:1.0;"/><path d="M1410,656 L1410,683 L1516,683 L1516,666 L1506,656 L1410,656 " fill="#FEFFDD" style="stroke:#181818;stroke-width:0.5;"/><path d="M1506,656 L1506,666 L1516,666 L1506,656 " fill="#FEFFDD" style="stroke:#181818;stroke-width:0.5;"/><text fill="#000000" font-family="sans-serif" font-size="13" lengthAdjust="spacing" textLength="85" x="1416" y="674.897">listarEdificios()</text></g><!--link ListEdificios to ListEdificios--><g id="link_ListEdificios_ListEdificios"><path d="M1207.62,606.72 C1196.44,589.22 1208.73,572 1244.5,572 C1280.27,572 1295.7902,584.1637 1284.6102,601.6637 " fill="none" id="ListEdificios-to-ListEdificios" style="stroke:#181818;stroke-width:1.0;"/><polygon fill="#181818" points="1281.38,606.72,1289.5962,601.2891,1284.0719,602.5065,1282.8545,596.9821,1281.38,606.72" style="stroke:#181818;stroke-width:1.0;"/><path d="M1185,540 L1185,567 L1304,567 L1304,550 L1294,540 L1185,540 " fill="#FEFFDD" style="stroke:#181818;stroke-width:0.5;"/><path d="M1294,540 L1294,550 L1304,550 L1294,540 " fill="#FEFFDD" style="stroke:#181818;stroke-width:0.5;"/><text fill="#000000" font-family="sans-serif" font-size="13" lengthAdjust="spacing" textLength="98" x="1191" y="558.897">eliminarEdificio()</text></g><!--link EditEdificio to EditEdificio--><g id="link_EditEdificio_EditEdificio"><path d="M1616.87,621.72 C1607.44,604.22 1617.81,587 1648,587 C1678.19,587 1691.4062,598.938 1681.9762,616.438 " fill="none" id="EditEdificio-to-EditEdificio" style="stroke:#181818;stroke-width:1.0;"/><polygon fill="#181818" points="1679.13,621.72,1686.9206,615.6945,1681.5018,617.3184,1679.878,611.8996,1679.13,621.72" style="stroke:#181818;stroke-width:1.0;"/><path d="M1595,555 L1595,582 L1701,582 L1701,565 L1691,555 L1595,555 " fill="#FEFFDD" style="stroke:#181818;stroke-width:0.5;"/><path d="M1691,555 L1691,565 L1701,565 L1691,555 " fill="#FEFFDD" style="stroke:#181818;stroke-width:0.5;"/><text fill="#000000" font-family="sans-serif" font-size="13" lengthAdjust="spacing" textLength="85" x="1601" y="573.897">editarEdificio()</text></g><!--link ListAulas to EditAula--><g id="link_ListAulas_EditAula"><path d="M1313.61,799.41 C1388.33,804.24 1501.4525,811.5721 1575.2425,816.3521 " fill="none" id="ListAulas-to-EditAula" style="stroke:#181818;stroke-width:1.0;"/><polygon fill="#181818" points="1581.23,816.74,1572.5074,812.1666,1576.2405,816.4168,1571.9903,820.1498,1581.23,816.74" style="stroke:#181818;stroke-width:1.0;"/><path d="M1418,754 L1418,799 L1508,799 L1508,764 L1498,754 L1418,754 " fill="#FEFFDD" style="stroke:#181818;stroke-width:0.5;"/><path d="M1498,754 L1498,764 L1508,764 L1498,754 " fill="#FEFFDD" style="stroke:#181818;stroke-width:0.5;"/><text fill="#000000" font-family="sans-serif" font-size="13" lengthAdjust="spacing" textLength="64" x="1424" y="772.897">crearAula()</text><text fill="#000000" font-family="sans-serif" font-size="13" lengthAdjust="spacing" textLength="69" x="1424" y="790.603">editarAula()</text></g><!--link EditAula to ListAulas--><g id="link_EditAula_ListAulas"><path d="M1581.33,845.63 C1564.81,850.75 1546.95,855.38 1530,858 C1471.14,867.08 1454.39,869.72 1396,858 C1359.48,850.66 1326.1565,836.8831 1297.1365,822.6431 " fill="none" id="EditAula-to-ListAulas" style="stroke:#181818;stroke-width:1.0;"/><polygon fill="#181818" points="1291.75,820,1298.0676,827.5556,1296.2387,822.2026,1301.5918,820.3737,1291.75,820" style="stroke:#181818;stroke-width:1.0;"/><path d="M1418,826 L1418,853 L1508,853 L1508,836 L1498,826 L1418,826 " fill="#FEFFDD" style="stroke:#181818;stroke-width:0.5;"/><path d="M1498,826 L1498,836 L1508,836 L1498,826 " fill="#FEFFDD" style="stroke:#181818;stroke-width:0.5;"/><text fill="#000000" font-family="sans-serif" font-size="13" lengthAdjust="spacing" textLength="69" x="1424" y="844.897">listarAulas()</text></g><!--link ListAulas to ListAulas--><g id="link_ListAulas_ListAulas"><path d="M1207.62,769.72 C1196.44,752.22 1208.73,735 1244.5,735 C1280.27,735 1295.7902,747.1637 1284.6102,764.6637 " fill="none" id="ListAulas-to-ListAulas" style="stroke:#181818;stroke-width:1.0;"/><polygon fill="#181818" points="1281.38,769.72,1289.5962,764.2891,1284.0719,765.5065,1282.8545,759.9821,1281.38,769.72" style="stroke:#181818;stroke-width:1.0;"/><path d="M1193,703 L1193,730 L1296,730 L1296,713 L1286,703 L1193,703 " fill="#FEFFDD" style="stroke:#181818;stroke-width:0.5;"/><path d="M1286,703 L1286,713 L1296,713 L1286,703 " fill="#FEFFDD" style="stroke:#181818;stroke-width:0.5;"/><text fill="#000000" font-family="sans-serif" font-size="13" lengthAdjust="spacing" textLength="82" x="1199" y="721.897">eliminarAula()</text></g><!--link EditAula to EditAula--><g id="link_EditAula_EditAula"><path d="M1616.87,795.72 C1607.44,778.22 1617.81,761 1648,761 C1678.19,761 1691.4062,772.938 1681.9762,790.438 " fill="none" id="EditAula-to-EditAula" style="stroke:#181818;stroke-width:1.0;"/><polygon fill="#181818" points="1679.13,795.72,1686.9206,789.6945,1681.5018,791.3184,1679.878,785.8996,1679.13,795.72" style="stroke:#181818;stroke-width:1.0;"/><path d="M1603,729 L1603,756 L1693,756 L1693,739 L1683,729 L1603,729 " fill="#FEFFDD" style="stroke:#181818;stroke-width:0.5;"/><path d="M1683,729 L1683,739 L1693,739 L1683,729 " fill="#FEFFDD" style="stroke:#181818;stroke-width:0.5;"/><text fill="#000000" font-family="sans-serif" font-size="13" lengthAdjust="spacing" textLength="69" x="1609" y="747.897">editarAula()</text></g><!--link ListRecursos to EditRecurso--><g id="link_ListRecursos_EditRecurso"><path d="M1328.2,965.82 C1398.1,972.44 1491.6466,981.2953 1560.8266,987.8353 " fill="none" id="ListRecursos-to-EditRecurso" style="stroke:#181818;stroke-width:1.0;"/><polygon fill="#181818" points="1566.8,988.4,1558.2164,983.5707,1561.8222,987.9294,1557.4635,991.5352,1566.8,988.4" style="stroke:#181818;stroke-width:1.0;"/><path d="M1407,922 L1407,967 L1519,967 L1519,932 L1509,922 L1407,922 " fill="#FEFFDD" style="stroke:#181818;stroke-width:0.5;"/><path d="M1509,922 L1509,932 L1519,932 L1509,922 " fill="#FEFFDD" style="stroke:#181818;stroke-width:0.5;"/><text fill="#000000" font-family="sans-serif" font-size="13" lengthAdjust="spacing" textLength="86" x="1413" y="940.897">crearRecurso()</text><text fill="#000000" font-family="sans-serif" font-size="13" lengthAdjust="spacing" textLength="91" x="1413" y="958.603">editarRecurso()</text></g><!--link EditRecurso to ListRecursos--><g id="link_EditRecurso_ListRecursos"><path d="M1569.59,1021.04 C1556.51,1024.34 1542.96,1027.2 1530,1029 C1471.01,1037.16 1454.11,1042.02 1396,1029 C1356.53,1020.15 1320.4356,1002.7161 1291.1056,986.0361 " fill="none" id="EditRecurso-to-ListRecursos" style="stroke:#181818;stroke-width:1.0;"/><polygon fill="#181818" points="1285.89,983.07,1291.736,990.9962,1290.2363,985.5418,1295.6908,984.0421,1285.89,983.07" style="stroke:#181818;stroke-width:1.0;"/><path d="M1407,997 L1407,1024 L1519,1024 L1519,1007 L1509,997 L1407,997 " fill="#FEFFDD" style="stroke:#181818;stroke-width:0.5;"/><path d="M1509,997 L1509,1007 L1519,1007 L1509,997 " fill="#FEFFDD" style="stroke:#181818;stroke-width:0.5;"/><text fill="#000000" font-family="sans-serif" font-size="13" lengthAdjust="spacing" textLength="91" x="1413" y="1015.897">listarRecursos()</text></g><!--link ListRecursos to ListRecursos--><g id="link_ListRecursos_ListRecursos"><path d="M1207.62,932.72 C1196.44,915.22 1208.73,898 1244.5,898 C1280.27,898 1295.7902,910.1637 1284.6102,927.6637 " fill="none" id="ListRecursos-to-ListRecursos" style="stroke:#181818;stroke-width:1.0;"/><polygon fill="#181818" points="1281.38,932.72,1289.5962,927.2891,1284.0719,928.5065,1282.8545,922.9821,1281.38,932.72" style="stroke:#181818;stroke-width:1.0;"/><path d="M1182,866 L1182,893 L1307,893 L1307,876 L1297,866 L1182,866 " fill="#FEFFDD" style="stroke:#181818;stroke-width:0.5;"/><path d="M1297,866 L1297,876 L1307,876 L1297,866 " fill="#FEFFDD" style="stroke:#181818;stroke-width:0.5;"/><text fill="#000000" font-family="sans-serif" font-size="13" lengthAdjust="spacing" textLength="104" x="1188" y="884.897">eliminarRecurso()</text></g><!--link EditRecurso to EditRecurso--><g id="link_EditRecurso_EditRecurso"><path d="M1616.87,970.72 C1607.44,953.22 1617.81,936 1648,936 C1678.19,936 1691.4062,947.938 1681.9762,965.438 " fill="none" id="EditRecurso-to-EditRecurso" style="stroke:#181818;stroke-width:1.0;"/><polygon fill="#181818" points="1679.13,970.72,1686.9206,964.6945,1681.5018,966.3184,1679.878,960.8996,1679.13,970.72" style="stroke:#181818;stroke-width:1.0;"/><path d="M1592,904 L1592,931 L1704,931 L1704,914 L1694,904 L1592,904 " fill="#FEFFDD" style="stroke:#181818;stroke-width:0.5;"/><path d="M1694,904 L1694,914 L1704,914 L1694,904 " fill="#FEFFDD" style="stroke:#181818;stroke-width:0.5;"/><text fill="#000000" font-family="sans-serif" font-size="13" lengthAdjust="spacing" textLength="91" x="1598" y="922.897">editarRecurso()</text></g><!--SRC=[hPVHZgCW58RlVGepLxkRp2jiGXpRCMcrqNgrsKnCXtR8MaXGttyH1K44wLWlUY6_7p-7S-2qXjSsR4b8qUsh3JyHXPSM4Hm4JLkrC7n9imzGdkFqd4JWBNi9goPC2UZQBo6Ge-auVABm274dneznMdwSyYIDaXCuS0KV5kE7f3Zttp9Dji_14HHSSq1DUwBaHgjxrGXj_9ReMYwDFv6K6jIep8jiGaOTROZ9uoe9uw8bVxkuoF9OCtY53Q5mqI5Ngmwvrk2oJtP9b2WccVoABcZ1fz1Agf0QL50Ub4Y2hbw8Og-Hf5vYKF9u5hySNfOZE2ebRXJAROwoT9ViotoOk4ZsAM3hICTWWWRTSCNMWQTGxkCq7kJlMGxoST5xY27bIeLSb8UpgXoW4S5DLxTL4FpvzJTyVVqjCZSOKrHz5x874yOZEAmH_iTVz0_2BBuLBM33vlm1AINq9n-4-9D_4GG3WjD4ydlYvYJLc9jp9qrBAzgB38htsYviELOlagANeXLMCrb5fT3D6-jm1JQeLfs96botDYhTnAdyLe1IwEODnRV2uY8tHzRU2ahex3IjtAoqYgjas03V3JjKgKmhyiOrz9sm7-HWoTArf-weiBAqhELGxPwmWocSilXfLCXK3s4zYmxMw8wmWwpQUvvVW_gaCs8w6gJNuJ9sRvUQcPFxvNoTJU5p68aWBmEbIL_BBdSwRFD9gH-GwluFlSXg5N2P4TdPW7C-tpDQoUHbjchyWPKiEXvFa2kwTRGVX5T88MONS-C__TCk7-tEaIkJdPrxZuJCsAFPW6iwpqjFx92LhDf-O1qhVWtga-veUJLBgxm5TeUxbnYXLbxQy1vzW0Zl8atOy_JgyAMHDhOdQbSYdOdEtnt8KMN4Kd_lcCgl8n91jM4Lm_uBS3kT8v_IkfaDmlV_7inkm6sWsMc_3QOVIzjOK-rjusX9ztsKsd9lH4sDzaQGwBAtOVu3]--></g></svg>