<?xml version="1.0" encoding="us-ascii" standalone="no"?><svg xmlns="http://www.w3.org/2000/svg" xmlns:xlink="http://www.w3.org/1999/xlink" contentStyleType="text/css" height="713px" preserveAspectRatio="none" style="width:654px;height:713px;background:#FFFFFF;" version="1.1" viewBox="0 0 654 713" width="654px" zoomAndPan="magnify"><defs/><g><path d="M19.5,7 L385.5,7 A12.5,12.5 0 0 1 398,19.5 L398,36.0679 L7,36.0679 L7,19.5 A12.5,12.5 0 0 1 19.5,7 " fill="#F1F1F1" style="stroke:#F1F1F1;stroke-width:1.0;"/><rect fill="none" height="553.0679" rx="12.5" ry="12.5" style="stroke:#181818;stroke-width:0.5;" width="391" x="7" y="7"/><line style="stroke:#181818;stroke-width:0.5;" x1="7" x2="398" y1="36.0679" y2="36.0679"/><text fill="#000000" font-family="sans-serif" font-size="14" lengthAdjust="spacing" textLength="120" x="142.5" y="26.9659">eliminarProfesor()</text><g id="eliminarProfesor.ConfirmandoEliminacion"><rect fill="#F1F1F1" height="50" rx="12.5" ry="12.5" style="stroke:#181818;stroke-width:0.5;" width="50" x="19" y="140.0679"/><line style="stroke:#181818;stroke-width:0.5;" x1="19" x2="69" y1="169.1358" y2="169.1358"/><text fill="#000000" font-family="sans-serif" font-size="14" lengthAdjust="spacing" textLength="4" x="42" y="160.0339">&#160;</text></g><g id="eliminarProfesor.EliminandoProfesor"><rect fill="#F1F1F1" height="50" rx="12.5" ry="12.5" style="stroke:#181818;stroke-width:0.5;" width="50" x="19" y="369.0679"/><line style="stroke:#181818;stroke-width:0.5;" x1="19" x2="69" y1="398.1358" y2="398.1358"/><text fill="#000000" font-family="sans-serif" font-size="14" lengthAdjust="spacing" textLength="4" x="42" y="389.0339">&#160;</text></g><ellipse cx="44" cy="57.0679" fill="#222222" rx="10" ry="10" style="stroke:#222222;stroke-width:1.0;"/><ellipse cx="44" cy="539.0679" fill="none" rx="11" ry="11" style="stroke:#222222;stroke-width:1.0;"/><ellipse cx="44" cy="539.0679" fill="#222222" rx="6" ry="6" style="stroke:#222222;stroke-width:1.0;"/><!--link *start*eliminarProfesor to ConfirmandoEliminacion--><g id="link_*start*eliminarProfesor_ConfirmandoEliminacion"><path d="M44,67.1079 C44,83.0279 44,110.5779 44,133.7079 " fill="none" id="*start*eliminarProfesor-to-ConfirmandoEliminacion" style="stroke:#008000;stroke-width:1.0;"/><polygon fill="#008000" points="44,139.7079,48,130.7079,44,134.7079,40,130.7079,44,139.7079" style="stroke:#008000;stroke-width:1.0;"/><path d="M49,90.0679 L49,117.0679 L314,117.0679 L314,100.0679 L304,90.0679 L49,90.0679 " fill="#FEFFDD" style="stroke:#181818;stroke-width:0.5;"/><path d="M304,90.0679 L304,100.0679 L314,100.0679 L304,90.0679 " fill="#FEFFDD" style="stroke:#181818;stroke-width:0.5;"/><text fill="#000000" font-family="sans-serif" font-size="13" font-weight="bold" lengthAdjust="spacing" textLength="95" x="55" y="108.9649">Administrador</text><text fill="#000000" font-family="sans-serif" font-size="13" lengthAdjust="spacing" textLength="146" x="153" y="108.9649">solicita eliminar profesor</text></g><!--link ConfirmandoEliminacion to EliminandoProfesor--><g id="link_ConfirmandoEliminacion_EliminandoProfesor"><path d="M44,190.3579 C44,234.0479 44,319.3879 44,362.9479 " fill="none" id="ConfirmandoEliminacion-to-EliminandoProfesor" style="stroke:#008000;stroke-width:1.0;"/><polygon fill="#008000" points="44,368.9479,48,359.9479,44,363.9479,40,359.9479,44,368.9479" style="stroke:#008000;stroke-width:1.0;"/><path d="M49,213.0679 L49,346.0679 L389,346.0679 L389,223.0679 L379,213.0679 L49,213.0679 " fill="#FEFFDD" style="stroke:#181818;stroke-width:0.5;"/><path d="M379,213.0679 L379,223.0679 L389,223.0679 L379,213.0679 " fill="#FEFFDD" style="stroke:#181818;stroke-width:0.5;"/><text fill="#000000" font-family="sans-serif" font-size="13" font-weight="bold" lengthAdjust="spacing" textLength="52" x="55" y="231.9649">Sistema</text><text fill="#000000" font-family="sans-serif" font-size="13" lengthAdjust="spacing" textLength="264" x="110" y="231.9649">presenta informaci&#243;n del profesor a eliminar</text><text fill="#000000" font-family="sans-serif" font-size="13" lengthAdjust="spacing" textLength="245" x="55" y="249.6709">&#8226; C&#243;digo, nombres, apellidos del profesor</text><text fill="#000000" font-family="sans-serif" font-size="13" lengthAdjust="spacing" textLength="174" x="55" y="267.377">&#8226; Correo electr&#243;nico, tel&#233;fono</text><text fill="#000000" font-family="sans-serif" font-size="13" lengthAdjust="spacing" textLength="205" x="55" y="285.083">&#8226; Observaciones, cursos asignados</text><text fill="#000000" font-family="sans-serif" font-size="13" lengthAdjust="spacing" textLength="223" x="55" y="302.789">&#8226; Presenta advertencia de eliminaci&#243;n</text><text fill="#000000" font-family="sans-serif" font-size="13" lengthAdjust="spacing" textLength="236" x="55" y="320.495">&#8226; Permite solicitar confirmar eliminaci&#243;n</text><text fill="#000000" font-family="sans-serif" font-size="13" lengthAdjust="spacing" textLength="227" x="55" y="338.201">&#8226; Permite solicitar cancelar eliminaci&#243;n</text></g><!--link EliminandoProfesor to *end*eliminarProfesor--><g id="link_EliminandoProfesor_*end*eliminarProfesor"><path d="M44,419.3279 C44,451.0379 44,499.1979 44,521.7479 " fill="none" id="EliminandoProfesor-to-*end*eliminarProfesor" style="stroke:#008000;stroke-width:1.0;"/><polygon fill="#008000" points="44,527.7479,48,518.7479,44,522.7479,40,518.7479,44,527.7479" style="stroke:#008000;stroke-width:1.0;"/><path d="M49,442.0679 L49,505.0679 L379,505.0679 L379,452.0679 L369,442.0679 L49,442.0679 " fill="#FEFFDD" style="stroke:#181818;stroke-width:0.5;"/><path d="M369,442.0679 L369,452.0679 L379,452.0679 L369,442.0679 " fill="#FEFFDD" style="stroke:#181818;stroke-width:0.5;"/><text fill="#000000" font-family="sans-serif" font-size="13" font-weight="bold" lengthAdjust="spacing" textLength="95" x="55" y="460.9649">Administrador</text><text fill="#000000" font-family="sans-serif" font-size="13" lengthAdjust="spacing" textLength="211" x="153" y="460.9649">solicita confirmaci&#243;n de eliminaci&#243;n</text><text fill="#000000" font-family="sans-serif" font-size="13" font-weight="bold" lengthAdjust="spacing" textLength="52" x="55" y="478.6709">Sistema</text><text fill="#000000" font-family="sans-serif" font-size="13" lengthAdjust="spacing" textLength="228" x="110" y="478.6709">permite solicitar confirmar eliminaci&#243;n</text><text fill="#000000" font-family="sans-serif" font-size="13" font-weight="bold" lengthAdjust="spacing" textLength="95" x="55" y="496.377">Administrador</text><text fill="#000000" font-family="sans-serif" font-size="13" lengthAdjust="spacing" textLength="173" x="153" y="496.377">solicita confirmar eliminaci&#243;n</text></g><g id="PROFESORES_ABIERTO"><rect fill="#F1F1F1" height="50" rx="12.5" ry="12.5" style="stroke:#181818;stroke-width:0.5;" width="172" x="116.5" y="657"/><line style="stroke:#181818;stroke-width:0.5;" x1="116.5" x2="288.5" y1="686.0679" y2="686.0679"/><text fill="#000000" font-family="sans-serif" font-size="14" lengthAdjust="spacing" textLength="152" x="126.5" y="676.9659">PROFESORES_ABIERTO</text></g><!--link eliminarProfesor to PROFESORES_ABIERTO--><g id="link_eliminarProfesor_PROFESORES_ABIERTO"><path d="M49.11,560.15 C38.86,578.58 32.5,590 32.5,590 C32.5,590 32.5,627 32.5,627 C32.5,627 75.4713,640.6543 120.7313,655.0243 " fill="none" id="eliminarProfesor-to-PROFESORES_ABIERTO" style="stroke:#008000;stroke-width:1.0;"/><polygon fill="#008000" points="126.45,656.84,119.0824,650.304,121.6844,655.3269,116.6615,657.9289,126.45,656.84" style="stroke:#008000;stroke-width:1.0;"/><path d="M37.5,595 L37.5,622 L322.5,622 L322.5,605 L312.5,595 L37.5,595 " fill="#FEFFDD" style="stroke:#181818;stroke-width:0.5;"/><path d="M312.5,595 L312.5,605 L322.5,605 L312.5,595 " fill="#FEFFDD" style="stroke:#181818;stroke-width:0.5;"/><text fill="#000000" font-family="sans-serif" font-size="13" lengthAdjust="spacing" textLength="264" x="43.5" y="613.897">&#171;include&#187; abrirProfesores() - lista actualizada</text></g><!--link eliminarProfesor to PROFESORES_ABIERTO--><g id="link_eliminarProfesor_PROFESORES_ABIERTO"><path d="M318.9,560.15 C326.68,578.58 331.5,590 331.5,590 C331.5,590 331.5,627 331.5,627 C331.5,627 300.0952,640.1544 265.7452,654.5244 " fill="none" id="eliminarProfesor-to-PROFESORES_ABIERTO-1" style="stroke:#0000FF;stroke-width:1.0;"/><polygon fill="#0000FF" points="260.21,656.84,270.0565,657.0567,264.8226,654.9103,266.969,649.6765,260.21,656.84" style="stroke:#0000FF;stroke-width:1.0;"/><path d="M336.5,595 L336.5,622 L647.5,622 L647.5,605 L637.5,595 L336.5,595 " fill="#FEFFDD" style="stroke:#181818;stroke-width:0.5;"/><path d="M637.5,595 L637.5,605 L647.5,605 L637.5,595 " fill="#FEFFDD" style="stroke:#181818;stroke-width:0.5;"/><text fill="#000000" font-family="sans-serif" font-size="13" lengthAdjust="spacing" textLength="290" x="342.5" y="613.897">&#171;include&#187; abrirProfesores() - cancelar eliminaci&#243;n</text></g><!--SRC=[hLF1QXin4BthAmRtafIO_e1PI8C3ETdOkOLGPgMn6QALbf4SI4gXtz9Rp_a4_qc_fEDrTct7TaX2jB0WxPlttipJfZiEDGfMu3bGVgW9wkWVLXjZKiPCG9uh3YXZYJDAKG0Jz5uUdfpsuASne6jTrTD7WHSnp5Wg32uEroMMOzZ7FNzKMCku9hlvUWlzcozp8Ggt_U887pJO49LFDsh-hZaObCMvKmodBEYY3BwL1QJesNB6hY-eMyLL3GMt9j9bkjSHsMrd1peuPcggXgZ2naujb2Ye7Gwpg0gMbqy17FdE5coiDWJ_Vl-1Y-MJutayK_ggL8Opm9gyPnVJJksc88fGL2AoMLI1hHPdyik_inXY1nkLYUI-QMv5QXUIb14JpuCEC7MuSUiQtJr9fc0PLRWrsZIn0PDKh5De9ozWdySfRox0OCaVmhTvRRBQ3s8d9xrH7xajhUKsdtqdBuDzJzTlqtwj_L_6xFsesssF9wFBuNGq6Kv_d7-_6awkHsPd0eC11-iNZee2i1JkM2YTd49VGMaLjyqBzFo83aqdVL2uz0lw3Dt3oNVQ_m40]--></g></svg>