<?xml version="1.0" encoding="us-ascii" standalone="no"?><svg xmlns="http://www.w3.org/2000/svg" xmlns:xlink="http://www.w3.org/1999/xlink" contentStyleType="text/css" height="442px" preserveAspectRatio="none" style="width:1623px;height:442px;background:#FFFFFF;" version="1.1" viewBox="0 0 1623 442" width="1623px" zoomAndPan="magnify"><defs/><g><!--cluster abrirEdificios--><g id="cluster_abrirEdificios"><path d="M179,6.602 L280,6.602 A3.75,3.75 0 0 1 282.5,9.102 L289.5,31.6699 L705,31.6699 A2.5,2.5 0 0 1 707.5,34.1699 L707.5,433.102 A2.5,2.5 0 0 1 705,435.602 L179,435.602 A2.5,2.5 0 0 1 176.5,433.102 L176.5,9.102 A2.5,2.5 0 0 1 179,6.602 " fill="none" style="stroke:#000000;stroke-width:1.5;"/><line style="stroke:#000000;stroke-width:1.5;" x1="176.5" x2="289.5" y1="31.6699" y2="31.6699"/><text fill="#000000" font-family="sans-serif" font-size="14" font-weight="bold" lengthAdjust="spacing" textLength="100" x="180.5" y="23.5679">abrirEdificios()</text></g><!--entity ListarEdificiosView--><g id="elem_ListarEdificiosView"><rect fill="#629EF9" height="39.0679" rx="2.5" ry="2.5" style="stroke:#181818;stroke-width:0.5;" width="144" x="547.5" y="44.602"/><text fill="#000000" font-family="sans-serif" font-size="14" lengthAdjust="spacing" textLength="124" x="557.5" y="69.5679">ListarEdificiosView</text></g><!--entity EdificiosController--><g id="elem_EdificiosController"><rect fill="#B5BD68" height="39.0679" rx="2.5" ry="2.5" style="stroke:#181818;stroke-width:0.5;" width="143" x="285" y="162.602"/><text fill="#000000" font-family="sans-serif" font-size="14" lengthAdjust="spacing" textLength="123" x="295" y="187.5679">EdificiosController</text></g><!--entity EdificioRepository--><g id="elem_EdificioRepository"><rect fill="#F2AC4E" height="39.0679" rx="2.5" ry="2.5" style="stroke:#181818;stroke-width:0.5;" width="140" x="285.5" y="280.602"/><text fill="#000000" font-family="sans-serif" font-size="14" lengthAdjust="spacing" textLength="120" x="295.5" y="305.5679">EdificioRepository</text></g><!--entity Edificio--><g id="elem_Edificio"><rect fill="#F2AC4E" height="39.0679" rx="2.5" ry="2.5" style="stroke:#181818;stroke-width:0.5;" width="69" x="321" y="380.602"/><text fill="#000000" font-family="sans-serif" font-size="14" lengthAdjust="spacing" textLength="49" x="331" y="405.5679">Edificio</text></g><!--entity SistemaDisponible--><g id="elem_SistemaDisponible"><rect fill="#CDEBA5" height="39.0679" rx="2.5" ry="2.5" style="stroke:#181818;stroke-width:0.5;" width="153" x="7" y="44.602"/><text fill="#000000" font-family="sans-serif" font-size="14" lengthAdjust="spacing" textLength="133" x="17" y="69.5679">:Sistema Disponible</text></g><!--entity SistemaDisponibleSalida--><g id="elem_SistemaDisponibleSalida"><rect fill="#CDEBA5" height="39.0679" rx="2.5" ry="2.5" style="stroke:#181818;stroke-width:0.5;" width="153" x="724" y="162.602"/><text fill="#000000" font-family="sans-serif" font-size="14" lengthAdjust="spacing" textLength="133" x="734" y="187.5679">:Sistema Disponible</text></g><!--entity CrearEdificio--><g id="elem_CrearEdificio"><rect fill="#CDEBA5" height="39.0679" rx="2.5" ry="2.5" style="stroke:#181818;stroke-width:0.5;" width="204" x="912.5" y="162.602"/><text fill="#000000" font-family="sans-serif" font-size="14" lengthAdjust="spacing" textLength="184" x="922.5" y="187.5679">:Collaboration CrearEdificio</text></g><!--entity EditarEdificio--><g id="elem_EditarEdificio"><rect fill="#CDEBA5" height="39.0679" rx="2.5" ry="2.5" style="stroke:#181818;stroke-width:0.5;" width="207" x="1152" y="162.602"/><text fill="#000000" font-family="sans-serif" font-size="14" lengthAdjust="spacing" textLength="187" x="1162" y="187.5679">:Collaboration EditarEdificio</text></g><!--entity EliminarEdificio--><g id="elem_EliminarEdificio"><rect fill="#CDEBA5" height="39.0679" rx="2.5" ry="2.5" style="stroke:#181818;stroke-width:0.5;" width="223" x="1394" y="162.602"/><text fill="#000000" font-family="sans-serif" font-size="14" lengthAdjust="spacing" textLength="203" x="1404" y="187.5679">:Collaboration EliminarEdificio</text></g><!--link SistemaDisponible to ListarEdificiosView--><g id="link_SistemaDisponible_ListarEdificiosView"><path d="M160.01,64.102 C263.42,64.102 440.44,64.102 541.48,64.102 " fill="none" id="SistemaDisponible-to-ListarEdificiosView" style="stroke:#181818;stroke-width:1.0;"/><polygon fill="#181818" points="547.48,64.102,538.48,60.102,542.48,64.102,538.48,68.102,547.48,64.102" style="stroke:#181818;stroke-width:1.0;"/><text fill="#000000" font-family="sans-serif" font-size="13" lengthAdjust="spacing" textLength="84" x="311.75" y="56.999">abrirEdificios()</text></g><!--link ListarEdificiosView to EdificiosController--><g id="link_ListarEdificiosView_EdificiosController"><path d="M547.11,74.802 C441.47,88.952 257.5,113.602 257.5,113.602 C257.5,113.602 257.5,132.602 257.5,132.602 C257.5,132.602 285.202,146.172 313.122,159.852 " fill="none" id="ListarEdificiosView-to-EdificiosController" style="stroke:#181818;stroke-width:1.0;"/><polygon fill="#181818" points="318.51,162.492,312.188,154.94,314.02,160.292,308.668,162.124,318.51,162.492" style="stroke:#181818;stroke-width:1.0;"/><text fill="#000000" font-family="sans-serif" font-size="13" lengthAdjust="spacing" textLength="171" x="258.5" y="128.499">listarEdificios() : List&lt;Edificio&gt;</text></g><!--link ListarEdificiosView to EdificiosController--><g id="link_ListarEdificiosView_EdificiosController"><path d="M563.47,83.712 C522.3,97.392 473.5,113.602 473.5,113.602 C473.5,113.602 428.607,139.5035 393.977,159.4835 " fill="none" id="ListarEdificiosView-to-EdificiosController-1" style="stroke:#181818;stroke-width:1.0;"/><polygon fill="#181818" points="388.78,162.482,398.5745,161.449,393.1109,159.9833,394.5766,154.5196,388.78,162.482" style="stroke:#181818;stroke-width:1.0;"/><text fill="#000000" font-family="sans-serif" font-size="13" lengthAdjust="spacing" textLength="216" x="474.5" y="128.499">filtrarEdificios(criterio) : List&lt;Edificio&gt;</text></g><!--link EdificiosController to EdificioRepository--><g id="link_EdificiosController_EdificioRepository"><path d="M305.84,201.712 C268.62,215.392 224.5,231.602 224.5,231.602 C224.5,231.602 224.5,250.602 224.5,250.602 C224.5,250.602 262.6533,264.7288 299.6033,278.4088 " fill="none" id="EdificiosController-to-EdificioRepository" style="stroke:#181818;stroke-width:1.0;"/><polygon fill="#181818" points="305.23,280.492,298.1787,273.616,300.541,278.756,295.4011,281.1184,305.23,280.492" style="stroke:#181818;stroke-width:1.0;"/><text fill="#000000" font-family="sans-serif" font-size="13" lengthAdjust="spacing" textLength="179" x="225.5" y="246.499">obtenerTodos() : List&lt;Edificio&gt;</text></g><!--link EdificiosController to EdificioRepository--><g id="link_EdificiosController_EdificioRepository"><path d="M376.84,201.712 C391.79,215.392 409.5,231.602 409.5,231.602 C409.5,231.602 409.5,250.602 409.5,250.602 C409.5,250.602 395.9137,262.8026 380.6837,276.4826 " fill="none" id="EdificiosController-to-EdificioRepository-1" style="stroke:#181818;stroke-width:1.0;"/><polygon fill="#181818" points="376.22,280.492,385.5885,277.4537,379.9397,277.1508,380.2426,271.5021,376.22,280.492" style="stroke:#181818;stroke-width:1.0;"/><text fill="#000000" font-family="sans-serif" font-size="13" lengthAdjust="spacing" textLength="241" x="410.5" y="246.499">buscarPorCriterio(criterio) : List&lt;Edificio&gt;</text></g><!--link EdificioRepository to Edificio--><g id="link_EdificioRepository_Edificio"><path d="M355.5,320.002 C355.5,337.462 355.5,363.262 355.5,380.592 " fill="none" id="EdificioRepository-Edificio" style="stroke:#181818;stroke-width:1.0;"/></g><!--link ListarEdificiosView to SistemaDisponibleSalida--><g id="link_ListarEdificiosView_SistemaDisponibleSalida"><path d="M650.2,83.712 C672.76,97.392 699.5,113.602 699.5,113.602 C699.5,113.602 737.7518,139.1676 767.6418,159.1476 " fill="none" id="ListarEdificiosView-to-SistemaDisponibleSalida" style="stroke:#181818;stroke-width:1.0;stroke-dasharray:7.0,7.0;"/><polygon fill="#181818" points="772.63,162.482,767.3706,154.155,768.4732,159.7033,762.9248,160.8059,772.63,162.482" style="stroke:#181818;stroke-width:1.0;"/><text fill="#000000" font-family="sans-serif" font-size="13" lengthAdjust="spacing" textLength="115" x="727.5" y="128.499">completarGestion()</text></g><!--link ListarEdificiosView to CrearEdificio--><g id="link_ListarEdificiosView_CrearEdificio"><path d="M691.63,80.182 C759.74,94.422 851.5,113.602 851.5,113.602 C851.5,113.602 915.7365,140.2065 963.9865,160.1865 " fill="none" id="ListarEdificiosView-to-CrearEdificio" style="stroke:#181818;stroke-width:1.0;stroke-dasharray:7.0,7.0;"/><polygon fill="#181818" points="969.53,162.482,962.7451,155.343,964.9104,160.569,959.6844,162.7344,969.53,162.482" style="stroke:#181818;stroke-width:1.0;"/><text fill="#000000" font-family="sans-serif" font-size="13" lengthAdjust="spacing" textLength="80" x="895.5" y="128.499">crearEdificio()</text></g><!--link ListarEdificiosView to EditarEdificio--><g id="link_ListarEdificiosView_EditarEdificio"><path d="M691.61,74.682 C797.98,88.822 984.5,113.602 984.5,113.602 C984.5,113.602 1095.038,141.1314 1175.268,161.1214 " fill="none" id="ListarEdificiosView-to-EditarEdificio" style="stroke:#181818;stroke-width:1.0;stroke-dasharray:7.0,7.0;"/><polygon fill="#181818" points="1181.09,162.572,1173.3241,156.5147,1176.2383,161.3631,1171.3899,164.2774,1181.09,162.572" style="stroke:#181818;stroke-width:1.0;"/><text fill="#000000" font-family="sans-serif" font-size="13" lengthAdjust="spacing" textLength="85" x="1057.5" y="128.499">editarEdificio()</text></g><!--link ListarEdificiosView to EliminarEdificio--><g id="link_ListarEdificiosView_EliminarEdificio"><path d="M691.52,71.672 C836.86,84.922 1151.5,113.602 1151.5,113.602 C1151.5,113.602 1297.6063,141.4578 1402.4063,161.4478 " fill="none" id="ListarEdificiosView-to-EliminarEdificio" style="stroke:#181818;stroke-width:1.0;stroke-dasharray:7.0,7.0;"/><polygon fill="#181818" points="1408.3,162.572,1400.2089,156.9565,1403.3885,161.6352,1398.7099,164.8148,1408.3,162.572" style="stroke:#181818;stroke-width:1.0;"/><text fill="#000000" font-family="sans-serif" font-size="13" lengthAdjust="spacing" textLength="98" x="1246.5" y="128.499">eliminarEdificio()</text></g><!--SRC=[fP9FQy904CNl-oc6zAA7U90gDHJ1njXB3wMMtZV9A8ERtJ3PKgJqktSLQv9j_0Fcje_tVZkRUTM6T2bP5g18ezsM2ALHszr12CRCIhrM27VnF7cQZI28bbHPB2JCgIgDfbHX0BA2WrohefJPHguHPCh4IKuhoiXKEs_Gbdhz0Bu5kAznttWuIHOJU75OMLi_2BzyPpfAy_4373snqPQDKiY-Sp6SnVV9qVc6fQd86jvUC8gVstx5KYhAPISYTeFArB2qP3J4ZFLZzwoMSWN1MQs7Q4lNC1GLf7sA9mhnxvaGSZZjsbW4_iA5wB11cBjynnuZrysMkzU7Q7_Huvyq5Q8Z2643MAyx0fDQrCZl9hy0gqEELHUYU_nJqwz8MMwEdp5PP3AtFYFzh3B9huRZ0_0ikMlcmM1wggyHPAOe5RhCCrQxPhYzdMAqUkgIpUEPMBkR4M3hV2xerT55FSM5Vm40]--></g></svg>