<?xml version="1.0" encoding="us-ascii" standalone="no"?><svg xmlns="http://www.w3.org/2000/svg" xmlns:xlink="http://www.w3.org/1999/xlink" contentStyleType="text/css" height="328px" preserveAspectRatio="none" style="width:684px;height:328px;background:#FFFFFF;" version="1.1" viewBox="0 0 684 328" width="684px" zoomAndPan="magnify"><defs/><g><!--cluster Gesti?n de Programas--><g id="cluster_Gesti&#243;n de Programas"><path d="M467.5,6.602 L622.5,6.602 A3.75,3.75 0 0 1 625,9.102 L632,31.6699 L674.5,31.6699 A2.5,2.5 0 0 1 677,34.1699 L677,319.102 A2.5,2.5 0 0 1 674.5,321.602 L467.5,321.602 A2.5,2.5 0 0 1 465,319.102 L465,9.102 A2.5,2.5 0 0 1 467.5,6.602 " fill="none" style="stroke:#000000;stroke-width:1.5;"/><line style="stroke:#000000;stroke-width:1.5;" x1="465" x2="632" y1="31.6699" y2="31.6699"/><text fill="#000000" font-family="sans-serif" font-size="14" font-weight="bold" lengthAdjust="spacing" textLength="154" x="469" y="23.5679">Gesti&#243;n de Programas</text></g><!--cluster Gesti?n de Cursos--><g id="cluster_Gesti&#243;n de Cursos"><path d="M8.5,15.602 L134.5,15.602 A3.75,3.75 0 0 1 137,18.102 L144,40.6699 L195.5,40.6699 A2.5,2.5 0 0 1 198,43.1699 L198,314.102 A2.5,2.5 0 0 1 195.5,316.602 L8.5,316.602 A2.5,2.5 0 0 1 6,314.102 L6,18.102 A2.5,2.5 0 0 1 8.5,15.602 " fill="none" style="stroke:#000000;stroke-width:1.5;"/><line style="stroke:#000000;stroke-width:1.5;" x1="6" x2="144" y1="40.6699" y2="40.6699"/><text fill="#000000" font-family="sans-serif" font-size="14" font-weight="bold" lengthAdjust="spacing" textLength="125" x="10" y="32.5679">Gesti&#243;n de Cursos</text></g><g id="elem_crearPrograma"><ellipse cx="571.001" cy="63.4022" fill="#F1F1F1" rx="82.001" ry="18.8002" style="stroke:#181818;stroke-width:0.5;"/><text fill="#000000" font-family="sans-serif" font-size="14" lengthAdjust="spacing" textLength="109" x="513.501" y="68.1351">crearPrograma()</text></g><g id="elem_listarProgramas"><ellipse cx="571.2105" cy="136.8441" fill="#F1F1F1" rx="84.2105" ry="19.2421" style="stroke:#181818;stroke-width:0.5;"/><text fill="#000000" font-family="sans-serif" font-size="14" lengthAdjust="spacing" textLength="115" x="510.7105" y="141.5771">listarProgramas()</text></g><g id="elem_editarPrograma"><ellipse cx="570.8387" cy="209.7697" fill="#F1F1F1" rx="83.8387" ry="19.1677" style="stroke:#181818;stroke-width:0.5;"/><text fill="#000000" font-family="sans-serif" font-size="14" lengthAdjust="spacing" textLength="114" x="510.8387" y="214.5027">editarPrograma()</text></g><g id="elem_eliminarPrograma"><ellipse cx="570.942" cy="284.4904" fill="#F1F1F1" rx="89.942" ry="20.3884" style="stroke:#181818;stroke-width:0.5;"/><text fill="#000000" font-family="sans-serif" font-size="14" lengthAdjust="spacing" textLength="130" x="502.942" y="289.2233">eliminarPrograma()</text></g><g id="elem_crearCurso"><ellipse cx="102.2027" cy="70.6398" fill="#F1F1F1" rx="72.2027" ry="17.0378" style="stroke:#181818;stroke-width:0.5;"/><text fill="#000000" font-family="sans-serif" font-size="14" lengthAdjust="spacing" textLength="82" x="58.2027" y="75.3727">crearCurso()</text></g><g id="elem_listarCursos"><ellipse cx="102.221" cy="140.4462" fill="#F1F1F1" rx="74.721" ry="17.3442" style="stroke:#181818;stroke-width:0.5;"/><text fill="#000000" font-family="sans-serif" font-size="14" lengthAdjust="spacing" textLength="88" x="55.221" y="145.1792">listarCursos()</text></g><g id="elem_editarCurso"><ellipse cx="101.8944" cy="210.3809" fill="#F1F1F1" rx="74.3944" ry="17.2789" style="stroke:#181818;stroke-width:0.5;"/><text fill="#000000" font-family="sans-serif" font-size="14" lengthAdjust="spacing" textLength="87" x="55.3944" y="215.1138">editarCurso()</text></g><g id="elem_eliminarCurso"><ellipse cx="101.845" cy="281.471" fill="#F1F1F1" rx="79.845" ry="18.369" style="stroke:#181818;stroke-width:0.5;"/><text fill="#000000" font-family="sans-serif" font-size="14" lengthAdjust="spacing" textLength="103" x="47.345" y="286.2039">eliminarCurso()</text></g><!--entity admin--><g id="elem_admin"><ellipse cx="331.5" cy="174.602" fill="#F1F1F1" rx="8" ry="8" style="stroke:#181818;stroke-width:0.5;"/><path d="M331.5,182.602 L331.5,209.602 M318.5,190.602 L344.5,190.602 M331.5,209.602 L318.5,224.602 M331.5,209.602 L344.5,224.602 " fill="none" style="stroke:#181818;stroke-width:0.5;"/><text fill="#000000" font-family="sans-serif" font-size="14" lengthAdjust="spacing" textLength="179" x="242" y="241.0679">Administrador de Horarios</text></g><!--link admin to crearPrograma--><g id="link_admin_crearPrograma"><path d="M370.65,166.092 C393.86,143.952 425.11,117.312 457,99.602 C474.19,90.052 488.5363,84.3569 506.9763,78.7869 " fill="none" id="admin-to-crearPrograma" style="stroke:#181818;stroke-width:1.0;"/><polygon fill="#181818" points="512.72,77.052,502.9478,75.8253,507.9336,78.4978,505.2611,83.4835,512.72,77.052" style="stroke:#181818;stroke-width:1.0;"/></g><!--link admin to listarProgramas--><g id="link_admin_listarProgramas"><path d="M421.27,179.812 C454.08,170.282 484.388,161.4752 512.798,153.2252 " fill="none" id="admin-to-listarProgramas" style="stroke:#181818;stroke-width:1.0;"/><polygon fill="#181818" points="518.56,151.552,508.8016,150.2205,513.7584,152.9463,511.0325,157.9031,518.56,151.552" style="stroke:#181818;stroke-width:1.0;"/></g><!--link admin to editarPrograma--><g id="link_admin_editarPrograma"><path d="M421.27,207.102 C442.88,207.462 459.9109,207.7506 481.2209,208.1106 " fill="none" id="admin-to-editarPrograma" style="stroke:#181818;stroke-width:1.0;"/><polygon fill="#181818" points="487.22,208.212,478.2888,204.0605,482.2207,208.1275,478.1537,212.0594,487.22,208.212" style="stroke:#181818;stroke-width:1.0;"/></g><!--link admin to eliminarPrograma--><g id="link_admin_eliminarPrograma"><path d="M421.27,235.132 C454.34,246.132 485.0371,256.337 513.5471,265.827 " fill="none" id="admin-to-eliminarPrograma" style="stroke:#181818;stroke-width:1.0;"/><polygon fill="#181818" points="519.24,267.722,511.964,261.0843,514.4959,266.1428,509.4373,268.6748,519.24,267.722" style="stroke:#181818;stroke-width:1.0;"/></g><!--reverse link crearCurso to admin--><g id="link_crearCurso_admin"><path d="M156.8431,84.9337 C174.6631,90.5437 188.95,96.242 206,105.602 C235.89,122.012 265.8,145.742 288.81,165.962 " fill="none" id="crearCurso-backto-admin" style="stroke:#181818;stroke-width:1.0;"/><polygon fill="#181818" points="151.12,83.132,158.5035,89.65,155.8892,84.6334,160.9058,82.0192,151.12,83.132" style="stroke:#181818;stroke-width:1.0;"/></g><!--reverse link listarCursos to admin--><g id="link_listarCursos_admin"><path d="M155.9091,155.7206 C182.3291,163.2706 210.38,171.282 241.58,180.202 " fill="none" id="listarCursos-backto-admin" style="stroke:#181818;stroke-width:1.0;"/><polygon fill="#181818" points="150.14,154.072,157.6945,160.3909,154.9476,155.4458,159.8927,152.6989,150.14,154.072" style="stroke:#181818;stroke-width:1.0;"/></g><!--reverse link editarCurso to admin--><g id="link_editarCurso_admin"><path d="M182.2286,208.8601 C203.1486,208.4001 220.16,208.032 241.89,207.552 " fill="none" id="editarCurso-backto-admin" style="stroke:#181818;stroke-width:1.0;"/><polygon fill="#181818" points="176.23,208.992,185.3158,212.7932,181.2288,208.8821,185.1399,204.7951,176.23,208.992" style="stroke:#181818;stroke-width:1.0;"/></g><!--reverse link eliminarCurso to admin--><g id="link_eliminarCurso_admin"><path d="M153.9112,264.5921 C180.6012,255.6821 209.63,245.982 241.6,235.302 " fill="none" id="eliminarCurso-backto-admin" style="stroke:#181818;stroke-width:1.0;"/><polygon fill="#181818" points="148.22,266.492,158.0235,267.4363,152.9627,264.9087,155.4903,259.8479,148.22,266.492" style="stroke:#181818;stroke-width:1.0;"/></g><!--SRC=[TP8nRiCm34LtdOBGP0- -GL6Wo92ElG8XiIuHnoeePIfwgXwX5wlif32fEDhuFp-5HscYzm8bWV3uKI2oK2YSPkSmb2JWN-APPyv5CDOo4hmcGU6KFM06N5pdFZ6SS2JmHyg5Vt_cfV5DqYXunjhvvQ2UIwQ0cI08eVoxonHlbAxtfdsgjszkNWEDraOeScckiD9TOE8AqaOQSGbzFu0zN2IdVTBLsZ3NSf_nEaG1NeLzkcsigXzngMQjt8ZMLuHXU8REl4IldMRbnhFBjLQpnDwvRjj33q_3SFj5dMOsXWAqkcRHZdD_]--></g></svg>