<?xml version="1.0" encoding="us-ascii" standalone="no"?><svg xmlns="http://www.w3.org/2000/svg" xmlns:xlink="http://www.w3.org/1999/xlink" contentStyleType="text/css" height="2310px" preserveAspectRatio="none" style="width:517px;height:2310px;background:#FFFFFF;" version="1.1" viewBox="0 0 517 2310" width="517px" zoomAndPan="magnify"><defs/><g><!--cluster Gesti?n de Programas--><g id="cluster_Gesti&#243;n de Programas"><path d="M269,6.602 L424,6.602 A3.75,3.75 0 0 1 426.5,9.102 L433.5,31.6699 L470,31.6699 A2.5,2.5 0 0 1 472.5,34.1699 L472.5,314.102 A2.5,2.5 0 0 1 470,316.602 L269,316.602 A2.5,2.5 0 0 1 266.5,314.102 L266.5,9.102 A2.5,2.5 0 0 1 269,6.602 " fill="none" style="stroke:#000000;stroke-width:1.5;"/><line style="stroke:#000000;stroke-width:1.5;" x1="266.5" x2="433.5" y1="31.6699" y2="31.6699"/><text fill="#000000" font-family="sans-serif" font-size="14" font-weight="bold" lengthAdjust="spacing" textLength="154" x="270.5" y="23.5679">Gesti&#243;n de Programas</text></g><!--cluster Gesti?n de Cursos--><g id="cluster_Gesti&#243;n de Cursos"><path d="M279,340.602 L405,340.602 A3.75,3.75 0 0 1 407.5,343.102 L414.5,365.6699 L460,365.6699 A2.5,2.5 0 0 1 462.5,368.1699 L462.5,635.102 A2.5,2.5 0 0 1 460,637.602 L279,637.602 A2.5,2.5 0 0 1 276.5,635.102 L276.5,343.102 A2.5,2.5 0 0 1 279,340.602 " fill="none" style="stroke:#000000;stroke-width:1.5;"/><line style="stroke:#000000;stroke-width:1.5;" x1="276.5" x2="414.5" y1="365.6699" y2="365.6699"/><text fill="#000000" font-family="sans-serif" font-size="14" font-weight="bold" lengthAdjust="spacing" textLength="125" x="280.5" y="357.5679">Gesti&#243;n de Cursos</text></g><!--cluster Gesti?n de Profesores--><g id="cluster_Gesti&#243;n de Profesores"><path d="M231.5,661.602 L384.5,661.602 A3.75,3.75 0 0 1 387,664.102 L394,686.6699 L507.5,686.6699 A2.5,2.5 0 0 1 510,689.1699 L510,1056.102 A2.5,2.5 0 0 1 507.5,1058.602 L231.5,1058.602 A2.5,2.5 0 0 1 229,1056.102 L229,664.102 A2.5,2.5 0 0 1 231.5,661.602 " fill="none" style="stroke:#000000;stroke-width:1.5;"/><line style="stroke:#000000;stroke-width:1.5;" x1="229" x2="394" y1="686.6699" y2="686.6699"/><text fill="#000000" font-family="sans-serif" font-size="14" font-weight="bold" lengthAdjust="spacing" textLength="152" x="233" y="678.5679">Gesti&#243;n de Profesores</text></g><!--cluster Gesti?n de Campus--><g id="cluster_Gesti&#243;n de Campus"><path d="M273.5,1082.602 L408.5,1082.602 A3.75,3.75 0 0 1 411,1085.102 L418,1107.6699 L465.5,1107.6699 A2.5,2.5 0 0 1 468,1110.1699 L468,1943.102 A2.5,2.5 0 0 1 465.5,1945.602 L273.5,1945.602 A2.5,2.5 0 0 1 271,1943.102 L271,1085.102 A2.5,2.5 0 0 1 273.5,1082.602 " fill="none" style="stroke:#000000;stroke-width:1.5;"/><line style="stroke:#000000;stroke-width:1.5;" x1="271" x2="418" y1="1107.6699" y2="1107.6699"/><text fill="#000000" font-family="sans-serif" font-size="14" font-weight="bold" lengthAdjust="spacing" textLength="134" x="275" y="1099.5679">Gesti&#243;n de Campus</text></g><!--cluster Asignaciones--><g id="cluster_Asignaciones"><path d="M256,1969.602 L348,1969.602 A3.75,3.75 0 0 1 350.5,1972.102 L357.5,1994.6699 L483,1994.6699 A2.5,2.5 0 0 1 485.5,1997.1699 L485.5,2067.102 A2.5,2.5 0 0 1 483,2069.602 L256,2069.602 A2.5,2.5 0 0 1 253.5,2067.102 L253.5,1972.102 A2.5,2.5 0 0 1 256,1969.602 " fill="none" style="stroke:#000000;stroke-width:1.5;"/><line style="stroke:#000000;stroke-width:1.5;" x1="253.5" x2="357.5" y1="1994.6699" y2="1994.6699"/><text fill="#000000" font-family="sans-serif" font-size="14" font-weight="bold" lengthAdjust="spacing" textLength="91" x="257.5" y="1986.5679">Asignaciones</text></g><!--cluster Generaci?n de Horarios--><g id="cluster_Generaci&#243;n de Horarios"><path d="M276,2093.602 L440,2093.602 A3.75,3.75 0 0 1 442.5,2096.102 L449.5,2118.6699 L463,2118.6699 A2.5,2.5 0 0 1 465.5,2121.1699 L465.5,2183.102 A2.5,2.5 0 0 1 463,2185.602 L276,2185.602 A2.5,2.5 0 0 1 273.5,2183.102 L273.5,2096.102 A2.5,2.5 0 0 1 276,2093.602 " fill="none" style="stroke:#000000;stroke-width:1.5;"/><line style="stroke:#000000;stroke-width:1.5;" x1="273.5" x2="449.5" y1="2118.6699" y2="2118.6699"/><text fill="#000000" font-family="sans-serif" font-size="14" font-weight="bold" lengthAdjust="spacing" textLength="163" x="277.5" y="2110.5679">Generaci&#243;n de Horarios</text></g><!--cluster Consulta de Horarios--><g id="cluster_Consulta de Horarios"><path d="M272.5,2209.602 L419.5,2209.602 A3.75,3.75 0 0 1 422,2212.102 L429,2234.6699 L466.5,2234.6699 A2.5,2.5 0 0 1 469,2237.1699 L469,2299.102 A2.5,2.5 0 0 1 466.5,2301.602 L272.5,2301.602 A2.5,2.5 0 0 1 270,2299.102 L270,2212.102 A2.5,2.5 0 0 1 272.5,2209.602 " fill="none" style="stroke:#000000;stroke-width:1.5;"/><line style="stroke:#000000;stroke-width:1.5;" x1="270" x2="429" y1="2234.6699" y2="2234.6699"/><text fill="#000000" font-family="sans-serif" font-size="14" font-weight="bold" lengthAdjust="spacing" textLength="146" x="274" y="2226.5679">Consulta de Horarios</text></g><g id="elem_crearPrograma"><ellipse cx="369.639" cy="62.8298" fill="#F1F1F1" rx="79.139" ry="18.2278" style="stroke:#181818;stroke-width:0.5;"/><text fill="#000000" font-family="sans-serif" font-size="14" lengthAdjust="spacing" textLength="101" x="316.139" y="67.5628">crearPrograma</text></g><g id="elem_listarProgramas"><ellipse cx="369.2761" cy="134.7572" fill="#F1F1F1" rx="81.2761" ry="18.6552" style="stroke:#181818;stroke-width:0.5;"/><text fill="#000000" font-family="sans-serif" font-size="14" lengthAdjust="spacing" textLength="107" x="312.7761" y="139.4902">listarProgramas</text></g><g id="elem_editarPrograma"><ellipse cx="369.416" cy="206.6852" fill="#F1F1F1" rx="80.916" ry="18.5832" style="stroke:#181818;stroke-width:0.5;"/><text fill="#000000" font-family="sans-serif" font-size="14" lengthAdjust="spacing" textLength="106" x="313.416" y="211.4181">editarPrograma</text></g><g id="elem_eliminarPrograma"><ellipse cx="369.3505" cy="280.3721" fill="#F1F1F1" rx="86.8505" ry="19.7701" style="stroke:#181818;stroke-width:0.5;"/><text fill="#000000" font-family="sans-serif" font-size="14" lengthAdjust="spacing" textLength="122" x="305.3505" y="285.105">eliminarPrograma</text></g><g id="elem_crearCurso"><ellipse cx="369.651" cy="395.6038" fill="#F1F1F1" rx="66.151" ry="17.0018" style="stroke:#181818;stroke-width:0.5;"/><text fill="#000000" font-family="sans-serif" font-size="14" lengthAdjust="spacing" textLength="74" x="329.651" y="400.3368">crearCurso</text></g><g id="elem_listarCursos"><ellipse cx="369.6897" cy="464.6313" fill="#F1F1F1" rx="70.6897" ry="17.0294" style="stroke:#181818;stroke-width:0.5;"/><text fill="#000000" font-family="sans-serif" font-size="14" lengthAdjust="spacing" textLength="80" x="326.6897" y="469.3643">listarCursos</text></g><g id="elem_editarCurso"><ellipse cx="369.4332" cy="533.627" fill="#F1F1F1" rx="69.9332" ry="17.025" style="stroke:#181818;stroke-width:0.5;"/><text fill="#000000" font-family="sans-serif" font-size="14" lengthAdjust="spacing" textLength="79" x="326.9332" y="538.36">editarCurso</text></g><g id="elem_eliminarCurso"><ellipse cx="369.5618" cy="603.4143" fill="#F1F1F1" rx="77.0618" ry="17.8124" style="stroke:#181818;stroke-width:0.5;"/><text fill="#000000" font-family="sans-serif" font-size="14" lengthAdjust="spacing" textLength="95" x="319.0618" y="608.1473">eliminarCurso</text></g><g id="elem_crearProfesor"><ellipse cx="369.7128" cy="717.6445" fill="#F1F1F1" rx="75.7128" ry="17.5426" style="stroke:#181818;stroke-width:0.5;"/><text fill="#000000" font-family="sans-serif" font-size="14" lengthAdjust="spacing" textLength="91" x="321.2128" y="722.3775">crearProfesor</text></g><g id="elem_listarProfesores"><ellipse cx="369.5574" cy="788.6135" fill="#F1F1F1" rx="80.5574" ry="18.5115" style="stroke:#181818;stroke-width:0.5;"/><text fill="#000000" font-family="sans-serif" font-size="14" lengthAdjust="spacing" textLength="105" x="314.0574" y="793.3464">listarProfesores</text></g><g id="elem_editarProfesor"><ellipse cx="369.4037" cy="860.4827" fill="#F1F1F1" rx="77.4037" ry="17.8807" style="stroke:#181818;stroke-width:0.5;"/><text fill="#000000" font-family="sans-serif" font-size="14" lengthAdjust="spacing" textLength="96" x="318.4037" y="865.2157">editarProfesor</text></g><g id="elem_eliminarProfesor"><ellipse cx="369.5993" cy="932.6218" fill="#F1F1F1" rx="83.0993" ry="19.0199" style="stroke:#181818;stroke-width:0.5;"/><text fill="#000000" font-family="sans-serif" font-size="14" lengthAdjust="spacing" textLength="112" x="310.5993" y="937.3548">eliminarProfesor</text></g><g id="elem_configurarPreferenciasProfesor"><ellipse cx="369.321" cy="1014.3662" fill="#F1F1F1" rx="124.321" ry="27.2642" style="stroke:#181818;stroke-width:0.5;"/><text fill="#000000" font-family="sans-serif" font-size="14" lengthAdjust="spacing" textLength="211" x="262.3439" y="1018.4891">configurarPreferenciasProfesor</text></g><g id="elem_crearEdificio"><ellipse cx="369.4266" cy="1137.6873" fill="#F1F1F1" rx="73.4266" ry="17.0853" style="stroke:#181818;stroke-width:0.5;"/><text fill="#000000" font-family="sans-serif" font-size="14" lengthAdjust="spacing" textLength="84" x="324.4266" y="1142.4203">crearEdificio</text></g><g id="elem_listarEdificios"><ellipse cx="369.3803" cy="1207.578" fill="#F1F1F1" rx="75.3803" ry="17.4761" style="stroke:#181818;stroke-width:0.5;"/><text fill="#000000" font-family="sans-serif" font-size="14" lengthAdjust="spacing" textLength="90" x="321.3803" y="1212.311">listarEdificios</text></g><g id="elem_editarEdificio"><ellipse cx="369.5497" cy="1277.5119" fill="#F1F1F1" rx="75.0497" ry="17.4099" style="stroke:#181818;stroke-width:0.5;"/><text fill="#000000" font-family="sans-serif" font-size="14" lengthAdjust="spacing" textLength="89" x="322.0497" y="1282.2449">editarEdificio</text></g><g id="elem_eliminarEdificio"><ellipse cx="369.5574" cy="1348.6135" fill="#F1F1F1" rx="80.5574" ry="18.5115" style="stroke:#181818;stroke-width:0.5;"/><text fill="#000000" font-family="sans-serif" font-size="14" lengthAdjust="spacing" textLength="105" x="314.0574" y="1353.3464">eliminarEdificio</text></g><g id="elem_crearAula"><ellipse cx="369.3439" cy="1419.5547" fill="#F1F1F1" rx="59.3439" ry="16.9527" style="stroke:#181818;stroke-width:0.5;"/><text fill="#000000" font-family="sans-serif" font-size="14" lengthAdjust="spacing" textLength="65" x="333.8439" y="1424.2877">crearAula</text></g><g id="elem_listarAulas"><ellipse cx="369.3819" cy="1488.5886" fill="#F1F1F1" rx="63.8819" ry="16.9866" style="stroke:#181818;stroke-width:0.5;"/><text fill="#000000" font-family="sans-serif" font-size="14" lengthAdjust="spacing" textLength="71" x="330.8819" y="1493.3216">listarAulas</text></g><g id="elem_editarAula"><ellipse cx="369.6255" cy="1557.5833" fill="#F1F1F1" rx="63.1255" ry="16.9813" style="stroke:#181818;stroke-width:0.5;"/><text fill="#000000" font-family="sans-serif" font-size="14" lengthAdjust="spacing" textLength="70" x="331.6255" y="1562.3163">editarAula</text></g><g id="elem_eliminarAula"><ellipse cx="369.5697" cy="1626.8159" fill="#F1F1F1" rx="74.0697" ry="17.2139" style="stroke:#181818;stroke-width:0.5;"/><text fill="#000000" font-family="sans-serif" font-size="14" lengthAdjust="spacing" textLength="86" x="323.5697" y="1631.5489">eliminarAula</text></g><g id="elem_crearRecurso"><ellipse cx="369.5497" cy="1696.5119" fill="#F1F1F1" rx="75.0497" ry="17.4099" style="stroke:#181818;stroke-width:0.5;"/><text fill="#000000" font-family="sans-serif" font-size="14" lengthAdjust="spacing" textLength="89" x="322.0497" y="1701.2449">crearRecurso</text></g><g id="elem_listarRecursos"><ellipse cx="369.5618" cy="1767.4143" fill="#F1F1F1" rx="77.0618" ry="17.8124" style="stroke:#181818;stroke-width:0.5;"/><text fill="#000000" font-family="sans-serif" font-size="14" lengthAdjust="spacing" textLength="95" x="319.0618" y="1772.1473">listarRecursos</text></g><g id="elem_editarRecurso"><ellipse cx="369.7218" cy="1838.8463" fill="#F1F1F1" rx="76.7218" ry="17.7444" style="stroke:#181818;stroke-width:0.5;"/><text fill="#000000" font-family="sans-serif" font-size="14" lengthAdjust="spacing" textLength="94" x="319.7218" y="1843.5793">editarRecurso</text></g><g id="elem_eliminarRecurso"><ellipse cx="369.3656" cy="1910.4751" fill="#F1F1F1" rx="82.3656" ry="18.8731" style="stroke:#181818;stroke-width:0.5;"/><text fill="#000000" font-family="sans-serif" font-size="14" lengthAdjust="spacing" textLength="110" x="311.3656" y="1915.2081">eliminarRecurso</text></g><g id="elem_asignarProfesorACurso"><ellipse cx="369.5317" cy="2030.5083" fill="#F1F1F1" rx="100.0317" ry="22.4063" style="stroke:#181818;stroke-width:0.5;"/><text fill="#000000" font-family="sans-serif" font-size="14" lengthAdjust="spacing" textLength="155" x="289.0317" y="2035.2413">asignarProfesorACurso</text></g><g id="elem_generarHorario"><ellipse cx="369.7004" cy="2150.5421" fill="#F1F1F1" rx="80.2004" ry="18.4401" style="stroke:#181818;stroke-width:0.5;"/><text fill="#000000" font-family="sans-serif" font-size="14" lengthAdjust="spacing" textLength="104" x="314.7004" y="2155.275">generarHorario</text></g><g id="elem_consultarHorario"><ellipse cx="369.4683" cy="2266.6956" fill="#F1F1F1" rx="83.4683" ry="19.0937" style="stroke:#181818;stroke-width:0.5;"/><text fill="#000000" font-family="sans-serif" font-size="14" lengthAdjust="spacing" textLength="113" x="309.9683" y="2271.4286">consultarHorario</text></g><!--entity admin--><g id="elem_admin"><ellipse cx="95.5" cy="1141.602" fill="#F1F1F1" rx="8" ry="8" style="stroke:#181818;stroke-width:0.5;"/><path d="M95.5,1149.602 L95.5,1176.602 M82.5,1157.602 L108.5,1157.602 M95.5,1176.602 L82.5,1191.602 M95.5,1176.602 L108.5,1191.602 " fill="none" style="stroke:#181818;stroke-width:0.5;"/><text fill="#000000" font-family="sans-serif" font-size="14" lengthAdjust="spacing" textLength="179" x="6" y="1208.0679">Administrador de Horarios</text></g><!--entity consultor--><g id="elem_consultor"><ellipse cx="95.5" cy="2235.602" fill="#F1F1F1" rx="8" ry="8" style="stroke:#181818;stroke-width:0.5;"/><path d="M95.5,2243.602 L95.5,2270.602 M82.5,2251.602 L108.5,2251.602 M95.5,2270.602 L82.5,2285.602 M95.5,2270.602 L108.5,2285.602 " fill="none" style="stroke:#181818;stroke-width:0.5;"/><text fill="#000000" font-family="sans-serif" font-size="14" lengthAdjust="spacing" textLength="147" x="22" y="2302.0679">Consultor de Horarios</text></g><!--link admin to crearPrograma--><g id="link_admin_crearPrograma"><path d="M98.44,1132.962 C107.85,948.262 151.07,177.792 221,98.602 C238.54,78.742 259.1337,69.9883 284.8537,65.3883 " fill="none" id="admin-to-crearPrograma" style="stroke:#181818;stroke-width:1.0;"/><polygon fill="#181818" points="290.76,64.332,281.1964,61.979,285.8381,65.2123,282.6048,69.854,290.76,64.332" style="stroke:#181818;stroke-width:1.0;"/></g><!--link admin to listarProgramas--><g id="link_admin_listarProgramas"><path d="M98.79,1132.982 C109.36,956.082 155.72,243.912 221,170.602 C238.09,151.412 257.6665,142.7374 282.6465,137.9674 " fill="none" id="admin-to-listarProgramas" style="stroke:#181818;stroke-width:1.0;"/><polygon fill="#181818" points="288.54,136.842,278.9495,134.601,283.6287,137.7798,280.45,142.4591,288.54,136.842" style="stroke:#181818;stroke-width:1.0;"/></g><!--link admin to editarPrograma--><g id="link_admin_editarPrograma"><path d="M96.1,1132.982 C95.3,972.962 100.59,376.542 221,242.602 C238.27,223.392 258.0346,214.7276 283.1346,209.9776 " fill="none" id="admin-to-editarPrograma" style="stroke:#181818;stroke-width:1.0;"/><polygon fill="#181818" points="289.03,208.862,279.4432,206.6052,284.1172,209.7917,280.9307,214.4657,289.03,208.862" style="stroke:#181818;stroke-width:1.0;"/></g><!--link admin to eliminarPrograma--><g id="link_admin_eliminarPrograma"><path d="M98.06,1132.772 C104.42,987.772 132.42,489.892 221,362.602 C243.59,330.132 277.7861,311.2819 310.3461,298.6519 " fill="none" id="admin-to-eliminarPrograma" style="stroke:#181818;stroke-width:1.0;"/><polygon fill="#181818" points="315.94,296.482,306.1026,296.0075,311.2784,298.2902,308.9957,303.466,315.94,296.482" style="stroke:#181818;stroke-width:1.0;"/></g><!--link admin to crearCurso--><g id="link_admin_crearCurso"><path d="M97.53,1132.842 C101.96,993.882 123.85,532.822 221,429.602 C241.98,407.312 268.4566,398.9237 297.5666,395.6937 " fill="none" id="admin-to-crearCurso" style="stroke:#181818;stroke-width:1.0;"/><polygon fill="#181818" points="303.53,395.032,294.1438,392.0489,298.5605,395.5834,295.026,400.0001,303.53,395.032" style="stroke:#181818;stroke-width:1.0;"/></g><!--link admin to listarCursos--><g id="link_admin_listarCursos"><path d="M98.27,1132.932 C104.92,1002.642 132.66,590.912 221,498.602 C240.99,477.722 265.0831,469.2986 292.8531,465.5786 " fill="none" id="admin-to-listarCursos" style="stroke:#181818;stroke-width:1.0;"/><polygon fill="#181818" points="298.8,464.782,289.3486,462.0123,293.8443,465.4458,290.4108,469.9415,298.8,464.782" style="stroke:#181818;stroke-width:1.0;"/></g><!--link admin to editarCurso--><g id="link_admin_editarCurso"><path d="M99.2,1132.762 C108.24,1011.312 141.48,649.022 221,567.602 C241.29,546.832 265.5929,538.4466 293.4329,534.7266 " fill="none" id="admin-to-editarCurso" style="stroke:#181818;stroke-width:1.0;"/><polygon fill="#181818" points="299.38,533.932,289.9295,531.1592,294.424,534.5942,290.9891,539.0887,299.38,533.932" style="stroke:#181818;stroke-width:1.0;"/></g><!--link admin to eliminarCurso--><g id="link_admin_eliminarCurso"><path d="M96.31,1132.822 C97.88,1043.102 113.23,822.022 221,683.602 C246.32,651.082 283.0998,632.1629 315.9498,619.8829 " fill="none" id="admin-to-eliminarCurso" style="stroke:#181818;stroke-width:1.0;"/><polygon fill="#181818" points="321.57,617.782,311.7392,617.1866,316.8865,619.5328,314.5404,624.6801,321.57,617.782" style="stroke:#181818;stroke-width:1.0;"/></g><!--link admin to crearProfesor--><g id="link_admin_crearProfesor"><path d="M95.94,1133.002 C97.04,1049.762 111.9,855.842 221,752.602 C240.69,733.972 262.4957,725.6722 288.6057,721.2122 " fill="none" id="admin-to-crearProfesor" style="stroke:#181818;stroke-width:1.0;"/><polygon fill="#181818" points="294.52,720.202,284.975,717.7745,289.5914,721.0439,286.322,725.6603,294.52,720.202" style="stroke:#181818;stroke-width:1.0;"/></g><!--link admin to listarProfesores--><g id="link_admin_listarProfesores"><path d="M98.87,1132.842 C105.39,1060.372 129.82,906.742 221,824.602 C240.19,807.312 260.4241,799.1464 285.3441,794.2164 " fill="none" id="admin-to-listarProfesores" style="stroke:#181818;stroke-width:1.0;"/><polygon fill="#181818" points="291.23,793.052,281.6248,790.8747,286.3251,794.0223,283.1774,798.7226,291.23,793.052" style="stroke:#181818;stroke-width:1.0;"/></g><!--link admin to editarProfesor--><g id="link_admin_editarProfesor"><path d="M102.95,1132.872 C114.96,1072.202 146.63,957.072 221,895.602 C241.39,878.752 262.6017,870.8418 288.0217,866.1018 " fill="none" id="admin-to-editarProfesor" style="stroke:#181818;stroke-width:1.0;"/><polygon fill="#181818" points="293.92,865.002,284.3393,862.7195,289.0047,865.9185,285.8057,870.584,293.92,865.002" style="stroke:#181818;stroke-width:1.0;"/></g><!--link admin to eliminarProfesor--><g id="link_admin_eliminarProfesor"><path d="M110.19,1132.942 C128.25,1086.622 164.51,1011.072 221,969.602 C241.75,954.372 262.224,946.6327 286.884,941.3327 " fill="none" id="admin-to-eliminarProfesor" style="stroke:#181818;stroke-width:1.0;"/><polygon fill="#181818" points="292.75,940.072,283.1104,938.0524,287.8616,941.1226,284.7914,945.8738,292.75,940.072" style="stroke:#181818;stroke-width:1.0;"/></g><!--link admin to configurarPreferenciasProfesor--><g id="link_admin_configurarPreferenciasProfesor"><path d="M164.79,1132.932 C214.67,1103.962 275.6919,1068.5159 318.8819,1043.4259 " fill="none" id="admin-to-configurarPreferenciasProfesor" style="stroke:#181818;stroke-width:1.0;"/><polygon fill="#181818" points="324.07,1040.412,314.2786,1041.4741,319.7466,1042.9236,318.2971,1048.3916,324.07,1040.412" style="stroke:#181818;stroke-width:1.0;"/></g><!--link admin to crearEdificio--><g id="link_admin_crearEdificio"><path d="M185.19,1161.192 C224.25,1156.162 263.3191,1151.1382 298.9691,1146.5482 " fill="none" id="admin-to-crearEdificio" style="stroke:#181818;stroke-width:1.0;"/><polygon fill="#181818" points="304.92,1145.782,295.4829,1142.964,299.9609,1146.4205,296.5045,1150.8985,304.92,1145.782" style="stroke:#181818;stroke-width:1.0;"/></g><!--link admin to listarEdificios--><g id="link_admin_listarEdificios"><path d="M185.19,1184.012 C223.63,1188.962 261.889,1193.8864 297.259,1198.4364 " fill="none" id="admin-to-listarEdificios" style="stroke:#181818;stroke-width:1.0;"/><polygon fill="#181818" points="303.21,1199.202,294.7939,1194.0864,298.2509,1198.564,293.7732,1202.021,303.21,1199.202" style="stroke:#181818;stroke-width:1.0;"/></g><!--link admin to editarEdificio--><g id="link_admin_editarEdificio"><path d="M158.8,1212.122 C178.18,1223.172 199.98,1234.392 221,1242.602 C248.94,1253.522 275.3755,1260.4414 302.6155,1266.1014 " fill="none" id="admin-to-editarEdificio" style="stroke:#181818;stroke-width:1.0;"/><polygon fill="#181818" points="308.49,1267.322,300.492,1261.5747,303.5946,1266.3048,298.8645,1269.4074,308.49,1267.322" style="stroke:#181818;stroke-width:1.0;"/></g><!--link admin to eliminarEdificio--><g id="link_admin_eliminarEdificio"><path d="M121.58,1212.112 C143.87,1244.002 179.33,1287.532 221,1312.602 C244.04,1326.462 266.2535,1333.7807 291.7235,1339.0307 " fill="none" id="admin-to-eliminarEdificio" style="stroke:#181818;stroke-width:1.0;"/><polygon fill="#181818" points="297.6,1340.242,289.5928,1334.5074,292.7029,1339.2326,287.9778,1342.3427,297.6,1340.242" style="stroke:#181818;stroke-width:1.0;"/></g><!--link admin to crearAula--><g id="link_admin_crearAula"><path d="M109,1212.432 C126.26,1260.742 162.13,1341.102 221,1384.602 C246.82,1403.682 275.5861,1411.7133 304.8461,1415.7433 " fill="none" id="admin-to-crearAula" style="stroke:#181818;stroke-width:1.0;"/><polygon fill="#181818" points="310.79,1416.562,302.4199,1411.3714,305.8368,1415.8798,301.3284,1419.2966,310.79,1416.562" style="stroke:#181818;stroke-width:1.0;"/></g><!--link admin to listarAulas--><g id="link_admin_listarAulas"><path d="M102.63,1212.142 C114.29,1273.462 145.59,1390.942 221,1453.602 C244.58,1473.202 271.3076,1481.3827 299.8976,1485.3727 " fill="none" id="admin-to-listarAulas" style="stroke:#181818;stroke-width:1.0;"/><polygon fill="#181818" points="305.84,1486.202,297.4793,1480.9964,300.888,1485.5109,296.3735,1488.9196,305.84,1486.202" style="stroke:#181818;stroke-width:1.0;"/></g><!--link admin to editarAula--><g id="link_admin_editarAula"><path d="M98.72,1212.362 C105,1285.202 129.05,1440.152 221,1522.602 C244.22,1543.422 271.5982,1551.7132 300.6982,1555.4232 " fill="none" id="admin-to-editarAula" style="stroke:#181818;stroke-width:1.0;"/><polygon fill="#181818" points="306.65,1556.182,298.2281,1551.0759,301.6901,1555.5496,297.2164,1559.0117,306.65,1556.182" style="stroke:#181818;stroke-width:1.0;"/></g><!--link admin to eliminarAula--><g id="link_admin_eliminarAula"><path d="M95.97,1212.112 C97.13,1295.152 112.1,1488.622 221,1591.602 C241.08,1610.592 263.5794,1618.9193 290.1194,1623.2793 " fill="none" id="admin-to-eliminarAula" style="stroke:#181818;stroke-width:1.0;"/><polygon fill="#181818" points="296.04,1624.252,287.8075,1618.8459,291.1061,1623.4414,286.5106,1626.7401,296.04,1624.252" style="stroke:#181818;stroke-width:1.0;"/></g><!--link admin to crearRecurso--><g id="link_admin_crearRecurso"><path d="M101.37,1212.402 C114.98,1317.172 156.68,1596.942 221,1660.602 C240.58,1679.982 262.8359,1688.5206 289.3259,1693.0506 " fill="none" id="admin-to-crearRecurso" style="stroke:#181818;stroke-width:1.0;"/><polygon fill="#181818" points="295.24,1694.062,287.043,1688.6022,290.3115,1693.2192,285.6945,1696.4877,295.24,1694.062" style="stroke:#181818;stroke-width:1.0;"/></g><!--link admin to listarRecursos--><g id="link_admin_listarRecursos"><path d="M99.96,1212.222 C110.79,1327.082 147.76,1656.862 221,1731.602 C239.82,1750.802 261.1528,1759.3707 287.1128,1763.9907 " fill="none" id="admin-to-listarRecursos" style="stroke:#181818;stroke-width:1.0;"/><polygon fill="#181818" points="293.02,1765.042,284.8601,1759.5269,288.0973,1764.1659,283.4584,1767.4032,293.02,1765.042" style="stroke:#181818;stroke-width:1.0;"/></g><!--link admin to editarRecurso--><g id="link_admin_editarRecurso"><path d="M98.88,1212.252 C107.16,1336.752 138.82,1716.702 221,1802.602 C239.77,1822.222 261.398,1830.8583 287.618,1835.3983 " fill="none" id="admin-to-editarRecurso" style="stroke:#181818;stroke-width:1.0;"/><polygon fill="#181818" points="293.53,1836.422,285.3444,1830.9451,288.6033,1835.5689,283.9795,1838.8278,293.53,1836.422" style="stroke:#181818;stroke-width:1.0;"/></g><!--link admin to eliminarRecurso--><g id="link_admin_eliminarRecurso"><path d="M98.04,1212.372 C104.04,1346.032 130.18,1776.192 221,1873.602 C238.37,1892.232 257.7307,1900.8847 282.4307,1905.9147 " fill="none" id="admin-to-eliminarRecurso" style="stroke:#181818;stroke-width:1.0;"/><polygon fill="#181818" points="288.31,1907.112,280.2892,1901.3965,283.4106,1906.1142,278.6928,1909.2356,288.31,1907.112" style="stroke:#181818;stroke-width:1.0;"/></g><!--link admin to asignarProfesorACurso--><g id="link_admin_asignarProfesorACurso"><path d="M98.46,1212.502 C106.03,1353.192 137.26,1824.202 221,1945.602 C242.82,1977.232 274.9822,1996.3189 306.8022,2009.7489 " fill="none" id="admin-to-asignarProfesorACurso" style="stroke:#181818;stroke-width:1.0;"/><polygon fill="#181818" points="312.33,2012.082,305.5937,2004.8972,307.7235,2010.1377,302.4829,2012.2676,312.33,2012.082" style="stroke:#181818;stroke-width:1.0;"/></g><!--link admin to generarHorario--><g id="link_admin_generarHorario"><path d="M97.37,1212.112 C101.43,1366.452 122.83,1927.102 221,2069.602 C244.04,2103.042 279.9102,2121.9771 313.0402,2134.1871 " fill="none" id="admin-to-generarHorario" style="stroke:#181818;stroke-width:1.0;"/><polygon fill="#181818" points="318.67,2136.262,311.6085,2129.3965,313.9785,2134.5329,308.842,2136.9029,318.67,2136.262" style="stroke:#181818;stroke-width:1.0;"/></g><!--link admin to consultarHorario--><g id="link_admin_consultarHorario"><path d="M96.66,1212.282 C98.04,1379.112 110.56,2022.582 221,2185.602 C243.37,2218.622 278.1979,2237.3563 311.0879,2249.6163 " fill="none" id="admin-to-consultarHorario" style="stroke:#181818;stroke-width:1.0;"/><polygon fill="#181818" points="316.71,2251.712,309.674,2244.8204,312.0249,2249.9656,306.8797,2252.3165,316.71,2251.712" style="stroke:#181818;stroke-width:1.0;"/></g><!--link consultor to consultarHorario--><g id="link_consultor_consultarHorario"><path d="M169.03,2266.602 C204.92,2266.602 242.39,2266.602 279.59,2266.602 " fill="none" id="consultor-to-consultarHorario" style="stroke:#181818;stroke-width:1.0;"/><polygon fill="#181818" points="285.59,2266.602,276.59,2262.602,280.59,2266.602,276.59,2270.602,285.59,2266.602" style="stroke:#181818;stroke-width:1.0;"/></g><!--SRC=[XLLBRiCW4Dtx52YhTf4hLBAYgbrMlG72OnVLWMh0gogdwX5wiM82zi1WDJk_UJDlFZnbXj4BRmNgwSEBGICehwtfEgcyHN7gXwissdcKG_WSGBnQbAYjEmdfX5oZcNgnnYspRz1KZdJTbrIVSW9nUW7dzU-FMSblQ2UKLndOtvq8lmU58373ZtTi3ctie4ie3DepAimwD4RXsu7qPK5dAzs85Q9tLg58ILakORVZCKTm5e7F6V5wpaIk1wLSCYY5my97FIsu1c041AEqT3lfS1lo-hLKtJqFUjHAbml9ODbSHStDLN2isYzpUTSLAAiHIgv4e5Zb7HIxLSBAMYKnbzjGke_UwSd8qAuXTv8HtDRSDozj04DUMkLkW5HYYd5CU9cRh2ERYSazPMfqdZYVdvXNI8GvXiHgtz0GSm-JI_CphMmK9iGJAjEq9agljJNHvetMI3oF-uJA_UCMrjh-e5bhn1YiisOQDqcjTd_qJ2aPXgamUccUklhc0IQm6ubfj9AOgMZmm3-4KTkZl4zbW6xxHpbY_040]--></g></svg>