<?xml version="1.0" encoding="us-ascii" standalone="no"?><svg xmlns="http://www.w3.org/2000/svg" xmlns:xlink="http://www.w3.org/1999/xlink" contentStyleType="text/css" height="433px" preserveAspectRatio="none" style="width:541px;height:433px;background:#FFFFFF;" version="1.1" viewBox="0 0 541 433" width="541px" zoomAndPan="magnify"><defs/><g><!--cluster CampusUniversitario--><g id="cluster_CampusUniversitario"><path d="M8.5,102 L155.5,102 A3.75,3.75 0 0 1 158,104.5 L165,127.0679 L165.5,127.0679 A2.5,2.5 0 0 1 168,129.5679 L168,328.5 A2.5,2.5 0 0 1 165.5,331 L8.5,331 A2.5,2.5 0 0 1 6,328.5 L6,104.5 A2.5,2.5 0 0 1 8.5,102 " fill="none" style="stroke:#000000;stroke-width:1.5;"/><line style="stroke:#000000;stroke-width:1.5;" x1="6" x2="165" y1="127.0679" y2="127.0679"/><text fill="#000000" font-family="sans-serif" font-size="14" font-weight="bold" lengthAdjust="spacing" textLength="146" x="10" y="118.9659">CampusUniversitario</text></g><!--class Edificio--><g id="elem_Edificio"><rect fill="#F1F1F1" height="48" id="Edificio" rx="2.5" ry="2.5" style="stroke:#181818;stroke-width:0.5;" width="81" x="68.5" y="267"/><ellipse cx="83.5" cy="283" fill="#ADD1B2" rx="11" ry="11" style="stroke:#181818;stroke-width:1.0;"/><path d="M86.4688,288.6406 Q85.8906,288.9375 85.25,289.0781 Q84.6094,289.2344 83.9063,289.2344 Q81.4063,289.2344 80.0781,287.5938 Q78.7656,285.9375 78.7656,282.8125 Q78.7656,279.6875 80.0781,278.0313 Q81.4063,276.375 83.9063,276.375 Q84.6094,276.375 85.25,276.5313 Q85.9063,276.6875 86.4688,276.9844 L86.4688,279.7031 Q85.8438,279.125 85.25,278.8594 Q84.6563,278.5781 84.0313,278.5781 Q82.6875,278.5781 82,279.6563 Q81.3125,280.7188 81.3125,282.8125 Q81.3125,284.9063 82,285.9844 Q82.6875,287.0469 84.0313,287.0469 Q84.6563,287.0469 85.25,286.7813 Q85.8438,286.5 86.4688,285.9219 L86.4688,288.6406 Z " fill="#000000"/><text fill="#000000" font-family="sans-serif" font-size="14" lengthAdjust="spacing" textLength="49" x="97.5" y="288.432">Edificio</text><line style="stroke:#181818;stroke-width:0.5;" x1="69.5" x2="148.5" y1="299" y2="299"/><line style="stroke:#181818;stroke-width:0.5;" x1="69.5" x2="148.5" y1="307" y2="307"/></g><!--class Aula--><g id="elem_Aula"><rect fill="#F1F1F1" height="48" id="Aula" rx="2.5" ry="2.5" style="stroke:#181818;stroke-width:0.5;" width="62" x="88" y="140"/><ellipse cx="103" cy="156" fill="#ADD1B2" rx="11" ry="11" style="stroke:#181818;stroke-width:1.0;"/><path d="M105.9688,161.6406 Q105.3906,161.9375 104.75,162.0781 Q104.1094,162.2344 103.4063,162.2344 Q100.9063,162.2344 99.5781,160.5938 Q98.2656,158.9375 98.2656,155.8125 Q98.2656,152.6875 99.5781,151.0313 Q100.9063,149.375 103.4063,149.375 Q104.1094,149.375 104.75,149.5313 Q105.4063,149.6875 105.9688,149.9844 L105.9688,152.7031 Q105.3438,152.125 104.75,151.8594 Q104.1563,151.5781 103.5313,151.5781 Q102.1875,151.5781 101.5,152.6563 Q100.8125,153.7188 100.8125,155.8125 Q100.8125,157.9063 101.5,158.9844 Q102.1875,160.0469 103.5313,160.0469 Q104.1563,160.0469 104.75,159.7813 Q105.3438,159.5 105.9688,158.9219 L105.9688,161.6406 Z " fill="#000000"/><text fill="#000000" font-family="sans-serif" font-size="14" lengthAdjust="spacing" textLength="30" x="117" y="161.432">Aula</text><line style="stroke:#181818;stroke-width:0.5;" x1="89" x2="149" y1="172" y2="172"/><line style="stroke:#181818;stroke-width:0.5;" x1="89" x2="149" y1="180" y2="180"/></g><!--class Profesor--><g id="elem_Profesor"><rect fill="#F1F1F1" height="48" id="Profesor" rx="2.5" ry="2.5" style="stroke:#181818;stroke-width:0.5;" width="88" x="216" y="140"/><ellipse cx="231" cy="156" fill="#ADD1B2" rx="11" ry="11" style="stroke:#181818;stroke-width:1.0;"/><path d="M233.9688,161.6406 Q233.3906,161.9375 232.75,162.0781 Q232.1094,162.2344 231.4063,162.2344 Q228.9063,162.2344 227.5781,160.5938 Q226.2656,158.9375 226.2656,155.8125 Q226.2656,152.6875 227.5781,151.0313 Q228.9063,149.375 231.4063,149.375 Q232.1094,149.375 232.75,149.5313 Q233.4063,149.6875 233.9688,149.9844 L233.9688,152.7031 Q233.3438,152.125 232.75,151.8594 Q232.1563,151.5781 231.5313,151.5781 Q230.1875,151.5781 229.5,152.6563 Q228.8125,153.7188 228.8125,155.8125 Q228.8125,157.9063 229.5,158.9844 Q230.1875,160.0469 231.5313,160.0469 Q232.1563,160.0469 232.75,159.7813 Q233.3438,159.5 233.9688,158.9219 L233.9688,161.6406 Z " fill="#000000"/><text fill="#000000" font-family="sans-serif" font-size="14" lengthAdjust="spacing" textLength="56" x="245" y="161.432">Profesor</text><line style="stroke:#181818;stroke-width:0.5;" x1="217" x2="303" y1="172" y2="172"/><line style="stroke:#181818;stroke-width:0.5;" x1="217" x2="303" y1="180" y2="180"/></g><!--class Curso--><g id="elem_Curso"><rect fill="#F1F1F1" height="48" id="Curso" rx="2.5" ry="2.5" style="stroke:#181818;stroke-width:0.5;" width="71" x="329.5" y="267"/><ellipse cx="344.5" cy="283" fill="#ADD1B2" rx="11" ry="11" style="stroke:#181818;stroke-width:1.0;"/><path d="M347.4688,288.6406 Q346.8906,288.9375 346.25,289.0781 Q345.6094,289.2344 344.9063,289.2344 Q342.4063,289.2344 341.0781,287.5938 Q339.7656,285.9375 339.7656,282.8125 Q339.7656,279.6875 341.0781,278.0313 Q342.4063,276.375 344.9063,276.375 Q345.6094,276.375 346.25,276.5313 Q346.9063,276.6875 347.4688,276.9844 L347.4688,279.7031 Q346.8438,279.125 346.25,278.8594 Q345.6563,278.5781 345.0313,278.5781 Q343.6875,278.5781 343,279.6563 Q342.3125,280.7188 342.3125,282.8125 Q342.3125,284.9063 343,285.9844 Q343.6875,287.0469 345.0313,287.0469 Q345.6563,287.0469 346.25,286.7813 Q346.8438,286.5 347.4688,285.9219 L347.4688,288.6406 Z " fill="#000000"/><text fill="#000000" font-family="sans-serif" font-size="14" lengthAdjust="spacing" textLength="39" x="358.5" y="288.432">Curso</text><line style="stroke:#181818;stroke-width:0.5;" x1="330.5" x2="399.5" y1="299" y2="299"/><line style="stroke:#181818;stroke-width:0.5;" x1="330.5" x2="399.5" y1="307" y2="307"/></g><!--class Programa--><g id="elem_Programa"><rect fill="#F1F1F1" height="48" id="Programa" rx="2.5" ry="2.5" style="stroke:#181818;stroke-width:0.5;" width="98" x="436" y="267"/><ellipse cx="451" cy="283" fill="#ADD1B2" rx="11" ry="11" style="stroke:#181818;stroke-width:1.0;"/><path d="M453.9688,288.6406 Q453.3906,288.9375 452.75,289.0781 Q452.1094,289.2344 451.4063,289.2344 Q448.9063,289.2344 447.5781,287.5938 Q446.2656,285.9375 446.2656,282.8125 Q446.2656,279.6875 447.5781,278.0313 Q448.9063,276.375 451.4063,276.375 Q452.1094,276.375 452.75,276.5313 Q453.4063,276.6875 453.9688,276.9844 L453.9688,279.7031 Q453.3438,279.125 452.75,278.8594 Q452.1563,278.5781 451.5313,278.5781 Q450.1875,278.5781 449.5,279.6563 Q448.8125,280.7188 448.8125,282.8125 Q448.8125,284.9063 449.5,285.9844 Q450.1875,287.0469 451.5313,287.0469 Q452.1563,287.0469 452.75,286.7813 Q453.3438,286.5 453.9688,285.9219 L453.9688,288.6406 Z " fill="#000000"/><text fill="#000000" font-family="sans-serif" font-size="14" lengthAdjust="spacing" textLength="66" x="465" y="288.432">Programa</text><line style="stroke:#181818;stroke-width:0.5;" x1="437" x2="533" y1="299" y2="299"/><line style="stroke:#181818;stroke-width:0.5;" x1="437" x2="533" y1="307" y2="307"/></g><!--class Horario--><g id="elem_Horario"><rect fill="#F1F1F1" height="48" id="Horario" rx="2.5" ry="2.5" style="stroke:#181818;stroke-width:0.5;" width="82" x="219" y="7"/><ellipse cx="234" cy="23" fill="#ADD1B2" rx="11" ry="11" style="stroke:#181818;stroke-width:1.0;"/><path d="M236.9688,28.6406 Q236.3906,28.9375 235.75,29.0781 Q235.1094,29.2344 234.4063,29.2344 Q231.9063,29.2344 230.5781,27.5938 Q229.2656,25.9375 229.2656,22.8125 Q229.2656,19.6875 230.5781,18.0313 Q231.9063,16.375 234.4063,16.375 Q235.1094,16.375 235.75,16.5313 Q236.4063,16.6875 236.9688,16.9844 L236.9688,19.7031 Q236.3438,19.125 235.75,18.8594 Q235.1563,18.5781 234.5313,18.5781 Q233.1875,18.5781 232.5,19.6563 Q231.8125,20.7188 231.8125,22.8125 Q231.8125,24.9063 232.5,25.9844 Q233.1875,27.0469 234.5313,27.0469 Q235.1563,27.0469 235.75,26.7813 Q236.3438,26.5 236.9688,25.9219 L236.9688,28.6406 Z " fill="#000000"/><text fill="#000000" font-family="sans-serif" font-size="14" lengthAdjust="spacing" textLength="50" x="248" y="28.432">Horario</text><line style="stroke:#181818;stroke-width:0.5;" x1="220" x2="300" y1="39" y2="39"/><line style="stroke:#181818;stroke-width:0.5;" x1="220" x2="300" y1="47" y2="47"/></g><!--class Recurso--><g id="elem_Recurso"><rect fill="#F1F1F1" height="48" id="Recurso" rx="2.5" ry="2.5" style="stroke:#181818;stroke-width:0.5;" width="86" x="185" y="267"/><ellipse cx="200" cy="283" fill="#ADD1B2" rx="11" ry="11" style="stroke:#181818;stroke-width:1.0;"/><path d="M202.9688,288.6406 Q202.3906,288.9375 201.75,289.0781 Q201.1094,289.2344 200.4063,289.2344 Q197.9063,289.2344 196.5781,287.5938 Q195.2656,285.9375 195.2656,282.8125 Q195.2656,279.6875 196.5781,278.0313 Q197.9063,276.375 200.4063,276.375 Q201.1094,276.375 201.75,276.5313 Q202.4063,276.6875 202.9688,276.9844 L202.9688,279.7031 Q202.3438,279.125 201.75,278.8594 Q201.1563,278.5781 200.5313,278.5781 Q199.1875,278.5781 198.5,279.6563 Q197.8125,280.7188 197.8125,282.8125 Q197.8125,284.9063 198.5,285.9844 Q199.1875,287.0469 200.5313,287.0469 Q201.1563,287.0469 201.75,286.7813 Q202.3438,286.5 202.9688,285.9219 L202.9688,288.6406 Z " fill="#000000"/><text fill="#000000" font-family="sans-serif" font-size="14" lengthAdjust="spacing" textLength="54" x="214" y="288.432">Recurso</text><line style="stroke:#181818;stroke-width:0.5;" x1="186" x2="270" y1="299" y2="299"/><line style="stroke:#181818;stroke-width:0.5;" x1="186" x2="270" y1="307" y2="307"/></g><!--class BloqueHorario--><g id="elem_BloqueHorario"><rect fill="#F1F1F1" height="48" id="BloqueHorario" rx="2.5" ry="2.5" style="stroke:#181818;stroke-width:0.5;" width="129" x="300.5" y="378"/><ellipse cx="315.5" cy="394" fill="#ADD1B2" rx="11" ry="11" style="stroke:#181818;stroke-width:1.0;"/><path d="M318.4688,399.6406 Q317.8906,399.9375 317.25,400.0781 Q316.6094,400.2344 315.9063,400.2344 Q313.4063,400.2344 312.0781,398.5938 Q310.7656,396.9375 310.7656,393.8125 Q310.7656,390.6875 312.0781,389.0313 Q313.4063,387.375 315.9063,387.375 Q316.6094,387.375 317.25,387.5313 Q317.9063,387.6875 318.4688,387.9844 L318.4688,390.7031 Q317.8438,390.125 317.25,389.8594 Q316.6563,389.5781 316.0313,389.5781 Q314.6875,389.5781 314,390.6563 Q313.3125,391.7188 313.3125,393.8125 Q313.3125,395.9063 314,396.9844 Q314.6875,398.0469 316.0313,398.0469 Q316.6563,398.0469 317.25,397.7813 Q317.8438,397.5 318.4688,396.9219 L318.4688,399.6406 Z " fill="#000000"/><text fill="#000000" font-family="sans-serif" font-size="14" lengthAdjust="spacing" textLength="97" x="329.5" y="399.432">BloqueHorario</text><line style="stroke:#181818;stroke-width:0.5;" x1="301.5" x2="428.5" y1="410" y2="410"/><line style="stroke:#181818;stroke-width:0.5;" x1="301.5" x2="428.5" y1="418" y2="418"/></g><!--link Profesor to Curso--><g id="link_Profesor_Curso"><path codeLine="2" d="M275.68,188.01 C285.84,202.46 299.62,221.28 313,237 C321.69,247.21 331.9,257.87 340.96,266.93 " fill="none" id="Profesor-Curso" style="stroke:#181818;stroke-width:1.0;"/><text fill="#000000" font-family="sans-serif" font-size="13" lengthAdjust="spacing" textLength="47" x="314" y="232.897">imparte</text></g><!--link Curso to Programa--><g id="link_Curso_Programa"><path codeLine="4" d="M400.62,291 C412.38,291 412.14,291 423.89,291 " fill="none" id="Curso-to-Programa" style="stroke:#181818;stroke-width:1.0;"/><polygon fill="#181818" points="435.89,291,429.89,287,423.89,291,429.89,295,435.89,291" style="stroke:#181818;stroke-width:1.0;"/></g><!--link Aula to Edificio--><g id="link_Aula_Edificio"><path codeLine="7" d="M116.08,188.19 C115,197.45 113.82,208.22 113,218 C111.62,234.34 111.178,240.8234 110.508,254.9634 " fill="none" id="Aula-to-Edificio" style="stroke:#181818;stroke-width:1.0;"/><polygon fill="#181818" points="109.94,266.95,114.2195,261.146,110.508,254.9634,106.2285,260.7674,109.94,266.95" style="stroke:#181818;stroke-width:1.0;"/></g><!--reverse link Horario to Aula--><g id="link_Horario_Aula"><path codeLine="10" d="M226.3282,63.2873 C200.7082,87.0873 169.81,115.8 144.11,139.67 " fill="none" id="Horario-backto-Aula" style="stroke:#181818;stroke-width:1.0;"/><polygon fill="none" points="235.12,55.12,228.0017,56.273,226.3282,63.2873,233.4465,62.1342,235.12,55.12" style="stroke:#181818;stroke-width:1.0;"/></g><!--reverse link Horario to Curso--><g id="link_Horario_Curso"><path codeLine="11" d="M296.9712,63.2247 C308.7212,74.0347 312.9,79.58 322,94 C353.22,143.45 356.08,160.37 366,218 C367.43,226.32 366.08,228.56 366,237 C365.91,246.75 365.72,257.52 365.53,266.78 " fill="none" id="Horario-backto-Curso" style="stroke:#181818;stroke-width:1.0;"/><polygon fill="none" points="288.14,55.1,289.8474,62.1061,296.9712,63.2247,295.2638,56.2186,288.14,55.1" style="stroke:#181818;stroke-width:1.0;"/></g><!--reverse link Horario to Profesor--><g id="link_Horario_Profesor"><path codeLine="12" d="M260,67.12 C260,90.92 260,115.8 260,139.67 " fill="none" id="Horario-backto-Profesor" style="stroke:#181818;stroke-width:1.0;"/><polygon fill="none" points="260,55.12,256,61.12,260,67.12,264,61.12,260,55.12" style="stroke:#181818;stroke-width:1.0;"/></g><!--link Profesor to Recurso--><g id="link_Profesor_Recurso"><path codeLine="14" d="M240.57,188.03 C234.33,196.83 228.2,207.33 225,218 C220.25,233.82 220.3602,246.5191 222.3902,260.8791 " fill="none" id="Profesor-to-Recurso" style="stroke:#181818;stroke-width:1.0;stroke-dasharray:7.0,7.0;"/><polygon fill="#181818" points="223.23,266.82,225.9309,257.3487,222.5301,261.8692,218.0096,258.4685,223.23,266.82" style="stroke:#181818;stroke-width:1.0;"/><text fill="#000000" font-family="sans-serif" font-size="13" lengthAdjust="spacing" textLength="46" x="226" y="232.897">prefiere</text></g><!--link Aula to Recurso--><g id="link_Aula_Recurso"><path codeLine="15" d="M135.3,188.03 C145.85,202.5 160.15,221.32 174,237 C183.04,247.24 189.3254,253.7509 198.7354,262.8009 " fill="none" id="Aula-to-Recurso" style="stroke:#181818;stroke-width:1.0;stroke-dasharray:7.0,7.0;"/><polygon fill="#181818" points="203.06,266.96,199.3459,257.8383,199.4562,263.4941,193.8004,263.6044,203.06,266.96" style="stroke:#181818;stroke-width:1.0;"/><text fill="#000000" font-family="sans-serif" font-size="13" lengthAdjust="spacing" textLength="37" x="175" y="232.897">ofrece</text></g><!--link Curso to BloqueHorario--><g id="link_Curso_BloqueHorario"><path codeLine="17" d="M365,315.12 C365,333.61 365,359.43 365,377.92 " fill="none" id="Curso-BloqueHorario" style="stroke:#181818;stroke-width:1.0;stroke-dasharray:7.0,7.0;"/></g><!--SRC=[NO_12i8m38RlUOgS1-q3U11q21w7u0E4BXt5rTHqzIA-krCxHNDAllpy-TEfUCwYQ7g3RT4ikC8G4-d406zWr3JOgGnAaG0IkHCDZ2t5LFBn7AwiEKoaGV06EDUk3pwuUMnCCRWf8y4TO2_wqeYfx0kMsp-QhaO3M3gqTeq7TZLcKlQ1bU7fzhSJh-m-7rYBsr4kXQi_m0C0]--></g></svg>