<?xml version="1.0" encoding="us-ascii" standalone="no"?><svg xmlns="http://www.w3.org/2000/svg" xmlns:xlink="http://www.w3.org/1999/xlink" contentStyleType="text/css" height="547px" preserveAspectRatio="none" style="width:891px;height:547px;background:#FFFFFF;" version="1.1" viewBox="0 0 891 547" width="891px" zoomAndPan="magnify"><defs/><g><!--cluster editarEdificio--><g id="cluster_editarEdificio"><path d="M8.5,111 L110.5,111 A3.75,3.75 0 0 1 113,113.5 L120,136.0679 L658.5,136.0679 A2.5,2.5 0 0 1 661,138.5679 L661,537.5 A2.5,2.5 0 0 1 658.5,540 L8.5,540 A2.5,2.5 0 0 1 6,537.5 L6,113.5 A2.5,2.5 0 0 1 8.5,111 " fill="none" style="stroke:#000000;stroke-width:1.5;"/><line style="stroke:#000000;stroke-width:1.5;" x1="6" x2="120" y1="136.0679" y2="136.0679"/><text fill="#000000" font-family="sans-serif" font-size="14" font-weight="bold" lengthAdjust="spacing" textLength="101" x="10" y="127.9659">editarEdificio()</text></g><!--entity EditarEdificioView--><g id="elem_EditarEdificioView"><rect fill="#629EF9" height="39.0679" rx="2.5" ry="2.5" style="stroke:#181818;stroke-width:0.5;" width="140" x="292" y="149"/><text fill="#000000" font-family="sans-serif" font-size="14" lengthAdjust="spacing" textLength="120" x="302" y="173.9659">EditarEdificioView</text></g><!--entity EdificioController--><g id="elem_EdificioController"><rect fill="#B5BD68" height="39.0679" rx="2.5" ry="2.5" style="stroke:#181818;stroke-width:0.5;" width="136" x="123" y="267"/><text fill="#000000" font-family="sans-serif" font-size="14" lengthAdjust="spacing" textLength="116" x="133" y="291.9659">EdificioController</text></g><!--entity EdificioRepository--><g id="elem_EdificioRepository"><rect fill="#F2AC4E" height="39.0679" rx="2.5" ry="2.5" style="stroke:#181818;stroke-width:0.5;" width="140" x="131" y="385"/><text fill="#000000" font-family="sans-serif" font-size="14" lengthAdjust="spacing" textLength="120" x="141" y="409.9659">EdificioRepository</text></g><!--entity Edificio--><g id="elem_Edificio"><rect fill="#F2AC4E" height="39.0679" rx="2.5" ry="2.5" style="stroke:#181818;stroke-width:0.5;" width="69" x="166.5" y="485"/><text fill="#000000" font-family="sans-serif" font-size="14" lengthAdjust="spacing" textLength="49" x="176.5" y="509.9659">Edificio</text></g><!--entity EdificiosAbierto--><g id="elem_EdificiosAbierto"><rect fill="#CDEBA5" height="39.0679" rx="2.5" ry="2.5" style="stroke:#181818;stroke-width:0.5;" width="133" x="114.5" y="7"/><text fill="#000000" font-family="sans-serif" font-size="14" lengthAdjust="spacing" textLength="113" x="124.5" y="31.9659">:Edificios Abierto</text></g><!--entity EdificioAbierto--><g id="elem_EdificioAbierto"><rect fill="#CDEBA5" height="39.0679" rx="2.5" ry="2.5" style="stroke:#181818;stroke-width:0.5;" width="126" x="299" y="7"/><text fill="#000000" font-family="sans-serif" font-size="14" lengthAdjust="spacing" textLength="106" x="309" y="31.9659">:Edificio Abierto</text></g><!--entity CrearEdificio--><g id="elem_CrearEdificio"><rect fill="#CDEBA5" height="39.0679" rx="2.5" ry="2.5" style="stroke:#181818;stroke-width:0.5;" width="204" x="460" y="7"/><text fill="#000000" font-family="sans-serif" font-size="14" lengthAdjust="spacing" textLength="184" x="470" y="31.9659">:Collaboration CrearEdificio</text></g><!--entity AbrirEdificios--><g id="elem_AbrirEdificios"><rect fill="#CDEBA5" height="39.0679" rx="2.5" ry="2.5" style="stroke:#181818;stroke-width:0.5;" width="208" x="677" y="267"/><text fill="#000000" font-family="sans-serif" font-size="14" lengthAdjust="spacing" textLength="188" x="687" y="291.9659">:Collaboration AbrirEdificios</text></g><!--link EdificiosAbierto to EditarEdificioView--><g id="link_EdificiosAbierto_EditarEdificioView"><path d="M189.91,46.3 C199.38,66.28 213,95 213,95 C213,95 274.0847,124.725 318.2347,146.205 " fill="none" id="EdificiosAbierto-to-EditarEdificioView" style="stroke:#181818;stroke-width:1.0;"/><polygon fill="#181818" points="323.63,148.83,317.287,141.2957,319.1339,146.6425,313.787,148.4895,323.63,148.83" style="stroke:#181818;stroke-width:1.0;"/><text fill="#000000" font-family="sans-serif" font-size="13" lengthAdjust="spacing" textLength="139" x="214" y="90.897">editarEdificio(edificioId)</text></g><!--link EdificioAbierto to EditarEdificioView--><g id="link_EdificioAbierto_EditarEdificioView"><path d="M362,46.09 C362,72.87 362,116.01 362,142.83 " fill="none" id="EdificioAbierto-to-EditarEdificioView" style="stroke:#181818;stroke-width:1.0;"/><polygon fill="#181818" points="362,148.83,366,139.83,362,143.83,358,139.83,362,148.83" style="stroke:#181818;stroke-width:1.0;"/><text fill="#000000" font-family="sans-serif" font-size="13" lengthAdjust="spacing" textLength="139" x="363" y="90.897">editarEdificio(edificioId)</text></g><!--link CrearEdificio to EditarEdificioView--><g id="link_CrearEdificio_EditarEdificioView"><path d="M547.79,46.3 C532.7,66.28 511,95 511,95 C511,95 449.9153,124.725 405.7653,146.205 " fill="none" id="CrearEdificio-to-EditarEdificioView" style="stroke:#181818;stroke-width:1.0;"/><polygon fill="#181818" points="400.37,148.83,410.213,148.4895,404.8661,146.6425,406.713,141.2957,400.37,148.83" style="stroke:#181818;stroke-width:1.0;"/><text fill="#000000" font-family="sans-serif" font-size="13" lengthAdjust="spacing" textLength="167" x="525" y="90.897">editarEdificio(edificioNuevo)</text></g><!--link EditarEdificioView to EdificioController--><g id="link_EditarEdificioView_EdificioController"><path d="M291.72,180.57 C200.82,194.88 54,218 54,218 C54,218 54,237 54,237 C54,237 94.1342,251.2071 132.7642,264.8871 " fill="none" id="EditarEdificioView-to-EdificioController" style="stroke:#181818;stroke-width:1.0;"/><polygon fill="#181818" points="138.42,266.89,131.2715,260.1151,133.7068,265.2209,128.601,267.6562,138.42,266.89" style="stroke:#181818;stroke-width:1.0;"/><text fill="#000000" font-family="sans-serif" font-size="13" lengthAdjust="spacing" textLength="263" x="55" y="232.897">cargarEdificioParaEdici&#243;n(edificioId) : Edificio</text></g><!--link EditarEdificioView to EdificioController--><g id="link_EditarEdificioView_EdificioController"><path d="M351.14,188.3 C339.6,208.28 323,237 323,237 C323,237 284.5117,251.1401 247.2917,264.8201 " fill="none" id="EditarEdificioView-to-EdificioController-1" style="stroke:#181818;stroke-width:1.0;"/><polygon fill="#181818" points="241.66,266.89,251.4874,267.5396,246.353,265.1651,248.7276,260.0307,241.66,266.89" style="stroke:#181818;stroke-width:1.0;"/><text fill="#000000" font-family="sans-serif" font-size="13" lengthAdjust="spacing" textLength="281" x="335" y="232.897">modificarCampos(edificioId, cambios) : boolean</text></g><!--link EdificioController to EdificioRepository--><g id="link_EdificioController_EdificioRepository"><path d="M144.95,306.11 C111.11,319.79 71,336 71,336 C71,336 71,355 71,355 C71,355 108.8286,369.1123 145.4886,382.7923 " fill="none" id="EdificioController-to-EdificioRepository" style="stroke:#181818;stroke-width:1.0;"/><polygon fill="#181818" points="151.11,384.89,144.0764,377.9959,146.4255,383.1419,141.2795,385.4911,151.11,384.89" style="stroke:#181818;stroke-width:1.0;"/><text fill="#000000" font-family="sans-serif" font-size="13" lengthAdjust="spacing" textLength="194" x="72" y="350.897">obtenerPorId(edificioId) : Edificio</text></g><!--link EdificioController to EdificioRepository--><g id="link_EdificioController_EdificioRepository"><path d="M221.7,306.11 C244.26,319.79 271,336 271,336 C271,336 271,355 271,355 C271,355 252.5315,367.7924 232.7915,381.4724 " fill="none" id="EdificioController-to-EdificioRepository-1" style="stroke:#181818;stroke-width:1.0;"/><polygon fill="#181818" points="227.86,384.89,237.5357,383.0513,231.9696,382.042,232.9789,376.4759,227.86,384.89" style="stroke:#181818;stroke-width:1.0;"/><text fill="#000000" font-family="sans-serif" font-size="13" lengthAdjust="spacing" textLength="165" x="272" y="350.897">actualizar(edificio) : boolean</text></g><!--link EdificioRepository to Edificio--><g id="link_EdificioRepository_Edificio"><path d="M201,424.4 C201,441.86 201,467.66 201,484.99 " fill="none" id="EdificioRepository-Edificio" style="stroke:#181818;stroke-width:1.0;"/></g><!--link EditarEdificioView to AbrirEdificios--><g id="link_EditarEdificioView_AbrirEdificios"><path d="M432.13,182.43 C510.04,196.8 625,218 625,218 C625,218 686.2733,244.5175 732.4533,264.4975 " fill="none" id="EditarEdificioView-to-AbrirEdificios" style="stroke:#181818;stroke-width:1.0;stroke-dasharray:7.0,7.0;"/><polygon fill="#181818" points="737.96,266.88,731.2883,259.6351,733.3711,264.8946,728.1116,266.9774,737.96,266.88" style="stroke:#181818;stroke-width:1.0;"/><text fill="#000000" font-family="sans-serif" font-size="13" lengthAdjust="spacing" textLength="144" x="667" y="232.897">&#171;include&#187; abrirEdificios()</text></g><!--SRC=[dPFFJeD04CRl-nIJUYc9xQ6nZIKD2I9DUZ6D1-y3ZCscoovPjffgV2eVmHSJiF9dMz7A2Jw- -UqtCv1lkSnGOmg2IpBxZ21JOby-CAOfDYWtWk0Yk0rl_2aCt33XZppcAWS_ugID6W3cKAi7iRVqP6LVOQ24m4XfD5n923IX_Ywh61tb3mG_qhpsvnMYAp6MORp53G4bt3JiqZdeIaDd0AyCYgjrxcmo3vVpihUMyu7JissCfb4okww742XfT16Lj6rSJlpWAgoDzvIfd1kbzxyOsHjZzd9WDF9EP7EjPeTqk5ab3hFMz1z4Pqld0kvszAISgXUh14R95ygQe0inwatZNHTVUN4VyuztsSu5RZCiTepv3cgDtGKL6PAarqglaZxUKTmVqgQg4b47c1Qdj92NHITfLEolP4TA2K9vLbICpGu5Vq5TKq-Ycfe2rT_5UEnP_umBYmMNiTWbv7c0dNT3Xtq2]--></g></svg>