<?xml version="1.0" encoding="us-ascii" standalone="no"?><svg xmlns="http://www.w3.org/2000/svg" xmlns:xlink="http://www.w3.org/1999/xlink" contentStyleType="text/css" height="841px" preserveAspectRatio="none" style="width:1199px;height:841px;background:#FFFFFF;" version="1.1" viewBox="0 0 1199 841" width="1199px" zoomAndPan="magnify"><defs/><g><g id="VerificarDependencias"><rect fill="#FFB6C1" height="150.7529" rx="12.5" ry="12.5" style="stroke:#FF0000;stroke-width:1.0;" width="277" x="142.5" y="685"/><line style="stroke:#FF0000;stroke-width:1.0;" x1="142.5" x2="419.5" y1="711.3441" y2="711.3441"/><text fill="#000000" font-family="Arial" font-size="12" lengthAdjust="spacing" textLength="170" x="196" y="702.8281">Sistema verifica dependencias</text><text fill="#000000" font-family="Arial" font-size="12" lengthAdjust="spacing" textLength="171" x="147.5" y="729.1722">&#8226; Cursos asignados al profesor</text><text fill="#000000" font-family="Arial" font-size="12" lengthAdjust="spacing" textLength="257" x="147.5" y="745.5163">&#8226; Horarios generados que incluyen al profesor</text><text fill="#000000" font-family="Arial" font-size="12" lengthAdjust="spacing" textLength="226" x="147.5" y="761.8604">&#8226; Preferencias configuradas del profesor</text><text fill="#000000" font-family="Arial" font-size="12" lengthAdjust="spacing" textLength="8" x="147.5" y="778.2045">--</text><text fill="#000000" font-family="Arial" font-size="12" lengthAdjust="spacing" textLength="88" x="147.5" y="794.5487">Sistema eval&#250;a:</text><text fill="#000000" font-family="Arial" font-size="12" lengthAdjust="spacing" textLength="138" x="147.5" y="810.8928">&#8226; Impacto de eliminaci&#243;n</text><text fill="#000000" font-family="Arial" font-size="12" lengthAdjust="spacing" textLength="131" x="147.5" y="827.2369">&#8226; Dependencias cr&#237;ticas</text></g><g id="PresentarConfirmacion"><rect fill="#FFB6C1" height="150.7529" rx="12.5" ry="12.5" style="stroke:#FF0000;stroke-width:1.0;" width="284" x="634" y="12"/><line style="stroke:#FF0000;stroke-width:1.0;" x1="634" x2="918" y1="38.3441" y2="38.3441"/><text fill="#000000" font-family="Arial" font-size="12" lengthAdjust="spacing" textLength="258" x="647" y="29.8281">Sistema presenta confirmaci&#243;n de eliminaci&#243;n</text><text fill="#000000" font-family="Arial" font-size="12" lengthAdjust="spacing" textLength="171" x="639" y="56.1722">&#8226; Datos del profesor a eliminar</text><text fill="#000000" font-family="Arial" font-size="12" lengthAdjust="spacing" textLength="264" x="639" y="72.5163">&#8226; Advertencia sobre dependencias encontradas</text><text fill="#000000" font-family="Arial" font-size="12" lengthAdjust="spacing" textLength="189" x="639" y="88.8604">&#8226; Consecuencias de la eliminaci&#243;n</text><text fill="#000000" font-family="Arial" font-size="12" lengthAdjust="spacing" textLength="8" x="639" y="105.2045">--</text><text fill="#000000" font-family="Arial" font-size="12" lengthAdjust="spacing" textLength="142" x="639" y="121.5487">Sistema permite solicitar:</text><text fill="#000000" font-family="Arial" font-size="12" lengthAdjust="spacing" textLength="132" x="639" y="137.8928">&#8226; Confirmar eliminaci&#243;n</text><text fill="#000000" font-family="Arial" font-size="12" lengthAdjust="spacing" textLength="125" x="639" y="154.2369">&#8226; Cancelar eliminaci&#243;n</text></g><g id="EliminarProfesor"><rect fill="#FFB6C1" height="150.7529" rx="12.5" ry="12.5" style="stroke:#FF0000;stroke-width:1.0;" width="281" x="635.5" y="242"/><line style="stroke:#FF0000;stroke-width:1.0;" x1="635.5" x2="916.5" y1="268.3441" y2="268.3441"/><text fill="#000000" font-family="Arial" font-size="12" lengthAdjust="spacing" textLength="230" x="661" y="259.8281">Sistema elimina profesor y dependencias</text><text fill="#000000" font-family="Arial" font-size="12" lengthAdjust="spacing" textLength="205" x="640.5" y="286.1722">&#8226; Elimina dependencias relacionadas</text><text fill="#000000" font-family="Arial" font-size="12" lengthAdjust="spacing" textLength="211" x="640.5" y="302.5163">&#8226; Elimina profesor de la base de datos</text><text fill="#000000" font-family="Arial" font-size="12" lengthAdjust="spacing" textLength="261" x="640.5" y="318.8604">&#8226; Presenta confirmaci&#243;n de eliminaci&#243;n exitosa</text><text fill="#000000" font-family="Arial" font-size="12" lengthAdjust="spacing" textLength="166" x="640.5" y="335.2045">&#8226; Actualiza lista de profesores</text><text fill="#000000" font-family="Arial" font-size="12" lengthAdjust="spacing" textLength="8" x="640.5" y="351.5487">--</text><text fill="#000000" font-family="Arial" font-size="12" lengthAdjust="spacing" textLength="104" x="640.5" y="367.8928">Sistema mantiene:</text><text fill="#000000" font-family="Arial" font-size="12" lengthAdjust="spacing" textLength="177" x="640.5" y="384.2369">&#8226; Estado PROFESORES_ABIERTO</text></g><g id="MostrarError"><rect fill="#FFB6C1" height="134.4088" rx="12.5" ry="12.5" style="stroke:#FF0000;stroke-width:1.0;" width="269" x="379.5" y="472"/><line style="stroke:#FF0000;stroke-width:1.0;" x1="379.5" x2="648.5" y1="498.3441" y2="498.3441"/><text fill="#000000" font-family="Arial" font-size="12" lengthAdjust="spacing" textLength="198" x="415" y="489.8281">Sistema presenta mensaje de error</text><text fill="#000000" font-family="Arial" font-size="12" lengthAdjust="spacing" textLength="172" x="384.5" y="516.1722">&#8226; Mensaje de error del sistema</text><text fill="#000000" font-family="Arial" font-size="12" lengthAdjust="spacing" textLength="249" x="384.5" y="532.5163">&#8226; Conserva profesor y dependencias intactas</text><text fill="#000000" font-family="Arial" font-size="12" lengthAdjust="spacing" textLength="8" x="384.5" y="548.8604">--</text><text fill="#000000" font-family="Arial" font-size="12" lengthAdjust="spacing" textLength="95" x="384.5" y="565.2045">Sistema permite:</text><text fill="#000000" font-family="Arial" font-size="12" lengthAdjust="spacing" textLength="133" x="384.5" y="581.5487">&#8226; Reintentar eliminaci&#243;n</text><text fill="#000000" font-family="Arial" font-size="12" lengthAdjust="spacing" textLength="117" x="384.5" y="597.8928">&#8226; Cancelar operaci&#243;n</text></g><ellipse cx="315" cy="539" fill="#FFFFFF" rx="10" ry="10" style="stroke:#000000;stroke-width:1.0;"/><ellipse cx="938" cy="760.5" fill="none" rx="11" ry="11" style="stroke:#000000;stroke-width:1.0;"/><ellipse cx="938" cy="760.5" fill="#FFFFFF" rx="6" ry="6" style="stroke:#000000;stroke-width:1.0;"/><g id="elem_GMN16"><path d="M11,507 L11,571.4799 A0,0 0 0 0 11,571.4799 L126.22,571.4799 L221.25,684.98 L134.22,571.4799 L199,571.4799 A0,0 0 0 0 199,571.4799 L199,517 L189,507 L11,507 A0,0 0 0 0 11,507 " fill="#FFFFE0" style="stroke:#FFA500;stroke-width:1.0;"/><path d="M189,507 L189,517 L199,517 L189,507 " fill="#FFFFE0" style="stroke:#FFA500;stroke-width:1.0;"/><text fill="#000000" font-family="Verdana" font-size="10" font-weight="bold" lengthAdjust="spacing" textLength="122" x="17" y="522.69">Verificaci&#243;n exhaustiva:</text><text fill="#000000" font-family="Verdana" font-size="10" lengthAdjust="spacing" textLength="162" x="17" y="536.31">Identifica todas las dependencias</text><text fill="#000000" font-family="Verdana" font-size="10" lengthAdjust="spacing" textLength="167" x="17" y="549.93">antes de proceder con eliminaci&#243;n</text><text fill="#000000" font-family="Verdana" font-size="10" lengthAdjust="spacing" textLength="117" x="17" y="563.55">para informar al usuario</text></g><g id="elem_GMN19"><path d="M953,55.5 L953,83.5 L918.09,87.5 L953,91.5 L953,119.9799 A0,0 0 0 0 953,119.9799 L1131,119.9799 A0,0 0 0 0 1131,119.9799 L1131,65.5 L1121,55.5 L953,55.5 A0,0 0 0 0 953,55.5 " fill="#FFFFE0" style="stroke:#FFA500;stroke-width:1.0;"/><path d="M1121,55.5 L1121,65.5 L1131,65.5 L1121,55.5 " fill="#FFFFE0" style="stroke:#FFA500;stroke-width:1.0;"/><text fill="#000000" font-family="Verdana" font-size="10" font-weight="bold" lengthAdjust="spacing" textLength="100" x="959" y="71.19">Eliminaci&#243;n segura:</text><text fill="#000000" font-family="Verdana" font-size="10" lengthAdjust="spacing" textLength="157" x="959" y="84.81">Confirmaci&#243;n expl&#237;cita requerida</text><text fill="#000000" font-family="Verdana" font-size="10" lengthAdjust="spacing" textLength="155" x="959" y="98.43">con informaci&#243;n completa sobre</text><text fill="#000000" font-family="Verdana" font-size="10" lengthAdjust="spacing" textLength="156" x="959" y="112.05">consecuencias de la eliminaci&#243;n</text></g><g id="elem_GMN22"><path d="M684,507 L684,571.4799 A0,0 0 0 0 684,571.4799 L868,571.4799 A0,0 0 0 0 868,571.4799 L868,517 L858,507 L780,507 L776,393.12 L772,507 L684,507 A0,0 0 0 0 684,507 " fill="#FFFFE0" style="stroke:#FFA500;stroke-width:1.0;"/><path d="M858,507 L858,517 L868,517 L858,507 " fill="#FFFFE0" style="stroke:#FFA500;stroke-width:1.0;"/><text fill="#000000" font-family="Verdana" font-size="10" font-weight="bold" lengthAdjust="spacing" textLength="126" x="690" y="522.69">Operaci&#243;n transaccional:</text><text fill="#000000" font-family="Verdana" font-size="10" lengthAdjust="spacing" textLength="157" x="690" y="536.31">Elimina profesor y dependencias</text><text fill="#000000" font-family="Verdana" font-size="10" lengthAdjust="spacing" textLength="163" x="690" y="549.93">de forma at&#243;mica para garantizar</text><text fill="#000000" font-family="Verdana" font-size="10" lengthAdjust="spacing" textLength="105" x="690" y="563.55">consistencia de datos</text></g><!--link *start* to VerificarDependencias--><g id="link_*start*_VerificarDependencias"><path d="M313.58,549.15 C310.02,572.15 301.328,628.2506 293.468,679.0206 " fill="none" id="*start*-to-VerificarDependencias" style="stroke:#000000;stroke-width:1.0;"/><polygon fill="#000000" points="292.55,684.95,297.8798,676.6679,293.315,680.0089,289.974,675.444,292.55,684.95" style="stroke:#000000;stroke-width:1.0;"/><text fill="#000000" font-family="Verdana" font-size="13" lengthAdjust="spacing" textLength="181" x="302" y="650.897">Actor solicita eliminar profesor</text></g><!--link VerificarDependencias to PresentarConfirmacion--><g id="link_VerificarDependencias_PresentarConfirmacion"><path d="M265.72,684.77 C257.14,624.15 253.92,538.21 287,472 C359.87,326.14 511.8393,221.707 628.4493,158.277 " fill="none" id="VerificarDependencias-to-PresentarConfirmacion" style="stroke:#000000;stroke-width:1.0;"/><polygon fill="#000000" points="633.72,155.41,623.9026,156.1967,629.3277,157.7992,627.7253,163.2243,633.72,155.41" style="stroke:#000000;stroke-width:1.0;"/><text fill="#000000" font-family="Verdana" font-size="13" lengthAdjust="spacing" textLength="150" x="314" y="437.897">Dependencias verificadas</text></g><!--link PresentarConfirmacion to EliminarProfesor--><g id="link_PresentarConfirmacion_EliminarProfesor"><path d="M776,163.16 C776,188.35 776,210.47 776,235.68 " fill="none" id="PresentarConfirmacion-to-EliminarProfesor" style="stroke:#000000;stroke-width:1.0;"/><polygon fill="#000000" points="776,241.68,780,232.68,776,236.68,772,232.68,776,241.68" style="stroke:#000000;stroke-width:1.0;"/><text fill="#000000" font-family="Verdana" font-size="13" lengthAdjust="spacing" textLength="159" x="777" y="207.897">Actor confirma eliminaci&#243;n</text></g><!--link PresentarConfirmacion to *end*--><g id="link_PresentarConfirmacion_*end*"><path d="M915.33,163.27 C926.19,172.37 936.3,182.29 945,193 C1028.14,295.36 1023.21,342.11 1046,472 C1056.29,530.66 1063.97,549.22 1046,606 C1025.45,670.93 970.781,727.9768 949.821,748.2668 " fill="none" id="PresentarConfirmacion-to-*end*" style="stroke:#000000;stroke-width:1.0;"/><polygon fill="#000000" points="945.51,752.44,954.7586,749.0542,949.1025,748.9624,949.1944,743.3062,945.51,752.44" style="stroke:#000000;stroke-width:1.0;"/><text fill="#000000" font-family="Verdana" font-size="13" lengthAdjust="spacing" textLength="150" x="1041" y="437.897">Actor cancela eliminaci&#243;n</text></g><!--link EliminarProfesor to *end*--><g id="link_EliminarProfesor_*end*"><path d="M839.69,393.36 C857.11,417.19 874.37,444.52 886,472 C929.2,574.07 936.3476,705.3431 937.5676,743.3731 " fill="none" id="EliminarProfesor-to-*end*" style="stroke:#000000;stroke-width:1.0;"/><polygon fill="#000000" points="937.76,749.37,941.4694,740.2464,937.5997,744.3726,933.4735,740.5029,937.76,749.37" style="stroke:#000000;stroke-width:1.0;"/><text fill="#000000" font-family="Verdana" font-size="13" lengthAdjust="spacing" textLength="114" x="923" y="544.397">Eliminaci&#243;n exitosa</text></g><!--link EliminarProfesor to MostrarError--><g id="link_EliminarProfesor_MostrarError"><path d="M652.15,393.13 C638.87,402.66 625.89,412.7 614,423 C597.2,437.55 584.6032,450.4177 569.9632,467.2077 " fill="none" id="EliminarProfesor-to-MostrarError" style="stroke:#000000;stroke-width:1.0;"/><polygon fill="#000000" points="566.02,471.73,574.9497,467.5754,569.306,467.9614,568.9199,462.3178,566.02,471.73" style="stroke:#000000;stroke-width:1.0;"/><text fill="#000000" font-family="Verdana" font-size="13" lengthAdjust="spacing" textLength="152" x="615" y="437.897">Error durante eliminaci&#243;n</text></g><!--link MostrarError to VerificarDependencias--><g id="link_MostrarError_VerificarDependencias"><path d="M511.83,606.07 C508.6,623.33 502.64,641 492,655 C473.26,679.65 452.4202,696.0106 424.9202,710.8506 " fill="none" id="MostrarError-to-VerificarDependencias" style="stroke:#000000;stroke-width:1.0;"/><polygon fill="#000000" points="419.64,713.7,429.46,712.946,424.0402,711.3255,425.6607,705.9057,419.64,713.7" style="stroke:#000000;stroke-width:1.0;"/><text fill="#000000" font-family="Verdana" font-size="13" lengthAdjust="spacing" textLength="90" x="504" y="650.897">Actor reintenta</text></g><!--link MostrarError to *end*--><g id="link_MostrarError_*end*"><path d="M641.5,606.01 C748.81,661.56 885.3212,732.2325 923.1012,751.7825 " fill="none" id="MostrarError-to-*end*" style="stroke:#000000;stroke-width:1.0;"/><polygon fill="#000000" points="928.43,754.54,922.2751,746.8512,923.9893,752.2421,918.5985,753.9563,928.43,754.54" style="stroke:#000000;stroke-width:1.0;"/><text fill="#000000" font-family="Verdana" font-size="13" lengthAdjust="spacing" textLength="142" x="727" y="650.897">Actor cancela operaci&#243;n</text></g><!--SRC=[ZLRDRjim3BxdARGU1nJxEGP5WRHBiGBh4YJ3W64O1iPcKgsov55ordOOi6VPlQVUTisRx4b6oJ-97TlDAGx5Z_p4ZwBqp5rZWY9L8FN0taYT0a4Yh0E7ukT0Y3E8RbPaCXsV6sL8l9EhQpUL-iQl6OgHSliCOxPS6EtU0mSSaGHL6ERo7iMhruDVEmcqwOl_2PKoFneP9WHwXRMOBpdc8ETwD9VMOG9YZIINCW8HOuewHXr9i4S2hFXOhD2RdPL0edLbAFxz_YFECxB6CbokDCJ-IucKp1AjeNxaMqD0aX4hr4W1-pr38NMaiZlKXmUQ4YwH2hgHqKkvoZWU_udna1Z7nzrhPTLm3Mhp5uRzJ2wJ529dEAz09HEf8PARHzqFgbKxeis3Op_RebnAQ54xoFT8IHwycIn8EIrSkJLALwE3bAqh1H5mfbup0MLeweUEOcuh5_OWh5aGrhfBy0_tPD2aFmvRB4PP0UETAMXMiWCTHEnOgmg8b4Ykg3LAHfBTXa-o2HOwa4F0W8vGDI7xOXRBsrBVxH_8SL7xQUdZ1MmQyxI5jLvsOYAUML7tVcH59A_w0gmNKSI-AJh1quDQKk2jv2ZG6MOKkGoKl0UXk3n-5nKTR4yUvDutbzLDG3l9OsNOlMtE4nindKqknlF9R3p_EZgx7Cy-JFeENeBQmhTG5oGo55IwCfPRcyRU41JQDUJ9hXguSCXi7hqL4Cu1hJlRWwUauqaJPAsZGs7gfaRx3rippf13XfvkDdiBkxB73OVSTlZdvryu_Md7FJBqAlD6oiDNJPRjX6u7-f3jysnOdvtbpUQxlHtWG-qTgf9OsSBr_NS7yjkji7b5wj2zJ5lKkErqjFhNkek1UVlm_SPgrTFLF9_MWKh1zu5jEzkHUX0U9ywamYpRat3Nd2nEowLobzUGMIVNC3nviJXbbqlsTlbRn1b_NQimysjX_3PjCGyYvBUEbwdPeVx9n2TYQSAivdT3PZF_j1XmfF2IAYYJVpjvqgsYvgHhobZqBucIxtbjnk5jgZOFePC9-U52ClPdsTChgEH-aKbIXQwu5tEF_ZkkmNfXd3E9fzria9pnf596i8myQA8myrL9Uzn_qx07SmY41RZDO-Br21LTWUyodifKiFPp95pnrRrGKVqF]--></g></svg>