<?xml version="1.0" encoding="us-ascii" standalone="no"?><svg xmlns="http://www.w3.org/2000/svg" xmlns:xlink="http://www.w3.org/1999/xlink" contentStyleType="text/css" height="280px" preserveAspectRatio="none" style="width:2397px;height:280px;background:#FFFFFF;" version="1.1" viewBox="0 0 2397 280" width="2397px" zoomAndPan="magnify"><defs/><g><!--cluster View--><g id="cluster_View"><path d="M361,157 L395,157 A3.75,3.75 0 0 1 397.5,159.5 L404.5,182.0679 L652,182.0679 A2.5,2.5 0 0 1 654.5,184.5679 L654.5,269.5 A2.5,2.5 0 0 1 652,272 L361,272 A2.5,2.5 0 0 1 358.5,269.5 L358.5,159.5 A2.5,2.5 0 0 1 361,157 " fill="#FFFFFF" style="stroke:#000000;stroke-width:1.0;"/><line style="stroke:#000000;stroke-width:1.0;" x1="358.5" x2="404.5" y1="182.0679" y2="182.0679"/><text fill="#000000" font-family="Verdana" font-size="14" font-weight="bold" lengthAdjust="spacing" textLength="33" x="362.5" y="173.9659">View</text></g><!--cluster Controller--><g id="cluster_Controller"><path d="M843,157 L914,157 A3.75,3.75 0 0 1 916.5,159.5 L923.5,182.0679 L1144,182.0679 A2.5,2.5 0 0 1 1146.5,184.5679 L1146.5,269.5 A2.5,2.5 0 0 1 1144,272 L843,272 A2.5,2.5 0 0 1 840.5,269.5 L840.5,159.5 A2.5,2.5 0 0 1 843,157 " fill="#FFFFFF" style="stroke:#000000;stroke-width:1.0;"/><line style="stroke:#000000;stroke-width:1.0;" x1="840.5" x2="923.5" y1="182.0679" y2="182.0679"/><text fill="#000000" font-family="Verdana" font-size="14" font-weight="bold" lengthAdjust="spacing" textLength="70" x="844.5" y="173.9659">Controller</text></g><!--cluster Model--><g id="cluster_Model"><path d="M1703,157 L1747,157 A3.75,3.75 0 0 1 1749.5,159.5 L1756.5,182.0679 L2387,182.0679 A2.5,2.5 0 0 1 2389.5,184.5679 L2389.5,269.5 A2.5,2.5 0 0 1 2387,272 L1703,272 A2.5,2.5 0 0 1 1700.5,269.5 L1700.5,159.5 A2.5,2.5 0 0 1 1703,157 " fill="#FFFFFF" style="stroke:#000000;stroke-width:1.0;"/><line style="stroke:#000000;stroke-width:1.0;" x1="1700.5" x2="1756.5" y1="182.0679" y2="182.0679"/><text fill="#000000" font-family="Verdana" font-size="14" font-weight="bold" lengthAdjust="spacing" textLength="43" x="1704.5" y="173.9659">Model</text></g><!--cluster Service--><g id="cluster_Service"><path d="M1357,157 L1407,157 A3.75,3.75 0 0 1 1409.5,159.5 L1416.5,182.0679 L1674,182.0679 A2.5,2.5 0 0 1 1676.5,184.5679 L1676.5,269.5 A2.5,2.5 0 0 1 1674,272 L1357,272 A2.5,2.5 0 0 1 1354.5,269.5 L1354.5,159.5 A2.5,2.5 0 0 1 1357,157 " fill="#FFFFFF" style="stroke:#000000;stroke-width:1.0;"/><line style="stroke:#000000;stroke-width:1.0;" x1="1354.5" x2="1416.5" y1="182.0679" y2="182.0679"/><text fill="#000000" font-family="Verdana" font-size="14" font-weight="bold" lengthAdjust="spacing" textLength="49" x="1358.5" y="173.9659">Service</text></g><g id="elem_view"><rect fill="#FFFFFF" height="39.0679" style="stroke:#000000;stroke-width:1.0;" width="263" x="375" y="217"/><text fill="#000000" font-family="Verdana" font-size="14" lengthAdjust="spacing" textLength="249" x="382" y="233.9659">profesorListaView : ProfesorListaView</text><line style="stroke:#000000;stroke-width:1.0;" x1="376" x2="637" y1="240.0679" y2="240.0679"/></g><g id="elem_controller"><rect fill="#FFFFFF" height="39.0679" style="stroke:#000000;stroke-width:1.0;" width="273" x="857" y="217"/><text fill="#000000" font-family="Verdana" font-size="14" lengthAdjust="spacing" textLength="259" x="864" y="233.9659">profesorController : ProfesorController</text><line style="stroke:#000000;stroke-width:1.0;" x1="858" x2="1129" y1="240.0679" y2="240.0679"/></g><g id="elem_profesor"><rect fill="#FFFFFF" height="39.0679" style="stroke:#000000;stroke-width:1.0;" width="139" x="1717" y="217"/><text fill="#000000" font-family="Verdana" font-size="14" lengthAdjust="spacing" textLength="125" x="1724" y="233.9659">profesor : Profesor</text><line style="stroke:#000000;stroke-width:1.0;" x1="1718" x2="1855" y1="240.0679" y2="240.0679"/></g><g id="elem_repository"><rect fill="#FFFFFF" height="39.0679" style="stroke:#000000;stroke-width:1.0;" width="281" x="1891" y="217"/><text fill="#000000" font-family="Verdana" font-size="14" lengthAdjust="spacing" textLength="267" x="1898" y="233.9659">profesorRepository : ProfesorRepository</text><line style="stroke:#000000;stroke-width:1.0;" x1="1892" x2="2171" y1="240.0679" y2="240.0679"/></g><g id="elem_verifier"><rect fill="#FFFFFF" height="39.0679" style="stroke:#000000;stroke-width:1.0;" width="291" x="1370" y="217"/><text fill="#000000" font-family="Verdana" font-size="14" lengthAdjust="spacing" textLength="277" x="1377" y="233.9659">dependencyVerifier : DependencyVerifier</text><line style="stroke:#000000;stroke-width:1.0;" x1="1371" x2="1660" y1="240.0679" y2="240.0679"/></g><!--entity admin--><g id="elem_admin"><ellipse cx="59.5" cy="205.5" fill="#FFFFFF" rx="8" ry="8" style="stroke:#000000;stroke-width:1.0;"/><path d="M59.5,213.5 L59.5,240.5 M46.5,221.5 L72.5,221.5 M59.5,240.5 L46.5,255.5 M59.5,240.5 L72.5,255.5 " fill="none" style="stroke:#000000;stroke-width:1.0;"/><text fill="#000000" font-family="Verdana" font-size="14" lengthAdjust="spacing" textLength="97" x="11" y="272.4659">Administrador</text></g><g id="elem_GMN25"><path d="M396.5,11 L396.5,91.8241 A0,0 0 0 0 396.5,91.8241 L502.5,91.8241 L506.5,216.58 L510.5,91.8241 L616.5,91.8241 A0,0 0 0 0 616.5,91.8241 L616.5,21 L606.5,11 L396.5,11 A0,0 0 0 0 396.5,11 " fill="#FFFFFF" style="stroke:#000000;stroke-width:1.0;"/><path d="M606.5,11 L606.5,21 L616.5,21 L606.5,11 " fill="#FFFFFF" style="stroke:#000000;stroke-width:1.0;"/><text fill="#000000" font-family="Verdana" font-size="13" font-weight="bold" lengthAdjust="spacing" textLength="36" x="402.5" y="29.897">Vista:</text><text fill="#000000" font-family="Verdana" font-size="13" lengthAdjust="spacing" textLength="159" x="402.5" y="47.603">Presenta confirmaci&#243;n con</text><text fill="#000000" font-family="Verdana" font-size="13" lengthAdjust="spacing" textLength="199" x="402.5" y="65.309">advertencias sobre dependencias</text><text fill="#000000" font-family="Verdana" font-size="13" lengthAdjust="spacing" textLength="185" x="402.5" y="83.0151">y consecuencias de eliminaci&#243;n</text></g><g id="elem_GMN28"><path d="M901,11 L901,91.8241 A0,0 0 0 0 901,91.8241 L989.5,91.8241 L993.5,216.58 L997.5,91.8241 L1086,91.8241 A0,0 0 0 0 1086,91.8241 L1086,21 L1076,11 L901,11 A0,0 0 0 0 901,11 " fill="#FFFFFF" style="stroke:#000000;stroke-width:1.0;"/><path d="M1076,11 L1076,21 L1086,21 L1076,11 " fill="#FFFFFF" style="stroke:#000000;stroke-width:1.0;"/><text fill="#000000" font-family="Verdana" font-size="13" font-weight="bold" lengthAdjust="spacing" textLength="83" x="907" y="29.897">Controlador:</text><text fill="#000000" font-family="Verdana" font-size="13" lengthAdjust="spacing" textLength="143" x="907" y="47.603">Coordina verificaci&#243;n de</text><text fill="#000000" font-family="Verdana" font-size="13" lengthAdjust="spacing" textLength="164" x="907" y="65.309">dependencias y eliminaci&#243;n</text><text fill="#000000" font-family="Verdana" font-size="13" lengthAdjust="spacing" textLength="123" x="907" y="83.0151">transaccional segura</text></g><g id="elem_GMN31"><path d="M1423,11 L1423,91.8241 A0,0 0 0 0 1423,91.8241 L1511.5,91.8241 L1515.5,216.58 L1519.5,91.8241 L1608,91.8241 A0,0 0 0 0 1608,91.8241 L1608,21 L1598,11 L1423,11 A0,0 0 0 0 1423,11 " fill="#FFFFFF" style="stroke:#000000;stroke-width:1.0;"/><path d="M1598,11 L1598,21 L1608,21 L1598,11 " fill="#FFFFFF" style="stroke:#000000;stroke-width:1.0;"/><text fill="#000000" font-family="Verdana" font-size="13" font-weight="bold" lengthAdjust="spacing" textLength="55" x="1429" y="29.897">Servicio:</text><text fill="#000000" font-family="Verdana" font-size="13" lengthAdjust="spacing" textLength="164" x="1429" y="47.603">Identifica cursos asignados,</text><text fill="#000000" font-family="Verdana" font-size="13" lengthAdjust="spacing" textLength="127" x="1429" y="65.309">horarios generados y</text><text fill="#000000" font-family="Verdana" font-size="13" lengthAdjust="spacing" textLength="148" x="1429" y="83.0151">preferencias del profesor</text></g><g id="elem_GMN34"><path d="M1935.5,11 L1935.5,91.8241 A0,0 0 0 0 1935.5,91.8241 L2027.5,91.8241 L2031.5,216.58 L2035.5,91.8241 L2127.5,91.8241 A0,0 0 0 0 2127.5,91.8241 L2127.5,21 L2117.5,11 L1935.5,11 A0,0 0 0 0 1935.5,11 " fill="#FFFFFF" style="stroke:#000000;stroke-width:1.0;"/><path d="M2117.5,11 L2117.5,21 L2127.5,21 L2117.5,11 " fill="#FFFFFF" style="stroke:#000000;stroke-width:1.0;"/><text fill="#000000" font-family="Verdana" font-size="13" font-weight="bold" lengthAdjust="spacing" textLength="79" x="1941.5" y="29.897">Repositorio:</text><text fill="#000000" font-family="Verdana" font-size="13" lengthAdjust="spacing" textLength="114" x="1941.5" y="47.603">Ejecuta eliminaci&#243;n</text><text fill="#000000" font-family="Verdana" font-size="13" lengthAdjust="spacing" textLength="151" x="1941.5" y="65.309">transaccional de profesor</text><text fill="#000000" font-family="Verdana" font-size="13" lengthAdjust="spacing" textLength="171" x="1941.5" y="83.0151">y dependencias relacionadas</text></g><!--link admin to view--><g id="link_admin_view"><path codeLine="23" d="M108.19,236.5 C171.66,236.5 279.13,236.5 368.77,236.5 " fill="none" id="admin-to-view" style="stroke:#000000;stroke-width:1.0;"/><polygon fill="#000000" points="374.77,236.5,365.77,232.5,369.77,236.5,365.77,240.5,374.77,236.5" style="stroke:#000000;stroke-width:1.0;"/><text fill="#000000" font-family="Verdana" font-size="13" lengthAdjust="spacing" textLength="177" x="153" y="229.397">1: solicitarEliminarProfesor(id)</text></g><!--link view to admin--><g id="link_view_admin"><path codeLine="28" d="M374.77,236.5 C285.13,236.5 177.66,236.5 114.19,236.5 " fill="none" id="view-to-admin" style="stroke:#000000;stroke-width:1.0;"/><polygon fill="#000000" points="108.19,236.5,117.19,240.5,113.19,236.5,117.19,232.5,108.19,236.5" style="stroke:#000000;stroke-width:1.0;"/><text fill="#000000" font-family="Verdana" font-size="13" lengthAdjust="spacing" textLength="230" x="126.5" y="229.397">6: mostrarAdvertenciasDependencias()</text></g><!--link admin to view--><g id="link_admin_view"><path codeLine="29" d="M108.15,248.62 C126.47,252.61 147.57,256.53 167,258.5 C235.46,265.43 305.9502,262.1017 368.9502,255.7517 " fill="none" id="admin-to-view-1" style="stroke:#000000;stroke-width:1.0;"/><polygon fill="#000000" points="374.92,255.15,365.5642,252.0727,369.9452,255.6514,366.3665,260.0324,374.92,255.15" style="stroke:#000000;stroke-width:1.0;"/><text fill="#000000" font-family="Verdana" font-size="13" lengthAdjust="spacing" textLength="147" x="168" y="254.397">7: confirmarEliminacion()</text></g><!--link view to admin--><g id="link_view_admin"><path codeLine="35" d="M381.82,256.01 C372.59,257.01 363.41,257.86 354.5,258.5 C304.41,262.11 178.13,266.22 128.5,258.5 C121.79,257.46 120.6311,257.4393 113.8411,255.5993 " fill="none" id="view-to-admin-1" style="stroke:#000000;stroke-width:1.0;"/><polygon fill="#000000" points="108.05,254.03,115.6905,260.2447,112.8759,255.3378,117.7829,252.5232,108.05,254.03" style="stroke:#000000;stroke-width:1.0;"/><text fill="#000000" font-family="Verdana" font-size="13" lengthAdjust="spacing" textLength="224" x="129.5" y="254.397">13: mostrarConfirmacionEliminacion()</text></g><!--link view to controller--><g id="link_view_controller"><path codeLine="24" d="M638.29,236.5 C706.04,236.5 782.51,236.5 850.93,236.5 " fill="none" id="view-to-controller" style="stroke:#000000;stroke-width:1.0;"/><polygon fill="#000000" points="856.93,236.5,847.93,232.5,851.93,236.5,847.93,240.5,856.93,236.5" style="stroke:#000000;stroke-width:1.0;"/><text fill="#000000" font-family="Verdana" font-size="13" lengthAdjust="spacing" textLength="152" x="671.5" y="229.397">2: procesarEliminacion(id)</text></g><!--link controller to view--><g id="link_controller_view"><path codeLine="27" d="M856.93,236.5 C788.51,236.5 712.04,236.5 644.29,236.5 " fill="none" id="controller-to-view" style="stroke:#000000;stroke-width:1.0;"/><polygon fill="#000000" points="638.29,236.5,647.29,240.5,643.29,236.5,647.29,232.5,638.29,236.5" style="stroke:#000000;stroke-width:1.0;"/><text fill="#000000" font-family="Verdana" font-size="13" lengthAdjust="spacing" textLength="182" x="656.5" y="229.397">5: presentarConfirmacion(info)</text></g><!--link view to controller--><g id="link_view_controller"><path codeLine="30" d="M638.18,255.56 C649.77,256.75 661.33,257.76 672.5,258.5 C739.02,262.89 755.97,262.76 822.5,258.5 C833.7,257.78 839.3192,257.3909 850.9392,256.2409 " fill="none" id="view-to-controller-1" style="stroke:#000000;stroke-width:1.0;"/><polygon fill="#000000" points="856.91,255.65,847.5598,252.5558,851.9343,256.1424,848.3477,260.5169,856.91,255.65" style="stroke:#000000;stroke-width:1.0;"/><text fill="#000000" font-family="Verdana" font-size="13" lengthAdjust="spacing" textLength="148" x="673.5" y="254.397">8: ejecutarEliminacion(id)</text></g><!--link controller to view--><g id="link_controller_view"><path codeLine="34" d="M856.99,254.33 C839.52,256.05 821.86,257.52 805,258.5 C753.98,261.47 741.02,261.55 690,258.5 C673.18,257.5 661.5189,256.5903 644.1089,254.8103 " fill="none" id="controller-to-view-1" style="stroke:#000000;stroke-width:1.0;"/><polygon fill="#000000" points="638.14,254.2,646.6865,259.0946,643.1141,254.7085,647.5002,251.1361,638.14,254.2" style="stroke:#000000;stroke-width:1.0;"/><text fill="#000000" font-family="Verdana" font-size="13" lengthAdjust="spacing" textLength="113" x="691" y="254.397">12: actualizarLista()</text></g><!--link controller to verifier--><g id="link_controller_verifier"><path codeLine="25" d="M1130.31,236.5 C1204.01,236.5 1288.95,236.5 1363.96,236.5 " fill="none" id="controller-to-verifier" style="stroke:#000000;stroke-width:1.0;"/><polygon fill="#000000" points="1369.96,236.5,1360.96,232.5,1364.96,236.5,1360.96,240.5,1369.96,236.5" style="stroke:#000000;stroke-width:1.0;"/><text fill="#000000" font-family="Verdana" font-size="13" lengthAdjust="spacing" textLength="163" x="1168.5" y="229.397">3: verificarDependencias(id)</text></g><!--link verifier to controller--><g id="link_verifier_controller"><path codeLine="26" d="M1369.96,236.5 C1294.95,236.5 1210.01,236.5 1136.31,236.5 " fill="none" id="verifier-to-controller" style="stroke:#000000;stroke-width:1.0;"/><polygon fill="#000000" points="1130.31,236.5,1139.31,240.5,1135.31,236.5,1139.31,232.5,1130.31,236.5" style="stroke:#000000;stroke-width:1.0;"/><text fill="#000000" font-family="Verdana" font-size="13" lengthAdjust="spacing" textLength="203" x="1148.5" y="229.397">4: dependenciasIdentificadas(info)</text></g><!--link controller to repository--><g id="link_controller_repository"><path codeLine="31" d="M1049.61,216.99 C1117.07,194.64 1234.2,159.41 1338,146 C1448.54,131.72 1725.74,110.23 1873.5,149 C1924.15,162.29 1971.0763,191.9804 2000.9763,213.4504 " fill="none" id="controller-to-repository" style="stroke:#000000;stroke-width:1.0;"/><polygon fill="#000000" points="2005.85,216.95,2000.8725,208.4515,2001.7886,214.0337,1996.2064,214.9497,2005.85,216.95" style="stroke:#000000;stroke-width:1.0;"/><text fill="#000000" font-family="Verdana" font-size="13" lengthAdjust="spacing" textLength="131" x="1339" y="136.897">9: eliminarProfesor(id)</text></g><!--link repository to controller--><g id="link_repository_controller"><path codeLine="33" d="M2005.86,216.92 C1975.97,195.44 1924.17,162.23 1873.5,149 C1746.89,115.94 1181.14,137.8 1150.5,146 C1099.29,159.7 1052.2675,190.9534 1022.8275,213.1934 " fill="none" id="repository-to-controller" style="stroke:#000000;stroke-width:1.0;"/><polygon fill="#000000" points="1018.04,216.81,1027.6323,214.5767,1022.0296,213.7961,1022.8101,208.1934,1018.04,216.81" style="stroke:#000000;stroke-width:1.0;"/><text fill="#000000" font-family="Verdana" font-size="13" lengthAdjust="spacing" textLength="138" x="1151.5" y="136.897">11: profesorEliminado()</text></g><!--link repository to repository--><g id="link_repository_repository"><path codeLine="32" d="M2172.3,218.86 C2193.02,221.63 2207,227.51 2207,236.5 C2207,245.49 2198.9671,250.5749 2178.2471,253.3449 " fill="none" id="repository-to-repository" style="stroke:#000000;stroke-width:1.0;"/><polygon fill="#000000" points="2172.3,254.14,2181.7507,256.9122,2177.2559,253.4775,2180.6906,248.9827,2172.3,254.14" style="stroke:#000000;stroke-width:1.0;"/><text fill="#000000" font-family="Verdana" font-size="13" lengthAdjust="spacing" textLength="171" x="2213" y="241.897">10: eliminarDependencias(id)</text></g><!--SRC=[XLJRRjGm47tFLmpxj9L04CgbHDLALUa34aWLIFkAlFPaQ_3QaUrjMH1VnIVmOuoTnB7tKfuIp-NCyV7CFF5tk47e59EwOagPXwyR-KFgTLLrZ7zdQuJPKkB337vL06Rr3Rc7MMTDYyxOZz9v5jpGmEs-RGRCmJtzLBypi6kZlJLAeJqEEVapp3o9G7aw5j2VZ41r73N3YWYZ_KZeP-oCazxONPOq6MEwJSU2m1Uqzv9ZIK5WXrgWvhibMjdAUB7t1yPUhU4GK1adV9XTYOtK9AbbOk3EWeNyuGFF5b5YWgmRS4P9BZspDqgIazcH_boAioh6KJpF5NxP12qukfJ4fT4nFeiBLIRovyrmuiocYqZc-YfZt7wbLms8BFW3VNt4425Jj-QWOd-lru4XEefceGzQQJS3nvWptggNeu4t3MnCaCjU2UBY-se5pRC3xTusWMk4BcGu8Tf50qYFk_N_4ytclVIEiewzInQqdrA_c78Eb2xp2e9rtQGM7nWACpyXS4qzGCssPKh-PFtupWzrhS-JiFahb6fLsdW4RpemRJ_w09UhnJ9WDfVFLmiwtmwFcHJdykyV7KxaPDcRKJklB1PDGn6x4Eb8_258uAXGnAae5WABaaksCIAZOQ64cHfvNHjZ1S6atkvv2IHVpe4O50K1I1Fj60yQC0KErrlBJl180nvPzFj2cf72D1F0jzOPcdKdr-7jt5DotnaINv9rZHh3FY0kPARfQD4cETIqt8vpo9PNP95ssqJafk_knozAocThT5UAP575fWZJFV7u1m00]--></g></svg>