<?xml version="1.0" encoding="us-ascii" standalone="no"?><svg xmlns="http://www.w3.org/2000/svg" xmlns:xlink="http://www.w3.org/1999/xlink" contentStyleType="text/css" height="442px" preserveAspectRatio="none" style="width:1014px;height:442px;background:#FFFFFF;" version="1.1" viewBox="0 0 1014 442" width="1014px" zoomAndPan="magnify"><defs/><g><!--cluster crearEdificio--><g id="cluster_crearEdificio"><path d="M159,6.602 L255,6.602 A3.75,3.75 0 0 1 257.5,9.102 L264.5,31.6699 L779,31.6699 A2.5,2.5 0 0 1 781.5,34.1699 L781.5,433.102 A2.5,2.5 0 0 1 779,435.602 L159,435.602 A2.5,2.5 0 0 1 156.5,433.102 L156.5,9.102 A2.5,2.5 0 0 1 159,6.602 " fill="none" style="stroke:#000000;stroke-width:1.5;"/><line style="stroke:#000000;stroke-width:1.5;" x1="156.5" x2="264.5" y1="31.6699" y2="31.6699"/><text fill="#000000" font-family="sans-serif" font-size="14" font-weight="bold" lengthAdjust="spacing" textLength="95" x="160.5" y="23.5679">crearEdificio()</text></g><!--entity CrearEdificioView--><g id="elem_CrearEdificioView"><rect fill="#629EF9" height="39.0679" rx="2.5" ry="2.5" style="stroke:#181818;stroke-width:0.5;" width="137" x="363" y="44.602"/><text fill="#000000" font-family="sans-serif" font-size="14" lengthAdjust="spacing" textLength="117" x="373" y="69.5679">CrearEdificioView</text></g><!--entity EdificioController--><g id="elem_EdificioController"><rect fill="#B5BD68" height="39.0679" rx="2.5" ry="2.5" style="stroke:#181818;stroke-width:0.5;" width="136" x="280.5" y="162.602"/><text fill="#000000" font-family="sans-serif" font-size="14" lengthAdjust="spacing" textLength="116" x="290.5" y="187.5679">EdificioController</text></g><!--entity EdificioRepository--><g id="elem_EdificioRepository"><rect fill="#F2AC4E" height="39.0679" rx="2.5" ry="2.5" style="stroke:#181818;stroke-width:0.5;" width="140" x="287.5" y="280.602"/><text fill="#000000" font-family="sans-serif" font-size="14" lengthAdjust="spacing" textLength="120" x="297.5" y="305.5679">EdificioRepository</text></g><!--entity Edificio--><g id="elem_Edificio"><rect fill="#F2AC4E" height="39.0679" rx="2.5" ry="2.5" style="stroke:#181818;stroke-width:0.5;" width="69" x="323" y="380.602"/><text fill="#000000" font-family="sans-serif" font-size="14" lengthAdjust="spacing" textLength="49" x="333" y="405.5679">Edificio</text></g><!--entity EdificiosAbierto--><g id="elem_EdificiosAbierto"><rect fill="#CDEBA5" height="39.0679" rx="2.5" ry="2.5" style="stroke:#181818;stroke-width:0.5;" width="133" x="7" y="44.602"/><text fill="#000000" font-family="sans-serif" font-size="14" lengthAdjust="spacing" textLength="113" x="17" y="69.5679">:Edificios Abierto</text></g><!--entity EditarEdificio--><g id="elem_EditarEdificio"><rect fill="#CDEBA5" height="39.0679" rx="2.5" ry="2.5" style="stroke:#181818;stroke-width:0.5;" width="207" x="798" y="162.602"/><text fill="#000000" font-family="sans-serif" font-size="14" lengthAdjust="spacing" textLength="187" x="808" y="187.5679">:Collaboration EditarEdificio</text></g><!--link EdificiosAbierto to CrearEdificioView--><g id="link_EdificiosAbierto_CrearEdificioView"><path d="M140.42,64.102 C203.86,64.102 292.74,64.102 356.78,64.102 " fill="none" id="EdificiosAbierto-to-CrearEdificioView" style="stroke:#181818;stroke-width:1.0;"/><polygon fill="#181818" points="362.78,64.102,353.78,60.102,357.78,64.102,353.78,68.102,362.78,64.102" style="stroke:#181818;stroke-width:1.0;"/><text fill="#000000" font-family="sans-serif" font-size="13" lengthAdjust="spacing" textLength="80" x="211.5" y="56.999">crearEdificio()</text></g><!--link CrearEdificioView to EdificioController--><g id="link_CrearEdificioView_EdificioController"><path d="M362.78,79.782 C295.96,94.062 204.5,113.602 204.5,113.602 C204.5,113.602 204.5,132.602 204.5,132.602 C204.5,132.602 246.9439,146.8966 287.5539,160.5766 " fill="none" id="CrearEdificioView-to-EdificioController" style="stroke:#181818;stroke-width:1.0;"/><polygon fill="#181818" points="293.24,162.492,285.9879,155.8282,288.5016,160.8958,283.434,163.4096,293.24,162.492" style="stroke:#181818;stroke-width:1.0;"/><text fill="#000000" font-family="sans-serif" font-size="13" lengthAdjust="spacing" textLength="288" x="205.5" y="128.499">validarDatosM&#237;nimos(codigo, nombre) : boolean</text></g><!--link CrearEdificioView to EdificioController--><g id="link_CrearEdificioView_EdificioController"><path d="M457.21,83.712 C476.11,97.392 498.5,113.602 498.5,113.602 C498.5,113.602 498.5,132.602 498.5,132.602 C498.5,132.602 454.079,146.9661 411.769,160.6461 " fill="none" id="CrearEdificioView-to-EdificioController-1" style="stroke:#181818;stroke-width:1.0;"/><polygon fill="#181818" points="406.06,162.492,415.8541,163.5292,410.8175,160.9537,413.3929,155.9172,406.06,162.492" style="stroke:#181818;stroke-width:1.0;"/><text fill="#000000" font-family="sans-serif" font-size="13" lengthAdjust="spacing" textLength="226" x="499.5" y="128.499">crearEdificio(codigo, nombre) : Edificio</text></g><!--link EdificioController to EdificioRepository--><g id="link_EdificioController_EdificioRepository"><path d="M299.76,201.712 C263.95,215.392 221.5,231.602 221.5,231.602 C221.5,231.602 221.5,250.602 221.5,250.602 C221.5,250.602 261.3088,264.7961 299.6588,278.4761 " fill="none" id="EdificioController-to-EdificioRepository" style="stroke:#181818;stroke-width:1.0;"/><polygon fill="#181818" points="305.31,280.492,298.1771,273.7007,300.6007,278.8121,295.4893,281.2357,305.31,280.492" style="stroke:#181818;stroke-width:1.0;"/><text fill="#000000" font-family="sans-serif" font-size="13" lengthAdjust="spacing" textLength="207" x="222.5" y="246.499">verificarUnicidad(codigo) : boolean</text></g><!--link EdificioController to EdificioRepository--><g id="link_EdificioController_EdificioRepository"><path d="M381.5,201.712 C405.76,215.392 434.5,231.602 434.5,231.602 C434.5,231.602 434.5,250.602 434.5,250.602 C434.5,250.602 413.8363,263.6133 392.1263,277.2933 " fill="none" id="EdificioController-to-EdificioRepository-1" style="stroke:#181818;stroke-width:1.0;"/><polygon fill="#181818" points="387.05,280.492,396.7968,279.0781,391.2802,277.8264,392.5319,272.3098,387.05,280.492" style="stroke:#181818;stroke-width:1.0;"/><text fill="#000000" font-family="sans-serif" font-size="13" lengthAdjust="spacing" textLength="184" x="435.5" y="246.499">crear(codigo, nombre) : Edificio</text></g><!--link EdificioRepository to Edificio--><g id="link_EdificioRepository_Edificio"><path d="M357.5,320.002 C357.5,337.462 357.5,363.262 357.5,380.592 " fill="none" id="EdificioRepository-Edificio" style="stroke:#181818;stroke-width:1.0;"/></g><!--link CrearEdificioView to EditarEdificio--><g id="link_CrearEdificioView_EditarEdificio"><path d="M500.26,76.112 C589.65,90.412 734.5,113.602 734.5,113.602 C734.5,113.602 800.4272,140.2535 849.8572,160.2335 " fill="none" id="CrearEdificioView-to-EditarEdificio" style="stroke:#181818;stroke-width:1.0;stroke-dasharray:7.0,7.0;"/><polygon fill="#181818" points="855.42,162.482,848.5749,155.4007,850.7844,160.6082,845.5769,162.8177,855.42,162.482" style="stroke:#181818;stroke-width:1.0;"/><text fill="#000000" font-family="sans-serif" font-size="13" lengthAdjust="spacing" textLength="227" x="779.5" y="128.499">&#171;include&#187; editarEdificio(edificioNuevo)</text></g><!--SRC=[bLBBJiCm4BpxArRXaagaXufMDAeYbJIzmG49xfjugQmwtiXnYoh49_4L_1W9QfjN4U2JFJipdh5SRfKfq68EMXboXuAWO7se3q9OoXoQZIQuYbV9tN8ANfX8zQ8onIKiKqNMiGTOmXazWXUbCMkDALjqYaqjSMXFmfDB2nAYm6oB6uBCKWFNHA-3-2CFtWHKgtNhR39FrdE8syHdHQzzNZfDvUpsN21cusoLasoVk9uiuvlaJ7oaWalbs1v-8Oft8VhF0u4Dec6s47gzX1Xm892LT1WtX3rg9T6kq75v__bXLCwbdx5K6xu6mtbgQGGXfCoQq3IX6Wy8MjPDmSgQR0sYVJBLIA8y-dRyBaJz8MctvJ1YymF-aV7Rz4zcZQeoQys71SRZgFSfGrWibCdqJb8K0NLcFXqt3plQyqXy0G00]--></g></svg>