<?xml version="1.0" encoding="us-ascii" standalone="no"?><svg xmlns="http://www.w3.org/2000/svg" xmlns:xlink="http://www.w3.org/1999/xlink" contentStyleType="text/css" height="642px" preserveAspectRatio="none" style="width:670px;height:642px;background:#FFFFFF;" version="1.1" viewBox="0 0 670 642" width="670px" zoomAndPan="magnify"><defs/><g><path d="M19.5,7 L644.5,7 A12.5,12.5 0 0 1 657,19.5 L657,36.0679 L7,36.0679 L7,19.5 A12.5,12.5 0 0 1 19.5,7 " fill="#F1F1F1" style="stroke:#F1F1F1;stroke-width:1.0;"/><rect fill="none" height="482.0679" rx="12.5" ry="12.5" style="stroke:#181818;stroke-width:0.5;" width="650" x="7" y="7"/><line style="stroke:#181818;stroke-width:0.5;" x1="7" x2="657" y1="36.0679" y2="36.0679"/><text fill="#000000" font-family="sans-serif" font-size="14" lengthAdjust="spacing" textLength="114" x="275" y="26.9659">editarPrograma()</text><g id="editarPrograma.EditandoDatos"><rect fill="#F1F1F1" height="50" rx="12.5" ry="12.5" style="stroke:#181818;stroke-width:0.5;" width="50" x="150" y="140.0679"/><line style="stroke:#181818;stroke-width:0.5;" x1="150" x2="200" y1="169.1358" y2="169.1358"/><text fill="#000000" font-family="sans-serif" font-size="14" lengthAdjust="spacing" textLength="4" x="173" y="160.0339">&#160;</text></g><g id="editarPrograma.GuardandoDatos"><rect fill="#F1F1F1" height="50" rx="12.5" ry="12.5" style="stroke:#181818;stroke-width:0.5;" width="50" x="150" y="334.0679"/><line style="stroke:#181818;stroke-width:0.5;" x1="150" x2="200" y1="363.1358" y2="363.1358"/><text fill="#000000" font-family="sans-serif" font-size="14" lengthAdjust="spacing" textLength="4" x="173" y="354.0339">&#160;</text></g><ellipse cx="175" cy="57.0679" fill="#222222" rx="10" ry="10" style="stroke:#222222;stroke-width:1.0;"/><ellipse cx="175" cy="468.0679" fill="none" rx="11" ry="11" style="stroke:#222222;stroke-width:1.0;"/><ellipse cx="175" cy="468.0679" fill="#222222" rx="6" ry="6" style="stroke:#222222;stroke-width:1.0;"/><!--link *start*editarPrograma to EditandoDatos--><g id="link_*start*editarPrograma_EditandoDatos"><path d="M175,67.1079 C175,83.0279 175,110.5779 175,133.7079 " fill="none" id="*start*editarPrograma-to-EditandoDatos" style="stroke:#008000;stroke-width:1.0;"/><polygon fill="#008000" points="175,139.7079,179,130.7079,175,134.7079,171,130.7079,175,139.7079" style="stroke:#008000;stroke-width:1.0;"/><path d="M180,90.0679 L180,117.0679 L441,117.0679 L441,100.0679 L431,90.0679 L180,90.0679 " fill="#FEFFDD" style="stroke:#181818;stroke-width:0.5;"/><path d="M431,90.0679 L431,100.0679 L441,100.0679 L431,90.0679 " fill="#FEFFDD" style="stroke:#181818;stroke-width:0.5;"/><text fill="#000000" font-family="sans-serif" font-size="13" font-weight="bold" lengthAdjust="spacing" textLength="95" x="186" y="108.9649">Administrador</text><text fill="#000000" font-family="sans-serif" font-size="13" lengthAdjust="spacing" textLength="142" x="284" y="108.9649">solicita editar programa</text></g><!--link EditandoDatos to GuardandoDatos--><g id="link_EditandoDatos_GuardandoDatos"><path d="M149.78,172.8179 C105.39,184.6879 18,208.0679 18,208.0679 C18,208.0679 18,316.0679 18,316.0679 C18,316.0679 99.5937,337.898 143.9837,349.768 " fill="none" id="EditandoDatos-to-GuardandoDatos" style="stroke:#008000;stroke-width:1.0;"/><polygon fill="#008000" points="149.78,351.3179,142.1188,345.1287,144.9497,350.0263,140.0522,352.8572,149.78,351.3179" style="stroke:#008000;stroke-width:1.0;"/><path d="M23,213.0679 L23,311.0679 L307,311.0679 L307,223.0679 L297,213.0679 L23,213.0679 " fill="#FEFFDD" style="stroke:#181818;stroke-width:0.5;"/><path d="M297,213.0679 L297,223.0679 L307,223.0679 L297,213.0679 " fill="#FEFFDD" style="stroke:#181818;stroke-width:0.5;"/><text fill="#000000" font-family="sans-serif" font-size="13" font-weight="bold" lengthAdjust="spacing" textLength="52" x="29" y="231.9649">Sistema</text><text fill="#000000" font-family="sans-serif" font-size="13" lengthAdjust="spacing" textLength="183" x="84" y="231.9649">presenta formulario de edici&#243;n</text><text fill="#000000" font-family="sans-serif" font-size="13" lengthAdjust="spacing" textLength="263" x="29" y="249.6709">&#8226; C&#243;digo, nombre, descripci&#243;n del programa</text><text fill="#000000" font-family="sans-serif" font-size="13" lengthAdjust="spacing" textLength="213" x="29" y="267.377">&#8226; Permite solicitar modificar campos</text><text fill="#000000" font-family="sans-serif" font-size="13" lengthAdjust="spacing" textLength="218" x="29" y="285.083">&#8226; Permite solicitar guardar programa</text><text fill="#000000" font-family="sans-serif" font-size="13" lengthAdjust="spacing" textLength="202" x="29" y="302.789">&#8226; Permite solicitar cancelar edici&#243;n</text></g><!--link GuardandoDatos to EditandoDatos--><g id="link_GuardandoDatos_EditandoDatos"><path d="M200.13,350.3679 C239.68,338.2379 312,316.0679 312,316.0679 C312,316.0679 312,208.0679 312,208.0679 C312,208.0679 245.4163,187.6572 205.8663,175.5272 " fill="none" id="GuardandoDatos-to-EditandoDatos" style="stroke:#008000;stroke-width:1.0;"/><polygon fill="#008000" points="200.13,173.7679,207.5615,180.2311,204.9102,175.234,209.9073,172.5827,200.13,173.7679" style="stroke:#008000;stroke-width:1.0;"/><path d="M317,239.5679 L317,284.5679 L648,284.5679 L648,249.5679 L638,239.5679 L317,239.5679 " fill="#FEFFDD" style="stroke:#181818;stroke-width:0.5;"/><path d="M638,239.5679 L638,249.5679 L648,249.5679 L638,239.5679 " fill="#FEFFDD" style="stroke:#181818;stroke-width:0.5;"/><text fill="#000000" font-family="sans-serif" font-size="13" font-weight="bold" lengthAdjust="spacing" textLength="95" x="323" y="258.4649">Administrador</text><text fill="#000000" font-family="sans-serif" font-size="13" lengthAdjust="spacing" textLength="212" x="421" y="258.4649">solicita modificar campos (opcional)</text><text fill="#000000" font-family="sans-serif" font-size="13" font-weight="bold" lengthAdjust="spacing" textLength="52" x="323" y="276.1709">Sistema</text><text fill="#000000" font-family="sans-serif" font-size="13" lengthAdjust="spacing" textLength="181" x="378" y="276.1709">permite modificar informaci&#243;n</text></g><!--link GuardandoDatos to *end*editarPrograma--><g id="link_GuardandoDatos_*end*editarPrograma"><path d="M175,384.0779 C175,406.9979 175,434.4279 175,450.9879 " fill="none" id="GuardandoDatos-to-*end*editarPrograma" style="stroke:#008000;stroke-width:1.0;"/><polygon fill="#008000" points="175,456.9879,179,447.9879,175,451.9879,171,447.9879,175,456.9879" style="stroke:#008000;stroke-width:1.0;"/><path d="M180,407.0679 L180,434.0679 L460,434.0679 L460,417.0679 L450,407.0679 L180,407.0679 " fill="#FEFFDD" style="stroke:#181818;stroke-width:0.5;"/><path d="M450,407.0679 L450,417.0679 L460,417.0679 L450,407.0679 " fill="#FEFFDD" style="stroke:#181818;stroke-width:0.5;"/><text fill="#000000" font-family="sans-serif" font-size="13" font-weight="bold" lengthAdjust="spacing" textLength="95" x="186" y="425.9649">Administrador</text><text fill="#000000" font-family="sans-serif" font-size="13" lengthAdjust="spacing" textLength="161" x="284" y="425.9649">solicita una de las opciones</text></g><g id="PROGRAMAS_ABIERTO"><rect fill="#F1F1F1" height="50" rx="12.5" ry="12.5" style="stroke:#181818;stroke-width:0.5;" width="171" x="246.5" y="586"/><line style="stroke:#181818;stroke-width:0.5;" x1="246.5" x2="417.5" y1="615.0679" y2="615.0679"/><text fill="#000000" font-family="sans-serif" font-size="14" lengthAdjust="spacing" textLength="151" x="256.5" y="605.9659">PROGRAMAS_ABIERTO</text></g><!--link editarPrograma to PROGRAMAS_ABIERTO--><g id="link_editarPrograma_PROGRAMAS_ABIERTO"><path d="M252.86,489.07 C246.81,507.43 243,519 243,519 C243,519 243,556 243,556 C243,556 263.3594,568.3592 287.0594,582.7292 " fill="none" id="editarPrograma-to-PROGRAMAS_ABIERTO" style="stroke:#008000;stroke-width:1.0;"/><polygon fill="#008000" points="292.19,585.84,286.568,577.7534,287.9145,583.2477,282.4203,584.5942,292.19,585.84" style="stroke:#008000;stroke-width:1.0;"/><path d="M248,524 L248,551 L371,551 L371,534 L361,524 L248,524 " fill="#FEFFDD" style="stroke:#181818;stroke-width:0.5;"/><path d="M361,524 L361,534 L371,534 L361,524 " fill="#FEFFDD" style="stroke:#181818;stroke-width:0.5;"/><text fill="#000000" font-family="sans-serif" font-size="13" lengthAdjust="spacing" textLength="102" x="254" y="542.897">abrirProgramas()</text></g><!--link editarPrograma to PROGRAMAS_ABIERTO--><g id="link_editarPrograma_PROGRAMAS_ABIERTO"><path d="M374.68,489.07 C377.94,507.43 380,519 380,519 C380,519 380,556 380,556 C380,556 370.2373,566.9866 357.4573,581.3566 " fill="none" id="editarPrograma-to-PROGRAMAS_ABIERTO-1" style="stroke:#0000FF;stroke-width:1.0;"/><polygon fill="#0000FF" points="353.47,585.84,362.44,581.7731,356.7928,582.1038,356.4621,576.4566,353.47,585.84" style="stroke:#0000FF;stroke-width:1.0;"/><path d="M385,524 L385,551 L501,551 L501,534 L491,524 L385,524 " fill="#FEFFDD" style="stroke:#181818;stroke-width:0.5;"/><path d="M491,524 L491,534 L501,534 L491,524 " fill="#FEFFDD" style="stroke:#181818;stroke-width:0.5;"/><text fill="#000000" font-family="sans-serif" font-size="13" lengthAdjust="spacing" textLength="95" x="391" y="542.897">cancelar edici&#243;n</text></g><!--SRC=[dLFTQi8m5BxFKmHteqFP2uZGRIAx68hkJcISDh44cwISj1So1dkMlOAFu9liINOQQpN-W9X2QPBlB-UaRgLC3WYQPyh8OfrBdjjiNKqOSmKKaakX2i09sfHWmC7nLhZKxhJu5sESnexHeeTWmmfbX7s5mhhpxL49A0xx7Z1_NF3U_255ASsYDmWbk8SOInBML7bNVg4V3oAXbL6kG10M-q_nW3kRgOIuTNgUrrazGngnaw71cbVeTPpY9Ecr53DA83Lu_nobauRybnPrcG4gouMlPQAs6-CfVp-__6Mx4IgrNHBKCSekWLo2AlSeccHXyeeoaQWLkU-FY5nRePOgeQy4T5udl0nD_L7m5jK4J28fUHXwNxj3tSBgN6_VFTqxFHblMogDDP1rBbQzFiI1fapL0BWpFrt7UrAN1gfcPtJ9Tt6b2xs_6JlvguvT9zFnQ1gzHxFFwFbjEFqOiy0VObGDqRKxh96z81fdfRn1yxpNZUW_]--></g></svg>