<?xml version="1.0" encoding="us-ascii" standalone="no"?><svg xmlns="http://www.w3.org/2000/svg" xmlns:xlink="http://www.w3.org/1999/xlink" contentStyleType="text/css" height="740px" preserveAspectRatio="none" style="width:508px;height:740px;background:#FFFFFF;" version="1.1" viewBox="0 0 508 740" width="508px" zoomAndPan="magnify"><defs/><g><path d="M19.5,7 L482.5,7 A12.5,12.5 0 0 1 495,19.5 L495,36.0679 L7,36.0679 L7,19.5 A12.5,12.5 0 0 1 19.5,7 " fill="#F1F1F1" style="stroke:#F1F1F1;stroke-width:1.0;"/><rect fill="none" height="580.0679" rx="12.5" ry="12.5" style="stroke:#181818;stroke-width:0.5;" width="488" x="7" y="7"/><line style="stroke:#181818;stroke-width:0.5;" x1="7" x2="495" y1="36.0679" y2="36.0679"/><text fill="#000000" font-family="sans-serif" font-size="14" lengthAdjust="spacing" textLength="112" x="195" y="26.9659">generarHorario()</text><g id="generarHorario.RequiringGeneration"><rect fill="#F1F1F1" height="50" rx="12.5" ry="12.5" style="stroke:#181818;stroke-width:0.5;" width="50" x="179" y="140.0679"/><line style="stroke:#181818;stroke-width:0.5;" x1="179" x2="229" y1="169.1358" y2="169.1358"/><text fill="#000000" font-family="sans-serif" font-size="14" lengthAdjust="spacing" textLength="4" x="202" y="160.0339">&#160;</text></g><g id="generarHorario.ProvidingConfirmation"><rect fill="#F1F1F1" height="50" rx="12.5" ry="12.5" style="stroke:#181818;stroke-width:0.5;" width="50" x="179" y="299.0679"/><line style="stroke:#181818;stroke-width:0.5;" x1="179" x2="229" y1="328.1358" y2="328.1358"/><text fill="#000000" font-family="sans-serif" font-size="14" lengthAdjust="spacing" textLength="4" x="202" y="319.0339">&#160;</text></g><g id="elem_c"><polygon fill="#F1F1F1" points="204,458.0679,216,470.0679,204,482.0679,192,470.0679,204,458.0679" style="stroke:#181818;stroke-width:0.5;"/></g><ellipse cx="204" cy="57.0679" fill="#222222" rx="10" ry="10" style="stroke:#222222;stroke-width:1.0;"/><ellipse cx="204" cy="566.0679" fill="none" rx="11" ry="11" style="stroke:#222222;stroke-width:1.0;"/><ellipse cx="204" cy="566.0679" fill="#222222" rx="6" ry="6" style="stroke:#222222;stroke-width:1.0;"/><!--link *start*generarHorario to RequiringGeneration--><g id="link_*start*generarHorario_RequiringGeneration"><path d="M204,67.1079 C204,83.0279 204,110.5779 204,133.7079 " fill="none" id="*start*generarHorario-to-RequiringGeneration" style="stroke:#008000;stroke-width:1.0;"/><polygon fill="#008000" points="204,139.7079,208,130.7079,204,134.7079,200,130.7079,204,139.7079" style="stroke:#008000;stroke-width:1.0;"/><path d="M209,90.0679 L209,117.0679 L466,117.0679 L466,100.0679 L456,90.0679 L209,90.0679 " fill="#FEFFDD" style="stroke:#181818;stroke-width:0.5;"/><path d="M456,90.0679 L456,100.0679 L466,100.0679 L456,90.0679 " fill="#FEFFDD" style="stroke:#181818;stroke-width:0.5;"/><text fill="#000000" font-family="sans-serif" font-size="13" font-weight="bold" lengthAdjust="spacing" textLength="95" x="215" y="108.9649">Administrador</text><text fill="#000000" font-family="sans-serif" font-size="13" lengthAdjust="spacing" textLength="138" x="313" y="108.9649">solicita generar horario</text></g><!--link RequiringGeneration to ProvidingConfirmation--><g id="link_RequiringGeneration_ProvidingConfirmation"><path d="M204,190.2579 C204,219.7579 204,263.3379 204,292.8579 " fill="none" id="RequiringGeneration-to-ProvidingConfirmation" style="stroke:#008000;stroke-width:1.0;"/><polygon fill="#008000" points="204,298.8579,208,289.8579,204,293.8579,200,289.8579,204,298.8579" style="stroke:#008000;stroke-width:1.0;"/><path d="M209,213.0679 L209,276.0679 L443,276.0679 L443,223.0679 L433,213.0679 L209,213.0679 " fill="#FEFFDD" style="stroke:#181818;stroke-width:0.5;"/><path d="M433,213.0679 L433,223.0679 L443,223.0679 L433,213.0679 " fill="#FEFFDD" style="stroke:#181818;stroke-width:0.5;"/><text fill="#000000" font-family="sans-serif" font-size="13" font-weight="bold" lengthAdjust="spacing" textLength="52" x="215" y="231.9649">Sistema</text><text fill="#000000" font-family="sans-serif" font-size="13" lengthAdjust="spacing" textLength="53" x="270" y="231.9649">presenta</text><text fill="#000000" font-family="sans-serif" font-size="13" lengthAdjust="spacing" textLength="213" x="215" y="249.6709">&#8226; datos disponibles para generaci&#243;n</text><text fill="#000000" font-family="sans-serif" font-size="13" lengthAdjust="spacing" textLength="175" x="215" y="267.377">&#8226; advertencia si horario existe</text></g><!--link ProvidingConfirmation to c--><g id="link_ProvidingConfirmation_c"><path d="M204,349.1679 C204,380.7179 204,428.7079 204,451.9279 " fill="none" id="ProvidingConfirmation-to-c" style="stroke:#008000;stroke-width:1.0;"/><polygon fill="#008000" points="204,457.9279,208,448.9279,204,452.9279,200,448.9279,204,457.9279" style="stroke:#008000;stroke-width:1.0;"/><path d="M209,372.0679 L209,435.0679 L369,435.0679 L369,382.0679 L359,372.0679 L209,372.0679 " fill="#FEFFDD" style="stroke:#181818;stroke-width:0.5;"/><path d="M359,372.0679 L359,382.0679 L369,382.0679 L359,372.0679 " fill="#FEFFDD" style="stroke:#181818;stroke-width:0.5;"/><text fill="#000000" font-family="sans-serif" font-size="13" font-weight="bold" lengthAdjust="spacing" textLength="95" x="215" y="390.9649">Administrador</text><text fill="#000000" font-family="sans-serif" font-size="13" lengthAdjust="spacing" textLength="41" x="313" y="390.9649">solicita</text><text fill="#000000" font-family="sans-serif" font-size="13" lengthAdjust="spacing" textLength="136" x="215" y="408.6709">&#8226; confirmar generaci&#243;n</text><text fill="#000000" font-family="sans-serif" font-size="13" lengthAdjust="spacing" textLength="127" x="215" y="426.377">&#8226; cancelar generaci&#243;n</text></g><!--link c to *end*generarHorario--><g id="link_c_*end*generarHorario"><path d="M194.26,472.5879 C155.99,478.5579 18,500.0679 18,500.0679 C18,500.0679 18,537.0679 18,537.0679 C18,537.0679 147.5667,556.5757 187.2667,562.5457 " fill="none" id="c-to-*end*generarHorario" style="stroke:#FF0000;stroke-width:1.0;"/><polygon fill="#FF0000" points="193.2,563.4379,184.8949,558.144,188.2556,562.6944,183.7052,566.0551,193.2,563.4379" style="stroke:#FF0000;stroke-width:1.0;"/><path d="M23,505.0679 L23,532.0679 L177,532.0679 L177,515.0679 L167,505.0679 L23,505.0679 " fill="#FEFFDD" style="stroke:#181818;stroke-width:0.5;"/><path d="M167,505.0679 L167,515.0679 L177,515.0679 L167,505.0679 " fill="#FEFFDD" style="stroke:#181818;stroke-width:0.5;"/><text fill="#000000" font-family="sans-serif" font-size="13" lengthAdjust="spacing" textLength="133" x="29" y="523.9649">Administrador cancela</text></g><!--link c to *end*generarHorario--><g id="link_c_*end*generarHorario"><path d="M204,482.2179 C204,500.6079 204,530.9979 204,548.7879 " fill="none" id="c-to-*end*generarHorario-1" style="stroke:#008000;stroke-width:1.0;"/><polygon fill="#008000" points="204,554.7879,208,545.7879,204,549.7879,200,545.7879,204,554.7879" style="stroke:#008000;stroke-width:1.0;"/><path d="M209,505.0679 L209,532.0679 L341,532.0679 L341,515.0679 L331,505.0679 L209,505.0679 " fill="#FEFFDD" style="stroke:#181818;stroke-width:0.5;"/><path d="M331,505.0679 L331,515.0679 L341,515.0679 L331,505.0679 " fill="#FEFFDD" style="stroke:#181818;stroke-width:0.5;"/><text fill="#000000" font-family="sans-serif" font-size="13" lengthAdjust="spacing" textLength="111" x="215" y="523.9649">datos insuficientes</text></g><!--link c to *end*generarHorario--><g id="link_c_*end*generarHorario"><path d="M213.38,472.9679 C245.2,479.4179 347,500.0679 347,500.0679 C347,500.0679 347,537.0679 347,537.0679 C347,537.0679 253.8879,555.2934 220.6379,561.8134 " fill="none" id="c-to-*end*generarHorario-2" style="stroke:#008000;stroke-width:1.0;"/><polygon fill="#008000" points="214.75,562.9679,224.3515,565.1613,219.6566,562.0058,222.8121,557.3108,214.75,562.9679" style="stroke:#008000;stroke-width:1.0;"/><path d="M352,505.0679 L352,532.0679 L486,532.0679 L486,515.0679 L476,505.0679 L352,505.0679 " fill="#FEFFDD" style="stroke:#181818;stroke-width:0.5;"/><path d="M476,505.0679 L476,515.0679 L486,515.0679 L476,505.0679 " fill="#FEFFDD" style="stroke:#181818;stroke-width:0.5;"/><text fill="#000000" font-family="sans-serif" font-size="13" lengthAdjust="spacing" textLength="113" x="358" y="523.9649">generaci&#243;n exitosa</text></g><g id="HORARIO_ABIERTO"><rect fill="#F1F1F1" height="50" rx="12.5" ry="12.5" style="stroke:#181818;stroke-width:0.5;" width="149" x="176.5" y="684"/><line style="stroke:#181818;stroke-width:0.5;" x1="176.5" x2="325.5" y1="713.0679" y2="713.0679"/><text fill="#000000" font-family="sans-serif" font-size="14" lengthAdjust="spacing" textLength="129" x="186.5" y="703.9659">HORARIO_ABIERTO</text></g><!--link generarHorario to HORARIO_ABIERTO--><g id="link_generarHorario_HORARIO_ABIERTO"><path d="M251,587.2 C251,627.22 251,656.06 251,677.9 " fill="none" id="generarHorario-to-HORARIO_ABIERTO" style="stroke:#008000;stroke-width:1.0;"/><polygon fill="#008000" points="251,683.9,255,674.9,251,678.9,247,674.9,251,683.9" style="stroke:#008000;stroke-width:1.0;"/><path d="M256,622 L256,649 L387,649 L387,632 L377,622 L256,622 " fill="#FEFFDD" style="stroke:#181818;stroke-width:0.5;"/><path d="M377,622 L377,632 L387,632 L377,622 " fill="#FEFFDD" style="stroke:#181818;stroke-width:0.5;"/><text fill="#000000" font-family="sans-serif" font-size="13" lengthAdjust="spacing" textLength="110" x="262" y="640.897">consultarHorario()</text></g><!--SRC=[dPFHIiCm58RlynI7UQF2y0LAOOguNKsgTsD8bfnjXxKdDSc6GmIVnLVm4NmJdyIqTLsxTJTB893apv_lpo5kHPnBApD8YT5lSuJSfDjY8eJpqYCiaD5AEpHX80FIGQ-zT7dLWtSX8BJgH2_q84lmTKsMUF5GoZqPFXOzMhCX7KHtXkTaiqEPWYXIIqCAuxYwOt8zXVxaOc4HUTgFkww1KiWcd0-J46PLBaIpUA0pOdBUIcriT3EBmPcK57cvomdBAbLv0bbNDg69UkYwiKbqEbCNqbF0mKoMCBb5X-nbkVVx-GLQUkD0ayiDqon51qMr_baL_NnpBPLwWzOZAvBWQ1S3yAtmRwNP9-aaRMLHPpnbZQJ-NMqdi9AiCEtOFEPK1PD5NH25-dSpjO1sxct3lLaTyAHTzVJ4RZqFgK9Lq9rlreXOL2Gu7v1z277mqPg-mt4oI4RZby7jw3vv7ekMVtXbjqvzup-AslOF]--></g></svg>