<?xml version="1.0" encoding="us-ascii" standalone="no"?><svg xmlns="http://www.w3.org/2000/svg" xmlns:xlink="http://www.w3.org/1999/xlink" contentStyleType="text/css" height="560px" preserveAspectRatio="none" style="width:826px;height:560px;background:#FFFFFF;" version="1.1" viewBox="0 0 826 560" width="826px" zoomAndPan="magnify"><defs/><g><!--cluster cerrarSesion--><g id="cluster_cerrarSesion"><path d="M312,6.602 L409,6.602 A3.75,3.75 0 0 1 411.5,9.102 L418.5,31.6699 L522,31.6699 A2.5,2.5 0 0 1 524.5,34.1699 L524.5,551.102 A2.5,2.5 0 0 1 522,553.602 L312,553.602 A2.5,2.5 0 0 1 309.5,551.102 L309.5,9.102 A2.5,2.5 0 0 1 312,6.602 " fill="none" style="stroke:#000000;stroke-width:1.5;"/><line style="stroke:#000000;stroke-width:1.5;" x1="309.5" x2="418.5" y1="31.6699" y2="31.6699"/><text fill="#000000" font-family="sans-serif" font-size="14" font-weight="bold" lengthAdjust="spacing" textLength="96" x="313.5" y="23.5679">cerrarSesion()</text></g><!--entity CerrarSesionView--><g id="elem_CerrarSesionView"><rect fill="#629EF9" height="39.0679" rx="2.5" ry="2.5" style="stroke:#181818;stroke-width:0.5;" width="138" x="325.5" y="44.602"/><text fill="#000000" font-family="sans-serif" font-size="14" lengthAdjust="spacing" textLength="118" x="335.5" y="69.5679">CerrarSesionView</text></g><!--entity CerrarSesionController--><g id="elem_CerrarSesionController"><rect fill="#B5BD68" height="39.0679" rx="2.5" ry="2.5" style="stroke:#181818;stroke-width:0.5;" width="174" x="325.5" y="162.602"/><text fill="#000000" font-family="sans-serif" font-size="14" lengthAdjust="spacing" textLength="154" x="335.5" y="187.5679">CerrarSesionController</text></g><!--entity SesionRepository--><g id="elem_SesionRepository"><rect fill="#F2AC4E" height="39.0679" rx="2.5" ry="2.5" style="stroke:#181818;stroke-width:0.5;" width="135" x="326" y="280.602"/><text fill="#000000" font-family="sans-serif" font-size="14" lengthAdjust="spacing" textLength="115" x="336" y="305.5679">SesionRepository</text></g><!--entity Sesion--><g id="elem_Sesion"><rect fill="#F2AC4E" height="39.0679" rx="2.5" ry="2.5" style="stroke:#181818;stroke-width:0.5;" width="64" x="333.5" y="398.602"/><text fill="#000000" font-family="sans-serif" font-size="14" lengthAdjust="spacing" textLength="44" x="343.5" y="423.5679">Sesion</text></g><!--entity Usuario--><g id="elem_Usuario"><rect fill="#F2AC4E" height="39.0679" rx="2.5" ry="2.5" style="stroke:#181818;stroke-width:0.5;" width="72" x="329.5" y="498.602"/><text fill="#000000" font-family="sans-serif" font-size="14" lengthAdjust="spacing" textLength="52" x="339.5" y="523.5679">Usuario</text></g><!--entity SistemaDisponible--><g id="elem_SistemaDisponible"><rect fill="#CDEBA5" height="39.0679" rx="2.5" ry="2.5" style="stroke:#181818;stroke-width:0.5;" width="153" x="7" y="44.602"/><text fill="#000000" font-family="sans-serif" font-size="14" lengthAdjust="spacing" textLength="133" x="17" y="69.5679">:Sistema Disponible</text></g><!--entity SESION_CERRADA--><g id="elem_SESION_CERRADA"><rect fill="#CDEBA5" height="39.0679" rx="2.5" ry="2.5" style="stroke:#181818;stroke-width:0.5;" width="238" x="582.5" y="44.602"/><text fill="#000000" font-family="sans-serif" font-size="14" lengthAdjust="spacing" textLength="218" x="592.5" y="69.5679">:Collaboration SESION_CERRADA</text></g><!--link SistemaDisponible to CerrarSesionView--><g id="link_SistemaDisponible_CerrarSesionView"><path d="M160.38,64.102 C210.92,64.102 270.51,64.102 319.4,64.102 " fill="none" id="SistemaDisponible-to-CerrarSesionView" style="stroke:#181818;stroke-width:1.0;"/><polygon fill="#181818" points="325.4,64.102,316.4,60.102,320.4,64.102,316.4,68.102,325.4,64.102" style="stroke:#181818;stroke-width:1.0;"/><text fill="#000000" font-family="sans-serif" font-size="13" lengthAdjust="spacing" textLength="129" x="178.25" y="56.999">cerrarSesion(Usuario)</text></g><!--link CerrarSesionView to CerrarSesionController--><g id="link_CerrarSesionView_CerrarSesionController"><path d="M397.39,83.742 C400.75,105.382 405.339,134.9531 408.699,156.5831 " fill="none" id="CerrarSesionView-to-CerrarSesionController" style="stroke:#181818;stroke-width:1.0;"/><polygon fill="#181818" points="409.62,162.512,412.1911,153.0046,408.8525,157.5712,404.2859,154.2326,409.62,162.512" style="stroke:#181818;stroke-width:1.0;"/><text fill="#000000" font-family="sans-serif" font-size="13" lengthAdjust="spacing" textLength="136" x="405.5" y="128.499">solicitarCierre(Usuario)</text></g><!--link CerrarSesionController to SesionRepository--><g id="link_CerrarSesionController_SesionRepository"><path d="M409.45,201.742 C405.9,223.382 401.0591,252.9608 397.5191,274.5908 " fill="none" id="CerrarSesionController-to-SesionRepository" style="stroke:#181818;stroke-width:1.0;"/><polygon fill="#181818" points="396.55,280.512,401.9511,272.2762,397.3576,275.5776,394.0561,270.9841,396.55,280.512" style="stroke:#181818;stroke-width:1.0;"/><text fill="#000000" font-family="sans-serif" font-size="13" lengthAdjust="spacing" textLength="146" x="404.5" y="246.499">terminarSesion(Usuario)</text></g><!--link SesionRepository to Sesion--><g id="link_SesionRepository_Sesion"><path d="M389,319.742 C383.78,341.382 376.6176,371.0494 371.3976,392.6794 " fill="none" id="SesionRepository-to-Sesion" style="stroke:#181818;stroke-width:1.0;"/><polygon fill="#181818" points="369.99,398.512,375.9897,390.7015,371.163,393.6515,368.213,388.8248,369.99,398.512" style="stroke:#181818;stroke-width:1.0;"/><text fill="#000000" font-family="sans-serif" font-size="13" lengthAdjust="spacing" textLength="141" x="381.5" y="364.499">destruirSesion(Usuario)</text></g><!--link Sesion to Usuario--><g id="link_Sesion_Usuario"><path d="M365.5,438.002 C365.5,455.462 365.5,481.262 365.5,498.592 " fill="none" id="Sesion-Usuario" style="stroke:#181818;stroke-width:1.0;"/></g><!--link CerrarSesionView to SESION_CERRADA--><g id="link_CerrarSesionView_SESION_CERRADA"><path d="M463.78,64.102 C498.8,64.102 536.28,64.102 576.45,64.102 " fill="none" id="CerrarSesionView-to-SESION_CERRADA" style="stroke:#181818;stroke-width:1.0;stroke-dasharray:7.0,7.0;"/><polygon fill="#181818" points="582.45,64.102,573.45,60.102,577.45,64.102,573.45,68.102,582.45,64.102" style="stroke:#181818;stroke-width:1.0;"/><text fill="#000000" font-family="sans-serif" font-size="13" lengthAdjust="spacing" textLength="82" x="482" y="56.999">cerrarSesion()</text></g><!--SRC=[XPB1JiCm38RlUGgh75WFtM5Y4_GmgMITn0MaLN15QMScQsrJEPdGX7XtCbPOcuwHM_vyZktVDbkg6yMgWf9gjFi6eT7b_d0HWh6mgjwK25ToaTudKmZYZ8p5Ii62JADhoaiCG1bevPCg6bLirGQXG6R56HhIzO4Cki8e3E13W3kTNBF9NRgy0zdXNWZVVIoVvklPRG-JkhQionBPXvUJHDwaSCHMs6X3LlF-8lR7uxFPAIOjFiyR95r-bMjMzj1mbcOFJu-lCbsjaaLojAed2J6m3YAEveFs8UvPEMhB28KOaD7QYp_v4eFH9HLa5Kjo17R-kJuV0f7xxIZ6i47R1en2Lz6F5vT2_V9YgBInJdBS6t6bYkz54FzcFuqj1ejSKJqqmoTxnQ_HvTtHqC5sEvrllnqDNHsFUJptfkVD91HV]--></g></svg>