<?xml version="1.0" encoding="us-ascii" standalone="no"?><svg xmlns="http://www.w3.org/2000/svg" xmlns:xlink="http://www.w3.org/1999/xlink" contentStyleType="text/css" height="1859px" preserveAspectRatio="none" style="width:1440px;height:1859px;background:#FFFFFF;" version="1.1" viewBox="0 0 1440 1859" width="1440px" zoomAndPan="magnify"><defs/><g><text fill="#000000" font-family="Verdana" font-size="22" font-weight="bold" lengthAdjust="spacing" textLength="437" x="497" y="38.5181">Diagrama de Contexto Conceptual Puro</text><text fill="#000000" font-family="Verdana" font-size="22" font-weight="bold" lengthAdjust="spacing" textLength="569" x="431" y="68.4822">Administrador de Horarios - Casos de Uso At&#243;micos</text><ellipse cx="21" cy="1204.4282" fill="#FFFFFF" rx="10" ry="10" style="stroke:#000000;stroke-width:1.0;"/><g id="NoAuth"><rect fill="#F8F9FA" height="60.86" rx="12.5" ry="12.5" style="stroke:#6C757D;stroke-width:1.0;" width="162" x="272.5" y="1173.9282"/><line style="stroke:#6C757D;stroke-width:1.0;" x1="272.5" x2="434.5" y1="1197.5482" y2="1197.5482"/><text fill="#000000" font-family="Arial" font-size="10" lengthAdjust="spacing" textLength="36" x="335.5" y="1189.6182">NoAuth</text><text fill="#000000" font-family="Arial" font-size="10" lengthAdjust="spacing" textLength="108" x="277.5" y="1213.2382">Sistema sin autenticar</text><text fill="#000000" font-family="Arial" font-size="10" lengthAdjust="spacing" textLength="142" x="277.5" y="1226.8582">Usuario no ha iniciado sesi&#243;n</text></g><g id="SISTEMA_DISPONIBLE"><rect fill="#F8F9FA" height="74.4799" rx="12.5" ry="12.5" style="stroke:#6C757D;stroke-width:1.0;" width="248" x="759" y="1168.4282"/><line style="stroke:#6C757D;stroke-width:1.0;" x1="759" x2="1007" y1="1192.0482" y2="1192.0482"/><text fill="#000000" font-family="Arial" font-size="10" lengthAdjust="spacing" textLength="102" x="832" y="1184.1182">SISTEMA_DISPONIBLE</text><text fill="#000000" font-family="Arial" font-size="10" lengthAdjust="spacing" textLength="122" x="764" y="1207.7382">Sesi&#243;n activa establecida</text><text fill="#000000" font-family="Arial" font-size="10" lengthAdjust="spacing" textLength="167" x="764" y="1221.3582">Todas las capacidades disponibles</text><text fill="#000000" font-family="Arial" font-size="10" lengthAdjust="spacing" textLength="228" x="764" y="1234.9782">Usuario puede solicitar cualquier funcionalidad</text></g><g id="ProgramasDisponibles"><rect fill="#F8F9FA" height="60.86" rx="12.5" ry="12.5" style="stroke:#6C757D;stroke-width:1.0;" width="224" x="1206" y="225.9282"/><line style="stroke:#6C757D;stroke-width:1.0;" x1="1206" x2="1430" y1="249.5482" y2="249.5482"/><text fill="#000000" font-family="Arial" font-size="10" lengthAdjust="spacing" textLength="108" x="1264" y="241.6182">ProgramasDisponibles</text><text fill="#000000" font-family="Arial" font-size="10" lengthAdjust="spacing" textLength="173" x="1211" y="265.2382">Contexto de programas acad&#233;micos</text><text fill="#000000" font-family="Arial" font-size="10" lengthAdjust="spacing" textLength="204" x="1211" y="278.8582">Operaciones CRUD espec&#237;ficas disponibles</text></g><g id="CursosDisponibles"><rect fill="#F8F9FA" height="60.86" rx="12.5" ry="12.5" style="stroke:#6C757D;stroke-width:1.0;" width="185" x="1225.5" y="462.9282"/><line style="stroke:#6C757D;stroke-width:1.0;" x1="1225.5" x2="1410.5" y1="486.5482" y2="486.5482"/><text fill="#000000" font-family="Arial" font-size="10" lengthAdjust="spacing" textLength="88" x="1274" y="478.6182">CursosDisponibles</text><text fill="#000000" font-family="Arial" font-size="10" lengthAdjust="spacing" textLength="92" x="1230.5" y="502.2382">Contexto de cursos</text><text fill="#000000" font-family="Arial" font-size="10" lengthAdjust="spacing" textLength="165" x="1230.5" y="515.8582">Gesti&#243;n de asignaturas disponible</text></g><g id="ProfesoresDisponibles"><rect fill="#F8F9FA" height="60.86" rx="12.5" ry="12.5" style="stroke:#6C757D;stroke-width:1.0;" width="212" x="1212" y="699.9282"/><line style="stroke:#6C757D;stroke-width:1.0;" x1="1212" x2="1424" y1="723.5482" y2="723.5482"/><text fill="#000000" font-family="Arial" font-size="10" lengthAdjust="spacing" textLength="107" x="1264.5" y="715.6182">ProfesoresDisponibles</text><text fill="#000000" font-family="Arial" font-size="10" lengthAdjust="spacing" textLength="112" x="1217" y="739.2382">Contexto de profesores</text><text fill="#000000" font-family="Arial" font-size="10" lengthAdjust="spacing" textLength="192" x="1217" y="752.8582">Gesti&#243;n de personal docente disponible</text></g><g id="EdificiosDisponibles"><rect fill="#F8F9FA" height="60.86" rx="12.5" ry="12.5" style="stroke:#6C757D;stroke-width:1.0;" width="200" x="1218" y="936.9282"/><line style="stroke:#6C757D;stroke-width:1.0;" x1="1218" x2="1418" y1="960.5482" y2="960.5482"/><text fill="#000000" font-family="Arial" font-size="10" lengthAdjust="spacing" textLength="96" x="1270" y="952.6182">EdificiosDisponibles</text><text fill="#000000" font-family="Arial" font-size="10" lengthAdjust="spacing" textLength="101" x="1223" y="976.2382">Contexto de edificios</text><text fill="#000000" font-family="Arial" font-size="10" lengthAdjust="spacing" textLength="180" x="1223" y="989.8582">Gesti&#243;n de infraestructura disponible</text></g><g id="AulasDisponibles"><rect fill="#F8F9FA" height="60.86" rx="12.5" ry="12.5" style="stroke:#6C757D;stroke-width:1.0;" width="230" x="1203" y="1173.9282"/><line style="stroke:#6C757D;stroke-width:1.0;" x1="1203" x2="1433" y1="1197.5482" y2="1197.5482"/><text fill="#000000" font-family="Arial" font-size="10" lengthAdjust="spacing" textLength="82" x="1277" y="1189.6182">AulasDisponibles</text><text fill="#000000" font-family="Arial" font-size="10" lengthAdjust="spacing" textLength="87" x="1208" y="1213.2382">Contexto de aulas</text><text fill="#000000" font-family="Arial" font-size="10" lengthAdjust="spacing" textLength="210" x="1208" y="1226.8582">Gesti&#243;n de espacios acad&#233;micos disponible</text></g><g id="RecursosDisponibles"><rect fill="#F8F9FA" height="60.86" rx="12.5" ry="12.5" style="stroke:#6C757D;stroke-width:1.0;" width="195" x="1220.5" y="1410.9282"/><line style="stroke:#6C757D;stroke-width:1.0;" x1="1220.5" x2="1415.5" y1="1434.5482" y2="1434.5482"/><text fill="#000000" font-family="Arial" font-size="10" lengthAdjust="spacing" textLength="99" x="1268.5" y="1426.6182">RecursosDisponibles</text><text fill="#000000" font-family="Arial" font-size="10" lengthAdjust="spacing" textLength="102" x="1225.5" y="1450.2382">Contexto de recursos</text><text fill="#000000" font-family="Arial" font-size="10" lengthAdjust="spacing" textLength="175" x="1225.5" y="1463.8582">Gesti&#243;n de equipamiento disponible</text></g><g id="AsignacionActiva"><rect fill="#F8F9FA" height="60.86" rx="12.5" ry="12.5" style="stroke:#6C757D;stroke-width:1.0;" width="179" x="1228.5" y="1600.9282"/><line style="stroke:#6C757D;stroke-width:1.0;" x1="1228.5" x2="1407.5" y1="1624.5482" y2="1624.5482"/><text fill="#000000" font-family="Arial" font-size="10" lengthAdjust="spacing" textLength="81" x="1277.5" y="1616.6182">AsignacionActiva</text><text fill="#000000" font-family="Arial" font-size="10" lengthAdjust="spacing" textLength="152" x="1233.5" y="1640.2382">Proceso de asignaci&#243;n en curso</text><text fill="#000000" font-family="Arial" font-size="10" lengthAdjust="spacing" textLength="159" x="1233.5" y="1653.8582">Vinculaci&#243;n profesor-curso activa</text></g><g id="GeneracionActiva"><rect fill="#F8F9FA" height="60.86" rx="12.5" ry="12.5" style="stroke:#6C757D;stroke-width:1.0;" width="202" x="1217" y="1696.9282"/><line style="stroke:#6C757D;stroke-width:1.0;" x1="1217" x2="1419" y1="1720.5482" y2="1720.5482"/><text fill="#000000" font-family="Arial" font-size="10" lengthAdjust="spacing" textLength="84" x="1276" y="1712.6182">GeneracionActiva</text><text fill="#000000" font-family="Arial" font-size="10" lengthAdjust="spacing" textLength="182" x="1222" y="1736.2382">Proceso de optimizaci&#243;n en ejecuci&#243;n</text><text fill="#000000" font-family="Arial" font-size="10" lengthAdjust="spacing" textLength="161" x="1222" y="1749.8582">Algoritmo de horarios trabajando</text></g><g id="ConsultaActiva"><rect fill="#F8F9FA" height="60.86" rx="12.5" ry="12.5" style="stroke:#6C757D;stroke-width:1.0;" width="205" x="1215.5" y="1792.9282"/><line style="stroke:#6C757D;stroke-width:1.0;" x1="1215.5" x2="1420.5" y1="1816.5482" y2="1816.5482"/><text fill="#000000" font-family="Arial" font-size="10" lengthAdjust="spacing" textLength="71" x="1282.5" y="1808.6182">ConsultaActiva</text><text fill="#000000" font-family="Arial" font-size="10" lengthAdjust="spacing" textLength="144" x="1220.5" y="1832.2382">Capacidad de consulta en uso</text><text fill="#000000" font-family="Arial" font-size="10" lengthAdjust="spacing" textLength="185" x="1220.5" y="1845.8582">Visualizaci&#243;n de resultados disponible</text></g><g id="elem_GMN55"><path d="M92,1269.9282 L92,1439.2824 A0,0 0 0 0 92,1439.2824 L615,1439.2824 A0,0 0 0 0 615,1439.2824 L615,1279.9282 L605,1269.9282 L357.5,1269.9282 L353.5,1235.0482 L349.5,1269.9282 L92,1269.9282 A0,0 0 0 0 92,1269.9282 " fill="#FFFFFF" style="stroke:#000000;stroke-width:1.0;"/><path d="M605,1269.9282 L605,1279.9282 L615,1279.9282 L605,1269.9282 " fill="#FFFFFF" style="stroke:#000000;stroke-width:1.0;"/><text fill="#000000" font-family="Verdana" font-size="13" font-weight="bold" lengthAdjust="spacing" textLength="372" x="98" y="1288.8252">Caracter&#237;sticas del Diagrama Conceptual Puro Corregido:</text><text fill="#000000" font-family="Verdana" font-size="13" lengthAdjust="spacing" textLength="3" x="98" y="1306.5312">&#160;</text><text fill="#000000" font-family="Verdana" font-size="13" lengthAdjust="spacing" textLength="5" x="98" y="1324.2372">&#8226;</text><text fill="#000000" font-family="Verdana" font-size="13" font-weight="bold" lengthAdjust="spacing" textLength="151" x="106" y="1324.2372">Atomicidad preservada</text><text fill="#000000" font-family="Verdana" font-size="13" lengthAdjust="spacing" textLength="267" x="257" y="1324.2372">: Cada transici&#243;n es un caso de uso espec&#237;fico</text><text fill="#000000" font-family="Verdana" font-size="13" lengthAdjust="spacing" textLength="113" x="98" y="1341.9433">&#8226; Estados expresan</text><text fill="#000000" font-family="Verdana" font-size="13" font-weight="bold" lengthAdjust="spacing" textLength="154" x="214" y="1341.9433">capacidades de negocio</text><text fill="#000000" font-family="Verdana" font-size="13" lengthAdjust="spacing" textLength="117" x="368" y="1341.9433">, no agrupamientos</text><text fill="#000000" font-family="Verdana" font-size="13" lengthAdjust="spacing" textLength="158" x="98" y="1359.6493">&#8226; Transiciones representan</text><text fill="#000000" font-family="Verdana" font-size="13" font-weight="bold" lengthAdjust="spacing" textLength="175" x="259" y="1359.6493">conversaciones espec&#237;ficas</text><text fill="#000000" font-family="Verdana" font-size="13" lengthAdjust="spacing" textLength="163" x="437" y="1359.6493">con resultados observables</text><text fill="#000000" font-family="Verdana" font-size="13" lengthAdjust="spacing" textLength="64" x="98" y="1377.3553">&#8226; Nombres</text><text fill="#000000" font-family="Verdana" font-size="13" font-weight="bold" lengthAdjust="spacing" textLength="194" x="165" y="1377.3553">agn&#243;sticos tecnol&#243;gicamente</text><text fill="#000000" font-family="Verdana" font-size="13" lengthAdjust="spacing" textLength="28" x="362" y="1377.3553">pero</text><text fill="#000000" font-family="Verdana" font-size="13" font-weight="bold" lengthAdjust="spacing" textLength="169" x="393" y="1377.3553">sem&#225;nticamente precisos</text><text fill="#000000" font-family="Verdana" font-size="13" lengthAdjust="spacing" textLength="66" x="98" y="1395.0613">&#8226; Base para</text><text fill="#000000" font-family="Verdana" font-size="13" font-weight="bold" lengthAdjust="spacing" textLength="142" x="167" y="1395.0613">an&#225;lisis RUP ortodoxo</text><text fill="#000000" font-family="Verdana" font-size="13" lengthAdjust="spacing" textLength="5" x="98" y="1412.7673">&#8226;</text><text fill="#000000" font-family="Verdana" font-size="13" font-weight="bold" lengthAdjust="spacing" textLength="59" x="106" y="1412.7673">Sin sesgo</text><text fill="#000000" font-family="Verdana" font-size="13" lengthAdjust="spacing" textLength="238" x="168" y="1412.7673">hacia paradigmas de interfaz espec&#237;ficos</text><text fill="#000000" font-family="Verdana" font-size="13" lengthAdjust="spacing" textLength="5" x="98" y="1430.4733">&#8226;</text><text fill="#000000" font-family="Verdana" font-size="13" font-weight="bold" lengthAdjust="spacing" textLength="130" x="106" y="1430.4733">Trazabilidad directa</text><text fill="#000000" font-family="Verdana" font-size="13" lengthAdjust="spacing" textLength="222" x="239" y="1430.4733">hacia implementaciones tecnol&#243;gicas</text></g><!--link *start* to NoAuth--><g id="link_*start*_NoAuth"><path d="M31.18,1204.4282 C65.54,1204.4282 182.75,1204.4282 266.22,1204.4282 " fill="none" id="*start*-to-NoAuth" style="stroke:#000000;stroke-width:1.0;"/><polygon fill="#000000" points="272.22,1204.4282,263.22,1200.4282,267.22,1204.4282,263.22,1208.4282,272.22,1204.4282" style="stroke:#000000;stroke-width:1.0;"/></g><!--link NoAuth to SISTEMA_DISPONIBLE--><g id="link_NoAuth_SISTEMA_DISPONIBLE"><path d="M434.62,1204.5782 C520.79,1204.7482 652.89,1204.9968 752.88,1205.1868 " fill="none" id="NoAuth-to-SISTEMA_DISPONIBLE" style="stroke:#000000;stroke-width:1.0;"/><polygon fill="#000000" points="758.88,1205.1982,749.8876,1201.1811,753.88,1205.1887,749.8724,1209.1811,758.88,1205.1982" style="stroke:#000000;stroke-width:1.0;"/><text fill="#000000" font-family="Verdana" font-size="13" lengthAdjust="spacing" textLength="82" x="646" y="1201.3252">iniciarSesion()</text></g><!--link SISTEMA_DISPONIBLE to NoAuth--><g id="link_SISTEMA_DISPONIBLE_NoAuth"><path d="M758.66,1229.0982 C748.65,1230.4382 738.67,1231.5782 729,1232.4282 C627.52,1241.3182 516.3379,1229.7792 440.4779,1218.7792 " fill="none" id="SISTEMA_DISPONIBLE-to-NoAuth" style="stroke:#000000;stroke-width:1.0;"/><polygon fill="#000000" points="434.54,1217.9182,442.8728,1223.1683,439.4882,1218.6357,444.0209,1215.2511,434.54,1217.9182" style="stroke:#000000;stroke-width:1.0;"/><text fill="#000000" font-family="Verdana" font-size="13" lengthAdjust="spacing" textLength="82" x="646" y="1228.3252">cerrarSesion()</text></g><!--link SISTEMA_DISPONIBLE to ProgramasDisponibles--><g id="link_SISTEMA_DISPONIBLE_ProgramasDisponibles"><path d="M886.07,1168.3282 C894.9,1022.8882 933.71,493.3482 1037,367.4282 C1078.7,316.5882 1141.1868,290.3937 1199.8868,275.3937 " fill="none" id="SISTEMA_DISPONIBLE-to-ProgramasDisponibles" style="stroke:#000000;stroke-width:1.0;"/><polygon fill="#000000" points="1205.7,273.9082,1195.9899,272.261,1200.8557,275.1461,1197.9705,280.0119,1205.7,273.9082" style="stroke:#000000;stroke-width:1.0;"/><text fill="#000000" font-family="Verdana" font-size="13" lengthAdjust="spacing" textLength="102" x="1054" y="280.3252">abrirProgramas()</text></g><!--link ProgramasDisponibles to SISTEMA_DISPONIBLE--><g id="link_ProgramasDisponibles_SISTEMA_DISPONIBLE"><path d="M1224.05,287.0982 C1216.31,292.0682 1209.13,297.8082 1203,304.4282 C1174.35,335.3682 1197.57,360.1682 1173,394.4282 C1128.81,456.0382 1077.77,433.4982 1037,497.4282 C894.32,721.1482 882.879,1051.0482 883.269,1162.2282 " fill="none" id="ProgramasDisponibles-to-SISTEMA_DISPONIBLE" style="stroke:#000000;stroke-width:1.0;"/><polygon fill="#000000" points="883.29,1168.2282,887.2584,1159.2142,883.2725,1163.2282,879.2585,1159.2423,883.29,1168.2282" style="stroke:#000000;stroke-width:1.0;"/><text fill="#000000" font-family="Verdana" font-size="13" lengthAdjust="spacing" textLength="115" x="1047.5" y="390.3252">completarGestion()</text></g><!--link SISTEMA_DISPONIBLE to CursosDisponibles--><g id="link_SISTEMA_DISPONIBLE_CursosDisponibles"><path d="M888.96,1168.2982 C905.3,1050.8082 960.86,689.7682 1037,603.4282 C1085.1,548.8782 1157.8681,522.4532 1219.5681,508.4832 " fill="none" id="SISTEMA_DISPONIBLE-to-CursosDisponibles" style="stroke:#000000;stroke-width:1.0;"/><polygon fill="#000000" points="1225.42,507.1582,1215.7589,505.2444,1220.5434,508.2623,1217.5255,513.0469,1225.42,507.1582" style="stroke:#000000;stroke-width:1.0;"/><text fill="#000000" font-family="Verdana" font-size="13" lengthAdjust="spacing" textLength="77" x="1066.5" y="520.3252">abrirCursos()</text></g><!--link CursosDisponibles to SISTEMA_DISPONIBLE--><g id="link_CursosDisponibles_SISTEMA_DISPONIBLE"><path d="M1225.46,523.2482 C1217.19,528.4082 1209.5,534.4282 1203,541.4282 C1174.59,572.0082 1197.38,596.5482 1173,630.4282 C1128.71,691.9682 1080.93,671.6282 1037,733.4282 C936.92,874.1982 900.565,1078.0424 889.145,1162.3924 " fill="none" id="CursosDisponibles-to-SISTEMA_DISPONIBLE" style="stroke:#000000;stroke-width:1.0;"/><polygon fill="#000000" points="888.34,1168.3382,893.5113,1159.9562,889.0108,1163.3834,885.5836,1158.8829,888.34,1168.3382" style="stroke:#000000;stroke-width:1.0;"/><text fill="#000000" font-family="Verdana" font-size="13" lengthAdjust="spacing" textLength="115" x="1047.5" y="626.3252">completarGestion()</text></g><!--link SISTEMA_DISPONIBLE to ProfesoresDisponibles--><g id="link_SISTEMA_DISPONIBLE_ProfesoresDisponibles"><path d="M889.21,1168.2182 C901.48,1094.2782 938.91,927.8882 1037,833.4282 C1084.48,787.7082 1148.1153,763.428 1205.9653,749.128 " fill="none" id="SISTEMA_DISPONIBLE-to-ProfesoresDisponibles" style="stroke:#000000;stroke-width:1.0;"/><polygon fill="#000000" points="1211.79,747.6882,1202.0931,745.9648,1206.9361,748.888,1204.0128,753.731,1211.79,747.6882" style="stroke:#000000;stroke-width:1.0;"/><text fill="#000000" font-family="Verdana" font-size="13" lengthAdjust="spacing" textLength="100" x="1055" y="756.3252">abrirProfesores()</text></g><!--link ProfesoresDisponibles to SISTEMA_DISPONIBLE--><g id="link_ProfesoresDisponibles_SISTEMA_DISPONIBLE"><path d="M1224.8,760.9382 C1216.82,765.9482 1209.37,771.7482 1203,778.4282 C1176.22,806.5182 1195.93,829.1182 1173,860.4282 C1127.89,922.0382 1088.52,909.0582 1037,965.4282 C978.5,1029.4482 931.064,1113.1528 905.284,1162.8228 " fill="none" id="ProfesoresDisponibles-to-SISTEMA_DISPONIBLE" style="stroke:#000000;stroke-width:1.0;"/><polygon fill="#000000" points="902.52,1168.1482,910.2163,1162.0028,904.8234,1163.7104,903.1158,1158.3174,902.52,1168.1482" style="stroke:#000000;stroke-width:1.0;"/><text fill="#000000" font-family="Verdana" font-size="13" lengthAdjust="spacing" textLength="115" x="1047.5" y="856.3252">completarGestion()</text></g><!--link SISTEMA_DISPONIBLE to EdificiosDisponibles--><g id="link_SISTEMA_DISPONIBLE_EdificiosDisponibles"><path d="M909.82,1168.2082 C937.25,1131.4382 983.91,1076.2282 1037,1044.4282 C1092.15,1011.3982 1155.932,993.3219 1211.972,982.3419 " fill="none" id="SISTEMA_DISPONIBLE-to-EdificiosDisponibles" style="stroke:#000000;stroke-width:1.0;"/><polygon fill="#000000" points="1217.86,981.1882,1208.2588,978.9933,1212.9533,982.1496,1209.797,986.844,1217.86,981.1882" style="stroke:#000000;stroke-width:1.0;"/><text fill="#000000" font-family="Verdana" font-size="13" lengthAdjust="spacing" textLength="84" x="1063" y="988.3252">abrirEdificios()</text></g><!--link EdificiosDisponibles to SISTEMA_DISPONIBLE--><g id="link_EdificiosDisponibles_SISTEMA_DISPONIBLE"><path d="M1227.18,998.0682 C1218.48,1003.0882 1210.22,1008.8482 1203,1015.4282 C1182.13,1034.4382 1193.53,1052.0482 1173,1071.4282 C1126.45,1115.3682 1068.5089,1144.8112 1012.8589,1166.2512 " fill="none" id="EdificiosDisponibles-to-SISTEMA_DISPONIBLE" style="stroke:#000000;stroke-width:1.0;"/><polygon fill="#000000" points="1007.26,1168.4082,1017.0963,1168.9052,1011.9257,1166.6107,1014.2203,1161.4401,1007.26,1168.4082" style="stroke:#000000;stroke-width:1.0;"/><text fill="#000000" font-family="Verdana" font-size="13" lengthAdjust="spacing" textLength="115" x="1047.5" y="1067.3252">completarGestion()</text></g><!--link SISTEMA_DISPONIBLE to AulasDisponibles--><g id="link_SISTEMA_DISPONIBLE_AulasDisponibles"><path d="M1007.21,1205.1482 C1068.71,1204.9982 1136.63,1204.8422 1196.83,1204.7022 " fill="none" id="SISTEMA_DISPONIBLE-to-AulasDisponibles" style="stroke:#000000;stroke-width:1.0;"/><polygon fill="#000000" points="1202.83,1204.6882,1193.8207,1200.7091,1197.83,1204.6998,1193.8393,1208.7091,1202.83,1204.6882" style="stroke:#000000;stroke-width:1.0;"/><text fill="#000000" font-family="Verdana" font-size="13" lengthAdjust="spacing" textLength="68" x="1071" y="1201.3252">abrirAulas()</text></g><!--link AulasDisponibles to SISTEMA_DISPONIBLE--><g id="link_AulasDisponibles_SISTEMA_DISPONIBLE"><path d="M1202.93,1228.6782 C1192.84,1230.1982 1182.76,1231.4882 1173,1232.4282 C1112.83,1238.2282 1097.21,1237.6982 1037,1232.4282 C1027.33,1231.5782 1023.297,1231.2343 1013.287,1229.8943 " fill="none" id="AulasDisponibles-to-SISTEMA_DISPONIBLE" style="stroke:#000000;stroke-width:1.0;"/><polygon fill="#000000" points="1007.34,1229.0982,1015.7297,1234.257,1012.2958,1229.7616,1016.7912,1226.3277,1007.34,1229.0982" style="stroke:#000000;stroke-width:1.0;"/><text fill="#000000" font-family="Verdana" font-size="13" lengthAdjust="spacing" textLength="115" x="1047.5" y="1228.3252">completarGestion()</text></g><!--link SISTEMA_DISPONIBLE to RecursosDisponibles--><g id="link_SISTEMA_DISPONIBLE_RecursosDisponibles"><path d="M983.8,1242.5582 C1040.82,1265.4082 1112.75,1297.0482 1173,1332.4282 C1212.2,1355.4482 1248.5699,1383.53 1276.7499,1406.88 " fill="none" id="SISTEMA_DISPONIBLE-to-RecursosDisponibles" style="stroke:#000000;stroke-width:1.0;"/><polygon fill="#000000" points="1281.37,1410.7082,1276.992,1401.8859,1277.5199,1407.518,1271.8878,1408.046,1281.37,1410.7082" style="stroke:#000000;stroke-width:1.0;"/><text fill="#000000" font-family="Verdana" font-size="13" lengthAdjust="spacing" textLength="90" x="1060" y="1262.3252">abrirRecursos()</text></g><!--link RecursosDisponibles to SISTEMA_DISPONIBLE--><g id="link_RecursosDisponibles_SISTEMA_DISPONIBLE"><path d="M1231.36,1410.8782 C1212.25,1404.4582 1192.02,1397.9582 1173,1392.4282 C1113.28,1375.0582 1091.18,1389.9782 1037,1359.4282 C984.96,1330.0882 942.4065,1282.7743 914.7265,1247.3843 " fill="none" id="RecursosDisponibles-to-SISTEMA_DISPONIBLE" style="stroke:#000000;stroke-width:1.0;"/><polygon fill="#000000" points="911.03,1242.6582,913.424,1252.2117,914.1104,1246.5966,919.7255,1247.283,911.03,1242.6582" style="stroke:#000000;stroke-width:1.0;"/><text fill="#000000" font-family="Verdana" font-size="13" lengthAdjust="spacing" textLength="115" x="1047.5" y="1355.3252">completarGestion()</text></g><!--link SISTEMA_DISPONIBLE to AsignacionActiva--><g id="link_SISTEMA_DISPONIBLE_AsignacionActiva"><path d="M900.37,1242.7082 C923.59,1291.1182 970.77,1374.6882 1037,1419.4282 C1088.54,1454.2482 1120.49,1419.0882 1173,1452.4282 C1173.5,1452.7382 1247.5832,1544.9699 1288.5932,1596.0399 " fill="none" id="SISTEMA_DISPONIBLE-to-AsignacionActiva" style="stroke:#000000;stroke-width:1.0;"/><polygon fill="#000000" points="1292.35,1600.7182,1289.8337,1591.1962,1289.2194,1596.8196,1283.596,1596.2052,1292.35,1600.7182" style="stroke:#000000;stroke-width:1.0;"/><text fill="#000000" font-family="Verdana" font-size="13" lengthAdjust="spacing" textLength="108" x="1051" y="1415.3252">iniciarAsignacion()</text></g><!--link AsignacionActiva to SISTEMA_DISPONIBLE--><g id="link_AsignacionActiva_SISTEMA_DISPONIBLE"><path d="M1287.46,1600.8882 C1260.13,1574.3182 1217.15,1536.6982 1173,1514.4282 C1117.27,1486.3182 1086.43,1517.5282 1037,1479.4282 C957.17,1417.8882 914.5995,1307.9382 896.1395,1248.4982 " fill="none" id="AsignacionActiva-to-SISTEMA_DISPONIBLE" style="stroke:#000000;stroke-width:1.0;"/><polygon fill="#000000" points="894.36,1242.7682,893.2093,1252.5496,895.843,1247.5432,900.8493,1250.1769,894.36,1242.7682" style="stroke:#000000;stroke-width:1.0;"/><text fill="#000000" font-family="Verdana" font-size="13" lengthAdjust="spacing" textLength="134" x="1038" y="1475.3252">completarAsignacion()</text></g><!--link SISTEMA_DISPONIBLE to GeneracionActiva--><g id="link_SISTEMA_DISPONIBLE_GeneracionActiva"><path d="M890.48,1242.4782 C904.5,1311.5582 944.21,1460.3482 1037,1541.4282 C1084.54,1582.9682 1128.2,1537.9482 1173,1582.4282 C1205.02,1614.2182 1172.7,1645.9882 1203,1679.4282 C1209.06,1686.1082 1211.1549,1688.6352 1218.8549,1693.6252 " fill="none" id="SISTEMA_DISPONIBLE-to-GeneracionActiva" style="stroke:#000000;stroke-width:1.0;"/><polygon fill="#000000" points="1223.89,1696.8882,1218.5126,1688.6369,1219.6941,1694.169,1214.1619,1695.3504,1223.89,1696.8882" style="stroke:#000000;stroke-width:1.0;"/><text fill="#000000" font-family="Verdana" font-size="13" lengthAdjust="spacing" textLength="101" x="1054.5" y="1537.3252">generarHorario()</text></g><!--link GeneracionActiva to SISTEMA_DISPONIBLE--><g id="link_GeneracionActiva_SISTEMA_DISPONIBLE"><path d="M1241.75,1696.8982 C1228.74,1691.2882 1215.41,1685.3382 1203,1679.4282 C1189.36,1672.9382 1186.71,1669.7782 1173,1663.4282 C1113.99,1636.0782 1082.62,1655.7782 1037,1609.4282 C933.1,1503.8582 899.2419,1326.6657 888.8319,1248.4857 " fill="none" id="GeneracionActiva-to-SISTEMA_DISPONIBLE" style="stroke:#000000;stroke-width:1.0;"/><polygon fill="#000000" points="888.04,1242.5382,885.2629,1251.9874,888.6999,1247.4945,893.1929,1250.9315,888.04,1242.5382" style="stroke:#000000;stroke-width:1.0;"/><text fill="#000000" font-family="Verdana" font-size="13" lengthAdjust="spacing" textLength="117" x="1046.5" y="1605.3252">completarProceso()</text></g><!--link SISTEMA_DISPONIBLE to ConsultaActiva--><g id="link_SISTEMA_DISPONIBLE_ConsultaActiva"><path d="M886.16,1242.5482 C893.11,1330.4382 921.75,1554.0282 1037,1690.4282 C1090.5,1753.7382 1127.86,1740.4282 1203,1775.4282 C1215.56,1781.2782 1223.5047,1784.8657 1236.6247,1790.4857 " fill="none" id="SISTEMA_DISPONIBLE-to-ConsultaActiva" style="stroke:#000000;stroke-width:1.0;"/><polygon fill="#000000" points="1242.14,1792.8482,1235.442,1785.6276,1237.5439,1790.8795,1232.292,1792.9813,1242.14,1792.8482" style="stroke:#000000;stroke-width:1.0;"/><text fill="#000000" font-family="Verdana" font-size="13" lengthAdjust="spacing" textLength="110" x="1050" y="1686.3252">consultarHorario()</text></g><!--link ConsultaActiva to SISTEMA_DISPONIBLE--><g id="link_ConsultaActiva_SISTEMA_DISPONIBLE"><path d="M1215.44,1836.8182 C1156.64,1838.7882 1085,1830.4682 1037,1788.4282 C953.06,1714.9182 903.5372,1365.2827 889.0872,1248.5727 " fill="none" id="ConsultaActiva-to-SISTEMA_DISPONIBLE" style="stroke:#000000;stroke-width:1.0;"/><polygon fill="#000000" points="888.35,1242.6182,885.4862,1252.0415,888.9644,1247.5803,893.4255,1251.0585,888.35,1242.6182" style="stroke:#000000;stroke-width:1.0;"/><text fill="#000000" font-family="Verdana" font-size="13" lengthAdjust="spacing" textLength="122" x="1044" y="1784.3252">completarConsulta()</text></g><!--link ProgramasDisponibles to ProgramasDisponibles--><g id="link_ProgramasDisponibles_ProgramasDisponibles"><path d="M1305.53,225.7682 C1302.87,207.7682 1307.03,190.9282 1318,190.9282 C1328.97,190.9282 1334.0071,201.8327 1331.3471,219.8327 " fill="none" id="ProgramasDisponibles-to-ProgramasDisponibles" style="stroke:#000000;stroke-width:1.0;"/><polygon fill="#000000" points="1330.47,225.7682,1335.7427,217.4497,1331.201,220.8219,1327.8287,216.2801,1330.47,225.7682" style="stroke:#000000;stroke-width:1.0;"/><text fill="#000000" font-family="Verdana" font-size="13" lengthAdjust="spacing" textLength="98" x="1269" y="181.8252">crearPrograma()</text></g><!--link ProgramasDisponibles to ProgramasDisponibles--><g id="link_ProgramasDisponibles_ProgramasDisponibles"><path d="M1297.82,225.8182 C1284.98,193.0282 1291.71,155.9282 1318,155.9282 C1344.29,155.9282 1353.2077,187.4413 1340.3677,220.2313 " fill="none" id="ProgramasDisponibles-to-ProgramasDisponibles-1" style="stroke:#000000;stroke-width:1.0;"/><polygon fill="#000000" points="1338.18,225.8182,1345.1862,218.8963,1340.0031,221.1624,1337.737,215.9793,1338.18,225.8182" style="stroke:#000000;stroke-width:1.0;"/><text fill="#000000" font-family="Verdana" font-size="13" lengthAdjust="spacing" textLength="103" x="1266.5" y="146.8252">editarPrograma()</text></g><!--link ProgramasDisponibles to ProgramasDisponibles--><g id="link_ProgramasDisponibles_ProgramasDisponibles"><path d="M1293.01,225.8082 C1267.02,179.4182 1275.35,120.9282 1318,120.9282 C1360.65,120.9282 1371.9126,174.1837 1345.9226,220.5737 " fill="none" id="ProgramasDisponibles-to-ProgramasDisponibles-2" style="stroke:#000000;stroke-width:1.0;"/><polygon fill="#000000" points="1342.99,225.8082,1350.8786,219.9116,1345.4338,221.4461,1343.8993,216.0014,1342.99,225.8082" style="stroke:#000000;stroke-width:1.0;"/><text fill="#000000" font-family="Verdana" font-size="13" lengthAdjust="spacing" textLength="116" x="1260" y="111.8252">eliminarPrograma()</text></g><!--link CursosDisponibles to CursosDisponibles--><g id="link_CursosDisponibles_CursosDisponibles"><path d="M1305.53,462.7682 C1302.87,444.7682 1307.03,427.9282 1318,427.9282 C1328.97,427.9282 1334.0071,438.8327 1331.3471,456.8327 " fill="none" id="CursosDisponibles-to-CursosDisponibles" style="stroke:#000000;stroke-width:1.0;"/><polygon fill="#000000" points="1330.47,462.7682,1335.7427,454.4497,1331.201,457.8219,1327.8287,453.2801,1330.47,462.7682" style="stroke:#000000;stroke-width:1.0;"/><text fill="#000000" font-family="Verdana" font-size="13" lengthAdjust="spacing" textLength="73" x="1281.5" y="418.8252">crearCurso()</text></g><!--link CursosDisponibles to CursosDisponibles--><g id="link_CursosDisponibles_CursosDisponibles"><path d="M1297.82,462.8182 C1284.98,430.0282 1291.71,392.9282 1318,392.9282 C1344.29,392.9282 1353.2077,424.4413 1340.3677,457.2313 " fill="none" id="CursosDisponibles-to-CursosDisponibles-1" style="stroke:#000000;stroke-width:1.0;"/><polygon fill="#000000" points="1338.18,462.8182,1345.1862,455.8963,1340.0031,458.1624,1337.737,452.9793,1338.18,462.8182" style="stroke:#000000;stroke-width:1.0;"/><text fill="#000000" font-family="Verdana" font-size="13" lengthAdjust="spacing" textLength="78" x="1279" y="383.8252">editarCurso()</text></g><!--link CursosDisponibles to CursosDisponibles--><g id="link_CursosDisponibles_CursosDisponibles"><path d="M1293.01,462.8082 C1267.02,416.4182 1275.35,357.9282 1318,357.9282 C1360.65,357.9282 1371.9126,411.1837 1345.9226,457.5737 " fill="none" id="CursosDisponibles-to-CursosDisponibles-2" style="stroke:#000000;stroke-width:1.0;"/><polygon fill="#000000" points="1342.99,462.8082,1350.8786,456.9116,1345.4338,458.4461,1343.8993,453.0014,1342.99,462.8082" style="stroke:#000000;stroke-width:1.0;"/><text fill="#000000" font-family="Verdana" font-size="13" lengthAdjust="spacing" textLength="91" x="1272.5" y="348.8252">eliminarCurso()</text></g><!--link ProfesoresDisponibles to ProfesoresDisponibles--><g id="link_ProfesoresDisponibles_ProfesoresDisponibles"><path d="M1305.53,699.7682 C1302.87,681.7682 1307.03,664.9282 1318,664.9282 C1328.97,664.9282 1334.0071,675.8327 1331.3471,693.8327 " fill="none" id="ProfesoresDisponibles-to-ProfesoresDisponibles" style="stroke:#000000;stroke-width:1.0;"/><polygon fill="#000000" points="1330.47,699.7682,1335.7427,691.4497,1331.201,694.8219,1327.8287,690.2801,1330.47,699.7682" style="stroke:#000000;stroke-width:1.0;"/><text fill="#000000" font-family="Verdana" font-size="13" lengthAdjust="spacing" textLength="89" x="1273.5" y="655.8252">crearProfesor()</text></g><!--link ProfesoresDisponibles to ProfesoresDisponibles--><g id="link_ProfesoresDisponibles_ProfesoresDisponibles"><path d="M1297.82,699.8182 C1284.98,667.0282 1291.71,629.9282 1318,629.9282 C1344.29,629.9282 1353.2077,661.4413 1340.3677,694.2313 " fill="none" id="ProfesoresDisponibles-to-ProfesoresDisponibles-1" style="stroke:#000000;stroke-width:1.0;"/><polygon fill="#000000" points="1338.18,699.8182,1345.1862,692.8963,1340.0031,695.1624,1337.737,689.9793,1338.18,699.8182" style="stroke:#000000;stroke-width:1.0;"/><text fill="#000000" font-family="Verdana" font-size="13" lengthAdjust="spacing" textLength="94" x="1271" y="620.8252">editarProfesor()</text></g><!--link ProfesoresDisponibles to ProfesoresDisponibles--><g id="link_ProfesoresDisponibles_ProfesoresDisponibles"><path d="M1293.01,699.8082 C1267.02,653.4182 1275.35,594.9282 1318,594.9282 C1360.65,594.9282 1371.9126,648.1837 1345.9226,694.5737 " fill="none" id="ProfesoresDisponibles-to-ProfesoresDisponibles-2" style="stroke:#000000;stroke-width:1.0;"/><polygon fill="#000000" points="1342.99,699.8082,1350.8786,693.9116,1345.4338,695.4461,1343.8993,690.0014,1342.99,699.8082" style="stroke:#000000;stroke-width:1.0;"/><text fill="#000000" font-family="Verdana" font-size="13" lengthAdjust="spacing" textLength="107" x="1264.5" y="585.8252">eliminarProfesor()</text></g><!--link EdificiosDisponibles to EdificiosDisponibles--><g id="link_EdificiosDisponibles_EdificiosDisponibles"><path d="M1305.53,936.7682 C1302.87,918.7682 1307.03,901.9282 1318,901.9282 C1328.97,901.9282 1334.0071,912.8327 1331.3471,930.8327 " fill="none" id="EdificiosDisponibles-to-EdificiosDisponibles" style="stroke:#000000;stroke-width:1.0;"/><polygon fill="#000000" points="1330.47,936.7682,1335.7427,928.4497,1331.201,931.8219,1327.8287,927.2801,1330.47,936.7682" style="stroke:#000000;stroke-width:1.0;"/><text fill="#000000" font-family="Verdana" font-size="13" lengthAdjust="spacing" textLength="80" x="1278" y="892.8252">crearEdificio()</text></g><!--link EdificiosDisponibles to EdificiosDisponibles--><g id="link_EdificiosDisponibles_EdificiosDisponibles"><path d="M1297.82,936.8182 C1284.98,904.0282 1291.71,866.9282 1318,866.9282 C1344.29,866.9282 1353.2077,898.4413 1340.3677,931.2313 " fill="none" id="EdificiosDisponibles-to-EdificiosDisponibles-1" style="stroke:#000000;stroke-width:1.0;"/><polygon fill="#000000" points="1338.18,936.8182,1345.1862,929.8963,1340.0031,932.1624,1337.737,926.9793,1338.18,936.8182" style="stroke:#000000;stroke-width:1.0;"/><text fill="#000000" font-family="Verdana" font-size="13" lengthAdjust="spacing" textLength="85" x="1275.5" y="857.8252">editarEdificio()</text></g><!--link EdificiosDisponibles to EdificiosDisponibles--><g id="link_EdificiosDisponibles_EdificiosDisponibles"><path d="M1293.01,936.8082 C1267.02,890.4182 1275.35,831.9282 1318,831.9282 C1360.65,831.9282 1371.9126,885.1837 1345.9226,931.5737 " fill="none" id="EdificiosDisponibles-to-EdificiosDisponibles-2" style="stroke:#000000;stroke-width:1.0;"/><polygon fill="#000000" points="1342.99,936.8082,1350.8786,930.9116,1345.4338,932.4461,1343.8993,927.0014,1342.99,936.8082" style="stroke:#000000;stroke-width:1.0;"/><text fill="#000000" font-family="Verdana" font-size="13" lengthAdjust="spacing" textLength="98" x="1269" y="822.8252">eliminarEdificio()</text></g><!--link AulasDisponibles to AulasDisponibles--><g id="link_AulasDisponibles_AulasDisponibles"><path d="M1305.53,1173.7682 C1302.87,1155.7682 1307.03,1138.9282 1318,1138.9282 C1328.97,1138.9282 1334.0071,1149.8327 1331.3471,1167.8327 " fill="none" id="AulasDisponibles-to-AulasDisponibles" style="stroke:#000000;stroke-width:1.0;"/><polygon fill="#000000" points="1330.47,1173.7682,1335.7427,1165.4497,1331.201,1168.8219,1327.8287,1164.2801,1330.47,1173.7682" style="stroke:#000000;stroke-width:1.0;"/><text fill="#000000" font-family="Verdana" font-size="13" lengthAdjust="spacing" textLength="64" x="1286" y="1129.8252">crearAula()</text></g><!--link AulasDisponibles to AulasDisponibles--><g id="link_AulasDisponibles_AulasDisponibles"><path d="M1297.82,1173.8182 C1284.98,1141.0282 1291.71,1103.9282 1318,1103.9282 C1344.29,1103.9282 1353.2077,1135.4413 1340.3677,1168.2313 " fill="none" id="AulasDisponibles-to-AulasDisponibles-1" style="stroke:#000000;stroke-width:1.0;"/><polygon fill="#000000" points="1338.18,1173.8182,1345.1862,1166.8963,1340.0031,1169.1624,1337.737,1163.9793,1338.18,1173.8182" style="stroke:#000000;stroke-width:1.0;"/><text fill="#000000" font-family="Verdana" font-size="13" lengthAdjust="spacing" textLength="69" x="1283.5" y="1094.8252">editarAula()</text></g><!--link AulasDisponibles to AulasDisponibles--><g id="link_AulasDisponibles_AulasDisponibles"><path d="M1293.01,1173.8082 C1267.02,1127.4182 1275.35,1068.9282 1318,1068.9282 C1360.65,1068.9282 1371.9126,1122.1837 1345.9226,1168.5737 " fill="none" id="AulasDisponibles-to-AulasDisponibles-2" style="stroke:#000000;stroke-width:1.0;"/><polygon fill="#000000" points="1342.99,1173.8082,1350.8786,1167.9116,1345.4338,1169.4461,1343.8993,1164.0014,1342.99,1173.8082" style="stroke:#000000;stroke-width:1.0;"/><text fill="#000000" font-family="Verdana" font-size="13" lengthAdjust="spacing" textLength="82" x="1277" y="1059.8252">eliminarAula()</text></g><!--link RecursosDisponibles to RecursosDisponibles--><g id="link_RecursosDisponibles_RecursosDisponibles"><path d="M1305.53,1410.7682 C1302.87,1392.7682 1307.03,1375.9282 1318,1375.9282 C1328.97,1375.9282 1334.0071,1386.8327 1331.3471,1404.8327 " fill="none" id="RecursosDisponibles-to-RecursosDisponibles" style="stroke:#000000;stroke-width:1.0;"/><polygon fill="#000000" points="1330.47,1410.7682,1335.7427,1402.4497,1331.201,1405.8219,1327.8287,1401.2801,1330.47,1410.7682" style="stroke:#000000;stroke-width:1.0;"/><text fill="#000000" font-family="Verdana" font-size="13" lengthAdjust="spacing" textLength="86" x="1275" y="1366.8252">crearRecurso()</text></g><!--link RecursosDisponibles to RecursosDisponibles--><g id="link_RecursosDisponibles_RecursosDisponibles"><path d="M1297.82,1410.8182 C1284.98,1378.0282 1291.71,1340.9282 1318,1340.9282 C1344.29,1340.9282 1353.2077,1372.4413 1340.3677,1405.2313 " fill="none" id="RecursosDisponibles-to-RecursosDisponibles-1" style="stroke:#000000;stroke-width:1.0;"/><polygon fill="#000000" points="1338.18,1410.8182,1345.1862,1403.8963,1340.0031,1406.1624,1337.737,1400.9793,1338.18,1410.8182" style="stroke:#000000;stroke-width:1.0;"/><text fill="#000000" font-family="Verdana" font-size="13" lengthAdjust="spacing" textLength="91" x="1272.5" y="1331.8252">editarRecurso()</text></g><!--link RecursosDisponibles to RecursosDisponibles--><g id="link_RecursosDisponibles_RecursosDisponibles"><path d="M1293.01,1410.8082 C1267.02,1364.4182 1275.35,1305.9282 1318,1305.9282 C1360.65,1305.9282 1371.9126,1359.1837 1345.9226,1405.5737 " fill="none" id="RecursosDisponibles-to-RecursosDisponibles-2" style="stroke:#000000;stroke-width:1.0;"/><polygon fill="#000000" points="1342.99,1410.8082,1350.8786,1404.9116,1345.4338,1406.4461,1343.8993,1401.0014,1342.99,1410.8082" style="stroke:#000000;stroke-width:1.0;"/><text fill="#000000" font-family="Verdana" font-size="13" lengthAdjust="spacing" textLength="104" x="1266" y="1296.8252">eliminarRecurso()</text></g><!--link AsignacionActiva to AsignacionActiva--><g id="link_AsignacionActiva_AsignacionActiva"><path d="M1299.29,1600.7682 C1295.3,1582.7682 1301.54,1565.9282 1318,1565.9282 C1334.46,1565.9282 1341.9985,1576.9104 1338.0085,1594.9104 " fill="none" id="AsignacionActiva-to-AsignacionActiva" style="stroke:#000000;stroke-width:1.0;"/><polygon fill="#000000" points="1336.71,1600.7682,1342.5629,1592.8471,1337.7921,1595.8867,1334.7525,1591.1158,1336.71,1600.7682" style="stroke:#000000;stroke-width:1.0;"/><text fill="#000000" font-family="Verdana" font-size="13" lengthAdjust="spacing" textLength="103" x="1266.5" y="1556.8252">asignarProfesor()</text></g><!--link AsignacionActiva to AsignacionActiva--><g id="link_AsignacionActiva_AsignacionActiva"><path d="M1287.73,1600.8182 C1268.47,1568.0282 1278.56,1530.9282 1318,1530.9282 C1357.44,1530.9282 1370.5688,1562.8547 1351.3088,1595.6447 " fill="none" id="AsignacionActiva-to-AsignacionActiva-1" style="stroke:#000000;stroke-width:1.0;"/><polygon fill="#000000" points="1348.27,1600.8182,1356.2772,1595.0838,1350.8023,1596.5069,1349.3792,1591.032,1348.27,1600.8182" style="stroke:#000000;stroke-width:1.0;"/><text fill="#000000" font-family="Verdana" font-size="13" lengthAdjust="spacing" textLength="124" x="1256" y="1521.8252">desasignarProfesor()</text></g><!--SRC=[fLZ1RkGs3BtxArJqqXeDq1xQRNCeC9aasm1jDiWaUscBWYDpFDgr9LUIWo2B0lsLxQs7FUKJva_w9QLasMEFvTd91aYGcEIZdaYAfbpWoZAhc1Rvsh9CQEHMA9byPjTO8giA438nRuMiG4F9Z0MBx5t2s0dmjxbMjSpcgb2QVNx-_VaFvpEdKJf37QJVpLzy- -AKfETAsaiWbpCje0Y2XNX0zitNoLz9OeKja9qAo6aTO1coEHdWFN6ZVpXMjeQ2NTLQ_IPdMIcaC5P3HckGwKzAWnRAi2Cs1qD_INPh59lPpMCfk399yclwEpiw-f5TgbbjrqdIxAHvyXiA_nwp1Nb6ec24P51Rb5Pmq7sBMrExvPXKR0sCg711J9X18pQFqkscyRwuMDoS_JBxu_HYSVNgykBavpE_KaHCgpPW1XJ_Es187fO5Sf715E96PM1OGRySAd2M6TBEXQcK58GrKy2MVbKZnSceWlXRq8nJXF-i1MgsgYMdAe32ETtkvqehdnrpkbt4xoYgEDvca9QfMXFQ8MIRVvkqJ49VLQZ1SQ2d-VNjAGMaGhxviA9S33VPiPlNcbA_Isqi7VBYNZzX-9BIuBD2Xc14Bi7MUh3-83WhD4fZB3eHpIWymMOFe4-7ucDSXbYcE9KeHZcTPO829iPHYIg6ZB0rcJRlyn5ofO6UTSrTZA9qPdKnhfsHS4W3d3fkrb-UoiELow2weXokaKVh92OVCj7OrKhSUC273b85fQ3Kg7WiV3cv2fyr9zx7ObTux6g1KoriAv3x9L0sbHi7lHQIKxmQqxQqZZmWD9WjaPSemr7h4Ha91qHKPKKf7hPKy0q5n3_5iRCYLrhOqgFNRREc_hs4Do0prJl4IfgwiD3ZiYEYfBJjpf_Ve7KqQX-FaVrhGGslwFZwL7gBR5GZeSMx5qMqTJQzNhjchUGNNoOH8uUTQ6gmr49tkcbuh1LvRAFOkswqSRGB1-MqWuc3xl6TRXeUEQGUwkNJiFXnyiXMjMVDSVc7B6qrq-X8iUPUfCDCiITBktNMbc8FcaGhOK-9S8tGbGWvU2gUkhPzdeE2ZhOSk4Z6zJXLfPw-Ln3kS5Z3-XDmWMoBJE87OD_HQ0FkbKsydkYX2_apN6o3tZf9eaTnpndr6sbrvE2f-6ORpt4GDj5paOmQmaINyEITd427OXh2JmK5aW6Mn5hFT4loD8EAq4y3Dtm_6Hs8R_79gFDDjCDcRkWNrw58kb2CmTCj9VhAvAgi2gIT-_78z-Bu0JyKFNsy3lKmMTc7EeXMsw7WgRmVl7WiUVl1WpVXw9NtSNoO_LpgXY-zZqDRW2kSYHTfTw_cg7Llk4gaeebmgQnL9SrrQJe7ucrHRpuOszm3iTX-CjZvJ43FMcCkCdMSfWIdd__-_eUypCYTQER7Yee8zHraaAPkhip03QNIY33P6bRJd0tDr4lJPUyMgeA_CzFCaNZld86a1GRNSMGISqNHJjElt0S38bkt5mCJVDo4DVrjLwDd9MtZIyaxkkcrL-7-BJXDtSJHdsNLqkyctFsTvqjLBic0744kDuykR6xmHYvLiNdCoKtfBe_aYkwJYimCbflt_ek7LxW8SK75waFeF9w08IabmlcKc_U5CCAmwzihfhHLcRfNdMcQBeHqNqLoah4rxG4yCXDvwPD7WnfbSmKF_RYQ3arXUO2bA9fHtt-QWiwHSFNbEBQXwM_A92Wpvied-Hy0]--></g></svg>