<?xml version="1.0" encoding="us-ascii" standalone="no"?><svg xmlns="http://www.w3.org/2000/svg" xmlns:xlink="http://www.w3.org/1999/xlink" contentStyleType="text/css" height="868px" preserveAspectRatio="none" style="width:2907px;height:868px;background:#FFFFFF;" version="1.1" viewBox="0 0 2907 868" width="2907px" zoomAndPan="magnify"><defs/><g><text fill="#000000" font-family="Verdana" font-size="22" font-weight="bold" lengthAdjust="spacing" textLength="437" x="1230.5" y="38.5181">Diagrama de Contexto Conceptual Puro</text><text fill="#000000" font-family="Verdana" font-size="22" font-weight="bold" lengthAdjust="spacing" textLength="636" x="1131" y="68.4822">Administrador de Horarios - Independiente de Tecnolog&#237;a</text><ellipse cx="1321" cy="101.9282" fill="#FFFFFF" rx="10" ry="10" style="stroke:#000000;stroke-width:1.0;"/><g id="SISTEMA_INACTIVO"><rect fill="#F8F9FA" height="60.86" rx="12.5" ry="12.5" style="stroke:#6C757D;stroke-width:1.0;" width="154" x="1244" y="172.9282"/><line style="stroke:#6C757D;stroke-width:1.0;" x1="1244" x2="1398" y1="196.5482" y2="196.5482"/><text fill="#000000" font-family="Arial" font-size="10" lengthAdjust="spacing" textLength="90" x="1276" y="188.6182">SISTEMA_INACTIVO</text><text fill="#000000" font-family="Arial" font-size="10" lengthAdjust="spacing" textLength="80" x="1249" y="212.2382">Sin sesi&#243;n activa</text><text fill="#000000" font-family="Arial" font-size="10" lengthAdjust="spacing" textLength="134" x="1249" y="225.8582">Capacidades no disponibles</text></g><g id="AUTENTICANDO"><rect fill="#F8F9FA" height="60.86" rx="12.5" ry="12.5" style="stroke:#6C757D;stroke-width:1.0;" width="132" x="1255" y="312.9282"/><line style="stroke:#6C757D;stroke-width:1.0;" x1="1255" x2="1387" y1="336.5482" y2="336.5482"/><text fill="#000000" font-family="Arial" font-size="10" lengthAdjust="spacing" textLength="77" x="1282.5" y="328.6182">AUTENTICANDO</text><text fill="#000000" font-family="Arial" font-size="10" lengthAdjust="spacing" textLength="112" x="1260" y="352.2382">Validando credenciales</text><text fill="#000000" font-family="Arial" font-size="10" lengthAdjust="spacing" textLength="101" x="1260" y="365.8582">Verificando permisos</text></g><g id="SISTEMA_DISPONIBLE"><rect fill="#F8F9FA" height="74.4799" rx="12.5" ry="12.5" style="stroke:#6C757D;stroke-width:1.0;" width="248" x="1278" y="452.9282"/><line style="stroke:#6C757D;stroke-width:1.0;" x1="1278" x2="1526" y1="476.5482" y2="476.5482"/><text fill="#000000" font-family="Arial" font-size="10" lengthAdjust="spacing" textLength="102" x="1351" y="468.6182">SISTEMA_DISPONIBLE</text><text fill="#000000" font-family="Arial" font-size="10" lengthAdjust="spacing" textLength="122" x="1283" y="492.2382">Sesi&#243;n activa establecida</text><text fill="#000000" font-family="Arial" font-size="10" lengthAdjust="spacing" textLength="167" x="1283" y="505.8582">Todas las capacidades disponibles</text><text fill="#000000" font-family="Arial" font-size="10" lengthAdjust="spacing" textLength="228" x="1283" y="519.4782">Usuario puede solicitar cualquier funcionalidad</text></g><g id="GESTIONANDO_PROGRAMAS"><rect fill="#F8F9FA" height="60.86" rx="12.5" ry="12.5" style="stroke:#6C757D;stroke-width:1.0;" width="226" x="12" y="605.9282"/><line style="stroke:#6C757D;stroke-width:1.0;" x1="12" x2="238" y1="629.5482" y2="629.5482"/><text fill="#000000" font-family="Arial" font-size="10" lengthAdjust="spacing" textLength="135" x="57.5" y="621.6182">GESTIONANDO_PROGRAMAS</text><text fill="#000000" font-family="Arial" font-size="10" lengthAdjust="spacing" textLength="206" x="17" y="645.2382">Capacidad de gesti&#243;n de programas activa</text><text fill="#000000" font-family="Arial" font-size="10" lengthAdjust="spacing" textLength="148" x="17" y="658.8582">Operaciones CRUD disponibles</text></g><g id="GESTIONANDO_CURSOS"><rect fill="#F8F9FA" height="60.86" rx="12.5" ry="12.5" style="stroke:#6C757D;stroke-width:1.0;" width="205" x="312.5" y="605.9282"/><line style="stroke:#6C757D;stroke-width:1.0;" x1="312.5" x2="517.5" y1="629.5482" y2="629.5482"/><text fill="#000000" font-family="Arial" font-size="10" lengthAdjust="spacing" textLength="113" x="358.5" y="621.6182">GESTIONANDO_CURSOS</text><text fill="#000000" font-family="Arial" font-size="10" lengthAdjust="spacing" textLength="185" x="317.5" y="645.2382">Capacidad de gesti&#243;n de cursos activa</text><text fill="#000000" font-family="Arial" font-size="10" lengthAdjust="spacing" textLength="148" x="317.5" y="658.8582">Operaciones CRUD disponibles</text></g><g id="GESTIONANDO_PROFESORES"><rect fill="#F8F9FA" height="60.86" rx="12.5" ry="12.5" style="stroke:#6C757D;stroke-width:1.0;" width="225" x="616.5" y="605.9282"/><line style="stroke:#6C757D;stroke-width:1.0;" x1="616.5" x2="841.5" y1="629.5482" y2="629.5482"/><text fill="#000000" font-family="Arial" font-size="10" lengthAdjust="spacing" textLength="137" x="660.5" y="621.6182">GESTIONANDO_PROFESORES</text><text fill="#000000" font-family="Arial" font-size="10" lengthAdjust="spacing" textLength="205" x="621.5" y="645.2382">Capacidad de gesti&#243;n de profesores activa</text><text fill="#000000" font-family="Arial" font-size="10" lengthAdjust="spacing" textLength="148" x="621.5" y="658.8582">Operaciones CRUD disponibles</text></g><g id="GESTIONANDO_EDIFICIOS"><rect fill="#F8F9FA" height="60.86" rx="12.5" ry="12.5" style="stroke:#6C757D;stroke-width:1.0;" width="214" x="949" y="605.9282"/><line style="stroke:#6C757D;stroke-width:1.0;" x1="949" x2="1163" y1="629.5482" y2="629.5482"/><text fill="#000000" font-family="Arial" font-size="10" lengthAdjust="spacing" textLength="122" x="995" y="621.6182">GESTIONANDO_EDIFICIOS</text><text fill="#000000" font-family="Arial" font-size="10" lengthAdjust="spacing" textLength="194" x="954" y="645.2382">Capacidad de gesti&#243;n de edificios activa</text><text fill="#000000" font-family="Arial" font-size="10" lengthAdjust="spacing" textLength="148" x="954" y="658.8582">Operaciones CRUD disponibles</text></g><g id="GESTIONANDO_AULAS"><rect fill="#F8F9FA" height="60.86" rx="12.5" ry="12.5" style="stroke:#6C757D;stroke-width:1.0;" width="200" x="1259" y="605.9282"/><line style="stroke:#6C757D;stroke-width:1.0;" x1="1259" x2="1459" y1="629.5482" y2="629.5482"/><text fill="#000000" font-family="Arial" font-size="10" lengthAdjust="spacing" textLength="105" x="1306.5" y="621.6182">GESTIONANDO_AULAS</text><text fill="#000000" font-family="Arial" font-size="10" lengthAdjust="spacing" textLength="180" x="1264" y="645.2382">Capacidad de gesti&#243;n de aulas activa</text><text fill="#000000" font-family="Arial" font-size="10" lengthAdjust="spacing" textLength="148" x="1264" y="658.8582">Operaciones CRUD disponibles</text></g><g id="GESTIONANDO_RECURSOS"><rect fill="#F8F9FA" height="60.86" rx="12.5" ry="12.5" style="stroke:#6C757D;stroke-width:1.0;" width="215" x="1558.5" y="605.9282"/><line style="stroke:#6C757D;stroke-width:1.0;" x1="1558.5" x2="1773.5" y1="629.5482" y2="629.5482"/><text fill="#000000" font-family="Arial" font-size="10" lengthAdjust="spacing" textLength="125" x="1603.5" y="621.6182">GESTIONANDO_RECURSOS</text><text fill="#000000" font-family="Arial" font-size="10" lengthAdjust="spacing" textLength="195" x="1563.5" y="645.2382">Capacidad de gesti&#243;n de recursos activa</text><text fill="#000000" font-family="Arial" font-size="10" lengthAdjust="spacing" textLength="148" x="1563.5" y="658.8582">Operaciones CRUD disponibles</text></g><g id="ASIGNANDO_PROFESORES"><rect fill="#F8F9FA" height="60.86" rx="12.5" ry="12.5" style="stroke:#6C757D;stroke-width:1.0;" width="202" x="1918" y="605.9282"/><line style="stroke:#6C757D;stroke-width:1.0;" x1="1918" x2="2120" y1="629.5482" y2="629.5482"/><text fill="#000000" font-family="Arial" font-size="10" lengthAdjust="spacing" textLength="123" x="1957.5" y="621.6182">ASIGNANDO_PROFESORES</text><text fill="#000000" font-family="Arial" font-size="10" lengthAdjust="spacing" textLength="152" x="1923" y="645.2382">Capacidad de asignaci&#243;n activa</text><text fill="#000000" font-family="Arial" font-size="10" lengthAdjust="spacing" textLength="182" x="1923" y="658.8582">Relaciones profesor-curso disponibles</text></g><g id="PROCESANDO_HORARIOS"><rect fill="#F8F9FA" height="60.86" rx="12.5" ry="12.5" style="stroke:#6C757D;stroke-width:1.0;" width="203" x="2259.5" y="605.9282"/><line style="stroke:#6C757D;stroke-width:1.0;" x1="2259.5" x2="2462.5" y1="629.5482" y2="629.5482"/><text fill="#000000" font-family="Arial" font-size="10" lengthAdjust="spacing" textLength="119" x="2301.5" y="621.6182">PROCESANDO_HORARIOS</text><text fill="#000000" font-family="Arial" font-size="10" lengthAdjust="spacing" textLength="183" x="2264.5" y="645.2382">Algoritmo de generaci&#243;n en ejecuci&#243;n</text><text fill="#000000" font-family="Arial" font-size="10" lengthAdjust="spacing" textLength="155" x="2264.5" y="658.8582">Optimizaci&#243;n de recursos activa</text></g><g id="CONSULTANDO_HORARIOS"><rect fill="#F8F9FA" height="60.86" rx="12.5" ry="12.5" style="stroke:#6C757D;stroke-width:1.0;" width="205" x="2605.5" y="605.9282"/><line style="stroke:#6C757D;stroke-width:1.0;" x1="2605.5" x2="2810.5" y1="629.5482" y2="629.5482"/><text fill="#000000" font-family="Arial" font-size="10" lengthAdjust="spacing" textLength="127" x="2644.5" y="621.6182">CONSULTANDO_HORARIOS</text><text fill="#000000" font-family="Arial" font-size="10" lengthAdjust="spacing" textLength="141" x="2610.5" y="645.2382">Capacidad de consulta activa</text><text fill="#000000" font-family="Arial" font-size="10" lengthAdjust="spacing" textLength="185" x="2610.5" y="658.8582">Visualizaci&#243;n de resultados disponible</text></g><g id="elem_GMN38"><path d="M2516,727.9282 L2516,861.8703 A0,0 0 0 0 2516,861.8703 L2900,861.8703 A0,0 0 0 0 2900,861.8703 L2900,737.9282 L2890,727.9282 L2712,727.9282 L2708,667.2282 L2704,727.9282 L2516,727.9282 A0,0 0 0 0 2516,727.9282 " fill="#FFFFFF" style="stroke:#000000;stroke-width:1.0;"/><path d="M2890,727.9282 L2890,737.9282 L2900,737.9282 L2890,727.9282 " fill="#FFFFFF" style="stroke:#000000;stroke-width:1.0;"/><text fill="#000000" font-family="Verdana" font-size="13" font-weight="bold" lengthAdjust="spacing" textLength="305" x="2522" y="746.8252">Caracter&#237;sticas del Diagrama Conceptual Puro:</text><text fill="#000000" font-family="Verdana" font-size="13" lengthAdjust="spacing" textLength="3" x="2522" y="764.5312">&#160;</text><text fill="#000000" font-family="Verdana" font-size="13" lengthAdjust="spacing" textLength="113" x="2522" y="782.2372">&#8226; Estados expresan</text><text fill="#000000" font-family="Verdana" font-size="13" font-weight="bold" lengthAdjust="spacing" textLength="154" x="2638" y="782.2372">capacidades de negocio</text><text fill="#000000" font-family="Verdana" font-size="13" lengthAdjust="spacing" textLength="158" x="2522" y="799.9433">&#8226; Transiciones representan</text><text fill="#000000" font-family="Verdana" font-size="13" font-weight="bold" lengthAdjust="spacing" textLength="202" x="2683" y="799.9433">cambios de contexto funcional</text><text fill="#000000" font-family="Verdana" font-size="13" lengthAdjust="spacing" textLength="64" x="2522" y="817.6493">&#8226; Nombres</text><text fill="#000000" font-family="Verdana" font-size="13" font-weight="bold" lengthAdjust="spacing" textLength="194" x="2589" y="817.6493">agn&#243;sticos tecnol&#243;gicamente</text><text fill="#000000" font-family="Verdana" font-size="13" lengthAdjust="spacing" textLength="66" x="2522" y="835.3553">&#8226; Base para</text><text fill="#000000" font-family="Verdana" font-size="13" font-weight="bold" lengthAdjust="spacing" textLength="179" x="2591" y="835.3553">an&#225;lisis RUP independiente</text><text fill="#000000" font-family="Verdana" font-size="13" lengthAdjust="spacing" textLength="5" x="2522" y="853.0613">&#8226;</text><text fill="#000000" font-family="Verdana" font-size="13" font-weight="bold" lengthAdjust="spacing" textLength="59" x="2530" y="853.0613">Sin sesgo</text><text fill="#000000" font-family="Verdana" font-size="13" lengthAdjust="spacing" textLength="238" x="2592" y="853.0613">hacia paradigmas de interfaz espec&#237;ficos</text></g><!--link *start* to SISTEMA_INACTIVO--><g id="link_*start*_SISTEMA_INACTIVO"><path d="M1321,112.1082 C1321,125.7782 1321,146.0682 1321,166.7782 " fill="none" id="*start*-to-SISTEMA_INACTIVO" style="stroke:#000000;stroke-width:1.0;"/><polygon fill="#000000" points="1321,172.7782,1325,163.7782,1321,167.7782,1317,163.7782,1321,172.7782" style="stroke:#000000;stroke-width:1.0;"/></g><!--link SISTEMA_INACTIVO to AUTENTICANDO--><g id="link_SISTEMA_INACTIVO_AUTENTICANDO"><path d="M1243.89,224.1582 C1224.31,233.0182 1205.56,245.7482 1194,263.9282 C1174.46,294.6582 1208.8851,313.5444 1249.1051,325.9144 " fill="none" id="SISTEMA_INACTIVO-to-AUTENTICANDO" style="stroke:#000000;stroke-width:1.0;"/><polygon fill="#000000" points="1254.84,327.6782,1247.4135,321.2092,1250.0609,326.2084,1245.0618,328.8557,1254.84,327.6782" style="stroke:#000000;stroke-width:1.0;"/><text fill="#000000" font-family="Verdana" font-size="13" lengthAdjust="spacing" textLength="82" x="1195" y="278.8252">iniciarSesion()</text></g><!--link AUTENTICANDO to SISTEMA_INACTIVO--><g id="link_AUTENTICANDO_SISTEMA_INACTIVO"><path d="M1319.21,312.7782 C1318.71,303.2482 1318.24,292.6482 1318,282.9282 C1317.59,266.8382 1317.8853,254.8999 1318.6553,240.2399 " fill="none" id="AUTENTICANDO-to-SISTEMA_INACTIVO" style="stroke:#000000;stroke-width:1.0;"/><polygon fill="#000000" points="1318.97,234.2482,1314.5034,243.026,1318.7077,239.2413,1322.4924,243.4456,1318.97,234.2482" style="stroke:#000000;stroke-width:1.0;"/><text fill="#000000" font-family="Verdana" font-size="13" lengthAdjust="spacing" textLength="136" x="1319" y="278.8252">[credenciales inv&#225;lidas]</text></g><!--link AUTENTICANDO to SISTEMA_DISPONIBLE--><g id="link_AUTENTICANDO_SISTEMA_DISPONIBLE"><path d="M1319.08,374.1782 C1319.28,389.4882 1321.45,408.0182 1329,422.9282 C1334.56,433.9082 1338.4696,439.7339 1347.3996,448.4639 " fill="none" id="AUTENTICANDO-to-SISTEMA_DISPONIBLE" style="stroke:#000000;stroke-width:1.0;"/><polygon fill="#000000" points="1351.69,452.6582,1348.0506,443.5064,1348.1147,449.1629,1342.4582,449.227,1351.69,452.6582" style="stroke:#000000;stroke-width:1.0;"/><text fill="#000000" font-family="Verdana" font-size="13" lengthAdjust="spacing" textLength="125" x="1330" y="418.8252">[credenciales v&#225;lidas]</text></g><!--link SISTEMA_DISPONIBLE to GESTIONANDO_PROGRAMAS--><g id="link_SISTEMA_DISPONIBLE_GESTIONANDO_PROGRAMAS"><path d="M1277.73,492.4282 C952.21,496.9682 96.79,513.0382 55,556.9282 C40.02,572.6682 49.3278,587.0884 68.6778,601.9184 " fill="none" id="SISTEMA_DISPONIBLE-to-GESTIONANDO_PROGRAMAS" style="stroke:#000000;stroke-width:1.0;"/><polygon fill="#000000" points="73.44,605.5682,68.7299,596.9187,69.4715,602.5267,63.8634,603.2683,73.44,605.5682" style="stroke:#000000;stroke-width:1.0;"/><text fill="#000000" font-family="Verdana" font-size="13" lengthAdjust="spacing" textLength="131" x="56" y="571.8252">gestionarProgramas()</text></g><!--link GESTIONANDO_PROGRAMAS to SISTEMA_DISPONIBLE--><g id="link_GESTIONANDO_PROGRAMAS_SISTEMA_DISPONIBLE"><path d="M162.39,605.8582 C186.94,588.2382 220.59,567.3382 254,556.9282 C441.86,498.3982 1015.09,490.8766 1271.58,490.5166 " fill="none" id="GESTIONANDO_PROGRAMAS-to-SISTEMA_DISPONIBLE" style="stroke:#000000;stroke-width:1.0;"/><polygon fill="#000000" points="1277.58,490.5082,1268.5744,486.5208,1272.58,490.5152,1268.5856,494.5208,1277.58,490.5082" style="stroke:#000000;stroke-width:1.0;"/><text fill="#000000" font-family="Verdana" font-size="13" lengthAdjust="spacing" textLength="115" x="255" y="571.8252">completarGestion()</text></g><!--link SISTEMA_DISPONIBLE to GESTIONANDO_CURSOS--><g id="link_SISTEMA_DISPONIBLE_GESTIONANDO_CURSOS"><path d="M1277.67,494.5082 C1012.94,502.7482 415.1,524.8182 385,556.9282 C372.43,570.3382 376.2357,584.5339 386.6557,600.6039 " fill="none" id="SISTEMA_DISPONIBLE-to-GESTIONANDO_CURSOS" style="stroke:#000000;stroke-width:1.0;"/><polygon fill="#000000" points="389.92,605.6382,388.3797,595.9105,387.1997,601.4429,381.6673,600.2629,389.92,605.6382" style="stroke:#000000;stroke-width:1.0;"/><text fill="#000000" font-family="Verdana" font-size="13" lengthAdjust="spacing" textLength="106" x="386" y="571.8252">gestionarCursos()</text></g><!--link GESTIONANDO_CURSOS to SISTEMA_DISPONIBLE--><g id="link_GESTIONANDO_CURSOS_SISTEMA_DISPONIBLE"><path d="M457.95,605.7482 C485.53,588.3182 522.83,567.6682 559,556.9282 C690.14,517.9882 1071.1431,500.962 1271.9531,494.472 " fill="none" id="GESTIONANDO_CURSOS-to-SISTEMA_DISPONIBLE" style="stroke:#000000;stroke-width:1.0;"/><polygon fill="#000000" points="1277.95,494.2782,1268.8255,490.571,1272.9526,494.4397,1269.0839,498.5668,1277.95,494.2782" style="stroke:#000000;stroke-width:1.0;"/><text fill="#000000" font-family="Verdana" font-size="13" lengthAdjust="spacing" textLength="115" x="560" y="571.8252">completarGestion()</text></g><!--link SISTEMA_DISPONIBLE to GESTIONANDO_PROFESORES--><g id="link_SISTEMA_DISPONIBLE_GESTIONANDO_PROFESORES"><path d="M1277.79,493.5282 C1084.24,498.8782 728.73,514.4382 690,556.9282 C677.19,570.9882 682.446,585.3317 695.016,601.1417 " fill="none" id="SISTEMA_DISPONIBLE-to-GESTIONANDO_PROFESORES" style="stroke:#000000;stroke-width:1.0;"/><polygon fill="#000000" points="698.75,605.8382,696.28,596.3041,695.6383,601.9245,690.018,601.2828,698.75,605.8382" style="stroke:#000000;stroke-width:1.0;"/><text fill="#000000" font-family="Verdana" font-size="13" lengthAdjust="spacing" textLength="129" x="691" y="571.8252">gestionarProfesores()</text></g><!--link GESTIONANDO_PROFESORES to SISTEMA_DISPONIBLE--><g id="link_GESTIONANDO_PROFESORES_SISTEMA_DISPONIBLE"><path d="M778.09,605.8982 C808.66,588.8682 849.39,568.5782 888,556.9282 C1017.52,517.8282 1166.2413,502.2668 1271.8613,495.7668 " fill="none" id="GESTIONANDO_PROFESORES-to-SISTEMA_DISPONIBLE" style="stroke:#000000;stroke-width:1.0;"/><polygon fill="#000000" points="1277.85,495.3982,1268.6213,491.9586,1272.8594,495.7053,1269.1127,499.9435,1277.85,495.3982" style="stroke:#000000;stroke-width:1.0;"/><text fill="#000000" font-family="Verdana" font-size="13" lengthAdjust="spacing" textLength="115" x="889" y="571.8252">completarGestion()</text></g><!--link SISTEMA_DISPONIBLE to GESTIONANDO_EDIFICIOS--><g id="link_SISTEMA_DISPONIBLE_GESTIONANDO_EDIFICIOS"><path d="M1277.8,495.4182 C1178.6,501.9282 1050.91,517.8782 1018,556.9282 C1005.9,571.2882 1010.7838,585.3909 1022.8038,601.0309 " fill="none" id="SISTEMA_DISPONIBLE-to-GESTIONANDO_EDIFICIOS" style="stroke:#000000;stroke-width:1.0;"/><polygon fill="#000000" points="1026.46,605.7882,1024.1472,596.2147,1023.4132,601.8238,1017.8041,601.0897,1026.46,605.7882" style="stroke:#000000;stroke-width:1.0;"/><text fill="#000000" font-family="Verdana" font-size="13" lengthAdjust="spacing" textLength="113" x="1019" y="571.8252">gestionarEdificios()</text></g><!--link GESTIONANDO_EDIFICIOS to SISTEMA_DISPONIBLE--><g id="link_GESTIONANDO_EDIFICIOS_SISTEMA_DISPONIBLE"><path d="M1105.94,605.7682 C1133.65,590.0382 1169.08,571.0782 1202,556.9282 C1227.19,546.0982 1249.1063,537.8707 1275.5363,528.9307 " fill="none" id="GESTIONANDO_EDIFICIOS-to-SISTEMA_DISPONIBLE" style="stroke:#000000;stroke-width:1.0;"/><polygon fill="#000000" points="1281.22,527.0082,1271.4128,526.1029,1276.4836,528.6103,1273.9762,533.6811,1281.22,527.0082" style="stroke:#000000;stroke-width:1.0;"/><text fill="#000000" font-family="Verdana" font-size="13" lengthAdjust="spacing" textLength="115" x="1203" y="571.8252">completarGestion()</text></g><!--link SISTEMA_DISPONIBLE to GESTIONANDO_AULAS--><g id="link_SISTEMA_DISPONIBLE_GESTIONANDO_AULAS"><path d="M1351.14,527.2482 C1342.54,535.9282 1334.85,545.9082 1330,556.9282 C1323.04,572.7582 1325.9218,585.5746 1334.0918,600.3846 " fill="none" id="SISTEMA_DISPONIBLE-to-GESTIONANDO_AULAS" style="stroke:#000000;stroke-width:1.0;"/><polygon fill="#000000" points="1336.99,605.6382,1336.1451,595.8256,1334.5748,601.2602,1329.1403,599.6899,1336.99,605.6382" style="stroke:#000000;stroke-width:1.0;"/><text fill="#000000" font-family="Verdana" font-size="13" lengthAdjust="spacing" textLength="97" x="1331" y="571.8252">gestionarAulas()</text></g><!--link GESTIONANDO_AULAS to SISTEMA_DISPONIBLE--><g id="link_GESTIONANDO_AULAS_SISTEMA_DISPONIBLE"><path d="M1408.9,605.6282 C1418.64,597.3182 1427.52,587.3782 1433,575.9282 C1440.47,560.3482 1438.4998,547.8114 1430.7398,532.4814 " fill="none" id="GESTIONANDO_AULAS-to-SISTEMA_DISPONIBLE" style="stroke:#000000;stroke-width:1.0;"/><polygon fill="#000000" points="1428.03,527.1282,1428.5259,536.9646,1430.2882,531.5892,1435.6635,533.3515,1428.03,527.1282" style="stroke:#000000;stroke-width:1.0;"/><text fill="#000000" font-family="Verdana" font-size="13" lengthAdjust="spacing" textLength="115" x="1438" y="571.8252">completarGestion()</text></g><!--link SISTEMA_DISPONIBLE to GESTIONANDO_RECURSOS--><g id="link_SISTEMA_DISPONIBLE_GESTIONANDO_RECURSOS"><path d="M1500.77,527.0282 C1521.47,535.8682 1542.82,545.9782 1562,556.9282 C1586.55,570.9482 1607.2677,586.2216 1626.7977,602.0416 " fill="none" id="SISTEMA_DISPONIBLE-to-GESTIONANDO_RECURSOS" style="stroke:#000000;stroke-width:1.0;"/><polygon fill="#000000" points="1631.46,605.8182,1626.9843,597.0451,1627.5747,602.671,1621.9488,603.2615,1631.46,605.8182" style="stroke:#000000;stroke-width:1.0;"/><text fill="#000000" font-family="Verdana" font-size="13" lengthAdjust="spacing" textLength="119" x="1590" y="571.8252">gestionarRecursos()</text></g><!--link GESTIONANDO_RECURSOS to SISTEMA_DISPONIBLE--><g id="link_GESTIONANDO_RECURSOS_SISTEMA_DISPONIBLE"><path d="M1704.54,605.7682 C1719.54,590.6582 1730.48,572.2782 1718,556.9282 C1693.65,526.9682 1609.9787,510.8514 1532.3587,501.6914 " fill="none" id="GESTIONANDO_RECURSOS-to-SISTEMA_DISPONIBLE" style="stroke:#000000;stroke-width:1.0;"/><polygon fill="#000000" points="1526.4,500.9882,1534.8692,506.0154,1531.3655,501.5742,1535.8068,498.0705,1526.4,500.9882" style="stroke:#000000;stroke-width:1.0;"/><text fill="#000000" font-family="Verdana" font-size="13" lengthAdjust="spacing" textLength="115" x="1724" y="571.8252">completarGestion()</text></g><!--link SISTEMA_DISPONIBLE to ASIGNANDO_PROFESORES--><g id="link_SISTEMA_DISPONIBLE_ASIGNANDO_PROFESORES"><path d="M1526.13,499.8082 C1616.76,508.5582 1741.82,525.3982 1848,556.9282 C1888.71,569.0182 1926.8264,586.3396 1959.7464,603.1496 " fill="none" id="SISTEMA_DISPONIBLE-to-ASIGNANDO_PROFESORES" style="stroke:#000000;stroke-width:1.0;"/><polygon fill="#000000" points="1965.09,605.8782,1958.8936,598.2228,1960.637,603.6043,1955.2554,605.3477,1965.09,605.8782" style="stroke:#000000;stroke-width:1.0;"/><text fill="#000000" font-family="Verdana" font-size="13" lengthAdjust="spacing" textLength="165" x="1897" y="571.8252">asignarProfesoresACursos()</text></g><!--link ASIGNANDO_PROFESORES to SISTEMA_DISPONIBLE--><g id="link_ASIGNANDO_PROFESORES_SISTEMA_DISPONIBLE"><path d="M2057.83,605.5682 C2073.21,590.2282 2084.39,571.7082 2071,556.9282 C2035.19,517.4182 1715.5764,500.8855 1532.1764,494.5455 " fill="none" id="ASIGNANDO_PROFESORES-to-SISTEMA_DISPONIBLE" style="stroke:#000000;stroke-width:1.0;"/><polygon fill="#000000" points="1526.18,494.3382,1535.0364,498.6468,1531.177,494.5109,1535.3128,490.6515,1526.18,494.3382" style="stroke:#000000;stroke-width:1.0;"/><text fill="#000000" font-family="Verdana" font-size="13" lengthAdjust="spacing" textLength="134" x="2077" y="571.8252">completarAsignacion()</text></g><!--link SISTEMA_DISPONIBLE to PROCESANDO_HORARIOS--><g id="link_SISTEMA_DISPONIBLE_PROCESANDO_HORARIOS"><path d="M1526.36,494.5082 C1722.35,501.2382 2093.79,518.6782 2220,556.9282 C2255.53,567.6982 2287.0099,585.0928 2313.9799,602.5128 " fill="none" id="SISTEMA_DISPONIBLE-to-PROCESANDO_HORARIOS" style="stroke:#000000;stroke-width:1.0;"/><polygon fill="#000000" points="2319.02,605.7682,2313.6302,597.5251,2314.8199,603.0554,2309.2896,604.2452,2319.02,605.7682" style="stroke:#000000;stroke-width:1.0;"/><text fill="#000000" font-family="Verdana" font-size="13" lengthAdjust="spacing" textLength="101" x="2266" y="571.8252">generarHorario()</text></g><!--link PROCESANDO_HORARIOS to SISTEMA_DISPONIBLE--><g id="link_PROCESANDO_HORARIOS_SISTEMA_DISPONIBLE"><path d="M2377.59,605.9082 C2384.38,589.5282 2388.13,569.9082 2376,556.9282 C2319.15,496.0982 1781.72,489.76 1532.18,490.1 " fill="none" id="PROCESANDO_HORARIOS-to-SISTEMA_DISPONIBLE" style="stroke:#000000;stroke-width:1.0;"/><polygon fill="#000000" points="1526.18,490.1082,1535.1854,494.0959,1531.18,490.1014,1535.1745,486.0959,1526.18,490.1082" style="stroke:#000000;stroke-width:1.0;"/><text fill="#000000" font-family="Verdana" font-size="13" lengthAdjust="spacing" textLength="117" x="2384" y="571.8252">completarProceso()</text></g><!--link SISTEMA_DISPONIBLE to CONSULTANDO_HORARIOS--><g id="link_SISTEMA_DISPONIBLE_CONSULTANDO_HORARIOS"><path d="M1526.16,493.3682 C1774.8,499.0782 2325.76,516.0182 2510,556.9282 C2558.01,567.5882 2604.1185,585.8738 2642.5885,603.3738 " fill="none" id="SISTEMA_DISPONIBLE-to-CONSULTANDO_HORARIOS" style="stroke:#000000;stroke-width:1.0;"/><polygon fill="#000000" points="2648.05,605.8582,2641.5141,598.4906,2643.4988,603.7879,2638.2015,605.7726,2648.05,605.8582" style="stroke:#000000;stroke-width:1.0;"/><text fill="#000000" font-family="Verdana" font-size="13" lengthAdjust="spacing" textLength="110" x="2572" y="571.8252">consultarHorario()</text></g><!--link CONSULTANDO_HORARIOS to SISTEMA_DISPONIBLE--><g id="link_CONSULTANDO_HORARIOS_SISTEMA_DISPONIBLE"><path d="M2709.74,605.6282 C2708.98,588.7282 2704.81,568.6682 2691,556.9282 C2647.07,519.5982 1846.6388,499.7603 1532.1288,493.3603 " fill="none" id="CONSULTANDO_HORARIOS-to-SISTEMA_DISPONIBLE" style="stroke:#000000;stroke-width:1.0;"/><polygon fill="#000000" points="1526.13,493.2382,1535.0468,497.4205,1531.129,493.3399,1535.2095,489.4221,1526.13,493.2382" style="stroke:#000000;stroke-width:1.0;"/><text fill="#000000" font-family="Verdana" font-size="13" lengthAdjust="spacing" textLength="122" x="2704" y="571.8252">completarConsulta()</text></g><!--link SISTEMA_DISPONIBLE to SISTEMA_INACTIVO--><g id="link_SISTEMA_DISPONIBLE_SISTEMA_INACTIVO"><path d="M1441.93,452.6582 C1449.32,443.7282 1455.96,433.6382 1460,422.9282 C1484.93,356.8082 1498.91,322.9182 1460,263.9282 C1445.83,242.4582 1427.7695,230.7739 1403.9295,221.9839 " fill="none" id="SISTEMA_DISPONIBLE-to-SISTEMA_INACTIVO" style="stroke:#000000;stroke-width:1.0;"/><polygon fill="#000000" points="1398.3,219.9082,1405.3605,226.7747,1402.9913,221.6379,1408.1281,219.2687,1398.3,219.9082" style="stroke:#000000;stroke-width:1.0;"/><text fill="#000000" font-family="Verdana" font-size="13" lengthAdjust="spacing" textLength="82" x="1485" y="348.8252">cerrarSesion()</text></g><!--SRC=[dLTDZjis6Dth52owQGqCq2xQj5a4qCZoHC34CYHxDcaGSAJF2Xk9L4af22OeqAkq-rdD4NoJdAGV9LccP2gs1_007fhlyV5zFoI_gpv00QJCAUEE-iXuIIKjYAfe1UIBGyWrJJvcKjGyzKGk9Fb-yTlYzuMhVn4o1TcD_kgz-EN574SNWbTBYfIkP3Jl1cBs0EJddvo_7QTYLGvapcY6wr2I0l5m0dokXFwIG5dLD2UhMee_k9iMZ3DLIPhY6ZZrjP1KCg785Gbu2YNmb06YzMzhI3XgoNQFr77UpjwHgwjN90xYjV_6VHyiNMyTt8MEq-viFDvizMZm9OaP9meKsprnGfEAVQBsUHujQS9Ice8YN92KgL9mTf-3qdi-0cXfxcRjBzU1voxdcW4tcZ0gOrnCy1z-t0iTpD8YHx0xckEoF1KaaP02HmwzwF4ya6pBacPc2R9WIZJI1jDCn-P1l0gNmVMjZ-Yt9ZdvjFjNBwhUJQCDQuPOnW_eKIoC5Sre38J4WrWGG0OqMJi_XLWBN8la-9SOCJ83D07Sg5hd6Ybhb4-Ko34-5PKamVpygsOWoRR6NGdUH20ruspmQ5Dk_7WTX4jjqljL5Dv4xXitnXKobA_nSYL5KmqAutu6XxU9ud10uDKIutaU6XKi_3YC_B64BIWXuKmMVnui0YyOol1JdMFiN2NkvdReWrldvteG-SSkH92SyC6DWnkB2rInRE21UyfGX7j-t32z3YCtsXl10HjKrwMcqLwuZ3Utwp4y4LpLUMKIT2LYpo1T9LEvrJSatHeRXtJPuFTodsk7VZR54MAZe3h3iM2yQ3CVjxLZRLrCniBwK4sgQWDdbzIZBzTZHDbYrY41lkLMbnAJTXrOBjTtgAAnFBE-9jN1ljxiuaoEoxMrrJdMjQ_PIKrKrx1TpnvxkPQ-siToZ3OmgKZ2jxBBO3XFbxM7D2UplRaCTBMT9XdU9oQ04UHxDViql6fsOjTbQqbQbhrLkNac9AiAqRh5cvrhLO2VFz6nvhz9U5XMh60F7SPYSY_BskkqheacEB1htn4FNasWxXYUrlbGK8DCXNdOQrdsRZTvzKb4KUQ0JVccFMQmALkQqtFXHi2VIt6eykSoj7NvN7HVG9SGM5F-D87RbK_3OSlCqnHuo2TOIeYtfj9f0g_BINqwJvplbbjm0bAQjtiki3RkHLM90hDwDlFmsPLK87UFQ5627JI5_F1A6hsCNivc2CBFrt_-8xvginm-bvZpb2FPuAOBX4CcqBC6f15hIRbYNMkHe67uYEgGnRq-JzhQQvzb_JMt9rYAubuVYRCPpVZkIIj6JDKym7PF6UelzAkidtzD5Hwbk4EDuFh-hvWYqMQ5pm7Z5TVFdyswTrU6eia7t0jju2dBYiOQnA5NM_g0Bu0IajtZLYjma8XeOvt_0G00]--></g></svg>