<?xml version="1.0" encoding="us-ascii" standalone="no"?><svg xmlns="http://www.w3.org/2000/svg" xmlns:xlink="http://www.w3.org/1999/xlink" contentStyleType="text/css" height="1302px" preserveAspectRatio="none" style="width:2742px;height:1302px;background:#FFFFFF;" version="1.1" viewBox="0 0 2742 1302" width="2742px" zoomAndPan="magnify"><defs/><g><text fill="#000000" font-family="Verdana" font-size="22" font-weight="bold" lengthAdjust="spacing" textLength="398" x="1167.755" y="38.5181">Diagrama de Contexto GUI/Desktop</text><text fill="#000000" font-family="Verdana" font-size="22" font-weight="bold" lengthAdjust="spacing" textLength="818" x="957.755" y="68.4822">Administrador de Horarios - Implementaci&#243;n para Aplicaci&#243;n de Escritorio</text><ellipse cx="1396.51" cy="193.8682" fill="#FFFFFF" rx="10" ry="10" style="stroke:#000000;stroke-width:1.0;"/><g id="APLICACION_CERRADA"><rect fill="#E3F2FD" height="60.86" rx="12.5" ry="12.5" style="stroke:#1976D2;stroke-width:1.0;" width="176" x="1308.51" y="264.8682"/><line style="stroke:#1976D2;stroke-width:1.0;" x1="1308.51" x2="1484.51" y1="288.4882" y2="288.4882"/><text fill="#000000" font-family="Arial" font-size="10" lengthAdjust="spacing" textLength="104" x="1344.51" y="280.5582">APLICACION_CERRADA</text><text fill="#000000" font-family="Arial" font-size="10" lengthAdjust="spacing" textLength="117" x="1313.51" y="304.1782">Ninguna ventana visible</text><text fill="#000000" font-family="Arial" font-size="10" lengthAdjust="spacing" textLength="156" x="1313.51" y="317.7982">Sistema no cargado en memoria</text></g><g id="SPLASH_SCREEN"><rect fill="#E3F2FD" height="60.86" rx="12.5" ry="12.5" style="stroke:#1976D2;stroke-width:1.0;" width="149" x="1252.01" y="404.8682"/><line style="stroke:#1976D2;stroke-width:1.0;" x1="1252.01" x2="1401.01" y1="428.4882" y2="428.4882"/><text fill="#000000" font-family="Arial" font-size="10" lengthAdjust="spacing" textLength="75" x="1289.01" y="420.5582">SPLASH_SCREEN</text><text fill="#000000" font-family="Arial" font-size="10" lengthAdjust="spacing" textLength="119" x="1257.01" y="444.1782">Pantalla de carga visible</text><text fill="#000000" font-family="Arial" font-size="10" lengthAdjust="spacing" textLength="129" x="1257.01" y="457.7982">Inicializando componentes</text></g><g id="VENTANA_LOGIN_ABIERTA"><rect fill="#E3F2FD" height="60.86" rx="12.5" ry="12.5" style="stroke:#1976D2;stroke-width:1.0;" width="204" x="1044.51" y="544.8682"/><line style="stroke:#1976D2;stroke-width:1.0;" x1="1044.51" x2="1248.51" y1="568.4882" y2="568.4882"/><text fill="#000000" font-family="Arial" font-size="10" lengthAdjust="spacing" textLength="125" x="1084.01" y="560.5582">VENTANA_LOGIN_ABIERTA</text><text fill="#000000" font-family="Arial" font-size="10" lengthAdjust="spacing" textLength="128" x="1049.51" y="584.1782">Formulario de login visible</text><text fill="#000000" font-family="Arial" font-size="10" lengthAdjust="spacing" textLength="184" x="1049.51" y="597.7982">Usuario puede introducir credenciales</text></g><g id="MENU_PRINCIPAL_ACTIVO"><rect fill="#E3F2FD" height="74.4799" rx="12.5" ry="12.5" style="stroke:#1976D2;stroke-width:1.0;" width="211" x="1202.01" y="684.8682"/><line style="stroke:#1976D2;stroke-width:1.0;" x1="1202.01" x2="1413.01" y1="708.4882" y2="708.4882"/><text fill="#000000" font-family="Arial" font-size="10" lengthAdjust="spacing" textLength="122" x="1246.51" y="700.5582">MENU_PRINCIPAL_ACTIVO</text><text fill="#000000" font-family="Arial" font-size="10" lengthAdjust="spacing" textLength="174" x="1207.01" y="724.1782">Ventana principal visible con men&#250;s</text><text fill="#000000" font-family="Arial" font-size="10" lengthAdjust="spacing" textLength="163" x="1207.01" y="737.7982">Barra de herramientas disponible</text><text fill="#000000" font-family="Arial" font-size="10" lengthAdjust="spacing" textLength="191" x="1207.01" y="751.4182">Usuario puede abrir m&#250;ltiples ventanas</text></g><g id="VENTANA_PROGRAMAS_ABIERTA"><rect fill="#E3F2FD" height="74.4799" rx="12.5" ry="12.5" style="stroke:#1976D2;stroke-width:1.0;" width="173" x="378.01" y="837.8682"/><line style="stroke:#1976D2;stroke-width:1.0;" x1="378.01" x2="551.01" y1="861.4882" y2="861.4882"/><text fill="#000000" font-family="Arial" font-size="10" lengthAdjust="spacing" textLength="153" x="388.01" y="853.5582">VENTANA_PROGRAMAS_ABIERTA</text><text fill="#000000" font-family="Arial" font-size="10" lengthAdjust="spacing" textLength="117" x="383.01" y="877.1782">Ventana MDI hija visible</text><text fill="#000000" font-family="Arial" font-size="10" lengthAdjust="spacing" textLength="132" x="383.01" y="890.7982">Grid de programas cargado</text><text fill="#000000" font-family="Arial" font-size="10" lengthAdjust="spacing" textLength="126" x="383.01" y="904.4182">Botones CRUD habilitados</text></g><g id="VENTANA_CURSOS_ABIERTA"><rect fill="#E3F2FD" height="74.4799" rx="12.5" ry="12.5" style="stroke:#1976D2;stroke-width:1.0;" width="166" x="272.51" y="1029.8682"/><line style="stroke:#1976D2;stroke-width:1.0;" x1="272.51" x2="438.51" y1="1053.4882" y2="1053.4882"/><text fill="#000000" font-family="Arial" font-size="10" lengthAdjust="spacing" textLength="131" x="290.01" y="1045.5582">VENTANA_CURSOS_ABIERTA</text><text fill="#000000" font-family="Arial" font-size="10" lengthAdjust="spacing" textLength="117" x="277.51" y="1069.1782">Ventana MDI hija visible</text><text fill="#000000" font-family="Arial" font-size="10" lengthAdjust="spacing" textLength="111" x="277.51" y="1082.7982">Grid de cursos cargado</text><text fill="#000000" font-family="Arial" font-size="10" lengthAdjust="spacing" textLength="146" x="277.51" y="1096.4182">Filtros y b&#250;squeda disponibles</text></g><g id="VENTANA_PROFESORES_ABIERTA"><rect fill="#E3F2FD" height="74.4799" rx="12.5" ry="12.5" style="stroke:#1976D2;stroke-width:1.0;" width="175" x="2114.01" y="1221.8682"/><line style="stroke:#1976D2;stroke-width:1.0;" x1="2114.01" x2="2289.01" y1="1245.4882" y2="1245.4882"/><text fill="#000000" font-family="Arial" font-size="10" lengthAdjust="spacing" textLength="155" x="2124.01" y="1237.5582">VENTANA_PROFESORES_ABIERTA</text><text fill="#000000" font-family="Arial" font-size="10" lengthAdjust="spacing" textLength="117" x="2119.01" y="1261.1782">Ventana MDI hija visible</text><text fill="#000000" font-family="Arial" font-size="10" lengthAdjust="spacing" textLength="134" x="2119.01" y="1274.7982">Lista de profesores cargada</text><text fill="#000000" font-family="Arial" font-size="10" lengthAdjust="spacing" textLength="118" x="2119.01" y="1288.4182">Panel de detalles visible</text></g><g id="VENTANA_EDIFICIOS_ABIERTA"><rect fill="#E3F2FD" height="60.86" rx="12.5" ry="12.5" style="stroke:#1976D2;stroke-width:1.0;" width="162" x="637.51" y="844.3682"/><line style="stroke:#1976D2;stroke-width:1.0;" x1="637.51" x2="799.51" y1="867.9882" y2="867.9882"/><text fill="#000000" font-family="Arial" font-size="10" lengthAdjust="spacing" textLength="140" x="648.51" y="860.0582">VENTANA_EDIFICIOS_ABIERTA</text><text fill="#000000" font-family="Arial" font-size="10" lengthAdjust="spacing" textLength="117" x="642.51" y="883.6782">Ventana MDI hija visible</text><text fill="#000000" font-family="Arial" font-size="10" lengthAdjust="spacing" textLength="142" x="642.51" y="897.2982">&#193;rbol de edificios desplegado</text></g><g id="VENTANA_AULAS_ABIERTA"><rect fill="#E3F2FD" height="60.86" rx="12.5" ry="12.5" style="stroke:#1976D2;stroke-width:1.0;" width="148" x="966.51" y="844.3682"/><line style="stroke:#1976D2;stroke-width:1.0;" x1="966.51" x2="1114.51" y1="867.9882" y2="867.9882"/><text fill="#000000" font-family="Arial" font-size="10" lengthAdjust="spacing" textLength="123" x="979.01" y="860.0582">VENTANA_AULAS_ABIERTA</text><text fill="#000000" font-family="Arial" font-size="10" lengthAdjust="spacing" textLength="117" x="971.51" y="883.6782">Ventana MDI hija visible</text><text fill="#000000" font-family="Arial" font-size="10" lengthAdjust="spacing" textLength="128" x="971.51" y="897.2982">Grid de aulas con recursos</text></g><g id="VENTANA_RECURSOS_ABIERTA"><rect fill="#E3F2FD" height="60.86" rx="12.5" ry="12.5" style="stroke:#1976D2;stroke-width:1.0;" width="175" x="1192.01" y="844.3682"/><line style="stroke:#1976D2;stroke-width:1.0;" x1="1192.01" x2="1367.01" y1="867.9882" y2="867.9882"/><text fill="#000000" font-family="Arial" font-size="10" lengthAdjust="spacing" textLength="143" x="1208.01" y="860.0582">VENTANA_RECURSOS_ABIERTA</text><text fill="#000000" font-family="Arial" font-size="10" lengthAdjust="spacing" textLength="117" x="1197.01" y="883.6782">Ventana MDI hija visible</text><text fill="#000000" font-family="Arial" font-size="10" lengthAdjust="spacing" textLength="155" x="1197.01" y="897.2982">Cat&#225;logo de recursos disponible</text></g><g id="VENTANA_ASIGNACION_ABIERTA"><rect fill="#E3F2FD" height="60.86" rx="12.5" ry="12.5" style="stroke:#1976D2;stroke-width:1.0;" width="174" x="1526.51" y="844.3682"/><line style="stroke:#1976D2;stroke-width:1.0;" x1="1526.51" x2="1700.51" y1="867.9882" y2="867.9882"/><text fill="#000000" font-family="Arial" font-size="10" lengthAdjust="spacing" textLength="154" x="1536.51" y="860.0582">VENTANA_ASIGNACION_ABIERTA</text><text fill="#000000" font-family="Arial" font-size="10" lengthAdjust="spacing" textLength="117" x="1531.51" y="883.6782">Ventana MDI hija visible</text><text fill="#000000" font-family="Arial" font-size="10" lengthAdjust="spacing" textLength="146" x="1531.51" y="897.2982">Interface drag-and-drop activa</text></g><g id="DIALOG_GENERAR_HORARIO"><rect fill="#E3F2FD" height="74.4799" rx="12.5" ry="12.5" style="stroke:#1976D2;stroke-width:1.0;" width="187" x="1853.01" y="837.8682"/><line style="stroke:#1976D2;stroke-width:1.0;" x1="1853.01" x2="2040.01" y1="861.4882" y2="861.4882"/><text fill="#000000" font-family="Arial" font-size="10" lengthAdjust="spacing" textLength="133" x="1880.01" y="853.5582">DIALOG_GENERAR_HORARIO</text><text fill="#000000" font-family="Arial" font-size="10" lengthAdjust="spacing" textLength="102" x="1858.01" y="877.1782">Dialog modal abierto</text><text fill="#000000" font-family="Arial" font-size="10" lengthAdjust="spacing" textLength="167" x="1858.01" y="890.7982">Par&#225;metros de generaci&#243;n visibles</text><text fill="#000000" font-family="Arial" font-size="10" lengthAdjust="spacing" textLength="141" x="1858.01" y="904.4182">Barra de progreso disponible</text></g><g id="VENTANA_CONSULTA_ABIERTA"><rect fill="#E3F2FD" height="74.4799" rx="12.5" ry="12.5" style="stroke:#1976D2;stroke-width:1.0;" width="189" x="2320.01" y="837.8682"/><line style="stroke:#1976D2;stroke-width:1.0;" x1="2320.01" x2="2509.01" y1="861.4882" y2="861.4882"/><text fill="#000000" font-family="Arial" font-size="10" lengthAdjust="spacing" textLength="145" x="2342.01" y="853.5582">VENTANA_CONSULTA_ABIERTA</text><text fill="#000000" font-family="Arial" font-size="10" lengthAdjust="spacing" textLength="117" x="2325.01" y="877.1782">Ventana MDI hija visible</text><text fill="#000000" font-family="Arial" font-size="10" lengthAdjust="spacing" textLength="124" x="2325.01" y="890.7982">Vista de horarios cargada</text><text fill="#000000" font-family="Arial" font-size="10" lengthAdjust="spacing" textLength="169" x="2325.01" y="904.4182">Controles de impresi&#243;n habilitados</text></g><g id="elem_GMN42"><path d="M2254.51,990.8682 L2254.51,1142.5163 A0,0 0 0 0 2254.51,1142.5163 L2574.51,1142.5163 A0,0 0 0 0 2574.51,1142.5163 L2574.51,1000.8682 L2564.51,990.8682 L2418.51,990.8682 L2414.51,912.0482 L2410.51,990.8682 L2254.51,990.8682 A0,0 0 0 0 2254.51,990.8682 " fill="#FFFFFF" style="stroke:#000000;stroke-width:1.0;"/><path d="M2564.51,990.8682 L2564.51,1000.8682 L2574.51,1000.8682 L2564.51,990.8682 " fill="#FFFFFF" style="stroke:#000000;stroke-width:1.0;"/><text fill="#000000" font-family="Verdana" font-size="13" font-weight="bold" lengthAdjust="spacing" textLength="262" x="2260.51" y="1009.7652">Caracter&#237;sticas espec&#237;ficas GUI/Desktop:</text><text fill="#000000" font-family="Verdana" font-size="13" lengthAdjust="spacing" textLength="3" x="2260.51" y="1027.4712">&#160;</text><text fill="#000000" font-family="Verdana" font-size="13" lengthAdjust="spacing" textLength="5" x="2260.51" y="1045.1772">&#8226;</text><text fill="#000000" font-family="Verdana" font-size="13" font-weight="bold" lengthAdjust="spacing" textLength="211" x="2268.51" y="1045.1772">Ventanas m&#250;ltiples simult&#225;neas</text><text fill="#000000" font-family="Verdana" font-size="13" lengthAdjust="spacing" textLength="33" x="2482.51" y="1045.1772">(MDI)</text><text fill="#000000" font-family="Verdana" font-size="13" lengthAdjust="spacing" textLength="5" x="2260.51" y="1062.8833">&#8226;</text><text fill="#000000" font-family="Verdana" font-size="13" font-weight="bold" lengthAdjust="spacing" textLength="112" x="2268.51" y="1062.8833">Estados "abierto"</text><text fill="#000000" font-family="Verdana" font-size="13" lengthAdjust="spacing" textLength="168" x="2383.51" y="1062.8833">= ventana visible en pantalla</text><text fill="#000000" font-family="Verdana" font-size="13" lengthAdjust="spacing" textLength="5" x="2260.51" y="1080.5893">&#8226;</text><text fill="#000000" font-family="Verdana" font-size="13" font-weight="bold" lengthAdjust="spacing" textLength="212" x="2268.51" y="1080.5893">Men&#250;s y barras de herramientas</text><text fill="#000000" font-family="Verdana" font-size="13" lengthAdjust="spacing" textLength="76" x="2483.51" y="1080.5893">tradicionales</text><text fill="#000000" font-family="Verdana" font-size="13" lengthAdjust="spacing" textLength="5" x="2260.51" y="1098.2953">&#8226;</text><text fill="#000000" font-family="Verdana" font-size="13" font-weight="bold" lengthAdjust="spacing" textLength="106" x="2268.51" y="1098.2953">Dialogs modales</text><text fill="#000000" font-family="Verdana" font-size="13" lengthAdjust="spacing" textLength="147" x="2377.51" y="1098.2953">para procesos especiales</text><text fill="#000000" font-family="Verdana" font-size="13" lengthAdjust="spacing" textLength="5" x="2260.51" y="1116.0013">&#8226;</text><text fill="#000000" font-family="Verdana" font-size="13" font-weight="bold" lengthAdjust="spacing" textLength="179" x="2268.51" y="1116.0013">Transiciones por activaci&#243;n</text><text fill="#000000" font-family="Verdana" font-size="13" lengthAdjust="spacing" textLength="73" x="2450.51" y="1116.0013">de ventanas</text><text fill="#000000" font-family="Verdana" font-size="13" lengthAdjust="spacing" textLength="5" x="2260.51" y="1133.7073">&#8226;</text><text fill="#000000" font-family="Verdana" font-size="13" font-weight="bold" lengthAdjust="spacing" textLength="172" x="2268.51" y="1133.7073">Paradigma point-and-click</text><text fill="#000000" font-family="Verdana" font-size="13" lengthAdjust="spacing" textLength="68" x="2443.51" y="1133.7073">establecido</text></g><!--link *start* to APLICACION_CERRADA--><g id="link_*start*_APLICACION_CERRADA"><path d="M1396.51,204.0482 C1396.51,217.7182 1396.51,238.0082 1396.51,258.7182 " fill="none" id="*start*-to-APLICACION_CERRADA" style="stroke:#000000;stroke-width:1.0;"/><polygon fill="#000000" points="1396.51,264.7182,1400.51,255.7182,1396.51,259.7182,1392.51,255.7182,1396.51,264.7182" style="stroke:#000000;stroke-width:1.0;"/></g><!--link APLICACION_CERRADA to SPLASH_SCREEN--><g id="link_APLICACION_CERRADA_SPLASH_SCREEN"><path d="M1347.65,325.9582 C1337.89,334.3282 1328.98,344.3482 1323.51,355.8682 C1316.37,370.8982 1315.8237,383.4955 1318.1337,398.7855 " fill="none" id="APLICACION_CERRADA-to-SPLASH_SCREEN" style="stroke:#000000;stroke-width:1.0;"/><polygon fill="#000000" points="1319.03,404.7182,1321.6407,395.2217,1318.2831,399.7743,1313.7304,396.4167,1319.03,404.7182" style="stroke:#000000;stroke-width:1.0;"/><text fill="#000000" font-family="Verdana" font-size="13" lengthAdjust="spacing" textLength="116" x="1324.51" y="370.7652">ejecutarAplicacion()</text></g><!--link SPLASH_SCREEN to VENTANA_LOGIN_ABIERTA--><g id="link_SPLASH_SCREEN_VENTANA_LOGIN_ABIERTA"><path d="M1287.89,465.9682 C1257.52,489.2582 1220.1715,517.8874 1189.8215,541.1574 " fill="none" id="SPLASH_SCREEN-to-VENTANA_LOGIN_ABIERTA" style="stroke:#000000;stroke-width:1.0;"/><polygon fill="#000000" points="1185.06,544.8082,1194.6361,542.5064,1189.0279,541.7659,1189.7684,536.1577,1185.06,544.8082" style="stroke:#000000;stroke-width:1.0;"/><text fill="#000000" font-family="Verdana" font-size="13" lengthAdjust="spacing" textLength="100" x="1248.51" y="510.7652">[carga completa]</text></g><!--link VENTANA_LOGIN_ABIERTA to VENTANA_LOGIN_ABIERTA--><g id="link_VENTANA_LOGIN_ABIERTA_VENTANA_LOGIN_ABIERTA"><path d="M1248.68,562.7882 C1269.01,564.1982 1283.51,568.3982 1283.51,575.3682 C1283.51,582.3382 1274.9956,586.1231 1254.6656,587.5331 " fill="none" id="VENTANA_LOGIN_ABIERTA-to-VENTANA_LOGIN_ABIERTA" style="stroke:#000000;stroke-width:1.0;"/><polygon fill="#000000" points="1248.68,587.9482,1257.9352,591.3159,1253.668,587.6023,1257.3817,583.3351,1248.68,587.9482" style="stroke:#000000;stroke-width:1.0;"/><text fill="#000000" font-family="Verdana" font-size="13" lengthAdjust="spacing" textLength="136" x="1289.51" y="580.7652">[credenciales inv&#225;lidas]</text></g><!--link VENTANA_LOGIN_ABIERTA to MENU_PRINCIPAL_ACTIVO--><g id="link_VENTANA_LOGIN_ABIERTA_MENU_PRINCIPAL_ACTIVO"><path d="M1179.48,605.9582 C1204.87,628.7482 1235.6251,656.3502 1262.6951,680.6502 " fill="none" id="VENTANA_LOGIN_ABIERTA-to-MENU_PRINCIPAL_ACTIVO" style="stroke:#000000;stroke-width:1.0;"/><polygon fill="#000000" points="1267.16,684.6582,1263.1346,675.6695,1263.4392,681.3182,1257.7906,681.6228,1267.16,684.6582" style="stroke:#000000;stroke-width:1.0;"/><text fill="#000000" font-family="Verdana" font-size="13" lengthAdjust="spacing" textLength="135" x="1233.51" y="650.7652">[autenticaci&#243;n exitosa]</text></g><!--link MENU_PRINCIPAL_ACTIVO to VENTANA_PROGRAMAS_ABIERTA--><g id="link_MENU_PRINCIPAL_ACTIVO_VENTANA_PROGRAMAS_ABIERTA"><path d="M1201.88,725.9582 C950.04,733.8482 332.91,756.3982 302.51,788.8682 C296.74,795.0282 297.8,800.8582 302.51,807.8682 C312.04,822.0482 338.8211,834.5139 372.1911,846.2739 " fill="none" id="MENU_PRINCIPAL_ACTIVO-to-VENTANA_PROGRAMAS_ABIERTA" style="stroke:#000000;stroke-width:1.0;"/><polygon fill="#000000" points="377.85,848.2682,370.6912,841.5042,373.1343,846.6063,368.0322,849.0494,377.85,848.2682" style="stroke:#000000;stroke-width:1.0;"/><text fill="#000000" font-family="Verdana" font-size="13" lengthAdjust="spacing" textLength="152" x="303.51" y="803.7652">abrirVentanaProgramas()</text></g><!--link VENTANA_PROGRAMAS_ABIERTA to MENU_PRINCIPAL_ACTIVO--><g id="link_VENTANA_PROGRAMAS_ABIERTA_MENU_PRINCIPAL_ACTIVO"><path d="M504.17,837.6882 C526.2,819.7882 555.05,799.7482 584.51,788.8682 C694.99,748.0782 1023.4435,731.8725 1196.0035,725.9925 " fill="none" id="VENTANA_PROGRAMAS_ABIERTA-to-MENU_PRINCIPAL_ACTIVO" style="stroke:#000000;stroke-width:1.0;"/><polygon fill="#000000" points="1202,725.7882,1192.869,722.097,1197.0029,725.9585,1193.1414,730.0924,1202,725.7882" style="stroke:#000000;stroke-width:1.0;"/><text fill="#000000" font-family="Verdana" font-size="13" lengthAdjust="spacing" textLength="93" x="585.51" y="803.7652">cerrarVentana()</text></g><!--link MENU_PRINCIPAL_ACTIVO to VENTANA_CURSOS_ABIERTA--><g id="link_MENU_PRINCIPAL_ACTIVO_VENTANA_CURSOS_ABIERTA"><path d="M1201.98,723.8982 C915.6,727.8882 140.83,747.0482 75.51,837.8682 C11,927.5682 162.3861,999.792 266.4961,1037.352 " fill="none" id="MENU_PRINCIPAL_ACTIVO-to-VENTANA_CURSOS_ABIERTA" style="stroke:#000000;stroke-width:1.0;"/><polygon fill="#000000" points="272.14,1039.3882,265.0315,1032.5713,267.4367,1037.6914,262.3166,1040.0966,272.14,1039.3882" style="stroke:#000000;stroke-width:1.0;"/><text fill="#000000" font-family="Verdana" font-size="13" lengthAdjust="spacing" textLength="127" x="76.51" y="880.2652">abrirVentanaCursos()</text></g><!--link VENTANA_CURSOS_ABIERTA to MENU_PRINCIPAL_ACTIVO--><g id="link_VENTANA_CURSOS_ABIERTA_MENU_PRINCIPAL_ACTIVO"><path d="M326.93,1029.7882 C305.32,1000.0582 277.41,955.8082 265.51,911.8682 C250.9,857.9382 244.59,819.2082 291.51,788.8682 C366.56,740.3482 951.1706,727.3801 1195.8806,724.0401 " fill="none" id="VENTANA_CURSOS_ABIERTA-to-MENU_PRINCIPAL_ACTIVO" style="stroke:#000000;stroke-width:1.0;"/><polygon fill="#000000" points="1201.88,723.9582,1192.8262,720.0814,1196.8805,724.0264,1192.9354,728.0807,1201.88,723.9582" style="stroke:#000000;stroke-width:1.0;"/><text fill="#000000" font-family="Verdana" font-size="13" lengthAdjust="spacing" textLength="93" x="266.51" y="880.2652">cerrarVentana()</text></g><!--link MENU_PRINCIPAL_ACTIVO to VENTANA_PROFESORES_ABIERTA--><g id="link_MENU_PRINCIPAL_ACTIVO_VENTANA_PROFESORES_ABIERTA"><path d="M1413.05,723.6682 C1628.4,726.3582 2102.55,738.0382 2154.51,788.8682 C2273.7,905.4582 2234.3671,1127.7204 2212.7571,1215.9704 " fill="none" id="MENU_PRINCIPAL_ACTIVO-to-VENTANA_PROFESORES_ABIERTA" style="stroke:#000000;stroke-width:1.0;"/><polygon fill="#000000" points="2211.33,1221.7982,2217.3558,1214.0079,2212.5192,1216.9417,2209.5854,1212.1051,2211.33,1221.7982" style="stroke:#000000;stroke-width:1.0;"/><text fill="#000000" font-family="Verdana" font-size="13" lengthAdjust="spacing" textLength="150" x="2231.51" y="956.7652">abrirVentanaProfesores()</text></g><!--link VENTANA_PROFESORES_ABIERTA to MENU_PRINCIPAL_ACTIVO--><g id="link_VENTANA_PROFESORES_ABIERTA_MENU_PRINCIPAL_ACTIVO"><path d="M2289.3,1244.4282 C2393.03,1226.5482 2556.16,1191.4482 2592.51,1142.8682 C2688.91,1014.0282 2646.27,884.0282 2516.51,788.8682 C2428.71,724.4782 1697.12,721.0658 1419.03,722.1058 " fill="none" id="VENTANA_PROFESORES_ABIERTA-to-MENU_PRINCIPAL_ACTIVO" style="stroke:#000000;stroke-width:1.0;"/><polygon fill="#000000" points="1413.03,722.1282,1422.0449,726.0945,1418.03,722.1095,1422.015,718.0946,1413.03,722.1282" style="stroke:#000000;stroke-width:1.0;"/><text fill="#000000" font-family="Verdana" font-size="13" lengthAdjust="spacing" textLength="93" x="2641.51" y="956.7652">cerrarVentana()</text></g><!--link MENU_PRINCIPAL_ACTIVO to VENTANA_EDIFICIOS_ABIERTA--><g id="link_MENU_PRINCIPAL_ACTIVO_VENTANA_EDIFICIOS_ABIERTA"><path d="M1202,731.2882 C1082.69,741.8882 896.58,762.0182 831.51,788.8682 C800.42,801.6982 774.7182,821.145 753.3882,840.165 " fill="none" id="MENU_PRINCIPAL_ACTIVO-to-VENTANA_EDIFICIOS_ABIERTA" style="stroke:#000000;stroke-width:1.0;"/><polygon fill="#000000" points="748.91,844.1582,758.2894,841.1538,752.6418,840.8305,752.9651,835.1829,748.91,844.1582" style="stroke:#000000;stroke-width:1.0;"/><text fill="#000000" font-family="Verdana" font-size="13" lengthAdjust="spacing" textLength="134" x="832.51" y="803.7652">abrirVentanaEdificios()</text></g><!--link VENTANA_EDIFICIOS_ABIERTA to MENU_PRINCIPAL_ACTIVO--><g id="link_VENTANA_EDIFICIOS_ABIERTA_MENU_PRINCIPAL_ACTIVO"><path d="M697.77,844.3682 C687.89,826.3882 680.88,804.0382 694.51,788.8682 C727.72,751.8882 1029.4755,734.0851 1195.8655,726.9551 " fill="none" id="VENTANA_EDIFICIOS_ABIERTA-to-MENU_PRINCIPAL_ACTIVO" style="stroke:#000000;stroke-width:1.0;"/><polygon fill="#000000" points="1201.86,726.6982,1192.697,723.0872,1196.8646,726.9123,1193.0395,731.0798,1201.86,726.6982" style="stroke:#000000;stroke-width:1.0;"/><text fill="#000000" font-family="Verdana" font-size="13" lengthAdjust="spacing" textLength="93" x="695.51" y="803.7652">cerrarVentana()</text></g><!--link MENU_PRINCIPAL_ACTIVO to VENTANA_AULAS_ABIERTA--><g id="link_MENU_PRINCIPAL_ACTIVO_VENTANA_AULAS_ABIERTA"><path d="M1201.98,743.1882 C1168.07,753.1482 1131.75,767.7282 1102.51,788.8682 C1082.67,803.2082 1069.6695,820.661 1058.8695,838.961 " fill="none" id="MENU_PRINCIPAL_ACTIVO-to-VENTANA_AULAS_ABIERTA" style="stroke:#000000;stroke-width:1.0;"/><polygon fill="#000000" points="1055.82,844.1282,1063.8391,838.4104,1058.3613,839.8222,1056.9495,834.3443,1055.82,844.1282" style="stroke:#000000;stroke-width:1.0;"/><text fill="#000000" font-family="Verdana" font-size="13" lengthAdjust="spacing" textLength="118" x="1103.51" y="803.7652">abrirVentanaAulas()</text></g><!--link VENTANA_AULAS_ABIERTA to MENU_PRINCIPAL_ACTIVO--><g id="link_VENTANA_AULAS_ABIERTA_MENU_PRINCIPAL_ACTIVO"><path d="M998.65,843.9982 C980.4,827.3482 966.09,806.4782 980.51,788.8682 C1008.25,754.9682 1111.3775,738.6625 1196.0275,730.5225 " fill="none" id="VENTANA_AULAS_ABIERTA-to-MENU_PRINCIPAL_ACTIVO" style="stroke:#000000;stroke-width:1.0;"/><polygon fill="#000000" points="1202,729.9482,1192.6584,726.828,1197.023,730.4268,1193.4242,734.7913,1202,729.9482" style="stroke:#000000;stroke-width:1.0;"/><text fill="#000000" font-family="Verdana" font-size="13" lengthAdjust="spacing" textLength="93" x="981.51" y="803.7652">cerrarVentana()</text></g><!--link MENU_PRINCIPAL_ACTIVO to VENTANA_RECURSOS_ABIERTA--><g id="link_MENU_PRINCIPAL_ACTIVO_VENTANA_RECURSOS_ABIERTA"><path d="M1331.08,759.0082 C1338.06,774.1682 1342.43,791.9382 1336.51,807.8682 C1331.55,821.2082 1326.5656,829.1991 1317.1556,839.5991 " fill="none" id="MENU_PRINCIPAL_ACTIVO-to-VENTANA_RECURSOS_ABIERTA" style="stroke:#000000;stroke-width:1.0;"/><polygon fill="#000000" points="1313.13,844.0482,1322.1345,840.0583,1316.4847,840.3406,1316.2023,834.6908,1313.13,844.0482" style="stroke:#000000;stroke-width:1.0;"/><text fill="#000000" font-family="Verdana" font-size="13" lengthAdjust="spacing" textLength="140" x="1340.51" y="803.7652">abrirVentanaRecursos()</text></g><!--link VENTANA_RECURSOS_ABIERTA to MENU_PRINCIPAL_ACTIVO--><g id="link_VENTANA_RECURSOS_ABIERTA_MENU_PRINCIPAL_ACTIVO"><path d="M1248.33,844.1282 C1235.36,828.0582 1225.07,807.6982 1233.51,788.8682 C1238.51,777.7182 1242.1412,771.8744 1250.9812,763.1844 " fill="none" id="VENTANA_RECURSOS_ABIERTA-to-MENU_PRINCIPAL_ACTIVO" style="stroke:#000000;stroke-width:1.0;"/><polygon fill="#000000" points="1255.26,758.9782,1246.0377,762.435,1251.6943,762.4834,1251.6459,768.14,1255.26,758.9782" style="stroke:#000000;stroke-width:1.0;"/><text fill="#000000" font-family="Verdana" font-size="13" lengthAdjust="spacing" textLength="93" x="1234.51" y="803.7652">cerrarVentana()</text></g><!--link MENU_PRINCIPAL_ACTIVO to VENTANA_ASIGNACION_ABIERTA--><g id="link_MENU_PRINCIPAL_ACTIVO_VENTANA_ASIGNACION_ABIERTA"><path d="M1413.35,728.5982 C1503.61,735.9682 1623.4,752.4682 1653.51,788.8682 C1667.02,805.2082 1660.2056,822.1493 1646.5656,839.5193 " fill="none" id="MENU_PRINCIPAL_ACTIVO-to-VENTANA_ASIGNACION_ABIERTA" style="stroke:#000000;stroke-width:1.0;"/><polygon fill="#000000" points="1642.86,844.2382,1651.5644,839.6302,1645.948,840.3057,1645.2724,834.6894,1642.86,844.2382" style="stroke:#000000;stroke-width:1.0;"/><text fill="#000000" font-family="Verdana" font-size="13" lengthAdjust="spacing" textLength="151" x="1660.51" y="803.7652">abrirVentanaAsignacion()</text></g><!--link VENTANA_ASIGNACION_ABIERTA to MENU_PRINCIPAL_ACTIVO--><g id="link_VENTANA_ASIGNACION_ABIERTA_MENU_PRINCIPAL_ACTIVO"><path d="M1575.71,844.2382 C1551.92,826.5482 1520.04,804.5482 1489.51,788.8682 C1465.59,776.5882 1444.4796,767.6137 1419.0096,758.2237 " fill="none" id="VENTANA_ASIGNACION_ABIERTA-to-MENU_PRINCIPAL_ACTIVO" style="stroke:#000000;stroke-width:1.0;"/><polygon fill="#000000" points="1413.38,756.1482,1420.4408,763.0145,1418.0713,757.8778,1423.208,755.5083,1413.38,756.1482" style="stroke:#000000;stroke-width:1.0;"/><text fill="#000000" font-family="Verdana" font-size="13" lengthAdjust="spacing" textLength="93" x="1522.51" y="803.7652">cerrarVentana()</text></g><!--link MENU_PRINCIPAL_ACTIVO to DIALOG_GENERAR_HORARIO--><g id="link_MENU_PRINCIPAL_ACTIVO_DIALOG_GENERAR_HORARIO"><path d="M1413.34,725.7882 C1590.87,731.7782 1932.96,748.4882 1969.51,788.8682 C1981.51,802.1282 1980.2473,815.5672 1972.6073,832.1772 " fill="none" id="MENU_PRINCIPAL_ACTIVO-to-DIALOG_GENERAR_HORARIO" style="stroke:#000000;stroke-width:1.0;"/><polygon fill="#000000" points="1970.1,837.6282,1977.4949,831.1232,1972.1894,833.0857,1970.2269,827.7802,1970.1,837.6282" style="stroke:#000000;stroke-width:1.0;"/><text fill="#000000" font-family="Verdana" font-size="13" lengthAdjust="spacing" textLength="168" x="1977.51" y="803.7652">abrirDialogGenerarHorario()</text></g><!--link DIALOG_GENERAR_HORARIO to MENU_PRINCIPAL_ACTIVO--><g id="link_DIALOG_GENERAR_HORARIO_MENU_PRINCIPAL_ACTIVO"><path d="M1903.84,837.7182 C1880.66,820.0682 1850.63,800.2282 1820.51,788.8682 C1748.15,761.5682 1546.8901,741.617 1419.0401,731.167 " fill="none" id="DIALOG_GENERAR_HORARIO-to-MENU_PRINCIPAL_ACTIVO" style="stroke:#000000;stroke-width:1.0;"/><polygon fill="#000000" points="1413.06,730.6782,1421.7042,735.3981,1418.0434,731.0855,1422.3559,727.4247,1413.06,730.6782" style="stroke:#000000;stroke-width:1.0;"/><text fill="#000000" font-family="Verdana" font-size="13" lengthAdjust="spacing" textLength="81" x="1858.51" y="803.7652">cerrarDialog()</text></g><!--link MENU_PRINCIPAL_ACTIVO to VENTANA_CONSULTA_ABIERTA--><g id="link_MENU_PRINCIPAL_ACTIVO_VENTANA_CONSULTA_ABIERTA"><path d="M1413.34,725.0682 C1620.36,730.2682 2071.64,746.2382 2220.51,788.8682 C2237.9,793.8482 2240.14,800.1482 2256.51,807.8682 C2278.15,818.0782 2296.2782,826.0646 2318.5382,835.4146 " fill="none" id="MENU_PRINCIPAL_ACTIVO-to-VENTANA_CONSULTA_ABIERTA" style="stroke:#000000;stroke-width:1.0;"/><polygon fill="#000000" points="2324.07,837.7382,2317.3213,830.565,2319.4601,835.8019,2314.2232,837.9407,2324.07,837.7382" style="stroke:#000000;stroke-width:1.0;"/><text fill="#000000" font-family="Verdana" font-size="13" lengthAdjust="spacing" textLength="139" x="2257.51" y="803.7652">abrirVentanaConsulta()</text></g><!--link VENTANA_CONSULTA_ABIERTA to MENU_PRINCIPAL_ACTIVO--><g id="link_VENTANA_CONSULTA_ABIERTA_MENU_PRINCIPAL_ACTIVO"><path d="M2418.6,837.6082 C2418.43,820.3782 2414.74,800.9382 2401.51,788.8682 C2365.36,755.8882 1686.6476,733.4587 1419.2376,725.8587 " fill="none" id="VENTANA_CONSULTA_ABIERTA-to-MENU_PRINCIPAL_ACTIVO" style="stroke:#000000;stroke-width:1.0;"/><polygon fill="#000000" points="1413.24,725.6882,1422.1227,729.9423,1418.238,725.8303,1422.35,721.9455,1413.24,725.6882" style="stroke:#000000;stroke-width:1.0;"/><text fill="#000000" font-family="Verdana" font-size="13" lengthAdjust="spacing" textLength="93" x="2414.51" y="803.7652">cerrarVentana()</text></g><!--link VENTANA_PROGRAMAS_ABIERTA to VENTANA_CURSOS_ABIERTA--><g id="link_VENTANA_PROGRAMAS_ABIERTA_VENTANA_CURSOS_ABIERTA"><path d="M443.75,912.0482 C424.35,945.8582 398.546,990.854 379.176,1024.614 " fill="none" id="VENTANA_PROGRAMAS_ABIERTA-to-VENTANA_CURSOS_ABIERTA" style="stroke:#000000;stroke-width:1.0;"/><polygon fill="#000000" points="376.19,1029.8182,384.1384,1024.0025,378.6783,1025.4813,377.1995,1020.0212,376.19,1029.8182" style="stroke:#000000;stroke-width:1.0;"/><text fill="#000000" font-family="Verdana" font-size="13" lengthAdjust="spacing" textLength="121" x="427.51" y="956.7652">[m&#250;ltiples ventanas]</text></g><!--link VENTANA_CURSOS_ABIERTA to VENTANA_PROFESORES_ABIERTA--><g id="link_VENTANA_CURSOS_ABIERTA_VENTANA_PROFESORES_ABIERTA"><path d="M438.72,1076.4282 C744.04,1107.8582 1795.2815,1216.0539 2107.8515,1248.2239 " fill="none" id="VENTANA_CURSOS_ABIERTA-to-VENTANA_PROFESORES_ABIERTA" style="stroke:#000000;stroke-width:1.0;"/><polygon fill="#000000" points="2113.82,1248.8382,2105.2768,1243.9378,2108.8463,1248.3263,2104.4578,1251.8958,2113.82,1248.8382" style="stroke:#000000;stroke-width:1.0;"/><text fill="#000000" font-family="Verdana" font-size="13" lengthAdjust="spacing" textLength="121" x="1552.51" y="1187.7652">[m&#250;ltiples ventanas]</text></g><!--link MENU_PRINCIPAL_ACTIVO to APLICACION_CERRADA--><g id="link_MENU_PRINCIPAL_ACTIVO_APLICACION_CERRADA"><path d="M1362.88,684.6982 C1388.49,664.7482 1416.51,637.5882 1431.51,605.8682 C1674.58,91.9282 1467.04,415.8782 1445.51,355.8682 C1441.62,345.0382 1438.6447,339.3912 1431.3147,330.5312 " fill="none" id="MENU_PRINCIPAL_ACTIVO-to-APLICACION_CERRADA" style="stroke:#000000;stroke-width:1.0;"/><polygon fill="#000000" points="1427.49,325.9082,1430.145,335.3925,1430.6772,329.7607,1436.309,330.2929,1427.49,325.9082" style="stroke:#000000;stroke-width:1.0;"/><text fill="#000000" font-family="Verdana" font-size="13" lengthAdjust="spacing" textLength="103" x="1480.51" y="510.7652">cerrarAplicacion()</text></g><!--SRC=[dLZ1RkCs4BthAzZjeRi6WdQtG1TTe0KKMNO4EB8XnxcaWK5BZCEDHAea7MotAB3zbEqzfzxswZ_fbtH8IOvaKOesG934DD_epN3cpL3Vg5kI4PIdc397tb6MOu4p91LM1Ftf87IAuxkju3kMU3pb0dth_pXvCndhRxX8Y2XNN__yzgVn6rYTSAP232PTGN5QBYpfHu9U_-3yvJYAgfIWCSLRU0v62K4UR20V54VJLV3zcCWxnVFVc9jab56f14x0Fcmxum8BoYKwGK6Mfy2QAHpJ_RyCQSx8pLCQbmkmtPUne8e3md6kHjVevEHNv2vcWUTwmJnSUtuKkMFNSGfFszyOvotBxr18sNR7CBhN1FHVAkac9LtRb-040KyPHp4MMt074OOoaW4th2DYGMcooyNCNPwjbrxa-o7O8Uz9l5DOL7vozl9LHR-vLpC_HYyma4rJ4t13eqRxU6_0Q0ndHpzY1cHZdkMSWQz4QhRDpPhefHzUkA6xdisdGRXsJmC_kj2ENnNFqVYKA7nTaRNlrwIxB4suo7QfFdrDF-LRochqkr0hkJEGV4S0HPaIFDd5LA1Om0BJBXOksGtqkrOp0QRlzvzJcc1vtMFht0zNwqKKX5wmS6Thrxi8BkVQ5jufYEuXTya7I5lv62uxJeUho-9bcPYve40nnsaLB3WBdNbi_qNsm4-n42PFRWdyar5jJQA4IaY3CkHTq6R8yKP0jBFzbrJHN0Ugh1WJTBk9Uj0NqNmQkUVkiXPuOxBqRo6uqH09TV2qDMyLBUTTfhoTa7oO7M0ryPVpoE-XTKCa5sIOFNySJ08e_YvpVa9le1m7idDNiyvukL12mwn4Vc-q8X2YmV5oby4qBDIjWvQaMrRfMRUzSU12JQsdVkX7RhG-cyFlO5xPWdu2iZ0bZ42JA3l5iBIOXylLxCBjIWpEv2vL-55gkxEphc2stAtAydmSe5lw7biap0QR2fheQiohTA_Qo1EuKwv0jYNoejKOtU8DJQa2b2c-fYj7XrttevK70vneOIeFYgonq6yX9ZG5jPRe3xG1hVeTr0JN1CZYWgKgZuwZNRJ3pgEDcq53n-M9b9LU-eIVWa8N9gc69aHtOos9vJDR7hLreUwGJJK6-6E3xVyM6sv8aKfgu8C4mJQdr2BMb9WwgMFn6K3e65Ab2jPQPTgLACMcJQIbKdKk5WaRGCU2yh22viwtPlIeoDIxOJj0RSLhHCacY4D2PSC5C9Q96nn3HWcyFO61xIGHF4SuLlGUFtBhK4_DgrDO2qr56KzWWW3z84BnllqBBFQVCs8A5sArDM9Sp3IbDx8FVXWxZD11NVK6kQNR3TLgY_eGtRAWgbA_hIuVxKAtmFIDHd1Ttdhmp7BmneJXI8M_GnS2CwbBZXLx1O4R2rmK8E1cJ7iSuPnkgUyRBcCzmbND39fOX-8-nuH5u9vZfYr9px7Ir97dM6YL_hDej6lqQynqrCRJ9efIhP_lSL9-3Gr8pFA3B2PvLkg9aD0a8BK9alk79pAoixTVMIu4rts9sTjHxTPw1Z_h7Rs8GFDcpJZ8pOOhnJEezj78mw1ceBRx1walQn91ZoJn_k76VAYzktWt6W40Vlxxz0_W3g6iCPKKxhFGLnZ1SZH2Bq6LNXq0lZGAWLwKcli2Tlno_BP1lqF8oplz0NbkhdPwQj9QAe_lS617lqunUeCBDIvmHVh8Gkg9tcVUg80GnqHtE-CfRK0QofLpKMQ8aNl0mvCFbxqA0lq17hxDm327sxXfLZ54_0xs4_0Pl8efJ1o49KW7t_aV]--></g></svg>