<?xml version="1.0" encoding="us-ascii" standalone="no"?><svg xmlns="http://www.w3.org/2000/svg" xmlns:xlink="http://www.w3.org/1999/xlink" contentStyleType="text/css" height="1267px" preserveAspectRatio="none" style="width:2281px;height:1267px;background:#FFFFFF;" version="1.1" viewBox="0 0 2281 1267" width="2281px" zoomAndPan="magnify"><defs/><g><text fill="#000000" font-family="Verdana" font-size="22" font-weight="bold" lengthAdjust="spacing" textLength="290" x="991.395" y="38.5181">Diagrama de Contexto CLI</text><text fill="#000000" font-family="Verdana" font-size="22" font-weight="bold" lengthAdjust="spacing" textLength="833" x="719.895" y="68.4822">Administrador de Horarios - Implementaci&#243;n para Command Line Interface</text><ellipse cx="1117.7" cy="101.9282" fill="#FFFFFF" rx="10" ry="10" style="stroke:#000000;stroke-width:1.0;"/><g id="TERMINAL_IDLE"><rect fill="#E8F5E8" height="60.86" rx="12.5" ry="12.5" style="stroke:#4CAF50;stroke-width:1.0;" width="148" x="1043.7" y="172.9282"/><line style="stroke:#4CAF50;stroke-width:1.0;" x1="1043.7" x2="1191.7" y1="196.5482" y2="196.5482"/><text fill="#000000" font-family="Courier New" font-size="10" lengthAdjust="spacing" textLength="74" x="1080.7" y="188.6182">TERMINAL_IDLE</text><text fill="#000000" font-family="Courier New" font-size="10" lengthAdjust="spacing" textLength="124" x="1048.7" y="212.2382">Shell sin aplicaci&#243;n activa</text><text fill="#000000" font-family="Courier New" font-size="10" lengthAdjust="spacing" textLength="128" x="1048.7" y="225.8582">Prompt del sistema visible</text></g><g id="SHELL_SIGHOR"><rect fill="#E8F5E8" height="74.4799" rx="12.5" ry="12.5" style="stroke:#4CAF50;stroke-width:1.0;" width="175" x="1030.2" y="312.9282"/><line style="stroke:#4CAF50;stroke-width:1.0;" x1="1030.2" x2="1205.2" y1="336.5482" y2="336.5482"/><text fill="#000000" font-family="Courier New" font-size="10" lengthAdjust="spacing" textLength="68" x="1083.7" y="328.6182">SHELL_SIGHOR</text><text fill="#000000" font-family="Courier New" font-size="10" lengthAdjust="spacing" textLength="107" x="1035.2" y="352.2382">Aplicaci&#243;n CLI iniciada</text><text fill="#000000" font-family="Courier New" font-size="10" lengthAdjust="spacing" textLength="155" x="1035.2" y="365.8582">Banner de bienvenida mostrado</text><text fill="#000000" font-family="Courier New" font-size="10" lengthAdjust="spacing" textLength="77" x="1035.2" y="379.4782">Prompt: sighor&gt;</text></g><g id="PROMPT_LOGIN"><rect fill="#E8F5E8" height="74.4799" rx="12.5" ry="12.5" style="stroke:#4CAF50;stroke-width:1.0;" width="149" x="887.2" y="465.9282"/><line style="stroke:#4CAF50;stroke-width:1.0;" x1="887.2" x2="1036.2" y1="489.5482" y2="489.5482"/><text fill="#000000" font-family="Courier New" font-size="10" lengthAdjust="spacing" textLength="76" x="923.7" y="481.6182">PROMPT_LOGIN</text><text fill="#000000" font-family="Courier New" font-size="10" lengthAdjust="spacing" textLength="117" x="892.2" y="505.2382">Solicitando credenciales</text><text fill="#000000" font-family="Courier New" font-size="10" lengthAdjust="spacing" textLength="129" x="892.2" y="518.8582">Input de usuario/password</text><text fill="#000000" font-family="Courier New" font-size="10" lengthAdjust="spacing" textLength="71" x="892.2" y="532.4782">Prompt: login&gt;</text></g><g id="SHELL_AUTENTICADO"><rect fill="#E8F5E8" height="88.0999" rx="12.5" ry="12.5" style="stroke:#4CAF50;stroke-width:1.0;" width="147" x="1044.2" y="618.9282"/><line style="stroke:#4CAF50;stroke-width:1.0;" x1="1044.2" x2="1191.2" y1="642.5482" y2="642.5482"/><text fill="#000000" font-family="Courier New" font-size="10" lengthAdjust="spacing" textLength="101" x="1067.2" y="634.6182">SHELL_AUTENTICADO</text><text fill="#000000" font-family="Courier New" font-size="10" lengthAdjust="spacing" textLength="90" x="1049.2" y="658.2382">Sesi&#243;n establecida</text><text fill="#000000" font-family="Courier New" font-size="10" lengthAdjust="spacing" textLength="119" x="1049.2" y="671.8582">Prompt: sighor[usuario]&gt;</text><text fill="#000000" font-family="Courier New" font-size="10" lengthAdjust="spacing" textLength="123" x="1049.2" y="685.4782">Help disponible con 'help'</text><text fill="#000000" font-family="Courier New" font-size="10" lengthAdjust="spacing" textLength="127" x="1049.2" y="699.0981">Tab completion habilitado</text></g><g id="CONTEXTO_PROGRAMAS"><rect fill="#E8F5E8" height="74.4799" rx="12.5" ry="12.5" style="stroke:#4CAF50;stroke-width:1.0;" width="208" x="1703.7" y="785.9282"/><line style="stroke:#4CAF50;stroke-width:1.0;" x1="1703.7" x2="1911.7" y1="809.5482" y2="809.5482"/><text fill="#000000" font-family="Courier New" font-size="10" lengthAdjust="spacing" textLength="117" x="1749.2" y="801.6182">CONTEXTO_PROGRAMAS</text><text fill="#000000" font-family="Courier New" font-size="10" lengthAdjust="spacing" textLength="173" x="1708.7" y="825.2382">Subcomandos de programas activos</text><text fill="#000000" font-family="Courier New" font-size="10" lengthAdjust="spacing" textLength="99" x="1708.7" y="838.8582">Prompt: programas&gt;</text><text fill="#000000" font-family="Courier New" font-size="10" lengthAdjust="spacing" textLength="188" x="1708.7" y="852.4782">Comandos: list, add, edit, delete, show</text></g><g id="CONTEXTO_CURSOS"><rect fill="#E8F5E8" height="74.4799" rx="12.5" ry="12.5" style="stroke:#4CAF50;stroke-width:1.0;" width="215" x="827.2" y="986.4282"/><line style="stroke:#4CAF50;stroke-width:1.0;" x1="827.2" x2="1042.2" y1="1010.0482" y2="1010.0482"/><text fill="#000000" font-family="Courier New" font-size="10" lengthAdjust="spacing" textLength="95" x="887.2" y="1002.1182">CONTEXTO_CURSOS</text><text fill="#000000" font-family="Courier New" font-size="10" lengthAdjust="spacing" textLength="152" x="832.2" y="1025.7382">Subcomandos de cursos activos</text><text fill="#000000" font-family="Courier New" font-size="10" lengthAdjust="spacing" textLength="78" x="832.2" y="1039.3582">Prompt: cursos&gt;</text><text fill="#000000" font-family="Courier New" font-size="10" lengthAdjust="spacing" textLength="195" x="832.2" y="1052.9782">Comandos: list, add, edit, delete, search</text></g><g id="CONTEXTO_PROFESORES"><rect fill="#E8F5E8" height="74.4799" rx="12.5" ry="12.5" style="stroke:#4CAF50;stroke-width:1.0;" width="208" x="830.7" y="1186.9282"/><line style="stroke:#4CAF50;stroke-width:1.0;" x1="830.7" x2="1038.7" y1="1210.5482" y2="1210.5482"/><text fill="#000000" font-family="Courier New" font-size="10" lengthAdjust="spacing" textLength="119" x="875.2" y="1202.6182">CONTEXTO_PROFESORES</text><text fill="#000000" font-family="Courier New" font-size="10" lengthAdjust="spacing" textLength="172" x="835.7" y="1226.2382">Subcomandos de profesores activos</text><text fill="#000000" font-family="Courier New" font-size="10" lengthAdjust="spacing" textLength="98" x="835.7" y="1239.8582">Prompt: profesores&gt;</text><text fill="#000000" font-family="Courier New" font-size="10" lengthAdjust="spacing" textLength="188" x="835.7" y="1253.4782">Comandos: list, add, edit, delete, show</text></g><g id="CONTEXTO_EDIFICIOS"><rect fill="#E8F5E8" height="74.4799" rx="12.5" ry="12.5" style="stroke:#4CAF50;stroke-width:1.0;" width="181" x="378.2" y="785.9282"/><line style="stroke:#4CAF50;stroke-width:1.0;" x1="378.2" x2="559.2" y1="809.5482" y2="809.5482"/><text fill="#000000" font-family="Courier New" font-size="10" lengthAdjust="spacing" textLength="104" x="416.7" y="801.6182">CONTEXTO_EDIFICIOS</text><text fill="#000000" font-family="Courier New" font-size="10" lengthAdjust="spacing" textLength="161" x="383.2" y="825.2382">Subcomandos de edificios activos</text><text fill="#000000" font-family="Courier New" font-size="10" lengthAdjust="spacing" textLength="87" x="383.2" y="838.8582">Prompt: edificios&gt;</text><text fill="#000000" font-family="Courier New" font-size="10" lengthAdjust="spacing" textLength="146" x="383.2" y="852.4782">Comandos: list, add, edit, tree</text></g><g id="CONTEXTO_AULAS"><rect fill="#E8F5E8" height="74.4799" rx="12.5" ry="12.5" style="stroke:#4CAF50;stroke-width:1.0;" width="215" x="594.2" y="785.9282"/><line style="stroke:#4CAF50;stroke-width:1.0;" x1="594.2" x2="809.2" y1="809.5482" y2="809.5482"/><text fill="#000000" font-family="Courier New" font-size="10" lengthAdjust="spacing" textLength="87" x="658.2" y="801.6182">CONTEXTO_AULAS</text><text fill="#000000" font-family="Courier New" font-size="10" lengthAdjust="spacing" textLength="147" x="599.2" y="825.2382">Subcomandos de aulas activos</text><text fill="#000000" font-family="Courier New" font-size="10" lengthAdjust="spacing" textLength="73" x="599.2" y="838.8582">Prompt: aulas&gt;</text><text fill="#000000" font-family="Courier New" font-size="10" lengthAdjust="spacing" textLength="195" x="599.2" y="852.4782">Comandos: list, add, edit, show-recursos</text></g><g id="CONTEXTO_RECURSOS"><rect fill="#E8F5E8" height="74.4799" rx="12.5" ry="12.5" style="stroke:#4CAF50;stroke-width:1.0;" width="182" x="844.7" y="785.9282"/><line style="stroke:#4CAF50;stroke-width:1.0;" x1="844.7" x2="1026.7" y1="809.5482" y2="809.5482"/><text fill="#000000" font-family="Courier New" font-size="10" lengthAdjust="spacing" textLength="107" x="882.2" y="801.6182">CONTEXTO_RECURSOS</text><text fill="#000000" font-family="Courier New" font-size="10" lengthAdjust="spacing" textLength="162" x="849.7" y="825.2382">Subcomandos de recursos activos</text><text fill="#000000" font-family="Courier New" font-size="10" lengthAdjust="spacing" textLength="88" x="849.7" y="838.8582">Prompt: recursos&gt;</text><text fill="#000000" font-family="Courier New" font-size="10" lengthAdjust="spacing" textLength="162" x="849.7" y="852.4782">Comandos: list, add, edit, catalog</text></g><g id="CONTEXTO_ASIGNACION"><rect fill="#E8F5E8" height="74.4799" rx="12.5" ry="12.5" style="stroke:#4CAF50;stroke-width:1.0;" width="203" x="1062.2" y="785.9282"/><line style="stroke:#4CAF50;stroke-width:1.0;" x1="1062.2" x2="1265.2" y1="809.5482" y2="809.5482"/><text fill="#000000" font-family="Courier New" font-size="10" lengthAdjust="spacing" textLength="118" x="1104.7" y="801.6182">CONTEXTO_ASIGNACION</text><text fill="#000000" font-family="Courier New" font-size="10" lengthAdjust="spacing" textLength="173" x="1067.2" y="825.2382">Subcomandos de asignaci&#243;n activos</text><text fill="#000000" font-family="Courier New" font-size="10" lengthAdjust="spacing" textLength="99" x="1067.2" y="838.8582">Prompt: asignacion&gt;</text><text fill="#000000" font-family="Courier New" font-size="10" lengthAdjust="spacing" textLength="183" x="1067.2" y="852.4782">Comandos: list, assign, unassign, bulk</text></g><g id="PROCESO_GENERAR"><rect fill="#E8F5E8" height="74.4799" rx="12.5" ry="12.5" style="stroke:#4CAF50;stroke-width:1.0;" width="194" x="1300.7" y="785.9282"/><line style="stroke:#4CAF50;stroke-width:1.0;" x1="1300.7" x2="1494.7" y1="809.5482" y2="809.5482"/><text fill="#000000" font-family="Courier New" font-size="10" lengthAdjust="spacing" textLength="94" x="1350.7" y="801.6182">PROCESO_GENERAR</text><text fill="#000000" font-family="Courier New" font-size="10" lengthAdjust="spacing" textLength="174" x="1305.7" y="825.2382">Proceso de generaci&#243;n en ejecuci&#243;n</text><text fill="#000000" font-family="Courier New" font-size="10" lengthAdjust="spacing" textLength="114" x="1305.7" y="838.8582">Barra de progreso ASCII</text><text fill="#000000" font-family="Courier New" font-size="10" lengthAdjust="spacing" textLength="152" x="1305.7" y="852.4782">Log de progreso en tiempo real</text></g><g id="CONTEXTO_CONSULTA"><rect fill="#E8F5E8" height="74.4799" rx="12.5" ry="12.5" style="stroke:#4CAF50;stroke-width:1.0;" width="197" x="1947.2" y="785.9282"/><line style="stroke:#4CAF50;stroke-width:1.0;" x1="1947.2" x2="2144.2" y1="809.5482" y2="809.5482"/><text fill="#000000" font-family="Courier New" font-size="10" lengthAdjust="spacing" textLength="109" x="1991.2" y="801.6182">CONTEXTO_CONSULTA</text><text fill="#000000" font-family="Courier New" font-size="10" lengthAdjust="spacing" textLength="162" x="1952.2" y="825.2382">Subcomandos de consulta activos</text><text fill="#000000" font-family="Courier New" font-size="10" lengthAdjust="spacing" textLength="88" x="1952.2" y="838.8582">Prompt: consulta&gt;</text><text fill="#000000" font-family="Courier New" font-size="10" lengthAdjust="spacing" textLength="177" x="1952.2" y="852.4782">Comandos: show, export, print, stats</text></g><g id="elem_GMN45"><path d="M1827.2,938.9282 L1827.2,1108.2824 A0,0 0 0 0 1827.2,1108.2824 L2144.2,1108.2824 A0,0 0 0 0 2144.2,1108.2824 L2144.2,948.9282 L2134.2,938.9282 L2014.94,938.9282 L2034.69,860.3382 L2006.94,938.9282 L1827.2,938.9282 A0,0 0 0 0 1827.2,938.9282 " fill="#FFFFFF" style="stroke:#000000;stroke-width:1.0;"/><path d="M2134.2,938.9282 L2134.2,948.9282 L2144.2,948.9282 L2134.2,938.9282 " fill="#FFFFFF" style="stroke:#000000;stroke-width:1.0;"/><text fill="#000000" font-family="Verdana" font-size="13" font-weight="bold" lengthAdjust="spacing" textLength="199" x="1833.2" y="957.8252">Caracter&#237;sticas espec&#237;ficas CLI:</text><text fill="#000000" font-family="Verdana" font-size="13" lengthAdjust="spacing" textLength="3" x="1833.2" y="975.5312">&#160;</text><text fill="#000000" font-family="Verdana" font-size="13" lengthAdjust="spacing" textLength="5" x="1833.2" y="993.2372">&#8226;</text><text fill="#000000" font-family="Verdana" font-size="13" font-weight="bold" lengthAdjust="spacing" textLength="155" x="1841.2" y="993.2372">Comandos secuenciales</text><text fill="#000000" font-family="Verdana" font-size="13" lengthAdjust="spacing" textLength="128" x="1999.2" y="993.2372">sin persistencia visual</text><text fill="#000000" font-family="Verdana" font-size="13" lengthAdjust="spacing" textLength="5" x="1833.2" y="1010.9433">&#8226;</text><text fill="#000000" font-family="Verdana" font-size="13" font-weight="bold" lengthAdjust="spacing" textLength="217" x="1841.2" y="1010.9433">Estados = contextos de comandos</text><text fill="#000000" font-family="Verdana" font-size="13" lengthAdjust="spacing" textLength="68" x="2061.2" y="1010.9433">disponibles</text><text fill="#000000" font-family="Verdana" font-size="13" lengthAdjust="spacing" textLength="5" x="1833.2" y="1028.6493">&#8226;</text><text fill="#000000" font-family="Verdana" font-size="13" font-weight="bold" lengthAdjust="spacing" textLength="147" x="1841.2" y="1028.6493">Prompts diferenciados</text><text fill="#000000" font-family="Verdana" font-size="13" lengthAdjust="spacing" textLength="78" x="1991.2" y="1028.6493">por contexto</text><text fill="#000000" font-family="Verdana" font-size="13" lengthAdjust="spacing" textLength="5" x="1833.2" y="1046.3553">&#8226;</text><text fill="#000000" font-family="Verdana" font-size="13" font-weight="bold" lengthAdjust="spacing" textLength="102" x="1841.2" y="1046.3553">Tab completion</text><text fill="#000000" font-family="Verdana" font-size="13" lengthAdjust="spacing" textLength="103" x="1946.2" y="1046.3553">y help contextual</text><text fill="#000000" font-family="Verdana" font-size="13" lengthAdjust="spacing" textLength="5" x="1833.2" y="1064.0613">&#8226;</text><text fill="#000000" font-family="Verdana" font-size="13" font-weight="bold" lengthAdjust="spacing" textLength="122" x="1841.2" y="1064.0613">Pipes y redirecci&#243;n</text><text fill="#000000" font-family="Verdana" font-size="13" lengthAdjust="spacing" textLength="123" x="1966.2" y="1064.0613">para automatizaci&#243;n</text><text fill="#000000" font-family="Verdana" font-size="13" lengthAdjust="spacing" textLength="5" x="1833.2" y="1081.7673">&#8226;</text><text fill="#000000" font-family="Verdana" font-size="13" font-weight="bold" lengthAdjust="spacing" textLength="160" x="1841.2" y="1081.7673">Barras de progreso ASCII</text><text fill="#000000" font-family="Verdana" font-size="13" lengthAdjust="spacing" textLength="124" x="2004.2" y="1081.7673">para procesos largos</text><text fill="#000000" font-family="Verdana" font-size="13" lengthAdjust="spacing" textLength="5" x="1833.2" y="1099.4733">&#8226;</text><text fill="#000000" font-family="Verdana" font-size="13" font-weight="bold" lengthAdjust="spacing" textLength="125" x="1841.2" y="1099.4733">Logs estructurados</text><text fill="#000000" font-family="Verdana" font-size="13" lengthAdjust="spacing" textLength="96" x="1969.2" y="1099.4733">para debugging</text></g><!--link *start* to TERMINAL_IDLE--><g id="link_*start*_TERMINAL_IDLE"><path d="M1117.7,112.1082 C1117.7,125.7782 1117.7,146.0682 1117.7,166.7782 " fill="none" id="*start*-to-TERMINAL_IDLE" style="stroke:#000000;stroke-width:1.0;"/><polygon fill="#000000" points="1117.7,172.7782,1121.7,163.7782,1117.7,167.7782,1113.7,163.7782,1117.7,172.7782" style="stroke:#000000;stroke-width:1.0;"/></g><!--link TERMINAL_IDLE to SHELL_SIGHOR--><g id="link_TERMINAL_IDLE_SHELL_SIGHOR"><path d="M1064.09,233.9882 C1053.85,242.2582 1044.52,252.2482 1038.7,263.9282 C1029.7,281.9582 1035.3093,294.8778 1050.9393,308.7978 " fill="none" id="TERMINAL_IDLE-to-SHELL_SIGHOR" style="stroke:#000000;stroke-width:1.0;"/><polygon fill="#000000" points="1055.42,312.7882,1051.3593,303.8154,1051.6861,309.4628,1046.0387,309.7896,1055.42,312.7882" style="stroke:#000000;stroke-width:1.0;"/><text fill="#000000" font-family="Verdana" font-size="13" lengthAdjust="spacing" textLength="110" x="1039.7" y="278.8252">ejecutar_sighor_cli</text></g><!--link SHELL_SIGHOR to TERMINAL_IDLE--><g id="link_SHELL_SIGHOR_TERMINAL_IDLE"><path d="M1145.51,312.8882 C1153.74,298.0582 1159.42,280.4882 1154.7,263.9282 C1151.72,253.5182 1149.5475,248.2289 1143.7975,239.1389 " fill="none" id="SHELL_SIGHOR-to-TERMINAL_IDLE" style="stroke:#000000;stroke-width:1.0;"/><polygon fill="#000000" points="1140.59,234.0682,1142.0208,243.8126,1143.2629,238.2938,1148.7817,239.5359,1140.59,234.0682" style="stroke:#000000;stroke-width:1.0;"/><text fill="#000000" font-family="Verdana" font-size="13" lengthAdjust="spacing" textLength="22" x="1157.7" y="278.8252">exit</text></g><!--link SHELL_SIGHOR to PROMPT_LOGIN--><g id="link_SHELL_SIGHOR_PROMPT_LOGIN"><path d="M1080.33,387.0982 C1055.72,410.9182 1027.9404,437.8044 1003.3404,461.6244 " fill="none" id="SHELL_SIGHOR-to-PROMPT_LOGIN" style="stroke:#000000;stroke-width:1.0;"/><polygon fill="#000000" points="999.03,465.7982,1008.2781,462.4112,1002.622,462.3201,1002.7131,456.664,999.03,465.7982" style="stroke:#000000;stroke-width:1.0;"/><text fill="#000000" font-family="Verdana" font-size="13" lengthAdjust="spacing" textLength="93" x="1050.7" y="431.8252">comando_login</text></g><!--link PROMPT_LOGIN to PROMPT_LOGIN--><g id="link_PROMPT_LOGIN_PROMPT_LOGIN"><path d="M1036.42,488.8082 C1056.21,489.6082 1071.2,494.3182 1071.2,502.9282 C1071.2,511.5382 1062.2051,516.0059 1042.4151,516.8059 " fill="none" id="PROMPT_LOGIN-to-PROMPT_LOGIN" style="stroke:#000000;stroke-width:1.0;"/><polygon fill="#000000" points="1036.42,517.0482,1045.5742,520.6814,1041.4159,516.8462,1045.2511,512.6879,1036.42,517.0482" style="stroke:#000000;stroke-width:1.0;"/><text fill="#000000" font-family="Verdana" font-size="13" lengthAdjust="spacing" textLength="136" x="1077.2" y="508.3252">[credenciales inv&#225;lidas]</text></g><!--link PROMPT_LOGIN to SHELL_AUTENTICADO--><g id="link_PROMPT_LOGIN_SHELL_AUTENTICADO"><path d="M997.48,540.1782 C1020.6,563.5882 1046.5834,589.9097 1070.9334,614.5597 " fill="none" id="PROMPT_LOGIN-to-SHELL_AUTENTICADO" style="stroke:#000000;stroke-width:1.0;"/><polygon fill="#000000" points="1075.15,618.8282,1071.6708,609.6143,1071.6362,615.2711,1065.9794,615.2365,1075.15,618.8282" style="stroke:#000000;stroke-width:1.0;"/><text fill="#000000" font-family="Verdana" font-size="13" lengthAdjust="spacing" textLength="125" x="1045.7" y="584.8252">[credenciales v&#225;lidas]</text></g><!--link SHELL_AUTENTICADO to CONTEXTO_PROGRAMAS--><g id="link_SHELL_AUTENTICADO_CONTEXTO_PROGRAMAS"><path d="M1191.34,664.8282 C1297.72,668.1082 1499.34,681.8482 1660.7,736.9282 C1665.53,738.5782 1702.9856,760.2809 1741.0956,782.6509 " fill="none" id="SHELL_AUTENTICADO-to-CONTEXTO_PROGRAMAS" style="stroke:#000000;stroke-width:1.0;"/><polygon fill="#000000" points="1746.27,785.6882,1740.5332,777.6826,1741.958,783.1571,1736.4835,784.5819,1746.27,785.6882" style="stroke:#000000;stroke-width:1.0;"/><text fill="#000000" font-family="Verdana" font-size="13" lengthAdjust="spacing" textLength="129" x="1693.7" y="751.8252">comando_programas</text></g><!--link CONTEXTO_PROGRAMAS to SHELL_AUTENTICADO--><g id="link_CONTEXTO_PROGRAMAS_SHELL_AUTENTICADO"><path d="M1831.87,785.7382 C1839.74,769.1382 1843.72,750.2482 1831.7,736.9282 C1789.32,689.9982 1371.1769,671.7814 1197.3769,666.1814 " fill="none" id="CONTEXTO_PROGRAMAS-to-SHELL_AUTENTICADO" style="stroke:#000000;stroke-width:1.0;"/><polygon fill="#000000" points="1191.38,665.9882,1200.2465,670.276,1196.3774,666.1492,1200.5041,662.2801,1191.38,665.9882" style="stroke:#000000;stroke-width:1.0;"/><text fill="#000000" font-family="Verdana" font-size="13" lengthAdjust="spacing" textLength="22" x="1839.7" y="751.8252">exit</text></g><!--link CONTEXTO_PROGRAMAS to SHELL_AUTENTICADO--><g id="link_CONTEXTO_PROGRAMAS_SHELL_AUTENTICADO"><path d="M1703.53,790.4582 C1674.61,780.5582 1643.53,768.8082 1615.7,755.9282 C1600.68,748.9782 1599.26,742.5282 1583.7,736.9282 C1450.6,689.0082 1290.9191,672.8795 1197.2491,667.2295 " fill="none" id="CONTEXTO_PROGRAMAS-to-SHELL_AUTENTICADO-1" style="stroke:#000000;stroke-width:1.0;"/><polygon fill="#000000" points="1191.26,666.8682,1200.0028,671.4028,1196.2509,667.1692,1200.4845,663.4173,1191.26,666.8682" style="stroke:#000000;stroke-width:1.0;"/><text fill="#000000" font-family="Verdana" font-size="13" lengthAdjust="spacing" textLength="35" x="1616.7" y="751.8252">home</text></g><!--link SHELL_AUTENTICADO to CONTEXTO_CURSOS--><g id="link_SHELL_AUTENTICADO_CONTEXTO_CURSOS"><path d="M1191.37,666.2982 C1296.45,671.4082 1481.29,687.3882 1522.7,736.9282 C1542.8,760.9782 1609.1,744.6082 1512.7,859.9282 C1452.65,931.7582 1198.2243,981.838 1048.2243,1005.898 " fill="none" id="SHELL_AUTENTICADO-to-CONTEXTO_CURSOS" style="stroke:#000000;stroke-width:1.0;"/><polygon fill="#000000" points="1042.3,1006.8482,1051.8199,1009.3723,1047.2369,1006.0563,1050.5529,1001.4733,1042.3,1006.8482" style="stroke:#000000;stroke-width:1.0;"/><text fill="#000000" font-family="Verdana" font-size="13" lengthAdjust="spacing" textLength="102" x="1561.7" y="828.3252">comando_cursos</text></g><!--link CONTEXTO_CURSOS to SHELL_AUTENTICADO--><g id="link_CONTEXTO_CURSOS_SHELL_AUTENTICADO"><path d="M826.95,1012.7982 C665.77,996.8982 371.06,961.5882 279.7,908.9282 C229.77,880.1582 219.02,840.0882 238.7,785.9282 C248.39,759.2382 254.51,750.0482 279.7,736.9282 C411.71,668.1182 858.94,662.5878 1038.04,663.1978 " fill="none" id="CONTEXTO_CURSOS-to-SHELL_AUTENTICADO" style="stroke:#000000;stroke-width:1.0;"/><polygon fill="#000000" points="1044.04,663.2182,1035.0537,659.1876,1039.04,663.2012,1035.0264,667.1875,1044.04,663.2182" style="stroke:#000000;stroke-width:1.0;"/><text fill="#000000" font-family="Verdana" font-size="13" lengthAdjust="spacing" textLength="22" x="239.7" y="828.3252">exit</text></g><!--link CONTEXTO_CURSOS to SHELL_AUTENTICADO--><g id="link_CONTEXTO_CURSOS_SHELL_AUTENTICADO"><path d="M827.09,1022.2182 C626.55,1017.2282 224.53,983.0582 323.7,785.9282 C340.11,753.2882 355.62,750.1182 389.7,736.9282 C507.78,691.2182 877.5043,672.6551 1037.9343,666.5851 " fill="none" id="CONTEXTO_CURSOS-to-SHELL_AUTENTICADO-1" style="stroke:#000000;stroke-width:1.0;"/><polygon fill="#000000" points="1043.93,666.3582,1034.7852,662.7013,1038.9336,666.5472,1035.0877,670.6956,1043.93,666.3582" style="stroke:#000000;stroke-width:1.0;"/><text fill="#000000" font-family="Verdana" font-size="13" lengthAdjust="spacing" textLength="35" x="324.7" y="828.3252">home</text></g><!--link SHELL_AUTENTICADO to CONTEXTO_PROFESORES--><g id="link_SHELL_AUTENTICADO_CONTEXTO_PROFESORES"><path d="M1044,666.8782 C846.7,675.2182 316.71,700.7482 246.7,736.9282 C167.68,777.7582 148.22,806.3882 117.7,889.9282 C11,1181.9882 581.2506,1220.166 824.4206,1223.496 " fill="none" id="SHELL_AUTENTICADO-to-CONTEXTO_PROFESORES" style="stroke:#000000;stroke-width:1.0;"/><polygon fill="#000000" points="830.42,1223.5782,821.4756,1219.4553,825.4205,1223.5097,821.3661,1227.4546,830.42,1223.5782" style="stroke:#000000;stroke-width:1.0;"/><text fill="#000000" font-family="Verdana" font-size="13" lengthAdjust="spacing" textLength="127" x="118.7" y="904.8252">comando_profesores</text></g><!--link CONTEXTO_PROFESORES to SHELL_AUTENTICADO--><g id="link_CONTEXTO_PROFESORES_SHELL_AUTENTICADO"><path d="M1038.75,1221.0182 C1321.3,1214.7682 2086.67,1190.3082 2161.7,1107.9282 C2274.79,983.7382 2248.25,792.3482 2089.7,736.9282 C1923.96,678.9982 1394.3095,667.0931 1197.2895,664.6331 " fill="none" id="CONTEXTO_PROFESORES-to-SHELL_AUTENTICADO" style="stroke:#000000;stroke-width:1.0;"/><polygon fill="#000000" points="1191.29,664.5582,1200.2394,668.6703,1196.2896,664.6206,1200.3392,660.6709,1191.29,664.5582" style="stroke:#000000;stroke-width:1.0;"/><text fill="#000000" font-family="Verdana" font-size="13" lengthAdjust="spacing" textLength="22" x="2229.7" y="904.8252">exit</text></g><!--link SHELL_AUTENTICADO to CONTEXTO_EDIFICIOS--><g id="link_SHELL_AUTENTICADO_CONTEXTO_EDIFICIOS"><path d="M1044.01,665.9882 C870.21,671.5882 446.08,689.9982 403.7,736.9282 C389.88,752.2282 395.9234,766.1017 412.1234,781.5917 " fill="none" id="SHELL_AUTENTICADO-to-CONTEXTO_EDIFICIOS" style="stroke:#000000;stroke-width:1.0;"/><polygon fill="#000000" points="416.46,785.7382,412.7195,776.6273,412.8462,782.2827,407.1907,782.4095,416.46,785.7382" style="stroke:#000000;stroke-width:1.0;"/><text fill="#000000" font-family="Verdana" font-size="13" lengthAdjust="spacing" textLength="111" x="404.7" y="751.8252">comando_edificios</text></g><!--link CONTEXTO_EDIFICIOS to SHELL_AUTENTICADO--><g id="link_CONTEXTO_EDIFICIOS_SHELL_AUTENTICADO"><path d="M506.79,785.8082 C527.62,768.1682 554.82,748.3282 582.7,736.9282 C664.75,703.3782 911.5793,680.0386 1038.0593,669.8786 " fill="none" id="CONTEXTO_EDIFICIOS-to-SHELL_AUTENTICADO" style="stroke:#000000;stroke-width:1.0;"/><polygon fill="#000000" points="1044.04,669.3982,1034.7486,666.1317,1039.0561,669.7986,1035.3892,674.106,1044.04,669.3982" style="stroke:#000000;stroke-width:1.0;"/><text fill="#000000" font-family="Verdana" font-size="13" lengthAdjust="spacing" textLength="22" x="583.7" y="751.8252">exit</text></g><!--link SHELL_AUTENTICADO to CONTEXTO_AULAS--><g id="link_SHELL_AUTENTICADO_CONTEXTO_AULAS"><path d="M1043.96,663.4982 C919.14,664.5182 674.5,674.6482 620.7,736.9282 C606.44,753.4382 613.5631,767.2422 632.1431,782.0922 " fill="none" id="SHELL_AUTENTICADO-to-CONTEXTO_AULAS" style="stroke:#000000;stroke-width:1.0;"/><polygon fill="#000000" points="636.83,785.8382,632.2969,777.0946,632.9242,782.7165,627.3023,783.3438,636.83,785.8382" style="stroke:#000000;stroke-width:1.0;"/><text fill="#000000" font-family="Verdana" font-size="13" lengthAdjust="spacing" textLength="94" x="621.7" y="751.8252">comando_aulas</text></g><!--link CONTEXTO_AULAS to SHELL_AUTENTICADO--><g id="link_CONTEXTO_AULAS_SHELL_AUTENTICADO"><path d="M727.93,785.5982 C742.24,768.3382 761.37,748.9082 782.7,736.9282 C864.68,690.8482 967.1032,674.3654 1038.0732,668.1054 " fill="none" id="CONTEXTO_AULAS-to-SHELL_AUTENTICADO" style="stroke:#000000;stroke-width:1.0;"/><polygon fill="#000000" points="1044.05,667.5782,1034.7333,664.3845,1039.0693,668.0175,1035.4363,672.3535,1044.05,667.5782" style="stroke:#000000;stroke-width:1.0;"/><text fill="#000000" font-family="Verdana" font-size="13" lengthAdjust="spacing" textLength="22" x="783.7" y="751.8252">exit</text></g><!--link SHELL_AUTENTICADO to CONTEXTO_RECURSOS--><g id="link_SHELL_AUTENTICADO_CONTEXTO_RECURSOS"><path d="M1044.17,671.6982 C965.4,681.7282 847.97,702.1382 820.7,736.9282 C804.92,757.0482 815.2513,771.7527 839.4613,785.7027 " fill="none" id="SHELL_AUTENTICADO-to-CONTEXTO_RECURSOS" style="stroke:#000000;stroke-width:1.0;"/><polygon fill="#000000" points="844.66,788.6982,838.8589,780.7391,840.3277,786.2019,834.8649,787.6707,844.66,788.6982" style="stroke:#000000;stroke-width:1.0;"/><text fill="#000000" font-family="Verdana" font-size="13" lengthAdjust="spacing" textLength="114" x="821.7" y="751.8252">comando_recursos</text></g><!--link CONTEXTO_RECURSOS to SHELL_AUTENTICADO--><g id="link_CONTEXTO_RECURSOS_SHELL_AUTENTICADO"><path d="M960.95,785.8382 C973.12,769.8382 988.57,751.3982 1004.7,736.9282 C1016.69,726.1682 1025.4607,719.2607 1039.1307,710.0107 " fill="none" id="CONTEXTO_RECURSOS-to-SHELL_AUTENTICADO" style="stroke:#000000;stroke-width:1.0;"/><polygon fill="#000000" points="1044.1,706.6482,1034.4044,708.3791,1039.959,709.4503,1038.8878,715.0048,1044.1,706.6482" style="stroke:#000000;stroke-width:1.0;"/><text fill="#000000" font-family="Verdana" font-size="13" lengthAdjust="spacing" textLength="22" x="1005.7" y="751.8252">exit</text></g><!--link SHELL_AUTENTICADO to CONTEXTO_ASIGNACION--><g id="link_SHELL_AUTENTICADO_CONTEXTO_ASIGNACION"><path d="M1052.58,707.1782 C1038.52,721.8982 1030.54,738.9482 1040.7,755.9282 C1047.79,767.7782 1052.9522,774.1204 1064.2622,782.2704 " fill="none" id="SHELL_AUTENTICADO-to-CONTEXTO_ASIGNACION" style="stroke:#000000;stroke-width:1.0;"/><polygon fill="#000000" points="1069.13,785.7782,1064.1668,777.2714,1065.0735,782.8551,1059.4898,783.7618,1069.13,785.7782" style="stroke:#000000;stroke-width:1.0;"/><text fill="#000000" font-family="Verdana" font-size="13" lengthAdjust="spacing" textLength="107" x="1041.7" y="751.8252">comando_asignar</text></g><!--link CONTEXTO_ASIGNACION to SHELL_AUTENTICADO--><g id="link_CONTEXTO_ASIGNACION_SHELL_AUTENTICADO"><path d="M1162.17,785.8182 C1160.83,770.4982 1158.33,752.5982 1153.7,736.9282 C1150.73,726.8982 1149.04,721.9899 1144.48,712.3699 " fill="none" id="CONTEXTO_ASIGNACION-to-SHELL_AUTENTICADO" style="stroke:#000000;stroke-width:1.0;"/><polygon fill="#000000" points="1141.91,706.9482,1142.1505,716.7941,1144.0516,711.4663,1149.3794,713.3675,1141.91,706.9482" style="stroke:#000000;stroke-width:1.0;"/><text fill="#000000" font-family="Verdana" font-size="13" lengthAdjust="spacing" textLength="22" x="1159.7" y="751.8252">exit</text></g><!--link SHELL_AUTENTICADO to PROCESO_GENERAR--><g id="link_SHELL_AUTENTICADO_PROCESO_GENERAR"><path d="M1176.93,707.1082 C1200.3,723.3182 1227.73,741.3282 1253.7,755.9282 C1272.39,766.4382 1287.6178,774.1518 1307.3278,783.3018 " fill="none" id="SHELL_AUTENTICADO-to-PROCESO_GENERAR" style="stroke:#000000;stroke-width:1.0;"/><polygon fill="#000000" points="1312.77,785.8282,1306.291,778.4105,1308.2349,783.7228,1302.9225,785.6667,1312.77,785.8282" style="stroke:#000000;stroke-width:1.0;"/><text fill="#000000" font-family="Verdana" font-size="13" lengthAdjust="spacing" textLength="110" x="1254.7" y="751.8252">comando_generar</text></g><!--link PROCESO_GENERAR to SHELL_AUTENTICADO--><g id="link_PROCESO_GENERAR_SHELL_AUTENTICADO"><path d="M1393.56,785.5482 C1389.87,768.7082 1382.89,749.6582 1369.7,736.9282 C1321.99,690.9182 1253.0715,674.3071 1197.3115,667.9571 " fill="none" id="PROCESO_GENERAR-to-SHELL_AUTENTICADO" style="stroke:#000000;stroke-width:1.0;"/><polygon fill="#000000" points="1191.35,667.2782,1199.8396,672.2709,1196.3179,667.844,1200.7448,664.3222,1191.35,667.2782" style="stroke:#000000;stroke-width:1.0;"/><text fill="#000000" font-family="Verdana" font-size="13" lengthAdjust="spacing" textLength="131" x="1382.7" y="751.8252">[proceso completado]</text></g><!--link SHELL_AUTENTICADO to CONTEXTO_CONSULTA--><g id="link_SHELL_AUTENTICADO_CONTEXTO_CONSULTA"><path d="M1191.27,667.7382 C1354.82,676.7382 1744.11,701.2982 1870.7,736.9282 C1910.52,748.1382 1947.0353,765.2285 1979.7753,782.9785 " fill="none" id="SHELL_AUTENTICADO-to-CONTEXTO_CONSULTA" style="stroke:#000000;stroke-width:1.0;"/><polygon fill="#000000" points="1985.05,785.8382,1979.0444,778.0322,1980.6544,783.4551,1975.2315,785.0652,1985.05,785.8382" style="stroke:#000000;stroke-width:1.0;"/><text fill="#000000" font-family="Verdana" font-size="13" lengthAdjust="spacing" textLength="119" x="1921.7" y="751.8252">comando_consultar</text></g><!--link CONTEXTO_CONSULTA to SHELL_AUTENTICADO--><g id="link_CONTEXTO_CONSULTA_SHELL_AUTENTICADO"><path d="M2058.25,785.6182 C2061.61,768.7882 2061.53,749.7282 2049.7,736.9282 C1991.84,674.3682 1407.7499,665.3636 1197.5499,664.1236 " fill="none" id="CONTEXTO_CONSULTA-to-SHELL_AUTENTICADO" style="stroke:#000000;stroke-width:1.0;"/><polygon fill="#000000" points="1191.55,664.0882,1200.5262,668.1412,1196.5499,664.1177,1200.5734,660.1414,1191.55,664.0882" style="stroke:#000000;stroke-width:1.0;"/><text fill="#000000" font-family="Verdana" font-size="13" lengthAdjust="spacing" textLength="22" x="2058.7" y="751.8252">exit</text></g><!--link CONTEXTO_PROGRAMAS to CONTEXTO_CURSOS--><g id="link_CONTEXTO_PROGRAMAS_CONTEXTO_CURSOS"><path d="M1727.1,859.9882 C1686.8,876.8582 1636.87,896.0282 1590.7,908.9282 C1401.17,961.8582 1179.546,993.8627 1048.356,1009.8427 " fill="none" id="CONTEXTO_PROGRAMAS-to-CONTEXTO_CURSOS" style="stroke:#000000;stroke-width:1.0;"/><polygon fill="#000000" points="1042.4,1010.5682,1051.8176,1013.4506,1047.3633,1009.9636,1050.8503,1005.5093,1042.4,1010.5682" style="stroke:#000000;stroke-width:1.0;"/><text fill="#000000" font-family="Verdana" font-size="13" lengthAdjust="spacing" textLength="102" x="1645.7" y="904.8252">comando_cursos</text></g><!--link CONTEXTO_CURSOS to CONTEXTO_PROFESORES--><g id="link_CONTEXTO_CURSOS_CONTEXTO_PROFESORES"><path d="M934.7,1060.8382 C934.7,1096.6482 934.7,1145.0182 934.7,1180.7482 " fill="none" id="CONTEXTO_CURSOS-to-CONTEXTO_PROFESORES" style="stroke:#000000;stroke-width:1.0;"/><polygon fill="#000000" points="934.7,1186.7482,938.7,1177.7482,934.7,1181.7482,930.7,1177.7482,934.7,1186.7482" style="stroke:#000000;stroke-width:1.0;"/><text fill="#000000" font-family="Verdana" font-size="13" lengthAdjust="spacing" textLength="127" x="935.7" y="1152.8252">comando_profesores</text></g><!--link SHELL_AUTENTICADO to SHELL_SIGHOR--><g id="link_SHELL_AUTENTICADO_SHELL_SIGHOR"><path d="M1166.74,618.8882 C1187.37,597.4882 1209.04,569.8382 1219.7,539.9282 C1230.73,508.9482 1231.37,496.6782 1219.7,465.9282 C1208.05,435.2382 1188.406,411.6038 1166.616,391.0638 " fill="none" id="SHELL_AUTENTICADO-to-SHELL_SIGHOR" style="stroke:#000000;stroke-width:1.0;"/><polygon fill="#000000" points="1162.25,386.9482,1166.0553,396.0322,1165.8884,390.3778,1171.5427,390.2109,1162.25,386.9482" style="stroke:#000000;stroke-width:1.0;"/><text fill="#000000" font-family="Verdana" font-size="13" lengthAdjust="spacing" textLength="40" x="1229.7" y="508.3252">logout</text></g><!--SRC=[dLZTQkGs6BttKwZRYy2Gq2rqOGdKu3XEOfYT2UC95D8mQ6nbHeqjkPASPBSK-Yhj_Lxr4V8cVP9-aYt_EvaMSf5upf7FztT6NxvHUv8HbAUOCaS-K9PZWJCa5LO4_UOWT8RZXvtW1KjyddA1lWq-Ndm8FkfFk4Y8g9x-u7iN7zx3qmlEr0B3aUzyNWXA15gGftVL1n7zGj3txvtV7KTHbH9qJl4EteTHGf0F0FAiEFBduS_CIpBAg5G29t0-V7p51HQKItI2mYnFGJLJEAOlVpEaDGCzop1Bq9moWa8uIjpZc3ZExUmEdPouQ1siFeKBRxu9p-U1uvGHTXwQUBjFJb6q9scA96K8vocDgpVYMD57F0A_5ZpB5UZL7Aa8XFP89TscH0VTHMjLqLKmds-YyF9gkG8w-ON4XS9Y8-bkpyKcJgcLsa5gfJsgrv876KIGlPZY10-HPvWnOdAwfOGz4aOJZ39Uvde8BqCwHQKaLyVHGUWmhbVBJzVhpNnv6Iw04dDT2hv9-GxQgWgWWz41z4WHXm2eqaGK2v8G1lfJ8eV8aEM5pZ4gPA5xuhiSI_a4xJY4Ml56YT7U0Onelss_6xBu-F9d2WcITqDccGRlPXqirg7ldIy7z8RSgMARqfIoUr14fAab0IAqJqnRfUmYkmMwhP9ovqx0hqYQeuJAd3FTbr0iXewWo_EZ2S8QRtL5OUOK1UmURsaATO9UgLkXJT2PyPUBTV3JUhc1d5skl4zUrEgAN70pzF8jid-pYfPjPbm8oUK1xxm8ekKgwBtqdaWko9lqu3oy2FsmysAIq7jephVVxTtCEx7Y8dqxpbKmY5IGmsBrO0WN7gXjZns6Jc1OJ70XFJwaPtCPB8ALjshnTWHyOPBNb6MvY6xcQwzT6CvaaO9nsJuVQG3TwADz4HNRwXofXxfkZz9bkPpYsRwl2UuKqg-E1ny0Kpv6E4cE4TGKVWMd9eeS8xddJxgVU_AhmdIqryNg2IyhDgQwPbZ99TGTnHmYbc0HxqVajbg_d-vc98RvhYPZ8k4DivNnYk9EOlz_pfi1xCJGdijU2FLuZaNGvja0Qe8xXNn5lXA4ZCWkHxyZsRf1JwunXJ6f5czb6g0xXdX5dixgIUqVGvsrstIajZoefzOUDIQunRAQBToTmBsYFCOAmnVrM6uRc-ick6r__ImR5spTrtgvRbFhX5SSpjn9x200gKd7g63sjssHFZH1zFssklhqF1WKn31IMdXfmwLmmiexeVbhb7Y6XS2rR-eZlCWFmr7idEywI3XTKPBb7Ag6qp7xirRVDS3c2w1lWTNtmAW9DgpQ1YkuEu5hKgsR6jhaEUS2KfuBodIdWrZJuKTeHHGNZ2CCzsvpOyU5WWK1RiHmJHdvJfYwlf5dgfo-9ny6RhdVOOJ6RWx3bxD_6BOUk0EFRXhyLKA_fIPlmNdLpjMz4Qfmvmmh_EgxeAe-phOKPeA2gIZThc2zkcdCdYYdwlhc_N6ilWVV7hKis_6xb6_DFJyXqbm0SFfheNTUg_6_jDwUP-JWrZFWYOjQRty3H-M56kvi_TMrJ3hZCFzRhXJFO2XdCnzswnYMwPUlKa-JX7qa9_7Brtlp1ooQfxCP0E7ddp_-qdYR6mckPVUWsSniq3aHPYdMJ_LQ3EcgUO7KJIBHZqrzIqCfZuCJcfL5rgpII019xuamvvPOi8cc1XRStMC0zHdfjSS2ssgkQGvL_GosQ7hFkAy-Ll-Z0Pm5H2dw1LjJBZd6YENGYIsl6Wc9KYnsl8a1J5bdLOaYLeMm0M1ZwjjY1tlhpY4iGReophy0]--></g></svg>