<?xml version="1.0" encoding="us-ascii" standalone="no"?><svg xmlns="http://www.w3.org/2000/svg" xmlns:xlink="http://www.w3.org/1999/xlink" contentStyleType="text/css" height="665px" preserveAspectRatio="none" style="width:658px;height:665px;background:#FFFFFF;" version="1.1" viewBox="0 0 658 665" width="658px" zoomAndPan="magnify"><defs/><g><path d="M110,7 L424,7 A12.5,12.5 0 0 1 436.5,19.5 L436.5,36.0679 L97.5,36.0679 L97.5,19.5 A12.5,12.5 0 0 1 110,7 " fill="#F1F1F1" style="stroke:#F1F1F1;stroke-width:1.0;"/><rect fill="none" height="505.0679" rx="12.5" ry="12.5" style="stroke:#181818;stroke-width:0.5;" width="339" x="97.5" y="7"/><line style="stroke:#181818;stroke-width:0.5;" x1="97.5" x2="436.5" y1="36.0679" y2="36.0679"/><text fill="#000000" font-family="sans-serif" font-size="14" lengthAdjust="spacing" textLength="112" x="211" y="26.9659">abrirProfesores()</text><g id="abrirProfesores.MostrandoLista"><rect fill="#F1F1F1" height="50" rx="12.5" ry="12.5" style="stroke:#181818;stroke-width:0.5;" width="50" x="109.5" y="140.0679"/><line style="stroke:#181818;stroke-width:0.5;" x1="109.5" x2="159.5" y1="169.1358" y2="169.1358"/><text fill="#000000" font-family="sans-serif" font-size="14" lengthAdjust="spacing" textLength="4" x="132.5" y="160.0339">&#160;</text></g><g id="abrirProfesores.FiltrandoLista"><rect fill="#F1F1F1" height="50" rx="12.5" ry="12.5" style="stroke:#181818;stroke-width:0.5;" width="50" x="109.5" y="354.5679"/><line style="stroke:#181818;stroke-width:0.5;" x1="109.5" x2="159.5" y1="383.6358" y2="383.6358"/><text fill="#000000" font-family="sans-serif" font-size="14" lengthAdjust="spacing" textLength="4" x="132.5" y="374.5339">&#160;</text></g><ellipse cx="134.5" cy="57.0679" fill="#222222" rx="10" ry="10" style="stroke:#222222;stroke-width:1.0;"/><ellipse cx="134.5" cy="491.0679" fill="none" rx="11" ry="11" style="stroke:#222222;stroke-width:1.0;"/><ellipse cx="134.5" cy="491.0679" fill="#222222" rx="6" ry="6" style="stroke:#222222;stroke-width:1.0;"/><!--link *start*abrirProfesores to MostrandoLista--><g id="link_*start*abrirProfesores_MostrandoLista"><path d="M134.5,67.1079 C134.5,83.0279 134.5,110.5779 134.5,133.7079 " fill="none" id="*start*abrirProfesores-to-MostrandoLista" style="stroke:#008000;stroke-width:1.0;"/><polygon fill="#008000" points="134.5,139.7079,138.5,130.7079,134.5,134.7079,130.5,130.7079,134.5,139.7079" style="stroke:#008000;stroke-width:1.0;"/><path d="M139.5,90.0679 L139.5,117.0679 L397.5,117.0679 L397.5,100.0679 L387.5,90.0679 L139.5,90.0679 " fill="#FEFFDD" style="stroke:#181818;stroke-width:0.5;"/><path d="M387.5,90.0679 L387.5,100.0679 L397.5,100.0679 L387.5,90.0679 " fill="#FEFFDD" style="stroke:#181818;stroke-width:0.5;"/><text fill="#000000" font-family="sans-serif" font-size="13" font-weight="bold" lengthAdjust="spacing" textLength="95" x="145.5" y="108.9649">Administrador</text><text fill="#000000" font-family="sans-serif" font-size="13" lengthAdjust="spacing" textLength="139" x="243.5" y="108.9649">solicita abrir profesores</text></g><!--link MostrandoLista to FiltrandoLista--><g id="link_MostrandoLista_FiltrandoLista"><path d="M134.5,190.4479 C134.5,231.4379 134.5,307.6779 134.5,348.4779 " fill="none" id="MostrandoLista-to-FiltrandoLista" style="stroke:#008000;stroke-width:1.0;"/><polygon fill="#008000" points="134.5,354.4779,138.5,345.4779,134.5,349.4779,130.5,345.4779,134.5,354.4779" style="stroke:#008000;stroke-width:1.0;"/><path d="M139.5,213.0679 L139.5,329.0679 L427.5,329.0679 L427.5,223.0679 L417.5,213.0679 L139.5,213.0679 " fill="#FEFFDD" style="stroke:#181818;stroke-width:0.5;"/><path d="M417.5,213.0679 L417.5,223.0679 L427.5,223.0679 L417.5,213.0679 " fill="#FEFFDD" style="stroke:#181818;stroke-width:0.5;"/><text fill="#000000" font-family="sans-serif" font-size="13" font-weight="bold" lengthAdjust="spacing" textLength="52" x="145.5" y="231.9649">Sistema</text><text fill="#000000" font-family="sans-serif" font-size="13" lengthAdjust="spacing" textLength="165" x="200.5" y="231.9649">presenta lista de profesores</text><text fill="#000000" font-family="sans-serif" font-size="13" lengthAdjust="spacing" textLength="267" x="145.5" y="249.6709">&#8226; C&#243;digo, nombre, apellidos de cada profesor</text><text fill="#000000" font-family="sans-serif" font-size="13" lengthAdjust="spacing" textLength="166" x="145.5" y="267.377">&#8226; Permite solicitar filtrar lista</text><text fill="#000000" font-family="sans-serif" font-size="13" lengthAdjust="spacing" textLength="232" x="145.5" y="285.083">&#8226; Permite solicitar crear profesor nuevo</text><text fill="#000000" font-family="sans-serif" font-size="13" lengthAdjust="spacing" textLength="209" x="145.5" y="302.789">&#8226; Permite solicitar eliminar profesor</text><text fill="#000000" font-family="sans-serif" font-size="13" lengthAdjust="spacing" textLength="196" x="145.5" y="320.495">&#8226; Permite solicitar editar profesor</text></g><!--link FiltrandoLista to FiltrandoLista--><g id="link_FiltrandoLista_FiltrandoLista"><path d="M159.68,367.6179 C169.41,367.0879 177.5,371.0679 177.5,379.5679 C177.5,388.0679 175.4011,392.3743 165.6711,391.8443 " fill="none" id="FiltrandoLista-to-FiltrandoLista" style="stroke:#008000;stroke-width:1.0;"/><polygon fill="#008000" points="159.68,391.5179,168.4491,396.0015,164.6726,391.7899,168.8842,388.0133,159.68,391.5179" style="stroke:#008000;stroke-width:1.0;"/><path d="M182.5,357.0679 L182.5,402.0679 L404.5,402.0679 L404.5,367.0679 L394.5,357.0679 L182.5,357.0679 " fill="#FEFFDD" style="stroke:#181818;stroke-width:0.5;"/><path d="M394.5,357.0679 L394.5,367.0679 L404.5,367.0679 L394.5,357.0679 " fill="#FEFFDD" style="stroke:#181818;stroke-width:0.5;"/><text fill="#000000" font-family="sans-serif" font-size="13" font-weight="bold" lengthAdjust="spacing" textLength="95" x="188.5" y="375.9649">Administrador</text><text fill="#000000" font-family="sans-serif" font-size="13" lengthAdjust="spacing" textLength="103" x="286.5" y="375.9649">solicita filtrar lista</text><text fill="#000000" font-family="sans-serif" font-size="13" font-weight="bold" lengthAdjust="spacing" textLength="52" x="188.5" y="393.6709">Sistema</text><text fill="#000000" font-family="sans-serif" font-size="13" lengthAdjust="spacing" textLength="125" x="243.5" y="393.6709">presenta lista filtrada</text></g><!--link FiltrandoLista to *end*abrirProfesores--><g id="link_FiltrandoLista_*end*abrirProfesores"><path d="M134.5,404.5979 C134.5,428.1479 134.5,456.8979 134.5,473.9179 " fill="none" id="FiltrandoLista-to-*end*abrirProfesores" style="stroke:#008000;stroke-width:1.0;"/><polygon fill="#008000" points="134.5,479.9179,138.5,470.9179,134.5,474.9179,130.5,470.9179,134.5,479.9179" style="stroke:#008000;stroke-width:1.0;"/><path d="M139.5,430.0679 L139.5,457.0679 L419.5,457.0679 L419.5,440.0679 L409.5,430.0679 L139.5,430.0679 " fill="#FEFFDD" style="stroke:#181818;stroke-width:0.5;"/><path d="M409.5,430.0679 L409.5,440.0679 L419.5,440.0679 L409.5,430.0679 " fill="#FEFFDD" style="stroke:#181818;stroke-width:0.5;"/><text fill="#000000" font-family="sans-serif" font-size="13" font-weight="bold" lengthAdjust="spacing" textLength="95" x="145.5" y="448.9649">Administrador</text><text fill="#000000" font-family="sans-serif" font-size="13" lengthAdjust="spacing" textLength="161" x="243.5" y="448.9649">solicita una de las opciones</text></g><g id="PROFESOR_ABIERTO"><rect fill="#F1F1F1" height="50" rx="12.5" ry="12.5" style="stroke:#181818;stroke-width:0.5;" width="156" x="7" y="609"/><line style="stroke:#181818;stroke-width:0.5;" x1="7" x2="163" y1="638.0679" y2="638.0679"/><text fill="#000000" font-family="sans-serif" font-size="14" lengthAdjust="spacing" textLength="136" x="17" y="628.9659">PROFESOR_ABIERTO</text></g><g id="PROFESORES_ABIERTO"><rect fill="#F1F1F1" height="50" rx="12.5" ry="12.5" style="stroke:#181818;stroke-width:0.5;" width="172" x="261" y="609"/><line style="stroke:#181818;stroke-width:0.5;" x1="261" x2="433" y1="638.0679" y2="638.0679"/><text fill="#000000" font-family="sans-serif" font-size="14" lengthAdjust="spacing" textLength="152" x="271" y="628.9659">PROFESORES_ABIERTO</text></g><g id="SISTEMA_DISPONIBLE"><rect fill="#F1F1F1" height="50" rx="12.5" ry="12.5" style="stroke:#181818;stroke-width:0.5;" width="167" x="468.5" y="609"/><line style="stroke:#181818;stroke-width:0.5;" x1="468.5" x2="635.5" y1="638.0679" y2="638.0679"/><text fill="#000000" font-family="sans-serif" font-size="14" lengthAdjust="spacing" textLength="147" x="478.5" y="628.9659">SISTEMA_DISPONIBLE</text></g><!--link abrirProfesores to PROFESOR_ABIERTO--><g id="link_abrirProfesores_PROFESOR_ABIERTO"><path d="M97.47,452.93 C53.88,502.41 19,542 19,542 C19,542 19,579 19,579 C19,579 33.2555,590.6714 50.8255,605.0414 " fill="none" id="abrirProfesores-to-PROFESOR_ABIERTO" style="stroke:#008000;stroke-width:1.0;"/><polygon fill="#008000" points="55.47,608.84,51.0357,600.0459,51.5996,605.6745,45.9709,606.2385,55.47,608.84" style="stroke:#008000;stroke-width:1.0;"/><path d="M24,547 L24,574 L139,574 L139,557 L129,547 L24,547 " fill="#FEFFDD" style="stroke:#181818;stroke-width:0.5;"/><path d="M129,547 L129,557 L139,557 L129,547 " fill="#FEFFDD" style="stroke:#181818;stroke-width:0.5;"/><text fill="#000000" font-family="sans-serif" font-size="13" lengthAdjust="spacing" textLength="94" x="30" y="565.897">editarProfesor()</text></g><!--link abrirProfesores to PROFESOR_ABIERTO--><g id="link_abrirProfesores_PROFESOR_ABIERTO"><path d="M172.95,512.23 C158.35,551.3 148,579 148,579 C148,579 134.5173,590.5673 117.7373,604.9373 " fill="none" id="abrirProfesores-to-PROFESOR_ABIERTO-1" style="stroke:#008000;stroke-width:1.0;"/><polygon fill="#008000" points="113.18,608.84,122.6177,606.0241,116.9777,605.5877,117.4141,599.9477,113.18,608.84" style="stroke:#008000;stroke-width:1.0;"/><path d="M166,547 L166,574 L276,574 L276,557 L266,547 L166,547 " fill="#FEFFDD" style="stroke:#181818;stroke-width:0.5;"/><path d="M266,547 L266,557 L276,557 L266,547 " fill="#FEFFDD" style="stroke:#181818;stroke-width:0.5;"/><text fill="#000000" font-family="sans-serif" font-size="13" lengthAdjust="spacing" textLength="89" x="172" y="565.897">crearProfesor()</text></g><!--link abrirProfesores to PROFESORES_ABIERTO--><g id="link_abrirProfesores_PROFESORES_ABIERTO"><path d="M321.03,512.06 C329.5,551.52 335.7621,580.6433 340.4921,602.7033 " fill="none" id="abrirProfesores-to-PROFESORES_ABIERTO" style="stroke:#008000;stroke-width:1.0;"/><polygon fill="#008000" points="341.75,608.57,343.7743,598.9314,340.7017,603.6811,335.952,600.6086,341.75,608.57" style="stroke:#008000;stroke-width:1.0;"/><path d="M341,547 L341,574 L469,574 L469,557 L459,547 L341,547 " fill="#FEFFDD" style="stroke:#181818;stroke-width:0.5;"/><path d="M459,547 L459,557 L469,557 L459,547 " fill="#FEFFDD" style="stroke:#181818;stroke-width:0.5;"/><text fill="#000000" font-family="sans-serif" font-size="13" lengthAdjust="spacing" textLength="107" x="347" y="565.897">eliminarProfesor()</text></g><!--link abrirProfesores to SISTEMA_DISPONIBLE--><g id="link_abrirProfesores_SISTEMA_DISPONIBLE"><path d="M436.7,482.3 C476.09,533.78 508.954,576.7448 529.934,604.1648 " fill="none" id="abrirProfesores-to-SISTEMA_DISPONIBLE" style="stroke:#008000;stroke-width:1.0;"/><polygon fill="#008000" points="533.58,608.93,531.2878,599.3516,530.5417,604.959,524.9342,604.2129,533.58,608.93" style="stroke:#008000;stroke-width:1.0;"/><path d="M515,547 L515,574 L651,574 L651,557 L641,547 L515,547 " fill="#FEFFDD" style="stroke:#181818;stroke-width:0.5;"/><path d="M641,547 L641,557 L651,557 L641,547 " fill="#FEFFDD" style="stroke:#181818;stroke-width:0.5;"/><text fill="#000000" font-family="sans-serif" font-size="13" lengthAdjust="spacing" textLength="115" x="521" y="565.897">completarGestion()</text></g><!--SRC=[fLFHQi8m57tFLmJteaFP3uYWMnq5NOlrJKHYSvLWcfIa3cGCzYtxXNt2_cHViciwQwrOqANGqkISSq_FlRKReL9cM4AbK93jKg2fbhlz2o4sOnbGjZJ2X4Qlm6e3bZ9B6vMzPgj1tmYXk79E0o_4ZRND35DSZmJkdvyFXIoVEy3iVauxixkr0L3pJg-YGHr6QTJGQkzvupQworwV9qA9FPPhqtrOzgZLKiG2ESujJGkxZWAAvpguI76hL2iRgPYzv2F2KqYOSv1YCL2e8vqQXwg9duzF-lZznSLQjr4jMHfeKvQ2b89hkoV4ZBE2LN12C8d0seTFD7Jbt9cyKWqkDi2EML2rXLTT0mSfCDOIemxBtUC4UKZvcF1fZBSaNDFfynJgEvBZERlUAuxfBGQtoes1nE7NQIoqgamZUIUa-iELouQJOEX5mMJH7_ZUP1gGa_fv1mxKPeiKilyGTHDpiwONNR3wDrXN2qT-DFN6_SMJ7uN1YpyOUHMxEaabO0pFO3CCk2py2m00]--></g></svg>