<?xml version="1.0" encoding="us-ascii" standalone="no"?><svg xmlns="http://www.w3.org/2000/svg" xmlns:xlink="http://www.w3.org/1999/xlink" contentStyleType="text/css" height="217px" preserveAspectRatio="none" style="width:366px;height:217px;background:#FFFFFF;" version="1.1" viewBox="0 0 366 217" width="366px" zoomAndPan="magnify"><defs/><g><text fill="#000000" font-family="sans-serif" font-size="12" font-weight="bold" lengthAdjust="spacing" textLength="156" x="6" y="18.8281">GESTI&#211;N DE PROFESORES</text><line style="stroke:#AAAAAA;stroke-width:1.0;" x1="6" x2="359" y1="26.8441" y2="26.8441"/><line style="stroke:#AAAAAA;stroke-width:1.0;" x1="6" x2="359" y1="28.8441" y2="28.8441"/><text fill="#000000" font-family="sans-serif" font-size="12" lengthAdjust="spacing" textLength="48" x="7" y="46.1722">CODIGO</text><text fill="#000000" font-family="sans-serif" font-size="12" lengthAdjust="spacing" textLength="51" x="57" y="46.1722">NOMBRE</text><text fill="#000000" font-family="sans-serif" font-size="12" lengthAdjust="spacing" textLength="63" x="176" y="46.1722">APELLIDOS</text><text fill="#000000" font-family="sans-serif" font-size="12" lengthAdjust="spacing" textLength="46" x="300" y="46.1722">ACCI&#211;N</text><line style="stroke:#AAAAAA;stroke-width:1.0;" x1="7" x2="56" y1="55.1882" y2="55.1882"/><line style="stroke:#AAAAAA;stroke-width:1.0;" x1="57" x2="175" y1="55.1882" y2="55.1882"/><line style="stroke:#AAAAAA;stroke-width:1.0;" x1="176" x2="299" y1="55.1882" y2="55.1882"/><line style="stroke:#AAAAAA;stroke-width:1.0;" x1="300" x2="358" y1="55.1882" y2="55.1882"/><text fill="#000000" font-family="sans-serif" font-size="12" lengthAdjust="spacing" textLength="36" x="7" y="72.5163">RC001</text><text fill="#000000" font-family="sans-serif" font-size="12" lengthAdjust="spacing" textLength="44" x="57" y="72.5163">Roberto</text><text fill="#000000" font-family="sans-serif" font-size="12" lengthAdjust="spacing" textLength="86" x="176" y="72.5163">Castro Chirinos</text><rect fill="#EEEEEE" height="20.3441" rx="5" ry="5" style="stroke:#000000;stroke-width:2.5;" width="52" x="302.5" y="62.1882"/><text fill="#000000" font-family="sans-serif" font-size="12" lengthAdjust="spacing" textLength="33" x="312" y="77.0163">Editar</text><text fill="#000000" font-family="sans-serif" font-size="12" lengthAdjust="spacing" textLength="35" x="7" y="99.8604">JM002</text><text fill="#000000" font-family="sans-serif" font-size="12" lengthAdjust="spacing" textLength="59" x="57" y="99.8604">Jos&#233; Mar&#237;a</text><text fill="#000000" font-family="sans-serif" font-size="12" lengthAdjust="spacing" textLength="88" x="176" y="99.8604">Gonz&#225;lez L&#243;pez</text><rect fill="#EEEEEE" height="20.3441" rx="5" ry="5" style="stroke:#000000;stroke-width:2.5;" width="52" x="302.5" y="89.5323"/><text fill="#000000" font-family="sans-serif" font-size="12" lengthAdjust="spacing" textLength="33" x="312" y="104.3604">Editar</text><text fill="#000000" font-family="sans-serif" font-size="12" lengthAdjust="spacing" textLength="28" x="7" y="127.2045">PXYZ</text><text fill="#000000" font-family="sans-serif" font-size="12" lengthAdjust="spacing" textLength="117" x="57" y="127.2045">Nombre del profesor</text><text fill="#000000" font-family="sans-serif" font-size="12" lengthAdjust="spacing" textLength="122" x="176" y="127.2045">Apellidos del profesor</text><rect fill="#EEEEEE" height="20.3441" rx="5" ry="5" style="stroke:#000000;stroke-width:2.5;" width="52" x="302.5" y="116.8765"/><text fill="#000000" font-family="sans-serif" font-size="12" lengthAdjust="spacing" textLength="33" x="312" y="131.7045">Editar</text><line style="stroke:#000000;stroke-width:1.0;" x1="6" x2="56" y1="32.3441" y2="32.3441"/><line style="stroke:#000000;stroke-width:1.0;" x1="56" x2="175" y1="32.3441" y2="32.3441"/><line style="stroke:#000000;stroke-width:1.0;" x1="175" x2="299" y1="32.3441" y2="32.3441"/><line style="stroke:#000000;stroke-width:1.0;" x1="299" x2="358" y1="32.3441" y2="32.3441"/><line style="stroke:#000000;stroke-width:1.0;" x1="6" x2="56" y1="140.7206" y2="140.7206"/><line style="stroke:#000000;stroke-width:1.0;" x1="56" x2="175" y1="140.7206" y2="140.7206"/><line style="stroke:#000000;stroke-width:1.0;" x1="175" x2="299" y1="140.7206" y2="140.7206"/><line style="stroke:#000000;stroke-width:1.0;" x1="299" x2="358" y1="140.7206" y2="140.7206"/><line style="stroke:#000000;stroke-width:1.0;" x1="6" x2="6" y1="32.3441" y2="50.6882"/><line style="stroke:#000000;stroke-width:1.0;" x1="358" x2="358" y1="113.3765" y2="140.7206"/><line style="stroke:#000000;stroke-width:1.0;" x1="358" x2="358" y1="86.0323" y2="113.3765"/><line style="stroke:#000000;stroke-width:1.0;" x1="358" x2="358" y1="58.6882" y2="86.0323"/><line style="stroke:#000000;stroke-width:1.0;" x1="358" x2="358" y1="50.6882" y2="58.6882"/><line style="stroke:#000000;stroke-width:1.0;" x1="358" x2="358" y1="32.3441" y2="50.6882"/><line style="stroke:#000000;stroke-width:1.0;" x1="6" x2="6" y1="113.3765" y2="140.7206"/><line style="stroke:#000000;stroke-width:1.0;" x1="6" x2="6" y1="86.0323" y2="113.3765"/><line style="stroke:#000000;stroke-width:1.0;" x1="6" x2="6" y1="58.6882" y2="86.0323"/><line style="stroke:#000000;stroke-width:1.0;" x1="6" x2="6" y1="50.6882" y2="58.6882"/><line style="stroke:#AAAAAA;stroke-width:1.5;" x1="6" x2="359" y1="146.2206" y2="146.2206"/><text fill="#000000" font-family="sans-serif" font-size="12" font-weight="bold" lengthAdjust="spacing" textLength="51" x="7" y="164.5487">BUSCAR:</text><text fill="#000000" font-family="sans-serif" font-size="12" lengthAdjust="spacing" textLength="125" x="61" y="164.5487">[                                       ]</text><rect fill="#EEEEEE" height="20.3441" rx="5" ry="5" style="stroke:#000000;stroke-width:2.5;" width="60" x="190.5" y="154.2206"/><text fill="#000000" font-family="sans-serif" font-size="12" lengthAdjust="spacing" textLength="33" x="204" y="169.0487">Filtrar</text><line style="stroke:#AAAAAA;stroke-width:1.5;" x1="6" x2="359" y1="183.5647" y2="183.5647"/><rect fill="#EEEEEE" height="20.3441" rx="5" ry="5" style="stroke:#000000;stroke-width:2.5;" width="92" x="9.5" y="191.5647"/><text fill="#000000" font-family="sans-serif" font-size="12" lengthAdjust="spacing" textLength="69" x="21" y="206.3928">Crear nuevo</text><rect fill="#EEEEEE" height="20.3441" rx="5" ry="5" style="stroke:#000000;stroke-width:2.5;" width="156" x="108.5" y="191.5647"/><text fill="#000000" font-family="sans-serif" font-size="12" lengthAdjust="spacing" textLength="113" x="130" y="206.3928">Borrar seleccionado</text><rect fill="#EEEEEE" height="20.3441" rx="5" ry="5" style="stroke:#000000;stroke-width:2.5;" width="44" x="271.5" y="191.5647"/><text fill="#000000" font-family="sans-serif" font-size="12" lengthAdjust="spacing" textLength="25" x="281" y="206.3928">Salir</text><!--SRC=[ZL9BRjim4Dtp5BDCK2YLNQSeX3X8BD66NIaI93jeQsH1MME7W4mQ9EMYSP9Bz0HTPf5LZ-2BTPGsSD5L2Nw6CsyU7uUyi4uOPqNjG9H6cipe9Lfjq7fVfS6b4MjaEs1dvVc85zFn_liLH1ooF1to8irvSVQsF0TW_NwVxTu0X6aq7gLm3rTfCiWv6PSPZ-Dnb1Qj7OOj0mFmlFlNJhiyzFqEnNDTed6Qh51OPpI4jz98fIrvvhoIfFM6u9F4zxlaccYxVu94cFspeEr8gxlzZnhl8Dx_tD1oI2A50DcdprzQPNfT6eGAQzZykMqhRODrBIiwwf_0N-S-q7Xyf6b7vHZCYl0o3rxkFuV_QpSjtr3MpX3XWMqU6XG6L8DR_G8PQ4C8i5ZZOY6r4jLlVo5gsIO-C7Q1gcgVZR6i5ihDaXYsQ2o1eNFIzRkzatT7qzi6XbX2vnIwVj3p0_yKGZw5DdpCZaPPlEs2rOrPK3aa5LoMZIE6OpOHMm5vevnSOm3f1jKa-lZg0AwsqcYrHkNOv3ev0Dxtl85qKA0XBN2Ti0YNeg6_nTL2LrAj0fXDXzu75WkrQiIAkD6oK1El-HO0Btu1]--></g></svg>