<?xml version="1.0" encoding="us-ascii" standalone="no"?><svg xmlns="http://www.w3.org/2000/svg" xmlns:xlink="http://www.w3.org/1999/xlink" contentStyleType="text/css" height="480px" preserveAspectRatio="none" style="width:684px;height:480px;background:#FFFFFF;" version="1.1" viewBox="0 0 684 480" width="684px" zoomAndPan="magnify"><defs/><g><!--cluster Gesti?n de Campus--><g id="cluster_Gesti&#243;n de Campus"><path d="M8.5,6.602 L143.5,6.602 A3.75,3.75 0 0 1 146,9.102 L153,31.6699 L674.5,31.6699 A2.5,2.5 0 0 1 677,34.1699 L677,471.102 A2.5,2.5 0 0 1 674.5,473.602 L8.5,473.602 A2.5,2.5 0 0 1 6,471.102 L6,9.102 A2.5,2.5 0 0 1 8.5,6.602 " fill="none" style="stroke:#000000;stroke-width:1.5;"/><line style="stroke:#000000;stroke-width:1.5;" x1="6" x2="153" y1="31.6699" y2="31.6699"/><text fill="#000000" font-family="sans-serif" font-size="14" font-weight="bold" lengthAdjust="spacing" textLength="134" x="10" y="23.5679">Gesti&#243;n de Campus</text></g><!--entity admin--><g id="elem_admin"><ellipse cx="343.5" cy="215.602" fill="#F1F1F1" rx="8" ry="8" style="stroke:#181818;stroke-width:0.5;"/><path d="M343.5,223.602 L343.5,250.602 M330.5,231.602 L356.5,231.602 M343.5,250.602 L330.5,265.602 M343.5,250.602 L356.5,265.602 " fill="none" style="stroke:#181818;stroke-width:0.5;"/><text fill="#000000" font-family="sans-serif" font-size="14" lengthAdjust="spacing" textLength="179" x="254" y="282.0679">Administrador de Horarios</text></g><g id="elem_crearEdificio"><ellipse cx="577.5473" cy="273.7114" fill="#F1F1F1" rx="76.0473" ry="17.6095" style="stroke:#181818;stroke-width:0.5;"/><text fill="#000000" font-family="sans-serif" font-size="14" lengthAdjust="spacing" textLength="92" x="528.5473" y="278.4444">crearEdificio()</text></g><g id="elem_abrirEdificios"><ellipse cx="577.7473" cy="344.5514" fill="#F1F1F1" rx="77.7473" ry="17.9495" style="stroke:#181818;stroke-width:0.5;"/><text fill="#000000" font-family="sans-serif" font-size="14" lengthAdjust="spacing" textLength="97" x="526.2473" y="349.2844">abrirEdificios()</text></g><g id="elem_editarEdificio"><ellipse cx="577.7473" cy="202.5514" fill="#F1F1F1" rx="77.7473" ry="17.9495" style="stroke:#181818;stroke-width:0.5;"/><text fill="#000000" font-family="sans-serif" font-size="14" lengthAdjust="spacing" textLength="97" x="526.2473" y="207.2844">editarEdificio()</text></g><g id="elem_eliminarEdificio"><ellipse cx="577.4683" cy="435.6956" fill="#F1F1F1" rx="83.4683" ry="19.0937" style="stroke:#181818;stroke-width:0.5;"/><text fill="#000000" font-family="sans-serif" font-size="14" lengthAdjust="spacing" textLength="113" x="517.9683" y="440.4286">eliminarEdificio()</text></g><g id="elem_crearAula"><ellipse cx="577.3946" cy="132.5989" fill="#F1F1F1" rx="65.3946" ry="16.9969" style="stroke:#181818;stroke-width:0.5;"/><text fill="#000000" font-family="sans-serif" font-size="14" lengthAdjust="spacing" textLength="73" x="537.8946" y="137.3318">crearAula()</text></g><g id="elem_abrirAulas"><ellipse cx="577.6768" cy="63.6226" fill="#F1F1F1" rx="69.1768" ry="17.0206" style="stroke:#181818;stroke-width:0.5;"/><text fill="#000000" font-family="sans-serif" font-size="14" lengthAdjust="spacing" textLength="78" x="535.6768" y="68.3555">abrirAulas()</text></g><g id="elem_editarAula"><ellipse cx="107.6768" cy="369.6226" fill="#F1F1F1" rx="69.1768" ry="17.0206" style="stroke:#181818;stroke-width:0.5;"/><text fill="#000000" font-family="sans-serif" font-size="14" lengthAdjust="spacing" textLength="78" x="65.6768" y="374.3555">editarAula()</text></g><g id="elem_eliminarAula"><ellipse cx="107.7218" cy="62.8463" fill="#F1F1F1" rx="76.7218" ry="17.7444" style="stroke:#181818;stroke-width:0.5;"/><text fill="#000000" font-family="sans-serif" font-size="14" lengthAdjust="spacing" textLength="94" x="57.7218" y="67.5793">eliminarAula()</text></g><g id="elem_crearRecurso"><ellipse cx="107.7473" cy="439.5514" fill="#F1F1F1" rx="77.7473" ry="17.9495" style="stroke:#181818;stroke-width:0.5;"/><text fill="#000000" font-family="sans-serif" font-size="14" lengthAdjust="spacing" textLength="97" x="56.2473" y="444.2844">crearRecurso()</text></g><g id="elem_abrirRecursos"><ellipse cx="107.4912" cy="205.4002" fill="#F1F1F1" rx="79.4912" ry="18.2982" style="stroke:#181818;stroke-width:0.5;"/><text fill="#000000" font-family="sans-serif" font-size="14" lengthAdjust="spacing" textLength="102" x="53.4912" y="210.1332">abrirRecursos()</text></g><g id="elem_editarRecurso"><ellipse cx="107.4912" cy="133.4002" fill="#F1F1F1" rx="79.4912" ry="18.2982" style="stroke:#181818;stroke-width:0.5;"/><text fill="#000000" font-family="sans-serif" font-size="14" lengthAdjust="spacing" textLength="102" x="53.4912" y="138.1332">editarRecurso()</text></g><g id="elem_eliminarRecurso"><ellipse cx="107.3341" cy="297.5688" fill="#F1F1F1" rx="85.3341" ry="19.4668" style="stroke:#181818;stroke-width:0.5;"/><text fill="#000000" font-family="sans-serif" font-size="14" lengthAdjust="spacing" textLength="118" x="45.3341" y="302.3018">eliminarRecurso()</text></g><!--link admin to crearEdificio--><g id="link_admin_crearEdificio"><path d="M433.2,256.922 C458.4,259.862 479.4602,262.3085 503.1802,265.0685 " fill="none" id="admin-to-crearEdificio" style="stroke:#181818;stroke-width:1.0;"/><polygon fill="#181818" points="509.14,265.762,500.6626,260.7486,504.1735,265.1841,499.738,268.695,509.14,265.762" style="stroke:#181818;stroke-width:1.0;"/></g><!--link admin to abrirEdificios--><g id="link_admin_abrirEdificios"><path d="M433.2,284.072 C470.04,299.632 505.2531,314.5067 533.8431,326.5867 " fill="none" id="admin-to-abrirEdificios" style="stroke:#181818;stroke-width:1.0;"/><polygon fill="#181818" points="539.37,328.922,532.6365,321.7345,534.7643,326.9759,529.5228,329.1037,539.37,328.922" style="stroke:#181818;stroke-width:1.0;"/></g><!--link admin to editarEdificio--><g id="link_admin_editarEdificio"><path d="M433.2,229.782 C461.22,224.462 485.5851,219.8399 511.0551,215.0099 " fill="none" id="admin-to-editarEdificio" style="stroke:#181818;stroke-width:1.0;"/><polygon fill="#181818" points="516.95,213.892,507.3623,211.6389,512.0375,214.8236,508.8528,219.4988,516.95,213.892" style="stroke:#181818;stroke-width:1.0;"/></g><!--link admin to eliminarEdificio--><g id="link_admin_eliminarEdificio"><path d="M386.08,286.252 C415.4,313.532 456.04,350.042 494,379.602 C511.34,393.112 526.7536,403.7255 542.9536,414.2855 " fill="none" id="admin-to-eliminarEdificio" style="stroke:#181818;stroke-width:1.0;"/><polygon fill="#181818" points="547.98,417.562,542.6247,409.2963,543.7913,414.8316,538.2561,415.9982,547.98,417.562" style="stroke:#181818;stroke-width:1.0;"/></g><!--link admin to crearAula--><g id="link_admin_crearAula"><path d="M414.86,207.072 C439.6,193.682 467.78,178.982 494,166.602 C508.85,159.592 519.9853,154.7956 534.4453,148.9656 " fill="none" id="admin-to-crearAula" style="stroke:#181818;stroke-width:1.0;"/><polygon fill="#181818" points="540.01,146.722,530.1672,146.3776,535.3727,148.5916,533.1586,153.7972,540.01,146.722" style="stroke:#181818;stroke-width:1.0;"/></g><!--link admin to abrirAulas--><g id="link_admin_abrirAulas"><path d="M376.63,206.782 C404.78,173.982 448.24,128.062 494,97.602 C506.51,89.272 515.7951,84.575 529.4451,79.215 " fill="none" id="admin-to-abrirAulas" style="stroke:#181818;stroke-width:1.0;"/><polygon fill="#181818" points="535.03,77.022,525.1907,76.5883,530.376,78.8495,528.1147,84.0348,535.03,77.022" style="stroke:#181818;stroke-width:1.0;"/></g><!--reverse link editarAula to admin--><g id="link_editarAula_admin"><path d="M151.5865,353.1326 C166.4265,347.1626 177.94,342.112 193,334.602 C222.11,320.092 253.27,302.162 279.56,286.282 " fill="none" id="editarAula-backto-admin" style="stroke:#181818;stroke-width:1.0;"/><polygon fill="#181818" points="146.02,355.372,155.8626,355.7239,150.6587,353.5059,152.8768,348.302,146.02,355.372" style="stroke:#181818;stroke-width:1.0;"/></g><!--reverse link eliminarAula to admin--><g id="link_eliminarAula_admin"><path d="M157.842,79.1875 C171.462,84.6275 180.58,89.322 193,97.602 C238.73,128.102 282.2,174.012 310.35,206.802 " fill="none" id="eliminarAula-backto-admin" style="stroke:#181818;stroke-width:1.0;"/><polygon fill="#181818" points="152.27,76.962,159.1443,84.0149,156.9133,78.8166,162.1117,76.5856,152.27,76.962" style="stroke:#181818;stroke-width:1.0;"/></g><!--reverse link crearRecurso to admin--><g id="link_crearRecurso_admin"><path d="M157.9398,422.5818 C171.5698,416.9818 180.68,412.142 193,403.602 C240.48,370.682 284.77,320.792 312.62,286.122 " fill="none" id="crearRecurso-backto-admin" style="stroke:#181818;stroke-width:1.0;"/><polygon fill="#181818" points="152.39,424.862,162.2349,425.1416,157.0149,422.9618,159.1946,417.7418,152.39,424.862" style="stroke:#181818;stroke-width:1.0;"/></g><!--reverse link abrirRecursos to admin--><g id="link_abrirRecursos_admin"><path d="M177.4298,217.6787 C202.7398,222.1187 226.46,226.272 253.88,231.072 " fill="none" id="abrirRecursos-backto-admin" style="stroke:#181818;stroke-width:1.0;"/><polygon fill="#181818" points="171.52,216.642,179.6935,222.1369,176.4448,217.5059,181.0758,214.2572,171.52,216.642" style="stroke:#181818;stroke-width:1.0;"/></g><!--reverse link editarRecurso to admin--><g id="link_editarRecurso_admin"><path d="M153.4205,152.0086 C167.7305,158.0286 178.42,162.752 193,169.602 C217.71,181.212 244.31,194.612 268.13,206.942 " fill="none" id="editarRecurso-backto-admin" style="stroke:#181818;stroke-width:1.0;"/><polygon fill="#181818" points="147.89,149.682,154.6347,156.8589,152.4988,151.6208,157.7369,149.4849,147.89,149.682" style="stroke:#181818;stroke-width:1.0;"/></g><!--reverse link eliminarRecurso to admin--><g id="link_eliminarRecurso_admin"><path d="M175.8423,282.9237 C201.4323,277.3437 225.78,272.042 253.71,265.952 " fill="none" id="eliminarRecurso-backto-admin" style="stroke:#181818;stroke-width:1.0;"/><polygon fill="#181818" points="169.98,284.202,179.6256,286.1927,174.8652,283.1367,177.9212,278.3764,169.98,284.202" style="stroke:#181818;stroke-width:1.0;"/></g><!--link eliminarEdificio to abrirEdificios--><g id="link_eliminarEdificio_abrirEdificios"><path d="M577.5,416.302 C577.5,400.442 577.5,384.142 577.5,368.632 " fill="none" id="eliminarEdificio-to-abrirEdificios" style="stroke:#181818;stroke-width:1.0;stroke-dasharray:7.0,7.0;"/><polygon fill="#181818" points="577.5,362.632,573.5,371.632,577.5,367.632,581.5,371.632,577.5,362.632" style="stroke:#181818;stroke-width:1.0;"/><text fill="#000000" font-family="sans-serif" font-size="13" lengthAdjust="spacing" textLength="57" x="536.5" y="394.999">&#171;include&#187;</text></g><!--link eliminarAula to abrirAulas--><g id="link_eliminarAula_abrirAulas"><path d="M184.21,62.762 C273.85,62.952 415.83,63.2595 502.13,63.4395 " fill="none" id="eliminarAula-to-abrirAulas" style="stroke:#181818;stroke-width:1.0;stroke-dasharray:7.0,7.0;"/><polygon fill="#181818" points="508.13,63.452,499.1384,59.4332,503.13,63.4416,499.1217,67.4332,508.13,63.452" style="stroke:#181818;stroke-width:1.0;"/><text fill="#000000" font-family="sans-serif" font-size="13" lengthAdjust="spacing" textLength="57" x="315" y="59.499">&#171;include&#187;</text></g><!--link eliminarRecurso to abrirRecursos--><g id="link_eliminarRecurso_abrirRecursos"><path d="M107.5,278.092 C107.5,262.162 107.5,245.802 107.5,230.142 " fill="none" id="eliminarRecurso-to-abrirRecursos" style="stroke:#181818;stroke-width:1.0;stroke-dasharray:7.0,7.0;"/><polygon fill="#181818" points="107.5,224.142,103.5,233.142,107.5,229.142,111.5,233.142,107.5,224.142" style="stroke:#181818;stroke-width:1.0;"/><text fill="#000000" font-family="sans-serif" font-size="13" lengthAdjust="spacing" textLength="57" x="66.5" y="256.499">&#171;include&#187;</text></g><!--SRC=[TLDBJiGm3Dtd55PNxQ8S05MLHWZ1cXkO93DOT9fHFYl4gJW25wCf_SHfPdP-xpb-jTyC-kp16x1q-V2Wo6hfoOn2Y1lAJxneg5wqy_JxCuBIy8JNMt0LV0cKtbYeJkfA8pblKKtbf7Wr5YsPIOCECB82fbzmMgBJ8Ar6-wpeJ99Cb5GCgPkAoV7TqaQwMS-Xl44hyja03XqQ1feyvYqPc3VDdazXmFqBObLq7ud4-LoMNMyFxkKzjxiq0OektxGCrYMhNe2YruLBxAv8sN7wE4Fk-MOD78ijtqBCaO6sxQ5coMXIXcU0KVpQdCgksXo6nIqU1yqdQqIzdwM1hcsNTDVf2HYHhfiHRBFyhNI9nIa5JXmo_D3d_vn7w3eQvH2Kxdl1OhIA_uDQ5gvtMxLRKBZy3m00]--></g></svg>