<?xml version="1.0" encoding="us-ascii" standalone="no"?><svg xmlns="http://www.w3.org/2000/svg" xmlns:xlink="http://www.w3.org/1999/xlink" contentStyleType="text/css" height="433px" preserveAspectRatio="none" style="width:1051px;height:433px;background:#FFFFFF;" version="1.1" viewBox="0 0 1051 433" width="1051px" zoomAndPan="magnify"><defs/><g><!--cluster Gesti?n de Profesores--><g id="cluster_Gesti&#243;n de Profesores"><path d="M8.5,6.602 L161.5,6.602 A3.75,3.75 0 0 1 164,9.102 L171,31.6699 L291.5,31.6699 A2.5,2.5 0 0 1 294,34.1699 L294,424.102 A2.5,2.5 0 0 1 291.5,426.602 L8.5,426.602 A2.5,2.5 0 0 1 6,424.102 L6,9.102 A2.5,2.5 0 0 1 8.5,6.602 " fill="none" style="stroke:#000000;stroke-width:1.5;"/><line style="stroke:#000000;stroke-width:1.5;" x1="6" x2="171" y1="31.6699" y2="31.6699"/><text fill="#000000" font-family="sans-serif" font-size="14" font-weight="bold" lengthAdjust="spacing" textLength="152" x="10" y="23.5679">Gesti&#243;n de Profesores</text></g><!--cluster Consulta de Horarios--><g id="cluster_Consulta de Horarios"><path d="M841.5,58.602 L988.5,58.602 A3.75,3.75 0 0 1 991,61.102 L998,83.6699 L1041.5,83.6699 A2.5,2.5 0 0 1 1044,86.1699 L1044,150.102 A2.5,2.5 0 0 1 1041.5,152.602 L841.5,152.602 A2.5,2.5 0 0 1 839,150.102 L839,61.102 A2.5,2.5 0 0 1 841.5,58.602 " fill="none" style="stroke:#000000;stroke-width:1.5;"/><line style="stroke:#000000;stroke-width:1.5;" x1="839" x2="998" y1="83.6699" y2="83.6699"/><text fill="#000000" font-family="sans-serif" font-size="14" font-weight="bold" lengthAdjust="spacing" textLength="146" x="843" y="75.5679">Consulta de Horarios</text></g><!--cluster Generaci?n de Horarios--><g id="cluster_Generaci&#243;n de Horarios"><path d="M590,171.602 L754,171.602 A3.75,3.75 0 0 1 756.5,174.102 L763.5,196.6699 L783,196.6699 A2.5,2.5 0 0 1 785.5,199.1699 L785.5,261.102 A2.5,2.5 0 0 1 783,263.602 L590,263.602 A2.5,2.5 0 0 1 587.5,261.102 L587.5,174.102 A2.5,2.5 0 0 1 590,171.602 " fill="none" style="stroke:#000000;stroke-width:1.5;"/><line style="stroke:#000000;stroke-width:1.5;" x1="587.5" x2="763.5" y1="196.6699" y2="196.6699"/><text fill="#000000" font-family="sans-serif" font-size="14" font-weight="bold" lengthAdjust="spacing" textLength="163" x="591.5" y="188.5679">Generaci&#243;n de Horarios</text></g><!--cluster Asignaciones--><g id="cluster_Asignaciones"><path d="M569.5,287.602 L661.5,287.602 A3.75,3.75 0 0 1 664,290.102 L671,312.6699 L803.5,312.6699 A2.5,2.5 0 0 1 806,315.1699 L806,385.102 A2.5,2.5 0 0 1 803.5,387.602 L569.5,387.602 A2.5,2.5 0 0 1 567,385.102 L567,290.102 A2.5,2.5 0 0 1 569.5,287.602 " fill="none" style="stroke:#000000;stroke-width:1.5;"/><line style="stroke:#000000;stroke-width:1.5;" x1="567" x2="671" y1="312.6699" y2="312.6699"/><text fill="#000000" font-family="sans-serif" font-size="14" font-weight="bold" lengthAdjust="spacing" textLength="91" x="571" y="304.5679">Asignaciones</text></g><g id="elem_crearProfesor"><ellipse cx="149.9397" cy="228.6899" fill="#F1F1F1" rx="78.4397" ry="18.0879" style="stroke:#181818;stroke-width:0.5;"/><text fill="#000000" font-family="sans-serif" font-size="14" lengthAdjust="spacing" textLength="99" x="97.4397" y="233.4229">crearProfesor()</text></g><g id="elem_abrirProfesores"><ellipse cx="150.0993" cy="63.6218" fill="#F1F1F1" rx="83.0993" ry="19.0199" style="stroke:#181818;stroke-width:0.5;"/><text fill="#000000" font-family="sans-serif" font-size="14" lengthAdjust="spacing" textLength="112" x="91.0993" y="68.3548">abrirProfesores()</text></g><g id="elem_editarProfesor"><ellipse cx="150.2004" cy="300.5421" fill="#F1F1F1" rx="80.2004" ry="18.4401" style="stroke:#181818;stroke-width:0.5;"/><text fill="#000000" font-family="sans-serif" font-size="14" lengthAdjust="spacing" textLength="104" x="95.2004" y="305.275">editarProfesor()</text></g><g id="elem_eliminarProfesor"><ellipse cx="150.0897" cy="155.7199" fill="#F1F1F1" rx="86.0897" ry="19.6179" style="stroke:#181818;stroke-width:0.5;"/><text fill="#000000" font-family="sans-serif" font-size="14" lengthAdjust="spacing" textLength="120" x="87.0897" y="160.4529">eliminarProfesor()</text></g><g id="elem_configurarPreferenciasProfesor"><ellipse cx="149.968" cy="382.5956" fill="#F1F1F1" rx="127.968" ry="27.9936" style="stroke:#181818;stroke-width:0.5;"/><text fill="#000000" font-family="sans-serif" font-size="14" lengthAdjust="spacing" textLength="219" x="39.6735" y="386.4125">configurarPreferenciasProfesor()</text></g><g id="elem_consultarHorario"><ellipse cx="941.4695" cy="116.7959" fill="#F1F1F1" rx="86.4695" ry="19.6939" style="stroke:#181818;stroke-width:0.5;"/><text fill="#000000" font-family="sans-serif" font-size="14" lengthAdjust="spacing" textLength="121" x="877.9695" y="121.5288">consultarHorario()</text></g><g id="elem_generarHorario"><ellipse cx="686.5993" cy="228.6218" fill="#F1F1F1" rx="83.0993" ry="19.0199" style="stroke:#181818;stroke-width:0.5;"/><text fill="#000000" font-family="sans-serif" font-size="14" lengthAdjust="spacing" textLength="112" x="627.5993" y="233.3548">generarHorario()</text></g><g id="elem_asignarProfesorACurso"><ellipse cx="686.3751" cy="348.677" fill="#F1F1F1" rx="103.3751" ry="23.075" style="stroke:#181818;stroke-width:0.5;"/><text fill="#000000" font-family="sans-serif" font-size="14" lengthAdjust="spacing" textLength="163" x="601.8751" y="353.41">asignarProfesorACurso()</text></g><!--entity admin--><g id="elem_admin"><ellipse cx="430.5" cy="197.602" fill="#F1F1F1" rx="8" ry="8" style="stroke:#181818;stroke-width:0.5;"/><path d="M430.5,205.602 L430.5,232.602 M417.5,213.602 L443.5,213.602 M430.5,232.602 L417.5,247.602 M430.5,232.602 L443.5,247.602 " fill="none" style="stroke:#181818;stroke-width:0.5;"/><text fill="#000000" font-family="sans-serif" font-size="14" lengthAdjust="spacing" textLength="179" x="341" y="264.0679">Administrador de Horarios</text></g><!--entity consultor--><g id="elem_consultor"><ellipse cx="686.5" cy="85.602" fill="#F1F1F1" rx="8" ry="8" style="stroke:#181818;stroke-width:0.5;"/><path d="M686.5,93.602 L686.5,120.602 M673.5,101.602 L699.5,101.602 M686.5,120.602 L673.5,135.602 M686.5,120.602 L699.5,135.602 " fill="none" style="stroke:#181818;stroke-width:0.5;"/><text fill="#000000" font-family="sans-serif" font-size="14" lengthAdjust="spacing" textLength="147" x="613" y="152.0679">Consultor de Horarios</text></g><!--link admin to consultor--><g id="link_admin_consultor"><path d="M520.34,189.432 C550.52,176.122 567.4091,168.672 596.1991,155.982 " fill="none" id="admin-to-consultor" style="stroke:#181818;stroke-width:1.0;"/><polygon fill="none" points="612.67,148.722,593.779,150.4917,598.6191,161.4723,612.67,148.722" style="stroke:#181818;stroke-width:1.0;"/></g><!--reverse link crearProfesor to admin--><g id="link_crearProfesor_admin"><path d="M234.58,228.602 C269.34,228.602 304.53,228.602 340.54,228.602 " fill="none" id="crearProfesor-backto-admin" style="stroke:#181818;stroke-width:1.0;"/><polygon fill="#181818" points="228.58,228.602,237.58,232.602,233.58,228.602,237.58,224.602,228.58,228.602" style="stroke:#181818;stroke-width:1.0;"/></g><!--reverse link abrirProfesores to admin--><g id="link_abrirProfesores_admin"><path d="M210.5417,79.7561 C240.3617,88.9861 271.68,100.812 302,118.602 C334.78,137.832 367.15,165.902 391.07,188.872 " fill="none" id="abrirProfesores-backto-admin" style="stroke:#181818;stroke-width:1.0;"/><polygon fill="#181818" points="204.81,77.982,212.2248,84.4643,209.5864,79.4604,214.5903,76.822,204.81,77.982" style="stroke:#181818;stroke-width:1.0;"/></g><!--reverse link editarProfesor to admin--><g id="link_editarProfesor_admin"><path d="M212.1523,286.0233 C240.7623,279.1133 270.39,271.812 302,263.602 C314.55,260.342 327.78,256.812 340.76,253.302 " fill="none" id="editarProfesor-backto-admin" style="stroke:#181818;stroke-width:1.0;"/><polygon fill="#181818" points="206.32,287.432,216.0075,289.2072,211.1803,286.2581,214.1294,281.4308,206.32,287.432" style="stroke:#181818;stroke-width:1.0;"/></g><!--reverse link eliminarProfesor to admin--><g id="link_eliminarProfesor_admin"><path d="M216.1126,171.0294 C244.0026,177.7594 271.86,184.652 302,192.602 C314.57,195.912 327.8,199.522 340.78,203.122 " fill="none" id="eliminarProfesor-backto-admin" style="stroke:#181818;stroke-width:1.0;"/><polygon fill="#181818" points="210.28,169.622,218.0906,175.6215,215.1405,170.7948,219.9672,167.8447,210.28,169.622" style="stroke:#181818;stroke-width:1.0;"/></g><!--reverse link configurarPreferenciasProfesor to admin--><g id="link_configurarPreferenciasProfesor_admin"><path d="M244.617,360.6128 C265.967,353.9428 282.51,347.232 302,336.602 C335.11,318.542 367.47,290.982 391.31,268.212 " fill="none" id="configurarPreferenciasProfesor-backto-admin" style="stroke:#181818;stroke-width:1.0;"/><polygon fill="#181818" points="238.89,362.402,248.6733,363.5362,243.6625,360.911,246.2877,355.9002,238.89,362.402" style="stroke:#181818;stroke-width:1.0;"/></g><!--link consultor to consultarHorario--><g id="link_consultor_consultarHorario"><path d="M760.34,116.602 C789.83,116.602 818.09,116.602 848.77,116.602 " fill="none" id="consultor-to-consultarHorario" style="stroke:#181818;stroke-width:1.0;"/><polygon fill="#181818" points="854.77,116.602,845.77,112.602,849.77,116.602,845.77,120.602,854.77,116.602" style="stroke:#181818;stroke-width:1.0;"/></g><!--link admin to asignarProfesorACurso--><g id="link_admin_asignarProfesorACurso"><path d="M515.37,268.232 C557.42,288.092 601.205,308.779 635.855,325.149 " fill="none" id="admin-to-asignarProfesorACurso" style="stroke:#181818;stroke-width:1.0;"/><polygon fill="#181818" points="641.28,327.712,634.8511,320.2508,636.7591,325.5762,631.4338,327.4842,641.28,327.712" style="stroke:#181818;stroke-width:1.0;"/></g><!--link admin to generarHorario--><g id="link_admin_generarHorario"><path d="M520.34,228.602 C547.23,228.602 570.64,228.602 597.1,228.602 " fill="none" id="admin-to-generarHorario" style="stroke:#181818;stroke-width:1.0;"/><polygon fill="#181818" points="603.1,228.602,594.1,224.602,598.1,228.602,594.1,232.602,603.1,228.602" style="stroke:#181818;stroke-width:1.0;"/></g><!--link eliminarProfesor to abrirProfesores--><g id="link_eliminarProfesor_abrirProfesores"><path d="M150,136.092 C150,120.372 150,104.392 150,88.772 " fill="none" id="eliminarProfesor-to-abrirProfesores" style="stroke:#181818;stroke-width:1.0;stroke-dasharray:7.0,7.0;"/><polygon fill="#181818" points="150,82.772,146,91.772,150,87.772,154,91.772,150,82.772" style="stroke:#181818;stroke-width:1.0;"/><text fill="#000000" font-family="sans-serif" font-size="13" lengthAdjust="spacing" textLength="57" x="109" y="114.749">&#171;include&#187;</text></g><!--SRC=[VLD1ReCm4Bpx5IjESA0Fg10IoY4zzWiRiz1LgHsjpIdjg_g4Vgo6G8fD6avcPdPMtbaFr7dm5eJxDmyj2sdFrYY5sbk1h6a_sB3pWctuRGbUhA2mTHcW0vpOLNgmnes3loFJAwFKxGZLPpcUowi5AANEgD-n9yYEv3p_V9l9vbLiHyuA1QEBWl2DZZGw0Ys4ij9Jaon2yYABv7WIbZ-tkI31qX9gsISjOcXNC72uIrgIW6bH64Z7_IYJWZeICfhHnHTxA9aClpRZMsB0E8LBsdJMo29OsqHWQdmaGu9wZUO_xtwMHSunbFesZdiJVAtPfumpTnjUSnZ5NJtlCekrogDTAA0gbqLJUH9wnCNnnbGIOqG-3cWhtUn_MTQGfpClmiER7yJCthrZiLN4amtLknrygdUx_mnLnKOFOqjrhNu1]--></g></svg>