<?xml version="1.0" encoding="us-ascii" standalone="no"?><svg xmlns="http://www.w3.org/2000/svg" xmlns:xlink="http://www.w3.org/1999/xlink" contentStyleType="text/css" height="665px" preserveAspectRatio="none" style="width:628px;height:665px;background:#FFFFFF;" version="1.1" viewBox="0 0 628 665" width="628px" zoomAndPan="magnify"><defs/><g><path d="M96.5,7 L402.5,7 A12.5,12.5 0 0 1 415,19.5 L415,36.0679 L84,36.0679 L84,19.5 A12.5,12.5 0 0 1 96.5,7 " fill="#F1F1F1" style="stroke:#F1F1F1;stroke-width:1.0;"/><rect fill="none" height="505.0679" rx="12.5" ry="12.5" style="stroke:#181818;stroke-width:0.5;" width="331" x="84" y="7"/><line style="stroke:#181818;stroke-width:0.5;" x1="84" x2="415" y1="36.0679" y2="36.0679"/><text fill="#000000" font-family="sans-serif" font-size="14" lengthAdjust="spacing" textLength="97" x="201" y="26.9659">abrirEdificios()</text><g id="abrirEdificios.MostrandoLista"><rect fill="#F1F1F1" height="50" rx="12.5" ry="12.5" style="stroke:#181818;stroke-width:0.5;" width="50" x="96" y="140.0679"/><line style="stroke:#181818;stroke-width:0.5;" x1="96" x2="146" y1="169.1358" y2="169.1358"/><text fill="#000000" font-family="sans-serif" font-size="14" lengthAdjust="spacing" textLength="4" x="119" y="160.0339">&#160;</text></g><g id="abrirEdificios.FiltrandoLista"><rect fill="#F1F1F1" height="50" rx="12.5" ry="12.5" style="stroke:#181818;stroke-width:0.5;" width="50" x="96" y="354.5679"/><line style="stroke:#181818;stroke-width:0.5;" x1="96" x2="146" y1="383.6358" y2="383.6358"/><text fill="#000000" font-family="sans-serif" font-size="14" lengthAdjust="spacing" textLength="4" x="119" y="374.5339">&#160;</text></g><ellipse cx="121" cy="57.0679" fill="#222222" rx="10" ry="10" style="stroke:#222222;stroke-width:1.0;"/><ellipse cx="121" cy="491.0679" fill="none" rx="11" ry="11" style="stroke:#222222;stroke-width:1.0;"/><ellipse cx="121" cy="491.0679" fill="#222222" rx="6" ry="6" style="stroke:#222222;stroke-width:1.0;"/><!--link *start*abrirEdificios to MostrandoLista--><g id="link_*start*abrirEdificios_MostrandoLista"><path d="M121,67.1079 C121,83.0279 121,110.5779 121,133.7079 " fill="none" id="*start*abrirEdificios-to-MostrandoLista" style="stroke:#008000;stroke-width:1.0;"/><polygon fill="#008000" points="121,139.7079,125,130.7079,121,134.7079,117,130.7079,121,139.7079" style="stroke:#008000;stroke-width:1.0;"/><path d="M126,90.0679 L126,117.0679 L368,117.0679 L368,100.0679 L358,90.0679 L126,90.0679 " fill="#FEFFDD" style="stroke:#181818;stroke-width:0.5;"/><path d="M358,90.0679 L358,100.0679 L368,100.0679 L358,90.0679 " fill="#FEFFDD" style="stroke:#181818;stroke-width:0.5;"/><text fill="#000000" font-family="sans-serif" font-size="13" font-weight="bold" lengthAdjust="spacing" textLength="95" x="132" y="108.9649">Administrador</text><text fill="#000000" font-family="sans-serif" font-size="13" lengthAdjust="spacing" textLength="123" x="230" y="108.9649">solicita abrir edificios</text></g><!--link MostrandoLista to FiltrandoLista--><g id="link_MostrandoLista_FiltrandoLista"><path d="M121,190.4479 C121,231.4379 121,307.6779 121,348.4779 " fill="none" id="MostrandoLista-to-FiltrandoLista" style="stroke:#008000;stroke-width:1.0;"/><polygon fill="#008000" points="121,354.4779,125,345.4779,121,349.4779,117,345.4779,121,354.4779" style="stroke:#008000;stroke-width:1.0;"/><path d="M126,213.0679 L126,329.0679 L370,329.0679 L370,223.0679 L360,213.0679 L126,213.0679 " fill="#FEFFDD" style="stroke:#181818;stroke-width:0.5;"/><path d="M360,213.0679 L360,223.0679 L370,223.0679 L360,213.0679 " fill="#FEFFDD" style="stroke:#181818;stroke-width:0.5;"/><text fill="#000000" font-family="sans-serif" font-size="13" font-weight="bold" lengthAdjust="spacing" textLength="52" x="132" y="231.9649">Sistema</text><text fill="#000000" font-family="sans-serif" font-size="13" lengthAdjust="spacing" textLength="149" x="187" y="231.9649">presenta lista de edificios</text><text fill="#000000" font-family="sans-serif" font-size="13" lengthAdjust="spacing" textLength="169" x="132" y="249.6709">&#8226; ID, nombre de cada edificio</text><text fill="#000000" font-family="sans-serif" font-size="13" lengthAdjust="spacing" textLength="166" x="132" y="267.377">&#8226; Permite solicitar filtrar lista</text><text fill="#000000" font-family="sans-serif" font-size="13" lengthAdjust="spacing" textLength="223" x="132" y="285.083">&#8226; Permite solicitar crear edificio nuevo</text><text fill="#000000" font-family="sans-serif" font-size="13" lengthAdjust="spacing" textLength="200" x="132" y="302.789">&#8226; Permite solicitar eliminar edificio</text><text fill="#000000" font-family="sans-serif" font-size="13" lengthAdjust="spacing" textLength="187" x="132" y="320.495">&#8226; Permite solicitar editar edificio</text></g><!--link FiltrandoLista to FiltrandoLista--><g id="link_FiltrandoLista_FiltrandoLista"><path d="M146.18,367.6179 C155.91,367.0879 164,371.0679 164,379.5679 C164,388.0679 161.9011,392.3743 152.1711,391.8443 " fill="none" id="FiltrandoLista-to-FiltrandoLista" style="stroke:#008000;stroke-width:1.0;"/><polygon fill="#008000" points="146.18,391.5179,154.9491,396.0015,151.1726,391.7899,155.3842,388.0133,146.18,391.5179" style="stroke:#008000;stroke-width:1.0;"/><path d="M169,357.0679 L169,402.0679 L391,402.0679 L391,367.0679 L381,357.0679 L169,357.0679 " fill="#FEFFDD" style="stroke:#181818;stroke-width:0.5;"/><path d="M381,357.0679 L381,367.0679 L391,367.0679 L381,357.0679 " fill="#FEFFDD" style="stroke:#181818;stroke-width:0.5;"/><text fill="#000000" font-family="sans-serif" font-size="13" font-weight="bold" lengthAdjust="spacing" textLength="95" x="175" y="375.9649">Administrador</text><text fill="#000000" font-family="sans-serif" font-size="13" lengthAdjust="spacing" textLength="103" x="273" y="375.9649">solicita filtrar lista</text><text fill="#000000" font-family="sans-serif" font-size="13" font-weight="bold" lengthAdjust="spacing" textLength="52" x="175" y="393.6709">Sistema</text><text fill="#000000" font-family="sans-serif" font-size="13" lengthAdjust="spacing" textLength="125" x="230" y="393.6709">presenta lista filtrada</text></g><!--link FiltrandoLista to *end*abrirEdificios--><g id="link_FiltrandoLista_*end*abrirEdificios"><path d="M121,404.5979 C121,428.1479 121,456.8979 121,473.9179 " fill="none" id="FiltrandoLista-to-*end*abrirEdificios" style="stroke:#008000;stroke-width:1.0;"/><polygon fill="#008000" points="121,479.9179,125,470.9179,121,474.9179,117,470.9179,121,479.9179" style="stroke:#008000;stroke-width:1.0;"/><path d="M126,430.0679 L126,457.0679 L406,457.0679 L406,440.0679 L396,430.0679 L126,430.0679 " fill="#FEFFDD" style="stroke:#181818;stroke-width:0.5;"/><path d="M396,430.0679 L396,440.0679 L406,440.0679 L396,430.0679 " fill="#FEFFDD" style="stroke:#181818;stroke-width:0.5;"/><text fill="#000000" font-family="sans-serif" font-size="13" font-weight="bold" lengthAdjust="spacing" textLength="95" x="132" y="448.9649">Administrador</text><text fill="#000000" font-family="sans-serif" font-size="13" lengthAdjust="spacing" textLength="161" x="230" y="448.9649">solicita una de las opciones</text></g><g id="EDIFICIO_ABIERTO"><rect fill="#F1F1F1" height="50" rx="12.5" ry="12.5" style="stroke:#181818;stroke-width:0.5;" width="145" x="7" y="609"/><line style="stroke:#181818;stroke-width:0.5;" x1="7" x2="152" y1="638.0679" y2="638.0679"/><text fill="#000000" font-family="sans-serif" font-size="14" lengthAdjust="spacing" textLength="125" x="17" y="628.9659">EDIFICIO_ABIERTO</text></g><g id="EDIFICIOS_ABIERTO"><rect fill="#F1F1F1" height="50" rx="12.5" ry="12.5" style="stroke:#181818;stroke-width:0.5;" width="153" x="249" y="609"/><line style="stroke:#181818;stroke-width:0.5;" x1="249" x2="402" y1="638.0679" y2="638.0679"/><text fill="#000000" font-family="sans-serif" font-size="14" lengthAdjust="spacing" textLength="133" x="259" y="628.9659">EDIFICIOS_ABIERTO</text></g><g id="SISTEMA_DISPONIBLE"><rect fill="#F1F1F1" height="50" rx="12.5" ry="12.5" style="stroke:#181818;stroke-width:0.5;" width="167" x="437" y="609"/><line style="stroke:#181818;stroke-width:0.5;" x1="437" x2="604" y1="638.0679" y2="638.0679"/><text fill="#000000" font-family="sans-serif" font-size="14" lengthAdjust="spacing" textLength="147" x="447" y="628.9659">SISTEMA_DISPONIBLE</text></g><!--link abrirEdificios to EDIFICIO_ABIERTO--><g id="link_abrirEdificios_EDIFICIO_ABIERTO"><path d="M83.81,459.82 C45.39,506.04 15.5,542 15.5,542 C15.5,542 15.5,579 15.5,579 C15.5,579 29.2433,590.602 46.2833,604.972 " fill="none" id="abrirEdificios-to-EDIFICIO_ABIERTO" style="stroke:#008000;stroke-width:1.0;"/><polygon fill="#008000" points="50.87,608.84,46.5686,599.9801,47.0477,605.6166,41.4112,606.0958,50.87,608.84" style="stroke:#008000;stroke-width:1.0;"/><path d="M20.5,547 L20.5,574 L126.5,574 L126.5,557 L116.5,547 L20.5,547 " fill="#FEFFDD" style="stroke:#181818;stroke-width:0.5;"/><path d="M116.5,547 L116.5,557 L126.5,557 L116.5,547 " fill="#FEFFDD" style="stroke:#181818;stroke-width:0.5;"/><text fill="#000000" font-family="sans-serif" font-size="13" lengthAdjust="spacing" textLength="85" x="26.5" y="565.897">editarEdificio()</text></g><!--link abrirEdificios to EDIFICIO_ABIERTO--><g id="link_abrirEdificios_EDIFICIO_ABIERTO"><path d="M159.4,512.23 C145.42,551.3 135.5,579 135.5,579 C135.5,579 123.7802,590.3063 108.8702,604.6763 " fill="none" id="abrirEdificios-to-EDIFICIO_ABIERTO-1" style="stroke:#008000;stroke-width:1.0;"/><polygon fill="#008000" points="104.55,608.84,113.806,605.4746,108.1501,605.3703,108.2544,599.7144,104.55,608.84" style="stroke:#008000;stroke-width:1.0;"/><path d="M151.5,547 L151.5,574 L252.5,574 L252.5,557 L242.5,547 L151.5,547 " fill="#FEFFDD" style="stroke:#181818;stroke-width:0.5;"/><path d="M242.5,547 L242.5,557 L252.5,557 L242.5,547 " fill="#FEFFDD" style="stroke:#181818;stroke-width:0.5;"/><text fill="#000000" font-family="sans-serif" font-size="13" lengthAdjust="spacing" textLength="80" x="157.5" y="565.897">crearEdificio()</text></g><!--link abrirEdificios to EDIFICIOS_ABIERTO--><g id="link_abrirEdificios_EDIFICIOS_ABIERTO"><path d="M300.82,512.06 C308.88,551.52 314.8082,580.6316 319.3182,602.6916 " fill="none" id="abrirEdificios-to-EDIFICIOS_ABIERTO" style="stroke:#008000;stroke-width:1.0;"/><polygon fill="#008000" points="320.52,608.57,322.6362,598.9512,319.5185,603.6713,314.7984,600.5536,320.52,608.57" style="stroke:#008000;stroke-width:1.0;"/><path d="M318.5,547 L318.5,574 L437.5,574 L437.5,557 L427.5,547 L318.5,547 " fill="#FEFFDD" style="stroke:#181818;stroke-width:0.5;"/><path d="M427.5,547 L427.5,557 L437.5,557 L427.5,547 " fill="#FEFFDD" style="stroke:#181818;stroke-width:0.5;"/><text fill="#000000" font-family="sans-serif" font-size="13" lengthAdjust="spacing" textLength="98" x="324.5" y="565.897">eliminarEdificio()</text></g><!--link abrirEdificios to SISTEMA_DISPONIBLE--><g id="link_abrirEdificios_SISTEMA_DISPONIBLE"><path d="M415.14,488.18 C450.8,537.19 479.9912,577.3074 499.2112,603.7374 " fill="none" id="abrirEdificios-to-SISTEMA_DISPONIBLE" style="stroke:#008000;stroke-width:1.0;"/><polygon fill="#008000" points="502.74,608.59,500.6818,598.9586,499.7993,604.5462,494.2117,603.6637,502.74,608.59" style="stroke:#008000;stroke-width:1.0;"/><path d="M485.5,547 L485.5,574 L621.5,574 L621.5,557 L611.5,547 L485.5,547 " fill="#FEFFDD" style="stroke:#181818;stroke-width:0.5;"/><path d="M611.5,547 L611.5,557 L621.5,557 L611.5,547 " fill="#FEFFDD" style="stroke:#181818;stroke-width:0.5;"/><text fill="#000000" font-family="sans-serif" font-size="13" lengthAdjust="spacing" textLength="115" x="491.5" y="565.897">completarGestion()</text></g><!--SRC=[dLFHQi8m57tFLmJtecEo7n11Pnq1dRBw9Z9ISnt1D2b97SWOx5lsQVkItQQhjXKBDeMMvfvxxicvDsulTS8jZwcI6j9Z0ZGnwfZz4E9IdWBbaPKs478djz8uoXtjLBUwlGxz98JYoZCw-21iRbngkHPc9d7_CZwLgXptWFNzXlRNT-yMG6_wmne7zHXjaCFeJF7URmoYuKZ4KiiCAumTF4P3wen2TPZZnL8erFeCq2AdmKLEhrgniewQrcioGen2pBs0n883ZJpAimceQVZz_g5iye0ySMGXYs-vu2VG2RC46qiiLHp8qfqNOtFY1jpM0Z-VdEe3V3JHWf9eOYcZ2IkApnbPc7esjEfQ6qCR-dhfGdC3ShpWjsl5eMmZyA1zrnMEkadG90tLuIDVXDGkLxbgC65JziGMRwCn2rvN2r8fdpUWoEpso8crFQUVbxQKuHMT_qDrAst8mbKm7xrDMBXSlB3nBAXfDN6Y02ru1fUYjsNUFm00]--></g></svg>