<?xml version="1.0" encoding="us-ascii" standalone="no"?><svg xmlns="http://www.w3.org/2000/svg" xmlns:xlink="http://www.w3.org/1999/xlink" contentStyleType="text/css" height="841px" preserveAspectRatio="none" style="width:741px;height:841px;background:#FFFFFF;" version="1.1" viewBox="0 0 741 841" width="741px" zoomAndPan="magnify"><defs/><g><path d="M19.5,7 L715.5,7 A12.5,12.5 0 0 1 728,19.5 L728,36.0679 L7,36.0679 L7,19.5 A12.5,12.5 0 0 1 19.5,7 " fill="#F1F1F1" style="stroke:#F1F1F1;stroke-width:1.0;"/><rect fill="none" height="681.0679" rx="12.5" ry="12.5" style="stroke:#181818;stroke-width:0.5;" width="721" x="7" y="7"/><line style="stroke:#181818;stroke-width:0.5;" x1="7" x2="728" y1="36.0679" y2="36.0679"/><text fill="#000000" font-family="sans-serif" font-size="14" lengthAdjust="spacing" textLength="118" x="308.5" y="26.9659">eliminarRecurso()</text><g id="eliminarRecurso.PresentingConfirmation"><rect fill="#F1F1F1" height="50" rx="12.5" ry="12.5" style="stroke:#181818;stroke-width:0.5;" width="50" x="333" y="140.0679"/><line style="stroke:#181818;stroke-width:0.5;" x1="333" x2="383" y1="169.1358" y2="169.1358"/><text fill="#000000" font-family="sans-serif" font-size="14" lengthAdjust="spacing" textLength="4" x="356" y="160.0339">&#160;</text></g><g id="eliminarRecurso.AwaitingDecision"><rect fill="#F1F1F1" height="50" rx="12.5" ry="12.5" style="stroke:#181818;stroke-width:0.5;" width="50" x="333" y="369.0679"/><line style="stroke:#181818;stroke-width:0.5;" x1="333" x2="383" y1="398.1358" y2="398.1358"/><text fill="#000000" font-family="sans-serif" font-size="14" lengthAdjust="spacing" textLength="4" x="356" y="389.0339">&#160;</text></g><g id="elem_c"><polygon fill="#F1F1F1" points="200,507.5679,212,519.5679,200,531.5679,188,519.5679,200,507.5679" style="stroke:#181818;stroke-width:0.5;"/></g><ellipse cx="358" cy="57.0679" fill="#222222" rx="10" ry="10" style="stroke:#222222;stroke-width:1.0;"/><ellipse cx="279" cy="667.0679" fill="none" rx="11" ry="11" style="stroke:#222222;stroke-width:1.0;"/><ellipse cx="279" cy="667.0679" fill="#222222" rx="6" ry="6" style="stroke:#222222;stroke-width:1.0;"/><!--link *start*eliminarRecurso to PresentingConfirmation--><g id="link_*start*eliminarRecurso_PresentingConfirmation"><path d="M358,67.1079 C358,83.0279 358,110.5779 358,133.7079 " fill="none" id="*start*eliminarRecurso-to-PresentingConfirmation" style="stroke:#008000;stroke-width:1.0;"/><polygon fill="#008000" points="358,139.7079,362,130.7079,358,134.7079,354,130.7079,358,139.7079" style="stroke:#008000;stroke-width:1.0;"/><path d="M363,90.0679 L363,117.0679 L622,117.0679 L622,100.0679 L612,90.0679 L363,90.0679 " fill="#FEFFDD" style="stroke:#181818;stroke-width:0.5;"/><path d="M612,90.0679 L612,100.0679 L622,100.0679 L612,90.0679 " fill="#FEFFDD" style="stroke:#181818;stroke-width:0.5;"/><text fill="#000000" font-family="sans-serif" font-size="13" font-weight="bold" lengthAdjust="spacing" textLength="95" x="369" y="108.9649">Administrador</text><text fill="#000000" font-family="sans-serif" font-size="13" lengthAdjust="spacing" textLength="140" x="467" y="108.9649">solicita eliminar recurso</text></g><!--link PresentingConfirmation to AwaitingDecision--><g id="link_PresentingConfirmation_AwaitingDecision"><path d="M358,190.3579 C358,234.0479 358,319.3879 358,362.9479 " fill="none" id="PresentingConfirmation-to-AwaitingDecision" style="stroke:#008000;stroke-width:1.0;"/><polygon fill="#008000" points="358,368.9479,362,359.9479,358,363.9479,354,359.9479,358,368.9479" style="stroke:#008000;stroke-width:1.0;"/><path d="M363,213.0679 L363,346.0679 L553,346.0679 L553,223.0679 L543,213.0679 L363,213.0679 " fill="#FEFFDD" style="stroke:#181818;stroke-width:0.5;"/><path d="M543,213.0679 L543,223.0679 L553,223.0679 L543,213.0679 " fill="#FEFFDD" style="stroke:#181818;stroke-width:0.5;"/><text fill="#000000" font-family="sans-serif" font-size="13" font-weight="bold" lengthAdjust="spacing" textLength="52" x="369" y="231.9649">Sistema</text><text fill="#000000" font-family="sans-serif" font-size="13" lengthAdjust="spacing" textLength="53" x="424" y="231.9649">presenta</text><text fill="#000000" font-family="sans-serif" font-size="13" lengthAdjust="spacing" textLength="118" x="369" y="249.6709">&#8226; c&#243;digo del recurso</text><text fill="#000000" font-family="sans-serif" font-size="13" lengthAdjust="spacing" textLength="125" x="369" y="267.377">&#8226; nombre del recurso</text><text fill="#000000" font-family="sans-serif" font-size="13" lengthAdjust="spacing" textLength="145" x="369" y="285.083">&#8226; descripci&#243;n del recurso</text><text fill="#000000" font-family="sans-serif" font-size="13" lengthAdjust="spacing" textLength="169" x="369" y="302.789">&#8226; profesores que lo prefieren</text><text fill="#000000" font-family="sans-serif" font-size="13" lengthAdjust="spacing" textLength="127" x="369" y="320.495">&#8226; aulas que lo ofrecen</text><text fill="#000000" font-family="sans-serif" font-size="13" lengthAdjust="spacing" textLength="167" x="369" y="338.201">&#8226; advertencia de eliminaci&#243;n</text></g><!--link AwaitingDecision to c--><g id="link_AwaitingDecision_c"><path d="M332.78,401.8179 C288.39,413.6879 201,437.0679 201,437.0679 C201,437.0679 200.4855,479.3284 200.2055,501.5784 " fill="none" id="AwaitingDecision-to-c" style="stroke:#008000;stroke-width:1.0;"/><polygon fill="#008000" points="200.13,507.5779,204.2429,498.629,200.1929,502.5783,196.2436,498.5283,200.13,507.5779" style="stroke:#008000;stroke-width:1.0;"/><path d="M206,442.0679 L206,469.0679 L498,469.0679 L498,452.0679 L488,442.0679 L206,442.0679 " fill="#FEFFDD" style="stroke:#181818;stroke-width:0.5;"/><path d="M488,442.0679 L488,452.0679 L498,452.0679 L488,442.0679 " fill="#FEFFDD" style="stroke:#181818;stroke-width:0.5;"/><text fill="#000000" font-family="sans-serif" font-size="13" font-weight="bold" lengthAdjust="spacing" textLength="95" x="212" y="460.9649">Administrador</text><text fill="#000000" font-family="sans-serif" font-size="13" lengthAdjust="spacing" textLength="173" x="310" y="460.9649">solicita confirmar eliminaci&#243;n</text></g><!--link AwaitingDecision to *end*eliminarRecurso--><g id="link_AwaitingDecision_*end*eliminarRecurso"><path d="M383.26,402.3879 C424.8,414.4179 503,437.0679 503,437.0679 C503,437.0679 503,474.0679 503,474.0679 C503,474.0679 500,638.0679 500,638.0679 C500,638.0679 340.5024,658.2737 295.9124,663.9237 " fill="none" id="AwaitingDecision-to-*end*eliminarRecurso" style="stroke:#008000;stroke-width:1.0;"/><polygon fill="#008000" points="289.96,664.6779,299.3914,667.5148,294.9203,664.0494,298.3858,659.5783,289.96,664.6779" style="stroke:#008000;stroke-width:1.0;"/><path d="M507,497.0679 L507,542.0679 L719,542.0679 L719,507.0679 L709,497.0679 L507,497.0679 " fill="#FEFFDD" style="stroke:#181818;stroke-width:0.5;"/><path d="M709,497.0679 L709,507.0679 L719,507.0679 L709,497.0679 " fill="#FEFFDD" style="stroke:#181818;stroke-width:0.5;"/><text fill="#000000" font-family="sans-serif" font-size="13" font-weight="bold" lengthAdjust="spacing" textLength="95" x="513" y="515.9649">Administrador</text><text fill="#000000" font-family="sans-serif" font-size="13" lengthAdjust="spacing" textLength="93" x="611" y="515.9649">solicita cancelar</text><text fill="#000000" font-family="sans-serif" font-size="13" lengthAdjust="spacing" textLength="158" x="513" y="533.6709">transferir a abrirRecursos()</text></g><!--link c to *end*eliminarRecurso--><g id="link_c_*end*eliminarRecurso"><path d="M190.72,522.8379 C153.64,531.9079 18,565.0679 18,565.0679 C18,565.0679 18,638.0679 18,638.0679 C18,638.0679 212.7542,658.9579 262.1542,664.2579 " fill="none" id="c-to-*end*eliminarRecurso" style="stroke:#FF0000;stroke-width:1.0;"/><polygon fill="#FF0000" points="268.12,664.8979,259.5981,659.9607,263.1485,664.3645,258.7447,667.915,268.12,664.8979" style="stroke:#FF0000;stroke-width:1.0;"/><path d="M23,570.0679 L23,633.0679 L252,633.0679 L252,580.0679 L242,570.0679 L23,570.0679 " fill="#FEFFDD" style="stroke:#181818;stroke-width:0.5;"/><path d="M242,570.0679 L242,580.0679 L252,580.0679 L242,570.0679 " fill="#FEFFDD" style="stroke:#181818;stroke-width:0.5;"/><text fill="#000000" font-family="sans-serif" font-size="13" lengthAdjust="spacing" textLength="208" x="29" y="588.9649">recurso tiene dependencias cr&#237;ticas</text><text fill="#000000" font-family="sans-serif" font-size="13" lengthAdjust="spacing" textLength="124" x="29" y="606.6709">no se puede eliminar</text><text fill="#000000" font-family="sans-serif" font-size="13" lengthAdjust="spacing" textLength="158" x="29" y="624.377">transferir a abrirRecursos()</text></g><!--link c to *end*eliminarRecurso--><g id="link_c_*end*eliminarRecurso"><path d="M206.54,525.6679 C221.51,537.3579 257,565.0679 257,565.0679 C257,565.0679 269.9742,624.6051 275.5342,650.1551 " fill="none" id="c-to-*end*eliminarRecurso-1" style="stroke:#008000;stroke-width:1.0;"/><polygon fill="#008000" points="276.81,656.0179,278.8048,646.3732,275.7468,651.1323,270.9877,648.0743,276.81,656.0179" style="stroke:#008000;stroke-width:1.0;"/><path d="M278,579.0679 L278,624.0679 L491,624.0679 L491,589.0679 L481,579.0679 L278,579.0679 " fill="#FEFFDD" style="stroke:#181818;stroke-width:0.5;"/><path d="M481,579.0679 L481,589.0679 L491,589.0679 L481,579.0679 " fill="#FEFFDD" style="stroke:#181818;stroke-width:0.5;"/><text fill="#000000" font-family="sans-serif" font-size="13" lengthAdjust="spacing" textLength="192" x="284" y="597.9649">recurso eliminado exitosamente</text><text fill="#000000" font-family="sans-serif" font-size="13" lengthAdjust="spacing" textLength="158" x="284" y="615.6709">transferir a abrirRecursos()</text></g><g id="RECURSOS_ABIERTO"><rect fill="#F1F1F1" height="50" rx="12.5" ry="12.5" style="stroke:#181818;stroke-width:0.5;" width="157" x="289" y="785"/><line style="stroke:#181818;stroke-width:0.5;" x1="289" x2="446" y1="814.0679" y2="814.0679"/><text fill="#000000" font-family="sans-serif" font-size="14" lengthAdjust="spacing" textLength="137" x="299" y="804.9659">RECURSOS_ABIERTO</text></g><!--link eliminarRecurso to RECURSOS_ABIERTO--><g id="link_eliminarRecurso_RECURSOS_ABIERTO"><path d="M367.5,688.01 C367.5,728.45 367.5,757.04 367.5,778.75 " fill="none" id="eliminarRecurso-to-RECURSOS_ABIERTO" style="stroke:#008000;stroke-width:1.0;"/><polygon fill="#008000" points="367.5,784.75,371.5,775.75,367.5,779.75,363.5,775.75,367.5,784.75" style="stroke:#008000;stroke-width:1.0;"/><path d="M372.5,723 L372.5,750 L483.5,750 L483.5,733 L473.5,723 L372.5,723 " fill="#FEFFDD" style="stroke:#181818;stroke-width:0.5;"/><path d="M473.5,723 L473.5,733 L483.5,733 L473.5,723 " fill="#FEFFDD" style="stroke:#181818;stroke-width:0.5;"/><text fill="#000000" font-family="sans-serif" font-size="13" lengthAdjust="spacing" textLength="90" x="378.5" y="741.897">abrirRecursos()</text></g><!--SRC=[fPJFJjj04CRlVefHUY6LK5yWifJI77gYIjeJGjLaTnn6sBFkxAO58IIUfVUUU8Iy2K_2UkCaE3KWWYtvpywty_rsPcr_oLAZOWKb2uNhcg1svNNpacK-O22WaYiMr2cPfNe7w66mDtOq7C1D1l5OJnd4Cyg-ANcImB8uSLAmLXZOoV-wyH_aHlM53Fkkmi1eP2uS6yhpD9mkPn_FuVZimqA9vFmuVyb8NCpYf5dUPHeOpVEnZV3iWw9rEleqpy6xaWq7t2uMTBsoD8N4fZmxW7x33bFlelfePf64AamSzJelfjZ3tLymgtlB2mUMoWvI4nDNpPLwGvQyKQuDh-wbLr2hAyYxQ0U_bWIbQwmB9YNPQd1PuZRiYfZYQT3-9WqaXZ4QREgM39-fsNv1EjKoXpJBjBNNTzl73NKG08gX4ZL9eq1yGSeA23YFz_Rhy4V3PvXC0w5aNqHeMmU1IPfkrp5Fghi7ewj_WGtwTYRu-FakQTUFzv6zNfuDMsjduzCL1-UnYhkOtcX-csNx_vgd4DF9oO_fx7JsS_pvwsJw_JJhqEndtcPz1000]--></g></svg>