<?xml version="1.0" encoding="us-ascii" standalone="no"?><svg xmlns="http://www.w3.org/2000/svg" xmlns:xlink="http://www.w3.org/1999/xlink" contentStyleType="text/css" height="462px" preserveAspectRatio="none" style="width:919px;height:462px;background:#FFFFFF;" version="1.1" viewBox="0 0 919 462" width="919px" zoomAndPan="magnify"><defs/><g><!--cluster iniciarSesion--><g id="cluster_iniciarSesion"><path d="M168.5,6.602 L266.5,6.602 A3.75,3.75 0 0 1 269,9.102 L276,31.6699 L741.5,31.6699 A2.5,2.5 0 0 1 744,34.1699 L744,453.102 A2.5,2.5 0 0 1 741.5,455.602 L168.5,455.602 A2.5,2.5 0 0 1 166,453.102 L166,9.102 A2.5,2.5 0 0 1 168.5,6.602 " fill="none" style="stroke:#000000;stroke-width:1.5;"/><line style="stroke:#000000;stroke-width:1.5;" x1="166" x2="276" y1="31.6699" y2="31.6699"/><text fill="#000000" font-family="sans-serif" font-size="14" font-weight="bold" lengthAdjust="spacing" textLength="97" x="170" y="23.5679">iniciarSesion()</text></g><!--entity LoginView--><g id="elem_LoginView"><rect fill="#629EF9" height="39.0679" rx="2.5" ry="2.5" style="stroke:#181818;stroke-width:0.5;" width="88" x="410" y="44.602"/><text fill="#000000" font-family="sans-serif" font-size="14" lengthAdjust="spacing" textLength="68" x="420" y="69.5679">LoginView</text></g><!--entity IniciarSesionController--><g id="elem_IniciarSesionController"><rect fill="#B5BD68" height="39.0679" rx="2.5" ry="2.5" style="stroke:#181818;stroke-width:0.5;" width="174" x="367" y="182.602"/><text fill="#000000" font-family="sans-serif" font-size="14" lengthAdjust="spacing" textLength="154" x="377" y="207.5679">IniciarSesionController</text></g><!--entity UsuarioRepository--><g id="elem_UsuarioRepository"><rect fill="#F2AC4E" height="39.0679" rx="2.5" ry="2.5" style="stroke:#181818;stroke-width:0.5;" width="143" x="182.5" y="300.602"/><text fill="#000000" font-family="sans-serif" font-size="14" lengthAdjust="spacing" textLength="123" x="192.5" y="325.5679">UsuarioRepository</text></g><!--entity Usuario--><g id="elem_Usuario"><rect fill="#F2AC4E" height="39.0679" rx="2.5" ry="2.5" style="stroke:#181818;stroke-width:0.5;" width="72" x="218" y="400.602"/><text fill="#000000" font-family="sans-serif" font-size="14" lengthAdjust="spacing" textLength="52" x="228" y="425.5679">Usuario</text></g><!--entity Sesion--><g id="elem_Sesion"><rect fill="#F2AC4E" height="39.0679" rx="2.5" ry="2.5" style="stroke:#181818;stroke-width:0.5;" width="64" x="524" y="300.602"/><text fill="#000000" font-family="sans-serif" font-size="14" lengthAdjust="spacing" textLength="44" x="534" y="325.5679">Sesion</text></g><!--entity UsuarioNoRegistrado--><g id="elem_UsuarioNoRegistrado"><ellipse cx="78" cy="33.102" fill="#F1F1F1" rx="8" ry="8" style="stroke:#181818;stroke-width:0.5;"/><path d="M78,41.102 L78,68.102 M65,49.102 L91,49.102 M78,68.102 L65,83.102 M78,68.102 L91,83.102 " fill="none" style="stroke:#181818;stroke-width:0.5;"/><text fill="#000000" font-family="sans-serif" font-size="14" lengthAdjust="spacing" textLength="144" x="6" y="99.5679">UsuarioNoRegistrado</text></g><!--entity SistemaDisponible--><g id="elem_SistemaDisponible"><rect fill="#CDEBA5" height="39.0679" rx="2.5" ry="2.5" style="stroke:#181818;stroke-width:0.5;" width="153" x="760.5" y="44.602"/><text fill="#000000" font-family="sans-serif" font-size="14" lengthAdjust="spacing" textLength="133" x="770.5" y="69.5679">:Sistema Disponible</text></g><!--link UsuarioNoRegistrado to LoginView--><g id="link_UsuarioNoRegistrado_LoginView"><path d="M150.05,64.102 C226.82,64.102 339.9,64.102 403.84,64.102 " fill="none" id="UsuarioNoRegistrado-to-LoginView" style="stroke:#181818;stroke-width:1.0;"/><polygon fill="#181818" points="409.84,64.102,400.84,60.102,404.84,64.102,400.84,68.102,409.84,64.102" style="stroke:#181818;stroke-width:1.0;"/><text fill="#000000" font-family="sans-serif" font-size="13" lengthAdjust="spacing" textLength="200" x="180" y="56.999">iniciarSesion(usuario, contrase&#241;a)</text></g><!--link LoginView to IniciarSesionController--><g id="link_LoginView_IniciarSesionController"><path d="M454,83.732 C454,109.622 454,150.252 454,176.262 " fill="none" id="LoginView-to-IniciarSesionController" style="stroke:#181818;stroke-width:1.0;"/><polygon fill="#181818" points="454,182.262,458,173.262,454,177.262,450,173.262,454,182.262" style="stroke:#181818;stroke-width:1.0;"/><text fill="#000000" font-family="sans-serif" font-size="13" lengthAdjust="spacing" textLength="235" x="455" y="148.499">autenticar(usuario, contrase&#241;a) : Sesion</text></g><!--link IniciarSesionController to UsuarioRepository--><g id="link_IniciarSesionController_UsuarioRepository"><path d="M366.94,220.402 C296.87,234.332 210,251.602 210,251.602 C210,251.602 210,270.602 210,270.602 C210,270.602 220.6804,282.3665 233.0804,296.0465 " fill="none" id="IniciarSesionController-to-UsuarioRepository" style="stroke:#181818;stroke-width:1.0;"/><polygon fill="#181818" points="237.11,300.492,234.0293,291.1373,233.752,296.7874,228.102,296.5101,237.11,300.492" style="stroke:#181818;stroke-width:1.0;"/><text fill="#000000" font-family="sans-serif" font-size="13" lengthAdjust="spacing" textLength="297" x="211" y="266.499">validarCredenciales(usuario, contrase&#241;a) : Usuario</text></g><!--link UsuarioRepository to Usuario--><g id="link_UsuarioRepository_Usuario"><path d="M254,340.002 C254,357.462 254,383.262 254,400.592 " fill="none" id="UsuarioRepository-Usuario" style="stroke:#181818;stroke-width:1.0;"/></g><!--link IniciarSesionController to Sesion--><g id="link_IniciarSesionController_Sesion"><path d="M478.18,221.712 C495.94,235.392 517,251.602 517,251.602 C517,251.602 530.5991,275.1263 542.1391,295.1063 " fill="none" id="IniciarSesionController-to-Sesion" style="stroke:#181818;stroke-width:1.0;"/><polygon fill="#181818" points="545.14,300.302,544.1024,290.5079,542.6393,295.9723,537.1749,294.5091,545.14,300.302" style="stroke:#181818;stroke-width:1.0;"/><text fill="#000000" font-family="sans-serif" font-size="13" lengthAdjust="spacing" textLength="170" x="528" y="266.499">crearSesion(usuario) : Sesion</text></g><!--link LoginView to SistemaDisponible--><g id="link_LoginView_SistemaDisponible"><path d="M498.31,64.102 C562.4,64.102 675.89,64.102 754.43,64.102 " fill="none" id="LoginView-to-SistemaDisponible" style="stroke:#181818;stroke-width:1.0;"/><polygon fill="#181818" points="760.43,64.102,751.43,60.102,755.43,64.102,751.43,68.102,760.43,64.102" style="stroke:#181818;stroke-width:1.0;"/><text fill="#000000" font-family="sans-serif" font-size="13" lengthAdjust="spacing" textLength="202" x="528.25" y="56.999">sistemaDisponible(administrador)</text></g><!--SRC=[VP71QW8n48RlUOfXUr7eNgHApQ5WLuL2wK5fxsDsM0PZiYInHKeVgi_G5skMhNNTTSqj_ypycV-Btx8fqU4ED1iAXvAWjFfGNOH05Qo3Lxz7n_R5hgXW7npcLfIejbWGi675wDRasHf03ycPCXWcy2aW7aSge2aqmSraD5qif_1i2pPlJ1_j-cQyoIVtyDGqogm9pcfDhjsz7CsokyLnoHMLrdFS-d2zhwTQFoQ-HAEKpHUFip4aSXt3qmvXphwqXZUQaYhndtnIXRX035ANFfmootDoWtqzSGkg2egUVhvnACH_FwHv7Ez18W7tWKnWXUwo4yXZDD7Z0Mdqxq2Ky8wQStIPevnC7DJaUvyuiXKTd-X-gbxRe1ObA4TjDiqG3IuLriuNIF1jQO3vBZAlVyD5jk8N]--></g></svg>