<?xml version="1.0" encoding="us-ascii" standalone="no"?><svg xmlns="http://www.w3.org/2000/svg" xmlns:xlink="http://www.w3.org/1999/xlink" contentStyleType="text/css" height="642px" preserveAspectRatio="none" style="width:434px;height:642px;background:#FFFFFF;" version="1.1" viewBox="0 0 434 642" width="434px" zoomAndPan="magnify"><defs/><g><path d="M19.5,7 L394.5,7 A12.5,12.5 0 0 1 407,19.5 L407,36.0679 L7,36.0679 L7,19.5 A12.5,12.5 0 0 1 19.5,7 " fill="#F1F1F1" style="stroke:#F1F1F1;stroke-width:1.0;"/><rect fill="none" height="482.0679" rx="12.5" ry="12.5" style="stroke:#181818;stroke-width:0.5;" width="400" x="7" y="7"/><line style="stroke:#181818;stroke-width:0.5;" x1="7" x2="407" y1="36.0679" y2="36.0679"/><text fill="#000000" font-family="sans-serif" font-size="14" lengthAdjust="spacing" textLength="82" x="166" y="26.9659">crearCurso()</text><g id="crearCurso.SolicitandoDatos"><rect fill="#F1F1F1" height="50" rx="12.5" ry="12.5" style="stroke:#181818;stroke-width:0.5;" width="50" x="19" y="140.0679"/><line style="stroke:#181818;stroke-width:0.5;" x1="19" x2="69" y1="169.1358" y2="169.1358"/><text fill="#000000" font-family="sans-serif" font-size="14" lengthAdjust="spacing" textLength="4" x="42" y="160.0339">&#160;</text></g><g id="crearCurso.CreandoCurso"><rect fill="#F1F1F1" height="50" rx="12.5" ry="12.5" style="stroke:#181818;stroke-width:0.5;" width="50" x="19" y="316.0679"/><line style="stroke:#181818;stroke-width:0.5;" x1="19" x2="69" y1="345.1358" y2="345.1358"/><text fill="#000000" font-family="sans-serif" font-size="14" lengthAdjust="spacing" textLength="4" x="42" y="336.0339">&#160;</text></g><ellipse cx="44" cy="57.0679" fill="#222222" rx="10" ry="10" style="stroke:#222222;stroke-width:1.0;"/><ellipse cx="44" cy="468.0679" fill="none" rx="11" ry="11" style="stroke:#222222;stroke-width:1.0;"/><ellipse cx="44" cy="468.0679" fill="#222222" rx="6" ry="6" style="stroke:#222222;stroke-width:1.0;"/><!--link *start*crearCurso to SolicitandoDatos--><g id="link_*start*crearCurso_SolicitandoDatos"><path d="M44,67.1079 C44,83.0279 44,110.5779 44,133.7079 " fill="none" id="*start*crearCurso-to-SolicitandoDatos" style="stroke:#008000;stroke-width:1.0;"/><polygon fill="#008000" points="44,139.7079,48,130.7079,44,134.7079,40,130.7079,44,139.7079" style="stroke:#008000;stroke-width:1.0;"/><path d="M49,90.0679 L49,117.0679 L319,117.0679 L319,100.0679 L309,90.0679 L49,90.0679 " fill="#FEFFDD" style="stroke:#181818;stroke-width:0.5;"/><path d="M309,90.0679 L309,100.0679 L319,100.0679 L309,90.0679 " fill="#FEFFDD" style="stroke:#181818;stroke-width:0.5;"/><text fill="#000000" font-family="sans-serif" font-size="13" font-weight="bold" lengthAdjust="spacing" textLength="95" x="55" y="108.9649">Administrador</text><text fill="#000000" font-family="sans-serif" font-size="13" lengthAdjust="spacing" textLength="151" x="153" y="108.9649">solicita crear curso nuevo</text></g><!--link SolicitandoDatos to CreandoCurso--><g id="link_SolicitandoDatos_CreandoCurso"><path d="M44,190.2579 C44,223.4079 44,276.6079 44,309.7979 " fill="none" id="SolicitandoDatos-to-CreandoCurso" style="stroke:#008000;stroke-width:1.0;"/><polygon fill="#008000" points="44,315.7979,48,306.7979,44,310.7979,40,306.7979,44,315.7979" style="stroke:#008000;stroke-width:1.0;"/><path d="M49,213.0679 L49,293.0679 L398,293.0679 L398,223.0679 L388,213.0679 L49,213.0679 " fill="#FEFFDD" style="stroke:#181818;stroke-width:0.5;"/><path d="M388,213.0679 L388,223.0679 L398,223.0679 L388,213.0679 " fill="#FEFFDD" style="stroke:#181818;stroke-width:0.5;"/><text fill="#000000" font-family="sans-serif" font-size="13" font-weight="bold" lengthAdjust="spacing" textLength="52" x="55" y="231.9649">Sistema</text><text fill="#000000" font-family="sans-serif" font-size="13" lengthAdjust="spacing" textLength="273" x="110" y="231.9649">presenta solicitud de datos m&#237;nimos del curso</text><text fill="#000000" font-family="sans-serif" font-size="13" lengthAdjust="spacing" textLength="192" x="55" y="249.6709">&#8226; Nombre del curso (obligatorio)</text><text fill="#000000" font-family="sans-serif" font-size="13" lengthAdjust="spacing" textLength="173" x="55" y="267.377">&#8226; Permite solicitar crear curso</text><text fill="#000000" font-family="sans-serif" font-size="13" lengthAdjust="spacing" textLength="209" x="55" y="285.083">&#8226; Permite solicitar cancelar creaci&#243;n</text></g><!--link CreandoCurso to *end*crearCurso--><g id="link_CreandoCurso_*end*crearCurso"><path d="M44,366.1679 C44,393.6979 44,431.4479 44,451.0279 " fill="none" id="CreandoCurso-to-*end*crearCurso" style="stroke:#008000;stroke-width:1.0;"/><polygon fill="#008000" points="44,457.0279,48,448.0279,44,452.0279,40,448.0279,44,457.0279" style="stroke:#008000;stroke-width:1.0;"/><path d="M49,389.0679 L49,434.0679 L334,434.0679 L334,399.0679 L324,389.0679 L49,389.0679 " fill="#FEFFDD" style="stroke:#181818;stroke-width:0.5;"/><path d="M324,389.0679 L324,399.0679 L334,399.0679 L324,389.0679 " fill="#FEFFDD" style="stroke:#181818;stroke-width:0.5;"/><text fill="#000000" font-family="sans-serif" font-size="13" font-weight="bold" lengthAdjust="spacing" textLength="95" x="55" y="407.9649">Administrador</text><text fill="#000000" font-family="sans-serif" font-size="13" lengthAdjust="spacing" textLength="166" x="153" y="407.9649">proporciona datos m&#237;nimos</text><text fill="#000000" font-family="sans-serif" font-size="13" font-weight="bold" lengthAdjust="spacing" textLength="52" x="55" y="425.6709">Sistema</text><text fill="#000000" font-family="sans-serif" font-size="13" lengthAdjust="spacing" textLength="187" x="110" y="425.6709">crea curso y transfiere a edici&#243;n</text></g><g id="CURSO_ABIERTO"><rect fill="#F1F1F1" height="50" rx="12.5" ry="12.5" style="stroke:#181818;stroke-width:0.5;" width="132" x="30" y="586"/><line style="stroke:#181818;stroke-width:0.5;" x1="30" x2="162" y1="615.0679" y2="615.0679"/><text fill="#000000" font-family="sans-serif" font-size="14" lengthAdjust="spacing" textLength="112" x="40" y="605.9659">CURSO_ABIERTO</text></g><g id="CURSOS_ABIERTO"><rect fill="#F1F1F1" height="50" rx="12.5" ry="12.5" style="stroke:#181818;stroke-width:0.5;" width="140" x="248" y="586"/><line style="stroke:#181818;stroke-width:0.5;" x1="248" x2="388" y1="615.0679" y2="615.0679"/><text fill="#000000" font-family="sans-serif" font-size="14" lengthAdjust="spacing" textLength="120" x="258" y="605.9659">CURSOS_ABIERTO</text></g><!--link crearCurso to CURSO_ABIERTO--><g id="link_crearCurso_CURSO_ABIERTO"><path d="M105.64,489.07 C97.89,507.43 93,519 93,519 C93,519 93,556 93,556 C93,556 93.5265,565.4793 94.3265,579.8493 " fill="none" id="crearCurso-to-CURSO_ABIERTO" style="stroke:#008000;stroke-width:1.0;"/><polygon fill="#008000" points="94.66,585.84,98.1535,576.6316,94.3821,580.8477,90.1659,577.0763,94.66,585.84" style="stroke:#008000;stroke-width:1.0;"/><path d="M98,524 L98,551 L270,551 L270,534 L260,524 L98,524 " fill="#FEFFDD" style="stroke:#181818;stroke-width:0.5;"/><path d="M260,524 L260,534 L270,534 L260,524 " fill="#FEFFDD" style="stroke:#181818;stroke-width:0.5;"/><text fill="#000000" font-family="sans-serif" font-size="13" lengthAdjust="spacing" textLength="151" x="104" y="542.897">editarCurso(cursoNuevo)</text></g><!--link crearCurso to CURSOS_ABIERTO--><g id="link_crearCurso_CURSOS_ABIERTO"><path d="M280.81,489.04 C292.96,528.56 302.0262,558.0551 308.8262,580.1651 " fill="none" id="crearCurso-to-CURSOS_ABIERTO" style="stroke:#0000FF;stroke-width:1.0;"/><polygon fill="#0000FF" points="310.59,585.9,311.7676,576.1218,309.1202,581.1209,304.1211,578.4735,310.59,585.9" style="stroke:#0000FF;stroke-width:1.0;"/><path d="M304,524 L304,551 L427,551 L427,534 L417,524 L304,524 " fill="#FEFFDD" style="stroke:#181818;stroke-width:0.5;"/><path d="M417,524 L417,534 L427,534 L417,524 " fill="#FEFFDD" style="stroke:#181818;stroke-width:0.5;"/><text fill="#000000" font-family="sans-serif" font-size="13" lengthAdjust="spacing" textLength="102" x="310" y="542.897">cancelar creaci&#243;n</text></g><!--SRC=[bPBDIiD0483l-nH3lRH2yGLAeLOFNbffz5IARB9ZMPhiXDr4A2BuBDuz-GXz4v_4oIRDJni5Dn2osTbllvaTjzCcbLOc46k3sJv5I2dU5nCXN2OpXCYYjFFSEWBfOD1CXwC1l0e1FCh80JyS4b2i8vr9e-X6PkJE8-RCu5LFAG7homsCrnTRYsWsu-aP0toK8MQGALnt_iSadCvKeerscPMAxEGgd8AhzfRc47bra-CB-JreL0dY8UhNsO5jcuxlRo81Is0YlK9gqQ5XXSebLw0Gb0SdXq-Z4_vG69Todl3z_W4BIaABpG8CAOprbhTPJQCwx1vjebdWcAXjP_fNb3GHnbLuf0zVfbEGfXZjV3k5u6lwnqMabbAoaIOZJtBlgraXLQMz1wOOzwoHgo41bUwnVHEYrPgTwtfS1SkdsVNTxUfXAJgkZCgExUlFMXHzCH8rzOGPnZdMoA2VsLFM6lS3]--></g></svg>