<?xml version="1.0" encoding="us-ascii" standalone="no"?><svg xmlns="http://www.w3.org/2000/svg" xmlns:xlink="http://www.w3.org/1999/xlink" contentStyleType="text/css" height="665px" preserveAspectRatio="none" style="width:656px;height:665px;background:#FFFFFF;" version="1.1" viewBox="0 0 656 665" width="656px" zoomAndPan="magnify"><defs/><g><path d="M107.5,7 L445.5,7 A12.5,12.5 0 0 1 458,19.5 L458,36.0679 L95,36.0679 L95,19.5 A12.5,12.5 0 0 1 107.5,7 " fill="#F1F1F1" style="stroke:#F1F1F1;stroke-width:1.0;"/><rect fill="none" height="505.0679" rx="12.5" ry="12.5" style="stroke:#181818;stroke-width:0.5;" width="363" x="95" y="7"/><line style="stroke:#181818;stroke-width:0.5;" x1="95" x2="458" y1="36.0679" y2="36.0679"/><text fill="#000000" font-family="sans-serif" font-size="14" lengthAdjust="spacing" textLength="114" x="219.5" y="26.9659">abrirProgramas()</text><g id="abrirProgramas.MostrandoLista"><rect fill="#F1F1F1" height="50" rx="12.5" ry="12.5" style="stroke:#181818;stroke-width:0.5;" width="50" x="107" y="140.0679"/><line style="stroke:#181818;stroke-width:0.5;" x1="107" x2="157" y1="169.1358" y2="169.1358"/><text fill="#000000" font-family="sans-serif" font-size="14" lengthAdjust="spacing" textLength="4" x="130" y="160.0339">&#160;</text></g><g id="abrirProgramas.FiltrandoLista"><rect fill="#F1F1F1" height="50" rx="12.5" ry="12.5" style="stroke:#181818;stroke-width:0.5;" width="50" x="107" y="354.5679"/><line style="stroke:#181818;stroke-width:0.5;" x1="107" x2="157" y1="383.6358" y2="383.6358"/><text fill="#000000" font-family="sans-serif" font-size="14" lengthAdjust="spacing" textLength="4" x="130" y="374.5339">&#160;</text></g><ellipse cx="132" cy="57.0679" fill="#222222" rx="10" ry="10" style="stroke:#222222;stroke-width:1.0;"/><ellipse cx="132" cy="491.0679" fill="none" rx="11" ry="11" style="stroke:#222222;stroke-width:1.0;"/><ellipse cx="132" cy="491.0679" fill="#222222" rx="6" ry="6" style="stroke:#222222;stroke-width:1.0;"/><!--link *start*abrirProgramas to MostrandoLista--><g id="link_*start*abrirProgramas_MostrandoLista"><path d="M132,67.1079 C132,83.0279 132,110.5779 132,133.7079 " fill="none" id="*start*abrirProgramas-to-MostrandoLista" style="stroke:#008000;stroke-width:1.0;"/><polygon fill="#008000" points="132,139.7079,136,130.7079,132,134.7079,128,130.7079,132,139.7079" style="stroke:#008000;stroke-width:1.0;"/><path d="M137,90.0679 L137,117.0679 L397,117.0679 L397,100.0679 L387,90.0679 L137,90.0679 " fill="#FEFFDD" style="stroke:#181818;stroke-width:0.5;"/><path d="M387,90.0679 L387,100.0679 L397,100.0679 L387,90.0679 " fill="#FEFFDD" style="stroke:#181818;stroke-width:0.5;"/><text fill="#000000" font-family="sans-serif" font-size="13" font-weight="bold" lengthAdjust="spacing" textLength="95" x="143" y="108.9649">Administrador</text><text fill="#000000" font-family="sans-serif" font-size="13" lengthAdjust="spacing" textLength="141" x="241" y="108.9649">solicita abrir programas</text></g><!--link MostrandoLista to FiltrandoLista--><g id="link_MostrandoLista_FiltrandoLista"><path d="M132,190.4479 C132,231.4379 132,307.6779 132,348.4779 " fill="none" id="MostrandoLista-to-FiltrandoLista" style="stroke:#008000;stroke-width:1.0;"/><polygon fill="#008000" points="132,354.4779,136,345.4779,132,349.4779,128,345.4779,132,354.4779" style="stroke:#008000;stroke-width:1.0;"/><path d="M137,213.0679 L137,329.0679 L449,329.0679 L449,223.0679 L439,213.0679 L137,213.0679 " fill="#FEFFDD" style="stroke:#181818;stroke-width:0.5;"/><path d="M439,213.0679 L439,223.0679 L449,223.0679 L439,213.0679 " fill="#FEFFDD" style="stroke:#181818;stroke-width:0.5;"/><text fill="#000000" font-family="sans-serif" font-size="13" font-weight="bold" lengthAdjust="spacing" textLength="52" x="143" y="231.9649">Sistema</text><text fill="#000000" font-family="sans-serif" font-size="13" lengthAdjust="spacing" textLength="167" x="198" y="231.9649">presenta lista de programas</text><text fill="#000000" font-family="sans-serif" font-size="13" lengthAdjust="spacing" textLength="291" x="143" y="249.6709">&#8226; C&#243;digo, nombre, descripci&#243;n de cada programa</text><text fill="#000000" font-family="sans-serif" font-size="13" lengthAdjust="spacing" textLength="166" x="143" y="267.377">&#8226; Permite solicitar filtrar lista</text><text fill="#000000" font-family="sans-serif" font-size="13" lengthAdjust="spacing" textLength="241" x="143" y="285.083">&#8226; Permite solicitar crear programa nuevo</text><text fill="#000000" font-family="sans-serif" font-size="13" lengthAdjust="spacing" textLength="218" x="143" y="302.789">&#8226; Permite solicitar eliminar programa</text><text fill="#000000" font-family="sans-serif" font-size="13" lengthAdjust="spacing" textLength="205" x="143" y="320.495">&#8226; Permite solicitar editar programa</text></g><!--link FiltrandoLista to FiltrandoLista--><g id="link_FiltrandoLista_FiltrandoLista"><path d="M157.18,367.6179 C166.91,367.0879 175,371.0679 175,379.5679 C175,388.0679 172.9011,392.3743 163.1711,391.8443 " fill="none" id="FiltrandoLista-to-FiltrandoLista" style="stroke:#008000;stroke-width:1.0;"/><polygon fill="#008000" points="157.18,391.5179,165.9491,396.0015,162.1726,391.7899,166.3842,388.0133,157.18,391.5179" style="stroke:#008000;stroke-width:1.0;"/><path d="M180,357.0679 L180,402.0679 L402,402.0679 L402,367.0679 L392,357.0679 L180,357.0679 " fill="#FEFFDD" style="stroke:#181818;stroke-width:0.5;"/><path d="M392,357.0679 L392,367.0679 L402,367.0679 L392,357.0679 " fill="#FEFFDD" style="stroke:#181818;stroke-width:0.5;"/><text fill="#000000" font-family="sans-serif" font-size="13" font-weight="bold" lengthAdjust="spacing" textLength="95" x="186" y="375.9649">Administrador</text><text fill="#000000" font-family="sans-serif" font-size="13" lengthAdjust="spacing" textLength="103" x="284" y="375.9649">solicita filtrar lista</text><text fill="#000000" font-family="sans-serif" font-size="13" font-weight="bold" lengthAdjust="spacing" textLength="52" x="186" y="393.6709">Sistema</text><text fill="#000000" font-family="sans-serif" font-size="13" lengthAdjust="spacing" textLength="125" x="241" y="393.6709">presenta lista filtrada</text></g><!--link FiltrandoLista to *end*abrirProgramas--><g id="link_FiltrandoLista_*end*abrirProgramas"><path d="M132,404.5979 C132,428.1479 132,456.8979 132,473.9179 " fill="none" id="FiltrandoLista-to-*end*abrirProgramas" style="stroke:#008000;stroke-width:1.0;"/><polygon fill="#008000" points="132,479.9179,136,470.9179,132,474.9179,128,470.9179,132,479.9179" style="stroke:#008000;stroke-width:1.0;"/><path d="M137,430.0679 L137,457.0679 L417,457.0679 L417,440.0679 L407,430.0679 L137,430.0679 " fill="#FEFFDD" style="stroke:#181818;stroke-width:0.5;"/><path d="M407,430.0679 L407,440.0679 L417,440.0679 L407,430.0679 " fill="#FEFFDD" style="stroke:#181818;stroke-width:0.5;"/><text fill="#000000" font-family="sans-serif" font-size="13" font-weight="bold" lengthAdjust="spacing" textLength="95" x="143" y="448.9649">Administrador</text><text fill="#000000" font-family="sans-serif" font-size="13" lengthAdjust="spacing" textLength="161" x="241" y="448.9649">solicita una de las opciones</text></g><g id="PROGRAMA_ABIERTO"><rect fill="#F1F1F1" height="50" rx="12.5" ry="12.5" style="stroke:#181818;stroke-width:0.5;" width="163" x="7" y="609"/><line style="stroke:#181818;stroke-width:0.5;" x1="7" x2="170" y1="638.0679" y2="638.0679"/><text fill="#000000" font-family="sans-serif" font-size="14" lengthAdjust="spacing" textLength="143" x="17" y="628.9659">PROGRAMA_ABIERTO</text></g><g id="PROGRAMAS_ABIERTO"><rect fill="#F1F1F1" height="50" rx="12.5" ry="12.5" style="stroke:#181818;stroke-width:0.5;" width="171" x="276" y="609"/><line style="stroke:#181818;stroke-width:0.5;" x1="276" x2="447" y1="638.0679" y2="638.0679"/><text fill="#000000" font-family="sans-serif" font-size="14" lengthAdjust="spacing" textLength="151" x="286" y="628.9659">PROGRAMAS_ABIERTO</text></g><g id="SISTEMA_DISPONIBLE"><rect fill="#F1F1F1" height="50" rx="12.5" ry="12.5" style="stroke:#181818;stroke-width:0.5;" width="167" x="482" y="609"/><line style="stroke:#181818;stroke-width:0.5;" x1="482" x2="649" y1="638.0679" y2="638.0679"/><text fill="#000000" font-family="sans-serif" font-size="14" lengthAdjust="spacing" textLength="147" x="492" y="628.9659">SISTEMA_DISPONIBLE</text></g><!--link abrirProgramas to PROGRAMA_ABIERTO--><g id="link_abrirProgramas_PROGRAMA_ABIERTO"><path d="M94.87,456.39 C50.5,504.25 15.5,542 15.5,542 C15.5,542 15.5,579 15.5,579 C15.5,579 31.586,590.9023 51.016,605.2723 " fill="none" id="abrirProgramas-to-PROGRAMA_ABIERTO" style="stroke:#008000;stroke-width:1.0;"/><polygon fill="#008000" points="55.84,608.84,50.9825,600.2724,51.82,605.8669,46.2255,606.7044,55.84,608.84" style="stroke:#008000;stroke-width:1.0;"/><path d="M20.5,547 L20.5,574 L144.5,574 L144.5,557 L134.5,547 L20.5,547 " fill="#FEFFDD" style="stroke:#181818;stroke-width:0.5;"/><path d="M134.5,547 L134.5,557 L144.5,557 L134.5,547 " fill="#FEFFDD" style="stroke:#181818;stroke-width:0.5;"/><text fill="#000000" font-family="sans-serif" font-size="13" lengthAdjust="spacing" textLength="103" x="26.5" y="565.897">editarPrograma()</text></g><!--link abrirProgramas to PROGRAMA_ABIERTO--><g id="link_abrirProgramas_PROGRAMA_ABIERTO"><path d="M179.28,512.23 C164.2,551.3 153.5,579 153.5,579 C153.5,579 139.4954,590.6362 122.1954,605.0062 " fill="none" id="abrirProgramas-to-PROGRAMA_ABIERTO-1" style="stroke:#008000;stroke-width:1.0;"/><polygon fill="#008000" points="117.58,608.84,127.059,606.1663,121.4262,605.6452,121.9473,600.0124,117.58,608.84" style="stroke:#008000;stroke-width:1.0;"/><path d="M170.5,547 L170.5,574 L289.5,574 L289.5,557 L279.5,547 L170.5,547 " fill="#FEFFDD" style="stroke:#181818;stroke-width:0.5;"/><path d="M279.5,547 L279.5,557 L289.5,557 L279.5,547 " fill="#FEFFDD" style="stroke:#181818;stroke-width:0.5;"/><text fill="#000000" font-family="sans-serif" font-size="13" lengthAdjust="spacing" textLength="98" x="176.5" y="565.897">crearPrograma()</text></g><!--link abrirProgramas to PROGRAMAS_ABIERTO--><g id="link_abrirProgramas_PROGRAMAS_ABIERTO"><path d="M333.9,512.06 C342.91,551.52 349.5536,580.6607 354.5936,602.7207 " fill="none" id="abrirProgramas-to-PROGRAMAS_ABIERTO" style="stroke:#008000;stroke-width:1.0;"/><polygon fill="#008000" points="355.93,608.57,357.825,598.9052,354.8164,603.6956,350.0259,600.687,355.93,608.57" style="stroke:#008000;stroke-width:1.0;"/><path d="M353.5,547 L353.5,574 L490.5,574 L490.5,557 L480.5,547 L353.5,547 " fill="#FEFFDD" style="stroke:#181818;stroke-width:0.5;"/><path d="M480.5,547 L480.5,557 L490.5,557 L480.5,547 " fill="#FEFFDD" style="stroke:#181818;stroke-width:0.5;"/><text fill="#000000" font-family="sans-serif" font-size="13" lengthAdjust="spacing" textLength="116" x="359.5" y="565.897">eliminarPrograma()</text></g><!--link abrirProgramas to SISTEMA_DISPONIBLE--><g id="link_abrirProgramas_SISTEMA_DISPONIBLE"><path d="M458.11,485.71 C484.79,518.8 503.5,542 503.5,542 C503.5,542 527.1406,576.7022 545.5106,603.6522 " fill="none" id="abrirProgramas-to-SISTEMA_DISPONIBLE" style="stroke:#008000;stroke-width:1.0;"/><polygon fill="#008000" points="548.89,608.61,547.1261,598.9204,546.0738,604.4785,540.5157,603.4262,548.89,608.61" style="stroke:#008000;stroke-width:1.0;"/><path d="M531.5,547 L531.5,574 L643.5,574 L643.5,557 L633.5,547 L531.5,547 " fill="#FEFFDD" style="stroke:#181818;stroke-width:0.5;"/><path d="M633.5,547 L633.5,557 L643.5,557 L633.5,547 " fill="#FEFFDD" style="stroke:#181818;stroke-width:0.5;"/><text fill="#000000" font-family="sans-serif" font-size="13" lengthAdjust="spacing" textLength="91" x="537.5" y="565.897">mostrarMenu()</text></g><!--SRC=[dLDHQeD04FtVKopfJr8IUe4GC6rQXAIHcBzGokfEmv9rLrPJ2ANGi_GAEK9kqfDqNAjHGuIwYkBEUs-UCxF9JgYO6HPHAHIaXnXehEKX-o0aILaAb0L66C_eBQ9OGl7krRVwWnxz88JYoXazl12sq4bgcE9wBd3_ClueP3Lk0PlR5phQt6mDW7ePJHeQr6AKHWsjCiSxkp4E9WwFX18PbciplWicDD5IX08vrYoD2xUM0OhdChX8-MWag_feUBrcmySeHCmQY0qae517MZKE3Gy_Nz_q_dJaOgk7A1O51eQ8Ia8Zub2SZYgZX8opabVIF32HmEp5FnhwPlsPF5SBBZJ0piMWQW_lkWKEKc1TAumsBBUl6hAeyxd6zK9sgN5Bgo-hqDwJ7CyxUCKvxM9mh-mWI9n-ZKtM2khpI3u9QPotQbPljNnQEGldrPcwizLwIMhfymOKpFw0bAhTDUsyT9Nqh_Zy6wh_olgklvwXqGVNzvRFxdG-g-j6zlYQ1QXzLV8N]--></g></svg>