<?xml version="1.0" encoding="us-ascii" standalone="no"?><svg xmlns="http://www.w3.org/2000/svg" xmlns:xlink="http://www.w3.org/1999/xlink" contentStyleType="text/css" height="665px" preserveAspectRatio="none" style="width:659px;height:665px;background:#FFFFFF;" version="1.1" viewBox="0 0 659 665" width="659px" zoomAndPan="magnify"><defs/><g><path d="M119,7 L457,7 A12.5,12.5 0 0 1 469.5,19.5 L469.5,36.0679 L106.5,36.0679 L106.5,19.5 A12.5,12.5 0 0 1 119,7 " fill="#F1F1F1" style="stroke:#F1F1F1;stroke-width:1.0;"/><rect fill="none" height="505.0679" rx="12.5" ry="12.5" style="stroke:#181818;stroke-width:0.5;" width="363" x="106.5" y="7"/><line style="stroke:#181818;stroke-width:0.5;" x1="106.5" x2="469.5" y1="36.0679" y2="36.0679"/><text fill="#000000" font-family="sans-serif" font-size="14" lengthAdjust="spacing" textLength="115" x="230.5" y="26.9659">listarProgramas()</text><g id="listarProgramas.MostrandoLista"><rect fill="#F1F1F1" height="50" rx="12.5" ry="12.5" style="stroke:#181818;stroke-width:0.5;" width="50" x="118.5" y="140.0679"/><line style="stroke:#181818;stroke-width:0.5;" x1="118.5" x2="168.5" y1="169.1358" y2="169.1358"/><text fill="#000000" font-family="sans-serif" font-size="14" lengthAdjust="spacing" textLength="4" x="141.5" y="160.0339">&#160;</text></g><g id="listarProgramas.FiltrandoLista"><rect fill="#F1F1F1" height="50" rx="12.5" ry="12.5" style="stroke:#181818;stroke-width:0.5;" width="50" x="118.5" y="354.5679"/><line style="stroke:#181818;stroke-width:0.5;" x1="118.5" x2="168.5" y1="383.6358" y2="383.6358"/><text fill="#000000" font-family="sans-serif" font-size="14" lengthAdjust="spacing" textLength="4" x="141.5" y="374.5339">&#160;</text></g><ellipse cx="143.5" cy="57.0679" fill="#222222" rx="10" ry="10" style="stroke:#222222;stroke-width:1.0;"/><ellipse cx="143.5" cy="491.0679" fill="none" rx="11" ry="11" style="stroke:#222222;stroke-width:1.0;"/><ellipse cx="143.5" cy="491.0679" fill="#222222" rx="6" ry="6" style="stroke:#222222;stroke-width:1.0;"/><!--link *start*listarProgramas to MostrandoLista--><g id="link_*start*listarProgramas_MostrandoLista"><path d="M143.5,67.1079 C143.5,83.0279 143.5,110.5779 143.5,133.7079 " fill="none" id="*start*listarProgramas-to-MostrandoLista" style="stroke:#008000;stroke-width:1.0;"/><polygon fill="#008000" points="143.5,139.7079,147.5,130.7079,143.5,134.7079,139.5,130.7079,143.5,139.7079" style="stroke:#008000;stroke-width:1.0;"/><path d="M148.5,90.0679 L148.5,117.0679 L409.5,117.0679 L409.5,100.0679 L399.5,90.0679 L148.5,90.0679 " fill="#FEFFDD" style="stroke:#181818;stroke-width:0.5;"/><path d="M399.5,90.0679 L399.5,100.0679 L409.5,100.0679 L399.5,90.0679 " fill="#FEFFDD" style="stroke:#181818;stroke-width:0.5;"/><text fill="#000000" font-family="sans-serif" font-size="13" font-weight="bold" lengthAdjust="spacing" textLength="95" x="154.5" y="108.9649">Administrador</text><text fill="#000000" font-family="sans-serif" font-size="13" lengthAdjust="spacing" textLength="142" x="252.5" y="108.9649">solicita listar programas</text></g><!--link MostrandoLista to FiltrandoLista--><g id="link_MostrandoLista_FiltrandoLista"><path d="M143.5,190.4479 C143.5,231.4379 143.5,307.6779 143.5,348.4779 " fill="none" id="MostrandoLista-to-FiltrandoLista" style="stroke:#008000;stroke-width:1.0;"/><polygon fill="#008000" points="143.5,354.4779,147.5,345.4779,143.5,349.4779,139.5,345.4779,143.5,354.4779" style="stroke:#008000;stroke-width:1.0;"/><path d="M148.5,213.0679 L148.5,329.0679 L460.5,329.0679 L460.5,223.0679 L450.5,213.0679 L148.5,213.0679 " fill="#FEFFDD" style="stroke:#181818;stroke-width:0.5;"/><path d="M450.5,213.0679 L450.5,223.0679 L460.5,223.0679 L450.5,213.0679 " fill="#FEFFDD" style="stroke:#181818;stroke-width:0.5;"/><text fill="#000000" font-family="sans-serif" font-size="13" font-weight="bold" lengthAdjust="spacing" textLength="52" x="154.5" y="231.9649">Sistema</text><text fill="#000000" font-family="sans-serif" font-size="13" lengthAdjust="spacing" textLength="167" x="209.5" y="231.9649">presenta lista de programas</text><text fill="#000000" font-family="sans-serif" font-size="13" lengthAdjust="spacing" textLength="291" x="154.5" y="249.6709">&#8226; C&#243;digo, nombre, descripci&#243;n de cada programa</text><text fill="#000000" font-family="sans-serif" font-size="13" lengthAdjust="spacing" textLength="166" x="154.5" y="267.377">&#8226; Permite solicitar filtrar lista</text><text fill="#000000" font-family="sans-serif" font-size="13" lengthAdjust="spacing" textLength="241" x="154.5" y="285.083">&#8226; Permite solicitar crear programa nuevo</text><text fill="#000000" font-family="sans-serif" font-size="13" lengthAdjust="spacing" textLength="218" x="154.5" y="302.789">&#8226; Permite solicitar eliminar programa</text><text fill="#000000" font-family="sans-serif" font-size="13" lengthAdjust="spacing" textLength="205" x="154.5" y="320.495">&#8226; Permite solicitar editar programa</text></g><!--link FiltrandoLista to FiltrandoLista--><g id="link_FiltrandoLista_FiltrandoLista"><path d="M168.68,367.6179 C178.41,367.0879 186.5,371.0679 186.5,379.5679 C186.5,388.0679 184.4011,392.3743 174.6711,391.8443 " fill="none" id="FiltrandoLista-to-FiltrandoLista" style="stroke:#008000;stroke-width:1.0;"/><polygon fill="#008000" points="168.68,391.5179,177.4491,396.0015,173.6726,391.7899,177.8842,388.0133,168.68,391.5179" style="stroke:#008000;stroke-width:1.0;"/><path d="M191.5,357.0679 L191.5,402.0679 L413.5,402.0679 L413.5,367.0679 L403.5,357.0679 L191.5,357.0679 " fill="#FEFFDD" style="stroke:#181818;stroke-width:0.5;"/><path d="M403.5,357.0679 L403.5,367.0679 L413.5,367.0679 L403.5,357.0679 " fill="#FEFFDD" style="stroke:#181818;stroke-width:0.5;"/><text fill="#000000" font-family="sans-serif" font-size="13" font-weight="bold" lengthAdjust="spacing" textLength="95" x="197.5" y="375.9649">Administrador</text><text fill="#000000" font-family="sans-serif" font-size="13" lengthAdjust="spacing" textLength="103" x="295.5" y="375.9649">solicita filtrar lista</text><text fill="#000000" font-family="sans-serif" font-size="13" font-weight="bold" lengthAdjust="spacing" textLength="52" x="197.5" y="393.6709">Sistema</text><text fill="#000000" font-family="sans-serif" font-size="13" lengthAdjust="spacing" textLength="125" x="252.5" y="393.6709">presenta lista filtrada</text></g><!--link FiltrandoLista to *end*listarProgramas--><g id="link_FiltrandoLista_*end*listarProgramas"><path d="M143.5,404.5979 C143.5,428.1479 143.5,456.8979 143.5,473.9179 " fill="none" id="FiltrandoLista-to-*end*listarProgramas" style="stroke:#008000;stroke-width:1.0;"/><polygon fill="#008000" points="143.5,479.9179,147.5,470.9179,143.5,474.9179,139.5,470.9179,143.5,479.9179" style="stroke:#008000;stroke-width:1.0;"/><path d="M148.5,430.0679 L148.5,457.0679 L428.5,457.0679 L428.5,440.0679 L418.5,430.0679 L148.5,430.0679 " fill="#FEFFDD" style="stroke:#181818;stroke-width:0.5;"/><path d="M418.5,430.0679 L418.5,440.0679 L428.5,440.0679 L418.5,430.0679 " fill="#FEFFDD" style="stroke:#181818;stroke-width:0.5;"/><text fill="#000000" font-family="sans-serif" font-size="13" font-weight="bold" lengthAdjust="spacing" textLength="95" x="154.5" y="448.9649">Administrador</text><text fill="#000000" font-family="sans-serif" font-size="13" lengthAdjust="spacing" textLength="161" x="252.5" y="448.9649">solicita una de las opciones</text></g><g id="EDITANDO_PROGRAMA"><rect fill="#F1F1F1" height="50" rx="12.5" ry="12.5" style="stroke:#181818;stroke-width:0.5;" width="176" x="7" y="609"/><line style="stroke:#181818;stroke-width:0.5;" x1="7" x2="183" y1="638.0679" y2="638.0679"/><text fill="#000000" font-family="sans-serif" font-size="14" lengthAdjust="spacing" textLength="156" x="17" y="628.9659">EDITANDO_PROGRAMA</text></g><g id="LISTANDO_PROGRAMAS"><rect fill="#F1F1F1" height="50" rx="12.5" ry="12.5" style="stroke:#181818;stroke-width:0.5;" width="181" x="282.5" y="609"/><line style="stroke:#181818;stroke-width:0.5;" x1="282.5" x2="463.5" y1="638.0679" y2="638.0679"/><text fill="#000000" font-family="sans-serif" font-size="14" lengthAdjust="spacing" textLength="161" x="292.5" y="628.9659">LISTANDO_PROGRAMAS</text></g><g id="MENU_PRINCIPAL"><rect fill="#F1F1F1" height="50" rx="12.5" ry="12.5" style="stroke:#181818;stroke-width:0.5;" width="139" x="498.5" y="609"/><line style="stroke:#181818;stroke-width:0.5;" x1="498.5" x2="637.5" y1="638.0679" y2="638.0679"/><text fill="#000000" font-family="sans-serif" font-size="14" lengthAdjust="spacing" textLength="119" x="508.5" y="628.9659">MENU_PRINCIPAL</text></g><!--link listarProgramas to EDITANDO_PROGRAMA--><g id="link_listarProgramas_EDITANDO_PROGRAMA"><path d="M106.37,456.39 C62,504.25 27,542 27,542 C27,542 27,579 27,579 C27,579 41.7699,590.7405 59.8799,605.1105 " fill="none" id="listarProgramas-to-EDITANDO_PROGRAMA" style="stroke:#008000;stroke-width:1.0;"/><polygon fill="#008000" points="64.58,608.84,60.0161,600.1124,60.6632,605.7321,55.0435,606.3792,64.58,608.84" style="stroke:#008000;stroke-width:1.0;"/><path d="M32,547 L32,574 L156,574 L156,557 L146,547 L32,547 " fill="#FEFFDD" style="stroke:#181818;stroke-width:0.5;"/><path d="M146,547 L146,557 L156,557 L146,547 " fill="#FEFFDD" style="stroke:#181818;stroke-width:0.5;"/><text fill="#000000" font-family="sans-serif" font-size="13" lengthAdjust="spacing" textLength="103" x="38" y="565.897">editarPrograma()</text></g><!--link listarProgramas to EDITANDO_PROGRAMA--><g id="link_listarProgramas_EDITANDO_PROGRAMA"><path d="M190.78,512.23 C175.7,551.3 165,579 165,579 C165,579 149.7019,590.8067 131.0619,605.1767 " fill="none" id="listarProgramas-to-EDITANDO_PROGRAMA-1" style="stroke:#008000;stroke-width:1.0;"/><polygon fill="#008000" points="126.31,608.84,135.88,606.5129,130.2699,605.7872,130.9956,600.1771,126.31,608.84" style="stroke:#008000;stroke-width:1.0;"/><path d="M183,547 L183,574 L302,574 L302,557 L292,547 L183,547 " fill="#FEFFDD" style="stroke:#181818;stroke-width:0.5;"/><path d="M292,547 L292,557 L302,557 L292,547 " fill="#FEFFDD" style="stroke:#181818;stroke-width:0.5;"/><text fill="#000000" font-family="sans-serif" font-size="13" lengthAdjust="spacing" textLength="98" x="189" y="565.897">crearPrograma()</text></g><!--link listarProgramas to LISTANDO_PROGRAMAS--><g id="link_listarProgramas_LISTANDO_PROGRAMAS"><path d="M345.4,512.06 C354.41,551.52 361.0536,580.6607 366.0936,602.7207 " fill="none" id="listarProgramas-to-LISTANDO_PROGRAMAS" style="stroke:#008000;stroke-width:1.0;"/><polygon fill="#008000" points="367.43,608.57,369.325,598.9052,366.3164,603.6956,361.5259,600.687,367.43,608.57" style="stroke:#008000;stroke-width:1.0;"/><path d="M366,547 L366,574 L503,574 L503,557 L493,547 L366,547 " fill="#FEFFDD" style="stroke:#181818;stroke-width:0.5;"/><path d="M493,547 L493,557 L503,557 L493,547 " fill="#FEFFDD" style="stroke:#181818;stroke-width:0.5;"/><text fill="#000000" font-family="sans-serif" font-size="13" lengthAdjust="spacing" textLength="116" x="372" y="565.897">eliminarPrograma()</text></g><!--link listarProgramas to MENU_PRINCIPAL--><g id="link_listarProgramas_MENU_PRINCIPAL"><path d="M469.59,484.69 C496.82,518.32 516,542 516,542 C516,542 535.6832,576.4505 551.0832,603.4005 " fill="none" id="listarProgramas-to-MENU_PRINCIPAL" style="stroke:#008000;stroke-width:1.0;"/><polygon fill="#008000" points="554.06,608.61,553.0677,598.8113,551.5793,604.2688,546.1218,602.7804,554.06,608.61" style="stroke:#008000;stroke-width:1.0;"/><path d="M540,547 L540,574 L652,574 L652,557 L642,547 L540,547 " fill="#FEFFDD" style="stroke:#181818;stroke-width:0.5;"/><path d="M642,547 L642,557 L652,557 L642,547 " fill="#FEFFDD" style="stroke:#181818;stroke-width:0.5;"/><text fill="#000000" font-family="sans-serif" font-size="13" lengthAdjust="spacing" textLength="91" x="546" y="565.897">mostrarMenu()</text></g><!--SRC=[fLDHQi904FtVKopsHulI2uWGr9Q0qQ3jbqXPizEmcEo6JIn8AVGilO97y2OzIIUR9arM6j1kGa9stdlpCZERxeHCc6OnZOI4x900JLHqo3y8IJEM0GRmhNsjGeInbEBTiVQwlGvz8uJYAZWTl13dgJJJJ78ro_7dyNiHrUC6iBxTqC7w9jG0SZCOMHhKOAH23ILpppkpCToE71uBAN8iLtfujntHL4KY4CWftDAaj6ie87cXWujK3ojRtOXbzYyVAun2p8o3H4CAidH0ELWUlZu-wVXqv29KVHIBjnhwY4e3BP90d8uofmICiufNqNpGiS3ivKzg-cBywI9N2oxGK2i6bNjuLIrmY0GMjiPemtAHsSYophyrRXRocXgtzFgy2kqzAV3y2gyugDSOt4ip216Ely8cAmdDUIJlXDX7hfvsEd4VdVbayUml5mzBntD8mq3HWfBQxP5Azp-gPcOk5fsvgwReolBwCreN2tlJ-HEAklEnwpkpfcXiJh3sGExhUjy0]--></g></svg>