<?xml version="1.0" encoding="us-ascii" standalone="no"?><svg xmlns="http://www.w3.org/2000/svg" xmlns:xlink="http://www.w3.org/1999/xlink" contentStyleType="text/css" height="760px" preserveAspectRatio="none" style="width:813px;height:760px;background:#FFFFFF;" version="1.1" viewBox="0 0 813 760" width="813px" zoomAndPan="magnify"><defs/><g><path d="M19.5,7 L787.5,7 A12.5,12.5 0 0 1 800,19.5 L800,36.0679 L7,36.0679 L7,19.5 A12.5,12.5 0 0 1 19.5,7 " fill="#F1F1F1" style="stroke:#F1F1F1;stroke-width:1.0;"/><rect fill="none" height="600.0679" rx="12.5" ry="12.5" style="stroke:#181818;stroke-width:0.5;" width="793" x="7" y="7"/><line style="stroke:#181818;stroke-width:0.5;" x1="7" x2="800" y1="36.0679" y2="36.0679"/><text fill="#000000" font-family="sans-serif" font-size="14" lengthAdjust="spacing" textLength="102" x="352.5" y="26.9659">editarRecurso()</text><g id="editarRecurso.PresentingData"><rect fill="#F1F1F1" height="50" rx="12.5" ry="12.5" style="stroke:#181818;stroke-width:0.5;" width="50" x="482" y="140.0679"/><line style="stroke:#181818;stroke-width:0.5;" x1="482" x2="532" y1="169.1358" y2="169.1358"/><text fill="#000000" font-family="sans-serif" font-size="14" lengthAdjust="spacing" textLength="4" x="505" y="160.0339">&#160;</text></g><g id="editarRecurso.ModifyingData"><rect fill="#F1F1F1" height="50" rx="12.5" ry="12.5" style="stroke:#181818;stroke-width:0.5;" width="50" x="268" y="316.0679"/><line style="stroke:#181818;stroke-width:0.5;" x1="268" x2="318" y1="345.1358" y2="345.1358"/><text fill="#000000" font-family="sans-serif" font-size="14" lengthAdjust="spacing" textLength="4" x="291" y="336.0339">&#160;</text></g><g id="elem_c1"><polygon fill="#F1F1F1" points="271,457.0679,283,469.0679,271,481.0679,259,469.0679,271,457.0679" style="stroke:#181818;stroke-width:0.5;"/></g><g id="elem_c2"><polygon fill="#F1F1F1" points="507,572.0679,519,584.0679,507,596.0679,495,584.0679,507,572.0679" style="stroke:#181818;stroke-width:0.5;"/></g><ellipse cx="507" cy="57.0679" fill="#222222" rx="10" ry="10" style="stroke:#222222;stroke-width:1.0;"/><ellipse cx="29" cy="584.0679" fill="none" rx="11" ry="11" style="stroke:#222222;stroke-width:1.0;"/><ellipse cx="29" cy="584.0679" fill="#222222" rx="6" ry="6" style="stroke:#222222;stroke-width:1.0;"/><!--link *start*editarRecurso to PresentingData--><g id="link_*start*editarRecurso_PresentingData"><path d="M507,67.1079 C507,83.0279 507,110.5779 507,133.7079 " fill="none" id="*start*editarRecurso-to-PresentingData" style="stroke:#008000;stroke-width:1.0;"/><polygon fill="#008000" points="507,139.7079,511,130.7079,507,134.7079,503,130.7079,507,139.7079" style="stroke:#008000;stroke-width:1.0;"/><path d="M512,90.0679 L512,117.0679 L758,117.0679 L758,100.0679 L748,90.0679 L512,90.0679 " fill="#FEFFDD" style="stroke:#181818;stroke-width:0.5;"/><path d="M748,90.0679 L748,100.0679 L758,100.0679 L748,90.0679 " fill="#FEFFDD" style="stroke:#181818;stroke-width:0.5;"/><text fill="#000000" font-family="sans-serif" font-size="13" font-weight="bold" lengthAdjust="spacing" textLength="95" x="518" y="108.9649">Administrador</text><text fill="#000000" font-family="sans-serif" font-size="13" lengthAdjust="spacing" textLength="127" x="616" y="108.9649">solicita editar recurso</text></g><!--link PresentingData to ModifyingData--><g id="link_PresentingData_ModifyingData"><path d="M481.77,171.6479 C430.09,183.0679 317,208.0679 317,208.0679 C317,208.0679 305.4034,271.8447 298.4734,309.9547 " fill="none" id="PresentingData-to-ModifyingData" style="stroke:#008000;stroke-width:1.0;"/><polygon fill="#008000" points="297.4,315.8579,302.9456,307.7188,298.2945,310.9386,295.0747,306.2875,297.4,315.8579" style="stroke:#008000;stroke-width:1.0;"/><path d="M322,213.0679 L322,293.0679 L488,293.0679 L488,223.0679 L478,213.0679 L322,213.0679 " fill="#FEFFDD" style="stroke:#181818;stroke-width:0.5;"/><path d="M478,213.0679 L478,223.0679 L488,223.0679 L478,213.0679 " fill="#FEFFDD" style="stroke:#181818;stroke-width:0.5;"/><text fill="#000000" font-family="sans-serif" font-size="13" font-weight="bold" lengthAdjust="spacing" textLength="52" x="328" y="231.9649">Sistema</text><text fill="#000000" font-family="sans-serif" font-size="13" lengthAdjust="spacing" textLength="53" x="383" y="231.9649">presenta</text><text fill="#000000" font-family="sans-serif" font-size="13" lengthAdjust="spacing" textLength="118" x="328" y="249.6709">&#8226; c&#243;digo del recurso</text><text fill="#000000" font-family="sans-serif" font-size="13" lengthAdjust="spacing" textLength="125" x="328" y="267.377">&#8226; nombre del recurso</text><text fill="#000000" font-family="sans-serif" font-size="13" lengthAdjust="spacing" textLength="145" x="328" y="285.083">&#8226; descripci&#243;n del recurso</text></g><!--link ModifyingData to c1--><g id="link_ModifyingData_c1"><path d="M288.76,366.3579 C283.86,394.3979 277.0813,433.2072 273.6913,452.6372 " fill="none" id="ModifyingData-to-c1" style="stroke:#008000;stroke-width:1.0;"/><polygon fill="#008000" points="272.66,458.5479,278.1474,450.3694,273.5194,453.6223,270.2664,448.9943,272.66,458.5479" style="stroke:#008000;stroke-width:1.0;"/><path d="M291,389.0679 L291,434.0679 L468,434.0679 L468,399.0679 L458,389.0679 L291,389.0679 " fill="#FEFFDD" style="stroke:#181818;stroke-width:0.5;"/><path d="M458,389.0679 L458,399.0679 L468,399.0679 L458,389.0679 " fill="#FEFFDD" style="stroke:#181818;stroke-width:0.5;"/><text fill="#000000" font-family="sans-serif" font-size="13" font-weight="bold" lengthAdjust="spacing" textLength="95" x="297" y="407.9649">Administrador</text><text fill="#000000" font-family="sans-serif" font-size="13" lengthAdjust="spacing" textLength="58" x="395" y="407.9649">introduce</text><text fill="#000000" font-family="sans-serif" font-size="13" lengthAdjust="spacing" textLength="151" x="297" y="425.6709">modificaciones (opcional)</text></g><!--link c1 to c2--><g id="link_c1_c2"><path d="M271.13,481.0479 C271.4,503.8179 272,554.0679 272,554.0679 C272,554.0679 446.7752,575.6328 491.2452,581.1228 " fill="none" id="c1-to-c2" style="stroke:#008000;stroke-width:1.0;"/><polygon fill="#008000" points="497.2,581.8579,488.7579,576.7853,492.2377,581.2453,487.7777,584.7251,497.2,581.8579" style="stroke:#008000;stroke-width:1.0;"/><path d="M277,513.0679 L277,540.0679 L488,540.0679 L488,523.0679 L478,513.0679 L277,513.0679 " fill="#FEFFDD" style="stroke:#181818;stroke-width:0.5;"/><path d="M478,513.0679 L478,523.0679 L488,523.0679 L478,513.0679 " fill="#FEFFDD" style="stroke:#181818;stroke-width:0.5;"/><text fill="#000000" font-family="sans-serif" font-size="13" font-weight="bold" lengthAdjust="spacing" textLength="95" x="283" y="531.9649">Administrador</text><text fill="#000000" font-family="sans-serif" font-size="13" lengthAdjust="spacing" textLength="92" x="381" y="531.9649">solicita guardar</text></g><!--link c2 to PresentingData--><g id="link_c2_PresentingData"><path d="M507,571.7579 C507,515.9079 507,275.0279 507,196.2879 " fill="none" id="c2-to-PresentingData" style="stroke:#FF0000;stroke-width:1.0;"/><polygon fill="#FF0000" points="507,190.2879,503,199.2879,507,195.2879,511,199.2879,507,190.2879" style="stroke:#FF0000;stroke-width:1.0;"/><path d="M512,389.0679 L512,434.0679 L643,434.0679 L643,399.0679 L633,389.0679 L512,389.0679 " fill="#FEFFDD" style="stroke:#181818;stroke-width:0.5;"/><path d="M633,389.0679 L633,399.0679 L643,399.0679 L633,389.0679 " fill="#FEFFDD" style="stroke:#181818;stroke-width:0.5;"/><text fill="#000000" font-family="sans-serif" font-size="13" lengthAdjust="spacing" textLength="110" x="518" y="407.9649">c&#243;digo del recurso</text><text fill="#000000" font-family="sans-serif" font-size="13" lengthAdjust="spacing" textLength="52" x="518" y="425.6709">ya existe</text></g><!--link c2 to PresentingData--><g id="link_c2_PresentingData"><path d="M512.74,577.2479 C539.31,550.3079 649,439.0679 649,439.0679 C649,439.0679 649,384.0679 649,384.0679 C649,384.0679 562.9847,252.0155 526.0147,195.2555 " fill="none" id="c2-to-PresentingData-1" style="stroke:#008000;stroke-width:1.0;"/><polygon fill="#008000" points="522.74,190.2279,524.3003,199.9524,525.4689,194.4176,531.0037,195.5862,522.74,190.2279" style="stroke:#008000;stroke-width:1.0;"/><path d="M654,389.0679 L654,434.0679 L791,434.0679 L791,399.0679 L781,389.0679 L654,389.0679 " fill="#FEFFDD" style="stroke:#181818;stroke-width:0.5;"/><path d="M781,389.0679 L781,399.0679 L791,399.0679 L781,389.0679 " fill="#FEFFDD" style="stroke:#181818;stroke-width:0.5;"/><text fill="#000000" font-family="sans-serif" font-size="13" lengthAdjust="spacing" textLength="116" x="660" y="407.9649">recurso actualizado</text><text fill="#000000" font-family="sans-serif" font-size="13" lengthAdjust="spacing" textLength="115" x="660" y="425.6709">continuar editando</text></g><!--link c1 to *end*editarRecurso--><g id="link_c1_*end*editarRecurso"><path d="M261.17,471.3479 C218.21,476.9679 49,499.0679 49,499.0679 C49,499.0679 38.0603,545.0112 32.7603,567.2612 " fill="none" id="c1-to-*end*editarRecurso" style="stroke:#008000;stroke-width:1.0;"/><polygon fill="#008000" points="31.37,573.0979,37.3466,565.2697,32.5286,568.234,29.5643,563.416,31.37,573.0979" style="stroke:#008000;stroke-width:1.0;"/><path d="M54,504.0679 L54,549.0679 L263,549.0679 L263,514.0679 L253,504.0679 L54,504.0679 " fill="#FEFFDD" style="stroke:#181818;stroke-width:0.5;"/><path d="M253,504.0679 L253,514.0679 L263,514.0679 L253,504.0679 " fill="#FEFFDD" style="stroke:#181818;stroke-width:0.5;"/><text fill="#000000" font-family="sans-serif" font-size="13" font-weight="bold" lengthAdjust="spacing" textLength="95" x="60" y="522.9649">Administrador</text><text fill="#000000" font-family="sans-serif" font-size="13" lengthAdjust="spacing" textLength="90" x="158" y="522.9649">solicita finalizar</text><text fill="#000000" font-family="sans-serif" font-size="13" lengthAdjust="spacing" textLength="158" x="60" y="540.6709">transferir a abrirRecursos()</text></g><g id="RECURSOS_ABIERTO"><rect fill="#F1F1F1" height="50" rx="12.5" ry="12.5" style="stroke:#181818;stroke-width:0.5;" width="157" x="325" y="704"/><line style="stroke:#181818;stroke-width:0.5;" x1="325" x2="482" y1="733.0679" y2="733.0679"/><text fill="#000000" font-family="sans-serif" font-size="14" lengthAdjust="spacing" textLength="137" x="335" y="723.9659">RECURSOS_ABIERTO</text></g><!--link editarRecurso to RECURSOS_ABIERTO--><g id="link_editarRecurso_RECURSOS_ABIERTO"><path d="M403.5,607.08 C403.5,647.27 403.5,676.12 403.5,697.95 " fill="none" id="editarRecurso-to-RECURSOS_ABIERTO" style="stroke:#008000;stroke-width:1.0;"/><polygon fill="#008000" points="403.5,703.95,407.5,694.95,403.5,698.95,399.5,694.95,403.5,703.95" style="stroke:#008000;stroke-width:1.0;"/><path d="M408.5,642 L408.5,669 L519.5,669 L519.5,652 L509.5,642 L408.5,642 " fill="#FEFFDD" style="stroke:#181818;stroke-width:0.5;"/><path d="M509.5,642 L509.5,652 L519.5,652 L509.5,642 " fill="#FEFFDD" style="stroke:#181818;stroke-width:0.5;"/><text fill="#000000" font-family="sans-serif" font-size="13" lengthAdjust="spacing" textLength="90" x="414.5" y="660.897">abrirRecursos()</text></g><!--SRC=[dLJDJW8n4BxlKpHu0HDYu4msGUNWmM0MFH5YIZlWXDrsC-qceZ7nMNm57e4tyKdiRb4f2mRPJVPdPlfzyyrCQnQeSauyOoagiCiSMAxJPVaJHSPo2mmaMau9Y8ACPjomHc1fjXhiDMBkyk4DTxkWEm83ogAQNtFBw_vRBN6shBj5X_LwuacZW3ZUjdTtxTLZV3vXxV7Pd03Kf1tlerNQBTUg5BYe3Brft9SPAZIMkDJKkvZ6pEWKXPEraSl8gwiMW98LoYzjI1DaK1UsBu6H8uUCLzIv1_F1d-yVJAnN4kUQIKY3F4gVqjcKOAzBWX64kS3rIjK2wXg2H0C9elEFmg6of6KXF79MWgBW0hK2mvewBxzusZgGX6jtmDmzfMNpWfFaT8YYMr8Go6Fdur3vbsuudik-_Kdqhr6axrqbRC5JV77QF9Gk5pfPVXoLrCVLpss7KmeuGrMn-nAw26LcG4YCCpvrxyrMDysTDhv5KNWwREUI3AuUaj5mzDY_l1aazyCeI6eNzmVp2m00]--></g></svg>