<?xml version="1.0" encoding="us-ascii" standalone="no"?><svg xmlns="http://www.w3.org/2000/svg" xmlns:xlink="http://www.w3.org/1999/xlink" contentStyleType="text/css" height="217px" preserveAspectRatio="none" style="width:665px;height:217px;background:#FFFFFF;" version="1.1" viewBox="0 0 665 217" width="665px" zoomAndPan="magnify"><defs/><g><text fill="#000000" font-family="sans-serif" font-size="12" font-weight="bold" lengthAdjust="spacing" textLength="238" x="6" y="18.8281">GESTI&#211;N DE PROGRAMAS ACAD&#201;MICOS</text><line style="stroke:#AAAAAA;stroke-width:1.0;" x1="6" x2="658" y1="26.8441" y2="26.8441"/><line style="stroke:#AAAAAA;stroke-width:1.0;" x1="6" x2="658" y1="28.8441" y2="28.8441"/><text fill="#000000" font-family="sans-serif" font-size="12" lengthAdjust="spacing" textLength="117" x="7" y="46.1722">CODIGO PROGRAMA</text><text fill="#000000" font-family="sans-serif" font-size="12" lengthAdjust="spacing" textLength="120" x="126" y="46.1722">NOMBRE PROGRAMA</text><text fill="#000000" font-family="sans-serif" font-size="12" lengthAdjust="spacing" textLength="148" x="335" y="46.1722">DESCRIPCION PROGRAMA</text><text fill="#000000" font-family="sans-serif" font-size="12" lengthAdjust="spacing" textLength="46" x="599" y="46.1722">ACCI&#211;N</text><line style="stroke:#AAAAAA;stroke-width:1.0;" x1="7" x2="125" y1="55.1882" y2="55.1882"/><line style="stroke:#AAAAAA;stroke-width:1.0;" x1="126" x2="334" y1="55.1882" y2="55.1882"/><line style="stroke:#AAAAAA;stroke-width:1.0;" x1="335" x2="598" y1="55.1882" y2="55.1882"/><line style="stroke:#AAAAAA;stroke-width:1.0;" x1="599" x2="657" y1="55.1882" y2="55.1882"/><text fill="#000000" font-family="sans-serif" font-size="12" lengthAdjust="spacing" textLength="17" x="7" y="72.5163">GII</text><text fill="#000000" font-family="sans-serif" font-size="12" lengthAdjust="spacing" textLength="125" x="126" y="72.5163">Ingenier&#237;a Inform&#225;tica</text><text fill="#000000" font-family="sans-serif" font-size="12" lengthAdjust="spacing" textLength="180" x="335" y="72.5163">Grado en Ingenier&#237;a Inform&#225;tica</text><rect fill="#EEEEEE" height="20.3441" rx="5" ry="5" style="stroke:#000000;stroke-width:2.5;" width="52" x="601.5" y="62.1882"/><text fill="#000000" font-family="sans-serif" font-size="12" lengthAdjust="spacing" textLength="33" x="611" y="77.0163">Editar</text><text fill="#000000" font-family="sans-serif" font-size="12" lengthAdjust="spacing" textLength="26" x="7" y="99.8604">GIOI</text><text fill="#000000" font-family="sans-serif" font-size="12" lengthAdjust="spacing" textLength="207" x="126" y="99.8604">Ingenier&#237;a en Organizaci&#243;n Industrial</text><text fill="#000000" font-family="sans-serif" font-size="12" lengthAdjust="spacing" textLength="262" x="335" y="99.8604">Grado en Ingenier&#237;a en Organizaci&#243;n Industrial</text><rect fill="#EEEEEE" height="20.3441" rx="5" ry="5" style="stroke:#000000;stroke-width:2.5;" width="52" x="601.5" y="89.5323"/><text fill="#000000" font-family="sans-serif" font-size="12" lengthAdjust="spacing" textLength="33" x="611" y="104.3604">Editar</text><text fill="#000000" font-family="sans-serif" font-size="12" lengthAdjust="spacing" textLength="30" x="7" y="127.2045">GXYZ</text><text fill="#000000" font-family="sans-serif" font-size="12" lengthAdjust="spacing" textLength="125" x="126" y="127.2045">Nombre del programa</text><text fill="#000000" font-family="sans-serif" font-size="12" lengthAdjust="spacing" textLength="145" x="335" y="127.2045">Descripci&#243;n del programa</text><rect fill="#EEEEEE" height="20.3441" rx="5" ry="5" style="stroke:#000000;stroke-width:2.5;" width="52" x="601.5" y="116.8765"/><text fill="#000000" font-family="sans-serif" font-size="12" lengthAdjust="spacing" textLength="33" x="611" y="131.7045">Editar</text><line style="stroke:#000000;stroke-width:1.0;" x1="6" x2="125" y1="32.3441" y2="32.3441"/><line style="stroke:#000000;stroke-width:1.0;" x1="125" x2="334" y1="32.3441" y2="32.3441"/><line style="stroke:#000000;stroke-width:1.0;" x1="334" x2="598" y1="32.3441" y2="32.3441"/><line style="stroke:#000000;stroke-width:1.0;" x1="598" x2="657" y1="32.3441" y2="32.3441"/><line style="stroke:#000000;stroke-width:1.0;" x1="6" x2="125" y1="140.7206" y2="140.7206"/><line style="stroke:#000000;stroke-width:1.0;" x1="125" x2="334" y1="140.7206" y2="140.7206"/><line style="stroke:#000000;stroke-width:1.0;" x1="334" x2="598" y1="140.7206" y2="140.7206"/><line style="stroke:#000000;stroke-width:1.0;" x1="598" x2="657" y1="140.7206" y2="140.7206"/><line style="stroke:#000000;stroke-width:1.0;" x1="6" x2="6" y1="32.3441" y2="50.6882"/><line style="stroke:#000000;stroke-width:1.0;" x1="657" x2="657" y1="113.3765" y2="140.7206"/><line style="stroke:#000000;stroke-width:1.0;" x1="657" x2="657" y1="86.0323" y2="113.3765"/><line style="stroke:#000000;stroke-width:1.0;" x1="657" x2="657" y1="58.6882" y2="86.0323"/><line style="stroke:#000000;stroke-width:1.0;" x1="657" x2="657" y1="50.6882" y2="58.6882"/><line style="stroke:#000000;stroke-width:1.0;" x1="657" x2="657" y1="32.3441" y2="50.6882"/><line style="stroke:#000000;stroke-width:1.0;" x1="6" x2="6" y1="113.3765" y2="140.7206"/><line style="stroke:#000000;stroke-width:1.0;" x1="6" x2="6" y1="86.0323" y2="113.3765"/><line style="stroke:#000000;stroke-width:1.0;" x1="6" x2="6" y1="58.6882" y2="86.0323"/><line style="stroke:#000000;stroke-width:1.0;" x1="6" x2="6" y1="50.6882" y2="58.6882"/><line style="stroke:#AAAAAA;stroke-width:1.5;" x1="6" x2="658" y1="146.2206" y2="146.2206"/><text fill="#000000" font-family="sans-serif" font-size="12" font-weight="bold" lengthAdjust="spacing" textLength="51" x="7" y="164.5487">BUSCAR:</text><text fill="#000000" font-family="sans-serif" font-size="12" lengthAdjust="spacing" textLength="125" x="61" y="164.5487">[                                       ]</text><rect fill="#EEEEEE" height="20.3441" rx="5" ry="5" style="stroke:#000000;stroke-width:2.5;" width="60" x="190.5" y="154.2206"/><text fill="#000000" font-family="sans-serif" font-size="12" lengthAdjust="spacing" textLength="33" x="204" y="169.0487">Filtrar</text><line style="stroke:#AAAAAA;stroke-width:1.5;" x1="6" x2="658" y1="183.5647" y2="183.5647"/><rect fill="#EEEEEE" height="20.3441" rx="5" ry="5" style="stroke:#000000;stroke-width:2.5;" width="92" x="9.5" y="191.5647"/><text fill="#000000" font-family="sans-serif" font-size="12" lengthAdjust="spacing" textLength="69" x="21" y="206.3928">Crear nuevo</text><rect fill="#EEEEEE" height="20.3441" rx="5" ry="5" style="stroke:#000000;stroke-width:2.5;" width="156" x="108.5" y="191.5647"/><text fill="#000000" font-family="sans-serif" font-size="12" lengthAdjust="spacing" textLength="113" x="130" y="206.3928">Borrar seleccionado</text><rect fill="#EEEEEE" height="20.3441" rx="5" ry="5" style="stroke:#000000;stroke-width:2.5;" width="116" x="271.5" y="191.5647"/><text fill="#000000" font-family="sans-serif" font-size="12" lengthAdjust="spacing" textLength="83" x="288" y="206.3928">Volver al men&#250;</text><!--SRC=[ZPB1Rfj048Rl-nHpJ5IHEgvJLIYEWXUCS8snmBRQMZaiiAOhuLrhMHorJdBFEK_G1-YfjrvviGvkqrYH6XK16cR- -NRdPoyhmxIfM6cW56qyrQhGRCqgwrfeliAGansGy_J2zv9Pq3nCmFLW6aT-x8HE0WvrtEO-36YKdBzEBm18lzydkrS0D783F_ehXHkOHE4WzWuphfVGE9ZI89eSfXrAsvK8W6NTFDxuvGS1LWDPS2cuRhupZ5TAhvjlHcGCIxvckG8kNz8ilLpWe5TxNlGSYBsHBfWKNraccXyjAQyhemKh_yL_kULmkGyVFxKsg7MgEUIyXCqVjrihU9LfiVbDU5OxODpYStU7hnt-ai4yeKvixurVmlzTLorlA4gZ4VX4MrBDcGPPywtQImPAem8gNl8i4qhYuFlyGfLRhW5dMtFP_4J4BI6NNERj8I9aMZ9fvk4OK5HX6voUT3lTticRezdd6eOyXTCpw7RiNiVkd07rPj2MZycHFnrlkr2fMcVeZMZzIsk3X6CoObi6SIsDM7CReWsN8_VzOm8ykHLQIToD8QD5-2HusxC6ma32TRlXHKXSlc8rddHFPYeNih1XFXjQxyYOoQ9c1R9vHQX2hlvYWvVy0W00]--></g></svg>