<?xml version="1.0" encoding="us-ascii" standalone="no"?><svg xmlns="http://www.w3.org/2000/svg" xmlns:xlink="http://www.w3.org/1999/xlink" contentStyleType="text/css" height="629px" preserveAspectRatio="none" style="width:658px;height:629px;background:#FFFFFF;" version="1.1" viewBox="0 0 658 629" width="658px" zoomAndPan="magnify"><defs/><g><path d="M127.5,7 L448.5,7 A12.5,12.5 0 0 1 461,19.5 L461,36.0679 L115,36.0679 L115,19.5 A12.5,12.5 0 0 1 127.5,7 " fill="#F1F1F1" style="stroke:#F1F1F1;stroke-width:1.0;"/><rect fill="none" height="469.0679" rx="12.5" ry="12.5" style="stroke:#181818;stroke-width:0.5;" width="346" x="115" y="7"/><line style="stroke:#181818;stroke-width:0.5;" x1="115" x2="461" y1="36.0679" y2="36.0679"/><text fill="#000000" font-family="sans-serif" font-size="14" lengthAdjust="spacing" textLength="115" x="230.5" y="26.9659">listarProgramas()</text><g id="listarProgramas.MostrandoLista"><rect fill="#F1F1F1" height="50" rx="12.5" ry="12.5" style="stroke:#181818;stroke-width:0.5;" width="50" x="127" y="140.0679"/><line style="stroke:#181818;stroke-width:0.5;" x1="127" x2="177" y1="169.1358" y2="169.1358"/><text fill="#000000" font-family="sans-serif" font-size="14" lengthAdjust="spacing" textLength="4" x="150" y="160.0339">&#160;</text></g><g id="listarProgramas.FiltrandoLista"><rect fill="#F1F1F1" height="50" rx="12.5" ry="12.5" style="stroke:#181818;stroke-width:0.5;" width="50" x="127" y="318.5679"/><line style="stroke:#181818;stroke-width:0.5;" x1="127" x2="177" y1="347.6358" y2="347.6358"/><text fill="#000000" font-family="sans-serif" font-size="14" lengthAdjust="spacing" textLength="4" x="150" y="338.5339">&#160;</text></g><ellipse cx="152" cy="57.0679" fill="#222222" rx="10" ry="10" style="stroke:#222222;stroke-width:1.0;"/><ellipse cx="152" cy="455.0679" fill="none" rx="11" ry="11" style="stroke:#222222;stroke-width:1.0;"/><ellipse cx="152" cy="455.0679" fill="#222222" rx="6" ry="6" style="stroke:#222222;stroke-width:1.0;"/><!--link *start*listarProgramas to MostrandoLista--><g id="link_*start*listarProgramas_MostrandoLista"><path d="M152,67.1079 C152,83.0279 152,110.5779 152,133.7079 " fill="none" id="*start*listarProgramas-to-MostrandoLista" style="stroke:#008000;stroke-width:1.0;"/><polygon fill="#008000" points="152,139.7079,156,130.7079,152,134.7079,148,130.7079,152,139.7079" style="stroke:#008000;stroke-width:1.0;"/><path d="M157,90.0679 L157,117.0679 L418,117.0679 L418,100.0679 L408,90.0679 L157,90.0679 " fill="#FEFFDD" style="stroke:#181818;stroke-width:0.5;"/><path d="M408,90.0679 L408,100.0679 L418,100.0679 L408,90.0679 " fill="#FEFFDD" style="stroke:#181818;stroke-width:0.5;"/><text fill="#000000" font-family="sans-serif" font-size="13" font-weight="bold" lengthAdjust="spacing" textLength="95" x="163" y="108.9649">Administrador</text><text fill="#000000" font-family="sans-serif" font-size="13" lengthAdjust="spacing" textLength="142" x="261" y="108.9649">solicita listar programas</text></g><!--link MostrandoLista to FiltrandoLista--><g id="link_MostrandoLista_FiltrandoLista"><path d="M152,190.2379 C152,223.9479 152,278.7079 152,312.4079 " fill="none" id="MostrandoLista-to-FiltrandoLista" style="stroke:#008000;stroke-width:1.0;"/><polygon fill="#008000" points="152,318.4079,156,309.4079,152,313.4079,148,309.4079,152,318.4079" style="stroke:#008000;stroke-width:1.0;"/><path d="M157,213.0679 L157,293.0679 L452,293.0679 L452,223.0679 L442,213.0679 L157,213.0679 " fill="#FEFFDD" style="stroke:#181818;stroke-width:0.5;"/><path d="M442,213.0679 L442,223.0679 L452,223.0679 L442,213.0679 " fill="#FEFFDD" style="stroke:#181818;stroke-width:0.5;"/><text fill="#000000" font-family="sans-serif" font-size="13" font-weight="bold" lengthAdjust="spacing" textLength="52" x="163" y="231.9649">Sistema</text><text fill="#000000" font-family="sans-serif" font-size="13" lengthAdjust="spacing" textLength="167" x="218" y="231.9649">presenta lista de programas</text><text fill="#000000" font-family="sans-serif" font-size="13" lengthAdjust="spacing" textLength="179" x="163" y="249.6709">&#8226; C&#243;digo, nombre, descripci&#243;n</text><text fill="#000000" font-family="sans-serif" font-size="13" lengthAdjust="spacing" textLength="132" x="163" y="267.377">&#8226; Campo de b&#250;squeda</text><text fill="#000000" font-family="sans-serif" font-size="13" lengthAdjust="spacing" textLength="274" x="163" y="285.083">&#8226; Botones: Crear nuevo, Borrar, Editar (por fila)</text></g><!--link FiltrandoLista to FiltrandoLista--><g id="link_FiltrandoLista_FiltrandoLista"><path d="M177.18,331.6179 C186.91,331.0879 195,335.0679 195,343.5679 C195,352.0679 192.9011,356.3743 183.1711,355.8443 " fill="none" id="FiltrandoLista-to-FiltrandoLista" style="stroke:#008000;stroke-width:1.0;"/><polygon fill="#008000" points="177.18,355.5179,185.9491,360.0015,182.1726,355.7899,186.3842,352.0133,177.18,355.5179" style="stroke:#008000;stroke-width:1.0;"/><path d="M200,321.0679 L200,366.0679 L422,366.0679 L422,331.0679 L412,321.0679 L200,321.0679 " fill="#FEFFDD" style="stroke:#181818;stroke-width:0.5;"/><path d="M412,321.0679 L412,331.0679 L422,331.0679 L412,321.0679 " fill="#FEFFDD" style="stroke:#181818;stroke-width:0.5;"/><text fill="#000000" font-family="sans-serif" font-size="13" font-weight="bold" lengthAdjust="spacing" textLength="95" x="206" y="339.9649">Administrador</text><text fill="#000000" font-family="sans-serif" font-size="13" lengthAdjust="spacing" textLength="103" x="304" y="339.9649">solicita filtrar lista</text><text fill="#000000" font-family="sans-serif" font-size="13" font-weight="bold" lengthAdjust="spacing" textLength="52" x="206" y="357.6709">Sistema</text><text fill="#000000" font-family="sans-serif" font-size="13" lengthAdjust="spacing" textLength="125" x="261" y="357.6709">presenta lista filtrada</text></g><!--link FiltrandoLista to *end*listarProgramas--><g id="link_FiltrandoLista_*end*listarProgramas"><path d="M152,368.5979 C152,392.1479 152,420.8979 152,437.9179 " fill="none" id="FiltrandoLista-to-*end*listarProgramas" style="stroke:#008000;stroke-width:1.0;"/><polygon fill="#008000" points="152,443.9179,156,434.9179,152,438.9179,148,434.9179,152,443.9179" style="stroke:#008000;stroke-width:1.0;"/><path d="M157,394.0679 L157,421.0679 L437,421.0679 L437,404.0679 L427,394.0679 L157,394.0679 " fill="#FEFFDD" style="stroke:#181818;stroke-width:0.5;"/><path d="M427,394.0679 L427,404.0679 L437,404.0679 L427,394.0679 " fill="#FEFFDD" style="stroke:#181818;stroke-width:0.5;"/><text fill="#000000" font-family="sans-serif" font-size="13" font-weight="bold" lengthAdjust="spacing" textLength="95" x="163" y="412.9649">Administrador</text><text fill="#000000" font-family="sans-serif" font-size="13" lengthAdjust="spacing" textLength="161" x="261" y="412.9649">solicita una de las opciones</text></g><g id="EDITANDO_PROGRAMA"><rect fill="#F1F1F1" height="50" rx="12.5" ry="12.5" style="stroke:#181818;stroke-width:0.5;" width="176" x="7" y="573"/><line style="stroke:#181818;stroke-width:0.5;" x1="7" x2="183" y1="602.0679" y2="602.0679"/><text fill="#000000" font-family="sans-serif" font-size="14" lengthAdjust="spacing" textLength="156" x="17" y="592.9659">EDITANDO_PROGRAMA</text></g><g id="LISTANDO_PROGRAMAS"><rect fill="#F1F1F1" height="50" rx="12.5" ry="12.5" style="stroke:#181818;stroke-width:0.5;" width="181" x="282.5" y="573"/><line style="stroke:#181818;stroke-width:0.5;" x1="282.5" x2="463.5" y1="602.0679" y2="602.0679"/><text fill="#000000" font-family="sans-serif" font-size="14" lengthAdjust="spacing" textLength="161" x="292.5" y="592.9659">LISTANDO_PROGRAMAS</text></g><g id="MENU_PRINCIPAL"><rect fill="#F1F1F1" height="50" rx="12.5" ry="12.5" style="stroke:#181818;stroke-width:0.5;" width="139" x="498.5" y="573"/><line style="stroke:#181818;stroke-width:0.5;" x1="498.5" x2="637.5" y1="602.0679" y2="602.0679"/><text fill="#000000" font-family="sans-serif" font-size="14" lengthAdjust="spacing" textLength="119" x="508.5" y="592.9659">MENU_PRINCIPAL</text></g><!--link listarProgramas to EDITANDO_PROGRAMA--><g id="link_listarProgramas_EDITANDO_PROGRAMA"><path d="M115,417.16 C66.63,465.99 27,506 27,506 C27,506 27,543 27,543 C27,543 41.7699,554.7405 59.8799,569.1105 " fill="none" id="listarProgramas-to-EDITANDO_PROGRAMA" style="stroke:#008000;stroke-width:1.0;"/><polygon fill="#008000" points="64.58,572.84,60.0161,564.1124,60.6632,569.7321,55.0435,570.3792,64.58,572.84" style="stroke:#008000;stroke-width:1.0;"/><path d="M32,511 L32,538 L156,538 L156,521 L146,511 L32,511 " fill="#FEFFDD" style="stroke:#181818;stroke-width:0.5;"/><path d="M146,511 L146,521 L156,521 L146,511 " fill="#FEFFDD" style="stroke:#181818;stroke-width:0.5;"/><text fill="#000000" font-family="sans-serif" font-size="13" lengthAdjust="spacing" textLength="103" x="38" y="529.897">editarPrograma()</text></g><!--link listarProgramas to EDITANDO_PROGRAMA--><g id="link_listarProgramas_EDITANDO_PROGRAMA"><path d="M192.3,476.31 C176.42,515.1 165,543 165,543 C165,543 149.7019,554.8067 131.0619,569.1767 " fill="none" id="listarProgramas-to-EDITANDO_PROGRAMA-1" style="stroke:#008000;stroke-width:1.0;"/><polygon fill="#008000" points="126.31,572.84,135.88,570.5129,130.2699,569.7872,130.9956,564.1771,126.31,572.84" style="stroke:#008000;stroke-width:1.0;"/><path d="M183,511 L183,538 L302,538 L302,521 L292,511 L183,511 " fill="#FEFFDD" style="stroke:#181818;stroke-width:0.5;"/><path d="M292,511 L292,521 L302,521 L292,511 " fill="#FEFFDD" style="stroke:#181818;stroke-width:0.5;"/><text fill="#000000" font-family="sans-serif" font-size="13" lengthAdjust="spacing" textLength="98" x="189" y="529.897">crearPrograma()</text></g><!--link listarProgramas to LISTANDO_PROGRAMAS--><g id="link_listarProgramas_LISTANDO_PROGRAMAS"><path d="M344.1,476.49 C353.52,515.76 360.5409,545.0454 365.8309,567.1054 " fill="none" id="listarProgramas-to-LISTANDO_PROGRAMAS" style="stroke:#008000;stroke-width:1.0;"/><polygon fill="#008000" points="367.23,572.94,369.021,563.2554,366.0641,568.0778,361.2416,565.1209,367.23,572.94" style="stroke:#008000;stroke-width:1.0;"/><path d="M364,511 L364,538 L501,538 L501,521 L491,511 L364,511 " fill="#FEFFDD" style="stroke:#181818;stroke-width:0.5;"/><path d="M491,511 L491,521 L501,521 L491,511 " fill="#FEFFDD" style="stroke:#181818;stroke-width:0.5;"/><text fill="#000000" font-family="sans-serif" font-size="13" lengthAdjust="spacing" textLength="116" x="370" y="529.897">eliminarPrograma()</text></g><!--link listarProgramas to MENU_PRINCIPAL--><g id="link_listarProgramas_MENU_PRINCIPAL"><path d="M461.01,444.22 C491.65,479.94 514,506 514,506 C514,506 534.467,540.5007 550.467,567.4507 " fill="none" id="listarProgramas-to-MENU_PRINCIPAL" style="stroke:#008000;stroke-width:1.0;"/><polygon fill="#008000" points="553.53,572.61,552.375,562.8291,550.9775,568.3106,545.496,566.9131,553.53,572.61" style="stroke:#008000;stroke-width:1.0;"/><path d="M539,511 L539,538 L651,538 L651,521 L641,511 L539,511 " fill="#FEFFDD" style="stroke:#181818;stroke-width:0.5;"/><path d="M641,511 L641,521 L651,521 L641,511 " fill="#FEFFDD" style="stroke:#181818;stroke-width:0.5;"/><text fill="#000000" font-family="sans-serif" font-size="13" lengthAdjust="spacing" textLength="91" x="545" y="529.897">mostrarMenu()</text></g><!--SRC=[fPFVQi8m5CRlynJ1tUXGTZz4g7ys2bP5jokHaRP72RP9bxG36OCzorx1kztw9dkIdQHJsuwDwTBIqfxl_FATaqIlkKYOOZ6Dk81qam1DPBGn7uJebAM00NohYP8hb35DyQvL_jKRDVfC2CMHvzJmGfqdTQgO2ENGwB_7RtXKZ5l1_791M_EBbG8GYrQdmg1M8oGof32Ur_P7s-yuOSm5DzfGglQLtw5QHZpWc9ExfSdUhaq14UOS7EJmgCnMD58n-vEF6KOXPjP1ea23s3kW8LGyVBo-qTvk6_ALR28izXKqKQK3nPE0xxRYg69n8Wt0txthnmn2TWXrPIe5w6lQKu1LYWoUaDQLIZ7Lf8EGczhhYLHqoIFMA1L_BBnStJc5_x80IqjGUHl-qAXS_rNZILvnzvnZC1DsTIBSan8xR_fPdlk5aEevA4uxwBjtpgW_VfXCnxTJntD8oG3OHTYdrXlamFqFDJ3hVJ9qwCxAq5d5QyInJMU0lS7e7g7kgETEd64P6jjZfJmGMP7t2G00]--></g></svg>