<?xml version="1.0" encoding="us-ascii" standalone="no"?><svg xmlns="http://www.w3.org/2000/svg" xmlns:xlink="http://www.w3.org/1999/xlink" contentStyleType="text/css" height="280px" preserveAspectRatio="none" style="width:1964px;height:280px;background:#FFFFFF;" version="1.1" viewBox="0 0 1964 280" width="1964px" zoomAndPan="magnify"><defs/><g><!--cluster View--><g id="cluster_View"><path d="M359,157 L393,157 A3.75,3.75 0 0 1 395.5,159.5 L402.5,182.0679 L706,182.0679 A2.5,2.5 0 0 1 708.5,184.5679 L708.5,269.5 A2.5,2.5 0 0 1 706,272 L359,272 A2.5,2.5 0 0 1 356.5,269.5 L356.5,159.5 A2.5,2.5 0 0 1 359,157 " fill="#FFFFFF" style="stroke:#000000;stroke-width:1.0;"/><line style="stroke:#000000;stroke-width:1.0;" x1="356.5" x2="402.5" y1="182.0679" y2="182.0679"/><text fill="#000000" font-family="Verdana" font-size="14" font-weight="bold" lengthAdjust="spacing" textLength="33" x="360.5" y="173.9659">View</text></g><!--cluster Controller--><g id="cluster_Controller"><path d="M953,157 L1024,157 A3.75,3.75 0 0 1 1026.5,159.5 L1033.5,182.0679 L1254,182.0679 A2.5,2.5 0 0 1 1256.5,184.5679 L1256.5,269.5 A2.5,2.5 0 0 1 1254,272 L953,272 A2.5,2.5 0 0 1 950.5,269.5 L950.5,159.5 A2.5,2.5 0 0 1 953,157 " fill="#FFFFFF" style="stroke:#000000;stroke-width:1.0;"/><line style="stroke:#000000;stroke-width:1.0;" x1="950.5" x2="1033.5" y1="182.0679" y2="182.0679"/><text fill="#000000" font-family="Verdana" font-size="14" font-weight="bold" lengthAdjust="spacing" textLength="70" x="954.5" y="173.9659">Controller</text></g><!--cluster Model--><g id="cluster_Model"><path d="M1472,157 L1516,157 A3.75,3.75 0 0 1 1518.5,159.5 L1525.5,182.0679 L1955,182.0679 A2.5,2.5 0 0 1 1957.5,184.5679 L1957.5,269.5 A2.5,2.5 0 0 1 1955,272 L1472,272 A2.5,2.5 0 0 1 1469.5,269.5 L1469.5,159.5 A2.5,2.5 0 0 1 1472,157 " fill="#FFFFFF" style="stroke:#000000;stroke-width:1.0;"/><line style="stroke:#000000;stroke-width:1.0;" x1="1469.5" x2="1525.5" y1="182.0679" y2="182.0679"/><text fill="#000000" font-family="Verdana" font-size="14" font-weight="bold" lengthAdjust="spacing" textLength="43" x="1473.5" y="173.9659">Model</text></g><g id="elem_view"><rect fill="#FFFFFF" height="39.0679" style="stroke:#000000;stroke-width:1.0;" width="319" x="373" y="217"/><text fill="#000000" font-family="Verdana" font-size="14" lengthAdjust="spacing" textLength="305" x="380" y="233.9659">profesorCreacionView : ProfesorCreacionView</text><line style="stroke:#000000;stroke-width:1.0;" x1="374" x2="691" y1="240.0679" y2="240.0679"/></g><g id="elem_controller"><rect fill="#FFFFFF" height="39.0679" style="stroke:#000000;stroke-width:1.0;" width="273" x="967" y="217"/><text fill="#000000" font-family="Verdana" font-size="14" lengthAdjust="spacing" textLength="259" x="974" y="233.9659">profesorController : ProfesorController</text><line style="stroke:#000000;stroke-width:1.0;" x1="968" x2="1239" y1="240.0679" y2="240.0679"/></g><g id="elem_profesor"><rect fill="#FFFFFF" height="39.0679" style="stroke:#000000;stroke-width:1.0;" width="139" x="1486" y="217"/><text fill="#000000" font-family="Verdana" font-size="14" lengthAdjust="spacing" textLength="125" x="1493" y="233.9659">profesor : Profesor</text><line style="stroke:#000000;stroke-width:1.0;" x1="1487" x2="1624" y1="240.0679" y2="240.0679"/></g><g id="elem_repository"><rect fill="#FFFFFF" height="39.0679" style="stroke:#000000;stroke-width:1.0;" width="281" x="1660" y="217"/><text fill="#000000" font-family="Verdana" font-size="14" lengthAdjust="spacing" textLength="267" x="1667" y="233.9659">profesorRepository : ProfesorRepository</text><line style="stroke:#000000;stroke-width:1.0;" x1="1661" x2="1940" y1="240.0679" y2="240.0679"/></g><!--entity admin--><g id="elem_admin"><ellipse cx="59.5" cy="205.5" fill="#FFFFFF" rx="8" ry="8" style="stroke:#000000;stroke-width:1.0;"/><path d="M59.5,213.5 L59.5,240.5 M46.5,221.5 L72.5,221.5 M59.5,240.5 L46.5,255.5 M59.5,240.5 L72.5,255.5 " fill="none" style="stroke:#000000;stroke-width:1.0;"/><text fill="#000000" font-family="Verdana" font-size="14" lengthAdjust="spacing" textLength="97" x="11" y="272.4659">Administrador</text></g><g id="elem_GMN20"><path d="M447.5,11 L447.5,91.8241 A0,0 0 0 0 447.5,91.8241 L528.5,91.8241 L532.5,216.58 L536.5,91.8241 L617.5,91.8241 A0,0 0 0 0 617.5,91.8241 L617.5,21 L607.5,11 L447.5,11 A0,0 0 0 0 447.5,11 " fill="#FFFFFF" style="stroke:#000000;stroke-width:1.0;"/><path d="M607.5,11 L607.5,21 L617.5,21 L607.5,11 " fill="#FFFFFF" style="stroke:#000000;stroke-width:1.0;"/><text fill="#000000" font-family="Verdana" font-size="13" font-weight="bold" lengthAdjust="spacing" textLength="36" x="453.5" y="29.897">Vista:</text><text fill="#000000" font-family="Verdana" font-size="13" lengthAdjust="spacing" textLength="149" x="453.5" y="47.603">Presenta interfaz m&#237;nima</text><text fill="#000000" font-family="Verdana" font-size="13" lengthAdjust="spacing" textLength="131" x="453.5" y="65.309">para captura de datos</text><text fill="#000000" font-family="Verdana" font-size="13" lengthAdjust="spacing" textLength="68" x="453.5" y="83.0151">de creaci&#243;n</text></g><g id="elem_GMN23"><path d="M1015.5,20 L1015.5,83.118 A0,0 0 0 0 1015.5,83.118 L1099.5,83.118 L1103.5,216.81 L1107.5,83.118 L1191.5,83.118 A0,0 0 0 0 1191.5,83.118 L1191.5,30 L1181.5,20 L1015.5,20 A0,0 0 0 0 1015.5,20 " fill="#FFFFFF" style="stroke:#000000;stroke-width:1.0;"/><path d="M1181.5,20 L1181.5,30 L1191.5,30 L1181.5,20 " fill="#FFFFFF" style="stroke:#000000;stroke-width:1.0;"/><text fill="#000000" font-family="Verdana" font-size="13" font-weight="bold" lengthAdjust="spacing" textLength="83" x="1021.5" y="38.897">Controlador:</text><text fill="#000000" font-family="Verdana" font-size="13" lengthAdjust="spacing" textLength="155" x="1021.5" y="56.603">Coordina flujo de creaci&#243;n</text><text fill="#000000" font-family="Verdana" font-size="13" lengthAdjust="spacing" textLength="132" x="1021.5" y="74.309">y redirecci&#243;n a edici&#243;n</text></g><g id="elem_GMN26"><path d="M1532.5,20 L1532.5,83.118 L1696.5,83.118 L1696.5,30 L1686.5,20 L1532.5,20 " fill="#FFFFFF" style="stroke:#000000;stroke-width:1.0;"/><path d="M1686.5,20 L1686.5,30 L1696.5,30 L1686.5,20 " fill="#FFFFFF" style="stroke:#000000;stroke-width:1.0;"/><text fill="#000000" font-family="Verdana" font-size="13" font-weight="bold" lengthAdjust="spacing" textLength="54" x="1538.5" y="38.897">Entidad:</text><text fill="#000000" font-family="Verdana" font-size="13" lengthAdjust="spacing" textLength="143" x="1538.5" y="56.603">Aplica reglas de negocio</text><text fill="#000000" font-family="Verdana" font-size="13" lengthAdjust="spacing" textLength="138" x="1538.5" y="74.309">y validaciones de datos</text></g><g id="elem_GMN29"><path d="M1732,20 L1732,83.118 A0,0 0 0 0 1732,83.118 L1813.15,83.118 L1802.54,216.81 L1821.15,83.118 L1909,83.118 A0,0 0 0 0 1909,83.118 L1909,30 L1899,20 L1732,20 A0,0 0 0 0 1732,20 " fill="#FFFFFF" style="stroke:#000000;stroke-width:1.0;"/><path d="M1899,20 L1899,30 L1909,30 L1899,20 " fill="#FFFFFF" style="stroke:#000000;stroke-width:1.0;"/><text fill="#000000" font-family="Verdana" font-size="13" font-weight="bold" lengthAdjust="spacing" textLength="79" x="1738" y="38.897">Repositorio:</text><text fill="#000000" font-family="Verdana" font-size="13" lengthAdjust="spacing" textLength="111" x="1738" y="56.603">Persiste profesor y</text><text fill="#000000" font-family="Verdana" font-size="13" lengthAdjust="spacing" textLength="156" x="1738" y="74.309">genera identificador &#250;nico</text></g><!--link admin to view--><g id="link_admin_view"><path codeLine="18" d="M108.05,248.85 C125.7,252.77 145.88,256.57 164.5,258.5 C237.87,266.1 313.7862,262.9606 381.6662,256.5906 " fill="none" id="admin-to-view" style="stroke:#000000;stroke-width:1.0;"/><polygon fill="#000000" points="387.64,256.03,378.3056,252.8884,382.6619,256.4972,379.0531,260.8534,387.64,256.03" style="stroke:#000000;stroke-width:1.0;"/><text fill="#000000" font-family="Verdana" font-size="13" lengthAdjust="spacing" textLength="150" x="165.5" y="254.397">1: solicitarCrearProfesor()</text></g><!--link view to admin--><g id="link_view_admin"><path codeLine="19" d="M391.78,256.01 C321.16,262.94 234.39,267.12 157,258.5 C140.96,256.71 129.5547,254.6763 114.0847,251.0863 " fill="none" id="view-to-admin" style="stroke:#000000;stroke-width:1.0;"/><polygon fill="#000000" points="108.24,249.73,116.1028,255.661,113.1106,250.8603,117.9113,247.868,108.24,249.73" style="stroke:#000000;stroke-width:1.0;"/><text fill="#000000" font-family="Verdana" font-size="13" lengthAdjust="spacing" textLength="165" x="158" y="254.397">2: presentarSolicitudDatos()</text></g><!--link admin to view--><g id="link_admin_view"><path codeLine="20" d="M108.34,236.5 C170.36,236.5 274.43,236.5 366.9,236.5 " fill="none" id="admin-to-view-1" style="stroke:#000000;stroke-width:1.0;"/><polygon fill="#000000" points="372.9,236.5,363.9,232.5,367.9,236.5,363.9,240.5,372.9,236.5" style="stroke:#000000;stroke-width:1.0;"/><text fill="#000000" font-family="Verdana" font-size="13" lengthAdjust="spacing" textLength="228" x="126.5" y="229.397">3: introducirDatos(nombres, apellidos)</text></g><!--link view to admin--><g id="link_view_admin"><path codeLine="27" d="M372.9,236.5 C280.43,236.5 176.36,236.5 114.34,236.5 " fill="none" id="view-to-admin-1" style="stroke:#000000;stroke-width:1.0;"/><polygon fill="#000000" points="108.34,236.5,117.34,240.5,113.34,236.5,117.34,232.5,108.34,236.5" style="stroke:#000000;stroke-width:1.0;"/><text fill="#000000" font-family="Verdana" font-size="13" lengthAdjust="spacing" textLength="170" x="155.5" y="229.397">10: mostrarEdicionProfesor()</text></g><!--link view to controller--><g id="link_view_controller"><path codeLine="21" d="M692.31,236.5 C778.76,236.5 878.4,236.5 960.96,236.5 " fill="none" id="view-to-controller" style="stroke:#000000;stroke-width:1.0;"/><polygon fill="#000000" points="966.96,236.5,957.96,232.5,961.96,236.5,957.96,240.5,966.96,236.5" style="stroke:#000000;stroke-width:1.0;"/><text fill="#000000" font-family="Verdana" font-size="13" lengthAdjust="spacing" textLength="238" x="710.5" y="229.397">4: procesarCreacion(nombres, apellidos)</text></g><!--link controller to view--><g id="link_controller_view"><path codeLine="26" d="M966.96,236.5 C884.4,236.5 784.76,236.5 698.31,236.5 " fill="none" id="controller-to-view" style="stroke:#000000;stroke-width:1.0;"/><polygon fill="#000000" points="692.31,236.5,701.31,240.5,697.31,236.5,701.31,232.5,692.31,236.5" style="stroke:#000000;stroke-width:1.0;"/><text fill="#000000" font-family="Verdana" font-size="13" lengthAdjust="spacing" textLength="165" x="747" y="229.397">9: redirigirEditarProfesor(id)</text></g><!--link controller to profesor--><g id="link_controller_profesor"><path codeLine="22" d="M1240.03,236.5 C1321.12,236.5 1414.53,236.5 1479.82,236.5 " fill="none" id="controller-to-profesor" style="stroke:#000000;stroke-width:1.0;"/><polygon fill="#000000" points="1485.82,236.5,1476.82,232.5,1480.82,236.5,1476.82,240.5,1485.82,236.5" style="stroke:#000000;stroke-width:1.0;"/><text fill="#000000" font-family="Verdana" font-size="13" lengthAdjust="spacing" textLength="209" x="1258.5" y="229.397">5: validarDatos(nombres, apellidos)</text></g><!--link profesor to controller--><g id="link_profesor_controller"><path codeLine="23" d="M1485.82,236.5 C1420.53,236.5 1327.12,236.5 1246.03,236.5 " fill="none" id="profesor-to-controller" style="stroke:#000000;stroke-width:1.0;"/><polygon fill="#000000" points="1240.03,236.5,1249.03,240.5,1245.03,236.5,1249.03,232.5,1240.03,236.5" style="stroke:#000000;stroke-width:1.0;"/><text fill="#000000" font-family="Verdana" font-size="13" lengthAdjust="spacing" textLength="98" x="1314" y="229.397">6: datosValidos()</text></g><!--link controller to repository--><g id="link_controller_repository"><path codeLine="24" d="M1146.55,216.87 C1238.94,177.47 1462.43,96.84 1642.5,149 C1692.34,163.44 1738.8622,192.3426 1768.9922,213.4026 " fill="none" id="controller-to-repository" style="stroke:#000000;stroke-width:1.0;"/><polygon fill="#000000" points="1773.91,216.84,1768.8249,208.4054,1769.8119,213.9755,1764.2418,214.9624,1773.91,216.84" style="stroke:#000000;stroke-width:1.0;"/><text fill="#000000" font-family="Verdana" font-size="13" lengthAdjust="spacing" textLength="185" x="1405" y="136.897">7: almacenarProfesor(profesor)</text></g><!--link repository to controller--><g id="link_repository_controller"><path codeLine="25" d="M1774.84,216.99 C1744.93,195.56 1693.12,162.41 1642.5,149 C1600.48,137.87 1274.67,135.55 1240,146 C1194.26,159.78 1154.2697,190.481 1129.0897,212.691 " fill="none" id="repository-to-controller" style="stroke:#000000;stroke-width:1.0;"/><polygon fill="#000000" points="1124.59,216.66,1133.9855,213.7064,1128.3398,213.3525,1128.6936,207.7068,1124.59,216.66" style="stroke:#000000;stroke-width:1.0;"/><text fill="#000000" font-family="Verdana" font-size="13" lengthAdjust="spacing" textLength="157" x="1241" y="136.897">8: profesorAlmacenado(id)</text></g><!--link GMN26 to profesor--><g id="link_GMN26_profesor"><path d="M1607.93,83.08 C1603.98,100.26 1598.56,121.99 1592.5,141 C1583.94,167.86 1571.63,198.06 1563.6,216.93 " fill="none" id="GMN26-profesor" style="stroke:#000000;stroke-width:1.0;stroke-dasharray:7.0,7.0;"/></g><!--SRC=[VLFDZjCm4BxdAOQUkX88bd-iLQMgx15f1LBlKtiQPd4yaPFkiY0UYHCthdqnnawRkbMNK-BnzsD_utdIVwM6eFN8eKBlvRxXxnpg2cql4IPprt3Whe_e94u0Ey1KgQeMxJUi2IPBfli9_Am0P7LBjeT96sLDdSH59BGi8I70mCsPSbQyqv_gLo6vaD17yPxY8yBZVYbRa5JKZiiZwK_Yo9zNBRIomhv-1lgPMkbO0teeI8TYfiTncGwGKuDditnP9LqQwCIpvHvp876lChseCaIX0yV0IwDdeOw2OhyCf8txYBrq2ZuLVcM0qytTnd8SG46QbVAV0hRaFJlf3XwsZF9rCX9B7OvDEaikI2fHvFV6m1qg2F_ZFC9FtTyQS8crn8oSdlh4ClHt1j0tQ2aKqUsbBwe2UshptemddkyKd4pPdThjylnWrDXnv9hZjKlj6kqIvxHNboyCD9Bc9Q5JWaLZgo0zGIyjo7fuzG1NgzbIvmlDrVFLJDStkqwdBb9Sumzejhy3DwXxBKO4Yss_qQ-Z8Iwjww_D_Th-2HK51yddsAqOX-ovcvOqrNldXKXq713MVdChnw803qCCP7C142XTxt73OdhKxZhq-YhStchUwYj6LQozJeew1Qf5mye-mmjAqL5tkELvbsB8iiyuWonZe1Gx3PWExpHXQmga8RBJh7cjXz4WOFiti9M3rJy0]--></g></svg>