<?xml version="1.0" encoding="us-ascii" standalone="no"?><svg xmlns="http://www.w3.org/2000/svg" xmlns:xlink="http://www.w3.org/1999/xlink" contentStyleType="text/css" height="687px" preserveAspectRatio="none" style="width:1249px;height:687px;background:#FFFFFF;" version="1.1" viewBox="0 0 1249 687" width="1249px" zoomAndPan="magnify"><defs/><g><rect fill="#FFFFFF" height="31.706" style="stroke:#000000;stroke-width:1.0;" width="10" x="295.5" y="118.7739"/><rect fill="#FFFFFF" height="221.9421" style="stroke:#000000;stroke-width:1.0;" width="10" x="295.5" y="182.186"/><rect fill="#FFFFFF" height="158.5301" style="stroke:#000000;stroke-width:1.0;" width="10" x="621.5" y="213.892"/><rect fill="#FFFFFF" height="31.706" style="stroke:#000000;stroke-width:1.0;" width="10" x="857.5" y="245.598"/><rect fill="#FFFFFF" height="31.706" style="stroke:#000000;stroke-width:1.0;" width="10" x="1097.5" y="309.01"/><line style="stroke:#000000;stroke-width:1.0;" x1="61" x2="61" y1="85.0679" y2="603.7762"/><line style="stroke:#000000;stroke-width:1.0;" x1="300" x2="300" y1="85.0679" y2="603.7762"/><line style="stroke:#000000;stroke-width:1.0;" x1="626" x2="626" y1="85.0679" y2="603.7762"/><line style="stroke:#000000;stroke-width:1.0;" x1="862" x2="862" y1="85.0679" y2="603.7762"/><line style="stroke:#000000;stroke-width:1.0;" x1="1102" x2="1102" y1="85.0679" y2="603.7762"/><text fill="#000000" font-family="Verdana" font-size="14" lengthAdjust="spacing" textLength="97" x="10" y="80.9659">Administrador</text><ellipse cx="61.5" cy="14" fill="#FFFFFF" rx="8" ry="8" style="stroke:#000000;stroke-width:1.0;"/><path d="M61.5,22 L61.5,49 M48.5,30 L74.5,30 M61.5,49 L48.5,64 M61.5,49 L74.5,64 " fill="none" style="stroke:#000000;stroke-width:1.0;"/><text fill="#000000" font-family="Verdana" font-size="14" lengthAdjust="spacing" textLength="97" x="10" y="617.7421">Administrador</text><ellipse cx="61.5" cy="630.8441" fill="#FFFFFF" rx="8" ry="8" style="stroke:#000000;stroke-width:1.0;"/><path d="M61.5,638.8441 L61.5,665.8441 M48.5,646.8441 L74.5,646.8441 M61.5,665.8441 L48.5,680.8441 M61.5,665.8441 L74.5,680.8441 " fill="none" style="stroke:#000000;stroke-width:1.0;"/><rect fill="#FFFFFF" height="33.0679" rx="2.5" ry="2.5" style="stroke:#000000;stroke-width:1.0;" width="319" x="141" y="51"/><text fill="#000000" font-family="Verdana" font-size="14" lengthAdjust="spacing" textLength="305" x="148" y="72.9659">profesorCreacionView : ProfesorCreacionView</text><rect fill="#FFFFFF" height="33.0679" rx="2.5" ry="2.5" style="stroke:#000000;stroke-width:1.0;" width="319" x="141" y="602.7762"/><text fill="#000000" font-family="Verdana" font-size="14" lengthAdjust="spacing" textLength="305" x="148" y="624.7421">profesorCreacionView : ProfesorCreacionView</text><rect fill="#FFFFFF" height="33.0679" rx="2.5" ry="2.5" style="stroke:#000000;stroke-width:1.0;" width="273" x="490" y="51"/><text fill="#000000" font-family="Verdana" font-size="14" lengthAdjust="spacing" textLength="259" x="497" y="72.9659">profesorController : ProfesorController</text><rect fill="#FFFFFF" height="33.0679" rx="2.5" ry="2.5" style="stroke:#000000;stroke-width:1.0;" width="273" x="490" y="602.7762"/><text fill="#000000" font-family="Verdana" font-size="14" lengthAdjust="spacing" textLength="259" x="497" y="624.7421">profesorController : ProfesorController</text><rect fill="#FFFFFF" height="33.0679" rx="2.5" ry="2.5" style="stroke:#000000;stroke-width:1.0;" width="139" x="793" y="51"/><text fill="#000000" font-family="Verdana" font-size="14" lengthAdjust="spacing" textLength="125" x="800" y="72.9659">profesor : Profesor</text><rect fill="#FFFFFF" height="33.0679" rx="2.5" ry="2.5" style="stroke:#000000;stroke-width:1.0;" width="139" x="793" y="602.7762"/><text fill="#000000" font-family="Verdana" font-size="14" lengthAdjust="spacing" textLength="125" x="800" y="624.7421">profesor : Profesor</text><rect fill="#FFFFFF" height="33.0679" rx="2.5" ry="2.5" style="stroke:#000000;stroke-width:1.0;" width="281" x="962" y="51"/><text fill="#000000" font-family="Verdana" font-size="14" lengthAdjust="spacing" textLength="267" x="969" y="72.9659">profesorRepository : ProfesorRepository</text><rect fill="#FFFFFF" height="33.0679" rx="2.5" ry="2.5" style="stroke:#000000;stroke-width:1.0;" width="281" x="962" y="602.7762"/><text fill="#000000" font-family="Verdana" font-size="14" lengthAdjust="spacing" textLength="267" x="969" y="624.7421">profesorRepository : ProfesorRepository</text><rect fill="#FFFFFF" height="31.706" style="stroke:#000000;stroke-width:1.0;" width="10" x="295.5" y="118.7739"/><rect fill="#FFFFFF" height="221.9421" style="stroke:#000000;stroke-width:1.0;" width="10" x="295.5" y="182.186"/><rect fill="#FFFFFF" height="158.5301" style="stroke:#000000;stroke-width:1.0;" width="10" x="621.5" y="213.892"/><rect fill="#FFFFFF" height="31.706" style="stroke:#000000;stroke-width:1.0;" width="10" x="857.5" y="245.598"/><rect fill="#FFFFFF" height="31.706" style="stroke:#000000;stroke-width:1.0;" width="10" x="1097.5" y="309.01"/><polygon fill="#000000" points="283.5,114.7739,293.5,118.7739,283.5,122.7739,287.5,118.7739" style="stroke:#000000;stroke-width:1.0;"/><line style="stroke:#000000;stroke-width:1.0;" x1="61.5" x2="289.5" y1="118.7739" y2="118.7739"/><text fill="#000000" font-family="Verdana" font-size="13" lengthAdjust="spacing" textLength="137" x="68.5" y="112.9649">solicitarCrearProfesor()</text><polygon fill="#000000" points="72.5,146.4799,62.5,150.4799,72.5,154.4799,68.5,150.4799" style="stroke:#000000;stroke-width:1.0;"/><line style="stroke:#000000;stroke-width:1.0;" x1="66.5" x2="299.5" y1="150.4799" y2="150.4799"/><text fill="#000000" font-family="Verdana" font-size="13" lengthAdjust="spacing" textLength="152" x="78.5" y="144.6709">presentarSolicitudDatos()</text><polygon fill="#000000" points="283.5,178.186,293.5,182.186,283.5,186.186,287.5,182.186" style="stroke:#000000;stroke-width:1.0;"/><line style="stroke:#000000;stroke-width:1.0;" x1="61.5" x2="289.5" y1="182.186" y2="182.186"/><text fill="#000000" font-family="Verdana" font-size="13" lengthAdjust="spacing" textLength="215" x="68.5" y="176.377">introducirDatos(nombres, apellidos)</text><polygon fill="#000000" points="609.5,209.892,619.5,213.892,609.5,217.892,613.5,213.892" style="stroke:#000000;stroke-width:1.0;"/><line style="stroke:#000000;stroke-width:1.0;" x1="305.5" x2="615.5" y1="213.892" y2="213.892"/><text fill="#000000" font-family="Verdana" font-size="13" lengthAdjust="spacing" textLength="225" x="312.5" y="208.083">procesarCreacion(nombres, apellidos)</text><polygon fill="#000000" points="845.5,241.598,855.5,245.598,845.5,249.598,849.5,245.598" style="stroke:#000000;stroke-width:1.0;"/><line style="stroke:#000000;stroke-width:1.0;" x1="631.5" x2="851.5" y1="245.598" y2="245.598"/><text fill="#000000" font-family="Verdana" font-size="13" lengthAdjust="spacing" textLength="196" x="638.5" y="239.789">validarDatos(nombres, apellidos)</text><polygon fill="#000000" points="642.5,273.304,632.5,277.304,642.5,281.304,638.5,277.304" style="stroke:#000000;stroke-width:1.0;"/><line style="stroke:#000000;stroke-width:1.0;" x1="636.5" x2="861.5" y1="277.304" y2="277.304"/><text fill="#000000" font-family="Verdana" font-size="13" lengthAdjust="spacing" textLength="85" x="648.5" y="271.495">datosValidos()</text><polygon fill="#000000" points="1085.5,305.01,1095.5,309.01,1085.5,313.01,1089.5,309.01" style="stroke:#000000;stroke-width:1.0;"/><line style="stroke:#000000;stroke-width:1.0;" x1="631.5" x2="1091.5" y1="309.01" y2="309.01"/><text fill="#000000" font-family="Verdana" font-size="13" lengthAdjust="spacing" textLength="172" x="638.5" y="303.201">almacenarProfesor(profesor)</text><polygon fill="#000000" points="642.5,336.716,632.5,340.716,642.5,344.716,638.5,340.716" style="stroke:#000000;stroke-width:1.0;"/><line style="stroke:#000000;stroke-width:1.0;" x1="636.5" x2="1101.5" y1="340.716" y2="340.716"/><text fill="#000000" font-family="Verdana" font-size="13" lengthAdjust="spacing" textLength="144" x="648.5" y="334.907">profesorAlmacenado(id)</text><polygon fill="#000000" points="316.5,368.4221,306.5,372.4221,316.5,376.4221,312.5,372.4221" style="stroke:#000000;stroke-width:1.0;"/><line style="stroke:#000000;stroke-width:1.0;" x1="310.5" x2="625.5" y1="372.4221" y2="372.4221"/><text fill="#000000" font-family="Verdana" font-size="13" lengthAdjust="spacing" textLength="152" x="322.5" y="366.6131">redirigirEditarProfesor(id)</text><polygon fill="#000000" points="72.5,400.1281,62.5,404.1281,72.5,408.1281,68.5,404.1281" style="stroke:#000000;stroke-width:1.0;"/><line style="stroke:#000000;stroke-width:1.0;" x1="66.5" x2="299.5" y1="404.1281" y2="404.1281"/><text fill="#000000" font-family="Verdana" font-size="13" lengthAdjust="spacing" textLength="150" x="78.5" y="398.3191">mostrarEdicionProfesor()</text><path d="M66,417.1281 L66,497.1281 L256,497.1281 L256,427.1281 L246,417.1281 L66,417.1281 " fill="#FFFFFF" style="stroke:#000000;stroke-width:1.0;"/><path d="M246,417.1281 L246,427.1281 L256,427.1281 L246,417.1281 " fill="#FFFFFF" style="stroke:#000000;stroke-width:1.0;"/><text fill="#000000" font-family="Verdana" font-size="13" font-weight="bold" lengthAdjust="spacing" textLength="139" x="72" y="436.0251">Filosof&#237;a "El delgado":</text><text fill="#000000" font-family="Verdana" font-size="13" lengthAdjust="spacing" textLength="169" x="72" y="453.7311">Creaci&#243;n con datos m&#237;nimos</text><text fill="#000000" font-family="Verdana" font-size="13" lengthAdjust="spacing" textLength="134" x="72" y="471.4371">seguida de redirecci&#243;n</text><text fill="#000000" font-family="Verdana" font-size="13" lengthAdjust="spacing" textLength="124" x="72" y="489.1431">autom&#225;tica a edici&#243;n</text><path d="M631,507.9521 L631,587.9521 L802,587.9521 L802,517.9521 L792,507.9521 L631,507.9521 " fill="#FFFFFF" style="stroke:#000000;stroke-width:1.0;"/><path d="M792,507.9521 L792,517.9521 L802,517.9521 L792,507.9521 " fill="#FFFFFF" style="stroke:#000000;stroke-width:1.0;"/><text fill="#000000" font-family="Verdana" font-size="13" font-weight="bold" lengthAdjust="spacing" textLength="122" x="637" y="526.8492">Coordinaci&#243;n MVC:</text><text fill="#000000" font-family="Verdana" font-size="13" lengthAdjust="spacing" textLength="141" x="637" y="544.5552">El controlador orquesta</text><text fill="#000000" font-family="Verdana" font-size="13" lengthAdjust="spacing" textLength="150" x="637" y="562.2612">la validaci&#243;n, persistencia</text><text fill="#000000" font-family="Verdana" font-size="13" lengthAdjust="spacing" textLength="76" x="637" y="579.9672">y redirecci&#243;n</text><!--SRC=[ZPHDRjim48NtFiLKgnH8qRqH60ZST5UWQ07ln-JO6O3Yg2Jb8iVf0RBg4Non3YbPeHGdw4uavtjyyqDzI8_K4dGEsQzMQ984QEvjovvZ2cWbD80HCE-iEWo93NVe4pHTa0D52Tj0Q5ZyZkathE7xbUqYSTAFDnJ4fo3EKQZvQRFGPbfUrwZ84d_PlnxzWpg9hBa-LTpBPb48qrBhajE7JvkIX29Hd6ecB5c6Yy3Dnrn0Fc6Y8TiIhTI0hzKKHVAA_Hputdx1954vItForOsSqxUzuJ0WNjgzgjq2TkGSMublNMxgwce134MSklE-JbNqLIMZebNPJwWO_e-jbvvSwAKzcqLsMC1vLIPsOIJKdKJNeY5VTUI2LIwglbRmbK8Ly7wKj7B3TkQede-vfx5bWIm7Fd9ui7bK9ayBdRh8ou5f9J_2B92RLStPgtdnaYtnyJ617CRd2d2tttnb9r4EvsU4vi619NVKP9hrtUVzHYE6GJZ_zTd7K7zepy-UzMezZdJijRkA3UcGAS5wWdsIzln7tnO20cM7-O2yXUnbwQZAijZQYWJBVhpxssvxCQGUnzZyym49ltgA2VN4uJXhXRc5ZaBKdnHvm_duQUvmCl8F]--></g></svg>