<?xml version="1.0" encoding="us-ascii" standalone="no"?><svg xmlns="http://www.w3.org/2000/svg" xmlns:xlink="http://www.w3.org/1999/xlink" contentStyleType="text/css" height="442px" preserveAspectRatio="none" style="width:1196px;height:442px;background:#FFFFFF;" version="1.1" viewBox="0 0 1196 442" width="1196px" zoomAndPan="magnify"><defs/><g><!--cluster crearProfesor--><g id="cluster_crearProfesor"><path d="M173.5,6.602 L278.5,6.602 A3.75,3.75 0 0 1 281,9.102 L288,31.6699 L941.5,31.6699 A2.5,2.5 0 0 1 944,34.1699 L944,433.102 A2.5,2.5 0 0 1 941.5,435.602 L173.5,435.602 A2.5,2.5 0 0 1 171,433.102 L171,9.102 A2.5,2.5 0 0 1 173.5,6.602 " fill="none" style="stroke:#000000;stroke-width:1.5;"/><line style="stroke:#000000;stroke-width:1.5;" x1="171" x2="288" y1="31.6699" y2="31.6699"/><text fill="#000000" font-family="sans-serif" font-size="14" font-weight="bold" lengthAdjust="spacing" textLength="104" x="175" y="23.5679">crearProfesor()</text></g><!--entity CrearProfesorView--><g id="elem_CrearProfesorView"><rect fill="#629EF9" height="39.0679" rx="2.5" ry="2.5" style="stroke:#181818;stroke-width:0.5;" width="144" x="413" y="44.602"/><text fill="#000000" font-family="sans-serif" font-size="14" lengthAdjust="spacing" textLength="124" x="423" y="69.5679">CrearProfesorView</text></g><!--entity ProfesorController--><g id="elem_ProfesorController"><rect fill="#B5BD68" height="39.0679" rx="2.5" ry="2.5" style="stroke:#181818;stroke-width:0.5;" width="143" x="293.5" y="162.602"/><text fill="#000000" font-family="sans-serif" font-size="14" lengthAdjust="spacing" textLength="123" x="303.5" y="187.5679">ProfesorController</text></g><!--entity ProfesorRepository--><g id="elem_ProfesorRepository"><rect fill="#F2AC4E" height="39.0679" rx="2.5" ry="2.5" style="stroke:#181818;stroke-width:0.5;" width="147" x="301.5" y="280.602"/><text fill="#000000" font-family="sans-serif" font-size="14" lengthAdjust="spacing" textLength="127" x="311.5" y="305.5679">ProfesorRepository</text></g><!--entity Profesor--><g id="elem_Profesor"><rect fill="#F2AC4E" height="39.0679" rx="2.5" ry="2.5" style="stroke:#181818;stroke-width:0.5;" width="76" x="337" y="380.602"/><text fill="#000000" font-family="sans-serif" font-size="14" lengthAdjust="spacing" textLength="56" x="347" y="405.5679">Profesor</text></g><!--entity ProfesoresAbierto--><g id="elem_ProfesoresAbierto"><rect fill="#CDEBA5" height="39.0679" rx="2.5" ry="2.5" style="stroke:#181818;stroke-width:0.5;" width="148" x="7" y="44.602"/><text fill="#000000" font-family="sans-serif" font-size="14" lengthAdjust="spacing" textLength="128" x="17" y="69.5679">:Profesores Abierto</text></g><!--entity EditarProfesor--><g id="elem_EditarProfesor"><rect fill="#CDEBA5" height="39.0679" rx="2.5" ry="2.5" style="stroke:#181818;stroke-width:0.5;" width="214" x="960" y="162.602"/><text fill="#000000" font-family="sans-serif" font-size="14" lengthAdjust="spacing" textLength="194" x="970" y="187.5679">:Collaboration EditarProfesor</text></g><!--link ProfesoresAbierto to CrearProfesorView--><g id="link_ProfesoresAbierto_CrearProfesorView"><path d="M155.1,64.102 C228.45,64.102 334.02,64.102 406.73,64.102 " fill="none" id="ProfesoresAbierto-to-CrearProfesorView" style="stroke:#181818;stroke-width:1.0;"/><polygon fill="#181818" points="412.73,64.102,403.73,60.102,407.73,64.102,403.73,68.102,412.73,64.102" style="stroke:#181818;stroke-width:1.0;"/><text fill="#000000" font-family="sans-serif" font-size="13" lengthAdjust="spacing" textLength="89" x="239.5" y="56.999">crearProfesor()</text></g><!--link CrearProfesorView to ProfesorController--><g id="link_CrearProfesorView_ProfesorController"><path d="M412.67,78.292 C333.9,92.652 219,113.602 219,113.602 C219,113.602 219,132.602 219,132.602 C219,132.602 262.1061,146.92 303.2761,160.6 " fill="none" id="CrearProfesorView-to-ProfesorController" style="stroke:#181818;stroke-width:1.0;"/><polygon fill="#181818" points="308.97,162.492,301.6905,155.8581,304.2251,160.9153,299.1678,163.45,308.97,162.492" style="stroke:#181818;stroke-width:1.0;"/><text fill="#000000" font-family="sans-serif" font-size="13" lengthAdjust="spacing" textLength="353" x="220" y="128.499">validarDatosM&#237;nimos(codigo, nombres, apellidos) : boolean</text></g><!--link CrearProfesorView to ProfesorController--><g id="link_CrearProfesorView_ProfesorController"><path d="M520.69,83.712 C546.92,97.392 578,113.602 578,113.602 C578,113.602 578,132.602 578,132.602 C578,132.602 504.2503,149.3999 442.3703,163.4899 " fill="none" id="CrearProfesorView-to-ProfesorController-1" style="stroke:#181818;stroke-width:1.0;"/><polygon fill="#181818" points="436.52,164.822,446.1835,166.724,441.3952,163.7119,444.4073,158.9237,436.52,164.822" style="stroke:#181818;stroke-width:1.0;"/><text fill="#000000" font-family="sans-serif" font-size="13" lengthAdjust="spacing" textLength="309" x="579" y="128.499">crearProfesor(codigo, nombres, apellidos) : Profesor</text></g><!--link ProfesorController to ProfesorRepository--><g id="link_ProfesorController_ProfesorRepository"><path d="M316.26,201.712 C280.45,215.392 238,231.602 238,231.602 C238,231.602 238,250.602 238,250.602 C238,250.602 278.1342,264.8091 316.7642,278.4891 " fill="none" id="ProfesorController-to-ProfesorRepository" style="stroke:#181818;stroke-width:1.0;"/><polygon fill="#181818" points="322.42,280.492,315.2715,273.7171,317.7068,278.8229,312.601,281.2582,322.42,280.492" style="stroke:#181818;stroke-width:1.0;"/><text fill="#000000" font-family="sans-serif" font-size="13" lengthAdjust="spacing" textLength="207" x="239" y="246.499">verificarUnicidad(codigo) : boolean</text></g><!--link ProfesorController to ProfesorRepository--><g id="link_ProfesorController_ProfesorRepository"><path d="M398,201.712 C422.26,215.392 451,231.602 451,231.602 C451,231.602 451,250.602 451,250.602 C451,250.602 430.6574,263.5836 409.2274,277.2636 " fill="none" id="ProfesorController-to-ProfesorRepository-1" style="stroke:#181818;stroke-width:1.0;"/><polygon fill="#181818" points="404.17,280.492,413.9084,279.0209,408.3845,277.8016,409.6038,272.2777,404.17,280.492" style="stroke:#181818;stroke-width:1.0;"/><text fill="#000000" font-family="sans-serif" font-size="13" lengthAdjust="spacing" textLength="258" x="452" y="246.499">crear(codigo, nombres, apellidos) : Profesor</text></g><!--link ProfesorRepository to Profesor--><g id="link_ProfesorRepository_Profesor"><path d="M375,320.002 C375,337.462 375,363.262 375,380.592 " fill="none" id="ProfesorRepository-Profesor" style="stroke:#181818;stroke-width:1.0;"/></g><!--link CrearProfesorView to EditarProfesor--><g id="link_CrearProfesorView_EditarProfesor"><path d="M557.24,73.602 C675.4,87.512 897,113.602 897,113.602 C897,113.602 964.2035,140.2878 1014.5235,160.2678 " fill="none" id="CrearProfesorView-to-EditarProfesor" style="stroke:#181818;stroke-width:1.0;stroke-dasharray:7.0,7.0;"/><polygon fill="#181818" points="1020.1,162.482,1013.2114,155.443,1015.4529,160.6368,1010.2591,162.8784,1020.1,162.482" style="stroke:#181818;stroke-width:1.0;"/><text fill="#000000" font-family="sans-serif" font-size="13" lengthAdjust="spacing" textLength="245" x="943" y="128.499">&#171;include&#187; editarProfesor(profesorNuevo)</text></g><!--SRC=[bLBBQW8n5DtdAovse-2ua2fra04xZhkMKcZtcPch16FkS1CjKlf9_Oh-MADOvsLRp2evEVSyGknQcKAot81M1js-G2X8xmy78HWp9yrA8zp4y-H-De9E-CIqH4kC5cQfGdRK0McXX4_enU6Oj9OfiNIA32IvSf9_9eyoTKY8GcPhkKB864luGEpKa6wl0-y2_AguZeUJP361k4fyLVZMvAMZD1_VdHl4P1pxdCXDuc8uYs-JC_4P2xBA4U__8OeF8Lhl0m47KJjS28rYGhGu4EH-j9qtX9tKAfSybuximzUdKHkotOnojQ8-6DgathyFia3jUMHx449Af56QCc6f1q75fcphRP3LKcMINupAl65-ygZfNOZzI-fwux_Zbb_ZYhn7Wwk5ImKlNBbl5niCeiRF3M4wLIRJsnoZ2B1srorEcySjxgWdlW40]--></g></svg>