<?xml version="1.0" encoding="us-ascii" standalone="no"?><svg xmlns="http://www.w3.org/2000/svg" xmlns:xlink="http://www.w3.org/1999/xlink" contentStyleType="text/css" height="442px" preserveAspectRatio="none" style="width:1041px;height:442px;background:#FFFFFF;" version="1.1" viewBox="0 0 1041 442" width="1041px" zoomAndPan="magnify"><defs/><g><!--cluster crearRecurso--><g id="cluster_crearRecurso"><path d="M163.5,6.602 L264.5,6.602 A3.75,3.75 0 0 1 267,9.102 L274,31.6699 L795.5,31.6699 A2.5,2.5 0 0 1 798,34.1699 L798,433.102 A2.5,2.5 0 0 1 795.5,435.602 L163.5,435.602 A2.5,2.5 0 0 1 161,433.102 L161,9.102 A2.5,2.5 0 0 1 163.5,6.602 " fill="none" style="stroke:#000000;stroke-width:1.5;"/><line style="stroke:#000000;stroke-width:1.5;" x1="161" x2="274" y1="31.6699" y2="31.6699"/><text fill="#000000" font-family="sans-serif" font-size="14" font-weight="bold" lengthAdjust="spacing" textLength="100" x="165" y="23.5679">crearRecurso()</text></g><!--entity CrearRecursoView--><g id="elem_CrearRecursoView"><rect fill="#629EF9" height="39.0679" rx="2.5" ry="2.5" style="stroke:#181818;stroke-width:0.5;" width="142" x="369" y="44.602"/><text fill="#000000" font-family="sans-serif" font-size="14" lengthAdjust="spacing" textLength="122" x="379" y="69.5679">CrearRecursoView</text></g><!--entity RecursoController--><g id="elem_RecursoController"><rect fill="#B5BD68" height="39.0679" rx="2.5" ry="2.5" style="stroke:#181818;stroke-width:0.5;" width="141" x="283.5" y="162.602"/><text fill="#000000" font-family="sans-serif" font-size="14" lengthAdjust="spacing" textLength="121" x="293.5" y="187.5679">RecursoController</text></g><!--entity RecursoRepository--><g id="elem_RecursoRepository"><rect fill="#F2AC4E" height="39.0679" rx="2.5" ry="2.5" style="stroke:#181818;stroke-width:0.5;" width="145" x="292.5" y="280.602"/><text fill="#000000" font-family="sans-serif" font-size="14" lengthAdjust="spacing" textLength="125" x="302.5" y="305.5679">RecursoRepository</text></g><!--entity Recurso--><g id="elem_Recurso"><rect fill="#F2AC4E" height="39.0679" rx="2.5" ry="2.5" style="stroke:#181818;stroke-width:0.5;" width="74" x="328" y="380.602"/><text fill="#000000" font-family="sans-serif" font-size="14" lengthAdjust="spacing" textLength="54" x="338" y="405.5679">Recurso</text></g><!--entity RecursosAbierto--><g id="elem_RecursosAbierto"><rect fill="#CDEBA5" height="39.0679" rx="2.5" ry="2.5" style="stroke:#181818;stroke-width:0.5;" width="138" x="7" y="44.602"/><text fill="#000000" font-family="sans-serif" font-size="14" lengthAdjust="spacing" textLength="118" x="17" y="69.5679">:Recursos Abierto</text></g><!--entity EditarRecurso--><g id="elem_EditarRecurso"><rect fill="#CDEBA5" height="39.0679" rx="2.5" ry="2.5" style="stroke:#181818;stroke-width:0.5;" width="212" x="814" y="162.602"/><text fill="#000000" font-family="sans-serif" font-size="14" lengthAdjust="spacing" textLength="192" x="824" y="187.5679">:Collaboration EditarRecurso</text></g><!--link RecursosAbierto to CrearRecursoView--><g id="link_RecursosAbierto_CrearRecursoView"><path d="M145.32,64.102 C209.37,64.102 298.11,64.102 362.76,64.102 " fill="none" id="RecursosAbierto-to-CrearRecursoView" style="stroke:#181818;stroke-width:1.0;"/><polygon fill="#181818" points="368.76,64.102,359.76,60.102,363.76,64.102,359.76,68.102,368.76,64.102" style="stroke:#181818;stroke-width:1.0;"/><text fill="#000000" font-family="sans-serif" font-size="13" lengthAdjust="spacing" textLength="86" x="214" y="56.999">crearRecurso()</text></g><!--link CrearRecursoView to RecursoController--><g id="link_CrearRecursoView_RecursoController"><path d="M368.81,80.052 C300.93,94.302 209,113.602 209,113.602 C209,113.602 209,132.602 209,132.602 C209,132.602 251.77,146.9084 292.66,160.5884 " fill="none" id="CrearRecursoView-to-RecursoController" style="stroke:#181818;stroke-width:1.0;"/><polygon fill="#181818" points="298.35,162.492,291.0841,155.8432,293.6083,160.9056,288.5459,163.4299,298.35,162.492" style="stroke:#181818;stroke-width:1.0;"/><text fill="#000000" font-family="sans-serif" font-size="13" lengthAdjust="spacing" textLength="288" x="210" y="128.499">validarDatosM&#237;nimos(codigo, nombre) : boolean</text></g><!--link CrearRecursoView to RecursoController--><g id="link_CrearRecursoView_RecursoController"><path d="M464.18,83.712 C481.94,97.392 503,113.602 503,113.602 C503,113.602 503,132.602 503,132.602 C503,132.602 458.9053,146.9546 416.8853,160.6346 " fill="none" id="CrearRecursoView-to-RecursoController-1" style="stroke:#181818;stroke-width:1.0;"/><polygon fill="#181818" points="411.18,162.492,420.9762,163.5094,415.9344,160.9441,418.4996,155.9024,411.18,162.492" style="stroke:#181818;stroke-width:1.0;"/><text fill="#000000" font-family="sans-serif" font-size="13" lengthAdjust="spacing" textLength="238" x="504" y="128.499">crearRecurso(codigo, nombre) : Recurso</text></g><!--link RecursoController to RecursoRepository--><g id="link_RecursoController_RecursoRepository"><path d="M305.65,201.712 C270.11,215.392 228,231.602 228,231.602 C228,231.602 228,250.602 228,250.602 C228,250.602 268.1342,264.8091 306.7642,278.4891 " fill="none" id="RecursoController-to-RecursoRepository" style="stroke:#181818;stroke-width:1.0;"/><polygon fill="#181818" points="312.42,280.492,305.2715,273.7171,307.7068,278.8229,302.601,281.2582,312.42,280.492" style="stroke:#181818;stroke-width:1.0;"/><text fill="#000000" font-family="sans-serif" font-size="13" lengthAdjust="spacing" textLength="207" x="229" y="246.499">verificarUnicidad(codigo) : boolean</text></g><!--link RecursoController to RecursoRepository--><g id="link_RecursoController_RecursoRepository"><path d="M387.39,201.712 C411.92,215.392 441,231.602 441,231.602 C441,231.602 441,250.602 441,250.602 C441,250.602 420.6574,263.5836 399.2274,277.2636 " fill="none" id="RecursoController-to-RecursoRepository-1" style="stroke:#181818;stroke-width:1.0;"/><polygon fill="#181818" points="394.17,280.492,403.9084,279.0209,398.3845,277.8016,399.6038,272.2777,394.17,280.492" style="stroke:#181818;stroke-width:1.0;"/><text fill="#000000" font-family="sans-serif" font-size="13" lengthAdjust="spacing" textLength="190" x="442" y="246.499">crear(codigo, nombre) : Recurso</text></g><!--link RecursoRepository to Recurso--><g id="link_RecursoRepository_Recurso"><path d="M365,320.002 C365,337.462 365,363.262 365,380.592 " fill="none" id="RecursoRepository-Recurso" style="stroke:#181818;stroke-width:1.0;"/></g><!--link CrearRecursoView to EditarRecurso--><g id="link_CrearRecursoView_EditarRecurso"><path d="M511.35,76.232 C603.17,90.552 751,113.602 751,113.602 C751,113.602 817.7781,140.2763 867.7981,160.2563 " fill="none" id="CrearRecursoView-to-EditarRecurso" style="stroke:#181818;stroke-width:1.0;stroke-dasharray:7.0,7.0;"/><polygon fill="#181818" points="873.37,162.482,866.4959,155.4289,868.7267,160.6273,863.5283,162.8581,873.37,162.482" style="stroke:#181818;stroke-width:1.0;"/><text fill="#000000" font-family="sans-serif" font-size="13" lengthAdjust="spacing" textLength="236" x="797" y="128.499">&#171;include&#187; editarRecurso(recursoNuevo)</text></g><!--SRC=[ZP9DRi8m48NtFiKetO3Ki405bGX5eY7isWLIktUSAR8mdcXig53L8_KKlLW31VA7Ahon_Fpc-HlRRgrj8Lbkm6YBVbyW56JsXuKGZCfBkp88TyayVPgD88YMgBRioC4iqyYU0f0Epk99krgOa34o8vPUauKqrrxogUwOqL24AAHQonM2Ohoe1rjG5thz03u5bADsudWuIHSJI6g-DuqVRLisolBnunaz8Ukv94Hk-nR3MVAGddrBBCXfJxp_toU-X6ZT2eGSnXsi29eD2T5sG9YNTHtE27RIw5poN7fopp_VLc_8zHJbUaNtO6cJCVOXWep8eBGNdYe2mYguQgmCHjRlMab-jLgLH-Idr4PQ5_CwPQEzBjtbmM-cEmRUa5JLb4dLReTxC8YRdo-2wLHRPROvnZ5WVQl7V_FB5dVK5xy0]--></g></svg>