<?xml version="1.0" encoding="us-ascii" standalone="no"?><svg xmlns="http://www.w3.org/2000/svg" xmlns:xlink="http://www.w3.org/1999/xlink" contentStyleType="text/css" height="547px" preserveAspectRatio="none" style="width:773px;height:547px;background:#FFFFFF;" version="1.1" viewBox="0 0 773 547" width="773px" zoomAndPan="magnify"><defs/><g><!--cluster eliminarCurso--><g id="cluster_eliminarCurso"><path d="M8.5,111 L116.5,111 A3.75,3.75 0 0 1 119,113.5 L126,136.0679 L550.5,136.0679 A2.5,2.5 0 0 1 553,138.5679 L553,537.5 A2.5,2.5 0 0 1 550.5,540 L8.5,540 A2.5,2.5 0 0 1 6,537.5 L6,113.5 A2.5,2.5 0 0 1 8.5,111 " fill="none" style="stroke:#000000;stroke-width:1.5;"/><line style="stroke:#000000;stroke-width:1.5;" x1="6" x2="126" y1="136.0679" y2="136.0679"/><text fill="#000000" font-family="sans-serif" font-size="14" font-weight="bold" lengthAdjust="spacing" textLength="107" x="10" y="127.9659">eliminarCurso()</text></g><!--entity EliminarCursoView--><g id="elem_EliminarCursoView"><rect fill="#629EF9" height="39.0679" rx="2.5" ry="2.5" style="stroke:#181818;stroke-width:0.5;" width="146" x="291" y="149"/><text fill="#000000" font-family="sans-serif" font-size="14" lengthAdjust="spacing" textLength="126" x="301" y="173.9659">EliminarCursoView</text></g><!--entity CursoController--><g id="elem_CursoController"><rect fill="#B5BD68" height="39.0679" rx="2.5" ry="2.5" style="stroke:#181818;stroke-width:0.5;" width="126" x="118" y="267"/><text fill="#000000" font-family="sans-serif" font-size="14" lengthAdjust="spacing" textLength="106" x="128" y="291.9659">CursoController</text></g><!--entity CursoRepository--><g id="elem_CursoRepository"><rect fill="#F2AC4E" height="39.0679" rx="2.5" ry="2.5" style="stroke:#181818;stroke-width:0.5;" width="130" x="124" y="385"/><text fill="#000000" font-family="sans-serif" font-size="14" lengthAdjust="spacing" textLength="110" x="134" y="409.9659">CursoRepository</text></g><!--entity Curso--><g id="elem_Curso"><rect fill="#F2AC4E" height="39.0679" rx="2.5" ry="2.5" style="stroke:#181818;stroke-width:0.5;" width="59" x="159.5" y="485"/><text fill="#000000" font-family="sans-serif" font-size="14" lengthAdjust="spacing" textLength="39" x="169.5" y="509.9659">Curso</text></g><!--entity CursosAbierto--><g id="elem_CursosAbierto"><rect fill="#CDEBA5" height="39.0679" rx="2.5" ry="2.5" style="stroke:#181818;stroke-width:0.5;" width="123" x="213.5" y="7"/><text fill="#000000" font-family="sans-serif" font-size="14" lengthAdjust="spacing" textLength="103" x="223.5" y="31.9659">:Cursos Abierto</text></g><!--entity CursoAbierto--><g id="elem_CursoAbierto"><rect fill="#CDEBA5" height="39.0679" rx="2.5" ry="2.5" style="stroke:#181818;stroke-width:0.5;" width="116" x="395" y="7"/><text fill="#000000" font-family="sans-serif" font-size="14" lengthAdjust="spacing" textLength="96" x="405" y="31.9659">:Curso Abierto</text></g><!--entity AbrirCursos--><g id="elem_AbrirCursos"><rect fill="#CDEBA5" height="39.0679" rx="2.5" ry="2.5" style="stroke:#181818;stroke-width:0.5;" width="198" x="569" y="267"/><text fill="#000000" font-family="sans-serif" font-size="14" lengthAdjust="spacing" textLength="178" x="579" y="291.9659">:Collaboration AbrirCursos</text></g><!--link CursosAbierto to EliminarCursoView--><g id="link_CursosAbierto_EliminarCursoView"><path d="M273.85,46.11 C273,59.79 272,76 272,76 C272,76 272,95 272,95 C272,95 308.3373,123.6365 335.5973,145.1165 " fill="none" id="CursosAbierto-to-EliminarCursoView" style="stroke:#181818;stroke-width:1.0;"/><polygon fill="#181818" points="340.31,148.83,335.7165,140.1179,336.3827,145.7354,330.7652,146.4016,340.31,148.83" style="stroke:#181818;stroke-width:1.0;"/><text fill="#000000" font-family="sans-serif" font-size="13" lengthAdjust="spacing" textLength="136" x="273" y="90.897">eliminarCurso(cursoId)</text></g><!--link CursoAbierto to EliminarCursoView--><g id="link_CursoAbierto_EliminarCursoView"><path d="M442.14,46.3 C430.6,66.28 414,95 414,95 C414,95 395.0958,122.4103 380.2858,143.8903 " fill="none" id="CursoAbierto-to-EliminarCursoView" style="stroke:#181818;stroke-width:1.0;"/><polygon fill="#181818" points="376.88,148.83,385.2818,143.691,379.7182,144.7136,378.6956,139.1499,376.88,148.83" style="stroke:#181818;stroke-width:1.0;"/><text fill="#000000" font-family="sans-serif" font-size="13" lengthAdjust="spacing" textLength="136" x="425" y="90.897">eliminarCurso(cursoId)</text></g><!--link EliminarCursoView to CursoController--><g id="link_EliminarCursoView_CursoController"><path d="M290.93,180.93 C199.28,195.27 54,218 54,218 C54,218 54,237 54,237 C54,237 90.8451,251.0688 126.6551,264.7488 " fill="none" id="EliminarCursoView-to-CursoController" style="stroke:#181818;stroke-width:1.0;"/><polygon fill="#181818" points="132.26,266.89,125.28,259.9416,127.5892,265.1057,122.4251,267.4149,132.26,266.89" style="stroke:#181818;stroke-width:1.0;"/><text fill="#000000" font-family="sans-serif" font-size="13" lengthAdjust="spacing" textLength="265" x="55" y="232.897">cargarCursoParaEliminacion(cursoId) : Curso</text></g><!--link EliminarCursoView to CursoController--><g id="link_EliminarCursoView_CursoController"><path d="M353.14,188.3 C341.6,208.28 325,237 325,237 C325,237 282.5561,251.2946 241.9461,264.9746 " fill="none" id="EliminarCursoView-to-CursoController-1" style="stroke:#181818;stroke-width:1.0;"/><polygon fill="#181818" points="236.26,266.89,246.066,267.8076,240.9984,265.2938,243.5121,260.2262,236.26,266.89" style="stroke:#181818;stroke-width:1.0;"/><text fill="#000000" font-family="sans-serif" font-size="13" lengthAdjust="spacing" textLength="171" x="336" y="232.897">eliminarCurso(cursoId) : void</text></g><!--link CursoController to CursoRepository--><g id="link_CursoController_CursoRepository"><path d="M138.02,306.11 C106.43,319.79 69,336 69,336 C69,336 69,355 69,355 C69,355 103.5473,368.9613 137.3873,382.6413 " fill="none" id="CursoController-to-CursoRepository" style="stroke:#181818;stroke-width:1.0;"/><polygon fill="#181818" points="142.95,384.89,136.1052,377.8085,138.3144,383.0161,133.1069,385.2253,142.95,384.89" style="stroke:#181818;stroke-width:1.0;"/><text fill="#000000" font-family="sans-serif" font-size="13" lengthAdjust="spacing" textLength="178" x="70" y="350.897">obtenerPorId(cursoId) : Curso</text></g><!--link CursoController to CursoRepository--><g id="link_CursoController_CursoRepository"><path d="M208.63,306.11 C228.94,319.79 253,336 253,336 C253,336 253,355 253,355 C253,355 236.3918,367.5859 218.3418,381.2659 " fill="none" id="CursoController-to-CursoRepository-1" style="stroke:#181818;stroke-width:1.0;"/><polygon fill="#181818" points="213.56,384.89,223.1488,382.6417,217.5448,381.8699,218.3167,376.2659,213.56,384.89" style="stroke:#181818;stroke-width:1.0;"/><text fill="#000000" font-family="sans-serif" font-size="13" lengthAdjust="spacing" textLength="136" x="254" y="350.897">eliminar(cursoId) : void</text></g><!--link CursoRepository to Curso--><g id="link_CursoRepository_Curso"><path d="M189,424.4 C189,441.86 189,467.66 189,484.99 " fill="none" id="CursoRepository-Curso" style="stroke:#181818;stroke-width:1.0;"/></g><!--link EliminarCursoView to AbrirCursos--><g id="link_EliminarCursoView_AbrirCursos"><path d="M422.33,188.11 C465.2,201.79 516,218 516,218 C516,218 575.5864,244.4648 620.5764,264.4448 " fill="none" id="EliminarCursoView-to-AbrirCursos" style="stroke:#181818;stroke-width:1.0;stroke-dasharray:7.0,7.0;"/><polygon fill="#181818" points="626.06,266.88,619.4581,259.5714,621.4904,264.8506,616.2111,266.8828,626.06,266.88" style="stroke:#181818;stroke-width:1.0;"/><text fill="#000000" font-family="sans-serif" font-size="13" lengthAdjust="spacing" textLength="137" x="557" y="232.897">&#171;include&#187; abrirCursos()</text></g><!--SRC=[bL9DRuCm3BtdLrZi0WTwgDPgHHKIOrJghTfXzm0MYfecoAIRqBJ_lb3eoaTRTJb4iltUyxEJQYzKoOaVG0g5fYuHIYth9c2CC3DS5HBXANvBNgC5E45yf4fN4AK2oMW7U0LjgilS9aqvTobQIfvguaPePQaagErpelTYnagUxNc1W58SXE9jla4vWuphEV3Dm9vUl-LybMnMaFI17mA_nhXqaURBbzPsh9KXQmzfZDhCe_WvQL7lMEfA64trFHJxOMomF_3zS6ed60xdPiszpJtMt-C_gMm21J-t2gCP0yWu5HrgPxzAHylik_o9GT2DmqRiawVHFWBGgK65jDEqpMzfNF1MurovOlcQu-iJsmQVMkGFUZnhJEbJ4xDPsF-I0QpNGcNoc6CO0hyKN8_z0W00]--></g></svg>