<?xml version="1.0" encoding="us-ascii" standalone="no"?><svg xmlns="http://www.w3.org/2000/svg" xmlns:xlink="http://www.w3.org/1999/xlink" contentStyleType="text/css" height="671px" preserveAspectRatio="none" style="width:635px;height:671px;background:#FFFFFF;" version="1.1" viewBox="0 0 635 671" width="635px" zoomAndPan="magnify"><defs/><g><!--cluster cerrarSesion--><g id="cluster_cerrarSesion"><path d="M201,7 L499,7 A12.5,12.5 0 0 1 511.5,19.5 L511.5,31.0679 L188.5,31.0679 L188.5,19.5 A12.5,12.5 0 0 1 201,7 " fill="#F1F1F1" style="stroke:#F1F1F1;stroke-width:1.0;"/><rect fill="none" height="507" rx="12.5" ry="12.5" style="stroke:#181818;stroke-width:0.5;" width="323" x="188.5" y="7"/><line style="stroke:#181818;stroke-width:0.5;" x1="188.5" x2="511.5" y1="31.0679" y2="31.0679"/><text fill="#000000" font-family="sans-serif" font-size="14" lengthAdjust="spacing" textLength="93" x="303.5" y="25.9659">cerrarSesion()</text></g><g id="cerrarSesion.SolicitandoCierre"><rect fill="#F1F1F1" height="50" rx="12.5" ry="12.5" style="stroke:#181818;stroke-width:0.5;" width="50" x="214.5" y="162"/><line style="stroke:#181818;stroke-width:0.5;" x1="214.5" x2="264.5" y1="191.0679" y2="191.0679"/><text fill="#000000" font-family="sans-serif" font-size="14" lengthAdjust="spacing" textLength="4" x="237.5" y="181.9659">&#160;</text></g><g id="cerrarSesion.ConfirmandoCierre"><rect fill="#F1F1F1" height="50" rx="12.5" ry="12.5" style="stroke:#181818;stroke-width:0.5;" width="50" x="214.5" y="327"/><line style="stroke:#181818;stroke-width:0.5;" x1="214.5" x2="264.5" y1="356.0679" y2="356.0679"/><text fill="#000000" font-family="sans-serif" font-size="14" lengthAdjust="spacing" textLength="4" x="237.5" y="346.9659">&#160;</text></g><g id="elem_c"><polygon fill="#F1F1F1" points="239.5,474,251.5,486,239.5,498,227.5,486,239.5,474" style="stroke:#181818;stroke-width:0.5;"/></g><ellipse cx="239.5" cy="55" fill="#222222" rx="10" ry="10" style="stroke:#222222;stroke-width:1.0;"/><g id="SISTEMA_DISPONIBLE"><rect fill="#F1F1F1" height="50" rx="12.5" ry="12.5" style="stroke:#181818;stroke-width:0.5;" width="167" x="7" y="615"/><line style="stroke:#181818;stroke-width:0.5;" x1="7" x2="174" y1="644.0679" y2="644.0679"/><text fill="#000000" font-family="sans-serif" font-size="14" lengthAdjust="spacing" textLength="147" x="17" y="634.9659">SISTEMA_DISPONIBLE</text></g><g id="SESION_CERRADA"><rect fill="#F1F1F1" height="50" rx="12.5" ry="12.5" style="stroke:#181818;stroke-width:0.5;" width="140" x="318.5" y="615"/><line style="stroke:#181818;stroke-width:0.5;" x1="318.5" x2="458.5" y1="644.0679" y2="644.0679"/><text fill="#000000" font-family="sans-serif" font-size="14" lengthAdjust="spacing" textLength="120" x="328.5" y="634.9659">SESION_CERRADA</text></g><!--link *start*cerrarSesion to SolicitandoCierre--><g id="link_*start*cerrarSesion_SolicitandoCierre"><path d="M239.5,65.35 C239.5,85.32 239.5,126.68 239.5,155.77 " fill="none" id="*start*cerrarSesion-to-SolicitandoCierre" style="stroke:#008000;stroke-width:1.0;"/><polygon fill="#008000" points="239.5,161.77,243.5,152.77,239.5,156.77,235.5,152.77,239.5,161.77" style="stroke:#008000;stroke-width:1.0;"/><path d="M244.5,100 L244.5,127 L483.5,127 L483.5,110 L473.5,100 L244.5,100 " fill="#FEFFDD" style="stroke:#181818;stroke-width:0.5;"/><path d="M473.5,100 L473.5,110 L483.5,110 L473.5,100 " fill="#FEFFDD" style="stroke:#181818;stroke-width:0.5;"/><text fill="#000000" font-family="sans-serif" font-size="13" font-weight="bold" lengthAdjust="spacing" textLength="95" x="250.5" y="118.897">Administrador</text><text fill="#000000" font-family="sans-serif" font-size="13" lengthAdjust="spacing" textLength="120" x="348.5" y="118.897">solicita cerrar sesi&#243;n</text></g><!--link SolicitandoCierre to ConfirmandoCierre--><g id="link_SolicitandoCierre_ConfirmandoCierre"><path d="M239.5,212.05 C239.5,242.87 239.5,289.98 239.5,320.85 " fill="none" id="SolicitandoCierre-to-ConfirmandoCierre" style="stroke:#008000;stroke-width:1.0;"/><polygon fill="#008000" points="239.5,326.85,243.5,317.85,239.5,321.85,235.5,317.85,239.5,326.85" style="stroke:#008000;stroke-width:1.0;"/><path d="M244.5,247 L244.5,292 L454.5,292 L454.5,257 L444.5,247 L244.5,247 " fill="#FEFFDD" style="stroke:#181818;stroke-width:0.5;"/><path d="M444.5,247 L444.5,257 L454.5,257 L444.5,247 " fill="#FEFFDD" style="stroke:#181818;stroke-width:0.5;"/><text fill="#000000" font-family="sans-serif" font-size="13" font-weight="bold" lengthAdjust="spacing" textLength="52" x="250.5" y="265.897">Sistema</text><text fill="#000000" font-family="sans-serif" font-size="13" lengthAdjust="spacing" textLength="134" x="305.5" y="265.897">presenta confirmaci&#243;n</text><text fill="#000000" font-family="sans-serif" font-size="13" lengthAdjust="spacing" textLength="178" x="250.5" y="283.603">&#191;Desea cerrar la sesi&#243;n activa?</text></g><!--link ConfirmandoCierre to c--><g id="link_ConfirmandoCierre_c"><path d="M239.5,377.21 C239.5,405.94 239.5,446.62 239.5,467.85 " fill="none" id="ConfirmandoCierre-to-c" style="stroke:#008000;stroke-width:1.0;"/><polygon fill="#008000" points="239.5,473.85,243.5,464.85,239.5,468.85,235.5,464.85,239.5,473.85" style="stroke:#008000;stroke-width:1.0;"/><path d="M244.5,412 L244.5,439 L490.5,439 L490.5,422 L480.5,412 L244.5,412 " fill="#FEFFDD" style="stroke:#181818;stroke-width:0.5;"/><path d="M480.5,412 L480.5,422 L490.5,422 L480.5,412 " fill="#FEFFDD" style="stroke:#181818;stroke-width:0.5;"/><text fill="#000000" font-family="sans-serif" font-size="13" font-weight="bold" lengthAdjust="spacing" textLength="52" x="250.5" y="430.897">Sistema</text><text fill="#000000" font-family="sans-serif" font-size="13" lengthAdjust="spacing" textLength="170" x="305.5" y="430.897">permite confirmar y cancelar</text></g><!--link c to SISTEMA_DISPONIBLE--><g id="link_c_SISTEMA_DISPONIBLE"><path d="M230.89,489.44 C198.74,498.53 87.5,530 87.5,530 C87.5,530 87.5,585 87.5,585 C87.5,585 88.0265,594.4793 88.8265,608.8493 " fill="none" id="c-to-SISTEMA_DISPONIBLE" style="stroke:#0000FF;stroke-width:1.0;"/><polygon fill="#0000FF" points="89.16,614.84,92.6535,605.6316,88.8821,609.8477,84.6659,606.0763,89.16,614.84" style="stroke:#0000FF;stroke-width:1.0;"/><path d="M92.5,544 L92.5,571 L340.5,571 L340.5,554 L330.5,544 L92.5,544 " fill="#FEFFDD" style="stroke:#181818;stroke-width:0.5;"/><path d="M330.5,544 L330.5,554 L340.5,554 L330.5,544 " fill="#FEFFDD" style="stroke:#181818;stroke-width:0.5;"/><text fill="#000000" font-family="sans-serif" font-size="13" font-weight="bold" lengthAdjust="spacing" textLength="95" x="98.5" y="562.897">Administrador</text><text fill="#000000" font-family="sans-serif" font-size="13" lengthAdjust="spacing" textLength="129" x="196.5" y="562.897">solicita cancelar cierre</text></g><!--link c to SESION_CERRADA--><g id="link_c_SESION_CERRADA"><path d="M247.41,490.09 C272.63,499.95 349.5,530 349.5,530 C349.5,530 366.3285,577.0508 377.8185,609.1608 " fill="none" id="c-to-SESION_CERRADA" style="stroke:#008000;stroke-width:1.0;"/><polygon fill="#008000" points="379.84,614.81,380.5739,604.9885,378.1554,610.1023,373.0416,607.6838,379.84,614.81" style="stroke:#008000;stroke-width:1.0;"/><path d="M374.5,535 L374.5,580 L628.5,580 L628.5,545 L618.5,535 L374.5,535 " fill="#FEFFDD" style="stroke:#181818;stroke-width:0.5;"/><path d="M618.5,535 L618.5,545 L628.5,545 L618.5,535 " fill="#FEFFDD" style="stroke:#181818;stroke-width:0.5;"/><text fill="#000000" font-family="sans-serif" font-size="13" lengthAdjust="spacing" textLength="233" x="380.5" y="553.897">Administrador &#8594; UsuarioNoRegistrado</text><text fill="#000000" font-family="sans-serif" font-size="13" lengthAdjust="spacing" textLength="82" x="380.5" y="571.603">iniciarSesion()</text></g><!--SRC=[dPFHIiCm58RlynI7UL4LXYzGAdNhHK4tMVLgZ96cnndM9YNfX27U-W2-YWyWw9lu9APfNLixPTX0IvB_dFyxEQbUSv5JHJD8kS1YcoFaCjsM4q9qGGi4XafH5Q7cKW3LC6Wl79yCu94GC4-b7fXXH95CEUC55OaSSQF7lcGanHrNMIC1Q8aOk2wxbvoXvrNvvwSB6CwFLWfHB8PUtw8A5z946r9JmjekkB7d9naNN1UA9bAvPx47kWwkgmDjglbu5JO0HL9bWPh8llfsRPXUCR-oH8O3CsefSeKQHKbHXxCTnFlRsEpj-5BwZGYK5Vo1ddTG6yp-gROnsM5Og39Uzg3EfM0BZ0g6ALLxRCcJ_RBIAKutQ9iJHZV1bRySXz7rT19UN0R_Qavj2gmvqtx9h7ijWYYSJfQZO3Rpn_v-ruubV3w_mAtUKCNbHCvmLMzOfP4ntbpsBW4XJkVd-0F3wJ0uXm4uFzsTdVKN]--></g></svg>