<?xml version="1.0" encoding="us-ascii" standalone="no"?><svg xmlns="http://www.w3.org/2000/svg" xmlns:xlink="http://www.w3.org/1999/xlink" contentStyleType="text/css" height="932px" preserveAspectRatio="none" style="width:1464px;height:932px;background:#FFFFFF;" version="1.1" viewBox="0 0 1464 932" width="1464px" zoomAndPan="magnify"><defs/><g><rect fill="#FFFFFF" height="158.5301" style="stroke:#000000;stroke-width:1.0;" width="10" x="302.5" y="118.7739"/><rect fill="#FFFFFF" height="248.9421" style="stroke:#000000;stroke-width:1.0;" width="10" x="302.5" y="309.01"/><rect fill="#FFFFFF" height="95.118" style="stroke:#000000;stroke-width:1.0;" width="10" x="600.5" y="150.4799"/><rect fill="#FFFFFF" height="185.5301" style="stroke:#000000;stroke-width:1.0;" width="10" x="600.5" y="340.716"/><rect fill="#FFFFFF" height="31.706" style="stroke:#000000;stroke-width:1.0;" width="10" x="912.5" y="182.186"/><rect fill="#FFFFFF" height="122.118" style="stroke:#000000;stroke-width:1.0;" width="10" x="1228.5" y="372.4221"/><line style="stroke:#000000;stroke-width:1.0;" x1="61" x2="61" y1="85.0679" y2="848.4243"/><line style="stroke:#000000;stroke-width:1.0;" x1="307" x2="307" y1="85.0679" y2="848.4243"/><line style="stroke:#000000;stroke-width:1.0;" x1="605" x2="605" y1="85.0679" y2="848.4243"/><line style="stroke:#000000;stroke-width:1.0;" x1="917" x2="917" y1="85.0679" y2="848.4243"/><line style="stroke:#000000;stroke-width:1.0;" x1="1233" x2="1233" y1="85.0679" y2="848.4243"/><text fill="#000000" font-family="Verdana" font-size="14" lengthAdjust="spacing" textLength="97" x="10" y="80.9659">Administrador</text><ellipse cx="61.5" cy="14" fill="#FFFFFF" rx="8" ry="8" style="stroke:#000000;stroke-width:1.0;"/><path d="M61.5,22 L61.5,49 M48.5,30 L74.5,30 M61.5,49 L48.5,64 M61.5,49 L74.5,64 " fill="none" style="stroke:#000000;stroke-width:1.0;"/><text fill="#000000" font-family="Verdana" font-size="14" lengthAdjust="spacing" textLength="97" x="10" y="862.3903">Administrador</text><ellipse cx="61.5" cy="875.4923" fill="#FFFFFF" rx="8" ry="8" style="stroke:#000000;stroke-width:1.0;"/><path d="M61.5,883.4923 L61.5,910.4923 M48.5,891.4923 L74.5,891.4923 M61.5,910.4923 L48.5,925.4923 M61.5,910.4923 L74.5,925.4923 " fill="none" style="stroke:#000000;stroke-width:1.0;"/><rect fill="#FFFFFF" height="33.0679" rx="2.5" ry="2.5" style="stroke:#000000;stroke-width:1.0;" width="263" x="176" y="51"/><text fill="#000000" font-family="Verdana" font-size="14" lengthAdjust="spacing" textLength="249" x="183" y="72.9659">profesorListaView : ProfesorListaView</text><rect fill="#FFFFFF" height="33.0679" rx="2.5" ry="2.5" style="stroke:#000000;stroke-width:1.0;" width="263" x="176" y="847.4243"/><text fill="#000000" font-family="Verdana" font-size="14" lengthAdjust="spacing" textLength="249" x="183" y="869.3903">profesorListaView : ProfesorListaView</text><rect fill="#FFFFFF" height="33.0679" rx="2.5" ry="2.5" style="stroke:#000000;stroke-width:1.0;" width="273" x="469" y="51"/><text fill="#000000" font-family="Verdana" font-size="14" lengthAdjust="spacing" textLength="259" x="476" y="72.9659">profesorController : ProfesorController</text><rect fill="#FFFFFF" height="33.0679" rx="2.5" ry="2.5" style="stroke:#000000;stroke-width:1.0;" width="273" x="469" y="847.4243"/><text fill="#000000" font-family="Verdana" font-size="14" lengthAdjust="spacing" textLength="259" x="476" y="869.3903">profesorController : ProfesorController</text><rect fill="#FFFFFF" height="33.0679" rx="2.5" ry="2.5" style="stroke:#000000;stroke-width:1.0;" width="291" x="772" y="51"/><text fill="#000000" font-family="Verdana" font-size="14" lengthAdjust="spacing" textLength="277" x="779" y="72.9659">dependencyVerifier : DependencyVerifier</text><rect fill="#FFFFFF" height="33.0679" rx="2.5" ry="2.5" style="stroke:#000000;stroke-width:1.0;" width="291" x="772" y="847.4243"/><text fill="#000000" font-family="Verdana" font-size="14" lengthAdjust="spacing" textLength="277" x="779" y="869.3903">dependencyVerifier : DependencyVerifier</text><rect fill="#FFFFFF" height="33.0679" rx="2.5" ry="2.5" style="stroke:#000000;stroke-width:1.0;" width="281" x="1093" y="51"/><text fill="#000000" font-family="Verdana" font-size="14" lengthAdjust="spacing" textLength="267" x="1100" y="72.9659">profesorRepository : ProfesorRepository</text><rect fill="#FFFFFF" height="33.0679" rx="2.5" ry="2.5" style="stroke:#000000;stroke-width:1.0;" width="281" x="1093" y="847.4243"/><text fill="#000000" font-family="Verdana" font-size="14" lengthAdjust="spacing" textLength="267" x="1100" y="869.3903">profesorRepository : ProfesorRepository</text><rect fill="#FFFFFF" height="158.5301" style="stroke:#000000;stroke-width:1.0;" width="10" x="302.5" y="118.7739"/><rect fill="#FFFFFF" height="248.9421" style="stroke:#000000;stroke-width:1.0;" width="10" x="302.5" y="309.01"/><rect fill="#FFFFFF" height="95.118" style="stroke:#000000;stroke-width:1.0;" width="10" x="600.5" y="150.4799"/><rect fill="#FFFFFF" height="185.5301" style="stroke:#000000;stroke-width:1.0;" width="10" x="600.5" y="340.716"/><rect fill="#FFFFFF" height="31.706" style="stroke:#000000;stroke-width:1.0;" width="10" x="912.5" y="182.186"/><rect fill="#FFFFFF" height="122.118" style="stroke:#000000;stroke-width:1.0;" width="10" x="1228.5" y="372.4221"/><polygon fill="#000000" points="290.5,114.7739,300.5,118.7739,290.5,122.7739,294.5,118.7739" style="stroke:#000000;stroke-width:1.0;"/><line style="stroke:#000000;stroke-width:1.0;" x1="61.5" x2="296.5" y1="118.7739" y2="118.7739"/><text fill="#000000" font-family="Verdana" font-size="13" lengthAdjust="spacing" textLength="164" x="68.5" y="112.9649">solicitarEliminarProfesor(id)</text><polygon fill="#000000" points="588.5,146.4799,598.5,150.4799,588.5,154.4799,592.5,150.4799" style="stroke:#000000;stroke-width:1.0;"/><line style="stroke:#000000;stroke-width:1.0;" x1="312.5" x2="594.5" y1="150.4799" y2="150.4799"/><text fill="#000000" font-family="Verdana" font-size="13" lengthAdjust="spacing" textLength="139" x="319.5" y="144.6709">procesarEliminacion(id)</text><polygon fill="#000000" points="900.5,178.186,910.5,182.186,900.5,186.186,904.5,182.186" style="stroke:#000000;stroke-width:1.0;"/><line style="stroke:#000000;stroke-width:1.0;" x1="610.5" x2="906.5" y1="182.186" y2="182.186"/><text fill="#000000" font-family="Verdana" font-size="13" lengthAdjust="spacing" textLength="150" x="617.5" y="176.377">verificarDependencias(id)</text><polygon fill="#000000" points="621.5,209.892,611.5,213.892,621.5,217.892,617.5,213.892" style="stroke:#000000;stroke-width:1.0;"/><line style="stroke:#000000;stroke-width:1.0;" x1="615.5" x2="916.5" y1="213.892" y2="213.892"/><text fill="#000000" font-family="Verdana" font-size="13" lengthAdjust="spacing" textLength="190" x="627.5" y="208.083">dependenciasIdentificadas(info)</text><polygon fill="#000000" points="323.5,241.598,313.5,245.598,323.5,249.598,319.5,245.598" style="stroke:#000000;stroke-width:1.0;"/><line style="stroke:#000000;stroke-width:1.0;" x1="317.5" x2="604.5" y1="245.598" y2="245.598"/><text fill="#000000" font-family="Verdana" font-size="13" lengthAdjust="spacing" textLength="169" x="329.5" y="239.789">presentarConfirmacion(info)</text><polygon fill="#000000" points="72.5,273.304,62.5,277.304,72.5,281.304,68.5,277.304" style="stroke:#000000;stroke-width:1.0;"/><line style="stroke:#000000;stroke-width:1.0;" x1="66.5" x2="306.5" y1="277.304" y2="277.304"/><text fill="#000000" font-family="Verdana" font-size="13" lengthAdjust="spacing" textLength="217" x="78.5" y="271.495">mostrarAdvertenciasDependencias()</text><polygon fill="#000000" points="290.5,305.01,300.5,309.01,290.5,313.01,294.5,309.01" style="stroke:#000000;stroke-width:1.0;"/><line style="stroke:#000000;stroke-width:1.0;" x1="61.5" x2="296.5" y1="309.01" y2="309.01"/><text fill="#000000" font-family="Verdana" font-size="13" lengthAdjust="spacing" textLength="134" x="68.5" y="303.201">confirmarEliminacion()</text><polygon fill="#000000" points="588.5,336.716,598.5,340.716,588.5,344.716,592.5,340.716" style="stroke:#000000;stroke-width:1.0;"/><line style="stroke:#000000;stroke-width:1.0;" x1="312.5" x2="594.5" y1="340.716" y2="340.716"/><text fill="#000000" font-family="Verdana" font-size="13" lengthAdjust="spacing" textLength="135" x="319.5" y="334.907">ejecutarEliminacion(id)</text><polygon fill="#000000" points="1216.5,368.4221,1226.5,372.4221,1216.5,376.4221,1220.5,372.4221" style="stroke:#000000;stroke-width:1.0;"/><line style="stroke:#000000;stroke-width:1.0;" x1="610.5" x2="1222.5" y1="372.4221" y2="372.4221"/><text fill="#000000" font-family="Verdana" font-size="13" lengthAdjust="spacing" textLength="118" x="617.5" y="366.6131">eliminarProfesor(id)</text><rect fill="#FFFFFF" height="3" style="stroke:#FFFFFF;stroke-width:1.0;" width="1452" x="5" y="402.2751"/><line style="stroke:#000000;stroke-width:0.5;" x1="5" x2="1457" y1="402.2751" y2="402.2751"/><line style="stroke:#000000;stroke-width:0.5;" x1="5" x2="1457" y1="405.2751" y2="405.2751"/><rect fill="#FFFFFF" height="25.706" style="stroke:#000000;stroke-width:1.0;" width="189" x="636.5" y="390.4221"/><text fill="#000000" font-family="Verdana" font-size="13" font-weight="bold" lengthAdjust="spacing" textLength="172" x="642.5" y="408.3191">Eliminaci&#243;n Transaccional</text><line style="stroke:#000000;stroke-width:1.0;" x1="1238.5" x2="1280.5" y1="449.8341" y2="449.8341"/><line style="stroke:#000000;stroke-width:1.0;" x1="1280.5" x2="1280.5" y1="449.8341" y2="462.8341"/><line style="stroke:#000000;stroke-width:1.0;" x1="1239.5" x2="1280.5" y1="462.8341" y2="462.8341"/><polygon fill="#000000" points="1249.5,458.8341,1239.5,462.8341,1249.5,466.8341,1245.5,462.8341" style="stroke:#000000;stroke-width:1.0;"/><text fill="#000000" font-family="Verdana" font-size="13" lengthAdjust="spacing" textLength="151" x="1245.5" y="444.0251">eliminarDependencias(id)</text><polygon fill="#000000" points="621.5,490.5401,611.5,494.5401,621.5,498.5401,617.5,494.5401" style="stroke:#000000;stroke-width:1.0;"/><line style="stroke:#000000;stroke-width:1.0;" x1="615.5" x2="1232.5" y1="494.5401" y2="494.5401"/><text fill="#000000" font-family="Verdana" font-size="13" lengthAdjust="spacing" textLength="118" x="627.5" y="488.7311">profesorEliminado()</text><polygon fill="#000000" points="323.5,522.2461,313.5,526.2461,323.5,530.2461,319.5,526.2461" style="stroke:#000000;stroke-width:1.0;"/><line style="stroke:#000000;stroke-width:1.0;" x1="317.5" x2="604.5" y1="526.2461" y2="526.2461"/><text fill="#000000" font-family="Verdana" font-size="13" lengthAdjust="spacing" textLength="93" x="329.5" y="520.4371">actualizarLista()</text><polygon fill="#000000" points="72.5,553.9521,62.5,557.9521,72.5,561.9521,68.5,557.9521" style="stroke:#000000;stroke-width:1.0;"/><line style="stroke:#000000;stroke-width:1.0;" x1="66.5" x2="306.5" y1="557.9521" y2="557.9521"/><text fill="#000000" font-family="Verdana" font-size="13" lengthAdjust="spacing" textLength="204" x="78.5" y="552.1431">mostrarConfirmacionEliminacion()</text><path d="M66,570.9521 L66,650.9521 L241,650.9521 L241,580.9521 L231,570.9521 L66,570.9521 " fill="#FFFFFF" style="stroke:#000000;stroke-width:1.0;"/><path d="M231,570.9521 L231,580.9521 L241,580.9521 L231,570.9521 " fill="#FFFFFF" style="stroke:#000000;stroke-width:1.0;"/><text fill="#000000" font-family="Verdana" font-size="13" font-weight="bold" lengthAdjust="spacing" textLength="129" x="72" y="589.8492">Eliminaci&#243;n segura:</text><text fill="#000000" font-family="Verdana" font-size="13" lengthAdjust="spacing" textLength="154" x="72" y="607.5552">Verificaci&#243;n exhaustiva de</text><text fill="#000000" font-family="Verdana" font-size="13" lengthAdjust="spacing" textLength="151" x="72" y="625.2612">dependencias seguida de</text><text fill="#000000" font-family="Verdana" font-size="13" lengthAdjust="spacing" textLength="130" x="72" y="642.9672">confirmaci&#243;n expl&#237;cita</text><path d="M922,661.7762 L922,741.7762 L1138,741.7762 L1138,671.7762 L1128,661.7762 L922,661.7762 " fill="#FFFFFF" style="stroke:#000000;stroke-width:1.0;"/><path d="M1128,661.7762 L1128,671.7762 L1138,671.7762 L1128,661.7762 " fill="#FFFFFF" style="stroke:#000000;stroke-width:1.0;"/><text fill="#000000" font-family="Verdana" font-size="13" font-weight="bold" lengthAdjust="spacing" textLength="195" x="928" y="680.6732">Verificaci&#243;n de dependencias:</text><text fill="#000000" font-family="Verdana" font-size="13" lengthAdjust="spacing" textLength="164" x="928" y="698.3792">Identifica cursos asignados,</text><text fill="#000000" font-family="Verdana" font-size="13" lengthAdjust="spacing" textLength="127" x="928" y="716.0853">horarios generados y</text><text fill="#000000" font-family="Verdana" font-size="13" lengthAdjust="spacing" textLength="154" x="928" y="733.7913">preferencias configuradas</text><path d="M1238,752.6003 L1238,832.6003 L1452,832.6003 L1452,762.6003 L1442,752.6003 L1238,752.6003 " fill="#FFFFFF" style="stroke:#000000;stroke-width:1.0;"/><path d="M1442,752.6003 L1442,762.6003 L1452,762.6003 L1442,752.6003 " fill="#FFFFFF" style="stroke:#000000;stroke-width:1.0;"/><text fill="#000000" font-family="Verdana" font-size="13" font-weight="bold" lengthAdjust="spacing" textLength="165" x="1244" y="771.4973">Operaci&#243;n transaccional:</text><text fill="#000000" font-family="Verdana" font-size="13" lengthAdjust="spacing" textLength="193" x="1244" y="789.2033">Elimina profesor y dependencias</text><text fill="#000000" font-family="Verdana" font-size="13" lengthAdjust="spacing" textLength="188" x="1244" y="806.9093">de forma at&#243;mica garantizando</text><text fill="#000000" font-family="Verdana" font-size="13" lengthAdjust="spacing" textLength="128" x="1244" y="824.6153">consistencia de datos</text><!--SRC=[dLJ1ZjCm4BtdAuQUTYKGzsfRQGKSa9102FK-QqzQeyIEnkv2-ITE-mdzCSPscjffTmMSaeppthnvC-DNOKSzmT2XiKs3AZY6nRtkZJK-C6h72q0F62FDW1oCCWFQ08k1NKlUyIVv4JU6Vi0IlinZ2VmeBzUnxvmDxBgEk02VWmcjfi-QGzD0LfDLXmsnQKtYU7yHp0h6Z-igljBWl97A3uMASp0nyFGfBaKpuCqw5IOGxphX3CWVEYCdo2UE6wDlewVc4GDb6vg44QmgInSbYln4e8opDROmeIcGKSEv-Foga2SN3FgPXfCH4smkHHVOZ_8CYL978jkwsqRJ9TbSKhPbOFA2nzZGrd0_bZLdAKixcPCTNaBluX3olPPK8MkgQglb97_dpL5ZyihRl-iAVIUr3__L5Iv7YbuSYtAoLYkOaXsVB7nZj1vLp8mTh5PDmVjSbelcrvZvt2L5OrBjQaTBQLTRB7_kiJE_C6_ypRysjfoCkZyNVRKk2ZBRNG3NZlSHmDt3kZBCqtRFkBnx-x2Mqysu4FcCVkvmxoEf3BcSbfEUW4QF9sgIbN53T_mT5xoH_o4AcSkPDY4fgjDggZATj9rt2zIUlPCxrfjjx85_BSSx9_OOYMx9Kho7FHmaB3lL4e-QaynOhspdizAA7YPndmUXoyf2ELqdNQETqsZ0ePAVV8FMYJk0uVZKnmAsA4n1ni1gb-tpCWu9aCh7u0g1Vm00]--></g></svg>