<?xml version="1.0" encoding="us-ascii" standalone="no"?><svg xmlns="http://www.w3.org/2000/svg" xmlns:xlink="http://www.w3.org/1999/xlink" contentStyleType="text/css" height="547px" preserveAspectRatio="none" style="width:881px;height:547px;background:#FFFFFF;" version="1.1" viewBox="0 0 881 547" width="881px" zoomAndPan="magnify"><defs/><g><!--cluster eliminarProfesor--><g id="cluster_eliminarProfesor"><path d="M8.5,111 L135.5,111 A3.75,3.75 0 0 1 138,113.5 L145,136.0679 L634.5,136.0679 A2.5,2.5 0 0 1 637,138.5679 L637,537.5 A2.5,2.5 0 0 1 634.5,540 L8.5,540 A2.5,2.5 0 0 1 6,537.5 L6,113.5 A2.5,2.5 0 0 1 8.5,111 " fill="none" style="stroke:#000000;stroke-width:1.5;"/><line style="stroke:#000000;stroke-width:1.5;" x1="6" x2="145" y1="136.0679" y2="136.0679"/><text fill="#000000" font-family="sans-serif" font-size="14" font-weight="bold" lengthAdjust="spacing" textLength="126" x="10" y="127.9659">eliminarProfesor()</text></g><!--entity EliminarProfesorView--><g id="elem_EliminarProfesorView"><rect fill="#629EF9" height="39.0679" rx="2.5" ry="2.5" style="stroke:#181818;stroke-width:0.5;" width="163" x="332.5" y="149"/><text fill="#000000" font-family="sans-serif" font-size="14" lengthAdjust="spacing" textLength="143" x="342.5" y="173.9659">EliminarProfesorView</text></g><!--entity ProfesorController--><g id="elem_ProfesorController"><rect fill="#B5BD68" height="39.0679" rx="2.5" ry="2.5" style="stroke:#181818;stroke-width:0.5;" width="143" x="130.5" y="267"/><text fill="#000000" font-family="sans-serif" font-size="14" lengthAdjust="spacing" textLength="123" x="140.5" y="291.9659">ProfesorController</text></g><!--entity ProfesorRepository--><g id="elem_ProfesorRepository"><rect fill="#F2AC4E" height="39.0679" rx="2.5" ry="2.5" style="stroke:#181818;stroke-width:0.5;" width="147" x="139.5" y="385"/><text fill="#000000" font-family="sans-serif" font-size="14" lengthAdjust="spacing" textLength="127" x="149.5" y="409.9659">ProfesorRepository</text></g><!--entity Profesor--><g id="elem_Profesor"><rect fill="#F2AC4E" height="39.0679" rx="2.5" ry="2.5" style="stroke:#181818;stroke-width:0.5;" width="76" x="175" y="485"/><text fill="#000000" font-family="sans-serif" font-size="14" lengthAdjust="spacing" textLength="56" x="185" y="509.9659">Profesor</text></g><!--entity ProfesoresAbierto--><g id="elem_ProfesoresAbierto"><rect fill="#CDEBA5" height="39.0679" rx="2.5" ry="2.5" style="stroke:#181818;stroke-width:0.5;" width="148" x="234" y="7"/><text fill="#000000" font-family="sans-serif" font-size="14" lengthAdjust="spacing" textLength="128" x="244" y="31.9659">:Profesores Abierto</text></g><!--entity ProfesorAbierto--><g id="elem_ProfesorAbierto"><rect fill="#CDEBA5" height="39.0679" rx="2.5" ry="2.5" style="stroke:#181818;stroke-width:0.5;" width="133" x="453.5" y="7"/><text fill="#000000" font-family="sans-serif" font-size="14" lengthAdjust="spacing" textLength="113" x="463.5" y="31.9659">:Profesor Abierto</text></g><!--entity AbrirProfesores--><g id="elem_AbrirProfesores"><rect fill="#CDEBA5" height="39.0679" rx="2.5" ry="2.5" style="stroke:#181818;stroke-width:0.5;" width="223" x="652.5" y="267"/><text fill="#000000" font-family="sans-serif" font-size="14" lengthAdjust="spacing" textLength="203" x="662.5" y="291.9659">:Collaboration AbrirProfesores</text></g><!--link ProfesoresAbierto to EliminarProfesorView--><g id="link_ProfesoresAbierto_EliminarProfesorView"><path d="M306.85,46.11 C306,59.79 305,76 305,76 C305,76 305,95 305,95 C305,95 348.6339,124.0275 380.9339,145.5075 " fill="none" id="ProfesoresAbierto-to-EliminarProfesorView" style="stroke:#181818;stroke-width:1.0;"/><polygon fill="#181818" points="385.93,148.83,380.6508,140.5155,381.7666,146.0613,376.2208,147.177,385.93,148.83" style="stroke:#181818;stroke-width:1.0;"/><text fill="#000000" font-family="sans-serif" font-size="13" lengthAdjust="spacing" textLength="170" x="306" y="90.897">eliminarProfesor(profesorId)</text></g><!--link ProfesorAbierto to EliminarProfesorView--><g id="link_ProfesorAbierto_EliminarProfesorView"><path d="M509.14,46.3 C497.6,66.28 481,95 481,95 C481,95 455.1833,122.9445 435.3233,144.4245 " fill="none" id="ProfesorAbierto-to-EliminarProfesorView" style="stroke:#181818;stroke-width:1.0;"/><polygon fill="#181818" points="431.25,148.83,440.2969,144.9372,434.6444,145.1587,434.4229,139.5062,431.25,148.83" style="stroke:#181818;stroke-width:1.0;"/><text fill="#000000" font-family="sans-serif" font-size="13" lengthAdjust="spacing" textLength="170" x="492" y="90.897">eliminarProfesor(profesorId)</text></g><!--link EliminarProfesorView to ProfesorController--><g id="link_EliminarProfesorView_ProfesorController"><path d="M332.31,180.51 C226.1,194.81 54,218 54,218 C54,218 54,237 54,237 C54,237 97.7685,251.3409 139.4985,265.0209 " fill="none" id="EliminarProfesorView-to-ProfesorController" style="stroke:#181818;stroke-width:1.0;"/><polygon fill="#181818" points="145.2,266.89,137.8939,260.2854,140.4488,265.3324,135.4018,267.8874,145.2,266.89" style="stroke:#181818;stroke-width:1.0;"/><text fill="#000000" font-family="sans-serif" font-size="13" lengthAdjust="spacing" textLength="315" x="55" y="232.897">cargarProfesorParaEliminacion(profesorId) : Profesor</text></g><!--link EliminarProfesorView to ProfesorController--><g id="link_EliminarProfesorView_ProfesorController"><path d="M403.14,188.3 C391.6,208.28 375,237 375,237 C375,237 322.9572,251.5902 274.1672,265.2702 " fill="none" id="EliminarProfesorView-to-ProfesorController-1" style="stroke:#181818;stroke-width:1.0;"/><polygon fill="#181818" points="268.39,266.89,278.1357,268.3117,273.2043,265.5401,275.9759,260.6088,268.39,266.89" style="stroke:#181818;stroke-width:1.0;"/><text fill="#000000" font-family="sans-serif" font-size="13" lengthAdjust="spacing" textLength="205" x="386" y="232.897">eliminarProfesor(profesorId) : void</text></g><!--link ProfesorController to ProfesorRepository--><g id="link_ProfesorController_ProfesorRepository"><path d="M152.49,306.11 C116.12,319.79 73,336 73,336 C73,336 73,355 73,355 C73,355 114.1207,369.2456 153.6007,382.9256 " fill="none" id="ProfesorController-to-ProfesorRepository" style="stroke:#181818;stroke-width:1.0;"/><polygon fill="#181818" points="159.27,384.89,152.0757,378.1638,154.5456,383.253,149.4564,385.7229,159.27,384.89" style="stroke:#181818;stroke-width:1.0;"/><text fill="#000000" font-family="sans-serif" font-size="13" lengthAdjust="spacing" textLength="212" x="74" y="350.897">obtenerPorId(profesorId) : Profesor</text></g><!--link ProfesorController to ProfesorRepository--><g id="link_ProfesorController_ProfesorRepository"><path d="M236.16,306.11 C261.25,319.79 291,336 291,336 C291,336 291,355 291,355 C291,355 270.0253,368.0417 248.0253,381.7217 " fill="none" id="ProfesorController-to-ProfesorRepository-1" style="stroke:#181818;stroke-width:1.0;"/><polygon fill="#181818" points="242.93,384.89,252.6851,383.5344,247.1761,382.2497,248.4607,376.7407,242.93,384.89" style="stroke:#181818;stroke-width:1.0;"/><text fill="#000000" font-family="sans-serif" font-size="13" lengthAdjust="spacing" textLength="154" x="292" y="350.897">eliminar(profesorId) : void</text></g><!--link ProfesorRepository to Profesor--><g id="link_ProfesorRepository_Profesor"><path d="M213,424.4 C213,441.86 213,467.66 213,484.99 " fill="none" id="ProfesorRepository-Profesor" style="stroke:#181818;stroke-width:1.0;"/></g><!--link EliminarProfesorView to AbrirProfesores--><g id="link_EliminarProfesorView_AbrirProfesores"><path d="M485.11,188.04 C537.62,201.74 600,218 600,218 C600,218 664.6616,244.6162 713.2016,264.5962 " fill="none" id="EliminarProfesorView-to-AbrirProfesores" style="stroke:#181818;stroke-width:1.0;stroke-dasharray:7.0,7.0;"/><polygon fill="#181818" points="718.75,266.88,711.95,259.7554,714.1264,264.9768,708.9049,267.1532,718.75,266.88" style="stroke:#181818;stroke-width:1.0;"/><text fill="#000000" font-family="sans-serif" font-size="13" lengthAdjust="spacing" textLength="160" x="644" y="232.897">&#171;include&#187; abrirProfesores()</text></g><!--SRC=[dLAnRi8m4Dtz5QTqWG46L52nK2IQ1gbRrA6xarmZ2sDR5xSLglhlTH0br751hQVuxhrtzrxSRgMsWiGEbDJezXR16hNlBemHLaxeHY7SP0_v_NeE2I_8l61h25jObnB9cGH42ttvMBr8Zb8l4JEZb2WD2IUDzcoIr4yyg0Grngoejg91G2LtKejJhmCdON4qJk23WJzdqnUpPRvPGXvWdoM-Xz1oNjQBkvELp6X7VcMa4BYPhRFR_0HyGcjQwGpjhm3P9sE3Z64oIQFhyO7haJr-FDPZ5YJ-NnaMuy2azch383XKWfeUM_X7T-HN_f-U2mFlRREXqc7TOO0SJEbG8nMTo5MzdkZrplfnJxzOkXIFd_fcPFqd1zzwKPtePjDf6Zvz3gkLr9LwhJ5DGVniZiRi2m00]--></g></svg>